<?xml version="1.0" encoding="UTF-8"?>
<svg width="128" height="128" version="1.0" viewBox="0 0 96 96" xmlns="http://www.w3.org/2000/svg">
	<g transform="matrix(.75 0 0 .75 11.622 7.6648)">
		<path d="m56.217 4e-4c-.10673-.009-.53229.48856-.97246 1.1488-.46951.70427-.85504 1.4756-.85504 1.6936 0 .45275.51972 1.5594.9054 1.9619.21799.20122.20119.62053-.11741 3.3706-.0325.27591-.0649.52457-.0975.78012.11579-.91039.25957-2.0611.38269-3.1446l.31859-2.6828.0838 4.695c.0143.79211.025 1.286.0364 1.8302l.50035.46719.49421.4613c.1301-.15966.27839-.3363.44484-.52836.50133-.56.91539-1.0535 1.2566-1.5001-.0106-.0255-.016-.0658-.016-.1265 0-.35214-.92213-2.2303-1.5426-3.119l-.53671-.78798-.28493.83834-.28518.82163-.0167-.85504c-.0168-.62043.067-.93919.26823-1.0901.62043-.51982.73801-1.2073.45294-2.6997-.13414-.77135-.31874-1.4588-.40258-1.5259-.004-.005-.01-.008-.017-.009zm2.3804 8.5529c.0244.0589.0801.0292.18545-.0762.0708-.0708.0992-.15826.0835-.28813-.0845.11829-.1732.23896-.26896.36428zm.26896-.36428c.56089-.7855.88099-1.4265 1.04-2.0427.11738-.48629.11735-.48627.13412-.0671.0168.43598-.58703 1.7774-1.2242 2.7164l-.31859.48635.0899-.0378c.0607-.13747.58834-.72349 1.2348-1.3542 1.4924-1.4421 1.5762-1.727 1.2743-4.1752l-.21787-1.727-1.1402 1.2407c-1.7942 1.9451-1.962 2.5657-1.1068 4.3096.14236.30253.21689.50411.23457.65092zm-.27879 1.0552c-.004.009-.006.0159-.006.0209 0 .10061.26839.0504.60376-.0838.0872-.0349.1725-.0657.253-.0924.56681-.33536.48544-.40754-.30335-.0754zm.85062-.15524c-.12.071-.25874.14941-.43747.24317-1.0024.53321-1.6514 1.3543-2.1426 2.8842.20985-.61137.44547-1.0899.56643-1.0899.0838 0 .33535-.30192.57011-.67082.23476-.36891.45281-.67057.48635-.67057.0335 0 .0335 1.0395 0 2.2971-.0335 1.7104-.13418 2.5824-.36894 3.3202l-.31858.9894-.38564-.73787c-.20122-.41921-.51978-.95575-.70423-1.2073-.21841-.31397-.26796-.48763-.19822-.89262-.13249.60463-.25475 1.2864-.37189 2.0662-.17646 1.2352-.19778 2.1819-.0673 4.7119v-.67058l.58706.4527c.58689.43598.60358.43595.83834.13412.13414-.16769.36884-.60362.51975-.95575.15092-.33537.33558-.62047.38589-.62047.0503 0 .38549.2851.73763.62047.72104.67073.72115.67062 1.2913-.53671.45275-.93903.41905-1.9282-.084-2.9343-.23476-.46951-.38553-.83858-.35199-.83858.0503 0 .35221.15101.67081.35223.39586.22872.61464.49082.67672.85677.006-.68368-.26969-1.3024-.87813-2.2151l-.75458-1.1235.60376.58706c.33537.3186.7713.83832.95575 1.1569.10973.17558.19613.28729.26676.34855-.017-.22982-.0113-.56936.0184-.93536.11738-1.3918-.0504-1.7775-1.4925-3.3202-.98933-1.0564-1.023-1.1234-.72117-1.3414.16768-.13415.38574-.23482.48635-.23482.0838 0 .11736-.0504.0671-.10071-.0372-.0372-.22209-.00031-.45123.0754zm2.093 5.8571c.0118.15976.0341.26799.0685.28862.11529.0641.20249-.22685.34879-1.2068-.073.43798-.14886.78469-.21443.90491-.0473.0851-.11164.0924-.20289.0133zm.41732-.91817c.0516-.30978.10047-.662.14394-1.0341-.0544.40812-.10173.75139-.14394 1.0341zm.14394-1.0341c.004-.0289.006-.0436.0103-.0732.0448-.37866.0736-.64063.083-.8521-.0242.30168-.0572.61603-.0933.92529zm.0933-.92529c.0319-.397.0513-.76773.0513-1.0594 0-.62043.0669-1.0899.16752-1.0899.10061 0 .16776 1.1067.16776 2.968 0 1.0352-.0181 1.805-.0592 2.4585.058-.65669.0926-1.2787.0926-1.7877 0-.92227.0673-1.5764.13436-1.459.3186.48628 1.5426-1.4252 1.5426-2.4146 0-.9055-1.0228-3.9237-1.3414-3.9237-.21799 0-1.6769 3.2865-1.6769 3.7896 0 .2683.21799.85506.50305 1.291.3418.54216.44054.72693.41831 1.2272zm.32743 3.2772c-.0469.53141-.1093 1.0836-.18373 1.6244.0867-.50498.1454-1.0145.18373-1.6244zm-.18373 1.6244c-.0281.16342-.0584.32729-.0924.49495-.18445.87195-.33553 1.6098-.33553 1.6266 0 .01.0252.0172.0621.0241.004-.0627.0177-.14204.0386-.2422.12121-.55756.23299-1.2191.32718-1.9034zm-.36575 2.1456c-.0121.18938.0634.22745.29009.22745.36202 0 .90985.14725 1.4504.36452-.38418-.35451-.82249-.56594-1.2326-.56594-.22733 0-.41594-.009-.50797-.026zm1.7405.59197c.2756.25431.52346.58193.71258.96017.40244.75458.43596 1.2575.0671.65387-.36891-.5869-1.308-1.1739-1.8781-1.1739-.55336 0-1.3247.73781-2.3308 2.2637-.36891.55336-1.2239 1.6768-1.8778 2.5153-.67074.82165-1.4423 1.9788-1.7106 2.5489l-.51975 1.0395-.0504 3.2364c-.005.33146-.0116.63992-.0199.9388l.30507.36918c.40244.48629.7546.33522 1.4421-.65411.41921-.62044.48617-.855.4694-1.8108-.0168-1.0229-.63716-3.5383-.88869-3.5383-.0503 0-.31858.33537-.57011.75458-.5869.90549-.72108.97271-.36894.15106.30183-.72104.65389-1.2408 2.096-3.0854.62043-.78812 1.3416-1.7608 1.5932-2.18.2683-.41921.63719-.92223.82164-1.1402l.33529-.38564.51975.58681c.2683.3186.73793.7042 1.0398.83834.35214.18446.98943.26848 1.8614.26848h1.3077l.36894.78798c.20122.45275.51977 1.0733.70422 1.4087.29741.51771.45639 1.2378.45982 1.9373.0472-.90985-.18986-1.6324-.74475-2.7422-.43598-.85519-.83844-1.9452-.93905-2.5489-.10042-.58246-.11019-1.2277-.0337-1.9294-.005.045-.012.0907-.0167.13534l-.11741 1.0899-.68752-.55341c-.33411-.26892-.83865-.53665-1.3498-.74205zm2.1714.0703c.18793-1.5466.80524-3.3523 1.9621-5.6498.4634-.90694.74444-1.4533 1.0648-1.8412.4445-1.0026-.0873-.20579-1.0481 1.6735-1.1395 2.2202-1.7997 4.1759-1.9788 5.8175zm3.0269-7.491c-.083.18722-.1882.41517-.34388.73443-1.1324 2.3207-1.8548 4.441-2.0547 5.9573.28425-1.3933.82201-3.1374 1.3839-4.3644l.41929-.88869-.0334.78823c-.0503.75458-.0337.80493.36869.80493 1.593 0 2.7333-.9559 3.4543-2.8675l.48635-1.2913.20117.50305c.11738.28507.21812.62062.21812.77153 0 .0538-.10144.20225-.27093.40971.32079-.29126.64541-.58001.97516-.86241 2.532-2.1799 2.5824-2.1632.23482.0838-3.6555 3.5214-6.0368 6.6235-6.6908 8.7364-.22229.72023-.30135 1.2234-.21075 1.7098-.0589-.53747.0342-1.0991.27781-1.7602.45275-1.2576 1.7944-3.2866 3.2364-4.9802l1.1235-1.2913.72093.41929c.38567.23476.9558.41929 1.2576.41929.57013 0 3.035-.93918 3.035-1.1572s-2.3641-1.2409-2.884-1.2576l-.48635-.0167.38565-.30188c.21799-.15092.68755-.53657 1.0565-.82164.3689-.30183.57014-.41921.43599-.25152-.20122.25152-.16768.30196.25153.46964.85518.35214 2.2972.3856 2.9009.0838.53659-.28506 2.9178-2.4482 2.8171-2.5656-.0335-.0335-.85517-.13404-1.8277-.21788-2.029-.20122-2.4315-.10066-3.1861.70423l-.48635.53646.11741-1.8781c.0838-1.2912.0671-1.8778-.067-1.8778-.38568 0-2.6158 2.0289-2.9847 2.7164-.13414.25153-.23482.5869-.23482.75458 0 .21799-.28518.41923-1.0398.68752-1.4817.54802-2.0659.76687-2.557 1.3615zm-1.8626 10.225c.0547.49858.24021.9765.56299 1.493.28506.43598.58698.97258.67082 1.1906.13414.38568.1509.36874.57011-.33553l.43599-.73763-.0806-.0101c-.0626.0931-.12887.19268-.20462.3117-.46951.75458-.72092.93915-.72092.53671 0-.11738-.25151-.58695-.57011-1.0565-.37021-.5435-.58344-.9613-.6637-1.3922zm2.1594 1.6003c.51953-.77219.57845-.6573-.0202.34536-.28958.48867-.43196.75364-.50231 1.1198.0659-.23507.17597-.44899.3515-.7509.30183-.50305.70406-.90552 1.1233-1.1235.88872-.45275 1.4423-1.0899 1.7106-1.9619.11738-.40244.25133-.72117.30164-.72117.0503 0 .28511.2013.5534.41929.52227.45698.54894.75342.21002 2.7936.0381-.21287.0747-.42777.10857-.64723.18445-1.157.23476-1.3415.25152-.75458.006.23041-.0166.57836-.0543.96852.009-.0442.0167-.0673.0209-.0631.0335.0335.23471.51999.4527 1.0901l.37704.91989c.0953-.0401.17532-.0648.22672-.0648.13414.0168-.0336.16785-.36894.33554-.80489.43598-1.1906 1.006-1.811 2.7331-1.3247 3.622-4.712 7.2943-9.9773 10.799-.82165.55336-2.9008 1.8109-4.6112 2.8002-3.7897 2.1967-4.3933 2.8005-4.846 4.9301-.0568.27399-.0982.58042-.12847.90122.2348-1.5355.58708-2.4024 1.319-3.232.55336-.6372 3.5883-2.4483 4.1249-2.4819.18445 0 .58704-.10049.90564-.21787s.62027-.16778.67058-.10071c.0503.0671.67088.50312 1.4087.9894.72104.46952 1.442.85522 1.5929.87199.15091 0-.13412.15084-.63717.33529-.50305.16768-1.0565.45284-1.2409.60376-.35213.3186-1.5259 2.6492-1.7103 3.4374-.15091.57013-.0503.58713 1.308.0673 2.5823-.97256 2.9847-1.4085 3.035-3.2698.0168-1.0229.13421-1.3416.48635-1.3583.17426 0 .027 1.5199-.18472 2.4131.18402-.47714.26118-.97684.26848-1.5747 0-.57012.0672-1.0395.15106-1.0395.0838 0 .21792-.15101.26823-.35223.0508-.15248.35249-.54103.73345-.97835-.14927.0706-.23132.006-.36451-.14517-.13415-.15092-.57015-.43583-.93905-.60352-.67074-.28506-.7545-.28524-2.096-.0169-.77135.16768-1.5259.33551-1.6936.40259-.60366.23475.85498-1.3079 1.8778-1.9619.92226-.60366 1.0733-.65397 1.5932-.50305.90549.25152 1.8781.20107 2.4482-.15106.28506-.16769 1.0395-.78815 1.66-1.375 1.0732-1.0061 1.1068-1.073.73788-1.1736-.21799-.0671-.68744-.11735-1.0228-.13412-.35213-.0168-.63741-.0673-.63741-.13436 0-.0671.43618-.51982.956-1.0061l.95575-.8887.36893.4527.36894.46965.53646-.50305c.82165-.77135 1.2242-1.7775 1.1068-2.8172-.11737-.98933-.1007-.97248.40235.67082.20122.67074.43598 1.224.50305 1.224.23476 0 1.5428-1.0732 1.9118-1.5595.3186-.43598.35205-.70416.33528-2.4816 0-1.1067-.067-2.0458-.13411-2.1129-.0503-.0671-.55346.3354-1.1068.87199l-1.0061 1.0061.38564-1.1402c.41921-1.2409 1.09-2.2134 1.7607-2.5153.6372-.28506 1.8447-1.6264 2.0292-2.2301.15092-.51982-.0503-3.3873-.25152-3.5717-.13415-.13415-1.828 1.7774-2.1466 2.4146l-.26823.50305v-.60351c0-.35214.10074-.65417.21812-.70447.35214-.13415 1.006-1.6433 1.0228-2.3978.0168-.53659-.18451-1.0898-.80494-2.3138-.45274-.88872-.88867-1.6099-.95575-1.6099-.13415 0-.90564 1.9451-1.1572 2.968-.15091.62043-.28496.77148-1.1569 1.2242-1.7439.93903-2.0289 1.3582-2.0289 3.1021 0 1.0061.0167 1.0732.40234 1.1235zm-4.1328 18.181c.13261-.0627.31816-.23197.64159-.54751.44607-.42259.60397-.60684.58411-.7369-.37261.34915-.8393.84086-1.2257 1.2844zm1.2257-1.2844c.22964-.21518.42424-.3774.53941-.43697.20122-.10061-.0672.26845-.58706.83858-1.0814 1.1646-1.5313 1.9518-1.6836 3.0896.13961-.72053.38484-1.3458.57699-1.3458.0838 0 .15082-.11732.15082-.26823 0-.33537 1.1403-1.744 1.4254-1.744.13414 0 .0504.4193-.26823 1.3583-.2683.73781-.48635 1.6768-.48635 2.0793 0 .62043.10067.83836.73787 1.5259l.62391.69661c.91815-.84196 1.3192-1.7851 1.4888-3.1615.0319-.26813.0783-.57436.12895-.87863l-.17931.76121-.55316-1.0565c-.6372-1.1906-.65407-1.2239-.35223-1.1066.13414.0503.48633.0334.80493-.0336.3186-.0671.58675-.11742.60351-.11742.005.005-.005.0705-.0223.15991.20167-.76614.17174-1.0529-.21222-2.1888-.0503-.18445.0671-.0503.25152.31858l.36869.65412.67082-1.2409c.0891-.16459.18105-.32698.27462-.48807l-1.2807-.082c-1.5595-.11738-1.9786.10056-2.8506 1.4588-.48628.75458-.51994.87201-.28518 1.0565.0654.0503.1062.0961.11471.1518zm4.3017-2.585.0273.002.65387-.95575c.36891-.51982 1.1571-1.5092 1.744-2.1967.88873-1.0396 1.2576-1.6937 2.1463-3.7395.49977-1.1566.94795-2.1118 1.0916-2.3512.0131-.0525.0209-.0911.0152-.0968-.0335-.0335-.57014 1.0898-1.1906 2.4983-.88873 1.9954-1.308 2.75-1.9284 3.404-.99375 1.0679-1.8425 2.202-2.5592 3.4359zm5.663-9.2414c-.0648.25938-.34037 1.0396-.68899 1.9321-.41921 1.0732-.75458 1.9954-.75458 2.0289 0 .0116.047-.0179.12527-.0749.078-.29802.33248-1.045.66271-1.9036.41921-1.0899.73776-1.9956.70423-2.0459-.005-.005-.0236.0216-.0486.0634zm-1.3183 3.8861c-.021.0803-.0319.13486-.0248.14198.0335.0503.70441-.46955 1.4758-1.1235.77135-.67073 2.1462-1.7439 3.0517-2.3978.69353-.50088 1.2478-.95168 1.4173-1.1508-1.4884 1.0211-3.158 2.2623-4.2344 3.163-.77398.64498-1.4245 1.1772-1.6855 1.3672zm5.92-4.5302c.78383-.53774 1.5205-1.0181 2.0874-1.3478.80488-.46951.67074-.3185-.75458.85529-1.2912 1.0564-4.7288 4.3766-4.6282 4.4604.008.008.0924-.0207.23261-.0788.0636-.0752.13245-.15531.23704-.27339 1.1402-1.3079 3.9572-3.8064 4.5609-4.0411.35214-.13415.82177-.4694 1.0398-.72093.35214-.43598 1.2073-2.2973 1.5259-3.3369.11738-.3689.084-.38579-.35199-.28518-.92226.23476-2.6663.98937-3.1861 1.375-.3689.26829-.58703.6204-.72117 1.1402-.23476.97256-.23476 2.0625 0 2.1463.0275.008.0103.046-.0415.10685zm-3.0628 3.8891c-.25248.29856-.20515.3001.10292.17955.23476-.0838 1.4086-.65397 2.6327-1.2576.58412-.30017 1.111-.55769 1.5057-.74328.46381-.27932.78401-.48836.75802-.51435-.0335-.0503-1.2074.503-2.616 1.2073-1.0517.52583-1.9703.95705-2.3834 1.1284zm4.2413-1.8214c-.1346.0811-.27791.16641-.43255.25693-1.1069.6286-1.5564.96733-1.3038.97147.24242-.1597.62829-.39931 1.0857-.66959.73781-.43598 1.3414-.82175 1.3414-.85528 0-.0173-.26958.0985-.69072.29647zm-1.7364 1.2284c-.14862.0979-.2557.17271-.2557.18546 0 .0335.18435.0337.40234-.0334.53659-.13415 2.5824.20109 3.4543.53646.0688.0275.11968.0501.17661.0744.55949.13258.54419.0279-.19331-.25889-.9055-.36891-2.7837-.67079-3.3035-.55341-.13033.0341-.2234.0503-.28075.0494zm3.7776.76293c-.12744-.0302-.27489-.0688-.46154-.12478-1.6936-.51982-4.0915-.23461-5.718.65412-2.0625 1.1235-2.9345 2.0792-4.779 5.1813-.75533 1.2456-1.6654 3.3671-2.0149 4.5596l.12011-.35076c.57013-1.5427.98928-2.4818 1.7774-3.8903.78812-1.375 1.2073-1.9282.93905-1.224-.15092.38568.1844.55341 1.2073.55341 1.1906 0 1.6768-.2851 2.7835-1.6266l.95575-1.1402-1.2743-.0503c-.6875-.0335-1.5258.0168-1.8444.11741-.51982.13415-.55332.134-.38564-.15106.3186-.50306 2.6996-1.9786 3.8063-2.3475 1.2241-.40244 3.2699-.45267 4.4604-.0838.94659.27932 1.1345.22489.42814-.0766zm-12.974 10.27-.098.28641.0236-.0123c.0207-.0845.0457-.17599.0744-.27412zm-.0744.27412c-.0462.18802-.0739.34394-.0739.44828 0 .88944.359 1.0159 1.9356.44312.002-.16094.0495-.50053.12699-.86217.10061-.48628.15102-.92246.10071-.95599-.0503-.0503-.53668.13423-1.1068.41929zm1.8616.8914c-.00074.048.002.082.01.0936.0503.0335.3187-.0167.60376-.13411.25716-.10477.3843-.17756.44631-.35567-.13336.0451-.26148.0908-.37925.13755-.25083.0992-.4736.18351-.6804.25865zm1.0596-.3962c.77705-.26284 1.8116-.49412 2.9938-.67254l.19871-.43084c.16769-.35214.31852-.67069.33529-.70422.0168-.0335.46958.0671.9894.23482 1.2073.38567 1.7607.21792 3.5717-.9894 1.4253-.9558 1.5259-.93887 1.5259.084 0 .45275.0503.50296.38564.40235 1.7942-.50305 2.4148-1.0229 2.8675-2.3812.33537-1.0061.77118-2.9009.67057-2.9009-.0335 0-.6707.30173-1.3917.65387-1.7607.88872-2.3307 1.392-2.5487 2.2807l-.18447.72093-.77153-.21788c-1.3582-.38567-2.8506-.63738-3.2865-.52-.21799.0503-.63728.30195-.92235.53671l-.51975.43599.10071-.51975c.0671-.28507.0671-.52 0-.52-.20122 0-2.1967 1.0566-2.8842 1.5261-.78812.53659-1.0732 1.157-1.0732 2.3308 0 .31874-.01.51495-.0568.65043zm2.9938-.67254-.10317.22328.63717-.10071c.35214-.0503 1.1738-.13417 1.811-.18447 1.6098-.15092 4.8628-.72091 5.8689-1.0395 1.2798-.40955 1.7872-.65396 2.053-1.1414-.61998.41931-1.3377.74264-2.1871.99039-1.1235.33536-4.1754.85525-5.7684.9894-.81162.0633-1.5874.1538-2.3114.26307zm10.267-2.2429c.555-.37536 1.0319-.8273 1.4517-1.3738.23476-.30184.23476-.28523 0 .16752-.46951.98933-1.8111 2.0291-3.4376 2.683l-.93905.38565.35715.0417c.10354-.0507.26684-.11558.51484-.20928.46952-.18445 1.2242-.57015 1.6769-.87199.46952-.30183 1.0229-.5534 1.2576-.5534.40245 0 .40236.0167.0838.20117-.18445.11738-.68747.55342-1.1402.9894-.30208.30825-.54967.51818-.79462.6465.34781.0615.25914.0943-.26135.10636-.18579.0535-.38113.0634-.60548.0376-1.3163.1118-3.9846.47046-5.029.68507l-.92235.18447.33038.13878c.001-.002.003-.003.005-.005.11738-.0671 1.1067-.23472 2.2134-.38564 1.1067-.15091 2.1967-.30175 2.4315-.33529 1.0396-.15091 1.526-.0671 2.3812.38565l.92234.4694-1.3247.38588c-1.2409.35214-1.962.85519-2.18 1.5092-.006.0308-.15697-.003-.40505-.0847.17389.0972.26093.15395.15352.11815-.18445-.0671-1.1571-.40245-2.18-.75458-1.0061-.35214-2.3139-.75455-2.8672-.8887-1.0229-.21799-1.0566-.218-2.7334.31859-2.7332.88872-4.8963 2.0624-9.7759 5.2988-2.5153 1.6768-4.645 3.1022-4.7456 3.1861-.0678.0813-.0794.17361-.0199.26798.0495-.0702.12764-.14809.23802-.23433.53659-.41921.55328-.43621.83834-.0673.12758.17398.19769.31319.21296.42175.45105-.0242 1.0325-.0688 1.7658-.13657.0471-.004.10261-.008.15131-.0123l.18398-.35666c.15092-.28506.26823-.88871.26823-1.3247v-.80493l2.5656-1.7103c1.3918-.92226 2.884-1.8949 3.3032-2.1296l.73788-.41905.21812.83834c.11738.46951.28503.98924.38564 1.1569.26829.50305.20107.63737-.40259.83859-.3186.10061-.77135.36882-1.0061.58681l-.43599.40234-.0167-.78798c0-.43598-.0503-1.0732-.11742-1.4421l-.11741-.63717-1.3748 1.4252c-1.5595 1.6265-1.7271 2.0626-1.3247 3.3873.108.36449.19292.68193.2137.80198.52889-.0185 1.0613-.0325 1.5806-.0405l.30164-.32546.43599-.43599.0504.46964c.0149.12939.0286.22101.0577.28444.20847-.00059.41601-.001.61285.00049.15127.001.27342.00045.4161.001.32676-.0711.682-.16633.89189-.25275.50305-.20122.51983-.20121.43599.18447-.004.0246-.01.0441-.0145.0658 1.6696-.0243 2.6725-.13572 3.7196-.42789-.0318.004-.0496.001-.0496-.007 0-.0503.23469-.53651.51976-1.0899.28506-.57012.4696-1.0565.41929-1.1068-.0671-.0838-2.5655.58711-3.3536.88894-.28506.11738-.28524.10059-.0169-.436.25153-.48628.92234-2.2807.92234-2.4652 0-.0335-.15076-.0167-.35198.0336-.3186.10061-.30205.0672.11716-.58681.35214-.53659.4864-.97257.53671-1.7607l.067-1.0565 1.2073-.36894c.65397-.20122 1.2578-.38558 1.3416-.40235.33536-.0838 1.1568.1341 3.6385.95575 2.8339.9558 2.6831.82161 2.4819 2.2134-.0671.50305-.0671.50305.77128.50305.46951 0 1.0229-.067 1.2576-.15082.0306-.0102.0542-.0166.0786-.0233.66587-.69063 1.4448-1.5756 2.2836-2.5946.0178-.0958.12105-.30896.3208-.63521.22892-.37199.55459-.63286.64551-.54554 1.1571-1.4183 1.4363-1.7259 1.2493-1.3662-.40244.75458-3.2866 4.997-3.5884 5.2653-.36489.33015-.4338.46484-.12724.39621.13599-.19075.3286-.45.54653-.73149.40244-.51982 1.1402-1.6097 1.66-2.3978.85519-1.2912 1.073-1.5092 2.2971-2.247.73781-.45274 1.3416-.87197 1.3416-.93904 0-.10061-1.9621-.721-3.1023-.95575l-.67058-.13412.63717-.13411c.36891-.0671.8552-.33539 1.1906-.68752.68751-.68751 2.1799-2.7501 2.0793-2.8675-.15092-.15092-3.1524.26841-3.7896.5367-.73781.28507-1.2241 1.0228-1.5595 2.2972-.0516.2104-.1116.38426-.19405.53547zm-.43624 7.7251c-.11513.1615-.19134.27594-.19134.29132 0 .0335.95565-.33529 2.1127-.83834.65615-.27184 1.2278-.50253 1.6293-.65584.32234-.20434.54729-.35392.534-.36722-.0335-.0335-1.0062.3523-2.18.83859-1.0101.42827-1.6195.66765-1.9046.73149zm3.5506-1.2029c-.49091.31121-1.2613.77981-2.1824 1.3264-1.5259.88873-2.7668 1.6434-2.7668 1.6602 0 0 .17742.008.37238.0152.21244-.22978 1.0458-.70478 2.713-1.6922 1.3582-.78812 2.4481-1.4757 2.4146-1.4925-.0148-.0148-.23396.0618-.55071.18275zm-4.5768 3.0019c-.22772.24631.25824.21092 1.2038.21959.69601.0157 1.2236.0524 1.5551.0958 1.0398-.0617.3317-.23888-1.572-.28026-.50818-.01-.9014-.0239-1.1869-.0351zm2.7589.31539c-.2241.0133-.52545.0214-.91792.0214-2.4314.0168-3.2028.28511-6.7912 2.3141l-3.0016 1.6936.58681.20117c.29255.1038.55543.21333.82164.34486.0519-.0188.14313-.03.26848-.043.26829-.0168.73785-.0838 1.0564-.13412l.57011-.0838-.62046-.63716-.62046-.63742 1.7774-1.0228c2.3979-1.3918 3.7059-1.7941 5.9025-1.7941 1.4765 0 1.6991-.12717.96827-.22279zm-9.3023 4.5751c-.14944.0543.0324.17551.70447.61113.36011.23233.79822.45428 1.1353.59247-.79058-.59815-1.3277-.95057-1.8398-1.2036zm1.8398 1.2036c.25897.19594.53586.40946.85995.66516.67304.53616 1.2388 1.0009 1.5458 1.2648-.30208-.4132-.61445-.80846-.85824-1.0636-.3689-.38568-.82149-.6708-1.1736-.73788-.0927-.0206-.22435-.0672-.37385-.12846zm2.4057 1.9299c.0561.0768.11043.15127.16531.22868.0565.0205.0833.0198.0833-.001 0-.0107-.10432-.10346-.24858-.22745zm.16531.22868c-.21354-.0774-.8762-.47448-2.3482-1.3763-1.6265-1.0061-2.8842-1.5762-4.1418-1.8948-.45274-.13414-.87179-.10064-1.6767.13412-1.2409.33537-4.494.83858-5.5169.83858-.40244 0-.65395.067-.57011.13412.0212.0176.10425.0511.22033.0928.0985-.0159.22968-.0258.38343-.0258.98934 0 3.9237-.45273 5.3658-.82163 1.1738-.28506 1.2073-.28508 2.3979.0671.67073.20122 1.442.46954 1.7103.62046l.50306.26823-.53646.11741c-.46952.10061-.53661.16757-.436.4694.40244 1.3415 1.157 2.1633 2.2134 2.4652.88873.23475 3.2196.5533 3.3202.45269.0804-.0703-.36488-.80345-.8882-1.5416zm-14.033-2.0714c-.15927.0256-.23214.0669-.16997.10832.0838.0838 1.4922.51977 3.1188.95575.74201.20443 1.3942.3898 1.9068.54063.33368.0495.55701.0837.62538.0965 1.0061.16768-.15108-.20106-2.8508-.9221-1.1651-.31775-2.1947-.62261-2.6302-.77914zm4.8556 1.6047c-.97582-.14469-2.9392-.42521-5.076-.7251-4.3933-.6372-5.4666-.73771-6.959-.65387-2.7165.11738-4.7285.9222-5.7682 2.2804l-.45294.58706.93905-.87199c1.2241-1.1403 2.9177-1.744 4.8964-1.744h1.3583l.62046.75458c.98934 1.1738 1.4083 1.3246 3.387 1.2073 2.3308-.13414 2.4316-.18435 1.7273-.90539l-.55341-.57011.67082.10046c.3689.0503 1.9115.28506 3.4207.50305 1.5092.23476 2.7837.40248 2.8004.36894.0184-.0184-.38833-.14814-1.011-.33136zm-18.256 1.4885.0671 2.2637c.0961 3.1036.0787 11.538-.0133 16.702.0313-.79872.0674-1.6115.11398-2.4492.20122-3.5214.20133-5.2485.0337-10.38zm.0538 18.966c-.0493 1.2572-.0821 2.4637-.0938 3.581.007-.22296.0143-.44482.0233-.68113.0273-.72248.0502-1.7583.0705-2.8999zm-.0938 3.581c-.0722 2.2451-.0483 3.8379.0737 5.104.21799 2.3476.98936 6.9756 1.1906 7.1768.0671.0838 1.0395.31878 2.163.52 1.49.26709 1.9063.32126 1.9432.20363-1.0948-.27314-2.1218-.49135-2.7312-.55586-.57013-.0671-1.1236-.18446-1.2242-.25153-.23475-.13415-.88867-3.5382-1.2073-6.2044-.16528-1.3708-.23418-3.4715-.20781-5.9927zm5.3705 13.004c1.2909.32205 2.6757.72171 3.6056 1.056-.006-.007-.0121-.0135-.0152-.0189-.0503-.11737-.16775-.51978-.23482-.88869-.18446-1.0396-.5868-1.7438-1.1569-2.0456-.48628-.25153-1.9954-.72118-2.3475-.72118-.15092 0-.0503 2.0795.13411 2.5322.0163.0353.0218.0635.0147.0862zm3.6056 1.056c.12487.13791.8644.53629 1.712.92013.88872.40244 2.247 1.1067 3.0183 1.5762.57137.33494 1.0424.57498 1.4509.73493-1.6482-1.1403-3.7418-2.2727-5.8276-3.0991-.10787-.0425-.22746-.0868-.35371-.13215zm6.1813 3.2313c.70565.48817 1.3273.97662 1.8322 1.4443l.38908-.40161.5367-.55341-.57011-.0838c-.3186-.0503-.93918-.13416-1.4087-.18447-.23519-.0346-.49224-.10876-.77915-.22106zm1.8322 1.4443-.13068.13485.53646.51975c.24013.23213.4005.36425.59688.436l-.17759-.21788c-.21743-.27723-.49928-.57094-.82507-.87272zm1.0027 1.0906.19135.23482-1.0565-.4694c-1.157-.53659-3.2699-1.2074-5.0809-1.6266-1.4924-.33537-5.5838-1.0732-6.003-1.0732-.21799 0 .10053.30188.83834.80493.49748.33758 1.1305.80103 1.7418 1.2655-.17768-.22404-.31779-.44007-.41708-.64527-.21799-.43598-.35219-.82144-.30188-.87175.0671-.0671 4.5946.77132 4.7119.8887.0335.0335-.13411.40242-.38564.82163-.23476.43598-.38566.85521-.31858.93905.13414.23476 1.2074.51976 1.9284.51976.57012 0 1.2241-.28503 2.0626-.8887.38567-.28506.43595-.28512 1.1402.0167l.72093.31858-.53646.18447-.55341.18447.33529.63716c.46951.92227 1.375 1.7273 2.1296 1.9118.3689.0671 1.3247.15082 2.1296.15082h1.4925l-.52001-.70423c-.28506-.38567-.50293-.7211-.4694-.73787.0168-.0168.58683.15095 1.2743.36894 1.4756.48628 1.5931.48613 1.4924.10046-.0503-.16768.31865.10077.80493.58706.48629.48628.95567.88869 1.0395.88869.26829 0 1.0398-1.6935 1.0398-2.2804 0-.30183-.0839-.75476-.16776-1.023-.23476-.60366-1.7103-3.0684-1.8444-3.0684-.21799 0-1.0061 2.9343-1.0061 3.6889v.75458l-.70423-1.4252c-.87195-1.7272-1.308-2.0122-3.052-2.0122h-1.1402l.10071.60352c.0671.3186.15086.68755.20117.80493.0503.13415-.20119.20111-.88869.21787-.45574.0175-.71421.0115-.92923-.067zm-9.3689-.86389c.27243.34351.63538.7065 1.0921 1.082.37241.31202.67965.58121.87199.76391.12998-8e-5.20117-.0138.20117-.043 0-.0976-1.0457-.95231-2.1652-1.8029zm1.9641 1.8459c-.91646.00053-4.7703-.67317-7.4284-1.334-.97256-.25153-2.3476-.45281-3.2698-.48635-1.9619-.0671-2.9849-.30191-4.2425-.92235l-.97245-.4861-.51976.58681c-.70427.78812-1.6266 1.308-3.3202 1.811-1.6465.49107-2.1224.74648-2.148 1.2684.15723-.28239.56422-.52199 1.2928-.79904 1.0061-.3689 1.4757-.43588 1.308-.15082-.21799.33537.41936 1.593 1.1572 2.3141l.72092.72093.36894-.51975c.88873-1.2409 1.0395-2.1966.53646-3.2866l-.30164-.68752.4527-.5367.4527-.55341.62046.36894c.33537.18445.60352.43591.60352.51975 0 .10061.10068.13431.23482.084.13415-.0503.60372.0167 1.0565.15082.43598.13414 1.593.28504 2.5656.31858 1.2744.0503 2.3475.21809 3.8566.60376 1.8948.48629 2.18.60371 2.9849 1.308.72104.60366.9389.7042 1.0395.51975.51982-.88872.53669-.90562 1.8614-.72117.68751.10061 1.2575.15113 1.291.13436.0134-.0134-.0731-.10381-.20117-.22549zm-21.901.43747c-.0997.17909-.0996.37539-.015.60966.0192.0506.0344.0934.0486.13436.0474-.0374.0322-.17572-.0152-.4699-.0163-.1-.0225-.19009-.0184-.27412zm.0337.74402c-.0364.0287-.10937-.002-.23311-.0673-.49216-.26114-.70539-.86599-.63323-1.5499-.17585.79054-.0121 1.4786.49887 1.7511.42066.22536.48996.21902.36747-.13386zm-.86634-1.6172c.0838-.37689.24398-.77673.48217-1.1665.24118-.38186.35617-.61884.31367-.72019-.0354.11636-.12346.27771-.26331.48537-.30932.45052-.48423.94344-.53253 1.4013zm.79584-1.8867c.10469-.34405-.254-.29291-1.1186.13313-1.6265.82165-2.448.9726-6.4557 1.1235-2.3643.10061-4.2424.2516-4.9802.41929-1.1235.26829-1.2409.3353-2.0626 1.2743-.48629.53659-.88881.95588-.92235.92235-.0168-.0168.18459-.73798.46965-1.5932.54888-1.617 1.256-2.6954 2.3752-3.5729l-.79904-1.3905c-.45274-.80489-.88879-1.4756-.9894-1.5092-.40244-.13415-1.3414 3.5382-1.0732 4.2089.0838.23476.11743.43599.0504.43599-.0503 0-.62062-.18429-1.2746-.41904-.63721-.23476-1.2073-.38577-1.2576-.35224-.0335.0503.11742.58678.36894 1.224l.436 1.1235-.73788.77153c-1.1067 1.1402-1.7774 2.1631-1.7774 2.7164 0 .53659.83848 2.6494 1.0565 2.6494.0838 0 .53653-.40241 1.0228-.8887 1.0061-1.0061 1.1403-1.4253.9894-3.0854l-.1007-1.1402.41929.36869c.21799.21799.50315.38589.60376.38589.11738 0 .20117.0501.20117.11717 0 .0838.53661.13436 1.1906.13436h1.1906l-.10071-.67082c-.21799-1.4253-.26831-1.3248.82163-1.5428l.98941-.20117 1.291 1.2409c.75458.72104 1.4926 1.2744 1.7776 1.3247.40244.10062 2.5153-.40252 2.8842-.67081.10061-.0838-.6206-1.1738-1.0901-1.6433l-.4527-.43599h1.8948v1.2409c0 1.4756.28514 1.9284 1.6769 2.683 1.0061.55336 1.0563.51966 1.3581-.83858.23476-1.0396.0504-1.7439-.70422-2.6997l-.50305-.63717.46964-.13411c.25153-.0838.92209-.36887 1.4922-.63717.88608-.43297 1.3063-.58734 1.3701-.43501zm-12.694-1.2935.0393.0685.48635-.30188.4694-.28518-.11323-.0823c-.13848.0823-.27779.1698-.42322.26676-.16052.1083-.31268.21966-.4586.33406zm.88182-.60082c.99573-.59199 1.9321-.83662 4.5034-1.1515-.10779-.0288-.21265-.0641-.31539-.10758-.75458-.3186-1.5426-.23473-3.471.36894-1.3079.4192-1.3248.41916-.97269.70422zm4.5034-1.1515c.34958.0934.73237.11145 1.1938.0602 1.1996-.1388 1.6414-.1681 1.8867-.41339l-1.7189.19527c-.50093.0557-.951.10767-1.3615.15794zm3.0805-.35321 1.97-.22402.0594-.0585-.51214-.79658c-.33537-.51982-.63728-.93905-.67082-.93905-.0335 0-.23477.4862-.43599 1.0899-.16451.48665-.24088.75865-.41045.92824zm2.0294-.28248.0916.14247.57011-.55341c.3186-.30183.57011-.67079.57011-.80493 0-.0108.002-.0176.003-.0273-.14475.16065-.28301.30758-.40529.42986zm1.2345-1.2431c.0314-.0348.0639-.0723.0958-.10832-.0456-.0432-.0887-9e-4-.0958.10832zm.0958-.10832c.00066.00062.001.00081.002.001.13415.13415.95587-.872 1.4925-1.811.0929-.16512.16509-.32845.22524-.51238l-.59418.89802c-.27932.41898-.71928.96511-1.1255 1.4239zm1.7197-2.322.12699-.19184.054-.73812c-.0443.39555-.10092.68499-.18103.92996zm.18103-.92996c.0305-.2726.0564-.59108.0801-.98891.0102-.17844.0169-.29441.0268-.46719zm.10685-1.4561.0236-.32104c.0838-1.3918.26826-4.3766.38564-6.6571.18446-3.7226.16752-4.3934-.084-6.523-.45169-3.7234-.68012-6.4414-.73272-8.9844.016 2.6953.20192 4.9831.66566 8.7833.37994 3.0395.39858 2.2494-.25816 13.702zm-.4075-22.486c-.005-.81322.005-1.6619.0285-2.6025.0294-.93297.0544-1.773.0774-2.5032-.0318.68291-.0645 1.4725-.0941 2.2854-.0274.94403-.0314 1.8703-.0118 2.8203zm.10587-5.1057c.0403-.8668.0789-1.5497.10709-1.756l.10071-.70422-1.1572-.26823c-1.9284-.43598-6.5396-.93905-8.5853-.93905-4.2256 0-8.4682-.53668-10.665-1.3583-1.4086-.51982-5.5168-.65378-7.3613-.23457-2.3476.50305-4.2759 1.7941-5.1143 3.3703-.12689.25378-.23678.43333-.29917.5006.0458.0138.23409-.19707.5507-.66812 1.0229-1.5092 2.3308-2.3477 4.5945-2.9346 1.4588-.36891 5.1312-.45272 6.59-.13412l.85505.18447-.70423.31858c-.70427.3186-3.0183 2.4985-3.0183 2.8338 0 .10061.78823.16776 2.0459.16776h2.0289l.63717-.65411c.33537-.36891.70426-.93903.82163-1.2576.21799-.68751.15084-.68736 2.3475-.35199.92226.13415 3.5886.3185 5.9195.40234 4.1083.15092 8.4679.63712 9.8429 1.0899.48629.15091.57024.26839.53671.60376-.0188.13191-.0443.85281-.0737 1.7894zm-32.974-1.3895c-.0537-.0161.0881-.34069.44999-.91965 1.2073-1.8613 2.75-2.8005 5.9863-3.6054.32386-.072.36546-.11882-.0133-.20682-.008.002-.0115.004-.0201.006-2.3476.55336-4.1921 1.4925-5.215 2.6663-.57013.67074-1.2409 1.811-1.2409 2.0793.005.0209.0247.0111.0531-.0194zm6.423-4.7318c.36465-.0828.0623-.18564-1.5293-.4974-3.0686-.5869-5.3491-.77133-6.8079-.57011-2.1296.30183-2.9848.98938-3.2028 2.5656l-.0978.7256c.12802.43616.14639.42346.13116.0123-.0335-1.157.0503-1.4421.62047-2.0626l.58681-.62047.45295.58681c.93903 1.1906 1.1904 1.3416 2.2301 1.3416 1.2912 0 2.0122-.16788 2.0122-.45294 0-.11738-.18454-.60347-.41929-1.0562l-.41905-.83858h.78798c.75458 0 2.1633.20128 4.9971.73787.29595.0525.5066.0934.65731.12847zm-11.638 2.2237c-.004-.0133-.007-.0227-.0108-.0369l-.009.18324zm-.0108-.0369.0415-.87322c.01-.26329.0243-.4634.0489-.6325-.17566.477-.23202 1.0008-.11594 1.4205.0108.0376.016.0524.0256.0852zm.0904-1.5057c.15419-.4187.4-.80142.7057-1.0444l.436-.33529-.0513-.0761c-.21073.14633-.40168.31769-.60278.52884-.30681.31862-.42928.52534-.48758.92701zm1.0904-1.4558c.49212-.34174 1.094-.54432 2.1977-.77914.14586-.0307.22226-.0492.33701-.0742-.23024-.0328-.5029-.0767-.85701-.1437-.75458-.15091-1.6431-.26823-1.9449-.26823h-.57035l.43599.67058zm2.5347-.85332c.65783.0938.82101.0571.42764-.0953-.10148.025-.27511.0621-.42764.0953zm.42764-.0953c.48917-.1207.41687-.15907.0233-.23286-1.3247-.26829-5.4664-1.7439-5.3154-1.8948.0335-.0335.4694.10048.97245.28493.3014.1156.77092.25768 1.3527.41389-.0502-.0801-.0867-.17492-.12846-.29648-.11738-.30183-.20142-.5868-.20142-.65387 0-.0671.45275.1845 1.0061.55341 1.5092.97256 1.8279.98933 3.2868.25152.68751-.35213 1.2407-.6875 1.2407-.75458 0-.26829-1.4922-1.4758-2.0623-1.6602-.6372-.21799-1.5764-.10053-3.3538.4193-.75458.20122-.87191.20112-1.4588-.10071-.70428-.36891-3.3369-1.0899-3.471-.95575-.11738.13414 1.224 2.6495 1.7774 3.3035l.48635.58681 1.727.0167c1.2576.0168 2.1466.13423 3.1527.4193.45526.12497.7732.22531.96582.29991zm-2.967-1.4288c.17142.27334.51049.36495 1.8334.67622 2.8339.67073 7.1601 1.4086 9.994 1.6936.69183.0712.97262.13396.71479-.15548-.80819-.0354-3.282-.35453-5.5274-.73345-2.3889-.39183-5.2337-1.0027-7.0147-1.4809zm12.542 2.2144c.15746.007.25821.004.27461-.0123.0335-.0335-.31877-.33539-.77152-.68752-1.2241-.93903-3.2865-3.1692-4.5609-4.9802-.98934-1.375-4.276-7.4621-4.1251-7.6298.0203-.0102.32921.4071.76121 1.0152-.0442-.2014-.0151-.40267.0604-.74672.26829-1.1738-.0335-1.9283-1.5762-3.907l-.73787-.95599-.16752.65411c-.10061.35214-.26826 1.2576-.38564 2.0289-.18446 1.2576-.16783 1.442.10046 1.9619.18445.3186.72117.85514 1.2242 1.2073.75458.51982.93902.5871 1.0732.38588.13414-.21799.16766-.21799.31858 0 .28506.41921.18429.53643-.33553.41905-.50305-.11738-.51972-.10058-.40235.36894.23476.97257 1.1067 3.0016 1.4588 3.3706.20122.20122.68749.4695 1.0732.57011.6372.15091.83845.33531 1.6266 1.4588 1.1067 1.5595 2.5489 3.1861 3.8736 4.3766.65944.58031 1.0507.91454 1.2178 1.1022zm-8.4217-12.295c.0441.20105.16121.40203.37901.74549.17781.2756.39483.51773.65805.73984-.0234-.0343-.0477-.0682-.071-.10243-.36307-.52809-.68558-.98809-.96607-1.3829zm1.0371 1.4853c.90508 1.3266 1.9169 2.6917 2.2765 3.1004l.50231.55243-.11667-.50232c-.3186-1.4085-.72096-1.9786-1.8444-2.599-.31512-.17332-.58445-.35462-.8177-.55144zm2.7788 3.6528.10145.43673-.0233-.35101zm.0781.0857.0904.0995-.0504-1.811c-.0503-1.4253.0168-2.1797.30188-3.387.11281-.47945.22206-.88899.30532-1.1655-.042-.0322-.10899-.1596-.18815-.37729-.21799-.62043-1.1904-2.0961-1.9786-3.0687l-.41929-.4861-.30164 1.3247c-.16768.73781-.30188 1.7773-.30188 2.2971-.0168.83842.0501 1.023.4861 1.4758.28507.30183.78833.72099 1.1405.95575.60366.38567.67059.38571.85504.11741.18445-.23476.20121-.10074.0671.78799-.0838.58689-.11736 1.6433-.0671 2.3308zm.64724-6.2641c.0292.0224.0467 2e-4.0467-.0754.004-.0461.009-.087.0157-.12159-.0178.0513-.0395.12109-.0624.197zm71.975 1.3242c-.19157.23482-.34982.42751-.59516.73001-.12627.15623-.24749.30052-.37115.45074-.027.14544.14457.0174.48832-.41733.28506-.35214.50305-.65399.50305-.68752 0-.0369-.009-.0609-.0251-.0759zm-3.2499 3.7754c-.77413.80292-1.4006 1.3547-1.8056 1.5826-.33537.20122-1.4589.70442-2.5153 1.1572l-1.9117.80493-.0504-.60376c-.0329-.46652-.10814-.85654-.239-1.1945.002.007.002.0137.004.0206.0671.13414.15093.6373.18446 1.1068l.0838.87199 1.7774-.73787c2.4482-1.0396 3.2364-1.4925 4.0748-2.3644.56647-.58177.65361-.7139.39719-.64355zm-6.522 1.7464c-.0487-.17641.10403-.34025.50748-.56618.33537-.18445 1.09-.88864 1.6936-1.5929l1.0732-1.2576-1.6602-.0504c-2.0122-.0503-2.8169.1677-3.32.93905-.19753.2735-.36147.56544-.41659.6944.1307.061.27919.13259.46669.2277.87984.43992 1.3869.91135 1.6558 1.6059zm-2.1225-1.8336c-.55846-.26083-.59795-.21564-.0784.1179.0261-.015.0457-.0393.0589-.0747.003-.009.0137-.0299.0194-.0432zm-.0784.1179c-.073.0419-.20073.007-.4107-.0914l-.41929-.20118.35224.30189c.26829.21798.33543.38564.23482.63716-.0838.18445-.15106.38563-.15106.4527-.0168.15092 1.1237.46965 1.7106.46965.56538 0 .83388.57682.71798 1.5335.0259-.13567.0366-.28739.0366-.46031 0-.9558-.5199-1.6936-1.6769-2.3978-.15863-.0952-.28503-.17405-.39424-.24416zm-4.5837 5.2565c-.39073.006-.84007.005-1.3134.002-.11704.0255-.23038.0481-.33209.0658-.47169.0708-.62798.0828-.69686-.0675-.27516.00078-.55697.003-.84571.007l-.11765.12724.73787.10071c.41921.0503 1.1403.10071 1.6266.10071.75118 0 .87365-.033.94126-.33676zm-4.7687.0486c-1.1295.0395-2.2235.1005-3.0807.17514l-.0842.16309 1.5762-.13411c.85518-.0671 1.5761-.13405 1.5929-.15082.003-.003.00086-.0242-.004-.0533zm-4.9979.32399c-.7762.0416-1.1615.0214-1.2358-.0528-.0225-.0225-.0394-.0449-.0535-.0673-.19115.27102.0686.41954.77448.41954.37295 0 .54372-.0941.51484-.29942zm20.879-7.6664c-.64053-.35805-2.7707-1.4098-3.5356-1.7263l-.50796-.21345c-.0759.0822.83494.57696 2.1011 1.1525.79561.36068 1.5152.64639 1.9424.78725zm1.5774-2.9481c.22643-.0192.42419-.0334.55463-.0359.02-.00038.032-.001.0508-.002.0882-.0254.17472-.061.26135-.10636-.1893-.0335-.49899-.0748-.94937-.12674l-.64895-.0757c-.21149.10348-.15211.14223.0956.20977.24144.069.44865.11499.63594.13657zm-16.136-1.6032c-.01.0369-.017.0693-.0278.10857-.0935.30115-.1912.78948-.27363 1.2844l.0892-.37901c.0928-.4408.17433-.81318.21222-1.014zm-1.9191 5.4331c-.62545.57354-1.4907 1.1002-2.6865 1.6845-.0543.0272-.10208.0497-.15549.0761.0235.0385.0487.0794.0548.0916.0838.10061 1.6768-.77135 2.2804-1.2576l.60376-.48634zm-2.842 1.7607c-.041-.0672-.0931-.15397-.14639-.26062-.15092-.28506-.20116-.25159-.51976.26823-.0928.1688-.21974.33749-.34634.47849.28162-.12995.63307-.2983 1.0125-.4861zm-1.0125.4861c-.35183.16236-.59566.26695-.63544.27363-.0926.17985.005.19105.29426.0361.0916-.0583.21626-.1706.34118-.30974zm-.63544.27363c.0577-.11211.18868-.28932.39472-.534.43799-.52368.77283-1.1287.98081-1.7624-.17831.4304-.46112.87277-.91375 1.4942-.3186.45275-.53647.80469-.4694.80469.00089 0 .006-.002.008-.002zm1.3755-2.2964c.21143-.51036.27558-1.0039.29377-1.759.009-.27594.0283-.52872.0602-.7671-.0675.34841-.11053.71864-.11053 1.052 0 .49278-.0851.99172-.24342 1.474zm-.56176-.78799c-.23918.62018-.6588 1.2024-1.3411 1.9132-1.7272 1.811-2.4482 2.2636-5.282 3.2529-1.4253.50305-2.8339.98943-3.1357 1.1068s-.63714.16772-.77128.11741c-.4719-.1859-.72288-2.5894-.54776-4.4479-.007.0474-.0156.0895-.0226.13829-.21799 1.4253-.13395 2.8004.20142 3.9407.25153.80489.13415.82174 4.0244-.58681 2.6159-.9558 3.0852-1.1907 4.1249-2.0292 1.2241-.98933 2.1631-2.0288 2.5823-2.884.0572-.11101.1144-.29734.16752-.52148zm10.438-20.492c-.18444.0776-.43002.21635-.66222.37115l-.58755.38662-.0496.23384.67082-.45269.67082-.436zm-1.2498.75777.0678-.31956c.039-.17548.083-.48253.12675-.81329-.0466.28655-.0954.55549-.14345.77988l-.10071.38564zm.19454-1.1328c.083-.51069.15677-1.076.20461-1.5718-.0283.13434-.0754.46809-.11324.85922-.0281.22462-.0599.47442-.0914.71257zm-.1012-1.1385c-.44915 2.5106-1.2004 4.5736-2.39 6.4252l.0504.15475.53671-.92235c.6875-1.2241 1.4588-3.5716 1.7774-5.4999.01-.0586.0163-.10174.0256-.1577zm-2.39 6.4252-.20117-.61653c-.15092-.43598-.31839-.82162-.3687-.8887-.13414-.11738-1.3752 1.7773-1.828 2.8002-.25153.57012-.45259.80493-.67057.80493-.41922 0-.41936-.0167.10046-1.0228.6875-1.375 1.0901-3.2364 1.0398-4.7623-.00015-.004-9e-5-.006-.00024-.0101-.004 1.7353-.40579 3.3877-1.207 4.9735-.55336 1.1235-1.962 3.2866-2.5489 3.9741-.70353.79991-.81645 1.0315-.30433.68236-.0993-.14514.66106-.98064 1.0589-1.1184.23476-.0838.85529-.58674 1.3583-1.1066.50306-.51982.93892-.87214.97246-.77153.0147.0442-.004.12472-.0472.22008 1.0594-1.0111 1.9321-2.0468 2.6462-3.1583zm-2.6462 3.1583c-.36461.34799-.7499.69327-1.1601 1.0376-1.0839.90563-1.8035 1.4805-2.1824 1.7388.01.0139.0264.0219.0528.0219.20122 0 2.465-1.811 3.0183-2.3978.12232-.13172.21672-.27845.27142-.40038zm.71774-6.8536c1e-5-.008.00024-.0157.00024-.0236 0-.66383.008-1.0494.0678-1.3618-.091.32462-.0968.69077-.068 1.3854zm4.1227-14.118c-2.8603 2.597-5.2951 5.4641-6.0339 7.1528l-.18299.4441c.11461-.16016.26491-.40394.43452-.71233.82165-1.5762 2.1965-3.2531 4.326-5.3324.61505-.60425 1.1504-1.1777 1.4564-1.5522zm-6.2169 7.5969c-.0188.0262-.0364.0501-.0531.0715l.001.0545zm-.0531.0715-.0155-.70005c-.003-.25093.0181-.53152.058-.83392-.13143.64421-.20904 1.2139-.20904 1.6222 0 .0858.0635.0439.16654-.0882zm1.1316 6.4859c-.026.50148-.13744 1.0598-.33258 1.7725l.007.0128.20118-.73788c.0863-.32218.12608-.68201.12428-1.0474zm-.33258 1.7725-.44582-.80886c-.82165-1.4421-1.1067-1.9118-1.1906-1.9118-.11738 0-.95572 2.5656-1.0899 3.3873-.13415.73781.23471 1.6267.95575 2.2303.22598.19173.35539.36906.39006.52712.47097-.912 1.0054-2.1462 1.2532-2.9753.0459-.15662.088-.30539.12724-.44877zm-1.3804 3.4241c-.0829.16051-.1632.30858-.24022.44508.19929-.119.27864-.26998.24022-.44508zm-.24022.44508c-.0614.0366-.13284.0706-.2169.10096-.2835.108-.38399.0664-.57797-.42322.0179.0921.0331.1799.0415.25545.0335.45275.13417.82164.18447.82164.10011 0 .31348-.30218.56889-.75483zm-.79487-.32226c-.0893-.45994-.28563-1.0861-.49519-1.5052-.34557-.69115-1.6434-2.2522-2.5661-3.1564.1483.25324.39032.55845.75507.95968 1.2409 1.3582 1.7106 2.0793 2.1466 3.2698.0621.17648.11271.31354.15966.43207zm-3.0613-4.6616c-.1244-.21244-.18397-.38884-.18397-.54948 0-.25152-.0502-.6373-.10047-.85528-.10061-.36891-.10074-.36876-.72117.15106-.33537.28506-.95577.93898-1.3918 1.4588-.72104.85519-.80493 1.023-.80493 1.7943 0 .51982.15113 1.157.38589 1.6433l.36869.80493.70447-.46965c1.1067-.75457 1.442-1.2911 1.5426-2.532l.10071-1.1068.70423.82163c.87195 1.0229 1.6264 2.4148 1.9115 3.488.0616.25266.0978.432.10881.57134-.0259-.51434-.13959-1.0458-.34339-1.5774-.40244-1.09-1.677-2.8842-2.7167-3.8232-.38567-.3689-.55321-.57026-.35199-.46965.17263.0841.45657.32591.78749.65019zm2.6246 5.2202c.00045.009.001.018.001.027-.00051-.009-.00074-.0176-.001-.027zm.001.027c.0124.22154-.0449.33866-.17735.49151-.46952.51982-1.0227 1.9451-.78798 2.0122.0171.007.0202.0274.0133.0565.42655-.51269.71684-.95258.80837-1.2638.11629-.41087.1636-.84699.1437-1.2964zm-.95207 2.5602c-.65882.79186-1.6509 1.7608-2.7923 2.725.512-.25301.88196-.58836 1.6722-1.3898.64433-.64433 1.0794-1.1651 1.1201-1.3352zm-2.7923 2.725c-.25933.12815-.55451.2356-.96042.37091-1.5427.51982-2.0624.90547-2.3642 1.8277-.0534.15142-.10872.27535-.18275.38932.29758-.18976.59293-.38223.87027-.57379.90692-.61998 1.8096-1.3152 2.6371-2.0142zm-3.5074 2.588c-1.3925.88801-2.8537 1.6745-2.963 1.572-.0362.18127-.0447.30237-.007.30237.0671 0 .75451-.36895 1.5259-.80493.88667-.51722 1.2391-.75432 1.4438-1.0695zm-2.963 1.572c.0275-.13772.0696-.3071.12748-.50256.38253-1.2314.69631-2.3106.94691-3.2681-.14079.51705-.30372 1.072-.49421 1.6919-.3186 1.0564-.58681 1.9955-.58681 2.0626 0 .007.002.0121.007.0162zm1.9017-9.6582-.0135-.0165-.0125.75679c.0105-.23669.0189-.48404.026-.74033zm-.026.74033c-.0536 1.2096-.15593 2.1932-.34806 3.2111.2339-1.1597.34364-2.1112.34364-2.9451zm-.34806 3.2111c-.11828.58648-.26712 1.2243-.45196 1.9309.18932-.69565.33676-1.3205.45196-1.9309zm5.6151-20.45c-.004.44683-.12616.92126-.35813 1.5244-.62043 1.6601-1.1571 2.5152-2.4315 3.8567-.60367.6372-1.375 1.4757-1.6936 1.8614l-.60376.67057-.16752-3.4374c-.007-.12133-.011-.22095-.0169-.33553v4.0915l1.459-1.5593c2.3476-2.4985 2.8841-3.2868 3.6051-5.3661.19132-.55801.26356-.97464.20731-1.3063zm-4.8323-2.6381c.10916-.49816.22571-.94212.35272-1.3377-.11015.32093-.21382.67672-.28886 1.023-.0281.12159-.0479.22216-.0639.31466zm.39055-2.9724c-.21067.25854-.36009.45932-.36009.51115 0 .0671-.13427.4194-.28518.77153-.25036.54245-.29416.4356-.34929-2.2112l-.003-.002v1.4087c0 .77135.0335 1.4084.0671 1.4084.0503 0 .26829-.41923.50305-.93905l.43599-.93905zm-1.816-1.6263c-.0211.16617-.0429.3396-.0607.47751.02-.14898.0403-.31759.0607-.47751zm-.0607.47751c-.11919.88628-.22855 1.5599-.29181 1.7796l.0477.1152.18447-1.4254c.0133-.10162.0422-.33383.0597-.4694zm-.29181 1.7796-.52246-1.2598c-.35841-.88293-.84946-1.8152-1.389-2.6725l-.0363.0398.88869 1.7607c.48628.97256.88869 1.8614.88869 1.9955 0 .11738.0505.21812.13436.21812.009 0 .0217-.0316.0361-.0818zm-1.9115-3.9323.68482-.74819c.40244-.45275.75456-1.0397.82163-1.3583.10061-.60367-.30191-2.9512-.67081-3.84l-.21788-.51976-.92234 1.4254c-1.0396 1.593-1.3247 2.3138-1.1906 2.884l.0521.19946c.48234.54425.98037 1.2223 1.4431 1.9574zm-1.4431-1.9574c-.0341-.0385-.0685-.0783-.10243-.11545-.68598-.74949-.84591-.90322-.38319-.17243.0216.0184.0395.033.0646.055l.46965.41929zm-.48562-.28788c-.32394-.27587-.24984-.14008.31613.70889 1.2073 1.811 2.2637 4.5611 2.5823 6.7745l.0671.45982v-.25865c0-1.4588-1.2408-5.0304-2.3308-6.7072-.2805-.42684-.48664-.7435-.63472-.97736zm2.9655 7.9432v.17735l-.36894-.33529c-.50305-.45274-1.3749-.88869-1.7941-.88869-.33537 0-1.0228.72103-1.0228 1.0732 0 .0385.0225.0373.0602.005-.0682-.0143.0131-.22111.27511-.54137.15236-.19299.27488-.28608.45515-.30827.17-.0688.3701-.0371.65215.0904.3338.10407.77555.33599 1.1061.57011l.68752.50305zm-1.7432-.72805c-.0726-.0226-.14198-.0414-.2019-.0503-.19173-.0397-.33291-.0545-.45025-.04-.16269.0659-.29906.22238-.45515.47603-.11383.18627-.21441.32105-.27511.37361.0496.0104.17804-.0805.37582-.30655.3689-.43598.41898-.45281.9388-.23482.72104.30183 1.4588.93921 1.7607 1.5261.33537.62044.3186 3.5884 0 6.8583-.0734.73385-.13931 1.3922-.18618 1.8729.0765-.62083.17992-1.6488.28689-2.879.43598-5.2317.23489-6.4392-1.291-7.3279-.19425-.11447-.35858-.20315-.50256-.26823zm1.5067 10.475c-.0434.35233-.0805.60867-.0987.60867-.0503 0-.21802-.28503-.36894-.63717-.37368-.79132-1.273-2.4015-2.179-3.924.0116.18067.0348.31312.0661.35223.0838.0671.67096 1.1068 1.3249 2.3141.65397 1.1906 1.1903 2.096 1.1903 2.0122 0-.0456.0265-.32807.0653-.72608zm-2.6467-3.9524c-.0133-.20668-.0109-.47698.016-.75434.10061-1.1402-.0672-1.5931-1.2913-3.2531-.88872-1.1906-1.1739-1.3751-1.1739-.73788 0 .28583-.0281.44178-.083.47161.2984.64543.66739 1.2939 1.1731 2.0773.40445.61824.88276 1.396 1.3591 2.1964zm-2.5322-4.2737c-.20619-.44597-.3796-.89052-.5372-1.377-.68449-2.068-.79938-2.6058-.56519-3.2937-.25117.65566-.11852 1.5657.46449 3.3607.31258.9266.52845 1.3694.6379 1.31zm-1.1024-4.6707c.0233-.0609.0489-.12055.0788-.1776.38567-.73781.97253-1.0898 1.6433-.97245l.5534.0838-.58705-.18447c-.14665-.0463-.28003-.0911-.38958-.1292-.51824.0206-.85969.35117-1.1697 1.0516-.0507.11685-.0937.22428-.1292.32841zm1.2989-1.38c.23863-.009.51474.0465.84252.16285.62043.23476.70429.23463.43599.0334-.18445-.13415-.62056-.28492-.9727-.35199-.25241-.0374-.41323-.0858-.49715-.14983-.0312.13204-.0474.21689-.0393.21689.009.009.10219.044.23064.0887zm-.19134-.30556c.0335-.1415.0844-.33754.14517-.55439.13414-.41921.20112-.93912.15081-1.1739-.0838-.45275-1.3749-2.3476-1.66-2.4482-.10061-.0335-.25156.40244-.36894 1.0061-.33537 1.811-.30185 2.0121.57011 2.7835l.72437.63004c.0903-.12967.14762-.23211.14762-.27781 0-.10061.0669-.23487.16752-.28518.0838-.0503.11736.00022.0671.13436-.0297.0742-.0104.13462.0563.18546zm-.43845.24317c-.10848.15584-.26554.35162-.43944.54383-.41577.456-.5402.68039-.57404 1.1449.10301-.39459.30655-.74677.6244-1.1282l.43599-.51975zm-1.0135 1.6887c-.14154.5422-.0922 1.165.12134 2.0579.11232.44926.19281.82792.22402 1.042.0386.0423.0682.0697.0779.0648.0168-.0335-.067-.46964-.20118-.97269-.13414-.50306-.23482-1.3078-.23482-1.7941 0-.1544.004-.28168.0128-.39793zm.34536 3.0999c-.0955-.1048-.26273-.33126-.44189-.60597-.33022-.5032-.99509-1.4095-1.6212-2.2328-.0279.002-.0478.007-.0557.0194-.0671.0503 1.7105 2.5654 2.1129 3.0014.0262.0262.026-.0445.006-.18201zm-2.0631-2.8388c.0898-.005.26821.0392.4473.10316.55336.21799.62046.11742.62046-.88869-.0168-1.2073-.46953-2.1129-1.4421-2.8171-1.0564-.75458-2.4146-1.5427-2.5153-1.4421-.13415.15091.45281 3.0686.73788 3.6555.16768.33537.55332.72119.88869.90564.67074.35214.63712.31849 2.599 3.9908.77135 1.4421 1.4084 2.8339 1.4084 3.0687 0 .11164-.008.21023-.0194.28469l.67352.46989-1.1235-2.247c-1.0061-2.029-2.9346-5.5336-3.555-6.4726-.13415-.20122-.20112-.36894-.15082-.36894.0623 0 .72163.82563 1.4308 1.7582zm2.725 6.8605-.0477-.0332c-.98933-.67074-2.1631-1.2408-3.6555-1.7774-.10737-.0393-.22651-.087-.34265-.1324l-.0764.16581 1.0395.38564c.58689.20122 1.4924.63739 2.0122.95599.53658.30183.98927.57011 1.0228.57011.0176 0 .0349-.0525.0477-.1346zm-4.0458-1.943.30925-.67253c.21799-.46952.40234-1.09.40234-1.3583 0-.50306-1.6097-3.9404-1.8444-3.9404-.15092 0-.90551 2.0792-1.1906 3.2195-.16768.72104-.15083.85509.16777 1.4084.10959.18266.19552.35095.24907.47849.0616.0373.12365.0738.18668.10857.38204.19809 1.0924.51083 1.7199.75629zm-1.9066-.86486c-1.6518-1.0001-2.7856-2.886-3.1944-5.3756l-.0899.10145.28517 1.1402c.38568 1.5427.98939 2.5992 2.0626 3.5717.50305.46951.93885.80482.98915.77128.0153-.0229-.008-.1024-.0526-.20903zm-3.1944-5.3756.4301-.48537c.28506-.3186.56991-.78829.62021-1.023.13415-.48628-.0166-1.8613-.28493-2.8338l-.18447-.65387-.48635.5701c-.25152.3186-.67057.95577-.9221 1.3918-.51982.9558-.48638 1.5762.15082 2.5823.21799.35214.46939.90563.53646 1.2242l.13436.5701-.62046-.5367c-.67074-.58689-2.5992-1.6264-2.7501-1.4755-.13415.13414.28503 1.9115.63717 2.7331.33537.78812.70422 1.0229 1.9618 1.3247.93904.21799 1.0565.18453 1.0565-.33529.0168-.25152.11748-.13429.35224.35199.20122.38568.6706 1.0732 1.0395 1.4925.20591.23301.34257.39218.42862.50501l.40996.0821-.43599-.35224c-1.1738-.9558-2.0794-3.1189-2.2303-5.3491l-.10046-1.308.25152 1.4924c.002.0111.004.0216.006.0327zm2.0994 5.4022-.0931-.0187c-.26829-.0671-.68759-.15087-.92234-.20118-.21027-.0451.14821.11764.78798.37975.03.008.0523.0138.084.0226.26104.0681.32369.0538.14344-.18251zm-.22745.15991c-1.0004-.27316-1.0443-.21773-.0838.15671.60366.23476 1.5763.65405 2.18.92235.60366.26829 1.2911.55326 1.5259.65387.3689.13415.45271.3018.63716 1.3917.2683 1.5092.62055 2.4148 1.0398 2.7167.28506.20122.21786.23475-.72117.31859-.5869.0503-1.2239.15086-1.4252.20117-.35214.11738-.35234.0838-.20142-.48635.0838-.3186.13418-1.308.11741-2.1967l-.0504-1.6096-1.1736 1.0395c-2.0793 1.8445-2.2637 2.3644-1.5762 4.3767.21412.64235.28236.94024.2395 1.3276.0414-.1961.084-.40589.12944-.64011l.25153-1.3416-.10071 1.1739c-.16768 2.096-.72112 3.7898-1.6769 5.0642-.35233.46977-.48603.73353-.34511.70201l.56323-.83637c.65397-1.0061 1.1904-2.4984 1.3581-3.8063.0671-.6372.21812-1.0061.46965-1.2073.18445-.16768.40239-.30188.4527-.30188.0671 0-.15087.73784-.4527 1.6266-.80489 2.3308-.77138 2.7163.38564 3.9404l.58681.60376-.4861.26823c-.12323.0589-.23415.10084-.34217.12896.44376.18191.84725.41108 1.1805.67598.18445.15091-.0335.0839-.50306-.15082-1.0061-.50305-2.4482-.78826-3.2531-.65412-.33537.0503-1.0062.25154-1.4925.436l-.90539.35223.23629.10022c.0423-.0257.0973-.0534.16605-.0835.58689-.25153.62048-.23478.30188.067-.0555.0555-.12025.10181-.18643.13584l.0356.0152c.3186.13414.70431.36884.87199.51975.35214.3186.95575 1.4084.95575 1.727 0 .11738-.16765-.13401-.38564-.53645-.50305-.9558-1.2911-1.4925-2.2134-1.4925-1.2963 0-3.2342 1.7694-3.5297 3.1898.30221-.78697 1.0692-1.7588 1.8528-2.3345l.70422-.52.0504.5367c.0335.28506-.0168 1.1068-.11741 1.811-.10062.70427-.35213 1.8779-.57011 2.6157l-.32547 1.0577c.64741.78089 1.508 1.6988 2.5226 2.6936.0118-.0877.0541-.1832.11692-.31367.45274-.85519.48613-1.7104.10046-2.5823-.20122-.45275-.31847-.83845-.28493-.87199.0335-.0503.31845.0503.60351.20117.45275.23476.57014.25158.68752.0504.23476-.36891.46955-1.7272.36894-2.1129-.18445-.70427.0337-.87175 1.0901-.87175h.98916l.28518 1.0732c.3186 1.157.68742 1.6096 1.5929 1.9953.17416.0755.28854.12804.35641.16973.58838-.25712 1.2918-.42613 1.9577-.45466.57013-.0335 1.0228-.067 1.0228-.0838s-.6204-.40247-1.3917-.87199c-.77135-.45274-1.5426-1.0063-1.7103-1.2075-.25153-.28506-.1175-.23467.4694.16777.28527.19346.69648.4278 1.1699.67622-.0704-.1109-.1414-.24015-.21395-.39104-.18445-.41921-.57016-.9056-.87199-1.1068-.28506-.21799-1.1402-.95588-1.8948-1.6769-.75458-.70427-1.5427-1.3078-1.7607-1.3414-.21799-.0335-.40246-.18449-.43599-.36894-.0671-.28506-2e-5-.30172.57011-.21787.3689.0671.77136.11741.93904.11741.18446 0 .25155.10041.18447.30163-.10061.43598 1.4252 1.828 2.163 1.9621.3186.0671 1.2074-.00021 1.9955-.13436.93903-.16768 1.4756-.18437 1.6266-.0838.13259.10734.19597.20031.20141.26479.30335.18807.63593.48304 1.0562.90908.20716.20717.41147.43269.61162.67254.0328-.18018.17537-.46098.46154-1.0081.46951-.92226.57012-1.2407.50305-1.7941-.10061-.65397-1.5596-3.7729-1.7776-3.7729-.13415 0-.97236 2.2301-1.1233 2.9847-.0671.30183-.13423.53671-.16777.53671-.13415 0-1.744-1.09-1.744-1.1739.0168-.0503.45275-.33528 1.0061-.65387 1.3918-.78812 1.593-1.1403 1.5595-2.7501l-.0167-1.308.85504-.55316c1.0899-.70427 1.6937-.88894 2.0626-.63741.10061.0671.4862.87207.83834 1.7943.53659 1.4421.6206 1.8446.58706 2.8675-.0335 1.09.0168 1.2576.43599 1.7607.46952.53659.46947.58678.4527 2.7331-.005.58134-.0283 1.1275-.0725 1.6526.055-.3684.10124-.71361.12282-.98179.13414-1.9451-.0504-3.4376-.73788-5.8355-.72104-2.5153-1.3917-4.1252-1.7774-4.2425-.65396-.21799-2.1633.72111-3.6724 2.247-.78811.78811-1.3413 1.3247-1.2407 1.1906s.4191-.57001.72093-.97245c.30183-.38568.48618-.70447.40234-.70447-.0671 0 .10064-.15084.36894-.33529.008-.005.0206-.0145.0287-.0199-.19434.10092-.36941.1801-.49814.22106-.92226.30183-1.526.78818-1.8781 1.4925l-.28517.60376-.10047-.50305c-.0671-.28507-.41932-1.1068-.78823-1.811-.3689-.70427-.65393-1.2913-.63716-1.2913.0168 0 .53673.26845 1.1572.58705.62044.3186 1.3247.58682 1.5762.58682.53659 0 1.6264-.53662 2.2971-1.1235l.48635-.436-.73788-.63716-.75457-.65387.58681.16752c1.1235.3186 1.1739.2851 1.1739-.88869v-1.0395l.58681.67057c.30183.3689.72126 1.0229.88894 1.4421l.26061.59958c.0439-.0195.0747-.0363.0747-.0462 0-.0335-.16779-.41924-.35224-.87199-.23476-.51982-.83832-1.2911-1.66-2.096-1.5427-1.5259-3.1189-2.398-7.5458-4.1251-.0822-.0332-.14359-.0591-.21812-.0897zm9.7014 7.2289c-.10432.0464-.30969.11268-.54579.1717-.35213.10061-1.006.48638-1.4755.85529-.44051.35893-1.0191.79288-1.3129.98621.3626-.18831.79578-.45597 1.1451-.71798.53659-.40245 1.2744-.82149 1.6266-.9221l.63717-.20142zm2.4504 11.667c-.18357 1.2297-.51331 2.8341-.76711 3.7255.41521-1.2371.65693-2.4139.76711-3.7255zm-.76711 3.7255c-.0323.0962-.0651.19251-.0995.28959l-.0884.25816c.0532-.11083.11702-.29879.1879-.54775zm-.1879.54775c-.01.0202-.0201.0458-.029.0604-.0503.0838-.30188-.38554-.5534-1.0395-.19576-.49404-.42075-.98238-.66738-1.4556l-.0536.0469.58681 1.375.58681 1.3917zm-1.2498-2.4347.49986-.43919c.93903-.82165 1.1066-1.308.97245-3.0016-.15092-2.1128-.21801-2.1801-1.1906-1.0901-1.0061 1.1235-1.4254 1.7776-1.4254 2.2974 0 .20053-.005.29584-.0516.30434.43325.58884.83748 1.2427 1.1952 1.9292zm-1.1952-1.9292c-.15025-.20419-.30378-.40026-.46007-.58755-.0326.17879.0427.25865.19306.40063.1449.12879.22382.19477.26701.18692zm-2.1279-2.1692c-.58015-.35968-1.0515-.32157-1.8113-.0133-.58446.23603-.68476.3732-.41094.34265.1269-.0586.30602-.12886.54505-.20854.67074-.21799.95574-.25138 1.2743-.10046.26136.115.41185.0864.40283-.0204zm-2.2222.32939c-.40722.18803-.23872.24754.52835.043.93903-.25153 1.2072-.13412 2.1127.87199.56098.62003 1.7578 2.6941 2.0363 3.4678.0155-.007.0263-.0156.0263-.0302 0-.35214-1.0898-2.398-1.7437-3.3035-.85519-1.157-1.5093-1.509-2.2974-1.224-.30408.10504-.52778.15986-.66247.17488zm4.6773 4.3828c-.16517.0704-1.1779-.29775-2.3605-.80764.086.16171.14857.27479.15671.29108.11738.13415 2.2637.83842 2.2637.75458 0-.0501-.0221-.13289-.0599-.23802zm-2.3605-.80764c-.0911-.17127-.20888-.39784-.32964-.64797-.46951-.92226-.53654-.93895-1.2073-.33529-.0838.0751-.16401.12992-.2417.16703.58148.28371 1.1985.56612 1.7786.81623zm-1.7786-.81623c-.28573-.1394-.56149-.2782-.81869-.41315.26631.41948.52359.55412.81869.41315zm-2.3364 1.3608c-.44875.19611-.83064.4435-1.0773.71921l-.38564.41904.58681-.41904c.0573-.0412.11382-.0804.17022-.11791.23864-.21545.47483-.38437.60106-.4188.18637-.0658.23306-.10377.10488-.1825zm-.70594.6013c-.11006.0994-.22048.20793-.32104.31908-.46952.51982-.48651.55319-.0673.16752.80488-.72104 2.7334-1.2576 2.3477-.63717-.0838.15092.16772 2.6998.36894 3.488l.10046.38564.48635-.46964c.72104-.67074 2.1463-2.7332 2.1463-3.1021 0-.41921.16775-.38574 1.4925.26823l1.0803.55611c-.15617-.27897-.40009-.42842-1.0132-.72363-1.3918-.67074-2.4818-.93905-3.8736-.93905-1.2655 0-1.9779.17494-2.7474.68703zm7.6342.97565c.0357.0638.0664.13841.0963.2191l-.0364-.18815zm.0963.2191.14812.7676c.25162 1.2449.26167 2.2795.0322 3.106.28901-.58916.3118-.86742.23606-1.731-.0503-.60366-.20121-1.4255-.31859-1.8447-.0338-.1155-.0653-.21041-.0978-.29795zm.18029 3.8736c-.0309.0629-.062.12602-.0992.19724-.52911 1.0101-1.5162 5.0498-1.7044 6.9123.28567-2.0574 1.0693-5.4787 1.5703-6.493.0952-.19036.17226-.39653.23335-.61653zm-1.8037 7.1095c-.0577.4157-.0972.78167-.10758 1.0542.0322-.22422.0632-.49703.0847-.80641.005-.0757.0142-.16248.0228-.24784zm-.10758 1.0542c-.0428.29835-.0877.50158-.11643.50158-.0604 0-.31273-.35922-.59443-.8209.0487.25034.12283.47885.20879.60302.28506.43598.67085.58685.5367.20117-.0333-.0873-.0434-.25541-.0346-.48487zm-.71086-.31932c-.0368-.18915-.0594-.39042-.0594-.57085 0-.41921-.10068-.9727-.23482-1.2242-.35214-.67074-2.8003-2.884-3.2028-2.884-.0671 0-.0839.18429-.0503.41905.0315.1468.048.26775.0491.34241 1.679 1.6062 2.9626 3.0074 3.4052 3.766.0319.0537.0617.10017.0931.15156zm-3.4983-3.9176c-.99311-.95003-2.1242-1.9717-3.302-2.9751-1.3596-1.1584-2.6102-2.3012-3.6886-3.3585-.0291.2167.1332.38512.67032.91031.93903.88873 6.2042 5.5002 6.3049 5.5002.0126 0 .0161-.0322.0155-.0769zm-9.5133-9.0272c-.32785-.39545-.60323-.7571-.81475-1.0744-.73781-1.1402-.87201-1.4253-.80494-1.9452.006-.0486.015-.0976.0253-.14713-.0147.0382-.0296.0764-.042.11372-.16768.48629-.11753.63722.35199 1.4421.28506.50305.67077 1.1234.87199 1.3918l.33553.4694zm2.671-6.5895-.2815-.11938c-.12287.0745-.1349.13059-.0351.16801.0848.0318.20296.01.31662-.0486zm4.4557-.87887c-.42705-.17507-.89145-.30647-1.3684-.38048-.53659-.0839-1.0228-.11737-1.0899-.0671-.0313.0167-.0568.027-.0769.0314l-.0238.0356.63741.1007c.33537.0503.87198.16769 1.1906.25153.28526.0799.50095.0881.73099.0283zm-.79338-5.3744c-.26384 1.2499-.47473 1.8185-1.011 2.8476-.65397 1.2576-1.3077 1.811-2.8169 2.3812-1.4421.55336-4.2257 1.9954-4.5108 2.3475-.40244.50306-.50305.21811-.50305-1.4755 0-.67704.032-1.3455.0919-2.01-.13961 1.1629-.18456 2.2404-.10857 3.0832l.10046 1.0228.55341-.50305c.60366-.51982 4.192-2.3475 4.6112-2.3475.43598 0 1.6268-.88882 2.1466-1.6099.55336-.75457 1.0396-1.9114 1.3414-3.1858.0536-.21928.0878-.39176.10538-.55046zm-8.7499 4.0907c.19928-1.66.59279-3.4955 1.1154-5.0831.22447-.69835.46534-1.3709.66148-1.8727-.99004 2.3741-1.5682 4.6389-1.7769 6.9558zm1.7769-6.9558c.0995-.23866.20284-.4784.31072-.71945-.0728.13814-.17998.38499-.31072.71945zm.31072-.71945c.0382-.0726.0697-.12429.0843-.12429.0168 0 6e-5.78818-.0167 1.744l-.067 1.727.53645.60376c.28507.33537.83849.75453 1.2409.95575.65397.3186.73786.41926.80493 1.0565.0838.77135.78806 2.4649 1.0228 2.4649.0838 0 .53653-.40241 1.0228-.88869.62043-.60367.92226-1.0733 1.0061-1.4758.0838-.51982-.16767-3.8232-.31859-3.9741-.0168-.0335-.57001.53665-1.224 1.2409l-1.1739 1.2743.16777-.65387c.28506-1.1235-.0505-1.8614-1.459-3.3706l-1.2407-1.308.90539-1.7103c.50305-.93903.88865-1.7103.83834-1.7103-.007 0-.0386.0342-.0838.0884-.15543.33917-.51708 1.0358-.95575 1.84-.40304.75495-.76492 1.4931-1.0904 2.2203zm2.0461-4.0603c.0585-.12758.0929-.21338.0838-.22255-.0168-.0168-.67051.83826-1.4418 1.9282-.20185.27676-.39846.5558-.58927.83637l.0189.13633.9727-1.3918c.4193-.58964.79438-1.0928.95575-1.2866zm-1.9474 2.542-.0649-.46743c-.10061-.55336-.88869-2.096-1.6433-3.2195l-.31858-.4694-.26823.72092c-.48629 1.3247-.78823 2.5321-.78823 3.1861 0 .55335.13424.78809.85528 1.5762l.85775.89066c.41671-.74723.87417-1.4883 1.3701-2.2176zm-1.3701 2.2176c-.26069.46745-.50446.9373-.73198 1.4082.0595.0471.20366-.18447.44434-.70594l.30188-.68752zm-.73198 1.4082c-.04-.0317-.042-.18804-.008-.47112.11737-.9558-.2684-1.6936-1.6099-3.1357l-1.2913-1.3583-.11717.73787c-.0503.40244-.11741 1.3583-.11741 2.1129-.0168 1.2912.0166 1.4086.4861 1.9452.2683.3186.83842.75447 1.2576.97246.41921.21798.75458.48638.75458.60376 0 .0143-.004.0388-.0103.0688.19946-.49204.41867-.9844.65608-1.4758zm-.65608 1.4758c-.13359.32953-.25947.65902-.37533.98769l-.34928.99627.014.0265.35223-.93904c.17267-.44607.31986-.89027.35838-1.0714zm-.72461 1.984-.67353-1.2814c-1.2409-2.3476-1.4756-2.5656-1.6936-1.5595-.0416.17674-.10251.32738-.16679.41659.86259.78757 1.5147 1.5406 1.827 2.1323l.4861.9221zm-2.5339-2.4244c-.0174-.0159-.0335-.0317-.0511-.0477-1.7607-1.6098-1.9956-2.1464-1.9788-4.5108.005-.3978.005-.68595-.00025-.89753-.006.18052-.0169.40319-.0332.67966-.10061 2.0625.20126 3.2364 1.1235 4.1922.35214.3689.72103.67057.82164.67057.0382 0 .0788-.0318.11814-.0865zm-2.0301-5.456c.0193-.564-.0113-.67696-.10021-.4102-.0327.10381-.0605.23356-.0845.37925.0104-.0578.0214-.11317.0341-.16138.0944-.33028.13827-.30958.15057.19233zm-.18471-.0309c-.002.0127-.005.0244-.007.0376.002-.0134.005-.0244.007-.0376zm-.007.0376c-.012.0721-.0223.15103-.031.23482.009-.0817.0195-.16106.031-.23482zm-.031.23482c-.13528 1.1767-.0546 3.1014.20609 3.6914.10655.24216.17814.40886.2191.52565.19211.063.14313-.0869-.085-.50895-.29121-.55329-.45555-2.5972-.3402-3.708zm.42519 4.217c-.0903-.0296-.23346-.10605-.43722-.22402-.40811-.25013-.4481-.26506.4382.42568.0509-.002.0461-.0675-.00098-.20166zm.00098.20166c-.0582.002-.18422-.07-.38785-.19085-.45275-.28507-.45278-.28513-.11741.0167.20122.16768.75471.60379 1.2242.9727.73782.57012.85506.73773.78799 1.0899-.0671.23476-.15087.78812-.20117 1.2576-.11738.97257.21797 1.6098 1.3247 2.4986.63719.50306.65393.51984.88869.18447.21799-.30183.23479-.23467.11741.67082-.0227.18728-.0443.47019-.0644.78111.24841-2.1201.24726-2.1608-.17022-3.263-.53659-1.4253-1.2242-2.3307-2.4818-3.3032-.4-.30991-.67753-.52571-.92014-.71479zm3.5722 7.281c-.001.009-.002.0147-.003.0236-.12339 1.018-.14622 1.849-.071 2.472.001-.1691.004-.28967.004-.47653 0-.65449.0305-1.4113.0697-2.0191zm-.0737 2.4956c-.003.45943-.007.87833-.0147 1.1007.047.0159.0963.0327.10243.0327.0503 0 .0168-.43611-.0671-.9727-.008-.0511-.0141-.10636-.0206-.16064zm-.0147 1.1007c-.13669-.0461-.41711-.14865-.78897-.29082-.009.14842.0808.22569.32129.34019.23475.10061.43617.18447.45294.18447.005 0 .01-.0974.0147-.23384zm-.78897-.29082c.004-.0689.0272-.15188.0698-.26357.25153-.65397.16778-1.7772-.15082-2.3138-.50305-.80489-1.9954-2.3646-2.1463-2.2136-.0838.0671-.16764.85532-.20117 1.7273-.0671 1.4421-.0337 1.6601.28493 2.0793l.18545.25619c.54081.18744 1.0268.36165 1.3237.48168.22691.0898.43823.17159.63446.24662zm-1.9582-.7283c-.89465-.31008-1.9866-.66779-2.9689-.96042-1.5595-.48628-3.1189-1.0061-3.4543-1.1906-.92227-.46952-1.66-1.3919-1.66-2.0962 0-.23137.0559-.49664.15794-.78332-.0459.0911-.0869.21348-.14123.38098-.15092.51982-.13417.75464.067 1.2409.40244.9558 1.4252 1.5258 4.4938 2.4816 1.5092.46951 2.9513.92226 3.2028 1.0061l.46964.15107zm-7.9253-5.0305c.12416-.2462.28506-.25619.84817-.25619h.78798l.38564 1.3583c.50306 1.811.83851 2.2635 1.9284 2.5654.48629.13415 1.1068.26835 1.375.30188.46951.0503.50305.0169.50305-.53646 0-.3186-.067-.83856-.13412-1.1572l-.11741-.55341.60352.45294c.70427.53659.75466.50284 1.1739-.88894.16768-.53658.21807-1.1234.16776-1.4755-.11738-.5869-1.4926-2.7836-2.0962-3.3202-.33537-.30183-.33539-.30166-.436.084-.3186 1.375-.58681 2.9344-.58681 3.3536v.48635l-.62046-.31858c-1.1738-.62044-1.1569-.60375-.60352-1.1739.55336-.55336 2.029-3.2866 1.8781-3.4543-.10062-.0839-2.1298.38575-2.8508.67081-.13208.0495-.23646-.20578-.30605-.61309-.0214.49315-.0864.93393-.197 1.2166l-.18447.48635.62046-.48635c1.1067-.85519 1.1738-.82155.18447.10071-1.1434 1.0406-1.9895 2.2179-2.3237 3.1571zm1.9002-4.4744c.0237-.54658-.007-1.1563-.0911-1.6899-.0188.62233.0154 1.2466.0911 1.6899zm-.0911-1.6899c.0166-.548.0738-1.0921.17931-1.5035.3186-1.2241.15091-1.8612-.75458-3.035-.87196-1.1402-1.8279-2.0459-1.9788-1.9117-.0671.0671-.15093 1.0063-.18446 2.0962-.0671 1.8278-.0503 1.9953.30188 2.4313.20122.26829.77134.7044 1.2576.9727.82165.45274.88872.55335 1.0061 1.2576.0235.17237.0375.34096.044.506-.004-.51702-.0841-1.0354-.24514-1.5625-.33537-1.1235-.18444-1.1571.18447-.0504.08.22492.1427.50059.18963.79929zm-.12896.81353c.003.4638-.0566.92651-.18201 1.393.14105-.40878.20212-.88122.18201-1.393zm-.18201 1.393c-.10552.30582-.2549.5766-.44877.80076-.2683.28506-.51999.77126-.58706 1.0899-.038.17094-.13069.4171-.24882.66247l.0646-.0924c.60086-.84872 1.0049-1.6604 1.22-2.4607zm-1.2846 2.5531-.67328.9641-.33553-.58681c-.40462-.69082-1.2405-1.2464-2.2723-1.5811l-.32669-.0454 1.0899.57011c.78812.41921 1.1738.75453 1.4421 1.2073l.35224.63716.41929-.63716c.10908-.15272.21387-.3402.30434-.52811zm-3.2811-1.2038.39448.055.70423.084v-.85529c0-1.0564-.48624-2.096-1.2073-2.5823-.53659-.35213-2.8844-1.5595-3.0353-1.5595-.11737 0 .36898 1.9619.73788 2.9513.37986 1.0075.71199 1.3805 1.507 1.6799.31202.0567.61245.13399.89901.22696zm-.89901-.22696c-.47344-.0861-.97009-.12868-1.4733-.12036l-1.0061.0336 1.2576.13412c.29559.0318.57399.0701.83613.11569.75081.0224.8157-.009.4215-.14935-.0124-.005-.0237-.009-.0359-.0137zm-.38564.1631c-.14344-.004-.2684-.007-.46744-.0152-.78811-.0168-1.1569-.0166-.83834.017 1.0396.11738 2.4147.43575 2.9346.68727 1.375.68751 2.0457 1.9116 1.8444 3.3202-.10061.65397-.0671.77139.4527 1.308.80488.87196 2.968 1.9452 6.7242 3.3706 4.6616 1.7775 4.8796 1.8946 5.718 3.5044 1.0564 1.9954 2.6328 3.991 5.3661 6.7745 1.0114 1.036 1.8506 1.9272 2.2085 2.3308.13587.0207.23485.0337.27314.0337.0503 0-.98945-1.0901-2.2974-2.4148-2.6662-2.6662-4.5609-5.0472-5.567-7.0091l-.67082-1.2913-1.4252-.67058c-.78811-.3689-2.4817-1.0566-3.7729-1.5261-2.8339-1.0396-5.6342-2.3977-6.4056-3.1188-.51982-.48628-.55341-.60383-.55341-1.5932-.0152-2.1858-1.0198-3.2722-3.5236-3.7073zm23.943 21.297c-1.0542-.16079-4.6615-.87057-4.9586-.9894-.75458-.28506-2.4315-1.593-3.5047-2.7164-.62662-.65026-.89408-.97528-.99775-1.281.14098.61806.2987.92101.59541 1.2306.82165.87196 2.9512 2.5155 3.6555 2.8341.51982.23476 4.8461 1.1569 5.3995 1.1569.0133 0-.0607-.0897-.18938-.23482zm-9.461-4.9868c-.017-.0745-.0336-.15273-.0504-.23704.008.0809.0238.15869.0504.23704zm-.0504-.23704c-.005-.0512-.008-.10313-.008-.15867 0-.97257-.63705-2.6662-1.3581-3.6388-.31853-.4224-.49355-.66182-.80027-.89533.008.0224.012.0517.012.0904 0 .11738.26821.50316.58681.85529.83842.92227 1.2242 1.7942 1.4924 3.3369.0254.15039.0505.28474.0754.4102zm-2.1667-4.6928c-.0127-.0375-.0347-.0528-.0626-.0474.022.0158.0419.0316.0626.0474zm-.0626-.0474c-.44156-.31619-1.1629-.64353-2.8599-1.4217-1.1738-.53659-2.5991-1.2074-3.1524-1.4924-1.5772-.79672-1.3284-.48425.29255.40652.71344.3384 1.8216.8427 2.6924 1.22 1.0229.43598 2.0791.93913 2.3642 1.1068.28506.16769.57016.26825.62047.20117.0153-.0115.0296-.0178.0427-.0204zm-5.7198-2.5076c-.11085-.0526-.23801-.11215-.32595-.155-1.5259-.7378-.9391-.26826.77128.62047.40727.21289.75578.39901.99775.53154.0392.00076.29353.005.29353.005 0-.0168-.7212-.43606-1.5932-.92234-.0534-.029-.0927-.052-.14345-.0798zm1.4431.99701c-.21136-.004-.72155-.0143-1.5846-.0285-.69282-.0202-1.4978.002-2.2863.0526l.0393.0985 2.0793.0501c1.1402.0335 2.0793.0337 2.0793.017 0-.008-.13055-.0821-.32694-.18963zm-3.8709.0241-.16187-.40456c-.30183-.73781-1.2073-1.4255-2.2134-1.7106-1.2744-.36891-2.6831-.63701-2.7837-.55316-.0671.0671.31864.77123 1.6266 2.9847.15092.25153.50299.55344.77128.67082.5869.25152 2.8173.23464 2.9012-.0337.0838-.21799.98926-.21781 2.3475.0169 1.2576.21799 1.1403.35211-.51976.63717-.88872.15092-1.2745.15074-1.7273-.0169-.60367-.21799-2.3643-.0333-3.84.38589l-.65388.18422.57012.48635c.3186.2683.9557.72098 1.4084 1.0228l.62931.41094c.14753-.0281.29769-.0545.44386-.0754l.83858-.11741-.41929-.31858c-.23476-.18446-.40235-.4863-.40235-.68752.0335-.36891.0334-.36897.10047.0167.10061.51982.83847.8553 2.3141 1.0398.0105.001.0218.003.0324.005l.40357-.23949c.28507-.16768.48624-.40237.4527-.51975-.13415-.3186-.0167-.26833.92235.38564.6875.50305.80491.65388.62046.83834-.0285.0285-.0621.0496-.0992.0673.63811.19624 1.297.4334 1.9383.69759-.0696-.0939-.10713-.19349-.12871-.3122-.0838-.41921-8e-5-.51964.83834-.98915.50305-.30183.93898-.53664.95575-.55341.0335 0 .23489.36882.46965.83834.40244.77135.41909.88868.21787 1.4588-.0911.26026-.15942.46119-.19896.57134l.53449.26725v-.72118c0-.46951-.2012-1.1234-.57011-1.8948-.45275-.97257-.70448-1.2744-1.392-1.7103-1.7104-1.1067-3.9907-1.5931-7.3947-1.6099-1.2241 0-2.029-.0671-1.811-.11741.66278-.18076 1.8018-.32396 2.979-.40013zm7.6544 6.1865-.80715-.40357c-.42929-.21465-.88347-.41926-1.3468-.61015.14669.19796.43682.37085 1.0282.6438.5869.28506 1.0733.48617 1.0901.4694.004-.008.0242-.0677.0356-.0995zm-4.0922-1.7113c-.83266-.25608-1.6282-.4428-2.2998-.53204l-.13313.0791 1.1572.30188c.77949.19487 1.0946.23742 1.2758.15106zm-5.2076-.39424c-.32637.0622-.62999.13508-.78012.19282-.2683.13415-.18449.1509.38564.0671.0405-.006.0819-.0104.12281-.0157l.464-.1184zm-.27167.24416-.32399.0828c-.43597.11738-.85533.26845-.90564.33553-.0671.0671.0337.0669.21812-.017.18446-.0671 1.0562-.15087 1.9282-.20117l1.5932-.0671-.92234.40234c-.50306.21799-1.2074.53672-1.5595.72118l-.65387.33528 1.1569.53671c.62043.28506 1.3416.58691 1.5932.68752l.436.16752-.65412 1.5595c-.9558 2.314-.87202 3.0686.51976 4.4101.57012.55336.7212.62051.83858.41929.0838-.13414.25143-.40236.40234-.58681.23476-.3186.23491-.28521.15107.35199-.11738.90549.25136 1.5595 1.4252 2.4315l.88869.67082.35224-.80493c.20122-.43598.36893-1.1572.36893-1.5932l.0167-.80468 1.2242 1.224c.68751.65396 1.442 1.4757 1.7103 1.7943l.26479.33111c.12653-.0118.20461-.0268.20461-.0462 0-.0503-.26815-.35222-.60351-.67081-.62007-.59007-1.582-1.6533-2.0876-2.2598-.72085-.71737-1.3392-1.3927-1.6352-1.8317-.3689-.55336-.67057-1.0732-.67057-1.1402 0-.0671.40241-.0671.88869 0 .46952.0671.87199.13429.87199.15106 0 0 .11725.23469.28493.51976.15092.26829.75475.77131 1.3416 1.1402l1.0562.63716.20141-.4694c.11738-.25152.20111-.63736.21788-.83858 0-.50305.21813-.60355 1.1572-.4694l.80469.11741.10071.80493c.13415 1.1067.43601 1.5092 1.6266 2.1967.92226.51982.98934.62033 1.0061 1.1569 0 .3186.2011 1.0229.4694 1.5595l.45269.97246.70447-.51976c.38568-.28506.87194-.78821 1.0732-1.1068.25152-.41921.43594-.55318.63716-.4861.15092.0671.85518.26824 1.5762.45269l1.308.35199-.5534.35224c-2.4817 1.5092-2.9849 1.9955-2.9849 2.8842 0 .24748-.0221.4113-.11741.48929.96526.39339 1.723.65265 2.4848.83048l.16482-.17955c.38567-.41921.90548-2.0457 1.0732-3.471.10061-.82165.16767-.92226.57011-1.0061.25153-.0503.70421-.35215 1.0228-.68752.3186-.3186.60369-.58682.62046-.58682.0335-.0168.55344.16759 1.1739.40235 2.5488.97257 3.8734 2.2973 4.3094 4.3263.15092.65397.28512 1.5426.30189 1.9618.0183.31707.0421.51305-.0231.61163.15834.0137.15127-.18694.0567-.99727-.33537-3.0183-1.1403-4.3597-3.2531-5.4832-1.2409-.65397-2.0122-.90553-5.7348-1.8781-3.8232-1.0061-5.7014-1.6768-6.8919-2.4649-.78811-.51982-1.1906-.65397-3.2531-1.0061-2.683-.46951-5.4833-.57019-6.1037-.23482-.21799.11738-.33524.13402-.28493.0334.1194-.18226.64151-.32197 1.404-.40972-.0732-.0179-.12492-.0382-.14639-.0597-.2683-.2683-.41928-.21814-.48635.10046-.0335.18445-.38577-.38553-.85529-1.3581-.43598-.90549-.78798-1.6768-.78798-1.6936 0-.0335.26814-.0504.60351-.0504.3186 0 .63722-.0502.68752-.10046.18446-.18445.55341-.10082.55341.11717 0 .11738.2851.65398.62047 1.1906l.60376.9894.65387-.70422.65387-.68752-.0501 1.1235-.0454 1.029c.96039-.006 2.0243.039 3.0638.14468.0286.003.0536.005.0818.008-.0727-.0979-.1389-.22152-.18251-.3596-.11738-.3186-.70439-1.1068-1.2913-1.744-.75458-.82165-1.0899-1.3078-1.0899-1.6096 0-.53659.0503-.53677.95576-.017.67073.40244.72117.48625.72117 1.1402 0 .83842.38567 1.4423 1.5092 2.3981.13494.10942.23813.19637.32104.26995.16434.009.28602.0117.29942-.002.0335-.0335-.11736-.28504-.31858-.57011-.21799-.30183-.51991-.95593-.67082-1.4758-.25153-.82165-.40254-1.0396-1.1068-1.5092-1.0732-.73781-3.5548-1.9116-4.9802-2.3812-1.1263-.35911-2.8556-.47887-4.3543-.28395zm11.131 6.2218c-.22999-.0127-.56351-.0415-.94347-.0781.095.12794.20139.21051.28689.21051.13415 0 .43606.0503.67082.11741.26243.0656.284.0149-.0142-.24981zm-4.089-.2304c-.75411.004-1.4454.0395-2.0048.1039.21279.0519.61136.0827 1.0105.0577l.9894-.0504zm22.056 12.545c-.0383-.003-.086-.0187-.14468-.0415-1.2409-.48628-3.1021-.80496-5.6006-.92234-1.4874-.0804-2.4848-.17772-3.4681-.40726l-.20412.22279 1.0565.16777c.58689.10061 2.0456.21792 3.2362.26823 1.4588.0503 2.5992.20123 3.4376.43599 1.1845.32013 1.5732.44884 1.6872.27634zm-11.698-2.2016c-.38727-.15782-.80449-.33471-1.2743-.53965-1.3338-.58499-2.0908-.93416-2.5971-1.2888.5166.44037 1.1327.81573 1.9095 1.1881 1.2621.59725 1.7665.80017 1.9619.64036zm-3.8714-1.8285c-.29559-.25199-.55789-.52672-.79879-.83343.21378.33422.44597.58625.79879.83343zm-.79879-.83343c-.13892-.21718-.27172-.46779-.42715-.77865-.35214-.70427-.80506-1.7272-1.023-2.247-.44707-1.0996-.5405-1.124-.31613-.38147.12675.2373.35296.7341.6013 1.3372.36041.84761.7274 1.5128 1.165 2.0699zm-1.7663-3.4072c-.053-.0992-.093-.16488-.10292-.15499-.0335.0168.13393.6036.36869 1.2743.23476.67074.41929 1.2575.41929 1.291 0 .1061-.14723.0612-.39178-.0892.41296.36996.69366.61092.69366.59221 0-.0335-.26821-.80477-.58681-1.727-.18273-.50603-.31312-.89845-.40013-1.1864zm.29328 2.3212c-.32726-.2932-.7322-.66189-1.1844-1.0845-1.0396-.95579-2.2302-2.0289-2.6327-2.3978-.33837-.31129-.19946-.10482.14271.30557 1.2993 1.293 2.9368 2.7233 3.6744 3.1768zm-1.1879-.19995c-.31078.029-.94656.0376-1.6735.0376l-1.8948-.0334 1.5092.13411c.40139.0319.73801.0614 1.0358.0953l1.2279.0221zm-1.0233.2336-.65018-.0115-1.8612-.0167 1.6266.13411c.98934.0838 1.9451.28513 2.3978.48635.65397.28507.75458.40243.75458.82164v.50305l-.9894-.0838c-1.1235-.10061-1.4924.0671-3.0687 1.375-.25716.21124-.52211.39456-.73051.51141.50449.2374.99836.43481 1.4802.59443.002.00038.003.00034.005.00073 1.4924.28507 2.1129.20132 2.683-.40234l.53646-.5367.21812.58705c.11738.3186.35201.70406.53646.87175.0659.0539.12414.10594.17612.1545.83596.0633 1.6643.0985 2.3453.0877-.004-.0229-.006-.047-.006-.0744 0-.26829.13433-.53645.26848-.53645.0335 0 .31857.15076.63716.35199.13164.079.24632.15241.34512.21812l.47652-.017-1.0565-.57011c-.77135-.41921-1.4923-1.0562-2.6661-2.3138-1.5239-1.6368-1.8774-1.9552-3.4582-2.135zm6.7043 5.0359-.94888.0334c-.0944.004-.19423.006-.29574.007.0298.18655.19572.22745.74844.22745.41921 0 .75458-.0335.75458-.067 0-.0204-.10549-.0995-.2584-.20117zm-3.5899-.0469c-1.3412-.10154-2.6977-.27767-3.4794-.47309-.22181-.0576-.44776-.12638-.67573-.2019-1.1994-.23244-.6133.11873.67573.40332 1.2409.2683 3.6388.57008 3.6388.4527 0-.0216-.0659-.0936-.15941-.18103zm-5.6353-1.2694c-.17907-.0843-.35976-.17469-.54112-.26848.0367.2249.0997.36347.18176.39424.0531.0227.18726-.0293.35936-.12576zm-.54112-.26848c-.0233-.14277-.0364-.31974-.0364-.5281 0-.45275-.11738-1.0395-.25152-1.291-.21799-.45275-2.2468-2.3644-2.4983-2.3644-.0503 0-.10071.57013-.10071 1.2576 0 .60499-.004.91832-.0469 1.0611.99371.74542 1.9786 1.3709 2.9338 1.8648zm-2.9338-1.8648c-.52522-.39398-1.0528-.81956-1.5797-1.2792-.98933-.85519-1.2407-1.1903-1.4922-1.9449-.15173-.44933-.26192-1.0445-.32817-1.6995.0445.76896.12627 1.4495.24416 1.8503.15092.46951.57016 1.0227 1.375 1.7941.6372.62043 1.308 1.2074 1.4925 1.308.16113.0848.24477.11739.28837-.0287zm-3.4-4.9237c-.0662-1.1432-.0488-2.4839.0631-3.4118-.15975 1.0524-.17388 2.3169-.0631 3.4118zm.0631-3.4118c.002-.014.004-.0288.006-.0427-.002.0147-.004.0278-.006.0427zm.006-.0427c.0176-.11244.0368-.22249.0577-.32939.016-.0942.0296-.17745.0445-.267-.004.017-.007.0319-.0108.0491-.0354.1556-.0655.34173-.0914.54726zm.10218-.59639c.14328-.61532.22261-1.1428.17366-1.1918-.005-.005-.009-.006-.0133-.009.013.10514-.059.59093-.16039 1.2004zm.16039-1.2004c-.001-.009-.001-.0214-.003-.0248-.005-.005-.0131.007-.0236.028.008-.007.0173-.008.027-.003zm-.027.003c-.018.0149-.0326.0552-.044.11643.0169-.0485.0328-.0939.044-.11643zm19.559-12.437c.10062 0 .18447.0672.18447.16777 0 .0838-.0335.16776-.067.16776-.0503 0-.13417-.0839-.18447-.16776-.0503-.10061-.0168-.16777.0671-.16777zm8.0656 4.5275c.10061 0 .16776.0672.16776.15107 0 .10061-.0671.21792-.16776.26823-.0838.0503-.16752-.0167-.16752-.15082 0-.15092.0837-.26848.16752-.26848zm-11.989 12.912c.13415 0 .25153.0501.25153.11716 0 .0838-.16778.31865-.35223.55341-.25153.30183-.31861.3354-.25153.11741.0503-.16768.10071-.41926.10071-.55341 0-.13414.11738-.23457.25152-.23457zm2.5381.85651c.12114.003.29574.0354.54727.0825.28506.0671.51975.16751.51975.23458 0 .11738-1.0899.83859-1.2743.83859-.0335 0-.0671-.26846-.0671-.58706 0-.43808.008-.5749.27437-.56864zm43.756 2.6897c-.11223.58756-.51065.87433-1.573 1.2829-.48003.181-.90608.32598-1.3249.44288.0967-.011.32296-.0738.58706-.1744.33537-.11738.75466-.21806.92234-.23483.16769 0 .51969-.11737.78799-.25152.38567-.20122.50321-.40239.58706-.95575.006-.0373.009-.0731.0135-.10931z"/>
		<path d="m61.499 32.238c-1.3415 1.1235-1.9116 1.9116-1.9116 2.6494 0 .41921.43598 2.2134.58689 2.3643.13415.15092 1.4253-.6875 1.8948-1.2073.6372-.72104.73781-1.2409.67074-3.2531l-.0503-1.5595z"/>
		<path d="m56.317 43.875c-.28507.21799-.67074.72104-.87196 1.1067l-.36891.70428.41921.15091c.23476.10061.78812.16769 1.2409.16769.73781 0 .92226-.0838 1.7942-.80489 1.1235-.93903 1.4756-1.3415 1.3415-1.4756-.0503-.0671-.77135-.15091-1.5762-.18445-1.3918-.0838-1.5092-.0671-1.9787.33537z"/>
		<path d="m67.401 5.878c-.15092.67074-.2683 1.2912-.2683 1.3918s-.51982.67074-1.157 1.2576c-1.5427 1.4588-1.6768 1.7942-1.2744 3.3704.16769.68751.38568 1.2409.46952 1.2409.3689 0 1.6265-.87195 1.9619-1.3582.20122-.26829.40245-.80488.45275-1.157.0503-.3689.11738-.67074.15092-.67074.0335 0 .38567.21799.77134.50306.36891.26829.75458.50305.83842.50305.0838 0 .30184-.35214.50306-.77135.6372-1.4588.20122-2.7668-1.593-4.8461l-.57013-.67074z"/>
		<path d="m38.191 16.878c-.9558 1.9954-1.0061 2.6159-.26829 3.6555 1.1067 1.5427 1.0061 1.4924 1.5595.82166.26829-.3186.60366-.9055.77135-1.3079.23475-.6372.25152-.83842.0503-1.5762-.23476-.97257-.9558-2.8339-1.1906-3.0518-.0838-.0838-.46951.51982-.92226 1.4588z"/>
		<path d="m81.001 17.314c-.80488.26829-1.6601.60366-1.8781.75458-.5869.38567-.90549 1.1067-1.0396 2.2973l-.10061 1.0396.82165-.0838c.45275-.0503.97257-.15092 1.157-.21799.20122-.0838-.0168.23476-.51982.77135-1.375 1.4588-1.5762 1.7942-1.5762 2.6159 0 .72104.58689 2.3979.83842 2.3979.28506 0 1.5427-1.0564 1.8613-1.5595.28507-.46952.3186-.78812.30183-2.5656-.0335-1.811 0-2.096.30184-2.5153.3689-.53659 1.0396-1.811 1.4421-2.8003.3186-.75458.3186-.75458-1.6098-.13415z"/>
		<path d="m10.188 27.174c.21799.88872 1.5259 3.3201 1.9451 3.6052.28507.20122.82166.31859 1.6601.3689l1.2241.0671-.0671-.70427c-.11738-1.0229-.60366-1.9284-1.2912-2.3644-.33537-.21799-1.2744-.62043-2.096-.90549l-1.4756-.51982z"/>
		<path d="m7.1524 29.521c-.48629.0335-.88873.11738-.88873.18446 0 .15091 1.6768 1.7774 2.4817 2.4314.38568.3186.75458.45274 1.2073.45274.67074 0 2.5153-.62043 2.5153-.85519 0-.28506-1.1235-1.5762-1.6433-1.8781-.5869-.35213-1.9954-.46951-3.6723-.33537z"/>
		<path d="m11.462 33.16c-.3186.11738-1.0732.46952-1.6768.77135l-1.09.55335 1.0061.46952c2.6494 1.2409 3.4375 1.2409 4.779.0335.80489-.72104.83842-.78812.57013-1.0732-.77135-.85519-2.3811-1.1906-3.5884-.75458z"/>
		<path d="m82.812 33.412c-.26829.16768-.77135.58689-1.09.92226l-.58689.62043 1.0061.80488-.77134.0168c-.53659 0-.92227.11738-1.2409.36891-.48628.38567-1.4253 1.593-1.4253 1.8445 0 .28507 1.4253.80489 2.2134.80489.65397 0 .9558-.11738 2.0122-.83842 1.8781-1.2744 2.2805-1.6768 1.7272-1.6768-.55336 0-.15092-.28506 1.4756-1.0732l1.7104-.80489-.75457-.33537c-2.314-1.0061-3.4375-1.1738-4.276-.65396z"/>
		<path d="m6.096 43.188c0 .0503.18445.60366.40244 1.2409.48628 1.4421.97257 2.4147 1.3918 2.7836.3186.28506 1.6936.6372 2.532.6372.38567 0 .40244-.0335.33536-.82165-.16768-1.6768-.92226-2.465-3.2363-3.3537-.45275-.18446-.97257-.36891-1.1235-.43598-.16769-.0671-.30183-.0839-.30183-.0503z"/>
		<path d="m91.531 47.95c-.2683.15092-.82166.57013-1.2073.92226l-.72104.65397.70427.50305c1.4588 1.0564 2.1464 1.0396 4.6616-.11737 1.4588-.67074 1.4588-.70428-.57013-1.5427-1.593-.65397-2.247-.75458-2.8674-.41921z"/>
		<path d="m6.4817 48.151c-.15092.10061.10061.46952.83842 1.2409 1.157 1.2073 2.0122 1.811 2.5823 1.811.45274 0 2.5656-.67073 2.5656-.82165 0-.0503-.28506-.48628-.6372-.93903-.90549-1.2073-1.4421-1.4253-3.4711-1.4253-.92226 0-1.7774.0671-1.8781.13414z"/>
		<path d="m1.4009 53.584c-.68751.0838-1.3247.21799-1.3918.28506-.16768.16769 2.029 2.0625 2.8506 2.4482.70427.33537 1.2409.25153 2.5153-.35214l.9055-.41921-.33537-.45274c-.55336-.78812-1.2744-1.375-1.8781-1.5427-.6372-.18445-.9055-.18445-2.6662.0335z"/>
		<path d="m69.112 93.912c-.2683.0335-.46952.11738-.46952.16769 0 .35214 1.09 2.247 1.4253 2.465.72104.46951 4.1083 1.1906 4.1083.87195 0-.48628-1.8278-3.1022-2.3476-3.3704-.45275-.23476-1.6601-.28506-2.7165-.13415z"/>
		<path d="m81.956 95.103c-.28506.15092-.77135.48629-1.09.73781l-.55335.45275.40244.43598c.58689.62043 1.5595 1.09 2.2637 1.09.80489 0 3.8064-1.0061 3.7226-1.2409-.0335-.10061-.75458-.53659-1.593-.97257-1.6768-.87195-2.314-.97256-3.1525-.50305z"/>
		<path d="m16.576 96.998c-.73781.18446-1.3918.38568-1.4588.45275-.15091.15092 1.4086 1.2912 2.4985 1.8613.38567.18446.92226.35214 1.1738.35214h.46952l-.0503 1.3918c-.0503 1.2073-.0168 1.4421.30183 1.8445.3186.40244 1.9116 1.4588 2.1967 1.4588.0671 0 .25153-.48629.40244-1.09.28506-1.0061.28506-1.1402.0335-1.7942-.15092-.40244-.5869-1.09-.9558-1.5427-.70428-.85519-.70428-1.1403.0168-1.3582.28506-.10061.30183-.13414.0503-.50305-.15091-.23476-.60366-.6372-1.0396-.92226-.92226-.60366-1.6601-.6372-3.6388-.15092z"/>
		<path d="m75.433 97.299c-.2683.16769-.77135.5869-1.09.92227-.57012.62043-.58689.6372-.25152.88872.62043.46952 1.6768.88873 2.2805.88873.38567 0 1.2073-.30183 2.3476-.85519l1.7439-.85519-.75458-.33537c-2.314-1.0229-3.4208-1.1906-4.2759-.65397z"/>
		<path d="m23.653 99.781c-1.0899 2.2637-1.0396 2.7836.35214 4.4101l.50305.5869.35214-.41921c.72104-.87196 1.0732-1.8278.97257-2.6662-.10061-.78812-1.1067-3.5381-1.3079-3.5381-.0503 0-.45274.73781-.87196 1.6265z"/>
		<path d="m86.752 99.999c-.77135.11738-1.0061.23476-1.4588.75458-.51982.60366-1.1403 2.0625-.97257 2.247.21799.20122 2.2973.21798 2.7836.0168.70428-.30183 3.0686-2.8674 2.8003-3.0518-.26829-.15091-1.8948-.13414-3.1525.0335z"/>
		<path d="m12.351 102.35c-.72104.38567-1.4924.82165-1.7104.98933l-.41921.3186 1.6265.51982c.9055.28507 1.9116.51983 2.2302.51983.75458 0 1.5762-.48629 2.247-1.3247.57012-.73781.53659-.78811-.68751-1.3415-1.1067-.51982-1.7774-.45275-3.2866.3186z"/>
		<path d="m54.892 102.15c-.41921.26829-.90549.65396-1.0732.83842-.30183.35213-.30183.38567-.0168.70427.41921.46952 1.6098 1.0061 2.2134 1.0061.77135 0 3.907-1.2073 3.907-1.5092 0-.23476-2.7836-1.3918-3.5214-1.4588-.62043-.0671-.88873.0168-1.5092.41921z"/>
		<path d="m67.988 103.29c-.28506.23476-.73781.77135-1.0229 1.1738l-.50305.75458.72104.3186c.38567.18445 1.0732.33536 1.5595.33536.75458 0 .97257-.0838 2.0122-.83842 1.4421-1.0229 2.1799-1.6433 2.0793-1.7271-.20122-.15092-2.3979-.45275-3.3201-.45275-.83842 0-1.1067.0671-1.5259.43598z"/>
		<path d="m51.086 104.29c-.57013.28507-2.7332 2.465-2.7332 2.75 0 .10061.77135.16769 1.8948.16769 1.5762 0 1.9619-.0503 2.4146-.33537.6372-.38567 1.6936-2.2805 1.4086-2.5656-.30183-.30183-2.3979-.3186-2.9848-.0168z"/>
		<path d="m18.404 104.85c-1.4253.67074-2.4817 1.3582-2.314 1.5259.15092.13414 2.4817.90549 3.2866 1.0732.26829.0671.70427 0 1.0061-.13415.72105-.30183 2.0625-1.6768 1.8948-1.9451-.20122-.3186-1.7942-1.0061-2.3476-1.0061-.2683 0-.9558.21799-1.5259.48628z"/>
	</g>
</svg>
