<?xml version="1.0" encoding="UTF-8"?>
<svg width="1706.7" height="324.42" version="1.0" viewBox="0 0 426.67 81.105" xmlns="http://www.w3.org/2000/svg">
	<g id="grass" transform="matrix(.033333 0 0 -.033318 1.7024e-5 147.74)" style="fill:#1b5e20">
		<path d="m11957 4213c-8-292-29-623-39-617-4 3-8 15-8 26 0 38-41 161-81 243-43 90-122 194-194 257l-48 43 36-51c52-72 101-183 101-224-1-19-9-78-20-130-14-75-27-110-61-165-48-77-112-233-140-340l-18-70-3 69c-3 62-1 71 23 95 32 34 32 43-1 30-15-5-28-8-29-7-2 2-8 89-15 193-12 189-12 191 18 390 17 110 29 201 28 202-6 6-96-139-104-168-5-21-6-82 0-155 9-134-2-368-19-385-8-8-9 4-6 38 3 36 2 44-6 33-6-8-11-23-11-32 0-33-17-18-29 25-19 65-89 201-117 228-14 13-39 28-57 34-27 8-33 17-41 54-6 28-6 49 1 60 8 13 7 17-8 17-11 0-19-4-19-9 0-4-30-38-66-73-57-56-73-67-114-73-68-11-91-29-146-117l-49-77-6 79c-11 138-20 198-29 183-6-8-9 5-8 36 0 28-6 66-15 85l-15 35-2-60c-6-269-18-487-27-496-7-7-12 0-16 23-3 18-15 88-28 155l-22 123 28 187c44 304 46 281-19 184l-56-83v-84c0-46-4-84-9-84s-21 19-35 43c-24 40-72 103-63 82 2-5 16-35 30-65s27-62 29-70c1-9-19-42-46-73l-49-57-23 34c-27 40-60 52-159 60l-70 6 63-19c78-23 98-41 118-106 16-51 16-54-3-81-11-16-38-63-58-104l-38-75-9 35c-19 70-28 55-28-45 0-99-30-240-43-205-3 8-8 168-10 355-4 240-10 368-21 435-28 171-32 168-39-20-10-237-27-549-33-579-7-32-17-17-45 69-54 163-170 338-272 412-27 19-26 17 9-28 20-27 50-77 67-112l29-63-20-62c-11-34-23-84-27-111l-8-49-14 26c-8 17-22 27-35 27-12 0-18-3-15-7 4-4-5-19-20-35-15-15-22-28-16-28 5 0 18 9 28 20 14 16 20 17 27 8 18-30 7-71-37-133-47-66-135-241-135-269 0-9-4-16-10-16s-10 45-10 115c0 174 43 288 120 319 22 9 40 17 40 19s-21 0-47-4c-27-4-53-8-60-8-6-1-25-12-41-26l-29-24-16 78c-9 43-22 93-30 112-15 32-15 25-16-126-1-161-6-205-22-205-5 0-9 10-9 23-1 12-13 54-29 93l-27 70 16 60c10 32 29 84 44 114l27 55-26-30c-14-16-41-56-59-87l-32-58-24 32c-27 37-27 29-1 203 10 72 18 131 17 133-2 1-26-33-55-76-34-53-51-88-51-110 0-18-4-32-10-32-5 0-10 8-10 17s-3 13-7 10c-3-4-15 1-26 10-20 18-20 18-2-10 14-22 16-34 8-65-5-20-6-49-2-64 7-27-5-41-14-15-4 12-10-32-23-167l-7-68-37 72c-48 90-64 108-106 116-19 3-36 10-39 13-2 4 9 36 26 71 29 62 14 69-17 7-25-47-25-26 0 53 33 105 67 177 110 234 38 48 38 49 8 27-70-49-174-189-224-299l-30-65-35 35-35 36-9 143c-4 79-8 207-8 283-1 89-4 137-11 130-32-32-67-564-56-854 3-88 2-135-3-120-5 14-21 65-36 115-15 49-45 130-66 180-21 49-39 94-39 100 0 5 14 24 32 42s27 33 22 33c-6 0-23-14-39-30l-29-31-18 23c-10 13-18 28-18 34s-6 17-14 23c-7 6-16 32-19 57-6 57-28 84-52 64-20-16-35-4-52 43-6 18-12 24-12 15-1-18-16-25-23-10-2 4-19 21-38 37-36 31-35 30 24-48l36-49v-120c0-117-1-120-18-105-29 27-38 20-11-9 13-14 24-37 24-51 1-21-1-22-11-9-6 9-13 16-16 16-2 0-1-32 3-72 12-104-2-115-34-27-29 81-26 92 27 109 25 8 20 9-34 6-36-2-72-7-81-11-14-5-18 3-23 42-9 61-37 162-46 168-4 3-8-61-9-141-1-83-7-156-13-170-11-24-12-23-28 29-9 29-33 86-54 126l-37 73 26 41c14 23 33 53 42 67 10 14-3 7-29-18l-45-43-12 48c-36 144-90 179-91 59v-29l-22 20c-44 39-49 35-15-10 31-40 35-53 40-127 4-64 2-90-10-116-19-39-28-37-37 11-14 72-26 46-26-57 0-57-6-123-14-147l-13-45-6 55c-12 95-8 264 6 278 10 11 10 13 0 7-9-5-13 1-13 20 0 35-13 22-29-27-20-63-98-121-102-76-1 7-31 39-67 72s-62 55-59 49 22-35 42-64c35-52 35-53 15-67-11-8-20-23-20-34s-7-19-17-20c-11 0-13-3-5-6 14-5 17-99 3-107-5-3-11 21-15 54-7 64-33 160-46 174-5 4-6-29-4-75 5-84 5-84-14-64-16 16-22 40-27 120l-7 100 37 55 38 55-37-34-36-35v84c0 109-14 95-35-35-15-94-22-110-71-174-2-2-12 2-21 10-16 12-17 12-6-2 11-13 4-23-42-62-53-46-66-54-64-39 1 4 1 48 0 97-1 63-5 85-11 74-11-19-35-122-45-192l-6-48-60 65c-33 36-78 79-100 97l-40 32 48-64c26-35 64-95 84-134l36-70-32-52-32-53-23 41c-12 23-44 70-70 104-47 62-47 63-54 161-4 54-9 114-13 132-5 30-3 33 33 48 21 9 53 18 71 21s36 9 38 13-15 4-38-1c-23-4-59-8-79-9-33 0-38 3-38 23-1 12-7 36-15 52-13 29-13 29-14-31-1-59-2-61-25-57-18 4-29-3-46-27-12-17-20-33-17-36 2-2 12 7 21 22 30 44 29 19-1-35-15-28-33-51-40-51s-10-6-7-13c3-8-4-35-16-61-19-44-22-48-47-41-27 6-27 6-9-13 15-17 16-24 6-43-12-21-13-21-23-4-5 10-10 51-9 89l1 71-18-54c-10-30-21-50-24-45-13 23-28 269-25 432l3 177-43 63c-24 35-47 73-52 85-8 21-9 21-9 2-1-11 7-75 16-143 13-96 14-127 5-140-55-78-66-107-68-175-3-92-17-105-38-33-9 31-18 56-20 56s-2-35 1-78c4-61 2-80-9-90-13-10-18-8-32 12-16 25-53 39-127 51l-37 5-7 176c-4 96-9 173-11 171-14-13-35-177-45-342-6-104-13-192-15-194-3-3-31 0-64 5-72 12-68 4 8-16l57-15 3-139c2-130-3-166-27-166-4 0-18 33-30 73-24 74-89 211-123 259l-19 28 36 71c39 78 84 148 109 168 9 8 16 18 16 24 0 13-94-75-154-145l-49-57-43 52c-24 29-67 72-96 97l-52 45 41-55c23-30 57-85 77-121l36-66-48-94c-27-52-54-109-61-128-9-27-14-32-23-23-10 10-9 17 1 35 13 20 13 21-3 8-14-12-19-11-31 5-22 28-23 41-29 274-5 203-26 405-46 440-6 9-10-21-10-84 0-111-20-489-26-495-2-2-13 4-24 14s-20 14-20 8c0-5 9-18 20-28 17-15 20-30 19-94-1-42-5-89-9-106-7-27-8-25-9 18 0 26-5 47-10 47s-14 23-21 51-32 88-56 135l-43 84 26 19c14 11 40 23 59 27 19 3 37 11 41 17 3 5 2 7-4 4-5-3-40-11-77-17l-68-11-75 81c-41 44-80 80-86 80s-1-10 10-22c25-27 93-139 93-152 0-6-9 0-20 12-43 46-58 22-76-130-12-93-23-138-45-184-16-33-29-66-29-72s-4-13-10-17c-24-15-60 124-46 179 3 13 25 48 48 78 40 51 33 51-24 0l-27-24-7 36c-8 43-1 112 20 211 20 93 21 284 2 311-15 19-15 19-30-1-8-11-24-51-35-90-18-63-20-88-14-256 3-102 3-207-1-233l-8-48-39 38c-22 21-50 62-64 91-62 136-89 155-225 166l-65 5 50-14c77-23 93-31 111-59 17-26 17-26-34-75-28-26-64-67-81-91l-31-42v48c0 42 5 55 41 97 46 55 49 75 4 28-34-36-45-38-46-7-1 16-4 12-13-15-15-51-31-65-51-48-23 19-47-8-56-62l-6-43-2 55c-2 52-2 54-15 30-8-14-19-52-26-85s-14-66-16-73c-3-10-17-4-47 20l-42 33 37-44c21-25 38-48 38-52s-15-38-33-76c-19-37-40-84-49-103l-15-34-25 44c-25 44-26 52-32 280-5 212-21 372-44 455-6 21-11-34-16-175-6-181-22-368-32-379-7-8-143 120-184 173-40 53-41 57-30 91 14 43 42 62 123 86l62 18-65-5c-98-9-136-21-164-54-13-17-28-26-31-20-3 5-16 15-28 21-21 11-21 11 2-15l24-26-37-79c-20-43-45-108-55-143l-18-63-12 43c-11 37-10 47 3 61 23 25 20 38-3 17-19-17-19-16-26 49-4 37-5 144-1 239l7 171-33 54c-18 29-43 70-55 90-20 32-23 33-23 13 0-13 11-96 25-185 30-200 32-230 21-392-8-123-10-132-39-173-27-37-33-41-39-25-4 10-25 60-47 111-37 86-40 99-35 155l6 62-22-35-22-34-24 29c-13 17-24 33-24 36 0 16-56 40-103 45-44 4-48 3-27-6 83-36 109-110 115-324 3-88 2-203-2-255-6-90-8-96-39-130-51-54-56-36-49 149 3 85 8 184 12 220 5 61 4 64-11 45l-16-20 6 20c5 19 5 19-9 3-13-17-36-112-54-223-7-47-8-45-14 50-9 136-11 440-2 448 3 4 18-3 31-15l25-23-12 22c-6 12-16 25-22 29-8 4-7 9 2 15 10 6 6 9-12 9-32 0-47-16-55-61-4-22-25-54-58-89-92-97-142-181-192-318l-24-67 4 120c5 146 28 259 67 338 17 32 28 61 26 64-8 7-65-81-102-159-19-40-36-70-36-68-1 3-7 102-13 220-11 202-12 212-23 164-27-114-40-272-43-514-2-143-4-163-11-110-4 36-8 157-8 269s-2 206-5 209c-9 8-28-50-33-99-5-45-5-45-47-47-66-4-105-21-130-58l-23-34-20 23c-29 31-46 170-27 209 18 35 17 48-1 24-13-17-14-15-21 20-3 22-13 47-22 57-15 16-16 16-37-3l-22-21-38 58c-21 32-45 69-52 83-13 25-13 25-13 2 0-12 9-84 21-158 11-75 19-138 16-140-2-3-19 7-36 21-24 21-31 35-32 63l-1 37-13-31c-8-17-21-36-29-43-14-11-16-11-16 5-1 11-7 33-15 49-14 29-14 28-9-31l6-61-56-53c-31-29-56-59-56-68s-6-12-18-7c-9 4-42 11-72 16s-56 13-58 19c-4 12-13 21-69 72-23 20-43 45-45 55-3 13-8 8-15-17l-9-35-12 45c-23 86-32 81-32-20l-1-95-34-16c-34-16-35-16-35 5 0 19-2 18-20-9l-19-29-16 37c-8 20-15 42-15 49 0 23-32 143-41 153-6 5-7-10-3-38 4-26 4-47 2-47-9 0-58 79-58 94 0 8-21 45-46 83-25 37-50 77-54 88-16 38-11-34 14-183 21-135 22-143 5-139-16 4-16 2 3-23 19-27 20-37 14-157-3-70-6-158-5-195 1-139-28-44-41 132-15 214-19 224-89 245l-25 8 27-32c27-32 27-34 27-182 0-93-4-149-10-149-5 0-10 5-10 12 0 6-25 55-55 109-30 53-55 108-55 121 0 14-9 59-19 101l-20 76 26 67c15 37 46 97 71 133l44 64-40-34c-71-61-138-144-181-224l-21-40-1 145c-1 144-1 145-15 90s-46-288-59-428c-4-40-9-71-12-69-6 7-30 385-39 617-8 210-13 217-41 50-11-68-17-202-20-475l-5-379-18 69c-21 82-65 205-91 257-26 51-25 59 22 112 48 55 43 59-14 11-22-19-44-35-47-35-4 0-24 27-44 60-38 61-184 223-218 241-11 6 0-15 26-48 24-33 64-99 89-148l45-89-65-71c-35-38-81-96-101-127-20-32-39-58-42-58s-6 10-7 23c-10 173-16 217-26 208-9-7-12 5-13 42 0 29-7 65-16 81-14 26-15 7-21-251-4-153-10-294-14-313-6-33-7-34-14-10-4 14-8 43-8 65-1 22-10 81-20 130-10 50-22 149-26 220-12 236-53 461-54 300-1-109-13-245-20-241-4 3-7-73-7-167 0-95-4-208-8-252l-9-80-18 70c-37 148-38 142-38-532l-1-653h35c24 0 35-5 35-15 0-13 714-15 6365-15h6365l-1 778-1 777-26-87c-14-48-27-86-29-84-6 5-31 407-39 621-8 206-13 210-40 25-11-72-17-220-21-475-5-329-7-364-19-320-7 28-14 110-15 183s-5 130-10 125c-4-4-14-32-22-61l-13-53-28 64c-37 87-130 229-199 303-31 34-57 67-57 73 0 22 82 176 128 241l47 65-53-45c-159-135-279-341-358-620l-24-85 4 145c9 309-23 833-53 863-4 4-11-81-14-190zm-5523-357c-1-12-3-70-3-129-1-79-4-108-13-105-29 10-31 36-13 162 11 70 22 119 25 110 4-10 5-27 4-38zm4651-35c-8-36-16-43-34-32-11 7-8 15 10 40 27 36 33 34 24-8zm685-82c0-4-7-9-15-13-12-4-15 6-14 62l1 67 13-55c8-30 14-58 15-61zm-1260 75c0-8-4-12-10-9-5 3-10 10-10 16 0 5 5 9 10 9 6 0 10-7 10-16zm-8161-106c1-50-16-101-30-92-5 3-9 40-9 83 0 123 36 132 39 9zm6021 71c0-6-4-7-10-4-5 3-10 11-10 16 0 6 5 7 10 4 6-3 10-11 10-16zm3936-31c56-93 96-196 85-216-15-28-41-179-41-239 0-46-2-54-14-44-11 9-15 9-18-1-2-6-19 13-36 44-18 31-48 68-67 82-42 33-43 42-11 196 27 133 54 230 64 230 4 0 21-24 38-52zm-1820-83c5-49 3-63-10-74-9-7-16-23-17-35-2-60-15-57-42 12-15 38-27 73-27 77 0 5 17 38 37 74l37 66 8-30c4-17 11-57 14-90zm582 100c2-2-1-28-7-58-5-30-13-100-17-156s-10-101-13-101-14 19-23 42c-10 23-20 39-22 37-3-2-1-61 4-129 5-69 10-156 10-194v-69l-26 39c-51 74-60 84-73 71-6-6-11-7-11-1s6 16 13 23c10 10 9 11-5 6-28-11-32 17-18 123 14 108 40 185 101 303 36 69 44 79 63 73 11-4 22-8 24-9zm-4928-44c14-9 36-39 48-66 23-47 23-49 6-86-9-22-21-39-26-39-4 0-8-7-8-15 0-9-15 0-38 23-38 38-39 41-44 126-6 85-5 87 16 81 11-4 32-14 46-24zm4804-6c-11-16-20-22-24-15s-22-11-45-44c-21-31-40-56-41-56-4 0 26 65 45 98 11 21 71 56 79 47 2-2-4-15-14-30zm227-21c30-68 66-251 79-401 13-157 6-192-37-193-15 0-17 191-5 317 6 58 5 70-5 61-10-8-13-4-13 18l-1 29-12-29c-12-26-14-17-27 108-8 75-11 136-7 136s17-21 28-46zm-9702-254c-1-187-7-218-25-135-32 145-44 251-37 330l6 80 29-60c28-58 28-64 27-215zm3720 193-24-38-3 44c-2 24-1 50 3 59 5 13 9 13 27-5l21-21zm1161-5c0-32-4-58-9-58-10 0-20 94-13 123 9 35 22-5 22-65zm2020-17c0-20-5-43-10-51-7-11-10-6-10 21 0 20-2 58-6 85l-5 49 15-34c9-18 16-50 16-70zm3414 8c-6-11-44-18-44-8 0 4 8 25 17 45l18 36 7-33c3-18 5-36 2-40zm-7081-26c10-100 8-167-5-259l-12-82-23 15c-13 8-23 22-23 30s-4 12-9 8c-5-3-12-1-16 5-3 5-16 15-28 21-21 12-21 11-4-8 9-11 17-33 17-50 0-38-29-125-40-118s-5 174 9 240c17 85 49 164 95 232 11 18 24 33 27 33s9-30 12-67zm-2513 47c0-5 6-10 13-10 23 0 44-33 50-78 4-36 3-41-9-31-11 9-13-2-8-72 4-59 3-80-5-69-7 11-14-1-28-50l-18-65-6 110c-10 178-10 275 1 275 6 0 10-4 10-10zm7003-102c4-51 3-131-2-178l-8-85-2 121c0 67-4 149-8 184-4 42-3 61 4 57 6-4 13-48 16-99zm627 39c12-45 12-50-8-70l-22-21v79c0 85 9 89 30 12zm-8067-10c-19-11-33 7-32 43v25l24-30c21-26 22-31 8-38zm4679-115c2-78 1-142-2-142-22 0-40 192-20 205 16 10 12 25-5 19-12-5-15 4-15 47 0 53 0 53 19 34 17-18 20-38 23-163zm-5366 82c-4-13-11-24-18-24-12 0-4 82 9 103 10 15 17-48 9-79zm1019-113-7-64-22 39c-51 92-52 96-9 160l38 57 3-64c2-35 0-93-3-128zm228 164c-7-21-13-19-13 6 0 11 4 18 10 14 5-3 7-12 3-20zm4892-59c-18-37-39-95-46-127s-17-59-21-59-8 23-8 51c0 43 7 61 51 130 28 44 53 78 55 77 1-2-12-34-31-72zm4581-145c-30-128-35-124-35 33-1 129 1 152 17 169 16 19 17 17 26-53 7-59 6-88-8-149zm-3030 176c21-33 21-33 3-107-11-40-21-76-24-78-3-3-5 28-5 69s-3 91-6 112c-8 46 4 47 32 4zm-8196-45c0-7-5-23-11-34-9-16-13-18-20-7-6 11-9 10-15-4-5-14-9-15-20-6-21 17-17 40 13 84l27 39 12-29c7-17 13-36 14-43zm2520-28c-5-49-10-111-11-139l-1-50-24 78-25 78 32 65c18 35 34 63 36 61s-1-44-7-93zm1390 87c0-6-4-13-10-16-5-3-10 1-10 9 0 9 5 16 10 16 6 0 10-4 10-9zm800-68c10-45 10-55-3-68-12-11-17-12-20-2-3 6-11-4-18-23l-14-35-5 40c-6 44 29 175 41 153 3-7 12-37 19-65zm-3436-36 36-69-26-41c-14-23-35-62-47-87l-21-45-12 105c-6 58-15 130-19 162-6 50-5 57 11 60 26 6 36-6 78-85zm786-28c-5-63-11-134-13-159l-2-45-29 55c-16 30-38 68-49 83-17 26-18 33-7 70 17 59 37 87 73 102 18 7 33 12 35 10 1-1-2-54-8-116zm1265 17c14-43 24-80 22-83-2-2-16 15-31 37-14 22-28 40-31 40-2 0 11-32 30-71 29-61 33-78 28-122-3-35-15-66-34-94-17-23-41-62-55-85l-25-43 4 150c4 128 20 254 43 354 7 34 17 17 49-83zm3765 58c-18-21-24-10-9 18 8 14 14 18 17 10 2-7-2-19-8-28zm-1497-41c-4-10-12-4-29 21-32 47-30 56 5 22 17-16 27-35 24-43zm4344 30c-3-10-5-4-5 12 0 17 2 24 5 18 2-7 2-21 0-30zm-8578-16c7-10 8-17 2-21-5-4-14 2-20 11-8 14-13 15-19 5-6-9-12-6-20 13-7 14-12 28-12 31 0 8 56-24 69-39zm5376-156c-7-130-8-134-22-100-16 36-13 88 10 229 16 101 21 49 12-129zm259 184c3-9 0-15-9-15-8 0-15 7-15 15s4 15 9 15 11-7 15-15zm4910-180c34-126 67-329 60-365-7-30-24-42-24-16 0 8-21 56-46 107l-47 93-4 190-3 191 20-55c11-30 31-95 44-145zm-5740 17-8-147-12 64c-8 45-9 86-3 135 23 173 34 147 23-52zm-1849 118c9-17 13-36 9-42-5-7-12 1-20 23-21 58-15 69 11 19zm951-189c5-31 1-40-25-65l-30-29-4 24c-27 145-32 209-18 250l14 43 29-94c15-52 31-110 34-129zm3113 193c19-24 61-140 61-167 0-6-15 11-33 38-18 28-43 64-55 80-14 20-20 38-16 53 8 29 18 28 43-4zm-7295-128c-8-164-28-173-29-13 0 92 15 170 31 155 2-3 2-67-2-142zm2830 92c-9-71-23-96-24-41 0 37 16 93 27 93 2 0 1-24-3-52zm5385-51c9-65 9-83-4-106-8-16-22-59-32-97l-18-69-6 75c-14 163-11 230 12 267 27 43 32 35 48-70zm490-25c13-125 14-225 2-237-5-6-24-38-41-73l-32-64-24 36c-13 19-24 47-24 61 0 71 88 416 101 393 4-7 12-59 18-116zm-1098 21c-8-14-10-4-10 42l1 60 10-42c6-28 6-49-1-60zm-8224 65c-3-8-6-5-6 6-1 11 2 17 5 13 3-3 4-12 1-19zm7163-15c0-18-17-16-24 3-8 22 4 40 15 23 5-8 9-20 9-26zm-5853-10c-3-10-5-4-5 12 0 17 2 24 5 18 2-7 2-21 0-30zm-1733-104c13-68 27-146 30-174l6-49-78 76-4 116c-3 68-1 127 5 140 6 12 12 20 14 18s14-59 27-127zm5675 56c0-28 0-29-14-11-16 21-20 68-8 80 9 9 21-28 22-69zm-5858-47c-23-40-41-70-41-66 0 12 47 134 62 160l13 23 3-22c2-12-15-54-37-95zm7507-68-1-65-7 50c-5 28-8 84-8 125l1 75 7-60c4-33 8-89 8-125zm-2638 156c0-8-4-18-10-21-5-3-10 3-10 14 0 12 5 21 10 21 6 0 10-6 10-14zm2881-13c29-51 32-134 6-200l-22-58-6 65c-10 96-10 220-1 220 4 0 15-12 23-27zm-5151-60v-77l-21 21c-21 20-21 22-5 77 9 31 19 56 21 56 3 0 5-35 5-77zm7591-26c-8-8-11 1-11 29 0 53 14 67 18 19 2-21-1-42-7-48zm779 48c0-19-4-35-10-35-11 0-13 30-4 54 10 25 14 19 14-19zm862-100c80-147 78-133 81-454 1-159 1-289 1-288-1 1-12 38-23 82-29 106-83 239-131 325-47 81-49 114-25 315 8 66 15 125 15 130 1 16 47-46 82-110zm-8575 83c-3-8-6-5-6 6-1 11 2 17 5 13 3-3 4-12 1-19zm3732-38c-1-32-2-33-9-10-4 14-8 36-9 50-1 20 1 22 9 10 5-8 9-31 9-50zm181-63-12-41-14 25c-13 25-8 65 13 119 13 34 26-62 13-103zm4061-102c-6-93-14-190-19-215l-8-45-7 49c-14 96-8 228 15 329 28 121 31 100 19-118zm-4783 96 32-99-36-36c-20-20-37-36-37-36-1 0-2 61-2 135s2 135 5 135 20-44 38-99zm2014 47c-9-9-12-4-11 23 0 32 1 33 11 11 8-17 8-26 0-34zm-3592-88c0-89-4-129-15-150-9-17-18-30-21-30-5 0 3 187 12 258 10 84 24 40 24-78zm-3366-15c-7-11-15-45-19-76-5-37-17-72-36-100-16-24-29-38-29-31 0 22 30 165 46 217 26 83 25 83 39 45 9-28 9-39-1-55zm1096-7c0-37-1-38-35-38-40 0-41 3-24 82l12 52 23-29c16-20 24-43 24-67zm5913 5c14-49 31-116 38-151l12-63-32-33c-17-17-31-35-31-39s-8-19-17-34l-17-26-8 29c-4 16-11 97-14 179-6 132-5 155 11 188 9 20 21 37 25 37s19-39 33-87zm-5363 17c-4-30-9-44-10-30-3 32 1 73 7 83 10 17 11 1 3-53zm1972-37c-9-24-10-18-10 37 0 61 1 63 10 28 7-25 6-47 0-65zm-862 18c-1-22-3-19-15 14-18 50-18 55 0 31 8-11 15-31 15-45zm1009-18c-1-56-2-63-10-38-8 26-2 105 7 105 2 0 4-30 3-67zm165-2 15-63-84 12 35-16c19-9 36-17 38-19 4-3-41-91-58-115-8-11-9-6-4 22 3 22 0 58-11 93l-16 57 32 49c17 27 33 48 35 46 2-1 10-31 18-66zm-5352-76c-1-49-4-155-9-235l-8-145-34 54c-30 45-34 61-32 105 3 70 18 164 43 271 18 78 22 87 30 65 6-14 10-65 10-115zm9188-20c-5-139-10-144-28-30-7 45-6 70 5 105 8 25 17 51 19 59 9 27 9 4 4-134zm1268-96 29-103-28-64c-16-35-39-99-51-141l-23-76-12 55c-15 64-30 529-18 556 11 27 66-94 103-227zm-3918 206c0-14-4-25-9-25-4 0-6 11-3 25 2 14 6 25 8 25s4-11 4-25zm-6435-112c19-41 22-59 15-90-5-21-14-90-20-153-7-63-16-121-20-128-7-15-17 103-26 327-5 128-4 135 11 116 9-11 27-43 40-72zm553-13-1-55-7 50c-5 28-8 64-8 80 0 29 0 29 8 5 4-14 8-50 8-80zm5879 68c-3-8-6-5-6 6-1 11 2 17 5 13 3-3 4-12 1-19zm-5080-20c-3-7-5-2-5 12s2 19 5 13c2-7 2-19 0-25zm543-165c0-17-11-55-25-85l-25-53v136c0 75 3 151 7 170 6 30 8 24 24-51 10-47 18-99 19-117zm495 165c25-22 25-25 19-103l-7-80-22 70c-12 39-27 80-34 93-23 43 3 55 44 20zm8244-50c-4-24-8-72-9-107 0-38-4-61-9-55-10 11-22 189-14 198 4 3 14 6 23 6 15 0 16-6 9-42zm-7832-15c-3-10-5-4-5 12 0 17 2 24 5 18 2-7 2-21 0-30zm-1427-81c0-49-3-138-7-198l-8-109-6 65c-9 86-11 294-3 314 15 38 24 10 24-72zm1923 48c-3-11-7-20-9-20s-4 9-4 20 4 20 9 20 7-9 4-20zm4624-143c-2-23-3-1-3 48 0 50 1 68 3 42s2-67 0-90zm-5225 12-8-33-13 46c-12 41-11 49 6 74l18 28 3-41c2-23-1-56-6-74zm592 65c8-20 8-98-1-214l-6-93-23 94c-22 91-22 96-7 162 16 67 26 80 37 51zm5104-114 1-45-16 58c-8 32-11 66-7 75 6 14 9 11 14-13 4-16 8-50 8-75zm-3071-46 11-75-34-72-35-72 5 72c6 95 28 234 35 227 3-3 11-39 18-80zm1012-76c-18-45-21-27-7 53l13 74 3-49c2-27-2-62-9-78zm2e3 45c1-17-5-23-18-23-31 0-35 18-15 63l19 41 6-29c4-17 7-40 8-52zm-7069-40c0-47-3-64-11-56-5 5-11 19-11 29-2 24 11 94 17 94 3 0 5-30 5-67zm4097-340c-3-10-5-2-5 17s2 27 5 18c2-10 2-26 0-35z" style="fill:#1b5e20"/>
	</g>
</svg>
