<?xml version="1.0" encoding="UTF-8"?>
<svg width="128" height="128" version="1.0" viewBox="0 0 96 96" xmlns="http://www.w3.org/2000/svg">
	<g transform="matrix(.12543 0 0 .12543 11.625 7.7283)">
		<path transform="scale(.75)" d="m447.57.0039062c-.4624-.099609-2.4707 1.8223-4.5957 4.4473-6.4 8.2667-9.5996 14.133-9.5996 18.133s3.9997 12.801 7.0664 15.334c1.4667 1.3333 1.5995 3.5992.13282 15.199-.93334 7.6-1.7339 14.668-1.8672 15.734 0 1.0667-2.2658-.40104-5.7324-3.7344-3.0667-3.0667-6.1327-5.5996-6.666-5.5996s-.93359 1.5996-.93359 3.5996v3.7344l-.35743-.55469c2.5226 4.5732 4.7924 9.2443 6.623 13.754l4.5332 10.934 1.4668-11.334c.8-6.1333 2.6667-20.8 4-32.533l2.5332-21.332.2539 14.236c.52828-2.4212 1.6427-4.6608 3.6133-7.4375 2.9333-4 4-6.9336 4-10.934 0-5.3333-3.067-20.266-4.4004-21.6-.0167-.025-.0395-.040234-.0703-.046875zm-3.1426 40.018c-.25811 1.183-.38672 2.407-.38672 3.7637 0 2.1748.18924 3.4971.52735 4.0195zm.14063 7.7832.27343 15.312c.66667 36.933.66641 37.333 3.0664 32.133 1.0345-2.4138 1.9257-4.7356 2.1641-5.6973l-1.3652-3.6348c-.93334-2.4-2.1327-5.5997-2.666-7.0664-.8-2.1333-.26692-1.8674 3.0664 1.1992 3.2582 3.0169 3.7739 3.9737 2.9551 6.2012 1.168-1.4863 2.7705-3.3913 4.5117-5.4004 4.1158-4.5974 7.4855-8.6264 10.248-12.268-.0471-.24217-.0773-.63023-.11523-1.1992 0-3.0667-9.8658-22.266-13.732-27.066l-3.1992-4-1.7344 5.332c-1.5845 5.1055-2.8158 7.1694-3.4726 6.1543zm22.254 20.779c.11834.60907.36014.19243 1.2188-1.334.12512-.21449.21958-.44896.29102-.70117-.48099.66454-.98477 1.3432-1.5098 2.0352zm1.5098-2.0352c4.6953-6.4871 7.3429-11.728 8.6426-16.764.93333-3.8667.93307-3.8685 1.0664-.53516.11727 3.049-3.5837 11.665-7.9238 18.777 1.5757-1.739 3.5171-3.4854 5.3906-4.6426 5.2-3.2 9.5992-8.7999 11.199-14.533 1.0667-3.8667-.79896-30.533-2.2656-32-.93333-.93333-13.334 12.799-17.867 19.865-4.6667 7.3333-4.7999 12.001-.53321 21.201 2.0783 4.5029 2.7525 7.0017 2.291 8.6309zm1.7852 1.4785c-1.7324 1.9119-3.0116 3.8098-3.166 4.8965l1.3574-2.0723c.61046-.89962 1.214-1.8499 1.8086-2.8242zm-3.166 4.8965-1.1758 1.793 2.3906-1.0059c-.53657.08002-.92476.07329-1.0586-.06055-.15883-.15883-.20122-.41001-.15625-.72656zm1.2148.78711c1.0671-.15914 2.7666-.6828 4.541-1.3926 1.4576-.61666 2.5815-1.0539 3.4883-1.3809-.17208-.28143-1.9307.20528-5.3535 1.6465zm8.0293-2.7734c.21.34345-1.9496 1.8346-6.4199 4.1797-5.4063 2.8757-9.5224 6.7994-12.83 12.818.26305-.26627.49945-.41797.69531-.41797.66667 0 2.4005-2.1327 3.8672-4.666 1.6-2.5333 3.201-4.668 3.7344-4.668.53334 0 .79935 7.6008.66602 16.801-.26667 11.6-1.066 19.467-2.666 25.334-1.4667 4.6667-2.8012 8.5332-3.2012 8.5332s-2.9338-4.401-5.8672-9.7344c-2.7987-5.3641-4.0489-7.8261-4.3203-10.084-1.0235 4.7204-1.9704 10.036-2.8789 16.084-1.2506 8.754-1.5222 15.65-.83399 31.271.67467.22018 2.0163 1.1549 4.168 2.8613l5.5996 4.4004 2-3.0664c1.0667-1.7333 2.9323-5.3333 4.2656-8l2.2676-4.9336 5.334 4.668c3.0667 2.5333 5.8665 4.5332 6.5332 4.5332 2.1333 0 7.7324-13.866 7.7324-19.066 0-2.8-1.4673-8.0016-3.334-11.602-1.8667-3.7333-2.6652-6.666-1.8652-6.666s1.7328 1.1994 2.1328 2.666c.53333 2.1333 1.0665 2.4012 2.5332 1.2012 1.0667-.8 1.8667-1.3331 2-1.0664 1.2695 9.9864 1.7252 13.852.32617 18.58 4.2801-11.516 3.3398-17.15-4.459-28.848l-6-8.9336 4.7988 4.668c2.6667 2.5333 6.1349 6.6659 7.6016 9.1992 2 3.2 3.0658 3.866 3.7324 2.666 1.6-2.9333 4-21.999 4-31.199 0-4.9333.53398-8.666 1.334-8.666s1.332 8.7996 1.332 23.6c-1e-5 18.4-.66602 26.534-2.666 36.4-1.4667 6.9333-2.666 12.798-2.666 12.932 0 .26666 1.9999.40039 4.5332.40039 5.6 0 11.867 4.9328 15.467 12.133 3.2 6 3.4665 10.001.53321 5.2012-2.9333-4.6667-10.4-9.334-14.934-9.334-4.4 0-10.533 5.8667-18.533 18-2.9333 4.4-9.7336 13.333-14.934 20-5.3333 6.5333-11.466 15.734-13.6 20.268l-4.1328 8.2656-.40039 25.734c-.0999 7.1276-.29235 13.215-.65429 18.764.91608-11.646.93558-11.678 3.4531-8.6309 1.8667 2.2667 2.8009 2.6668 4.2676 1.4668 1.2-.93334.93359 1.067-1.0664 6.4004l-2.668 7.8652 3.4668 6.8008 3.6016 6.8008h-4.2676c-2.4 0-5.5992.39883-7.1992.79883-1.4501.43503-2.1481.5481-2.293-.22656-1.4822 7.546-3.6032 15.476-6.6211 25.426l7.9805-.66602c10-.8 13.732-3.3335 17.865-11.467 1.8667-3.6 5.3333-9.9984 8-14.398l4.5352-7.7344 1.8652 5.4668c.93333 2.9333 2.5335 5.4668 3.4668 5.4668 3.3333 0 14.134-8.0009 16.4-12.268 1.7333-3.3333 2.4008-8.399 2.8008-20.266l.5332-16-6.5332 5.4668c-3.4667 3.0667-9.3341 8.5323-12.801 12.266-5.2 5.6-6.5326 6.4004-7.1992 4.4004-.4-1.2-2.4004-6.533-4.4004-11.6-2.1333-5.2-4.1346-12.533-4.668-16.533-.4-3.8667-2.2667-11.6-4-17.066-1.7333-5.4667-2.9327-10.666-2.666-11.6 3.3333-9.3333 3.6008-9.5999 4.8008-6.5332 1.0667 2.9333 1.2 2.9316 6 .93164 7.8667-3.3333 13.466-8.2652 15.732-13.865 1.8667-4.5333 2.5328-5.2003 6.1328-4.9336 2.2667.13333 4 1.0667 4 2 0 2.8 6.1345 14.132 9.2012 16.799 2.8 2.5333 2.9322 2.5341 6.7988-1.1992 5.2-5.0667 8.2676-11.867 8.2676-18.533v-5.4668l3.1992 7.1992c1.7333 3.8667 3.2012 7.7337 3.2012 8.4004 0 .8.93333.9332 2 .5332 1.0667-.4 2.7991-1.0668 3.7324-1.4668 1.1123-.48361 2.3096.5714 3.3301 2.3828-.66559-1.5041-1.4133-3.0805-2.2637-4.7812-3.4667-6.8-6.6668-15.468-7.4668-20.268-2.6667-15.467 2.5335-36.4 15.467-61.6 3.2572-6.3708 5.8759-11.133 7.5762-13.971-1.3618 2.1324-2.9791 4.908-4.7754 8.2363-1.7333 3.3333-3.5995 6.4003-4.1328 6.9336-.53333.66666-2.8012-2.2671-5.2012-6.4004l-4.2656-7.4668 4-4.5332c2.2667-2.6667 4.3988-6.7986 4.7988-9.8652.53333-2.9333 1.0673-5.334 1.334-5.334s3.1999 1.8661 6.5332 4.1328 6.3999 4.001 6.5332 3.7344c2.1333-2.5333 5.0663-10.533 5.5996-15.6.53333-4.9333.002-7.4672-2.3984-11.867-4.4-7.8667-15.6-22.001-16.934-21.201-.53333.4-1.8674 5.2013-2.8008 10.668-1.7333 9.8667-1.7328 10-10.133 17.467-4.8 4.1333-9.5994 9.3324-10.666 11.732-2.5333 4.6667-1.8685 13.334 1.4648 21.334 2 4.9333 2 4.9336 6 2.9336 2.1333-1.0667 4.1342-2 4.2676-2 .26666 0-1.5995 6.2652-4.1328 13.865-4 12.267-4.9341 14.001-8.8008 15.867l-4.2656 2 .5332-6.1328c.66667-6.6667-1.4669-26.533-2.9336-28-.53334-.53333-2.0006.4-3.334 2-3.0667 3.8667-4 3.8667-4 0 0-1.7333 1.6001-4.5337 3.4668-6.4004 4.5333-4 8.3999-12.666 8.5332-18.133 0-4.5333-6.9324-25.066-9.7324-29.066-1.4667-1.8667-2.5333-.53307-8 10.934-6.4 13.333-7.468 18.933-4.668 25.066 1.3333 2.9333 1.2013 3.8651-1.332 6.3984l-2.9336 2.9336-8.2676-8.2656-8.1328-8.1328 5.1992-2.8008c4.9493-2.5273 5.428-3.2753 2.0215-2.0469zm71.555 27.01c.75857-1.1878 1.44-2.1831 2.0156-2.9277-.22965.09254-.95123 1.1512-2.0156 2.9277zm2.0156-2.9277c.42463-.17111-.71893 2.7227-3.9902 9.4316-1.2214 2.5032-2.3749 4.9711-3.4746 7.4082.97926-2.1303 1.1396-1.3017 1.4746 4.0586l.39844 6.4004 4.9336-.93359c8-1.3333 16.266-5.8671 19.066-10.4 1.3333-2.2667 4.1348-8.2673 6.1348-13.334l3.7324-9.1992 1.7344 5.8672 1.8652 5.8652-4.1172 4.1524c3.0072-2.7594 6.0725-5.488 9.1836-8.1523 20.133-17.333 20.534-17.199 1.8672.66797-1.7073 1.6446-3.3732 3.2738-5.0098 4.8945l3.1426-2.0957c1.8667-1.2 5.6018-4.2655 8.5352-6.7988 3.6-3.2 4.7991-3.7339 3.7324-1.8672-1.3333 2.4-1.0672 3.0665 2.1328 4.5332 2 .93333 6.9336 1.8676 10.934 2.2676 8.6667.66667 12.133-1.0668 26-13.467 11.067-9.7333 10.401-10.267-10.666-10.533l-15.201-.26758-9.332 9.0664-.40039-14.799-.40039-14.801-8.9336 7.5996c-10.667 9.0667-14.533 13.867-15.6 19.334-.8 3.4667-1.8668 4.399-7.4668 6.2656-3.7333 1.3333-9.1995 3.5997-12.133 5.0664-3.0667 1.6-5.8662 2.5348-6.1328 2.1348-.30644-.25536-1.0107.34258-2.0098 1.6348zm33.799 6.7266-.0566.0391.0156.002c.0136-.0134.0275-.0276.041-.041zm-.041.041c-5.6249 5.5715-10.815 10.99-15.566 16.23 2.6492-2.7432 3.4787-2.6657 5.6836-1.3008 8.5333 5.4667 10.667 6.0009 16.934 4.2676 3.3333-.93334 9.7333-3.1992 14-5.1992l8-3.4668-9.332-4.4004c-5.0667-2.4-11.602-4.8012-14.535-5.2012zm-15.566 16.23c-.71499.74036-1.5336 1.6438-2.582 2.834-.24834.28221-.62655.73417-.91602 1.0703 1.1314-1.287 2.3097-2.5937 3.498-3.9043zm-3.498 3.9043c-5.8271 6.6287-10.875 12.929-15.115 18.836l2.6973-3.5078c4.0275-5.248 9.2883-11.694 12.418-15.328zm-15.115 18.836-5.3027 6.8926.008.93945c1.5856-2.521 3.3596-5.1364 5.2949-7.832zm-5.2949 7.832c-4.1331 6.5716-7.0646 12.529-8.6738 17.729-3.2986 10.687-2.6717 15.375 3.4141 24.387l2.8516-5.4551 3.0664-5.8652.40039 5.7324c.26667 3.0667 1.0672 6.1332 1.8672 6.5332 1.0667.66667.79921 2.1332-.80078 4.5332l-2.3984 3.6016-.27539-.43946c.00042.0102.008.0295.008.0391 0 3.2 2.001 1.7324 5.7344-4.2676 1.0452-1.6425 1.8807-2.8677 2.6055-3.8887-.063-.47904-.0573-.77735.0606-.77735.0754.0251.27686-.005.5332-.0605 1.6344-2.1999 2.095-2.2897 1.2031-.35742 1.3279-.43218 3.1988-1.156 5.1973-2.1152 6.9333-3.0667 10.799-7.7328 13.199-16.133.93334-3.0667 1.8662-5.6016 2.1328-5.6016.13333 0 2.1337 1.6016 4.4004 3.6016 2.9333 2.6667 4.1328 4.7986 4.1328 7.8652 0 3.4667-1.0654 4.8012-7.332 9.2012-11.6 7.8667-15.334 12.932-15.334 20.398 0 8.5333 2.2674 16.268 4.8008 16.268 1.0667 0 3.1988-.6668 4.7988-1.4668 1.4667-.8 2.9345-1.0674 3.2012-.80078.11032.11031.0556.52556-.10546 1.1328 3.9007-10.212 6.7036-21.375 8.6387-33.932 1.4667-9.2 1.8667-10.667 2-6 .13333 5.4667-1.6012 18.934-3.2012 26.4l-.79883 3.0664 5.0664-3.334c.27503-.18335.55389-.34454.83203-.52148-1.0711.26668-.99672-.49662-.43164-2.9453.93334-3.8667 1.8665-5.9987 2.5332-5.332.13333.26666.93242 1.5992 1.7324 3.1992.68601 1.2348.93919 2.0089.63281 2.6348.74128-.30928 1.3654-.50195 1.7676-.50195.48185.0602.45207.34437.0527.7539 1.8261-1.1745 3.0179-1.7798 2.748-1.4199-.93333 1.4667 4.5328 13.066 8.1328 17.6 2.2667 2.8 2.8001 2.934 5.4668 1.334 1.6-1.0667 4.5332-4.2664 6.5332-7.0664 2.9333-4.4 3.5996-6.6673 3.5996-13.334-.13333-4.5333-1.4664-12.4-3.0664-17.6-2.6667-8.8-2.8003-9.8663-.9336-13.6 2.6667-5.0667 7.5997-24.935 7.0664-27.602-.26667-1.6-2.6671-.79895-10.4 3.7344-5.4667 3.0667-11.6 6.7995-13.6 8.1328l-3.7324 2.4004v-4.5332c0-4-10.001-26.133-13.201-29.467-1.3333-1.3333-8.6662 16.8-10.133 24.4-.8 4.1333-1.8659 5.3331-9.1992 9.0664-9.4667 4.9333-13.068 8.399-15.201 14.266-1.2 3.3333-1.4668 1.4677-1.4668-10.266zm47.512 57.281c-.62209.40011-1.3074.87073-2.0644 1.4043.95288-.53236 1.6972-1.0277 2.0644-1.4043zm-2.0644 1.4043c-.30465.1702-.56768.33267-.92187.50977-3.7189 2.0144-6.3107 4.402-8.7988 8.7324 1.4358-2.2876 5.2966-6.0054 8.7988-8.5996.33077-.24172.60763-.42109.92187-.64258zm-9.7207 9.2422c-.0401.0639-.0986.13767-.13477.19922-.0571.0979-.14684.29535-.21094.41406.1148-.20894.23056-.41287.34571-.61328zm-.34571.61328c-1.6736 3.0461-3.3218 7.0028-5.2558 12.387-10.533 28.8-37.465 58.001-79.332 85.867-6.5333 4.4-23.068 14.399-36.668 22.266-30.133 17.467-34.933 22.268-38.533 39.201-.84733 4.0893-1.2939 9.0367-1.4238 14.088.76266-1.57 2.1936-2.0255 4.625-2.0879 2 0 2.0004.79896.40039 8.2656-2.1333 10.133-2.4018 17.734-.53515 21.201.22531.41307.39226.78833.50586 1.123 1.1818.28092 3.6463-.11592 5.8945-.99024 1.6028-.6233 7.5549-2.7075 14.426-5.1133-.71933-.26247-1.107-1.1709-1.4922-3.0195-.4-2-4.0005-7.8684-7.8672-13.068l-7.1992-9.5996 5.1992-3.332c5.4667-3.7333 8.2672-8.0012 9.8672-15.201.8-4.1333 1.2003-4.3996 4.9336-3.5996 7.4667 1.7333 12.666-.40026 21.732-8.9336 4.8-4.4 8.2672-8.5326 7.8672-9.1992-1.3333-2.1333-24.932-1.4664-28.266.93359-4 2.8-3.7349-.13333.39844-4 4-3.7333 11.468-6.9348 18.668-8.1348 4-.66666 6.7987-2.3992 11.332-7.1992 3.3333-3.4667 9.4682-8.6673 13.602-11.334l7.4668-5.0664 7.4668 1.7344c10.667 2.2667 15.2.53268 29.066-11.334 6.2667-5.4667 14.4-11.467 18-13.334 3.4667-1.8667 9.4664-5.7327 13.066-8.666 7.8667-6.1333 8.4001-6.3999 5.4668-2.5332-8.8 12.133-10.268 15.201-9.7344 19.867.93333 7.0667-.00026 7.7318-8.9336 6.3984-4.4-.53334-9.5996-.66563-11.6-.26563-4 .8-11.465 7.9988-15.332 14.799-2.1333 3.8667-2.2685 4.5349-.53515 5.6016 1.3209.88062 1.0579 1.8831-1.6113 4.7461 2.9407-2.9593 5.6128-5.3908 6.9453-6.0801 1.5704-.78523-.48289 2.0486-4.4668 6.4394 2.0054-2.1074 3.7173-3.5894 4.0664-3.2402.4.4-.79935 5.335-2.666 11.068-6.1333 18.933-6.0006 20.265 2.666 29.865l4.6113 5.1094c7.074-6.6201 10.195-14.059 11.523-24.842.66666-5.6 1.9992-13.335 3.1992-17.201 1.8667-6.8 1.7332-8.799-1.4668-18.266-.4-1.4667.53333-.40013 2 2.5332l2.9336 5.1992 5.334-9.8652c6.1333-11.333 13.6-21.601 22.533-31.201 1.2722-1.341 2.437-2.7447 3.5879-4.3477-.55161-.23907-.97362-1.2412-1.3223-2.9844-1.0667-4.9333-2.1327-5.3349-4.666-1.6016-1.7333 2.5333-2.3996 2.6678-9.5996 1.2012-6.9333-1.4667-7.6013-1.8671-6.668-4.4004.4-1.6.80078-6.1328.80078-10.133-.13333-6.2667.00026-6.6669.9336-2.9336 1.8667 8 5.4664 16.266 7.0664 16.266 2.2667-.13333 11.467-7.3322 14-10.799 1.0667-1.6 2.5331-5.3337 3.0664-8.4004 1.2-6.1333-.00013-28.801-1.4668-28.801-.53333 0-4.3999 3.2012-8.5332 7.2012s-7.4668 7.0669-7.4668 6.9336c0-1.6803 5.3584-15.427 7.3887-19.188zm6.4668 57.639c1.136.49237 2.829-2.2996 5.6113-8.8516.55461-1.2941.98346-2.4187 1.3125-3.4024-2.6556 5.4973-4.7661 9.2487-6.9238 12.254zm6.9238-12.254c1.4204-2.9404 2.9928-6.3615 4.8203-10.465 4.9333-11.2 9.2001-20.134 9.4668-19.867.26667.26667-2.2663 7.6014-5.5996 16.135-1.8215 4.663-3.3913 8.8332-4.4883 11.822.11831-.25229.21469-.48257.35547-.75585 1.6-2.9333 4-3.3341 4-.80079 0 .5505-.32695 1.314-.83789 2.1074 2.5246-2.0362 5.734-4.6761 9.3711-7.707 7.9086-6.6174 19.859-15.562 30.969-23.291-1.4768.71729-2.0238.30839-1.3691-1.375.66667-1.7333-.26563-1.7348-6.2656-.13477-3.8667 1.0667-7.3349 1.6006-7.6016 1.334-.26666-.26667.1336-2.4008.9336-4.8008s1.3331-4.5322 1.0664-4.7988c-.8-.8-19.466 5.9992-25.066 9.1992-3.0667 1.6-6.4001 4.8003-7.4668 6.9336-2.5333 4.9333-4 20.667-2 22 .67451.38544.57042 1.9013-.28711 4.4648zm48.057-32.822c.62866-.30535 1.4098-.79316 2.3652-1.5098.31177-.22673.56326-.44338.77735-.65039-1.0463.71603-2.0762 1.4183-3.1426 2.1602zm3.1426-2.1602c6.0629-4.1492 11.755-7.8575 16.154-10.416 6.4-3.7333 5.3333-2.5326-6 6.8008-10.267 8.4-37.599 34.8-36.799 35.467.20223.20223 5.6361-2.2155 13.127-5.832-5.0852 2.0458-4.1187.55554-.72656-4.9688 4.4-6.9333 23.732-25.066 26.932-25.066 3.0667 0 10-6.6671 12.934-12.4 3.6-7.0667 9.3346-22.399 8.668-23.199-.8-.66667-16.133 5.1987-24.533 9.332-5.3333 2.8-7.2003 4.5336-8.9336 8.9336-2.5333 6.4-2.9332 20-.5332 20 .62995 0 .50402.58278-.28906 1.3496zm-13.518 26.02c1.9107-.76871 4.649-2.0196 8.4727-3.7676 3.823-1.6532 6.8998-3.3776 7.9785-4.3223-2.7006 1.3079-5.62 2.7426-8.7793 4.3223-2.7062 1.3531-5.2852 2.6153-7.6719 3.7676zm16.451-8.0898c6.8734-3.3287 11.83-5.5665 12.021-5.2793.26666.26667-4.0001 2.9348-9.4668 6.1348-10.8 6.1333-13.733 8.7987-8.1328 7.332 1.3201-.29808 3.7992-.22819 6.7188.0625-2.9739-.45635-5.7383-.78409-7.7852-.86133-.53333 0 1.4656-1.4673 4.2656-3.334l5.2012-3.0664 5.332 3.4668c8.1333 5.4667 16.001 4.7996 31.334-2.4004 6.6667-3.0667 12.266-6.1327 12.266-6.666 0-1.0667-21.732-10.001-27.465-11.201-2.2667-.53333-5.7344-.26628-7.7344.40039-4.1333 1.7333-17.066 13.334-16.133 14.801.06.12003-.1086.33699-.42188.61133zm1.1406 8.25c7.2932 1.1192 15.966 3.0901 19.281 4.6055 2.2289.99917 3.726 1.7361 4.6543 2.2637 1.0026-.0632-.34941-.96042-4.3887-2.5312-4.9005-1.9965-13.325-3.7184-19.547-4.3379zm23.936 6.8691c-.7845.0494-3.0096-.41126-6.5215-1.4648-13.467-4.1333-32.533-1.8655-45.467 5.2012-6.6408 3.6174-11.722 7.0337-16.4 11.436 2.5504-2.1 6.2821-4.8529 8.5332-6.1035 4.2667-2.5333 4.2673-2.5333 3.334 0-1.7333 4.5333-1.4674 5.068 3.1992 6.668 6.5333 2.4 15.335 2.2652 20.135-.13477 2.1333-1.2 7.9997-5.6 13.066-10l9.1992-8 6.1348 1.8672c5.5044 1.7083 7.0796 1.8341 4.7871.53125zm-68.389 15.172c-.16866.13887-.37606.29735-.5332.42968l-4.7988 4.1348.96875-.0371c1.4351-1.6334 2.8821-3.1338 4.3633-4.5273zm-4.3633 4.5273c-5.2265 5.9486-10.389 13.72-17.236 25.236-3.1301 5.1619-6.5916 12.221-9.5898 19.143 3.2016-6.7158 6.6678-13.124 8.2559-14.477 1.2-.93333 3.0681-3.4663 4.1348-5.5996 1.8667-3.6 2.1319-3.5988 9.8652-2.7988 5.2.53333 9.3333.13307 12-.9336 4-1.6 20-18 20-20.4 0-.66666-6.3995-.93268-14.133-.66601zm-26.826 44.379c-3.8875 8.1546-7.3686 16.759-6.5352 17.463 1.3107-4.5664 3.7106-10.942 6.5352-17.463zm-6.5352 17.463c-.67615 2.3556-1.0742 4.247-1.0742 5.3945 0 7.0592 2.8355 8.0784 15.312 3.5527-.68926-.67431-.33334-2.7399.6875-6.6191 2.8-10.667 2.6652-10.801-6.1348-6.2676-4.4 2.1333-8.266 4-8.666 4-.0526 0-.0889-.03-.125-.0605zm14.238 8.9473c.66112.64677 2.2832.0139 5.2207-1.5527.78468-.42037 1.3864-.77771 1.8945-1.1465-.55874.20258-1.109.40675-1.6289.61329-2.0226.79964-3.8236 1.4828-5.4863 2.0859zm7.1152-2.6992c6.8237-2.4739 16.518-4.6256 27.691-6.1875h-2.9199l2.2676-5.0664c1.3333-2.6667 2.3999-5.0654 2.5332-5.332 0-.13334 2.2669.66575 4.9336 1.7324 10.4 4.2667 19.733 1.7338 36-10.133l5.5996-4.1348 1.1992 5.4668c1.3333 6.4 3.5995 6.9336 12.133 2.9336 7.3333-3.3333 12.134-9.3326 15.201-19.199 2.9333-9.6 4.6663-19.6 3.5996-19.6-1.7333 0-17.6 8.399-23.066 12.266-4.2667 2.8-5.9992 5.2001-7.1992 9.4668-.93333 3.0667-1.7338 5.7333-1.8672 6-.13334.13334-5.3335-.93372-11.467-2.4004-16.4-3.8667-21.334-3.5984-27.334 1.6016l-4.9336 4.3984.9336-5.0664.93359-5.1992-12 6.2656c-6.6667 3.4667-13.866 8.2674-16.133 10.801-3.4667 4-4 5.5999-4 12.533 0 5.8973-.19615 7.4677-2.1055 8.8535zm27.691-6.1875h.81446c2-.13333 9.4665-.66588 16.533-1.1992 7.4937-.71369 11.042-1.252 13.652-2.4063-5.6366.83777-11.006 1.5267-15.119 1.873-5.5318.43156-10.841 1.0279-15.881 1.7324zm31-3.6055c11.666-1.7339 24.577-4.1683 30.648-5.9668-2.5851.36777-5.6817.43264-10.568.37305-11.6-.13334-12.667.00065-16.533 3.334-1.1913.97069-2.256 1.6889-3.5469 2.2598zm30.648-5.9668c3.1987-.45508 5.5972-1.3831 9.4316-3.2266 2.5802-1.2901 4.3048-2.1654 5.5742-3.0898-4.3422 2.5801-9.2619 4.6422-14.908 6.2891-.0295.009-.0678.0185-.0977.0274zm15.006-6.3164c5.5014-3.2689 10.076-7.368 14.025-12.51 1.8667-2.4 1.8667-2.268 0 1.332-3.7333 7.8667-14.399 16.134-27.332 21.334l-7.4668 3.0664 8 .93359c2.3046.26592 4.0118.48806 5.4551.69141-.0159-.59507.52094-1.279 1.4785-1.7578 2.9333-1.7333 2.9333-3.6014 0-4.1348-3.4667-.66667 10.132-8.7983 14.932-8.9316l4-.13477-4 2c-2.1333 1.2-6.5329 4.9337-9.5996 8.4004-1.9231 2.2728-3.8876 4.0104-5.1738 4.8008 3.3709.55494 2.7348.84205-2.0254.93359-7.0667.13333-34.667 3.7324-44.4 5.7324l-7.334 1.4668 1.2812.53906c.13079-.65956 1.2303-1.2051 3.252-1.2051 2.2667 0 3.0685.5319 2.5352 1.8652-.21681.57817-.71396.99228-1.373 1.1934l.97265.4082c2.4165.99994 6.6129 2.9627 11.07 5.1133l6.2617-.58008c6-.53333 8.8005-1.7336 15.867-6.9336 4.8-3.4667 9.6008-6.2671 10.801-6.4004 1.2 0 5.0665 1.5996 8.5332 3.5996l6.4004 3.5996-7.8672 2.1348c-11.067 3.2-16.133 6.1332-18.533 10.533l-2 3.8652-1.8496-.87695c.89679.52482 1.3607.84874.64844.61133-1.4667-.53334-9.1987-3.2-17.332-6-8-2.8-18.401-5.9997-22.801-7.0664-8.1333-1.7333-8.3991-1.7335-21.732 2.5332-13.687 4.4504-25.587 9.8095-42.205 19.588 4.215-2.3749 7.9311-4.3887 8.3379-4.3887.53334-.13333.9336 1.4668.9336 3.4668 0 2.1333 1.1994 6.3996 2.666 9.5996 2.6667 5.8667 2.5335 8.1348-.5332 8.1348-.93333 0-4.1326 1.7319-7.1992 3.8652l-5.334 4-.9336-10.666c-.53333-5.7333-1.3324-10.533-1.7324-10.533-.53333 0-3.734 2.8009-7.334 6.2676-5.6 5.4667-6.3996 5.8664-5.5996 3.0664.40515-1.418 1.1934-2.8307 1.9004-3.7226-6.1965 3.9218-13.011 8.3548-20.701 13.455-20 13.333-36.932 24.667-37.732 25.334-.10952.13143-.19522.26626-.26757.4043.4436-.4078 1.0123-.84946 1.7344-1.3379 3.8667-2.6667 5.0659-2.6672 7.1992.13281 1.6726 2.2302 2.1409 3.361.89453 3.9141 3.6567-.18399 8.4426-.54667 14.572-1.1133 1.8435-.1693 3.8755-.32664 6-.47852-2.8514-.003-4.9336-.0915-4.9336-.32226.13334-.53334.93334-2.399 2-4.2656 1.0667-1.8667 2-6.4 2-10l.26758-6.668 2 5.6016c1.0667 3.2 2.6663 5.7324 3.5996 5.7324.8 0 3.7337-1.0671 6.4004-2.4004l4.666-2.4004 2.1328 6.668c1.2 3.6 2.0005 6.8003 1.8672 6.9336-.0492.0369-.19429.0726-.33594.10937 3.9083-.13673 7.8529-.2473 11.707-.3125l3.2949-3.5312 3.7344-4 .40039 3.4668c.4 2.8 1.1995 3.4668 4.1328 3.4668 2.1333 0 6.2673-.93334 9.334-2 5.0667-1.7333 5.4648-1.7335 5.4648.5332 0 .78953-.40025 1.4553-1.1445 2.002 19.308-.22645 27.545-1.8077 41.145-6.9355 2.2872-.87971 4.1693-1.6877 5.7422-2.4922-5.9273 2.2722-15.464 5.0001-16.141 4.2266-.26667-.13333 1.4658-4.1346 3.7324-8.668l4.2676-8.3984-5.6016.93164c-3.0667.53333-9.7322 2.2681-14.799 4.1348-5.0667 1.7333-9.2012 2.9332-9.2012 2.5332s1.0685-2.7996 2.5352-5.5996c1.3333-2.6667 3.466-8.1333 4.666-12 2-5.8667 2.7996-6.9336 5.5996-6.9336 9.0667 0 16.4-6.5344 24.533-21.734l4.5332-8.5332 10.668 3.334c6 1.7333 14.665 4.6665 19.465 6.5332 4.8 1.7333 9.0682 3.5995 9.6016 4.1328.4.53334.39857 3.7345-.13476 7.2012-.93334 5.8667-.79896 6.3994 1.7344 6.666 4.2667.26667 5.0655.26732 10.799-.66601l4.5527-.70118c4.9644-5.2045 10.649-11.663 16.775-19.08-.12255.10624-.21894.17968-.25976.17968-1.2 0 5.0665-10.533 6.5332-11.066 2.2194-.77197 2.5927-.32738.97852 2.0332 10.026-12.309 12.423-14.988 10.887-12.033-3.2 6-26.133 39.734-28.533 41.867-5.6 5.0667-2.5319 4.4006 14.135-2.666 9.3333-3.8667 17.065-6.9346 17.332-6.668s-9.4663 6.2668-21.6 13.467c-12.133 7.0667-22 13.068-22 13.201 0 0 2.8228.11149 6.4219.22852l-6.1543-.36329 8.5332-4.7988c6.4-3.7333 9.4655-4.6676 12.799-4.2676 7.8667 1.2 15.466-2.9333 25.6-14 5.0667-5.6 9.334-10.799 9.334-11.332 0-.66667-6.934-.93464-15.334-.66797-8.4.13333-15.332.13437-15.332-.26563s2.2659-4.1337 5.1992-8.4004c4-6 7.3338-9.0671 15.867-14.4 6-3.6 10.934-6.9326 10.934-7.1992 0-.66666-17.467-5.8664-24-7.0664l-6-1.2012 5.4668-1.4668c6.1333-1.7333 11.6-7.0667 20.4-20l5.5996-8.2656h-5.7344c-3.2.13334-10.532.93334-16.266 2-13.067 2.2667-16.135 4.933-20.135 17.6-1.8658 5.9528-2.5564 7.9975-5.0918 9.8438zm-5.6856 74.252 7.4453.4375c6.875.49999 13.047 1.1162 14.121 1.6308 2.9122-.62002-3.0989-1.6269-15.588-1.8984-2.3231-.0455-4.111-.1092-5.9785-.16992zm21.566 2.0684c-1.3783.29346-4.7346.50196-10.389.50196-19.333.13333-25.467 2.267-54 18.4l-23.865 13.467 4.666 1.5996c1.5987.56728 3.0742 1.1655 4.5332 1.8106l8.2656-.87695 8.9336-1.0664-4.9336-4.9336c-3.3333-3.3333-4.3987-5.3333-3.332-6 .8-.53334 1.6005-.66654 1.8672-.5332.13334.26666 1.732 2.7996 3.332 5.5996 5.7333 9.6 10.267 11.734 27.467 13.334 8.4.8 15.733 1.0665 16.133.5332 1.2-1.2-15.332-21.067-19.732-23.467-4.2667-2.4-4.8006-4.1328-1.334-4.1328 2.5333 0 24.001-7.3332 25.334-8.5332.4-.53333-.40052-1.7341-1.8672-2.8008-2.2667-1.7333-1.4654-1.8667 8.668-2 6.1333 0 10.932-.40078 10.398-.80078-.025-.0333-.0729-.0673-.14453-.10157zm-79.055 35.779-.5332.0566 8.666 5.1992c1.7817 1.0393 3.5457 1.9701 5.2031 2.7969-5.4719-3.9804-9.3361-6.2842-13.336-8.0527zm13.336 8.0527c2.853 2.0753 6.1134 4.5666 10.131 7.7363 7.8667 6.2667 14.266 11.601 14.266 11.867 0 .8-4.532-1.8669-19.332-10.934-12.933-8-22.934-12.533-32.934-15.066-3.6-1.0667-6.934-.80026-13.334 1.0664-9.8667 2.6667-35.734 6.668-43.867 6.668-3.2 0-5.1999.53307-4.5332 1.0664.0946.0788.34086.19573.68359.33789l10.918-1.2715c15.867-1.8667 34.932-5.1997 39.332-7.0664 4.8-1.8667 7.6001-1.4668 19.467 2.5332 11.733 4.1333 16.134 6.7988 11.201 6.7988-1.6 0-3.7346.80105-4.668 1.7344-2.2667 2.2667-13.332 7.5996-15.732 7.5996-1.0667 0 .66718-2.6672 3.8672-5.8672 5.4667-5.6 5.5999-5.8665 2.5332-6.5332-5.8667-1.4667-24.8-2.6658-28.533-1.7324-2.1333.53333-6.0013 3.3323-8.668 6.2656l-4.6133 4.9883c18.917 5.1029 27.092 7.7361 19.547 6.4785-2.1333-.4-22.534-3.3332-45.334-6.5332-34.933-5.0667-43.465-5.8659-55.332-5.1992-9.6566.41725-18.185 1.9343-25.412 4.4414l5.9453 5.5586c6.8 6.4 22.4 16.134 23.6 14.934.93333-.8-1.7326-19.202-3.1992-23.068-.53334-1.2.39974-1.7329 3.0664-1.5996 2.9333 0 4.7986 1.3329 7.8652 5.5996 2.2667 3.0667 6.8009 7.0669 10.268 8.9336 6.1333 3.2 6.3999 3.2016 20.533 1.6016 7.8667-.8 14.534-1.8676 14.934-2.2676s-1.3338-2.5327-3.8672-4.666c-5.3333-4.5333-4.3999-4.8013 9.4668-2.668 15.467 2.4 16 2.6682 15.6 5.6016-.53333 5.2 15.867 8.1332 24.533 4.5332 1.6-.66667 2.4017-.002 3.0684 2.3984 1.2 5.0667 6.9322 10.934 12.799 13.334 5.4667 2.1333 26.934 6.4001 27.867 5.4668.26667-.26667-1.0669-3.1999-2.9336-6.5332l-3.4668-6.1328 2.8008-1.4668c2.5333-1.3333 17.466-.26771 30.133 2.2656 2.9333.53333 4.133-1.3322 1.5996-2.7988-3.0667-1.8667-1.0663-3.2001 2.4004-1.4668 4.8 2.5333 22.533 7.8659 24.133 7.1992.8-.13333-1.4664-6.5333-5.0664-14-8-16.4-10.134-18.134-23.867-18.934l-10-.40039.80078 5.4668.66602 5.6016-5.1992-4.8008c-2.8-2.5333-6.4-4.666-8-4.666-.92227 0-3.323-1.0036-6.1309-2.4043zm-170.35 9.3789-.1875-.17578-4.1836 1.8906c1.4005-.61361 2.8533-1.1883 4.3711-1.7148zm-4.3711 1.7148c-20.294 23.733-27.629 13.178-1.418.64257zm-231.26 371.49c-157.2 1.491-78.6.74552 0 0zm0 0c-1.4505 1.3666-2.4277 2.1108-2.4277 1.8223 4.5201-12.087 1.7225-12.889-.13282.39844.14049.14048 1.1233-.75285 2.5606-2.2207zm-32.961-365.38c-2.3847-.62452-5.5734-1.5682-9.3691-2.1484 1.6006.28072 2.974.59218 3.9024.94922 3.2 1.2 3.2 1.1991-2 3.7324-2.9333 1.3333-9.7345 6.9337-15.201 12.4l-9.8652 10.133 4.7988.80078c2.6667.53333 10.134.66653 16.801.5332 11.6-.53333 12.133-.66641 16.666-5.0664 2.6667-2.5333 5.7331-7.1999 7.0664-10.533.28533-9.9323-1.5403-9.4588-12.799-10.801zm-9.3691-2.1484c-2.2954-.40258-5.1466-.72818-8.3613-.97461 2.9779.2584 5.7951.58233 8.3613.97461zm-8.3613-.97461c-13.949-1.2104-31.212-.92188-40.803 1.2578-18.667 4-34.001 14.265-40.668 26.799-.59858 1.1972-1.1267 2.1247-1.582 2.8496 3.4005.47278 6.8177-.26823 10.648-2.1836 6.8-3.4667 12.801-8.5333 11.867-10-1.0667-1.6-1.1996-1.7319 10.4 4.1348 8.2667 4.2667 9.1995 4.5331 14.133 3.0664 2.8-.93333 7.7341-3.3329 10.801-5.5996 4.8-3.4667 5.3328-4.4008 4.1328-6.8008-2-3.4667-11.734-10.533-14.934-10.533-1.3333 0-2.4004-.53255-2.4004-1.1992 0-2.3657 22.933-2.977 38.404-1.791zm-83.053 30.906c-.28194-.0392-.56378-.0885-.8457-.14453-.21899.59537-.3711 1.108-.3711 1.4277.0789.31566.55642-.23195 1.2168-1.2832zm-.8457-.14453c1.242-3.3768 5.6403-10.572 9.4941-15.105 8.1333-9.3333 22.8-16.799 41.467-21.199 3.2-.66667.93333-1.4667-12-4-15.622-2.9878-28.66-4.6573-39.074-5.0566l5.875.78907c5.8667.8 8.1331 1.868 13.066 6.668 3.3333 3.2 7.1994 6.3992 8.666 7.1992 2.4 1.2 1.7342 1.8673-5.7324 5.334-7.2 3.4667-9.0665 3.866-12.533 2.666-2.1333-.8-6.9332-1.066-10.533-.66601-7.7333.93333-25.201 6.2658-25.201 7.7324 0 1.2 17.867 12.401 23.334 14.668 1.0665.44438 2.12.76183 3.1719.9707zm-.11328-45.361-1.0586-.14257.0605.10937c.33139.0103.66113.0203.99805.0332zm-.99805-.0332c-5.4246-.16777-10.128.0142-14.061.55664-7.3542 1.0423-12.792 2.6665-16.738 5.1934 1.468.45716 4.2443 2.8096 8.4727 7.207 6.6667 6.9333 7.4658 7.332 13.732 7.332 3.6 0 8.7996-.66679 11.6-1.4668 5.7333-1.6 5.7348-2.6664.13476-13.066zm-30.799 5.75c-.77929-.24268-1.184.0563-1.2441.86524.3973-.29929.81141-.58817 1.2441-.86524zm-1.2441.86524c-4.3224 3.256-6.5864 7.8486-7.4844 14.342l-.90625 6.7324c.40551.0676.69354.1742.77344.33399.26667.53333.26615.26536.13281-.66797-.26667-.8 1.0674-2.3996 2.8008-3.5996s4.8003-4.2669 6.9336-6.9336l3.7324-4.9316-3.0664-2c-1.6-1.0667-2.9336-2.4017-2.9336-3.0684 0-.0775.01239-.13721.01758-.20703zm-8.3906 21.074c-.0058-.00096-.01176-.003-.01758-.004l-.0098.20508zm-.01758-.004.39062-8.1953c.26667-7.0667.80091-8.8004 4.2676-12.4 1.0756-1.1294 2.1154-2.112 3.1895-2.9922-1.4824.96658-4.8313 1.0999-10.523.72461-9.4667-.66667-9.7335-.53282-21.467 5.8672-6.6667 3.6-12.134 7.0672-12.4 7.8672-.8 2.1333 26.934 10.134 32.268 9.334 1.6707-.27846 3.3243-.35929 4.2754-.20508zm7.8477-23.588c.18469-.12043.36344-.24337.49023-.39063-.16404.12805-.32811.25776-.49023.39063zm.49023-.39063c4.1378-3.2298 8.9618-4.9699 18.586-7.0176 2.0796-.4378 3.5031-.75532 4.8066-1.0566-9.4306-1.8663-27.896-4.5252-28.406-4.1426-.26667.4 1.0669 2.7996 2.9336 5.5996 2.2676 3.3384 3.105 5.4269 2.0801 6.6172zm23.393-8.0742c.42779.0847.93853.17682 1.3262.25782 4.1864.82085 4.2538.27047 1.4668-.95313-.60606.18547-1.6829.43872-2.793.69531zm2.793-.69531c2.1501-.65799 1.3134-.95125-1.332-1.4473-10.533-2.1333-43.468-13.866-42.268-15.066.26667-.26667 3.7344.79896 7.7344 2.2656 2.5179.96577 6.539 2.1677 11.494 3.4844-.90439-.7439-1.3089-1.6379-1.7617-2.9512-2.1333-6.4-1.8671-6.3988 7.5996-.79883 11.6 6.6667 15.868 6.7984 26.668.39844 8-4.8 8.1328-4.9333 6.1328-8-1.0667-1.7333-4.6661-4.9326-8.1328-7.1992-7.3333-4.8-12.134-5.0659-27.867-1.1992-11.333 2.8-11.333 2.7995-17.6.13281-8.2667-3.3333-25.068-7.7327-26.135-6.666-.93333.8 6.5335 15.998 11.467 23.465l2.9336 4.4004-5.0664-3.332c-4-2.6667-6.6665-3.4668-12.533-3.4668-7.7333 0-24.267 2.2668-25.467 3.4668-.8.93333 10.8 11.2 18.533 16.533 7.6 5.0667 14.401 5.3332 23.867.53321 3.8667-1.8667 6.9336-3.8665 6.9336-4.5332 0-.53333-1.3336-2.6674-2.9336-4.8008-2.8-3.4667-2.8004-3.5999-.40039-2.5332 1.4667.66666 8.9327 1.3335 16.666 1.4668 10 .13333 16.668.93359 23.201 2.9336 3.6898 1.1274 6.5256 2.1502 8.2656 2.9141zm-24.371-10.764c1.7585 1.4464 5.4432 2.3144 15.305 4.5156 7.268 1.5676 11.8 2.3958 16.393 2.7402-11.792-2.392-23.177-4.9919-31.697-7.2559zm31.697 7.2559c7.8602 1.5944 15.87 3.1006 23.342 4.3262 8.475 1.4302 17.313 2.7421 25.008 3.7695-2.0986-.71131-3.6044-1.6902-5.4082-3.2363-5.6-4.9333-10.934-5.8669-28.934-4.9336-5.9595.31039-10.006.3743-14.008.0742zm48.35 8.0957c2.2449.76092 5.1708 1.2149 9.9258 1.6973 4.77.52999 8.82.63241 10.299.38672-2.5312.0589-10.396-.7717-20.225-2.084zm20.225 2.084c.4756-.0111.82412-.0429.90039-.11914.077-.077-.15889-.3704-.53907-.76172.16069.18527.27149.40127.27149.62695 0 .10934-.25146.19055-.63281.25391zm.36132-.88086c-.0536-.0618-.10884-.11668-.17578-.16797.0512.0506.1303.12115.17578.16797zm-.17578-.16797c-1.0013-.9914-2.9824-2.6428-5.418-4.5371-9.7333-7.4667-26.134-25.2-36.268-39.6-5.2156-7.2488-18.427-30.917-26.412-46.469.75062 2.1967-.43351 2.4119-4.1211 1.002-3.6-1.3333-3.5988-1.3345-2.7988 2.7988.4 2.2667 2.7997 8.9336 5.0664 14.934 4.6667 11.467 9.9999 16.934 16.533 16.934 2.5333 0 10.665 7.7336 9.332 8.9336-.13334.26667-4.1327-.93372-8.666-2.4004-4.5333-1.6-8.5336-2.5328-8.9336-2.1328-1.3333 1.3333 9.3336 25.199 12.934 28.799 4 4.1333 8.666 5.4668 18.666 5.4668 5.0667 0 6.5332-.53281 6.5332-2.1328 0-1.3333 4.2674 1.8667 10.801 8 5.8667 5.6 11.333 10.133 12 10.133.29052 0 .54518.11306.75195.27149zm-68.098-90.605c-.17216-.50381-.41399-1.0775-.78711-1.7988-.27136-.46871-.49857-.82783-.70703-1.1348.47357.94042.97184 1.9164 1.4941 2.9336zm-1.4941-2.9336c-3.2067-6.3677-5.2449-10.874-4.8926-11.266.18536-.0927 3.2967 4.1444 7.584 10.232-1.5129-3.0703-1.5395-5.3453-1.0508-11.699l.66602-9.332-6.666-10c-8.9333-13.2-11.735-16.668-12.668-15.201-1.4667 2.4-4.9336 21.867-4.9336 27.867 0 5.0667.80078 6.7992 4.8008 11.199 2.5333 2.9333 6.7992 6.5333 9.1992 8 4.1333 2.4 4.6672 2.3999 5.8672.5332.76065-1.5213 1.1755-1.686 2.0938-.33398zm2.6914-1.0332c.55067 1.1176 1.285 2.3368 2.2812 3.9024 1.5686 2.4912 3.1894 4.5745 4.3555 5.6367-.16107-.23623-.32816-.46927-.48828-.70508-2.2359-3.2522-4.2679-6.1636-6.1484-8.834zm6.6367 9.5391c7.2157 10.583 15.308 21.501 18.178 24.762l3.4102 3.75c-.43462-1.3665-.74219-3.7305-.74219-5.4824-.26666-6.4-5.201-14.134-11.734-18.4-3.4667-2.1333-6.9319-3.8672-7.8652-3.8672-.28745 0-.72713-.28894-1.2461-.76171zm21.588 28.512c.0615.19348.12526.36875.19141.51758.0889.22231.17363.19143.2539-.0273zm.44531.49024 1.4785 1.627-.40039-14.4c-.4-11.333.13372-17.334 2.4004-26.934.88657-3.7679 1.7485-6.9986 2.4082-9.1992-.10145-.19991-.22933-.34929-.4082-.40039-.8-.26667-1.4668-1.7335-1.4668-3.4668 0-5.0667-17.199-28.799-18.799-25.865-1.4667 2.9333-5.2012 22.266-5.2012 27.732 0 6 3.8674 11.334 12.801 17.334 4.6667 3.3333 5.8655 3.7328 6.7988 2.1328.53334-1.0667 1.0664 6.1338 1.0664 15.867 0 8.2216-.27655 14.479-.67774 15.572zm5.8867-48.906c.42792.84316.18841 3.0015-.67383 6.666-1.8667 8-2.1342 36-.26757 40.533.34859.91504.62572 1.4069.86914 1.375-2.4755-10.837-2.8148-27.543-.46875-39.508 1.0667-6.2667 1.8663-11.467 1.5996-11.867-.11891-.11891-.52771 1.03-1.0586 2.8008zm-.0723 48.574c.33832 1.481.71405 2.8574 1.1309 4.0918 2 6 4.0005 8.6668 11.867 15.467.86781.75715 1.7354 1.4894 2.6035 2.2246.0775-.0108.17942-.002.33008.043 1.2.53333 3.0667 1.1996 4 1.5996 2.4 1.0667 5.6001-8.9336 5.4668-16.934-.13333-6.9333-2.6681-11.466-14.135-24.266l-6.9336-7.8672-1.0664 3.8672c-.53333 2.1333-1.4652 8.3991-1.8652 13.732-.53855 5.6549-.897 7.9754-1.3984 8.041zm15.602 21.783c-.60827.0845.973 1.825 3.9297 4.3086l6 5.0664.0547-1.4062c-3.3206-2.49-6.6522-5.1468-9.9844-7.9688zm9.9844 7.9688c8.1702 6.1265 16.267 11.245 24.104 15.23-.59581-1.0573-.82617-2.9023-.82617-5.5566 0-3.3333-.93334-7.8672-2-9.8672-1.8667-3.8667-17.465-18.799-19.465-18.799-.66666 0-1.2001 4.5328-1.4668 10.133zm24.104 15.23c.45338.80454 1.1313 1.1339 2.0781 1.0176-.69192-.33634-1.382-.66354-2.0781-1.0176zm2.0781 1.0176c2.7873 1.3549 5.5422 2.5803 8.25 3.6426l3.1133.58398c2.4.4 7.7324.79831 11.732.93164 6.6667.13333 7.8682-.26615 11.602-4.1328l4.2656-4.1328 1.5996 4.9336c.93333 2.6667 3.0674 5.8659 4.8008 7.1992l2.4063 1.8828c7.109.49934 14.063.72518 19.461.51758l1.4668-.0527c-3.2818-.1504-3.6016-.77987-3.6016-3.2812v-3.332l5.7344 2.7988c3.0667 1.6 5.8662 3.0673 6.1328 3.334.0689.0689-.0614.13685-.33204.20117l1.9316-.0684-8.3984-4.5332c-6.1333-3.3333-11.868-8.4004-21.201-18.4-4.931-5.2963-8.308-8.828-11.434-11.285 2.8745 2.844 3.4623 10.001.36719 8.8867-9.8667-3.8667-16.133-2.001-28.533 8.2656-4.5453 3.8082-7.4918 5.8111-9.3633 6.041zm37.529-23.193c-.22122-.21887-.45149-.41811-.69922-.58008-.0587-.0365-.10602-.0599-.16406-.0957.28409.20779.57584.44981.86328.67578zm-.86328-.67578c-5.648-4.1311-10.831-4.7698-23.436-5.7715l-7.5273-.66797c.21914.083.96815.14949 2.3262.26758 2.1333 0 6.6681 2.2674 10.135 4.8008l6.5332 4.666 1.7324-3.334c1.8484-3.5648 4.3619-3.5854 10.236.0391zm-30.963-6.4395c-.18613-.0705.10654-.16881.72656-.30664l-5.1992-.0918zm.72656-.30664 9.8672.17383c8.1333 0 14.934-.13268 14.934-.66601 0-.4-2.1341-2.8007-4.8008-5.334-6.6899-6.3662-18.523-19.795-19.264-21.439-.0705-.0587-.12889-.0952-.20312-.16016-1.0667-.93333-1.8672-.93281-1.8672-.13281 0 .66667.80052 1.9988 1.8672 2.7988 1.3333 1.2 1.4665 2.9348.5332 8.1348-.93333 5.3333-.79922 7.7336.80078 10.934 2.6667 5.2 2.6659 4.7982-.80078 5.4648-.48278.0966-.76797.16022-1.0664.22656zm.73633-27.266c.44309.36885.82777.63432 1.1582.71289-.93816-.83371-1.3112-1.0527-1.1582-.71289zm1.1582.71289c.13202.11731.21619.18186.37305.32617 3.2 2.9333 12.667 11.468 20.934 19.068 1.2505 1.1685 2.3773 2.1995 3.5449 3.2754-.95798-1.5704-1.4423-3.4392-1.6797-6.209-.4-3.7333-2.2655-8.9331-4.7988-13.066-4.9333-8-5.0677-8.5335-1.7344-7.4668 2.1333.66667 2.9333-.13424 4-4.2676.8-2.8 1.4668-6.1329 1.4668-7.5996 0-1.8667.66641-2.2677 3.0664-1.7344 1.6.4 5.0677 1.2016 7.7344 1.6016 4.6667.93334 4.933 1.0667 5.5996 8 .53334 5.2-.13372 9.5988-2.4004 16.799l-2.8711 9.2383c1.7818 4.0339 3.9498 8.7863 5.8047 12.496 3.7938 7.5876 5.8915 10.831 13.043 14.877-.18707-1.2355.50141-3.5653 1.8906-6.3438 3.7333-7.8667 3.6001-15.601-.5332-23.734-1.8667-3.7333-3.068-6.666-2.668-6.666s2.5346.93333 4.668 2c3.3333 1.7333 4 2.9331 4 7.0664 0 5.3333 5.7333 18.934 8 18.934 1.7333 0 14.134-12.133 14.934-14.666.53333-1.6 2.1332-1.4669 10.533 1.0664 5.4667 1.4667 11.333 2.9326 13.066 3.1992 2.5333.26666.66615 2.0008-9.8672 8.8008-12.933 8.5333-16.666 13.066-16.666 20.266 0 1.0488-.13926 1.9421-.31446 2.377 7.6187 3.1198 13.598 5.202 19.557 6.6387.4252-.6817 1.105-1.6082 1.957-2.6152 3.2-3.3333 5.8661-11.733 8.1328-25.199 1.4667-8.4 1.7352-8.9336 6.5352-10.934 2.8-1.2 6.3995-3.7329 8.1328-5.5996 4-4.1333 5.7327-3.868 20.666 3.332 5.8667 2.8 11.868 6.2672 13.201 7.8672 2.2667 2.5333 2.2662 2.9335.13282 9.4668-4.2667 12.8-3.0678 17.467 6.7988 26.934 5.3333 5.3333 7.2012 6.134 7.2012 3.334 0-1.0667.39922-1.0677 1.1992.26562.45995.71293.75763 1.3239.91406 1.8457-.0367-1.2286-.21025-2.9774-.51367-5.5781-2.6667-24-9.0672-34.668-25.867-43.602-9.8667-5.2-16-7.1983-45.6-14.932-30.4-8-45.334-13.335-54.801-19.602-6.2667-4.1333-9.4652-5.2-25.865-8-9.3562-1.6373-18.892-2.708-27.066-3.1719 2.6456.27333 3.4754.98915 4.1328 2.7734.66667 1.7333 2.4005 4.1315 3.8672 5.4648 2.2667 2.1333 2.532 3.0673 1.332 7.334-1.3934 4.9763-2.0443 6.6079-3.1719 6.3398zm-6.1602-21.912c-.82316-.085-1.8398-.13084-3.0742-.14649 1.002.0394 2.0241.0869 3.0742.14649zm-3.0742-.14649c-8.9818-.35314-15.901.10624-18.393 1.4531-1.7333.93333-2.6676 1.0656-2.2676.26562 2.5333-3.8667 27.867-5.3336 51.467-2.9336.40713.0397.76787.0713 1.166.10938-.6606-.67285-1.1326-1.7414-1.6992-3.4414-.93334-2.5333-5.7327-8.9342-10.666-14.268-6.4-6.9333-8.9331-10.667-9.0664-13.467-.26666-4.4.39935-4.3992 8.666.80079 4.8 3.0667 5.3327 3.8654 4.666 7.332-1.0667 5.2 2.0009 10.533 10.268 18l6.2969 5.6816c.50921.004.83995-.0177.90234-.0801.26667-.26667-.9332-2.2665-2.5332-4.5332-1.7333-2.4-4.134-7.601-5.334-11.734-2-6.5333-3.1988-8.2667-8.7988-12-8.5333-5.8667-28.266-15.2-39.6-18.934-9.2-2.9333-23.468-3.8662-35.602-2.1328-3.4116.5017-4.6307.54915-4.1172.0879-1.9884.39588-3.3055.91086-3.082 1.2461.4.26667 3.8658-.00078 7.7324-.80078 7.2-1.3333 12-.79987 12 1.4668 0 .66666-3.7323 3.0668-8.2656 5.4668l-8.4004 4.1328 8 3.7344c4.4 2.1333 10.134 4.532 12.801 5.332l4.7988 1.4668-4.5332 10.801c-6.6667 15.867-7.4665 20.4-4.5332 26.934 1.3333 2.9333 4.801 7.5984 7.7344 10.398l5.332 5.0684 2.8008-4.4004 2.9336-4.4004v6c0 6.9333 2.8001 11.867 9.4668 16.801 8.9333 6.6667 9.0667 6.6658 12-.26758 1.6-3.6 2.7988-8.9327 2.7988-12.666-.13333-5.6-1.0655-7.9999-6.7988-16.533l-6.8008-10h7.334c.48981 0 .89506.008 1.3262.0137zm-54.645-49.793c.38421-.0765.75372-.15593 1.1855-.22071 2.5584-.51168 4.8499-1.2672 5.3867-1.7988-2.3229.46337-4.4346.98042-5.5215 1.3984-.52788.26394-.88194.46943-1.0508.6211zm6.5723-2.0195c1.3817-.2756 2.8205-.53546 4.2129-.73437l6.666-.93359-3.334-2.5332c-1.8667-1.4667-3.1992-3.8668-3.1992-5.4668.26666-2.9333.26744-2.9339.80078.13281.8 4.1333 6.6651 6.8009 18.398 8.2676 3.4334.44302 7.2949 1.2228 11.377 2.2578-1.4465-.74786-2.6297-1.6122-2.9766-2.3926-.4-1.2-1.0654-3.7324-1.332-5.7324l-.53515-3.7344 6.4004 4.9336c3.4667 2.5333 6.2681 5.3338 6.1348 5.8672-.13333.66666-.26757 1.7337-.26757 2.4004-.0626.29211-.35185.44722-.76954.51367 5.7978 1.7621 11.826 3.9498 17.625 6.4102-1.8722-1.4075-2.604-2.6791-2.9883-4.5234-.4-2.2667-.66653-4.1348-.5332-4.1348.26667-.13333 3.4664-1.7329 7.0664-3.5996 3.7333-2 7.0663-3.5991 7.5996-3.7324.53333 0 2.3995 2.6662 4.1328 6.1328 2.6667 5.2 2.9333 7.2004 2 10.4-.66667 2.1333-1.4658 4.7991-1.7324 5.7324-.14476.38602-.5992.5371-1.3945.4375l5.5273 2.7637v-5.7344c0-3.7333-1.5999-8.9331-4.5332-15.066-3.6-7.7333-5.5997-10.133-11.066-13.6-13.6-8.8-31.734-12.667-58.801-12.801-9.7333 0-16.134-.53359-14.4-.93359 5.4838-1.4956 15.06-2.6798 24.82-3.2637-.9553-.37354-1.6559-1.4686-2.5527-3.6699-3.4667-8.1333-8.9342-11.865-22.268-15.332-12.4-3.2-17.332-3.8671-17.332-2.4004 0 1.3333 8.1337 15.333 12.4 21.467 2.1333 3.0667 5.5991 6.2664 7.7324 7.0664 4.6667 2 20.934 1.2003 22.4-1.0664.8-1.3333 3.3336-1.3342 10.934-.26758 18.8 2.5333 19.199 2.9335 5.8652 5.4668-9.4667 1.7333-12.4 1.868-14 .66797-1.2-.93333-4.932-1.4678-9.332-1.2012-9.3333.4-28 4.4005-28 5.8672 0 .66666 4.5333 4.2661 10 8.1328 5.4667 3.7333 9.5987 7.3338 9.332 7.8672-.0162.0216-.0554.0459-.0781.0684zm14.898-32.666c.60695.23733 1.3156.19065 2.248-.0684.068-.017.17787-.0338.25195-.0508-.83528.041-1.665.0692-2.5.11914zm2.5-.11914c5.0692-.24865 10.104-.34621 14.547-.2168 8.1333.13333 14.934.26758 14.934.26758 0-.13333-5.7327-3.4673-12.666-7.334-14-7.6-16.4-10.401-3.4668-3.8672 4.4 2.2667 15.733 7.6005 25.066 11.867 3.0648 1.4054 5.7153 2.6207 8.0449 3.6973-1.2498-1.0522-2.2209-2.562-2.9785-4.498-2.1333-6-7.3327-12.134-12.666-14.934-4-2.1333-32.801-4.3994-32.801-2.666 0 .4 3.066 4.4008 6.666 8.8008l6.8008 8.1328h-4.4004c-2.298 0-5.4116.36769-7.0801.75zm46.459 4.4141c.72986.61446 1.5543 1.0742 2.4883 1.3691 2.1333.8 5.5996 2.5333 7.5996 4 1.7697 1.2167 3.4347 2.0521 4.2598 2.002-2.7112-1.8718-6.7381-3.8547-14.348-7.3711zm14.348 7.3711c.43998.30376.8524.60796 1.2324.91211-.004-.0334-.0254-.0844-.0254-.11328 0-.93333-.39883-1.3336-.79883-.93359-.0909.0909-.23867.12446-.4082.13476zm1.2324.91211c.13455 1.046 2.3333 4.247 5.1758 7.2188 1.9384 2.123 4.0512 5.0027 5.4883 7.4648-1.4385-2.9133-3.0338-5.6301-4.6895-7.8633-2.3973-3.179-3.7681-5.0544-5.9746-6.8203zm10.664 14.684c.67467 1.3664 1.3136 2.7725 1.9062 4.1992-.15528-.4116-.31178-.81033-.46289-1.2637-.28722-.8206-.80457-1.8411-1.4434-2.9355zm1.9062 4.1992c.16247.43067.31978.82164.48046 1.1914-.15729-.39836-.31575-.79489-.48046-1.1914zm.48046 1.1914c2.2489 5.6953 3.7246 11.516 3.7246 15.678 0 3.7238 1.2899 5.8883 7.6934 12.59l4.4395-3.7891c7.0667-6 10.399-14.266 9.1992-23.066l-.79883-6.2676 2.666 3.334c1.4667 1.8667 4.1333 5.4661 6 8.1328l3.4668 4.8008-4.8008 9.8672c-2.5333 5.4667-5.0648 12.132-5.4648 14.799-.37902 1.9899-.82419 3.6944-1.2422 4.5234 5.9179 4.7779 11.699 8.722 15.107 10.01 2.2729.90917 28.804 6.1438 38.285 7.6797-.40507-.25137-.68554-.47198-.68554-.61328 0-.26667.93333-.53321 2-.53321.2812 0 .55277.0382.80078.10743-2.6233-2.9122-9.2363-9.7766-17.066-17.707-21.2-21.2-36.268-40.132-44.268-55.732l-5.332-10.268-11.334-5.334c-6.2667-2.9333-19.733-8.3995-30-12.133-22.533-8.2667-44.8-19.066-50.934-24.799-4.1333-3.8667-4.4004-4.8013-4.4004-12.668-.12924-18.609-9.3198-27.18-32.463-30.119-6.0309.0352-11.294.41159-11.803.91992-1.2 1.3333 8.6656 14 16.266 20.934 6.5333 6.1333 10.4 6.7996 20.934 3.5996l6.2676-1.8672v3.8672c0 3.4667-.26654 3.7332-2.5332 2.5332-3.4667-1.8667-13.468-1.6001-24.668.5332-8.8 1.7333-9.3322 1.5999-14.799-1.4668-6.4-3.6-24.801-9.9997-25.734-9.0664-.8.8 3.2014 11.334 8.1348 21.334 3.7333 7.6 3.7322 7.8664.79883 5.0664-1.7333-1.6-4.9336-3.4676-6.9336-4.2676-4-1.6-22.933-1.7323-29.6-.26562l-4 .79882 9.4668 9.6016c14.933 14.8 19.6 16.132 34.533 9.7324l6.2676-2.666-2.9336-4.668-2.8008-4.666 4.668 2c2.5333 1.0667 8.3983 2 12.932 2h8.2676l-.93359-5.1992c-.4-2.9333-1.1991-6.401-1.7324-7.7344-.66667-2.1333-.40156-1.9996 2.3984.4004 1.7333 1.6 6.1344 4.7997 9.7344 7.0664 8 4.9333 13.866 5.3331 22.133 1.0664l6-2.9336 8.8008 5.0664c4.9333 2.6667 19.865 9.2004 33.332 14.4 36.667 14 47.067 19.068 48.934 24.268 1.3333 3.6 1.334 4.6664-.66602 7.0664-1.3333 1.6-4.801 5.9996-7.7344 9.5996-2.9333 3.7333-5.6 6.8008-6 6.8008-.35663.0892-.9556-.88625-1.5898-2.3457zm-115.41-111.51c.29665-.002.56324-.0137.86329-.0137 10.4 0 12.533.4 19.6 4 5.2 2.6667 8.9345 5.7326 11.201 9.1992l3.1992 5.0684.26562-.33594-2.3984-4.1992c-5.4667-9.3333-20.8-15.599-36.934-15.332l-8 .26562 10 1.0664c.76318.0821 1.4683.18794 2.2031.28125zm35.129 17.918.26758.46875 5.8672-8.4004c4.5527-6.4306 7.685-12.594 9.4512-18.666-.0803.16667-.16434.31083-.25195.39844-1.0667 1.0667-1.4668.26784-1.4668-2.7988 0-2.4-.79857-6.4008-1.8652-8.8008-2.2667-5.6-19.467-24-20.934-22.533-.66667.66666-1.6 7.1999-2 14.533-1.0667 16 .66693 20.933 8.9336 26 9.4667 5.7333 9.5988 5.8673 8.7988 9.334-.53333 1.7333-2.2667 4.9336-4 6.9336zm15.586-26.598c.23533-.48828.4356-1.3072.60547-2.3359-.18149.77747-.37858 1.5558-.60547 2.3359zm.60547-2.3359c1.7158-7.3502 1.4234-14.6-.85742-22.064-2.6667-8.9333-1.4665-9.2004 1.4668-.40039.8301 2.3322 1.4312 5.3395 1.8125 8.5664-.24473-5.7845.0265-10.882.58789-12.566 2.2667-5.7333 1.6008-16.801-1.1992-21.334-1.3333-2.2667-6.2669-8.1326-10.934-13.199l-8.4004-8.9336-1.0664 3.7344c-.66666 2.1333-1.2001 9.5999-1.4668 16.533-.26667 15.333 1.0658 17.999 11.732 24.133 4 2.2667 7.6014 5.3341 8.1348 6.8008 1.0464 3.4532 1.0205 13.697.18946 18.73zm2.4219-13.898c.0459 1.0848.10327 2.1848.1875 3.3008l.28906 4.5371c-.0174-2.6132-.17552-5.2903-.47656-7.8379zm.47656 7.8379c.035 5.2416-.49434 10.183-1.6211 13.062l-1.4668 3.8672 4.9336-3.8672c8.8-6.8 9.3335-6.5326 1.4668.80078-8.4615 7.7009-14.871 16.341-17.863 23.523 1.1263-.70347 3.0069-.87341 6.5293-1.125l5.8672-.39844 2.2656 8.5332c4.6667 18.267 8.9332 22.533 24.533 24.533l6.4004.79882-.53321-8.666-.5332-8.5332 4.2656 2.5332c2.2667 1.4667 4.5336 2.666 4.9336 2.666 1.6 0 5.2006-11.867 5.334-17.467.13334-6.8-2.8008-12.8-12.801-25.6l-6.1328-7.8672-1.334 5.2012c-1.6 6.4-3.9984 19.733-4.3984 25.199l-.40039 4.2676-6.9336-4-7.0664-4 3.8672-3.2012c3.2-2.6667 16.133-24.932 16.133-27.732 0-1.4667-4.8008-.80105-14.801 2.2656l-10.133 3.2012zm-14.551 37.387c-1.2612.78773-1.5732 2.2467-2.1367 5.2754-1.2 6.2667 1.9997 12.401 9.0664 17.201.67656.48992 2.747 1.4123 5.6328 2.5742-.49861-.2153-.94808-.41676-1.2344-.57422-7.3333-3.7333-13.199-11.068-13.199-16.668 0-2.2574.66695-4.9183 1.8711-7.8086zm12.562 25.051c.81862.35347 1.9194.78209 3.2246 1.2656-1.1642-.44794-2.2432-.87049-3.2246-1.2656zm3.2246 1.2656c14.979 5.7632 43.515 15.359 46.475 15.359.0466 0 .0564-.0532.0488-.12891-7.098-2.4584-15.739-5.287-23.516-7.6035-8.8832-2.77-17.703-5.6617-23.008-7.627zm46.523 15.23c4.3412 1.5036 8.2409 2.8999 10.619 3.8613 1.8365.72693 3.5391 1.3858 5.1211 1.9902-.21015-.48365-.18814-1.0041.0781-1.5898.4-1.2 1.2001-4.9323 1.4668-8.2656.8-7.6-1.1992-11.733-11.199-22.533-9.0667-9.8667-9.4682-9.4673-9.6016 8.666-.13334 8.9333.4 12.8 2 15.066.88034 1.3205 1.48 2.4471 1.5156 2.8047zm15.74 5.8516c.31602.72731 1.1699 1.3691 2.6113 2.0098 1.8667.93333 3.601 1.6016 3.7344 1.6016.0297 0 .0597-.52475.0879-1.25-.90266-.28912-3.2205-1.1336-6.4336-2.3613zm6.4336 2.3613c.20171.0646.54339.1836.57812.1836.38344 0 .14399-3.2142-.46289-7.2363-.0327 3.0183-.0645 5.7496-.11523 7.0527zm.11523-7.0527c.0307-2.8398.0625-5.7648.0625-9.4316 0-3.9152.0803-7.8048.19532-11.346-.99335 8.4904-1.1078 15.341-.32813 20.279.0276.17666.0441.32432.0703.49805zm.25782-20.777c.0259-.22134.0452-.4307.0723-.65429 2-17.067 1.9994-17.333-1.334-26.133-4.2667-11.333-9.7324-18.534-19.732-26.268-14.8-11.467-14.934-11.6-10.801-9.0664 5.0667 2.9333 5.4674 2.6677 2.8008-2.2656-2.6667-5.0667-4.0014-25.867-2.1348-32.934.76289-2.6701 1.1123-2.4702 1.2031 1.7207.50009-5.5681 1.6419-6.4457 2.9316-1.1875 1.0667 3.8667 6.6655 13.2 8.7988 14.533.8.53333 3.4667-1.1991 6-3.7324l4.666-4.668v11.734c0 10.8.2668 12.133 3.4668 16 2 2.2667 6.5333 5.6001 10 7.4668 3.6 1.7333 6.5332 3.7318 6.5332 4.3984 0 .46173-.66373 2.6356-1.6328 5.4043 5.8642-15.288 14.125-30.679 24.334-45.436-.92402.95896-1.2125.0952-1.7676-3.5684-.8-4.8-13.733-28.266-15.6-28.266-1.6 0-8 24.4-8 30.533 0 4.9333.80078 6.5322 6.8008 12.799l6.666 7.0664-2.8008 5.4668c-3.0667 6.1333-4.3992 7.0676-3.1992 2.2676 1.6-6.2667-1.8659-13.601-11.199-23.734-8.9333-9.4667-9.2013-9.9991-10.668-19.732-.8-5.4667-2.5324-13.334-3.7324-17.334l-2.1328-7.332-3.6016 4.2656c-2 2.4-5.7318 8.0004-8.3984 12.4l-4.668 8-.66602-6.4004c-.53333-5.0667-2.1329-8.7999-7.5996-16.533-3.8667-5.6-8.0006-11.066-9.334-12.266-2.2667-2.1333-2.5327-1.7344-4.666 8.2656-3.0667 14.533-3.2014 22.8-.13476 27.467 3.0667 4.5333 15.601 13.2 16.668 11.467.4-.8.66653 4.8004.5332 12.4-.26667 9.6-1.1997 15.733-3.0664 21.066-3.4667 9.4667-2.2665 14.399 5.4668 23.199l5.5996 6.2676 3.0664-3.4668 3.0664-3.5996v6.1328c0 7.8667 2.4 12.4 10 18.533 5.8667 4.9333 6.2667 4.9327 8 2.666s1.8669-2.1319.9336 2.1348c-.31583 1.5002-.57135 5.7786-.73828 10.92zm35.172-91.086c.18576-.19278.38732-.43282.63281-.76758.28224-.3669.48385-.71029.63086-1.0547-.42712.60563-.84313 1.2144-1.2637 1.8223zm1.2637-1.8223c.7576-1.0742 1.5247-2.1461 2.3027-3.2129 6.1333-8.6667 11.333-15.465 11.467-15.332.26667.26667-3.4676 7.5984-8.2676 16.398-1.642 3.0757-3.1735 6.1081-4.6524 9.1211l1.8535-3.5195c1.4667-2.9333 4.2656-6.5348 6.2656-8.1348 5.8667-4.5333 9.7344-11.865 9.7344-18.398v-5.7344l6 4.8008 5.8672 4.9336-4.4004 8.7988c-6 12.133-7.8674 18.267-6.8008 22.934.93334 4.2667 10.533 17.334 12.666 17.334 2.1333 0 9.2013-10.668 10.668-16.135 1.2-4.4.93294-6.7999-2.4004-16.533l-3.7324-11.332h4.7988c2.6667 0 7.734-1.4678 11.334-3.2012 4.4-2.2667 6.9332-2.9333 8.5332-2 1.2.66667 5.4663 2.6671 9.5996 4.4004 7.3333 3.0667 7.4671 3.2005 8.4004 9.8672 1.4667 10.933 4.8004 20.399 8.4004 23.732l3.4668 3.2012-3.8672-.66797c-2.1333-.4-7.2012.13451-11.201 1.2012-4 1.0667-7.4663 1.8658-7.5996 1.7324-.13333-.13334.40026-2.9323.93359-6.2656 1.6-7.8667 1.5995-28 .13282-28-.53334 0-6.266 4.9336-12.666 10.934-8.1333 7.8667-11.466 11.998-11.6 14.398-.26667 6.8.53359 11.467 2.9336 17.867 2.2667 6.1333 2.3999 7.1992.53321 15.199-.95313 3.9807-2.7626 9.107-4.6895 13.75 3.2034-6.7671 4.6169-11.857 6.8223-23.215l2-10.668-.80078 9.334c-.1819 2.2738-.42431 4.4824-.7207 6.6367 1.308-5.7729 2.338-7.8857 4.0547-8.6367 1.4667-.66666 2.8003-1.1997 2.9336-1.0664.26666.26666-1.4663 5.3329-3.5996 11.6-2.1333 6.1333-4 13.466-4 16.133 0 2.8-1.2013 6.934-2.668 9.334s-2.666 6-2.666 8c0 4.1333-2.266 4.9329-4.666 1.5996-1.1625-1.6792-.67423-3.7762 2.5078-10.449-1.3546 2.5262-2.85 4.9049-4.5078 7.1152-3.2 4.2667-4.1328 6.4006-2.1328 5.334.53334-.4 4.3994-.13346 8.666.5332 7.7333 1.2 15.066 4.2671 20.266 8.4004 1.4667 1.2-.26667.66744-4-1.1992-8-4-19.465-6.2678-25.865-5.2012-2.6667.4-8.0005 2.0001-11.867 3.4668l-7.1992 2.8008.7793.33008c.36678-.17458.76323-.35617 1.3535-.59766 3.7333-1.6 5.1997-1.0669 3.0664 1.0664-.34959.3496-.88176.61585-1.4766.7793l.67578.28711c2.5333 1.0667 5.6003 2.9348 6.9336 4.1348 2.8 2.5333 7.5996 11.199 7.5996 13.732 0 .93334-1.3331-1.0656-3.0664-4.2656-3.6319-6.9007-9.1363-11.042-15.607-11.748.33835.38184.54101 1.0137.54101 1.748 0 1.0667-.53398 1.5992-1.334 1.1992-.66667-.4-1.332-1.3328-1.332-2.1328 0-.37839.22362-.70058.53125-.91993-.13342-.003-.2643-.0137-.39844-.0137-2.1779 0-4.5846.63513-7.0469 1.7324.009 1.4908-.21756 6.3462-.55273 12.268-.53333 7.2-1.3338 13.867-1.8672 14.934-.66666 1.2-2.266-2.1331-4.666-9.0664-3.4667-10.667-3.6012-11.067-1.2012-12.801 1.2617-.8029 3.0474-2.1607 4.4746-3.2988-8.3766 5.2025-16.393 14.842-17.406 22.766-.53333 4.1333.53178 6.4001 6.3984 15.467 1.3046 1.9569 2.9395 4.1413 4.8086 6.4805.0766-.29093.18967-.58778.39257-.88086.8-1.4667 1.0663-1.4667 1.5996 0 .26667.93333.13242 2.0004-.26757 2.4004-.10306.10306-.20427.17925-.30469.24414 5.0914 6.1709 11.888 13.443 19.91 21.328l1.9961-6.1055 2.2656-6.8008.66602 8.8008c.35835 4.4197 1.0393 8.8157 1.6562 10.455 2.6526 2.5096 5.4137 5.0679 8.2637 7.6562.75909.28584 2.2011 1.0105 3.9473 2.0215 2.4 1.6 4.8012 2.8008 5.2012 2.8008 1.6 0 4.9316-11.333 4.9316-17.066 0-7.0667-3.3331-13.468-13.066-24.668-4.9333-5.6-5.3328-6.6667-4.1328-10 .8-1.8667 1.3326-6.5323 1.1992-10.266-.26667-10.267-.5332-10.133 5.4668-6l3.7344 2.7988 1.7324-2.7988c.93334-1.4667 2.6677-2.668 3.7344-2.668 1.6 0 2 2.2678 2 13.201 0 12.667.13242 13.466 3.7324 17.199 1.6989 1.6989 2.809 3.58 2.7812 4.5195l2.6856-2.9199c4.5333-5.0667 14.799-8.932 24.133-9.332 4.5333-.26666 8.1348-.53463 8.1348-.66797 0-.13333-4.9331-3.2003-11.066-6.9336-6.1333-3.6-12.268-7.9996-13.602-9.5996-2-2.2667-.9323-1.866 3.7344 1.334 2.3022 1.5613 5.6382 3.4565 9.4746 5.4648-.72844-1.093-1.4267-2.5488-2.1406-4.3984-1.3333-2.9333-4.5344-6.9335-7.7344-9.4668-8.5333-6.5333-15.466-13.333-14.666-14.666.93334-1.4667 2.9333-1.3329 4 .40039.4.8 3.0658 2.5324 5.7324 3.7324 2.6667 1.2 7.3332 3.8667 10.533 6 5.2 3.6 5.7333 3.7329 8 1.5996 3.2-2.8 3.8674-2.6664 4.8008.93359.4 1.6 2.6659 5.8673 5.1992 9.334l4.5332 6.4004 4.1348-3.8672c2.2667-2.1333 4.5316-3.6012 4.9316-3.2012s.66797 5.2013.66797 10.668c0 5.9083-.13547 8.313-.86328 8.9922 7.1236 2.8396 12.33 4.4534 12.33 3.4082 0-2.8-8.6672-19.068-13.867-26.268-6.8-9.2-12.001-11.999-18.268-9.7324-7.3333 2.5333-8.9333 1.466-2-1.334 9.2-3.7333 13.067-2.5327 22.801 7.334 9.2 9.2 17.734 22.798 23.334 36.932.40183 1.0448.7967 1.9744 1.1856 2.877-.18388-2.5464-.18729-6.0876.0137-10.609.26667-5.8667.53321-10.8.53321-11.066.26666-.93333 2.4012.13229 5.2012 2.2656 1.9385 1.6513 2.8224 2.5817 2.7148 4.8457 1.6541-8.1722 3.1154-16.902 3.5508-22.312.37475-5.4338.42946-10.422.11524-15.436-.36273 1.0406-2.1156-1.6296-6.5156-8.9629-2-3.3333-4.1327-5.8668-4.666-5.4668-.66667.4-2.2668 4.1337-3.4668 8.4004-2.4 7.6-11.733 20.533-13.6 18.666-.53333-.4.13346-3.0672 1.4668-5.8672 4.1333-8.5333 3.1995-15.066-3.8672-29.199-3.6-6.8-6.9335-12.533-7.4668-12.533-.53333 0-1.7327 1.999-2.666 4.2656-3.2 8.2667-9.7346 21.066-10.668 21.066-2 0-8-5.5987-8-7.332 0-1.0667 2.6667-3.4668 6-5.4668 9.8667-5.7333 11.468-8.8008 11.201-20.801-.1434-6.238-.0771-9.27 1.7617-11.699-2.874 2.3669-5.8502 5.0886-8.8281 8.0996-6.2667 6.2667-10.667 10.533-9.8672 9.4668.8-1.0667 3.3324-4.5344 5.7324-7.7344 2.4-3.0667 3.8678-5.5996 3.2012-5.5996-.53333 0 .80026-1.1994 2.9336-2.666 1.5412-.99724 4.2568-2.9944 6.9668-5.084-3.2055 2.243-7.9237 4.8878-11.367 6.1504-7.6 2.8-11.334 5.9994-14.801 12.666-1.8667 3.4667-2.1323 3.5997-2.2656 1.0664 0-1.4667-2.5344-7.999-5.7344-14.266-3.2-6.2667-5.6001-11.467-5.4668-11.467.13333 0 4.8004 2.1341 10.4 4.8008 9.3333 4.4 10.4 4.6659 15.066 3.1992 2.8-.93334 8.0016-3.8671 11.602-6.4004l6.5332-4.7988-5.8672-5.2012c-5.6-5.0667-5.7338-5.0656-1.8672-4.2656 11.467 2.4 10.401 3.1992 9.7344-6.8008l-.51563-8.6387c-.36312-.36502-.71118-.72665-1.0859-1.0938-12.267-12.133-24.8-19.067-60-32.801-6.2667-2.5333-9.8667-4.1324-8-3.7324s5.2006 1.0663 7.334 1.5996l4 .79882-3.4668-2.7988c-9.3333-7.6-16.532-24.8-17.732-42.533l-.80078-10.4 2 11.867c.049.30373.11237.59501.16406.89648.48671-2.1454 1.7395-4.3342 3.7031-6.3633 2.4-2.4 4.4003-6.2664 4.9336-9.0664.66667-4.8-3.068-24.934-4.668-24.934-1.2.13333-8.6663 10.265-11.6 15.865-2.9333 5.8667-1.9996 13.334 2.4004 19.867 1.8667 2.6667 3.5995 6.934 4.1328 9.334l.80078 4.4004-3.8672-3.7344c-3.8667-3.8667-22.533-14.533-23.6-13.467-.93333 1.0667 4.8006 21.601 7.334 25.734l2.3984 4.1328-7.1992 7.8672c-10.133 11.333-12.667 17.066-10.934 24.666.8 3.3333 2.401 7.8661 3.7344 10.133 1.5767 2.6278 1.9772 3.9303 1.4297 5.2129zm31-69.648c-.50472 2.2248-.18664 4.4022 1.0352 6.3027.15625.23437.29242.41577.41601.56836-.56668-2.2167-1.0467-4.512-1.4512-6.8711zm1.4512 6.8711c1.3729 5.3704 3.2224 10.299 5.4902 14.756.49373.17977 1.8074 1.7954 3.4277 4.543.93334 1.7333 1.5999 1.5991 4.5332-.26758 1.8667-1.3333 4.8004-4.4003 6.4004-6.9336 1.7333-2.4 3.2006-4.399 3.334-4.2656.13333.13333-.80052 4.2664-1.8672 9.0664-2.1333 8.6667-2.1326 9.0672.80078 13.867 1.1599 2.0299 2.0199 3.8244 2.3145 4.8242.29396.17157.5868.34322.88476.50781 3.021 1.5664 8.624 4.0352 13.594 5.9824-.52076-.6239-.0327-1.4137 1.0723-3.1816 1.2-1.7333 2.7996-5.8664 3.5996-9.0664 1.3333-4.9333 1.0674-6.9331-1.1992-13.066-3.4667-9.0667-11.2-22.135-12.934-21.602-.66667.13333-1.8655 2.268-2.7988 4.668l-1.4668 4.2656-.13476-4.666c-.26667-5.0667-4.9328-28-6.1328-29.066-1.6-1.7333-18 23.466-18 27.732 0 2.276-.19782 2.7914-.91797 1.9023zm38.912 42.08c.42181.50534 1.5036.90313 3.4727 1.6191 2.5333.8 9.6005 4.1326 15.867 7.1992 3.0637 1.5644 5.9586 2.8349 8.2051 3.6543-6.9317-4.1729-14.966-7.8752-24.738-11.389-.8792-.32166-1.8542-.71078-2.8066-1.084zm27.545 12.473c1.486.89457 2.9394 1.8046 4.3281 2.7461l5.7324 4-8.9336-17.867c-8-16.133-23.332-44-28.266-51.467-1.0667-1.6-1.5992-2.9336-1.1992-2.9336.49724 0 5.7689 6.607 11.428 14.051-.13859-.79052.4368-.98438 2.0371-.98438 1.4667 0 2.668.80052 2.668 1.8672 0 1.9842-.92323 2.9407-2.0059 2.6836 4.0757 5.4397 7.9954 10.851 10.139 14.117 2 3.0667 3.8662 5.4654 4.1328 5.332.13334-.26666-.53294-3.7324-1.5996-7.7324-1.0667-4-1.8672-10.401-1.8672-14.268 0-2.8011.11624-4.6541.63085-6.2754-.16403.2685-.36029.56716-.49609.80859-1.7333 3.7333-2.0012 3.734-3.2012 1.334-.8-1.3333-1.7323-5.1999-2.2656-8.5332-1.3333-9.6-5.0665-14.001-18.533-22.801-9.4667-6.1333-12.401-7.4652-12.668-5.8652-.66666 3.3333 3.6014 23.466 6.1348 28.666 1.3333 2.6667 4.265 5.7326 6.9316 7.1992 6.1333 3.2 12.002 13.335 10.535 18.135-2.1333 7.4667-1.3338 14.933 2.1328 19.467 5.4667 7.2 12.267 11.867 14.533 10 1.6-1.3333 2.1335-.66745 3.4668 3.1992.93333 2.8 1.0665 5.4667.5332 6-.34074.34074-1.9795-.0222-4.3281-.87891zm-2.7754-56.73c1.2854-2.104 3.3153-4.8845 4.9707-6.6582l3.332-3.7324-.44531-.39844c-.85145 1.2966-2.2576 3.0716-3.8203 4.7988-2.2456 2.4629-3.4249 4.0616-4.0371 5.9902zm7.8574-10.789c.52885-.80538.8457-1.4279.8457-1.7344 0-.8.53398-1.8676 1.334-2.2676.66667-.4.93321-.000261.53321 1.0664-.18449.46122-.1284.8546.15039 1.1992.0944-.91159.50322-2.1889 1.1816-3.998l1.4668-3.5996 3.2012 4.7988c1.8667 2.6667 4.3996 5.3328 5.5996 6.1328.69094.3685 1.1188.74645 1.207 1.4668.59379.50542.60754.69707.006.58984-.14342 1.5068-1.2932 4.2021-3.8789 9.6777-2.8 5.8667-4.9336 12.533-4.9336 15.199 0 4.8 5.199 14.4 10.266 18.934 2.6667 2.2667 2.8008 2.2677 6.8008-2.2656 2.1333-2.5333 4.6663-6.6673 5.5996-9.334 1.3333-4.4 1.7341-4.5326 4.8008-3.1992 2.2667 1.0667 3.0665 2.2663 2.5332 3.5996-.53334 1.2-2.1344 6.9322-3.7344 12.799-3.4667 13.6-2.6668 16.802 6.5332 25.602 6.6667 6.2667 7.2017 7.3327 7.0684 12.666 0 6.1333-2.1337 18.134-2.4004 13.867-.13333-3.0667-9.3329-15.334-15.6-20.801-3.4667-2.9333-4.5352-4.9337-4.5352-8.4004 0-4.8-6.2656-16.266-14.266-26.133l-4.9336-5.8672-1.5996 5.2012-.76563 2.4863c2.4782 5.6008 5.5797 11.119 9.9648 17.912 9.3333 14.267 23.601 39.068 28.135 48.668.88822 2.0725 1.8455 3.8398 2.4473 4.625-.0308-.30917-.0488-.69544-.0488-1.1582 0-1.8667.26797-2.5344.66797-1.7344.15687.54904.20933 1.3194.18164 2.0312.57997-3.4395 1.6617-13.893 2.752-26.432 3.4667-41.6 1.8658-51.199-10.268-58.266-7.4667-4.4-9.6008-4.2664-12.801.9336-1.4667 2.4-2.666 3.7336-2.666 2.9336 0-2.8 5.4662-8.5332 8.1328-8.5332.78286 0 1.7699.19786 2.8652.53711-.68258-.72075-1.1309-1.5139-1.1309-2.2715 0-1.3333-1.4673-6.5329-3.334-11.6-1.8667-5.0667-3.334-9.6-3.334-10s3.2017-.9345 7.0684-1.2012c6.6667-.4 7.0665-.2651 8.5332 3.6016.8 2.1333 1.5996 6.1327 1.5996 8.666.13333 2.6667 1.3322 8.2665 2.7988 12.533 1.1961 3.3124 1.8899 5.7769 2.1348 7.3398v-1.3398c0-11.6-9.8665-40.001-18.533-53.334-2.9592-4.5031-4.8681-7.4471-5.9902-9.2949l-2.1445-1.9043 3.2012 4.5332c2.9333 4.2667 2.9332 4.5329.5332 3.5996-1.3333-.53333-7.7328-2.7997-14.133-5.0664-6.5333-2.2667-12.8-5.4659-14.533-7.1992l-3.0684-3.334-1.7324 7.0664c-.93333 3.8667-1.601 9.8673-1.7344 13.334 0 5.7333.40091 6.5329 6.2676 11.6zm21.656-27.697 1.457 1.2949 3.5996 3.334-.13086-.67773c-.31227-.35395-.62518-.71522-.93555-1.0547-4.8841-5.3364-6.3567-6.7935-3.9902-2.8965zm4.9258 3.9512c3.6909 4.1835 7.4919 9.3464 11.045 14.943l5.0859-5.4648c6.6667-7.3333 8.3994-13.201 6.666-22.801-1.8667-10.133-5.4665-22.533-6.5332-22.533-1.2.13333-11.334 15.6-14.801 22.533-2 4-2.6662 7.0672-2.1328 9.8672zm11.045 14.943-.24805.26758 2.666 4.1328 2.3105 3.5801c-1.498-2.7157-3.085-5.3915-4.7285-7.9805zm8.5527 45.074v1.709c.13146-.28883.13256-.86279 0-1.709zm0 1.709c-.0524.11521-.11766.20352-.21093.22656l.21093.19141zm-.21093.22656-1.8027-1.6387c.85792 1.1938 1.4638 1.7224 1.8027 1.6387zm-1.8027-1.6387c-.38938-.54181-.82877-1.2179-1.3203-2.0371-2-3.2-3.4662-4.4001-4.1328-3.4668-.23623.40158-.64609.61685-1.1504.69336 2.0831 1.1718 4.1104 2.5588 5.6836 3.9746zm-6.6035-4.8105c-1.9696-1.108-3.9844-2.0175-5.7188-2.5547 1.4922 1.5757 4.1117 2.7985 5.7188 2.5547zm6.2656 86.271c-.12929.76675-.24349 1.3027-.3164 1.3027-.10393 0-.27315-.16578-.48438-.4414.0933.93792.31831 1.1434.61914.4414.1098-.32939.16226-.80447.18164-1.3027zm-41.348-70.344c-.31964-.72243-.62772-1.4477-.92773-2.1758l.0937 4.8887zm-.92773-2.1758-.041-2.1777c-.13334-4.9333-1.3328-9.3336-4.1328-14.934-2.6483-5.2349-3.8837-9.666-3.7441-13.531-.65912 4.4865.74891 9.7826 5.2109 23.264.83396 2.5744 1.7262 4.9984 2.707 7.3789zm-7.918-30.643c.26658-1.8145.86102-3.5001 1.7441-5.5352.57807-1.306 1.1744-2.433 1.7949-3.4219-2.2422 2.6473-3.4173 5.5861-3.5391 8.957zm3.5391-8.957c.75284-.88885 1.6136-1.7485 2.6055-2.5781 2.5333-2 8.7994-2.1328 12.666-.13281 2.5183 1.1992 2.662 1.232.94141-.21094-.60285-.21178-1.1609-.40221-2.0078-.72266-6.9392-2.4623-10.961-1.5252-14.205 3.6445zm16.213-2.9219c.96608.33938 1.7498.59671 2.1387.66602.0212-.22231.0156-.41437-.006-.58984-.17798-.15149-.40167-.32908-.67383-.5332-1.4667-1.0667-4.9324-2.2655-7.7324-2.7988-2.3547-.34884-3.7228-.81711-4.25-1.4688-.1838 1.7758.85076 2.1348 3.582 2.1348 2.1333 0 4.9337.93281 6.4004 2.1328.24143.20119.34857.29564.54102.45703zm-32.68 16.627c-.90013-1.2014-1.8014-2.3854-2.6992-3.5664.0692.39503.30523.92833.70508 1.6836.60789 1.1145 1.3308 1.7253 1.9941 1.8828zm-27.812 28.941c-7.8783-4.5982-14.3-11.709-18.943-20.834-.44071-.16047-.23034.8194 1.0273 3.209 2.8 5.4667 16.667 19.6 18 18.4.0734-.11001.0278-.39608-.084-.77539zm51.703 35.736c.68002.68358 1.3416 1.3602 1.9785 2.0332l-1.9961-2.3281zm1.9785 2.0332 2.8027 3.2715c2.6667 3.0667 6.133 8.5342 7.5996 12.268 1.2176 2.7832 1.8761 4.3385 2.0566 5.2558.29204-.13605.47657-.25048.47657-.32226 0-.26667-1.3322-3.3336-2.7988-6.9336-1.5591-3.4522-5.1843-8.3064-10.137-13.539zm12.459 20.795c-.79293.36942-2.5062.92294-4.4551 1.4102-2.8.8-8.001 3.8674-11.734 6.8008-1.1522.93886-2.4235 1.9324-3.6992 2.916.51802-.36249 1.007-.71494 1.4336-1.0488 6.6667-5.3333 13.066-8.8008 16.666-8.8008 1.4317 0 2.0237-.0852 1.7891-1.2774zm-20.027 14.645c2.0846-1.7169 4.1112-3.2376 6.0469-4.5527-3.0052 1.7086-4.8824 3.0144-6.0469 4.5527zm6.0469-4.5527c1.0738-.61054 2.2791-1.2673 3.6582-2.0137 7.2-3.8667 8.5323-3.4684 4.2656.93164-2 2.1333-4.2669 5.7348-4.9336 8.1348-1.3333 4.6667-.26602 25.467 1.334 25.467 1.3333 0 12.267-11.733 15.334-16.533 2-3.0667 2.6663-3.3349 3.5996-1.6016 2.9333 5.2 4.5335 13.734 3.4668 18.4-1.0667 5.4667.39948 10.8 4.1328 15.066 1.2801 1.4081 2.6739 4.7776 3.2558 7.6406-.8188-8.0037-2.6177-16.375-5.6562-26.973-5.7333-20-11.066-32.801-14.133-33.734-2.9736-.99119-8.175 1.0369-14.324 5.2148zm34.113 55.492c.13677 1.3368.24314 2.6654.32618 3.9902.16487-.47298.0436-1.7142-.24805-3.6309-.0213-.11718-.0539-.24024-.0781-.35937zm-3.3398 41.738c-.42889 2.119-.86258 4.1514-1.3047 6.125.80091-2.8528 1.2391-4.7449 1.3047-6.125zm-1.3047 6.125c-.32522 1.1584-.70024 2.4523-1.1445 3.9629-1.5339 5.0199-2.8234 7.977-3.8203 8.9434.50474.80882.87354 1.1704 1.0215.92383.93529-1.5405 2.435-7.0966 3.9434-13.83zm-4.9648 12.906c-.58576-.93865-1.3626-2.5386-2.1934-4.4668.29294 4.0566 1.0489 5.5762 2.1934 4.4668zm-27.709-17.684c-1.9479-.77646-4.0564-1.6609-6.2246-2.5918.74935 1.1354 1.4023 1.8652 1.7539 1.8652.53334 0 2.0012.40079 3.2012.80079.55372.19775.96259.21223 1.2695-.0742zm-6.2246-2.5918c-.67155-1.0175-1.4201-2.3548-2.1133-3.8672-4.5333-9.7333-4.6658-9.8667-9.7324-6-1.7058 1.2997-3.1367 2.097-4.3887 2.373 5.2318 2.5946 10.94 5.221 16.234 7.4941zm-16.234-7.4941c-1.6152-.80103-3.1825-1.5964-4.6699-2.375 1.3529 2.03 2.8122 2.7846 4.6699 2.375zm-28.164 20.279-.38086.41406.36328-.25977c.01-.0483.0159-.0992.0176-.15429zm-.0176.15429c-.0195.0977-.042.19262-.0957.25977-.66667.53333-.40156.66758.39844.26758.93333-.53334 4.401.53177 7.7344 2.3984l6.2656 3.334 1.334-3.7324c.8-2 1.7328-5.2006 2.1328-7.334 1.3333-6.8 2.5348-3.5994 4.1348 11.334.93333 8.1333 2.265 15.732 2.9316 16.932.66666 1.2 1.334 1.4674 1.334.80078 0-.8 2.4012 3.4668 5.2012 9.4668 5.7333 12.267 8.6652 14.8 17.865 16l6.4004.93359-4.4004 2.5332c-2.4 1.4667-7.5987 5.7335-11.332 9.4668l-6.9336 6.7988-6-4.2656c-3.2-2.4-6.268-4.2676-6.668-4.2676s-.79883 1.6016-.79883 3.6016c0 1.1361-.13395 1.9028-.35157 2.2852 13.707 13.062 24.236 24.505 27.818 30.646.54828.9234 1.0814 1.784 1.5996 2.6055-.64562-2.078-1.104-4.6439-1.334-7.4043-.4-5.2-1.4668-9.0677-3.4668-11.734l-2.9336-3.8652 7.0684-.40039c3.7333-.26667 7.3324-.26615 7.7324-.13281.4.13333-.00026 4.6667-.93359 10-.93334 5.3333-1.7339 12.133-1.8672 15.066v2.6152c.40664-1.653.90981-5.2398 1.2012-9.416.88144-12.97 8.417-44.701 12.959-55.268-1.5393 2.8644-3.1796 5.4004-3.7598 5.4004-.53333 0-1.0664-1.3331-1.0664-3.0664 0-1.6-.93333-4.6655-2-6.7988-1.0667-2-2-3.8667-2-4s2.6667-.39987 6-.5332c3.7333-.13334 6 .39869 6 1.332 0 .26729-.084.66186-.22656 1.1348.94447-2.8619.93954-5.3892.49414-10.467-.4-4.8-1.5999-11.335-2.5332-14.668-1.6-5.4667-2.4016-6.4005-9.6016-9.8672-11.067-5.3333-19.732-7.4648-30.799-7.4648-10.8 0-16.535 1.5984-23.201 6.3984zm69.943 32.994c-.0338.10232-.0711.20722-.10742.31055.033-.10015.0792-.21696.10742-.31055zm-.10742.31055c-.10412.31583-.24616.67981-.39258 1.0508.14863-.35894.27262-.70913.39258-1.0508zm-.39258 1.0508c-.43104 1.041-.97146 2.1602-1.6738 3.5039-.24462.46701-.50605 1.044-.77344 1.666.96032-1.7869 1.8471-3.6494 2.4473-5.1699zm-16.607 69.854c-.15162.61634-.2898.98437-.39844.98437-.41791 0-1.991-2.1548-3.8672-5.1289.47705 1.5354 1.0526 2.8123 1.7324 3.6621l2.5332 3.1992zm-33.684-37.396c-.49331-.47009-.99662-.94383-1.498-1.418.18661.673.4002 1.1679.64844 1.3984.33251.39902.63306.40004.8496.0195zm-1.498-1.418c-1.2167-4.3878-1.12-16.945.38281-21.801 2-6.5333 1.8668-12.801-.5332-17.867-2-4-17.201-22.266-19.334-23.199-1.4667-.53334-4.4001 25.732-3.4668 30.932.93333 4.9333 6.7999 10.935 14.533 15.068l4.2676 2.2656-5.0664 1.0664c-2.4905.52431-3.8596.75194-6.0586-.41211 5.357 4.7302 10.489 9.4215 15.275 13.947zm-15.275-13.947c-2.8639-2.5288-5.7815-5.0658-8.7422-7.5879-5.1775-4.4114-10.151-8.792-14.881-13.088-.34219-.12886-.58594-.19419-.58594-.11133 0 .4 5.5999 5.6001 12.533 11.467 6.237 5.4235 9.4011 8.1162 11.676 9.3203zm-31.887-28.332c-2.279-2.1562-4.4687-4.2705-6.584-6.3496l-.27148.82812 4.1328 4c2.2667 2.1333 3.6003 3.0667 2.9336 2-.0694-.11105-.13924-.28799-.21094-.47851zm-26.494-27.678c-.49865-.60437-.95418-1.1808-1.4199-1.7637-.34154 1.2967.44083 2.3964 1.4199 1.7637zm4.7793-46.477c1.2709-.78933 2.5482-1.4717 3.8125-2.0352-.002-.28835.002-.66601-.0195-.66601-.26666 0-1.5997 1.0661-3.0664 2.1328-.20498.16771-.49471.38346-.72657.56836zm11.258-3.7539c.53773.0115 1.0683.0482 1.5938.10547-.21454-.24211-.48255-.38672-.79297-.38672-.28829 0-.56641.11414-.80078.28125zm5.0586-2.0352-2.9434-1.248c-1.4558.69297-1.2578.95003.55274 1.2695.75067.2252 1.6243.18909 2.3906-.0215zm22.918-22.828c4.0084-7.475 6.7012-16.321 8.1035-26.514-.31744 1.4011-.64717 2.9552-1.0117 4.8301-1.3333 7.0667-4.2674 16-6.8008 21.066-.10827.22485-.18844.40207-.29102.61718zm.80275-8.6016c-.67013 1.4156-1.3907 2.8798-2.2441 4.5176-1.4865 2.8587-2.9777 5.2488-4.623 7.3262.0337.00078.0546.008.0898.008 1.2363 0 4.1218-5.4528 6.7773-11.852zm-6.8672 11.844c-1.7472-.0403-1.3192-1.1402 1.6894-5.3262 2.8-3.6 2.9328-4.9333 2.1328-20-.4-8.9333-1.0663-16.666-1.5996-17.066-.93333-.93333-7.066 5.1994-14.666 14.666l-4 4.8008v-9.5996c0-9.2-.26745-10.002-4.8008-15.602-2.6667-3.2-7.3337-8.3996-10.4-11.6l-5.4297-5.6934c-1.0986 2.2745-2.1576 4.5368-3.1641 6.7812.0433 2.5835-.005 8.5939-.20507 15.58-.26667 12-1.2003 19.465-2.9336 24.932l-2.4004 7.8672-3.334-6.9336c-2.8399-6.067-3.0408-7.4206-1.7207-12.701-4.503 15.773-6.7033 31.299-6.7949 47.385.0786-.0889.1609-.15039.25-.15039.66667 0 2.2663 1.2013 3.5996 2.668s2.8001 2.666 3.4668 2.666c1.3333 0 6.2673-8.666 7.334-12.666l.79883-3.2012 5.8672 4.8008c3.0667 2.6667 5.4659 5.1991 5.1992 5.7324-.0451.0901-.2392.24627-.4961.42774 1.7576-.85165 3.4741-1.6636 5.1699-2.4414-.56077.11381-.94076.12875-1.0723.0137-.26667-.26666.9332-3.0656 2.5332-6.2656 4.1333-8 3.9996-16.266-.40039-24.133-2-3.4667-3.2003-6.2676-2.9336-6.2676.4 0 2.3999.93333 4.5332 2 3.3333 1.7333 4 2.9327 4 6.666 0 2.5333 1.4673 8 3.334 12 2.8 6.4 3.7333 7.3346 6 6.668 2-.66666 2.4005-.40026 1.8672 1.0664-.0674.17515-.3416.42157-.71289.69922 3.8518-2.1486 6.7621-4.583 9.2891-7.7734zm-9.2891 7.7734c-2.4135 1.3463-5.1871 2.5869-8.4883 3.834-2.4771.95051-5.4953 2.2673-8.6602 3.7188 3.5279-.71602 14.298-5.4214 17.148-7.5527zm-22.318 9.9941c-10.146 4.9163-20.522 10.635-22.037 12.506-3.2 4-4 1.7342-4-11.732 0-.3517.0156-.69964.0176-1.0508-.97986 1.1085-1.1285 8.7099-.0176 12.783l.80078 3.0664 3.8672-3.1992c2.1333-1.8667 7.8665-5.1996 12.533-7.5996 3.9887-1.9943 7.573-3.8813 8.8359-4.7734zm-19.225-47.662c.38405-1.3453.76384-2.6896 1.1816-4.0391-.45222 1.436-.83428 2.6925-1.0606 3.541-.0467.18263-.0777.32431-.12109.49805zm10.594-28.744c-.0145-.86796-.0387-1.3535-.0723-1.3535-.35865 0-4.155 10.559-7.1289 19.375 2.0689-5.9317 4.4676-11.926 7.2012-18.021zm-7.2012 18.021c-.22051.63222-.43339 1.2636-.64648 1.8945.20118-.6042.43479-1.267.64648-1.8945zm-.64648 1.8945c-.54763 1.6447-1.0524 3.1782-1.4785 4.5254.46803-1.5041.96823-3.0146 1.4785-4.5254zm11.012-26.697c.25462-.52718.51773-1.057.77734-1.5859l-.81445 1.5469zm-25.67 38.697c-.58818 1.5334-1.1597 3.0652-1.6992 4.5957l-.19141.54687.45703-1.2129c.53284-1.3936 1.0035-2.7008 1.4336-3.9297zm-1.8906 5.1426-2.6094 6.9199-3.7324-7.7324c-4.8-9.8667-11.467-20.268-12.934-20.268-.66667 0-1.2012 1.0676-1.2012 2.2676 0 3.6-2.1318.40026-4.3984-7.0664-1.2-3.7333-3.4664-9.734-5.0664-13.334l-2.8008-6.5332-2.5332 4.9336c-1.325 2.5296-2.6418 4.6054-3.082 4.9863 1.2074 9.3315 4.9336 14.147 15.215 23.547 7.0667 6.4 12.4 12.534 14.934 17.334l3.8672 7.332zm-38.357-35.826c-.43673-3.3752-.553-7.3266-.51758-12.32.038-3.0377.0381-5.2766.002-6.9453-.17199 1.915-.26953 4.3771-.26953 7.3457 0 6.5333.26602 12 .66602 12 .0257 0 .0721-.0394.11914-.0801zm100.68 202.85c.63833.70863 1.0452 1.1889 1.1699 1.3867.0136-.0517.0293-.10219.0293-.16015 0-.5891-.50646-1.0331-1.1992-1.2266zm1.1699 1.3867c-.009.0349-.0163.0697-.0312.10157.0128.00026.049.006.0606.006.0256 0 .0142-.0384-.0293-.10743zm-.0312.10157c-.42364-.009-1.6594-.19092-3.2539-.44922.35941.22303.81298.46996 1.3145.7207.91148.34181 1.7219.19391 1.9394-.27148zm-56.646-18.139c-4.4984-3.6318-9.0726-7.7319-12.758-11.59-.26106-.27091-.46139-.48707-.70703-.74414l-1.0273.87695 6.5332 6c3.7333 3.2 7.0668 5.8667 7.4668 6 .15431 0 .32201-.20544.49219-.54297zm-44.02-24.619-5.1387-2.5703c-2.8871-1.4436-5.9179-2.8298-9.0117-4.1426 1.3762 1.0346 3.3499 2.1407 6.3438 3.6094 3.9137 1.9569 6.4042 2.9279 7.8066 3.1035zm-31.775-13.123c-2.2655-.68854-4.4896-1.3066-6.6543-1.8555 2.3059 1.1922 5.2708 2.0756 6.6543 1.8555zm46.934 48.5c-1.5051-.0111-4.7679-.28563-8.4648-.63867.89374.91032 2.1336 1.0918 4.4336 1.0918h4.5332zm142.35 95.498c.0172.5765.006 1.0534-.0488 1.3945.21158-.34305.2242-.8095.0488-1.3945zm-.0488 1.3945c-.27253.44187-.86937.68204-1.7949.71875 1.0607.38308 1.6224.3545 1.7949-.71875zm-1.7949.71875c-.0937-.0339-.16777-.0522-.26953-.0918-5.103-1.9998-11.538-3.641-19.299-4.8906.46675.27761 1.1008.44305 1.9648.62305 1.8667.4 6.8003 1.7331 10.934 3.0664 3.0292.92416 5.239 1.3497 6.6699 1.293zm-19.568-4.9824c-1.2619-.75052-1.2608-2.3512-.96875-7.5098.26667-4.1333-.13307-9.2006-1.0664-11.334-.8-2-6.4004-8.399-12.4-14.266l-10.799-10.4-1.4668 9.8672-1.334 9.7324-5.8672-6.9336c-5.2-6.1333-5.9992-6.6665-7.1992-4.5332-.8 1.3333-1.4668 9.2001-1.4668 17.467l-.12305 14.027c5.0006.6434 10.556 1.0664 17.457 1.4394 9.5917.45062 17.99 1.2768 25.234 2.4434zm-42.691-3.8828c-3.8051-.48958-7.2977-1.1086-10.768-1.9453-.30668.49169-.49923.87263-.44335.98437.26666.13334 2.9338.80118 5.8672 1.2012l5.334.93359zm-30.324-8.584c-2.9545-1.2099-6.1319-2.5594-9.6855-4.1094-8.056-3.5333-13.45-5.979-17.357-8.1894.0463.30604.1322.56383.29102.72266 1.0667 1.0667 25.067 11.867 26.533 11.867.076 0 .14894-.11774.21875-.29101zm-45.891-39.672c-.90788-2.0554-1.743-3.9759-2.3281-5.3711-2.8379-6.9796-3.9008-8.5519-3.3105-5.9082.5732.86842 1.4974 2.6679 2.7773 5.5078l2.666 6.4004zm-5.6387-11.279c-1.3375-2.0264-.73014 1.1075 1.9766 8.5742 2 5.0667 3.066 10.267 2.666 11.467-.43286 1.1254-.87828 1.4473-2.041.81641 3.5649 3.2037 6.041 5.3397 6.041 5.1836 0-.26667-2.1327-6.3991-4.666-13.732-2.2087-6.1165-3.5407-10.356-3.9766-12.309zm2.6016 20.857c-1.5877-1.4268-3.3655-3.0484-5.3457-4.873.65609 1.0755 1.5284 2.0147 2.7207 2.9902 1.1691.93527 1.9969 1.542 2.625 1.8828zm38.109 40.719-7.9336.27929c.74166.034 1.5846.0527 2.666.0527 2.4718 0 4.4911-.14749 5.2676-.33203zm-28.861-.18555c-11.154-.78349-22.692-2.2541-29.207-3.8828-3.3502-.86952-6.7947-2.0028-10.312-3.3828l-1.1543-.2168 4.2676 2c4.9333 2.2667 25.201 6 32.268 6h4.7988zm340.58 9.6387c-1.1398-.30746-1.8992-.5277-3.1191-.85351-10.346-2.8217-19.428-5.5354-21.984-6.5957l-2.8164.32813 13.867 3.7324 13.732 3.7344zm131.33-103.49c-1.2826 1.5747-2.2217 2.7143-3.7793 4.6348-1.1817 1.4621-2.32 2.8232-3.4727 4.2188.67808-.58787 2.5064-2.6898 4.5391-5.2871 1.2156-1.5103 2.0966-2.6653 2.7129-3.5664zm-24.027 27.934c-2.8077 2.9435-5.4074 5.5312-7.6992 7.627l.34766.14062 4-4 4-3.8672zm-7.6992 7.627-7.9199-3.1934c-13.2-5.3333-18.399-4.5335-28.266 4.5332l-6 5.4668 3.5996 3.1992c3.0667 2.8 3.3324 3.4674 1.7324 4.8008-1.0667.93333-1.5992 2.2669-1.1992 2.9336.38005.57008.212 1.2734-.25 1.873l10.783-4.5391c8.4-3.6 17.333-7.6012 20-9.2012 1.9199-1.08 4.4741-3.088 7.5195-5.873zm-38.303 19.613-4.0606 1.709c.74218.22955 1.8821-.11455 3.377-1.0488.26824-.19161.49725-.4183.68359-.66016zm-4.0606 1.709c-.14208-.0439-.27264-.10285-.38476-.18945l.0293.33984zm-.38476-.18945-.35547-4.2715c-.013.55802-.0576 1.0488-.14844 1.4121-.2365 1.4781-.0521 2.43.50391 2.8594zm-.35547-4.2715c.0443-1.8995-.33088-4.6913-.94922-6.8555-1.3333-4.4-1.2006-5.3332.66602-6.5332 4.4-2.6667 11.2-8.9336 18-16.934l6.9336-8-16.799.53516c-16.4.4-16.801.53229-20.801 4.2656-2.2667 2.1333-4.4003 5.0671-4.9336 6.4004-.35629 1.1876-1.2396 2.1583-1.9942 2.3574 1.1933.52935 2.7476 1.2701 4.7949 2.3086 10.4 5.2 14.266 10.934 15.066 22.268zm-19.877-24.764c-2.897-1.2851-3.2827-1.1066-.96874.49024.21491-.28452.45177-.44727.69726-.44727.0874 0 .1789-.0185.27148-.043zm-.96874.49024c-.60216.79718-1.0371 2.5902-1.0371 4.752-.26667 5.8667 1.2004 6.8008 10.4 6.8008 3.7333 0 5.3332.66693 6.5332 2.9336 1.7 3.1 1.8996 9.5746.88086 13.631.8161-1.6528 1.1191-3.6157 1.1191-6.166 0-7.6-4.134-13.466-13.334-19.066-2.0561-1.2336-3.5464-2.1835-4.5625-2.8848zm10.838 33.326c2.2461-.86102 4.0124-1.6608 4.5254-2.1738.59971-.59972 1.0745-1.682 1.4141-3.0332-1.0146 2.0538-2.8484 3.6261-5.9394 5.207zm-46.887 9.4277c-3.7861.0444-7.9554.0418-12.721-.002-3.9042-.0331-8.1388-.009-12.496.0645l-.4375.46875 8.5332.80079c8.6489.91577 14.723.42913 17.121-1.332zm-36.924.375c-6.9668.24375-13.772.59051-19.664 1.0117 6.5782.007 17.621-.48164 19.664-1.0117zm-40.236 2.6035c-5.8087.29228-8.7222.1255-9.2949-.44727-.78-.77999-.90127-1.5595-.5332-2.2617-2.3416 2.1526-.80408 3.1953 4.8008 3.1953 2.5768 0 4.1873-.11353 5.0273-.48633zm48.873-41.902c5.3787-3.4042 10.288-6.4186 14.828-9.0898-5.4566 3.0745-11.863 6.8324-14.195 8.4121-.19226.16022-.40915.39556-.63281.67774zm118.25-18.756c-2.5658-1.5016-10.346-5.4352-17.613-8.9414l-.9375.0859 10.268 4.9336zm-29.656-14.463-4.4141-1.8535c-.12797.6454.67266 1.3997 2.4531 1.8613.73274.18318 1.4041.16208 1.9609-.008zm48.064-10.525c-.45088-.0742-1.0386-.15792-1.6367-.24219.006.23351.0895.4547.27735.64258.18367.18367.68368.0148 1.3594-.40039zm-85.396-80.693c-1.9326 1.5587-3.4418 2.7444-4.2559 3.3184.3888.28542 1.2081-.0513 2.4258-1.1582.70973-.64521 1.351-1.4162 1.8301-2.1602zm-4.2559 3.3184c-.2599-.1908-.29835-.69159-.15235-1.4121-.37351 1.052-.62109 1.7789-.62109 1.8535 0 .0789.31188-.11596.77344-.4414zm-.15235-1.4121c.23214-.65382.54163-1.5061.89063-2.457-.46727.99645-.76155 1.8201-.89063 2.457zm-59.877 110.16c-4.9968 4.6762-11.964 8.9447-21.678 13.691-.36364.18182-.68241.33199-1.041.50977l.24219.55664 7.4668-4c4.1333-2.2667 9.1982-5.4659 11.465-7.1992l3.8672-3.2012zm-22.719 14.201-1.0918-2.5098c-1.3333-2.8-1.4676-2.7995-4.2676 1.8672-1.1368 2.067-3.1497 4.2022-4.8692 5.498 2.4655-1.1015 6.0839-2.8008 10.229-4.8555zm-10.229 4.8555c-1.7014.76012-2.9755 1.3008-3.1308 1.3008-.30695 0 .19238-.98926 1.1074-2.4629l-2.8398 3.6641 3.4668-1.6016c.4198-.2099.8976-.52442 1.3965-.90039zm-2.0234-1.1621 1.293-1.6699c2.3399-2.9138 4.3059-5.9163 5.9004-8.9668-1.2135 1.9774-2.7054 4.1443-4.5664 6.6992-1.0753 1.5281-1.9521 2.8506-2.627 3.9375zm7.1934-10.637c3.9161-6.3813 4.8296-10.717 5.0332-19.166.22661-7.1762 1.3126-12.471 4.0996-17.748-2.0412 2.7786-4.2324 11.413-4.2324 18.146 0 6.2429-1.6795 12.605-4.9004 18.768zm9.1328-36.914c.42425-.5775.84434-.91993 1.2344-.91993.66667 0 1.1992-.93333 1.1992-2 0-1.119 2.6046-4.6414 5.3496-7.8105-3.4602 3.9065-5.9799 7.3161-7.7832 10.73zm7.7832-10.73c.63151-.71296 1.2886-1.4402 1.9844-2.1895.0714-.0784.11529-.13549.18554-.21289-.70436.74075-1.4399 1.5595-2.1699 2.4024zm-.29492-2.7754c-.75105.75579-1.4972 1.5295-2.2695 2.3418l.28125-.28906c.79071-.79071 1.4244-1.4479 1.9883-2.0527zm-2.2695 2.3418-5.1856 5.3106-4.2656-3.4648c-2.2667-2-5.733-4.0004-7.5996-4.4004-4.2667-1.0667-15.2.13359-24.4 2.9336l-7.2012 2.1328 4.5332 3.8672c2.5333 2.1333 8.4003 5.7328 12.934 8.1328 7.4667 4 8.6668 4.2669 13.467 2.9336l4.6152-1.2695c.10197-.19428.20712-.33007.31836-.33007.66667 0 1.7328-1.2008 2.1328-2.8008.60518-1.8156 5.6735-7.8091 10.652-13.045zm-13.104 16.176c-.38416.732-.6781 2.749-.80468 5.3164.10507-.48607.20913-.98958.32421-1.3809l1.1992-4.1328zm-.80468 5.3164c-.50364 2.3297-.87696 5.5017-.87696 7.8184 0 1.8198-.20706 3.5671-.65429 5.3125.97023-3.1985 1.4072-6.5872 1.4551-10.512 0-.9267.035-1.7844.0762-2.6191zm-1.5312 13.131c-.0434.14304-.0775.28935-.12305.43164.0402-.14388.0862-.28779.12305-.43164zm-.12305.43164c-1.7747 5.5404-5.2227 10.541-11.223 16.791-8.3168 8.7205-13.717 13.474-21.674 17.619.0342.46987.0951.77929.20704.77929 1.7333 0 14.4-10.666 21.066-17.732 6.6312-7.1188 10.187-12.312 11.623-17.457zm-32.896 34.41c-.088-1.2084.0518-3.7482.33985-6.8203l.66797-7.4668 9.0664-3.5996c16.267-6.6667 18.933-9.7339 20-23.867l.66602-8.4004-6.9336.53516c-10.667.93333-16.266 5.0661-21.6 16.133-3.3333 7.2-6.7997 11.466-15.066 19.199-10.533 9.7333-12.399 12.801-12.666 20.801-.0904 1.8981-.50129 3.1724-1.4121 4.0527 2.2779-.7988 4.2426-1.4843 6.6113-2.3203 8.8873-3.1027 15.144-5.5464 20.326-8.2461zm-26.938 10.566c-1.3425.47078-2.6292.92346-3.8965 1.3672.52582.19187 1.2287.0406 2.2422-.35351.68713-.25768 1.2215-.5954 1.6543-1.0137zm-24.217 7.4707c-.0798-.019-.17083-.0314-.23828-.0566-3.1843-1.2544-5.0982-15.215-4.7578-28.445-.86839 1.7876-.86734 5.0246-.4414 10.846.8 10.933 3.0664 19.066 5.0664 19.066.57469 0 .66084-.5564.3711-1.4102zm166.53-213.82c-1.2531.52284-2.8623 1.4227-4.4668 2.4434.44529-.11086 1.0682-.38182 1.9688-.8125 1.4241-.58259 2.209-1.0403 2.498-1.6309zm-17.004 16.764c-2.692 7.0478-5.912 13.641-9.7383 19.918.22981-.24171.47875-.53211.77735-.91601 2.299-3.1036 7.954-15.205 8.9609-19.002zm-9.7383 19.918c-1.2069 1.2694-1.6546.43341-3.2226-4.3828-1.4667-4.1333-1.8668-8.7999-1.4668-14.533.53333-7.0667-.00065-10.667-3.334-20.801-1.2682-4.0423-2.2878-7.535-2.8047-9.7285-.42531.75742-.88889 1.5678-1.4629 2.5293-4.2667 7.2-4.5332 8.2658-4.5332 19.732 0 9.4967-1.5021 18.682-4.5039 27.596 1.5204-3.7583 2.0827-4.1054 3.3047-2.3945.8 1.2 2.1341 1.732 2.8008 1.332.8-.4-.80013 3.3332-3.4668 8.5332-3.2 6.4-5.4678 9.334-7.2012 9.334-2.2667 0-2.2656-.26641-.26563-5.0664.14272-.31713.36079-.8495.52344-1.2207-.26058.54058-.51886 1.0824-.79101 1.6211-4.4 8.9333-15.599 26.133-20.266 31.6-.453.51505-.71973.85059-1.1113 1.3066 1.8527-2.1171 5.4838-5.0288 8.3106-6.2402 2.2667-.93334 7.066-5.0659 10.666-9.1992s6.6669-6.9348 6.9336-6.1348c.4.93334-2.3986 4.5342-5.8652 8.2676-.53934.53935-1.1186 1.0814-1.6836 1.623 12.453-10.76 22.071-21.685 29.439-33.773zm-29.439 33.773c-.76341.65966-1.5316 1.3179-2.3164 1.9766-4.9309 4.1199-8.8874 7.3527-11.965 9.7793 3.9722-2.6427 9.4814-7.1545 14.281-11.756zm-14.281 11.756c-2.1488 1.4295-3.8769 2.3535-4.7031 2.3535-.92344 0-.67915-.80729.20703-1.9355-5.4846 6.4582-4.2658 6.4909 4.4961-.41797zm-4.4961.41797c.13812-.16264.26923-.31929.41601-.49024-.14677.16772-.29322.3339-.41601.49024zm22.584-35.018c1.6706-3.4656 3.1098-6.9692 4.3047-10.518-.13849.34233-.2719.67155-.42774 1.0723-1.0573 2.8194-2.672 6.6952-3.877 9.4453zm14.805-60.375c.67923-1.2096 1.157-2.1341 1.4746-2.8223-.46967.15286-.91465.29483-1.2031.35742-.17335.23335-.39496.55788-.59375.8379.0527.4002.16175.94582.32227 1.627zm-8.6699 6.4902c-.0405-.98036-2.0181-4.6663-4.5254-8.3613-.0654-.096-.12137-.18426-.18555-.2793l-.21484.41211 2.5332 4.4004zm34.023-95.01c-9.9622 9.1413-19.205 18.644-26.902 27.541 4.1565-4.4743 9.6666-10.206 15.154-15.693zm-26.902 27.541c-2.5088 2.7006-4.6428 5.052-5.6465 6.3066l-4.8008 6 2.1348-6.5332c2-5.8667 1.9986-6.9335-.13476-13.467-1.7333-5.8667-1.8665-7.7322-.53321-10.799.17399-.42047.32332-.77385.46485-1.0996-6.2406 13.896-10.445 26.555-12.199 36.49.79007-1.6489 1.7342-1.6575 2.8008.20899.53333.79999 1.7346 1.066 2.668.66601.67571-.19306.5021.88467-.34766 2.8027 3.7475-6.0321 9.1057-13.076 15.594-20.576zm-15.594 20.576c-1.4241 2.2922-2.6451 4.4556-3.5703 6.418.67232-1.023 1.4375-2.3012 2.3184-3.8867.51524-.95688.92797-1.8 1.252-2.5313zm-3.5703 6.418c-1.0529 1.6021-1.8556 2.5192-2.4121 2.7266l.0625 2.8535 1.8672-4.5332c.14911-.34083.31611-.69416.48242-1.0469zm-2.4121 2.7266-.0703-3.1465c-.0312-2.8121.29519-6.0717.93164-9.6758-.39516.82469-.75328 2.031-1.0645 3.6758-1.0755 6.6069-1.0366 9.6085.20313 9.1465zm13.061-49.312c.0633-.14105.13155-.28449.19531-.42578-.0628.13662-.1254.26486-.19531.42578zm-7.668 86.281c.60986 1.3782 1.1344 2.6852 1.5918 3.9512-.42655-1.4886-.97531-2.8569-1.5918-3.9512zm1.5918 3.9512c.81409 2.841 1.1796 6.0905.67774 8.5996-.66667 2.8-1.1992 7.6013-1.1992 10.668-.13333 6.4-.39922 6.2658-5.1992-2.2676-3.0667-5.4667-3.2016-6.2673-1.6016-9.334 1.0667-1.8667 1.8667-3.8665 2-4.5332 0-2.2667-21.733 3.7342-29.6 8.2676-2 1.2-4.2659 3.8672-5.1992 5.8672-.75293 1.8602-1.535 2.7437-2.2832 2.7598 5.1767 5.3014 11.328 12.525 15.291 18.037-.73845-1.7325-.25223-2.2355 1.3926-3.332 1.3333-1.0667 2.5327-1.3322 2.666-.79883 0 .53334.53359 2.6655.93359 4.7988.53333 2 3.1995 6.0003 6.1328 8.9336 3.5263 3.5263 4.6877 4.9992 4.5293 6.543 3.721-7.2327 7.918-16.941 9.8711-23.477 4.2519-14.519 4.9359-21.466 1.5879-30.732zm-11.459 54.209c-.56392 1.0961-1.108 2.1077-1.6406 3.0703.39453-.38314.76971-.86719 1.1113-1.4785.29323-.58646.47809-1.0926.5293-1.5918zm-1.6406 3.0703c-2.3351 2.2677-5.4147.6246-7.1465-3.9922.37872 1.5372.6643 2.9728.79102 4.1133.26666 3.6 1.0668 6.5332 1.4668 6.5332.84293 0 2.6977-2.6944 4.8887-6.6543zm-7.1465-3.9922c-.81674-3.315-2.1082-7.1539-3.4746-9.8867-.6984-1.3968-1.888-3.2432-3.3926-5.3359.33905.79545.90997 1.8256 1.791 3.3359 1.6 2.8 3.7346 7.466 4.668 10.666.12504.42872.26286.83324.4082 1.2207zm-22.158-33.26c-.60177-.61627-1.1856-1.1975-1.7559-1.7559.538 1.1724 1.1344 1.7692 1.7559 1.7559zm-1.7559-1.7559c-.76432-1.6656-1.4101-4.4708-1.8281-8.3379l-1.0664-8.2676-10.934 11.602c-6.9333 7.2-11.467 13.066-12 15.6-.93333 4.4 1.9997 16.533 5.0664 20.666 1.8667 2.5333 2.0008 2.5329 6.8008-.40039 8-5.0667 11.867-11.199 12.533-20.266.4-4.4 1.0672-7.4664 1.8672-7.0664.66667.4.79896 3.8667.26563 8l-.79883 7.1992h12.953c-4.5539-7.2962-10.823-15.198-16.287-20.133-3.0667-2.9333-4.4008-4.5344-2.8008-3.7344 1.3671.66603 3.611 2.5761 6.2285 5.1387zm12.859 18.729c.33843.54222.66605 1.0793.98438 1.6133l-.73828-1.6133zm.98438 1.6133 2.8613 6.2539c4.4 10 4.4001 13.599-.53321 23.332-2.4 4.6667-3.7326 8.9337-3.1992 10.4.26814.93848-.17462 2.1843-1.627 4.1191 4.507-5.0873 7.562-9.448 8.4258-12.385 2-7.0667 1.4671-15.066-1.5996-23.066-.92769-2.5125-2.4494-5.5026-4.3281-8.6543zm-2.498 44.105c-4.3234 4.8801-9.9919 10.428-16.418 16.07 2.4252-1.7568 5.0362-4.1738 8.8438-7.9219 3.7128-3.6465 6.1378-6.2348 7.5742-8.1484zm-16.418 16.07c-3.0101 2.1804-5.7333 3.3412-10.09 4.7441-13.333 4.4-16.532 6.4005-18.932 11.867-1.0667 2.6667-2.4003 5.7322-2.9336 6.7988-.22225.44451-1.6604 1.5438-3.7012 2.9316 3.6877-2.2619 7.4541-4.684 10.9-7.0645 8.623-5.8948 17.199-12.643 24.756-19.277zm-35.656 26.342c-10.152 6.2268-19.633 11.141-19.633 9.8691 0-.53334 2.1327-8.0004 4.666-16.4.24045-.78245.45762-1.5097.6875-2.2676l-.0195.002-3.0664 9.8652c-1.7333 5.4667-2.9346 10.001-2.668 10.268.60949.60949 13.504-6.896 20.033-11.336zm-7.6582-34.225c1.3628-6.9382 2.204-13.588 2.7051-21.262-.005.0673-.008.0882-.0137.15625-.53334 6.5333-1.4667 14.132-2 16.932-.54747 2.2507-.81292 3.5239-.69141 4.1738zm42.352-152.53c-.11044.29714-.20878.58151-.32617.88672-.5563 1.4885-1.1036 2.8724-1.6523 4.2129.87447-1.9402 1.5272-3.5742 1.9785-5.0996zm-1.9785 5.0996c-.68554 1.521-1.496 3.2188-2.4805 5.252-1.3318 2.7924-2.6204 5.1936-4.002 7.457 2.4701-3.82 4.4867-7.8336 6.4824-12.709zm-6.4824 12.709c-2.8733 4.4437-6.3646 8.6551-11.199 13.744-.61716.65144-1.2887 1.3731-1.9395 2.0664.52139-.52215 1.0042-.98362 1.541-1.5332 5.332-5.4224 8.6913-9.5158 11.598-14.277zm-13.139 15.811c-4.9177 4.9249-9.0574 8.5751-9.6602 8.334-.53334-.4-1.3339-2.5346-1.8672-4.668-1.0667-4.6667-1.7328-4.9324-4.1328-1.7324-.74875.99833-1.173 1.2799-1.4297.4668l.76367 15.666 4.7988-5.334c2.2076-2.6724 7.1168-8.0336 11.527-12.732zm-17.09 2.4004-.47461-9.7012c.0131.68034.0371 1.3521.0371 2.0332.0709 4.3982.14568 6.7435.4375 7.668zm-.47461-9.7012c-.0436-2.2584-.14697-4.3843-.30664-6.1641.0694 1.3873.12912 2.6792.21094 4.1973zm-.30664-6.1641c-.0806-1.6106-.15877-3.2138-.22266-4.6641-.53776-.17549-.66093.0925-.36523.86133.23159.57898.42841 2.0252.58789 3.8027zm3.4902-52.02c1.9661-9.0676 4.2241-15.879 7.0918-21.098-1.7068 1.7277-4.6382 8.6503-6.3711 15.582-.61152 2.3905-.9148 3.901-.72071 5.5156zm2.209-22.781c-1.1575 1.4729-1.8887 2.5334-1.8887 2.8652 0 .07357-.0634.28168-.10157.43555l.23633.63086 1.4668-3.1992c.11391-.26581.20122-.49878.28711-.73242zm-140.31 7.1445c.0911.01406.18711.05443.28711.12109.8.4 1.334 1.6004 1.334 2.4004 0 .93333 1.6001 3.9993 3.4668 6.666 1.8667 2.8 3.2003 5.3344 2.9336 5.7344-.8.66667-21.601 2.9323-22.268 2.2656-.4-.26666-1.0668-3.4659-1.4668-7.1992-.8-6.2667-.66614-6.6667 1.8672-6 1.6.26667 5.0672 1.0668 7.8672 1.4668 4.6667.93333 4.9316.80013 4.9316-2.5332 0-1.8667.40885-3.0203 1.0469-2.9219zm208.82 43.455 3.0664 3.5996c2.2667 2.8 2.8014 4.6658 2.1348 7.7324-.4 2.1333-1.2016 7.3335-1.6016 11.467l-.79883 7.5996-5.0664-4.3984c-4.9333-4.2667-5.0678-4.5342-3.2012-8.2676 1.0667-2 2.6677-6.9322 3.7344-10.799zm-114.69 9.5723c.0917-.0229.19102.0268.29102.16015.39999.4.53476 1.5999.13476 2.5332-.4 1.0667-.80078.66784-.80078-.79883-.1-1.1.1-1.8258.375-1.8945zm182.54 24.844c.34999-.05.48359.58294.68359 1.8496.26667 1.6-.79896 3.9996-2.2656 5.5996-2.5333 2.4-2.8008 2.5337-2.8008.40039 0-1.3333 1.0671-3.8663 2.4004-5.5996 1.0667-1.4667 1.6324-2.2 1.9824-2.25zm-264.65 57.584c.53333 0 2.3995 2.799 4.1328 6.2656 2.1333 4.4 2.4003 5.7332.93359 4.5332-1.7333-1.4667-6.1348-8.8004-6.1348-10.4 0-.13333.53502-.39844 1.0684-.39844zm34.287 45.361c.33838-.0287.7875.35521 1.3125 1.1719.4.66666.13203 1.5995-.66797 2.1328-.66667.4-1.332-.13255-1.332-1.1992 0-1.35.25244-2.0686.6875-2.1055zm-61.889 4.1055 4.668 2.1328c3.7333 1.8667 4.5333 2.9331 4 5.0664-.4 1.4667-.80026 4.3994-.93359 6.666v4l-1.4668-3.332c-.66666-1.8667-2.4005-5.8669-3.8672-8.9336zm85.334 9.1992c.66667 0 5.0672 1.8676 9.8672 4.2676 8.4 4.1333 11.332 7.7324 6.2656 7.7324-2.5333 0-13.065 6.2668-19.332 11.467-3.2 2.6667-4.134 2.9329-7.334 1.5996-2-.93333-3.8667-1.7338-4-1.8672-.26667-.13334 2.0003-3.5996 4.9336-7.5996 2.9333-3.8667 6.1336-9.0654 6.9336-11.332.8-2.4 1.9994-4.2676 2.666-4.2676zm-207.47 40c.13334 0 1.8672 3.2003 3.8672 6.9336 1.8667 3.8667 4.4001 8.2663 5.4668 9.5996 2 2.5333 2.1335 2.534 7.4668-2.666l5.5996-5.2012-.93359 5.334c-.4 2.9333-.80078 6.9341-.80078 8.8008 0 3.3333-.39961 3.599-7.5996 4.2656-5.7333.4-8.2667.13321-10-1.4668-2.1333-1.8667-2.4004-1.7339-2.4004.13281 0 4.6667-2.132 1.868-7.332-9.332-2.9333-6.2667-5.6005-12.134-5.8672-12.801-.26667-.8 1.3328-.93373 4.1328-.40039 3.4667.66666 5.2004.26744 6.4004-1.1992.93334-1.0667 1.8667-2 2-2zm376.13.26758c1.0667-.13334.93437 1.866-.26563 6.666-1.0667 3.8667-1.8672 8.2658-1.8672 9.7324 0 1.6-1.866-.8-4.666-6-2.5333-4.6667-4.668-8.6655-4.668-8.7988 0-.26667 2.2684-.66693 5.0684-.9336 2.6667-.26666 5.5984-.53268 6.3984-.66601zm-270.8 1.0664c.26666 0 3.4659 3.2003 7.1992 6.9336l6.668 7.0664-4.2676 1.5996c-6 2.1333-6.2676 2.1332-6.2676-1.4668 0-1.7333-.93334-5.5994-2-8.666-1.0667-2.9333-1.5987-5.4668-1.332-5.4668zm-16 49.332c1.0667 0 2 .53308 2 1.0664 0 .66667-1.3336 2.2677-2.9336 3.7344-2.6667 2.4-2.8 2.3995-2 .13281.53334-1.3333.9336-3.0658.9336-3.7324 0-.66667.93333-1.2012 2-1.2012zm18.4 5.334c.13333 0 2.9323.80052 6.2656 1.8672 5.8667 1.7333 5.866 1.7335 2.666 3.4668-1.8667.93334-4.6656 2.6658-6.2656 3.7324-3.0667 1.8667-3.0664 1.7337-3.0664-3.5996 0-2.9333.13372-5.4668.40039-5.4668zm310.76 1.2988c.4875-.008.84375.16836.84375.56836 0 .26666-.93282.93203-2.1328 1.332-1.0667.4-1.6012.26679-1.2012-.53321.5-.83333 1.6777-1.3542 2.4902-1.3672zm60.844 32.301c1.8667 0 2.5324.26797 1.7324.66797-.93333.26666-2.532.26666-3.332 0-.93334-.4-.26706-.66797 1.5996-.66797z"/>
		<path d="m131.43 100.24c1.8 12.2 3.8 18.8 6.7 21.5 2.7 2.5 8.5 4.6 13.9 5.2 2.5.2 2.5.1 2.4-6.6 0-5.1-.6-7.4-2.1-9.5-2.4-3.3-9.5-8.7-16.4-12.6l-5.2-2.9z"/>
		<path d="m485.43 102.54c-15.5 4.6-18.3 7.4-19.2 19l-.5 6.4 4.4-.7c2.4-.4 5.4-.9 6.7-1.3 1.7-.4.7 1-3.7 5.7-8.1 8.5-9.6 11.8-8.1 17.8.6 2.6 1.9 6.2 2.9 8l1.7 3.3 4.5-3c2.5-1.7 5.5-4.9 6.8-7.2 2.2-3.9 2.3-4.9 1.8-16-.4-9.7-.2-12 1-13.1 1.5-1.2 8.5-14.5 9.7-18.6.9-2.7.3-2.7-8-.3z"/>
		<path d="m80.429 118.34c.3 1 1 3.8 1.6 6.3 2.3 8.6 4.2 13.5 6.3 15.8 2.2 2.4 10.2 5.2 14.9 5.2 2.6 0 2.8-.3 2.8-3.8 0-5.9-2-11.4-5.1-14.3-2.9-2.7-17.8-10.9-19.9-10.9-.6 0-.9.8-.6 1.7z"/>
		<path d="m68.529 198.04c-3.3 1.2-8.2 3.4-11 4.8l-5 2.6 7.5 3.6c11.3 5.2 16 6.2 20.2 4.2 1.9-.9 5.2-3.4 7.3-5.6 3.4-3.5 3.7-4.1 2.4-5.6-1.8-2.2-10.7-6.4-13.4-6.3-1.1 0-4.7 1-8 2.3z"/>
		<path d="m495.53 198.54c-3.9 1.7-10.5 8.1-10.5 10.2 0 .5 1.1 1.5 2.5 2.1 3.5 1.6 3.1 2.5-.9 2-1.9-.2-4.7.3-6.5 1.2-3 1.6-10 10-10.1 12.2 0 1.5 6.5 4.4 11.4 5 4.8.7 10.2-1.9 19.9-9.3 5.5-4.3 5.9-4.7 3.9-5.6-1.8-.8-.7-1.6 7.9-5.8 5.4-2.7 9.9-5.1 9.9-5.4 0-1-10.4-5.3-16.8-7-7.2-1.8-5.9-1.8-10.7.4z"/>
		<path d="m37.029 258.04c0 1.8 6.7 18.7 8.3 21 2.6 3.7 7.4 5.6 14.2 5.6 4.9 0 5.5-.2 5.5-2.1 0-4.9-2.5-11.3-5.5-14.4-3.7-3.7-22.5-12.1-22.5-10.1z"/>
		<path d="m544.03 287.44c-2.5 1.6-5.5 4.1-6.8 5.5l-2.4 2.5 4.9 3.3c4.2 3 5.5 3.4 11.3 3.4 5.4 0 7.8-.7 14.8-3.9 4.5-2.1 8.2-4.2 8.2-4.6 0-1.2-17.2-8.1-21.5-8.6-3.3-.5-4.8 0-8.5 2.4z"/>
		<path d="m38.029 287.44c0 .5 3.8 4.5 8.4 9 7.9 7.8 8.6 8.2 12.8 8.2 4.6 0 13.4-2.5 14.3-4.1 1.4-2.1-5.1-10.1-10.2-12.8-2.5-1.3-25.3-1.5-25.3-.3z"/>
		<path d="m79.429 371.04c-14.4 7.2-14.3 6.8-3.3 10.4 15.2 5 17.5 4.8 24.5-2.3 3.1-3.1 5.2-6 4.8-6.6-1.1-1.9-10.7-5.9-14-5.9-1.8 0-7.1 2-12 4.4z"/>
	</g>
</svg>
