<?xml version="1.0" encoding="UTF-8"?>
<svg width="128" height="128" version="1.0" viewBox="0 0 96 96" xmlns="http://www.w3.org/2000/svg">
	<path d="m53.196 11.848c-.12637 1.1122-.30331 2.5024-.37912 3.0837l-.13903 1.0742-.4297-1.0363c-.51817-1.2764-1.4028-2.6919-2.2116-3.5766-.68249-.74566-.68249-.72037.18955.60663.82149 1.2638 1.7567 3.9557 1.7567 5.0552v.32859l-.27805-.25275c-.37912-.34125-1.0363-.66984-1.3523-.66984-.25278 0-.77092.54346-.77092.80883 0 .0758.11374-.0506.25275-.27803.30333-.49288.50553-.50551 1.2133-.0884 1.1501.6698 1.3017 1.5797.97311 5.5228-.12637 1.4534-.25274 2.6287-.29067 2.6287-.0379 0-.16428-.21485-.27804-.48025-.42969-.90995-1.782-3.2606-2.6666-4.6129-.64456-.99841-.99841-1.7061-1.2891-2.6034-.59398-1.7946-.61928-2.06-.32859-2.7298.34123-.77093.73301-.94784 1.5166-.66983.46761.17695.53081.17695.32859.0253-.13902-.10111-.4676-.21488-.73301-.26542-.34123-.0506-.46762-.12637-.41704-.25274.0379-.10112.0125-.13904-.0506-.10112-.0758.038-.12638.13901-.12638.21484 0 .0758-.20219.35388-.44231.61927-.39181.42969-.44235.58135-.44235 1.1627 0 .36651.0758.97314.17693 1.3523.10111.37914.16429.70776.15166.73303-.0253.0125-.20221-.21484-.39177-.50551-.53081-.80887-2.2117-3.0079-2.3001-3.0079-.0379 0 .0127.12638.11372.27804.46763.70772 1.921 3.3491 2.6793 4.8783l.84676 1.6935-.54344-.37913c-.74565-.50552-1.6303-.93522-2.7551-1.3396-.51816-.18956-1.2132-.49285-1.5545-.66982-1.327-.73299-2.237-2.199-2.5529-4.1579l-.18958-1.1248.0758.98576c.11376 1.6809.79621 3.3112 1.6809 4.0315l.3286.2654-.37914-.0758c-.20221-.0506-.51815-.11375-.69509-.15164-.17695-.038.16429.11373.75829.35385 3.3365 1.3017 4.5244 1.9589 5.6871 3.109.61927.60663 1.0742 1.188 1.2512 1.5798.13902.34123.26542.63192.26542.65718 0 .0252-.21486.10111-.46761.16431-.26541.0758-.75831.36651-1.1122.64452-.34123.27806-.79619.61927-1.011.7583-.20219.13904-.32858.25277-.27804.25277.0631 0-.0758.24011-.30332.53078-.22748.30332-.4676.63191-.54343.73302-.0758.10111.34123-.30331.93521-.8973 1.1374-1.1501 2.2749-1.8578 2.7678-1.6935.29067.0884.79621 1.3017 1.3396 3.1974.51815 1.8072.65717 2.932.55608 4.398-.0884 1.0995-.61926 3.6524-.83413 4.0063-.0379.063-.22747-.29069-.41704-.78354-.5308-1.3397-1.3396-2.6288-2.2117-3.5008-.92257-.93522-1.2891-1.049-2.1611-.69509-.65717.2654-.50551.3665.18957.12638.594-.21483 1.0869.0506 1.7314.92258.49288.68247 1.3144 2.2243 1.3144 2.4897s-3.5387-1.2764-4.6382-2.0221c-.44234-.30332-.54344-.34122-.35386-.12638.12636.15167.70773.56871 1.2891.90995.58136.35388 1.049.64456 1.049.65717 0 .0127-.34123.0379-.77092.0631-.88468.038-1.8578.40444-2.2875.88469l-.29066.31594.44233-.31594c.63189-.45499 1.1753-.60666 2.199-.60666 1.049 0 1.8704.20222 2.9194.70775.68246.32859.7583.41705.90996.93521.0884.31597.2022.93523.24012 1.3902.0631.72038.0379.89732-.25276 1.4534-.41705.79622-1.2133 4.0948-1.3017 5.3965-.0379.54344-.11374.98577-.15164.98577-.0506 0-.27805-.32859-.51817-.73302-.53079-.90993-2.6666-3.0458-5.0553-5.0805-2.4771-2.1106-4.4865-4.1579-5.2954-5.3712-.55606-.85938-.65719-1.0742-.60662-1.466.13903-1.0869 1.6682-2.515 2.6793-2.515.69508 0 1.2891.40441 1.6682 1.1248.16428.30331.29067.49288.29067.40441 0-.24013-.45497-1.0616-.72037-1.3017-.12638-.11374-.41706-.29067-.65719-.39178l-.41704-.17694.68246-.26539c.3665-.13904.87203-.29069 1.1248-.3286.60663-.1011 1.6935.11374 2.4518.49288.35389.17694.51819.22749.37917.11374-.49289-.39177-1.188-.68245-1.921-.79619-.4044-.0631-.77091-.0884-.82146-.0506-.18959.10111-.10111-.1011.2022-.50554.72039-.96049 1.1374-2.2369 1.2638-3.8167l.0757-.88466-.18957 1.011c-.25274 1.3017-.39179 1.7314-.8594 2.6287-.49288.94788-.98577 1.3649-2.1232 1.7946-1.0869.41707-3.1848 1.5039-3.3996 1.7693-.30332.37916-.37916.16431-.37916-1.1122 0-3.0079.77093-5.8009 2.4644-8.9731.45496-.83412.80885-1.5292.78356-1.5545-.0126-.0126-.50553.63193-1.0869 1.4534-1.2259 1.6809-2.1864 3.4628-2.8056 5.2195l-.4297 1.2259-.36651-.69511c-.24012-.45496-.74565-1.0363-1.4155-1.643-1.327-1.2133-1.504-1.6177-1.4913-3.3997.0125-1.0111-.0125-1.1754-.11372-.82148-.17693.66981-.0506 2.6414.2022 3.1216.25276.46762.21484.49289-.26542.21487-.39176-.24013-.37913-.2275 1.0237.85938.94786.73303 1.466 1.4155 1.8704 2.4897.31595.83412.31595.85941.12637 2.4771-.1011.83411-.11372 1.5039-.038 1.9842.063.40442.0884.73301.0506.73301-.0252 0-.54342-.18958-1.1501-.4297-.59398-.24012-2.0474-.733-3.2354-1.0869-1.1753-.36649-2.3507-.75829-2.6034-.89731-.69509-.35385-1.2512-1.049-1.2512-1.5798 0-.74563.74566-1.9463 1.8704-2.97.74564-.69508.69509-.72036-.13902-.0757l-.46762.36648.13901-.36648c.22751-.58135.20222-2.0474-.063-2.793-.27806-.83412-.39179-.80884-.13902.038.41706 1.3649.13902 2.654-.87204 4.0821l-.55606.79614-.25277-.44235c-.51815-.88467-1.9716-1.4786-3.5008-1.4534l-.75831.0253.94789.1011c2.3507.25277 3.2733 1.0616 3.2859 2.8815 0 .74564.0252.8341.41707 1.2006.58135.54345 2.6919 1.5671 4.8278 2.3507.97313.35385 2.2496.87204 2.8436 1.1501l1.0742.50553.50552.97313c.7583 1.4787 2.1864 3.2733 4.1959 5.2827.98577.99842 1.7694 1.8199 1.7314 1.8199-.25275 0-3.6903-.66984-3.9431-.77093-.56872-.21485-1.8325-1.2006-2.6414-2.0474-.66981-.69511-.79619-.89732-.79619-1.2638 0-.73305-.48025-2.0095-1.0237-2.7425-.58134-.77092-.51816-.73303-2.8056-1.782-.88467-.40443-1.9589-.90994-2.376-1.1248-1.2259-.61927-.99843-.35388.32858.3665.6572.36651 1.2006.68246 1.2006.6951 0 0-.64454-.0125-1.4154-.0252-1.3017-.0379-3.1343.11376-3.9684.34125-.1643.0379.44233.0884 1.3649.0884 2.5655.0126 4.2843.37914 5.5734 1.2133.51816.32858.70774.55609 1.049 1.2891.27803.58135.42968 1.0742.42968 1.4281v.54343l-1.011-.50553c-1.3649-.68246-3.0584-1.2385-4.2338-1.3902-1.1121-.13898-1.6682-.39175-1.744-.78354-.0506-.29068-.0506-.29068-.0757-.0125 0 .15165.12638.37915.30332.51817l.31596.24012-.63192.0884c-.35387.0506-.75828.13902-.92258.20222-.20222.1011-.13901.11372.29068.0506 1.1501-.16429 2.5024-.0758 3.3744.2022 1.0742.35387 2.9447 1.2386 3.7535 1.7946.53082.35388.64456.51817.83413 1.1374.11374.39177.34123.88465.5055 1.1121.15168.21486.26542.40442.24014.4297-.0253.0253-.48026-.0125-.99841-.0631-2.2369-.22749-4.6382-.0884-4.8783.27803-.0379.0758.0506.0631.21486-.0253.46761-.25276 2.5782-.17695 4.6003.17693 1.5545.26539 1.8578.3665 2.4518.75829.89732.59398 2.3128 1.0995 5.1943 1.8578 2.8057.73299 3.387.92257 4.3222 1.4154 1.5924.84676 2.199 1.8578 2.4518 4.1327.0884.75829.0757.80885-.15164.72038-.93522-.36652-2.338-.60664-4.2211-.6951-2.3381-.12636-3.0711-.30331-5.447-1.3396-2.1611-.94787-2.3254-1.0742-2.8815-2.1864-.2654-.5308-.60665-1.3017-.77092-1.6935-.46762-1.1501-.4297-.75828.0631.60663.24012.69509.44234 1.2764.44234 1.3017 0 .0253-.64453-.54343-1.4155-1.2638-.78356-.72037-1.6809-1.5292-1.9842-1.8072-.63192-.58135.89729 1.188 1.6808 1.9336.25275.24014.45497.46762.45497.50555 0 .0506-.64453.0631-1.4155.0631l-1.4281-.0252 1.1374.10111c1.9084.15164 2.0221.21482 3.387 1.6809.88465.94785 1.4281 1.4281 2.0094 1.7441l.79621.42968-1.0742.0379c-1.3144.0506-3.6019-.1643-4.6129-.41707-1.6556-.42969-3.5513-1.5292-5.4344-3.1722-.74565-.64453-.93523-.89731-1.1248-1.466-.32859-.97313-.40442-2.8436-.15165-4.1326.10108-.59401.17692-1.0869.15165-1.1248-.0253-.0253-.17694.49289-.32859 1.1374-.21485.90994-.26541 1.4787-.22749 2.5529l.038 1.3649-.50552-.55608c-.27804-.31595-1.0742-1.3902-1.7693-2.4139-.6951-1.011-1.2765-1.8199-1.3017-1.8073-.11374.12638 2.3633 4.714 3.109 5.7504.96049 1.3649 2.515 3.0458 3.4376 3.7535.34123.26541.60664.4929.58137.51817-.0758.0758-2.3507-.20222-4.3728-.54345-2.3886-.39177-5.3838-1.0742-6.3064-1.4281-.37914-.13902-.70772-.24012-.73298-.21485-.11376.11374 3.0078 1.2259 4.0063 1.4281.40442.0758.3665.10112-.594.30332-1.188.25275-1.605.45497-2.1106.98577-.32861.34122-.37916.50552-.40444 1.1753l-.0379.7962.0884-.65717c.1643-1.188.80884-1.7061 2.4139-1.9336 1.0995-.15164 2.8183-.0127 5.131.4297 1.2259.24012 1.4408.31595 1.1374.37914-1.7694.41705-3.1595 1.1248-3.9305 2.0095-.4297.50552-.93522 1.3649-.93522 1.5671.0127.0506.12639-.11375.2654-.39178.63192-1.188 2.0853-2.1611 3.8546-2.5402 1.3902-.31597 4.4865-.21486 5.5481.17692 1.6556.61927 4.853 1.0237 8.0378 1.0237 1.5419 0 5.0173.37914 6.4707.70773l.87203.2022-.0758.53081c-.0379.27804-.1011 1.6556-.15165 3.0458-.0758 2.6161.0758 5.0426.54343 8.8972.18956 1.605.20222 2.1106.0631 4.9162-.0884 1.7188-.22749 3.9684-.29068 5.0174l-.13901 1.8957-.54344.82147c-.30332.455-.8594 1.1122-1.2259 1.4787l-.6698.65718-2.7804.31596c-3.071.34123-3.7156.50552-4.7393 1.188-1.049.70772-1.6682 1.5671-2.1358 2.9447-.21485.64454-.3665 1.188-.35386 1.2006.0254.0253.32857-.29068.6951-.6951.61925-.70774.70773-.75829 1.5545-.96051.55608-.12637 1.9716-.24011 3.7535-.31594 3.0205-.11373 3.6398-.22748 4.8657-.84676.87201-.42971 1.0616-.35386.64453.2654-.58133.84675-.54344 1.8957.0757 2.2243.21485.11375.22751.0884.16431-.30332-.0884-.54342.16431-.73301 1.605-1.1627 1.2764-.37914 1.9716-.77092 2.5024-1.3649l.3918-.44236.73299.36652c.94786.46758 1.7188.64454 3.1974.69509.69511.0254 1.7314.17693 2.4644.36651 2.2875.56872 5.7504 1.1501 5.7504.97313 0-.11374-1.8831-1.5924-2.9447-2.3128-.55607-.37914-.79619-.60663-.63189-.60663.31593 0 3.3996.55609 4.5244.80885 1.3649.31595 2.9573.82148 3.8293 1.2259l.79619.35386-.27804-.34125c-1.011-1.2891-3.7156-3.0205-6.3949-4.0821-1.188-.46764-3.9684-1.2006-5.0426-1.3144-.42969-.0506-.84674-.13904-.92258-.18959-.17694-.10108-.66982-2.6666-.90995-4.6761-.21484-1.782-.21484-5.1943 0-9.0615.15167-2.654.15167-3.9557.0253-7.823l-.15167-4.6256.34124-.44232c.78356-1.0237 2.3001-1.6303 4.3475-1.7188 1.1248-.0631 1.9336.0127 5.2448.49288 2.1611.30333 4.0947.58137 4.297.61927.75826.12638-.11377-.15164-2.1485-.6951-1.1122-.30331-2.0727-.59399-2.1485-.65716-.0631-.0506.12637-.10111.42968-.10111.77093 0 3.2227-.37914 4.158-.63191.60661-.17694.92257-.20221 1.2638-.1011.94786.24012 1.8957.66982 3.1216 1.4281 1.4028.8594 1.8325 1.1122 1.8325 1.0363 0-.0253-.60661-.53079-1.3523-1.1248-1.3776-1.0869-1.8704-1.3902-2.654-1.6682l-.44234-.15166 2.2622-1.2764c2.7046-1.5292 3.2859-1.7314 5.1184-1.7441 1.6682 0 1.2512-.18955-.4929-.22748-.64454-.0127-1.1753-.0378-1.1753-.0378 0-.0125.93522-.58136 2.0853-1.2512 1.1501-.68244 2.0727-1.2512 2.0474-1.2765-.0253-.0253-.75827.26542-1.643.63192-1.5798.66982-1.8704.733-1.3396.25276.22748-.20221 2.4012-3.3997 2.7046-3.9684.1643-.31595-.0884-.0253-1.3902 1.5798-1.4913 1.8452-2.7551 3.1469-3.3618 3.4881-.25277.15165-1.0995.53083-1.8957.87204l-1.4408.60661-.0379-.45496c-.0757-1.0742-.44231-1.6177-1.4281-2.1106-.87204-.44234-.93523-.39179-.11376.1011.87205.53079 1.2638 1.0869 1.2638 1.8072 0 .6951-.22749.93522-1.2133 1.3144-1.5419.58135-2.3507.68245-5.1058.65717-1.4913-.0126-3.4881.0631-4.7266.17693-1.504.13902-2.1738.15165-2.2622.0631-.0884-.0884-.0884-.17694-.0253-.25276.0758-.063 1.6809-1.1374 3.5766-2.4012 3.6777-2.4392 5.308-3.3238 7.368-3.9936 1.2638-.40442 1.2891-.40442 2.06-.24012.41707.10111 1.4028.40441 2.1611.66982.77093.2654 1.5039.51816 1.643.56871.37913.1264-2.0474-1.0869-2.7804-1.3902l-.63191-.2654.69509-.13904c.92258-.18957 3.5387-.53078 4.2085-.54342.65719-.0125.50552-.0631-.48025-.17693l-.75828-.0884.70775-.29068c1.2259-.49289 2.2369-1.2764 2.5908-2.0221.17694-.34123.17694-.35387 0-.1264-.66984.87204-1.5292 1.4281-2.7425 1.782-.84673.25277-3.1469.64455-4.3475.74564-1.782.13905-3.3617.44233-4.2843.80886-1.6303.64453-1.9715.61926-1.9715-.13903 0-.54344.90993-2.793 1.6303-3.981 1.3902-2.338 2.0474-3.0584 3.6019-3.9052 1.2259-.66984 3.0331-.88469 4.3096-.49292.7583.22751.88467.16431.2022-.10109-.68245-.27803-2.0979-.50553-2.4897-.41706-.53081.13903-.25276-.11374.77092-.69511.51816-.30329.92257-.55606.89732-.58136-.0254-.0379-.90995.37917-1.9716.90995-1.0616.53082-1.9463.93522-1.9715.90995-.0758-.0631 2.515-2.5655 3.4881-3.3617 1.0742-.88466 1.1754-.99841.56871-.64454-1.2385.72037-3.526 2.3633-4.7646 3.3996-.75829.6319-1.3649 1.1248-1.3649 1.0869 0-.0253.25274-.72035.5687-1.5292.31595-.80882.55609-1.5039.53081-1.5292-.0253-.0252-.42969.82149-.89731 1.8831-.66983 1.5039-.98578 2.0727-1.4534 2.5655-.84676.90994-1.5545 1.8831-2.1359 2.9573l-.50551.93522-.27804-.49289c-.13903-.27804-.22748-.37914-.18957-.24011.30331.89729.31595 1.0869.13901 1.7314-.11374.36649-.24012 1.0995-.30331 1.6303-.21486 1.744-.92258 2.5655-3.1469 3.6524-.70774.35388-1.327.63191-1.3649.63191-.0506 0 .11376-.26541.35386-.60663.74566-1.0237.88469-1.4028.90996-2.4518.0379-1.2006.32859-1.8452 1.3144-2.9068.39178-.42969.59399-.70773.44234-.63191-.36652.18957-1.782 1.7314-1.8831 2.0348-.0379.15164-.13901.26538-.20221.26538-.0631 0-.11372.35388-.11372.78358-.0127 1.0363-.30333 1.6809-1.2133 2.6287-1.3017 1.3649-1.8452 1.7062-3.981 2.4518-1.0742.37913-2.1358.74565-2.3633.83411-.22746.0884-.48023.12639-.58135.0884-.41704-.16429-.60661-2.6287-.31594-4.0316.3412-1.605.79619-2.06 3.6524-3.7156 1.2891-.74563 2.8562-1.6935 3.4755-2.1106 3.9684-2.6414 6.5213-5.4091 7.5197-8.139.4676-1.3017.75827-1.7314 1.3649-2.06.25276-.12638.37915-.24012.27804-.25277-.11375 0-.40442.15166-.66983.3286l-.48025.31594.0758-.29068c.15166-.70772.31594-1.9842.3033-2.5024-.0126-.44232-.0506-.30329-.18957.56874-.56871 3.6903-1.921 6.1168-4.7519 8.4928-1.921 1.605-2.3381 1.8452-1.4155.79618.44232-.51814 1.5039-2.1484 1.921-2.9952.60665-1.2006.90995-2.4518.90995-3.7662 0-1.0869.0253-1.188.4297-1.8704.50553-.84674.39177-.85939-.13903-.0253-.35385.56873-.54343.70774-.54343.40443 0-.0884-.18957-.44233-.42968-.79619-.594-.87204-.65721-1.3144-.34124-2.3381.49287-1.5924 2.2875-3.9304 5.0426-6.5845 1.7694-1.6935 1.7314-1.7061-.17694-.0631-2.4644 2.1106-4.6634 4.6256-5.2827 6.041l-.17694.42969-.0126-.56871c-.0125-1.1374.56873-3.0205 1.5924-5.1184.74565-1.5292.32859-.97313-.5308.70773-1.2259 2.3886-1.7188 4.3728-1.466 5.8388.0758.45498.37916 1.2764.70773 1.921.6951 1.3902.73302 1.9716.21486 3.7409-.32861 1.0995-1.327 3.1469-1.5545 3.1469-.0379 0-.11373-.27804-.139-.61926-.0379-.34123-.21486-.94785-.40444-1.327-.35386-.70775-2.0347-2.6288-2.5276-2.8689-.15164-.0757-.0253.0758.26541.35389.78356.70773 1.7441 2.06 2.0474 2.8815.29068.7583.34124 1.5166.15164 2.1864-.25273.8594-2.4644 2.9952-4.7014 4.5244-1.2259.84675-2.8941 1.7693-2.8941 1.605 0-.0506.2022-.75828.44233-1.5545.79621-2.5908.97314-3.7156 1.0111-6.4202l.0379-2.4392.39179-.78355c.20222-.4297.78357-1.3017 1.2891-1.921.4929-.63192 1.1374-1.4787 1.4155-1.8957.75827-1.1501 1.3396-1.7062 1.7567-1.7062.4297 0 1.1374.44233 1.4155.88466.27803.45497.25277.0758-.0506-.49287-.34123-.68247-.93523-1.1501-1.466-1.1501-.24014 0-.4297-.0125-.4297-.0379 0-.0126.11375-.56871.25277-1.2259.18957-.93524.25276-1.7062.25276-3.4502 0-1.4028-.0506-2.2369-.12638-2.2369-.0758 0-.12638.35384-.12638.82147 0 .87201-.22748 2.6793-.37914 2.9573-.0632.11376-.1643.0506-.35388-.25274-.13901-.24014-.4676-.63192-.72037-.87204l-.45496-.44232.56871.84674c.75827 1.1374.83411 1.6682.39179 2.8183-.46762 1.2512-.87204 1.8957-1.8325 2.9068-.45499.48025-1.0363 1.1122-1.2765 1.4028l-.45494.50554-.1264-2.5908c-.11373-2.1106-.10112-2.8309.038-3.8041.44233-2.9447.97314-4.1074 2.1611-4.7393.77092-.40445.82146-.54346.1011-.24013l-.48024.20221.24011-.36653c.48025-.70771.93521-1.7188.92258-2.0473-.0127-.31597-.0127-.31597-.1011.0506-.20221.78356-.74564 1.6177-1.9336 2.9447-.3286.37917-.60663.72038-.60663.78356 0 .0506-.10112.31599-.21485.58137-.22749.49288-.22749.45498-.29066-3.0458l-.0631-3.5387z"/>
</svg>
