<svg viewBox="0 0 700 700" xmlns="http://www.w3.org/2000/svg"><style>@keyframes stroke{0%,20%{stroke-dashoffset:700}100%{stroke-dashoffset:0}}#logo{color:#212121}</style><g id="logo"><path d="M489.769 566.184l170.85-44.597-26.508-99.099-94.243-129.73-100.143-96.928L358.34 42.885 317.196 0l-29.738 32.725-6.94 73.858 12.498 70-110.77 42.2-65.026 63.508-23.865 55.475-10.29 45.256-21.435 37.01-22.249 29.27 8.25 20.765 4.732 5.341 23.555-19.851-15.695 28.733 45.098 40.583 19.749 6.564 11.486 14.582 12.988 8.288s11.035 2.937 18.377 2.36c8.076-.625 37.01-10.855 37.01-10.855l79.08-22.103 26.47 3.562 13.776 17.356 6.978 54.229L330.979 700z" fill="currentColor"/><g fill="none" stroke="currentColor" stroke-width="5" stroke-dasharray="700" stroke-dashoffset="700" style="animation:stroke 3s linear forwards;filter:invert()"><path d="M287.458 32.725l70.882 10.16L317.196 0zm-6.94 73.858l77.822-63.698-70.882-10.16zm97.974 105.669l61.233-16.422L358.34 42.884z"/><path d="M293.016 176.584l65.324-133.7-77.822 63.699z"/><path d="M293.016 176.584l85.476 35.668L358.34 42.884zm85.476 35.668l50.547 74.766 10.686-91.188z"/><path d="M293.016 176.584l39.711 115.08 45.765-79.412zm-46.928 140.029l46.928-140.029-110.771 42.199zm182.951-29.595l110.829 5.74-100.143-96.928z"/><path d="M332.727 291.664l96.312-4.646-50.547-74.766zm-86.639 24.949l86.639-24.949-39.711-115.08zm231.274 32.104l62.506-55.959-110.829-5.74zM117.22 282.291l128.868 34.322-63.843-97.83zm0 0l71.756 83.149 57.112-48.827z"/><path d="M83.065 383.021l105.911-17.581-71.756-83.149zm163.023-66.408l90.091 95.183-3.452-120.132z"/><path d="M336.179 411.796l92.86-124.778-96.312 4.646zm0 0l141.183-63.079-48.323-61.699zm-92.891 32.334l2.8-127.517-57.112 48.827z"/><path d="M243.288 444.13l92.891-32.334-90.091-95.183zM530 450.574l9.868-157.816-62.506 55.959zm-490.619-1.272l36.537 6.255 7.147-72.536z"/><path d="M530 450.574l104.111-28.086-94.243-129.73zM52.363 475.408l23.555-19.851-36.537-6.255zm23.555-19.851l113.058-90.117-105.911 17.581zm338.184 45.505l63.26-152.345-141.183 63.079zm0 0L530 450.574l-52.638-101.857zM60.223 484.29l45.098 40.583-29.403-69.316zm223.787 39.419l52.169-111.913-92.891 32.334zm0 0l26.471 3.562 25.698-115.475z"/><path d="M75.918 455.557l167.37-11.427-54.312-78.69zm49.152 75.88l-49.152-75.88 29.403 69.316zm0 0l118.218-87.307-167.37 11.427zm185.411-4.166l103.621-26.209-77.923-89.266z"/><path d="M125.07 531.437l79.861 14.375 38.357-101.682zm79.861 14.375l79.079-22.103-40.722-79.579zm119.326-1.185l89.845-43.565-103.621 26.209z"/><path d="M149.544 554.307l55.387-8.495-79.861-14.375zM530 450.574l130.619 71.013-26.508-99.099zm-115.898 50.488l75.667 65.122L530 450.574z"/><path d="M489.769 566.184l170.85-44.597L530 450.574zm-158.534 32.672l82.867-97.794-89.845 43.565z"/><path d="M331.235 598.856l158.534-32.672-75.667-65.122z"/><path d="M330.979 700l158.79-133.816-158.534 32.672z"/></g></g></svg>
