<svg width="700pt" height="700pt" viewBox="0 0 700 700" xmlns="http://www.w3.org/2000/svg"><g fill="#efefef"><path d="M525 455H192.5C124.949 455 70 400.051 70 332.5c0-66.57 53.375-120.89 119.56-122.46C217.107 146.688 279.966 105 350 105c84.316 0 155.26 59.078 171.57 140.04C582.75 243.778 630 290.958 630 350c0 57.891-47.109 105-105 105ZM192.5 245c-48.23 0-87.5 39.27-87.5 87.5 0 48.266 39.27 87.5 87.5 87.5H525c38.605 0 70-31.395 70-70 0-38.605-31.395-70-70-70-5.144 0-10.395.594-14.98 1.469-4.797.84-9.8-.281-13.719-3.184-3.922-2.941-6.441-7.386-6.894-12.25-7.282-71.855-67.203-126.04-139.41-126.04-59.606 0-112.73 37.766-132.2 93.941-2.977 8.574-11.935 13.508-20.79 11.234-.804-.176-3.117-.176-4.515-.176zM350 630c-28.945 0-52.5-23.555-52.5-52.5 0-22.363 26.637-63.387 38.078-79.941 6.578-9.45 22.297-9.45 28.805 0 11.445 16.555 38.117 57.578 38.117 79.941 0 28.945-23.555 52.5-52.5 52.5zm0-90.055c-10.078 16.977-17.359 32.234-17.5 37.59 0 9.59 7.84 17.465 17.5 17.465 9.625 0 17.5-7.875 17.5-17.5-.176-5.355-7.422-20.578-17.5-37.555zM192.5 630c-9.66 0-17.5-7.84-17.5-17.5v-105c0-9.66 7.84-17.5 17.5-17.5s17.5 7.84 17.5 17.5v105c0 9.66-7.84 17.5-17.5 17.5z"/><path d="M237.93 603.75c-2.977 0-5.984-.734-8.75-2.344l-90.93-52.5c-8.328-4.832-11.199-15.543-6.371-23.906 4.828-8.363 15.539-11.305 23.906-6.406l90.93 52.5c8.363 4.832 11.234 15.543 6.406 23.906a17.56 17.56 0 0 1-15.19 8.75z"/><path d="M147.07 603.75a17.558 17.558 0 0 1-15.191-8.75c-4.828-8.363-1.96-19.074 6.406-23.906l90.93-52.5c8.332-4.898 19.04-1.957 23.906 6.406 4.828 8.364 1.961 19.074-6.406 23.906l-90.93 52.5c-2.73 1.61-5.738 2.344-8.715 2.344zM507.5 630c-9.66 0-17.5-7.84-17.5-17.5v-105c0-9.66 7.84-17.5 17.5-17.5s17.5 7.84 17.5 17.5v105c0 9.66-7.84 17.5-17.5 17.5z"/><path d="M552.96 603.75c-2.977 0-5.984-.734-8.75-2.344l-90.93-52.5c-8.363-4.828-11.234-15.504-6.406-23.906 4.828-8.363 15.539-11.199 23.906-6.406l90.93 52.5c8.363 4.828 11.234 15.504 6.406 23.906-3.223 5.602-9.137 8.75-15.156 8.75z"/><path d="M462.04 603.75c-6.02 0-11.934-3.148-15.156-8.75-4.863-8.363-1.996-19.074 6.406-23.906l90.93-52.5c8.328-4.863 19.074-2.031 23.906 6.406 4.863 8.364 1.996 19.074-6.406 23.906l-90.93 52.5a17.294 17.294 0 0 1-8.75 2.344zM440.65 168.699c-1.574 0-3.219-.21-4.828-.664-9.274-2.66-14.664-12.355-12.004-21.629C436.662 101.394 478.275 70 524.998 70c5.566 0 10.71.422 15.82 1.297 9.52 1.574 15.996 10.605 14.387 20.125-1.61 9.52-10.781 15.96-20.125 14.387-3.293-.563-6.547-.809-10.082-.809-31.184 0-58.977 20.965-67.551 50.996-2.168 7.7-9.168 12.703-16.801 12.703zM525 280c-7.98 0-15.68-.875-22.891-2.555-9.45-2.203-15.262-11.656-13.02-21.07 2.172-9.379 11.586-15.19 21.035-13.02 4.586 1.086 9.625 1.645 14.875 1.645 38.605 0 70-31.395 70-70 0-3.535-.246-6.754-.805-10.012-1.61-9.52 4.797-18.551 14.316-20.195 9.45-1.61 18.551 4.762 20.195 14.316a97.38 97.38 0 0 1 1.293 15.89c0 57.892-47.109 105-105 105z"/><path d="M577.5 192.5c-38.605 0-70-31.395-70-70 0-17.254 6.266-33.531 17.605-45.852 6.578-7.07 17.676-7.523 24.711-.98 7.106 6.546 7.559 17.605.98 24.746-5.425 5.882-8.296 13.512-8.296 22.086 0 19.285 15.68 35 35 35 8.539 0 16.203-2.872 22.05-8.297 7.176-6.547 18.2-6.125 24.747.98 6.578 7.106 6.125 18.164-.946 24.746-12.32 11.305-28.598 17.57-45.852 17.57z"/></g></svg>