<svg width="700pt" height="700pt" viewBox="0 0 700 700" xmlns="http://www.w3.org/2000/svg"><g fill="#efefef"><path d="M525.007 280c-7.981 0-15.68-.875-22.891-2.555-9.45-2.203-15.262-11.656-13.02-21.07 2.171-9.379 11.586-15.19 21.035-13.02 4.585 1.086 9.625 1.645 14.875 1.645 38.605 0 70-31.395 70-70 0-38.605-31.395-70-70-70-31.184 0-58.977 20.965-67.551 50.996-2.66 9.273-12.285 14.559-21.63 12.039-9.273-2.66-14.663-12.355-12.003-21.63C436.666 101.395 478.279 70 525.002 70c57.89 0 105 47.109 105 105 0 57.89-47.11 105-105 105z"/><path d="M525.007 455h-122.5c-9.66 0-17.5-7.84-17.5-17.5s7.84-17.5 17.5-17.5h122.5c38.605 0 70-31.395 70-70 0-38.605-31.395-70-70-70-5.145 0-10.395.594-14.98 1.469-4.797.84-9.801-.281-13.72-3.184-3.921-2.941-6.44-7.386-6.894-12.25-7.281-71.855-67.203-126.04-139.41-126.04-59.605 0-112.73 37.766-132.2 93.941-2.977 8.574-11.934 13.508-20.789 11.234-.805-.175-3.117-.175-4.516-.175-48.23 0-87.5 39.27-87.5 87.5 0 37.203 23.38 70.246 58.172 82.18 9.137 3.113 14 13.055 10.887 22.227-3.113 9.136-13.09 14.035-22.227 10.887-48.969-16.805-81.832-63.11-81.832-115.29 0-66.57 53.375-120.89 119.56-122.46 27.547-63.352 90.406-105.04 160.44-105.04 84.316 0 155.26 59.078 171.57 140.04 61.18-1.262 108.43 45.918 108.43 104.96 0 57.89-47.109 105-105 105z"/><path d="M280.007 542.5c-9.66 0-17.5-7.84-17.5-17.5V350c0-9.66 7.84-17.5 17.5-17.5s17.5 7.84 17.5 17.5v175c0 9.66-7.84 17.5-17.5 17.5z"/><path d="M355.777 498.75c-2.977 0-5.985-.734-8.75-2.344l-151.55-87.5c-8.364-4.832-11.234-15.543-6.403-23.906 4.828-8.363 15.54-11.27 23.906-6.406l151.55 87.5c8.364 4.832 11.234 15.543 6.403 23.906-3.22 5.602-9.133 8.75-15.156 8.75z"/><path d="M204.237 498.75a17.558 17.558 0 0 1-15.191-8.75c-4.829-8.363-1.961-19.074 6.406-23.906l151.55-87.5c8.293-4.828 19.109-1.957 23.938 6.406 4.863 8.364 1.996 19.074-6.406 23.906l-151.55 87.5a17.28 17.28 0 0 1-8.747 2.344zM472.507 630c-9.66 0-17.5-7.84-17.5-17.5v-105c0-9.66 7.84-17.5 17.5-17.5s17.5 7.84 17.5 17.5v105c0 9.66-7.84 17.5-17.5 17.5z"/><path d="M517.967 603.75c-2.977 0-5.985-.734-8.75-2.344l-90.93-52.5c-8.364-4.832-11.234-15.543-6.372-23.906 4.829-8.363 15.54-11.199 23.906-6.406l90.93 52.5c8.364 4.828 11.234 15.504 6.407 23.906a17.602 17.602 0 0 1-15.191 8.75z"/><path d="M427.047 603.75c-6.02 0-11.934-3.148-15.156-8.75-4.864-8.363-1.997-19.074 6.406-23.906l90.93-52.5c8.363-4.863 19.074-2.031 23.906 6.406 4.863 8.364 1.996 19.074-6.406 23.906l-90.93 52.5a17.294 17.294 0 0 1-8.75 2.344z"/></g></svg>