<?xml version="1.0" encoding="UTF-8"?>
<svg version="1.1" viewBox="0 0 512 320" xmlns="http://www.w3.org/2000/svg">
  <path
    d="m451.54 187.92c1.0532-0.91835 0.52662-2.2959-0.52662-3.2142-1.0532-0.45918-2.1065-0.91834-2.6331-1.8367-1.0532-0.91835-2.6332-0.45917-3.6864 0.45918-1.0532 0.91834-0.52663 2.2959 0.52662 3.2142 1.0532 0.45917 1.5799 0.91834 2.6331 1.8367 0.52664 0.45917 1.0533 0.45917 1.5799 0.45917s1.5799-0.45917 2.1065-0.91835zm8.9526 3.2142c-1.0532-0.91835-2.6331-0.91835-3.6864 0-1.0533 0.91835-1.0533 2.2959 0 3.2142 16.852 13.316 17.905 25.255 4.213 39.948-7.8994 6.8876-18.432 13.316-33.704 19.745-1.0532 0.45917-2.1065 1.8367-1.0532 3.2142 0.52661 0.91835 1.5799 1.3776 2.6331 1.3776h1.0532c15.799-6.4285 27.385-13.316 35.284-20.663 15.799-16.99 14.218-32.142-4.7396-46.836zm-68.461 75.305c-15.272 4.5918-32.124 9.1835-50.029 14.234-18.958 5.0509-38.444 10.561-60.035 16.99-1.5799 0.45917-2.1065 1.8367-1.5799 2.755 0.52663 0.91835 1.5799 1.3776 2.6332 1.3776h1.0532c21.065-6.4285 41.076-11.479 60.035-16.99 17.905-5.0509 35.284-9.6427 50.029-14.234 1.5799-0.45917 2.1065-1.8367 1.5799-2.755-0.52663-1.3776-2.1065-1.8367-3.6864-1.3776zm-105.85-92.294c1.0533 0 2.1065-0.91835 2.6332-1.8367 0-1.3776-0.52663-2.2959-2.1065-2.755-76.887-11.939-125.87-26.173-141.66-41.326-2.1065-2.2959-3.6864-4.1326-5.2662-6.4285-0.52663-0.91834-2.6331-1.3776-3.6864-0.91834-1.0532 0.45918-1.5799 2.2959-1.0532 3.2142 1.5799 2.2959 3.6864 4.5918 5.7928 6.8876 21.592 20.204 90.579 34.438 145.35 43.163-0.52663 0 0 0 0 0zm13.165 1.8367c3.1598 0.45918 3.6864 0.45918 7.3727 0.91836h0.52663c1.0532 0 2.6331-0.91836 2.6331-1.8367 0-1.3776-0.52662-2.2959-2.1065-2.755-3.6864-0.45918-4.7396-0.45918-7.3727-0.91836l-1.5799-0.45917c-1.5799 0-2.6332 0.45917-3.1598 1.8367-0.52658 1.3775 0.52663 2.2959 2.1065 2.755zm209.07 5.0509c-37.391-4.1326-76.361-21.122-113.22-38.112-7.3727-3.2142-15.272-1.8367-20.539 3.2142-2.1065 1.8367-5.7928 5.0509-7.8994 6.8876-68.988-5.5101-171.68-23.418-192.74-42.703-6.8461-7.3468-9.4793-13.776-7.8994-19.285 4.213-13.776 34.757-23.418 58.982-31.224 25.277-8.2651 45.29-14.694 48.45-25.714v-1.8367c62.142 35.356 129.03 61.989 199.07 79.437 2.6331 0.91835 5.7928-0.91835 6.3195-3.2142 0.52671-2.2959-1.0532-5.0509-3.6864-5.5101-71.621-17.908-140.09-45.458-202.75-81.733-7.8994-4.1326-16.852-5.0509-24.224-1.8367-70.042 26.632-154.3 56.938-243.83 88.621-2.6332 0.91836-4.2129 3.6734-3.1598 5.9692 1.0532 1.8367 2.6332 2.755 4.7397 2.755 0.52662 0 1.5799 0 2.1065-0.45918 89-31.683 173.79-61.989 244.35-88.621 2.1065-0.91835 5.2662-1.3776 7.8994-0.91835 2.1065 2.2959 3.1598 3.6733 2.6331 5.0509-1.5799 6.4285-23.698 13.316-41.603 19.285-20.012 6.4285-40.023 12.857-53.19 22.04-0.52662 0-1.0532 0.45917-1.5799 0.45917-15.272 8.7244-30.017 18.367-44.237 27.55-31.598 21.122-64.249 43.163-102.69 53.723-2.6332 0.91835-4.2129 3.2142-3.1598 5.9692 0.52662 1.8367 2.6332 3.2142 4.7397 3.2142h1.5799c40.023-11.479 73.727-33.519 106.38-54.641 8.426-5.5101 16.852-11.02 25.805-16.53-1.0532 7.3468 2.6331 15.612 11.059 24.336 23.171 22.04 123.23 37.652 192.22 43.621-29.491 22.499-71.095 39.948-128.49 55.101-2.6331 0.91835-4.213 3.2142-3.6864 5.5101 0.52662 1.8367 2.6331 3.2142 5.2662 3.2142h1.5799c64.249-16.53 109.54-37.193 140.61-63.366 4.213 6.8876 14.746 12.857 27.385 19.285 14.746 7.806 32.124 16.99 33.704 27.091 1.0532 4.5918-1.0532 10.102-6.8461 15.612-16.325 15.153-51.082 24.336-95.319 36.275-34.23 9.1835-73.201 19.745-116.39 35.816-2.6331 0.91835-3.6864 3.6734-2.6331 5.9692 1.0533 1.8367 2.6331 2.755 4.7397 2.755 0.52662 0 1.5799 0 2.1065-0.45918 42.657-16.071 81.101-26.173 115.34-35.356 47.397-12.857 81.627-22.04 100.06-39.03 7.3727-7.806 10.532-15.612 8.9526-22.959-2.6331-14.694-22.645-24.796-39.497-33.519-11.059-5.5101-23.171-12.397-24.224-16.99 0-0.45917-0.52663-3.2142 1.5799-5.0509 2.1065-1.3776 5.7928-1.8367 7.8994-0.45917 37.917 17.448 76.887 34.898 115.86 39.03 3.1598 0.45917 5.2662 0.45917 5.7928-2.2959 0.52664-2.755-0.52662-5.5101-3.6864-5.9692z"
    fill="#7a513c" fill-opacity="0.35" />
</svg>