<svg viewBox="0 0 700 700" xmlns="http://www.w3.org/2000/svg">
	<style>
		@keyframes stroke {
			0% {
				stroke-dashoffset: 700;
			}
			20% {
				stroke-dashoffset: 700;
			}
			100% {
				stroke-dashoffset: 0;
			}
		}
		#delaunay {
			filter: invert(1);
			animation: stroke 3s infinite alternate;
		}
		@media (prefers-color-scheme: dark) {
			#logo {
				color: #212121;
			}
		}
		@media (prefers-color-scheme: light) {
			#logo {
				color: #efefef;
			}
		}
	</style>
	<g id="logo">
		<path
			d="M 489.76865,566.18403 660.61895,521.58696 634.11077,422.48795 539.86812,292.75812 439.72488,195.82971 358.34021,42.884523 317.19608,0 l -29.73834,32.724841 -6.93983,73.857839 12.49821,70.00114 -110.77075,42.19951 -65.02503,63.50741 -23.865576,55.47518 -10.290003,45.25562 -21.434603,37.01037 -22.249105,29.27052 8.250547,20.76491 4.731624,5.34076 23.555092,-19.85155 -15.695505,28.73309 45.098299,40.58303 19.74852,6.56446 11.48655,14.58166 12.9876,8.28856 c 0,0 11.03517,2.93694 18.37709,2.36038 8.07651,-0.62545 37.01037,-10.8557 37.01037,-10.8557 l 79.079,-22.10291 26.47059,3.56236 13.7762,17.35514 6.97784,54.22906 L 330.97926,700 Z"
			fill="currentColor"/>
		<g
			id="delaunay"
			fill="none" stroke="currentColor" stroke-width="3"
			stroke-dasharray="700" stroke-dashoffset="700" >
			<path d="M 287.458,32.7248 358.34,42.8845 317.196,-4.84255e-5 Z" />
			<path d="M 280.518,106.583 358.34,42.8845 287.458,32.7248 Z" />
			<path d="M 378.492,212.252 439.725,195.83 358.34,42.8845 Z" />
			<path d="M 293.016,176.584 358.34,42.8845 280.518,106.583 Z" />
			<path d="M 293.016,176.584 378.492,212.252 358.34,42.8845 Z" />
			<path d="m 378.492,212.252 50.547,74.766 10.686,-91.188 z" />
			<path d="m 293.016,176.584 39.711,115.08 45.765,-79.412 z" />
			<path d="M 246.088,316.613 293.016,176.584 182.245,218.783 Z" />
			<path d="m 429.039,287.018 110.829,5.74 -100.143,-96.928 z" />
			<path d="m 332.727,291.664 96.312,-4.646 -50.547,-74.766 z" />
			<path d="m 246.088,316.613 86.639,-24.949 -39.711,-115.08 z" />
			<path d="m 477.362,348.717 62.506,-55.959 -110.829,-5.74 z" />
			<path d="m 117.22,282.291 128.868,34.322 -63.843,-97.83 z" />
			<path d="m 117.22,282.291 71.756,83.149 57.112,-48.827 z" />
			<path d="M 83.0647,383.021 188.976,365.44 117.22,282.291 Z" />
			<path d="m 246.088,316.613 90.091,95.183 -3.452,-120.132 z" />
			<path d="m 336.179,411.796 92.86,-124.778 -96.312,4.646 z" />
			<path d="M 336.179,411.796 477.362,348.717 429.039,287.018 Z" />
			<path d="m 243.288,444.13 2.8,-127.517 -57.112,48.827 z" />
			<path d="m 243.288,444.13 92.891,-32.334 -90.091,-95.183 z" />
			<path d="m 530,450.574 9.868,-157.816 -62.506,55.959 z" />
			<path d="m 39.381,449.302 36.5373,6.255 7.1464,-72.536 z" />
			<path d="M 530,450.574 634.111,422.488 539.868,292.758 Z" />
			<path d="M 52.3632,475.408 75.9183,455.557 39.381,449.302 Z" />
			<path d="M 75.9183,455.557 188.976,365.44 83.0647,383.021 Z" />
			<path d="m 414.102,501.062 63.26,-152.345 -141.183,63.079 z" />
			<path d="M 414.102,501.062 530,450.574 477.362,348.717 Z" />
			<path d="M 60.2228,484.29 105.321,524.873 75.9183,455.557 Z" />
			<path d="M 284.01,523.709 336.179,411.796 243.288,444.13 Z" />
			<path d="m 284.01,523.709 26.471,3.562 25.698,-115.475 z" />
			<path d="M 75.9183,455.557 243.288,444.13 188.976,365.44 Z" />
			<path d="m 125.07,531.437 -49.1517,-75.88 29.4027,69.316 z" />
			<path d="M 125.07,531.437 243.288,444.13 75.9183,455.557 Z" />
			<path d="M 310.481,527.271 414.102,501.062 336.179,411.796 Z" />
			<path d="m 125.07,531.437 79.861,14.375 38.357,-101.682 z" />
			<path d="M 204.931,545.812 284.01,523.709 243.288,444.13 Z" />
			<path d="m 324.257,544.627 89.845,-43.565 -103.621,26.209 z" />
			<path d="m 149.544,554.307 55.387,-8.495 -79.861,-14.375 z" />
			<path d="m 530,450.574 130.619,71.013 -26.508,-99.099 z" />
			<path d="M 414.102,501.062 489.769,566.184 530,450.574 Z" />
			<path d="M 489.769,566.184 660.619,521.587 530,450.574 Z" />
			<path d="m 331.235,598.856 82.867,-97.794 -89.845,43.565 z" />
			<path d="M 331.235,598.856 489.769,566.184 414.102,501.062 Z" />
			<path d="M 330.979,700 489.769,566.184 331.235,598.856 Z" />
		</g>
	</g>
</svg>
