<?xml version="1.0" encoding="UTF-8"?>
<svg version="1.1" viewBox="0 0 1024 1024" xmlns="http://www.w3.org/2000/svg">
  <style>
    @media (prefers-color-scheme: light) {
      #background {
        fill: #efefef;
      }
      #color-start {
        stop-color: #ad1457;
      }
      #color-end {
        stop-color: #01579b;
      }
    }
    @media (prefers-color-scheme: dark) {
      #background {
        fill: #424242;
      }
      #color-start {
        stop-color: #f8bbd0;
      }
      #color-end {
        stop-color: #40c4ff;
      }
    }
  </style>
  <defs>
    <linearGradient id="colorize">
      <stop id="color-start" offset="0" />
      <stop id="color-end" offset="1" />
    </linearGradient>
  </defs>
  <rect id="background" width="1024" height="1024" stroke="none" />
  <path
    id="juodis"
    d="m422.93 79.08 42.578-44.636 58.902 58.494zm-9.94 100.74 9.93-100.74 101.48 13.858zm140.26 144.13-28.848-231.02 116.51 208.62zm-122.36-48.65-17.892-95.477 111.41-86.883zm0 0 93.52-182.37 28.85 231.02zm122.36 48.65 87.662-22.4-15.298 124.38zm-122.36-48.65 122.37 48.65-65.518 108.32zm-67.19 191-91.397-133.44 158.58-57.559zm261.92-40.36 15.31-124.38 143.36 132.21zm-137.88 6.33 65.516-108.32 72.364 101.98zm-124.04 34.03 67.179-191 56.851 156.97zm331.09 43.8-69.186-84.156 158.67 7.8292zm-515.58-90.61 93.092-86.625 91.398 133.44zm0 0 184.49 46.811-81.762 66.599zm-48.89 137.39 48.89-137.39 102.73 113.41zm233.38-90.58 124.04-34.03 4.9419 163.86zm128.98 129.84-4.94-163.86 137.88-6.3371zm0 0 132.93-170.2 69.18 84.156zm-132.99 44.09-77.754-107.33 81.762-66.599zm0 0 4-173.93 128.98 129.83zm410.46 8.79-75.357-138.93 89.484-76.327zm-702.37-1.73 62.538-90.406-10.231 98.938zm702.37 1.73 14.12-215.26 134.92 176.95zm-683.79 33.88-18.585-35.608 52.307 8.5317zm33.718-27.08 10.24-98.94 151.62-23.98zm484.15 62.07-111.55-121.75 202.11-86.039zm0 0 90.563-207.8 75.357 138.94zm-506.62-22.88 22.469-39.192 42.094 94.546zm320.38 53.77-58.294-108.54 132.98-44.103zm0 0 74.685-152.65-36.789 157.51zm-297.91-92.96 161.86-122.92 77.754 107.33zm70.37 103.5-28.272-8.954-42.094-94.546zm0 0-70.37-103.5 239.61-15.586zm265.43-5.69 36.78-157.51 111.56 121.76zm-265.43 5.69 169.24-119.08-54.912 138.69zm114.33 19.6 54.912-138.69 58.298 108.54zm170.83-1.61-19.72-23.673 148.34-35.749zm-250.13 13.21-35.037-31.194 114.33 19.607zm544.67-141.5 149.05-38.31 37.949 135.17zm-165.92 68.87 165.92-68.865-57.595 157.69zm108.33 88.82 57.59-157.69 187 96.86zm-226.96 44.57-9.99-73.968 128.62-59.422zm0 0 118.62-133.39 108.33 88.825zm-0.37 137.96 0.38-137.97 226.95-44.564z"
    fill="none"
    stroke="url(#colorize)"
    stroke-dasharray="768"
    stroke-linejoin="bevel"
    stroke-linecap="round"
    stroke-width="9"
  />
</svg>