<?xml version="1.0" encoding="UTF-8"?>
<svg version="1.1" viewBox="0 0 1024 1024" xmlns="http://www.w3.org/2000/svg">
  <style>@keyframes trace {
      0% {
        stroke-dashoffset: 768;
      }
      10% {
        stroke-dashoffset: 768;
      }
      80% {
        stroke-dashoffset: 0;
      }
      100% {
        stroke-dashoffset: 0;
      }
    }
    #juodis {
      animation: 5s ease-in-out both infinite alternate trace;
    }
    @media (prefers-color-scheme: light) {
      #background {
        fill: #efefef;
      }
      #color-start {
        stop-color: #ad1457;
      }
      #color-end {
        stop-color: #01579b;
      }
    }
    @media (prefers-color-scheme: dark) {
      #background {
        fill: #424242;
      }
      #color-start {
        stop-color: #f8bbd0;
      }
      #color-end {
        stop-color: #40c4ff;
      }
    }
    @media (prefers-reduced-motion: reduce) {
      #juodis {
        animation: none;
      }
    }</style>
  <defs>
    <linearGradient id="colorize">
      <stop id="color-start" offset="0" />
      <stop id="color-end" offset="1" />
    </linearGradient>
  </defs>
  <circle id="background" cx="512" cy="512" r="512" stroke="none" />
  <path id="juodis"
    d="m409.14 77.42 40.943-43.094 56.64 56.473zm-9.5583 97.26 9.5486-97.26 97.583 13.379zm134.87 139.15-27.74-223.04 112.04 201.41zm-117.66-46.969-17.205-92.179 107.13-83.881zm0 0 89.928-176.07 27.742 223.04zm117.66 46.969 84.295-21.626-14.71 120.08zm-117.66-46.969 117.67 46.969-63.002 104.58zm-64.61 184.4-87.887-128.83 152.49-55.571zm251.86-38.966 14.722-120.08 137.85 127.64zm-132.58 6.1113 63-104.58 69.585 98.457zm-119.28 32.854 64.599-184.4 54.668 151.55zm318.37 42.287-66.529-81.249 152.58 7.5587zm-495.78-87.48 89.517-83.632 87.888 128.83zm0 0 177.4 45.194-78.622 64.298zm-47.012 132.64 47.012-132.64 98.785 109.49zm224.42-87.451 119.28-32.854 4.7521 158.2zm124.03 125.35-4.7503-158.2 132.58-6.1182zm0 0 127.82-164.32 66.523 81.249zm-127.88 42.567-74.768-103.62 78.622-64.298zm0 0 3.8464-167.92 124.03 125.34zm394.7 8.4863-72.463-134.13 86.047-73.69zm-675.4-1.6702 60.136-87.283-9.8381 95.52zm675.4 1.6702 13.578-207.82 129.74 170.84zm-657.53 32.71-17.871-34.378 50.298 8.237zm32.423-26.144 9.8467-95.522 145.8-23.152zm465.56 59.926-107.27-117.54 194.35-83.067zm0 0 87.085-200.62 72.463 134.14zm-487.16-22.09 21.606-37.838 40.477 91.28zm308.08 51.912-56.055-104.79 127.87-42.579zm0 0 71.817-147.38-35.376 152.07zm-286.47-89.749 155.64-118.67 74.768 103.62zm67.667 99.924-27.186-8.6447-40.477-91.28zm0 0-67.667-99.924 230.41-15.048zm255.24-5.4934 35.367-152.07 107.28 117.55zm-255.24 5.4934 162.74-114.97-52.803 133.9zm109.94 18.923 52.803-133.9 56.059 104.79zm164.27-1.5544-18.963-22.855 142.64-34.514zm-240.52 12.754-33.691-30.116 109.94 18.93zm523.75-136.61 143.33-36.987 36.492 130.5zm-159.55 66.491 159.55-66.486-55.383 152.24zm104.17 85.752 55.378-152.24 179.82 93.514zm-218.24 43.03-9.6063-71.413 123.68-57.369zm0 0 114.06-128.78 104.17 85.756zm-0.35579 133.19 0.36541-133.2 218.23-43.024z"
    fill="none"
    stroke="url(#colorize)"
    stroke-dasharray="768"
    stroke-linejoin="bevel"
    stroke-linecap="round"
    stroke-width="9" />
</svg>