<?xml version="1.0" encoding="UTF-8" standalone="no"?>
<svg
   width="700pt"
   height="700pt"
   version="1.1"
   viewBox="0 0 700 700"
   id="svg4"
   sodipodi:docname="resume.svg"
   inkscape:version="1.1.2 (b8e25be833, 2022-02-05)"
   xmlns:inkscape="http://www.inkscape.org/namespaces/inkscape"
   xmlns:sodipodi="http://sodipodi.sourceforge.net/DTD/sodipodi-0.dtd"
   xmlns="http://www.w3.org/2000/svg"
   xmlns:svg="http://www.w3.org/2000/svg">
  <defs
     id="defs8" />
  <sodipodi:namedview
     id="namedview6"
     pagecolor="#ffffff"
     bordercolor="#666666"
     borderopacity="1.0"
     inkscape:pageshadow="2"
     inkscape:pageopacity="0.0"
     inkscape:pagecheckerboard="true"
     inkscape:document-units="pt"
     showgrid="false"
     inkscape:zoom="0.57964286"
     inkscape:cx="366.60505"
     inkscape:cy="605.54529"
     inkscape:window-width="1366"
     inkscape:window-height="683"
     inkscape:window-x="0"
     inkscape:window-y="0"
     inkscape:window-maximized="1"
     inkscape:current-layer="svg4" />
  <path
     d="m 455,245 c -13.926,0 -27.277,-5.5312 -37.125,-15.375 C 408.0312,219.7773 402.5,206.426 402.5,192.5 V 105 H 210 c -13.926,0 -27.277,5.5312 -37.125,15.375 -9.8438,9.8477 -15.375,23.199 -15.375,37.125 v 385 c 0,13.926 5.5312,27.277 15.375,37.125 C 182.7227,589.4688 196.074,595 210,595 h 280 c 13.926,0 27.277,-5.5312 37.125,-15.375 9.8438,-9.8477 15.375,-23.199 15.375,-37.125 V 245 Z M 297.5,192.5 c 13.926,0 27.277,5.5312 37.125,15.375 9.8438,9.8477 15.375,23.199 15.375,37.125 0,13.926 -5.5312,27.277 -15.375,37.125 -9.8477,9.8438 -23.199,15.375 -37.125,15.375 -13.926,0 -27.277,-5.5312 -37.125,-15.375 C 250.5312,272.2773 245,258.926 245,245 c 0,-13.926 5.5312,-27.277 15.375,-37.125 9.8477,-9.8438 23.199,-15.375 37.125,-15.375 z m -70,175 c 0,-13.926 5.5312,-27.277 15.375,-37.125 C 252.7227,320.5312 266.074,315 280,315 h 35 c 13.926,0 27.277,5.5312 37.125,15.375 9.8438,9.8477 15.375,23.199 15.375,37.125 v 35 c 0,4.6406 -1.8438,9.0938 -5.125,12.375 C 359.0938,418.1562 354.6406,420 350,420 H 245 c -4.6406,0 -9.0938,-1.8438 -12.375,-5.125 -3.2812,-3.2812 -5.125,-7.7344 -5.125,-12.375 z M 455,507.5 H 245 c -6.2539,0 -12.031,-3.3359 -15.156,-8.75 -3.125,-5.4141 -3.125,-12.086 0,-17.5 3.125,-5.414 8.9023,-8.75 15.156,-8.75 h 210 c 6.2539,0 12.031,3.3359 15.156,8.75 3.125,5.4141 3.125,12.086 0,17.5 -3.125,5.414 -8.9023,8.75 -15.156,8.75 z m 0,-87.5 h -35 c -6.2539,0 -12.031,-3.3359 -15.156,-8.75 -3.125,-5.4141 -3.125,-12.086 0,-17.5 3.125,-5.414 8.9023,-8.75 15.156,-8.75 h 35 c 6.2539,0 12.031,3.3359 15.156,8.75 3.125,5.4141 3.125,12.086 0,17.5 -3.125,5.414 -8.9023,8.75 -15.156,8.75 z m 0,-87.5 h -35 c -6.2539,0 -12.031,-3.3359 -15.156,-8.75 -3.125,-5.4141 -3.125,-12.086 0,-17.5 3.125,-5.414 8.9023,-8.75 15.156,-8.75 h 35 c 6.2539,0 12.031,3.3359 15.156,8.75 3.125,5.4141 3.125,12.086 0,17.5 -3.125,5.414 -8.9023,8.75 -15.156,8.75 z m -17.5,-140 V 115.148 L 532.352,210 H 455 c -4.6406,0 -9.0938,-1.8438 -12.375,-5.125 -3.2812,-3.2812 -5.125,-7.7344 -5.125,-12.375 z"
     id="path2"
     style="fill:#212121;fill-opacity:1;stroke:none" />
</svg>
