<?xml version="1.0" encoding="UTF-8"?>
<svg width="700pt" height="700pt" version="1.1" viewBox="0 0 700 700" xmlns="http://www.w3.org/2000/svg" xmlns:xlink="http://www.w3.org/1999/xlink">
 <defs>
  <symbol id="v" overflow="visible">
   <path d="m8.6562-0.51562c-0.44922 0.23047-0.91797 0.40234-1.4062 0.51562-0.48047 0.125-0.98047 0.1875-1.5 0.1875-1.5742 0-2.8203-0.4375-3.7344-1.3125-0.91797-0.88281-1.375-2.0781-1.375-3.5781s0.45703-2.6875 1.375-3.5625c0.91406-0.88281 2.1602-1.3281 3.7344-1.3281 0.51953 0 1.0195 0.0625 1.5 0.1875 0.48828 0.11719 0.95703 0.28906 1.4062 0.51562v1.9531c-0.44922-0.3125-0.89062-0.53516-1.3281-0.67188-0.4375-0.14453-0.90234-0.21875-1.3906-0.21875-0.86719 0-1.5469 0.27734-2.0469 0.82812-0.49219 0.55469-0.73438 1.3203-0.73438 2.2969 0 0.96875 0.24219 1.7344 0.73438 2.2969 0.5 0.55469 1.1797 0.82812 2.0469 0.82812 0.48828 0 0.95312-0.066406 1.3906-0.20312 0.4375-0.14453 0.87891-0.375 1.3281-0.6875z"/>
  </symbol>
  <symbol id="c" overflow="visible">
   <path d="m6.3281-5.1406c-0.19922-0.09375-0.39844-0.16016-0.59375-0.20312-0.1875-0.039062-0.38281-0.0625-0.57812-0.0625-0.58594 0-1.0312 0.1875-1.3438 0.5625-0.3125 0.36719-0.46875 0.89844-0.46875 1.5938v3.25h-2.2656v-7.0625h2.2656v1.1562c0.28906-0.45703 0.625-0.78906 1-1 0.375-0.21875 0.82812-0.32812 1.3594-0.32812 0.070313 0 0.14844 0.007813 0.23438 0.015625 0.09375 0 0.22266 0.011719 0.39062 0.03125z"/>
  </symbol>
  <symbol id="a" overflow="visible">
   <path d="m8.1406-3.5469v0.64062h-5.2812c0.050781 0.53125 0.23828 0.93359 0.5625 1.2031 0.33203 0.26172 0.79688 0.39062 1.3906 0.39062 0.46875 0 0.95312-0.066406 1.4531-0.20312 0.5-0.14453 1.0156-0.36328 1.5469-0.65625v1.75c-0.54297 0.19922-1.0781 0.35156-1.6094 0.45312-0.53125 0.10156-1.0703 0.15625-1.6094 0.15625-1.2734 0-2.2617-0.32031-2.9688-0.96875-0.71094-0.65625-1.0625-1.5703-1.0625-2.75 0-1.1445 0.34375-2.0469 1.0312-2.7031 0.69531-0.66406 1.6562-1 2.875-1 1.1133 0 2.0039 0.33594 2.6719 1 0.66406 0.66797 1 1.5625 1 2.6875zm-2.3281-0.75c0-0.4375-0.125-0.78516-0.375-1.0469-0.25-0.25781-0.57812-0.39062-0.98438-0.39062-0.4375 0-0.79297 0.125-1.0625 0.375-0.27344 0.24219-0.4375 0.59375-0.5 1.0625z"/>
  </symbol>
  <symbol id="f" overflow="visible">
   <path d="m4.25-3.1875c-0.46875 0-0.82422 0.085938-1.0625 0.25-0.24219 0.15625-0.35938 0.39062-0.35938 0.70312 0 0.29297 0.09375 0.52344 0.28125 0.6875 0.19531 0.15625 0.46875 0.23438 0.8125 0.23438 0.42578 0 0.78125-0.14844 1.0625-0.45312 0.28906-0.3125 0.4375-0.69531 0.4375-1.1562v-0.26562zm3.4531-0.84375v4.0312h-2.2812v-1.0469c-0.30469 0.42969-0.64062 0.74219-1.0156 0.9375-0.375 0.19531-0.83984 0.29688-1.3906 0.29688-0.73047 0-1.3242-0.21094-1.7812-0.64062-0.44922-0.42578-0.67188-0.98438-0.67188-1.6719 0-0.82031 0.28125-1.4258 0.84375-1.8125 0.57031-0.39453 1.4688-0.59375 2.6875-0.59375h1.3281v-0.17188c0-0.35156-0.14062-0.61328-0.42188-0.78125-0.28125-0.16406-0.71875-0.25-1.3125-0.25-0.49219 0-0.94531 0.054687-1.3594 0.15625-0.41797 0.09375-0.80469 0.23438-1.1562 0.42188v-1.7188c0.48828-0.11328 0.97266-0.20312 1.4531-0.26562 0.48828-0.0625 0.97656-0.09375 1.4688-0.09375 1.2695 0 2.1875 0.25 2.75 0.75 0.57031 0.5 0.85938 1.3203 0.85938 2.4531z"/>
  </symbol>
  <symbol id="b" overflow="visible">
   <path d="m3.5469-9.0781v2.0156h2.3281v1.6094h-2.3281v3c0 0.32422 0.0625 0.54688 0.1875 0.67188 0.13281 0.11719 0.39844 0.17188 0.79688 0.17188h1.1562v1.6094h-1.9375c-0.89844 0-1.5312-0.17969-1.9062-0.54688-0.36719-0.375-0.54688-1.0078-0.54688-1.9062v-3h-1.125v-1.6094h1.125v-2.0156z"/>
  </symbol>
  <symbol id="m" overflow="visible">
   <path d="m5.8906-6.0312v-3.7812h2.2812v9.8125h-2.2812v-1.0156c-0.3125 0.41797-0.65625 0.72656-1.0312 0.92188-0.375 0.1875-0.80859 0.28125-1.2969 0.28125-0.86719 0-1.5781-0.34375-2.1406-1.0312-0.5625-0.69531-0.84375-1.5938-0.84375-2.6875 0-1.082 0.28125-1.9688 0.84375-2.6562 0.5625-0.69531 1.2734-1.0469 2.1406-1.0469 0.48828 0 0.92188 0.10156 1.2969 0.29688 0.375 0.1875 0.71875 0.49219 1.0312 0.90625zm-1.4844 4.5781c0.47656 0 0.84375-0.17578 1.0938-0.53125 0.25781-0.35156 0.39062-0.86719 0.39062-1.5469 0-0.66406-0.13281-1.1758-0.39062-1.5312-0.25-0.35156-0.61719-0.53125-1.0938-0.53125-0.48047 0-0.85156 0.17969-1.1094 0.53125-0.25 0.35547-0.375 0.86719-0.375 1.5312 0 0.67969 0.125 1.1953 0.375 1.5469 0.25781 0.35547 0.62891 0.53125 1.1094 0.53125z"/>
  </symbol>
  <symbol id="l" overflow="visible">
   <path d="m4.8438-1.4531c0.48828 0 0.85938-0.17578 1.1094-0.53125 0.25-0.35156 0.375-0.86719 0.375-1.5469 0-0.66406-0.125-1.1758-0.375-1.5312-0.25-0.35156-0.62109-0.53125-1.1094-0.53125-0.48047 0-0.85156 0.17969-1.1094 0.53125-0.26172 0.35547-0.39062 0.86719-0.39062 1.5312 0 0.66797 0.12891 1.1836 0.39062 1.5469 0.25781 0.35547 0.62891 0.53125 1.1094 0.53125zm-1.5-4.5781c0.3125-0.41406 0.65625-0.71875 1.0312-0.90625 0.38281-0.19531 0.82031-0.29688 1.3125-0.29688 0.86328 0 1.5781 0.35156 2.1406 1.0469 0.5625 0.6875 0.84375 1.5742 0.84375 2.6562 0 1.0938-0.28125 1.9922-0.84375 2.6875-0.5625 0.6875-1.2773 1.0312-2.1406 1.0312-0.49219 0-0.92969-0.10156-1.3125-0.29688-0.375-0.19531-0.71875-0.5-1.0312-0.90625v1.0156h-2.2656v-9.8125h2.2656z"/>
  </symbol>
  <symbol id="e" overflow="visible">
   <path d="m0.15625-7.0625h2.2656l1.8906 4.7969 1.625-4.7969h2.25l-2.9688 7.7344c-0.30469 0.78125-0.65234 1.3281-1.0469 1.6406-0.39844 0.3125-0.92188 0.46875-1.5781 0.46875h-1.2969v-1.4688h0.70312c0.38281 0 0.66016-0.0625 0.82812-0.1875 0.17578-0.125 0.31641-0.34375 0.42188-0.65625l0.0625-0.20312z"/>
  </symbol>
  <symbol id="k" overflow="visible">
   <path d="m6.9062-1.7188h-3.7969l-0.60938 1.7188h-2.4375l3.4844-9.4219h2.9062l3.4844 9.4219h-2.4375zm-3.2031-1.75h2.5938l-1.2969-3.75z"/>
  </symbol>
  <symbol id="j" overflow="visible">
   <path d="m1.0781-7.0625h2.2656v7.0625h-2.2656zm0-2.75h2.2656v1.8438h-2.2656z"/>
  </symbol>
  <symbol id="i" overflow="visible">
   <path d="m5.7344-9.8125v1.4844h-1.25c-0.32422 0-0.54688 0.058594-0.67188 0.17188-0.125 0.11719-0.1875 0.3125-0.1875 0.59375v0.5h1.9375v1.6094h-1.9375v5.4531h-2.25v-5.4531h-1.125v-1.6094h1.125v-0.5c0-0.76953 0.21094-1.3359 0.64062-1.7031 0.42578-0.36328 1.0859-0.54688 1.9844-0.54688z"/>
  </symbol>
  <symbol id="u" overflow="visible">
   <path d="m7.7344-9.125v2c-0.51172-0.23828-1.0156-0.41406-1.5156-0.53125-0.49219-0.11328-0.95312-0.17188-1.3906-0.17188-0.57422 0-1 0.085937-1.2812 0.25-0.28125 0.15625-0.42188 0.40234-0.42188 0.73438 0 0.25 0.09375 0.44922 0.28125 0.59375 0.1875 0.13672 0.52344 0.25781 1.0156 0.35938l1.0469 0.20312c1.0391 0.21094 1.7812 0.53125 2.2188 0.96875 0.44531 0.42969 0.67188 1.0391 0.67188 1.8281 0 1.0312-0.30859 1.8047-0.92188 2.3125-0.61719 0.51172-1.5586 0.76562-2.8281 0.76562-0.59375 0-1.1953-0.058594-1.7969-0.17188-0.60547-0.11328-1.2031-0.28125-1.7969-0.5v-2.0625c0.59375 0.32422 1.1719 0.57031 1.7344 0.73438 0.5625 0.15625 1.1016 0.23438 1.625 0.23438 0.53125 0 0.9375-0.085937 1.2188-0.26562 0.28125-0.17578 0.42188-0.42578 0.42188-0.75 0-0.30078-0.10156-0.53125-0.29688-0.6875-0.1875-0.15625-0.5625-0.29688-1.125-0.42188l-0.95312-0.21875c-0.9375-0.19531-1.625-0.51562-2.0625-0.95312-0.4375-0.44531-0.65625-1.0469-0.65625-1.7969 0-0.9375 0.30078-1.6562 0.90625-2.1562 0.61328-0.50781 1.4883-0.76562 2.625-0.76562 0.50781 0 1.0352 0.042969 1.5781 0.125 0.55078 0.074219 1.1172 0.1875 1.7031 0.34375z"/>
  </symbol>
  <symbol id="h" overflow="visible">
   <path d="m1.0156-2.75v-4.3125h2.2656v0.70312c0 0.38672-0.007812 0.87109-0.015625 1.4531v1.1406c0 0.57422 0.015625 0.98438 0.046875 1.2344s0.082031 0.43359 0.15625 0.54688c0.09375 0.14844 0.21094 0.26172 0.35938 0.34375 0.14453 0.074219 0.31641 0.10938 0.51562 0.10938 0.46875 0 0.83594-0.17578 1.1094-0.53125 0.26953-0.36328 0.40625-0.86719 0.40625-1.5156v-3.4844h2.25v7.0625h-2.25v-1.0156c-0.34375 0.40625-0.71094 0.71094-1.0938 0.90625-0.375 0.19531-0.79297 0.29688-1.25 0.29688-0.8125 0-1.4336-0.25-1.8594-0.75-0.42969-0.5-0.64062-1.2266-0.64062-2.1875z"/>
  </symbol>
  <symbol id="t" overflow="visible">
   <path d="m5.8906-1.2031c-0.3125 0.41797-0.65625 0.72656-1.0312 0.92188-0.375 0.1875-0.80859 0.28125-1.2969 0.28125-0.86719 0-1.5781-0.33594-2.1406-1.0156-0.5625-0.67578-0.84375-1.5391-0.84375-2.5938 0-1.0625 0.28125-1.9258 0.84375-2.5938 0.5625-0.67578 1.2734-1.0156 2.1406-1.0156 0.48828 0 0.92188 0.10156 1.2969 0.29688 0.375 0.1875 0.71875 0.49219 1.0312 0.90625v-1.0469h2.2812v6.3438c0 1.1328-0.35938 2-1.0781 2.5938-0.71875 0.60156-1.7617 0.90625-3.125 0.90625-0.4375 0-0.86719-0.03125-1.2812-0.09375-0.41797-0.0625-0.83594-0.16797-1.25-0.3125v-1.75c0.39453 0.21875 0.78125 0.38281 1.1562 0.5 0.38281 0.11328 0.76953 0.17188 1.1562 0.17188 0.73828 0 1.2812-0.16406 1.625-0.48438 0.34375-0.32422 0.51562-0.83203 0.51562-1.5312zm-1.4844-4.3906c-0.46875 0-0.83594 0.17188-1.0938 0.51562-0.26172 0.34375-0.39062 0.83594-0.39062 1.4688 0 0.64844 0.125 1.1367 0.375 1.4688 0.25 0.33594 0.61719 0.5 1.1094 0.5 0.46875 0 0.83203-0.17188 1.0938-0.51562 0.25781-0.34375 0.39062-0.82812 0.39062-1.4531 0-0.63281-0.13281-1.125-0.39062-1.4688-0.26172-0.34375-0.625-0.51562-1.0938-0.51562z"/>
  </symbol>
  <symbol id="g" overflow="visible">
   <path d="m8.1875-4.2969v4.2969h-2.2656v-3.2969c0-0.60156-0.015625-1.0195-0.046875-1.25-0.023438-0.23828-0.070312-0.41016-0.14062-0.51562-0.085937-0.14453-0.20312-0.25781-0.35938-0.34375-0.14844-0.082031-0.32031-0.125-0.51562-0.125-0.46875 0-0.83984 0.18359-1.1094 0.54688-0.27344 0.36719-0.40625 0.87109-0.40625 1.5156v3.4688h-2.2656v-7.0625h2.2656v1.0312c0.34375-0.41406 0.70312-0.71875 1.0781-0.90625 0.38281-0.19531 0.8125-0.29688 1.2812-0.29688 0.8125 0 1.4258 0.25 1.8438 0.75 0.42578 0.5 0.64062 1.2305 0.64062 2.1875z"/>
  </symbol>
  <symbol id="d" overflow="visible">
   <path d="m4.4531-5.625c-0.5 0-0.88672 0.18359-1.1562 0.54688-0.26172 0.35547-0.39062 0.87109-0.39062 1.5469 0 0.67969 0.12891 1.1992 0.39062 1.5625 0.26953 0.35547 0.65625 0.53125 1.1562 0.53125 0.48828 0 0.86328-0.17578 1.125-0.53125 0.25781-0.36328 0.39062-0.88281 0.39062-1.5625 0-0.67578-0.13281-1.1914-0.39062-1.5469-0.26172-0.36328-0.63672-0.54688-1.125-0.54688zm0-1.6094c1.207 0 2.1562 0.32812 2.8438 0.98438s1.0312 1.5625 1.0312 2.7188c0 1.168-0.34375 2.0781-1.0312 2.7344s-1.6367 0.98438-2.8438 0.98438c-1.2188 0-2.1719-0.32812-2.8594-0.98438s-1.0312-1.5664-1.0312-2.7344c0-1.1562 0.34375-2.0625 1.0312-2.7188s1.6406-0.98438 2.8594-0.98438z"/>
  </symbol>
  <symbol id="s" overflow="visible">
   <path d="m7.6406-5.8906c0.28125-0.4375 0.61719-0.76953 1.0156-1 0.39453-0.22656 0.82812-0.34375 1.2969-0.34375 0.8125 0 1.4258 0.25 1.8438 0.75 0.42578 0.5 0.64062 1.2305 0.64062 2.1875v4.2969h-2.2656v-3.6875-0.15625c0.007813-0.0625 0.015625-0.14844 0.015625-0.26562 0-0.5-0.078125-0.85938-0.23438-1.0781-0.14844-0.22656-0.38281-0.34375-0.70312-0.34375-0.42969 0-0.76172 0.17969-1 0.53125-0.23047 0.35547-0.35156 0.86719-0.35938 1.5312v3.4688h-2.2656v-3.6875c0-0.78125-0.070312-1.2812-0.20312-1.5-0.13672-0.22656-0.375-0.34375-0.71875-0.34375-0.4375 0-0.77734 0.17969-1.0156 0.53125-0.23047 0.35547-0.34375 0.86719-0.34375 1.5312v3.4688h-2.2656v-7.0625h2.2656v1.0312c0.28125-0.39453 0.59766-0.69141 0.95312-0.89062 0.36328-0.20703 0.75781-0.3125 1.1875-0.3125 0.48828 0 0.92188 0.12109 1.2969 0.35938 0.375 0.23047 0.66016 0.55859 0.85938 0.98438z"/>
  </symbol>
  <symbol id="r" overflow="visible">
   <path d="m8.1875-4.2969v4.2969h-2.2656v-3.2812c0-0.61328-0.015625-1.0352-0.046875-1.2656-0.023438-0.23828-0.070312-0.41016-0.14062-0.51562-0.085937-0.14453-0.20312-0.25781-0.35938-0.34375-0.14844-0.082031-0.32031-0.125-0.51562-0.125-0.46875 0-0.83984 0.18359-1.1094 0.54688-0.27344 0.36719-0.40625 0.87109-0.40625 1.5156v3.4688h-2.2656v-9.8125h2.2656v3.7812c0.34375-0.41406 0.70312-0.71875 1.0781-0.90625 0.38281-0.19531 0.8125-0.29688 1.2812-0.29688 0.8125 0 1.4258 0.25 1.8438 0.75 0.42578 0.5 0.64062 1.2305 0.64062 2.1875z"/>
  </symbol>
  <symbol id="q" overflow="visible">
   <path d="m1.1875-9.4219h2.7188l3.4219 6.4688v-6.4688h2.2969v9.4219h-2.7031l-3.4375-6.4688v6.4688h-2.2969z"/>
  </symbol>
  <symbol id="p" overflow="visible">
   <path d="m1.1875-9.4219h4.0312c1.1953 0 2.1133 0.26562 2.75 0.79688 0.64453 0.53125 0.96875 1.293 0.96875 2.2812 0 0.99219-0.32422 1.75-0.96875 2.2812-0.63672 0.53125-1.5547 0.79688-2.75 0.79688h-1.6094v3.2656h-2.4219zm2.4219 1.7656v2.625h1.3438c0.47656 0 0.84375-0.11328 1.0938-0.34375 0.25781-0.22656 0.39062-0.55078 0.39062-0.96875 0-0.42578-0.13281-0.75-0.39062-0.96875-0.25-0.22656-0.61719-0.34375-1.0938-0.34375z"/>
  </symbol>
  <symbol id="o" overflow="visible">
   <path d="m1.0781-7.0625h2.2656v6.9375c0 0.94531-0.23047 1.6641-0.6875 2.1562-0.44922 0.5-1.1055 0.75-1.9688 0.75h-1.1094v-1.4688h0.39062c0.42578 0 0.71875-0.10156 0.875-0.29688 0.15625-0.19922 0.23438-0.57812 0.23438-1.1406zm0-2.75h2.2656v1.8438h-2.2656z"/>
  </symbol>
  <symbol id="n" overflow="visible">
   <path d="m6.7969-6.8438v1.8438c-0.3125-0.20703-0.625-0.36328-0.9375-0.46875-0.30469-0.10156-0.62109-0.15625-0.95312-0.15625-0.625 0-1.1172 0.1875-1.4688 0.5625-0.35547 0.36719-0.53125 0.875-0.53125 1.5312 0 0.66797 0.17578 1.1836 0.53125 1.5469 0.35156 0.36719 0.84375 0.54688 1.4688 0.54688 0.35156 0 0.6875-0.050781 1-0.15625 0.32031-0.10156 0.61719-0.25781 0.89062-0.46875v1.8594c-0.35547 0.125-0.71484 0.21875-1.0781 0.28125-0.36719 0.070313-0.73047 0.10938-1.0938 0.10938-1.2734 0-2.2656-0.32812-2.9844-0.98438s-1.0781-1.5664-1.0781-2.7344c0-1.1641 0.35938-2.0703 1.0781-2.7188 0.71875-0.65625 1.7109-0.98438 2.9844-0.98438 0.375 0 0.73828 0.03125 1.0938 0.09375 0.36328 0.0625 0.72266 0.16406 1.0781 0.29688z"/>
  </symbol>
 </defs>
 <g>
  <path d="m54.242 54.566h591.51c30.996 0 54.242 23.246 54.242 54.242v366.79c0 28.414-23.246 51.66-54.242 51.66h-591.51c-30.996 0-54.242-23.246-54.242-51.66v-366.79c0-30.996 23.246-54.242 54.242-54.242zm568.27 30.996c12.914 0 20.664 10.332 20.664 20.664 0 12.914-7.75 20.664-20.664 20.664-10.332 0-20.664-7.75-20.664-20.664 0-10.332 10.332-20.664 20.664-20.664zm-98.156 0c10.332 0 20.664 10.332 20.664 20.664 0 12.914-10.332 20.664-20.664 20.664-12.914 0-23.246-7.75-23.246-20.664 0-10.332 10.332-20.664 23.246-20.664zm-100.74 0c10.332 0 20.664 10.332 20.664 20.664 0 12.914-10.332 20.664-20.664 20.664-12.914 0-20.664-7.75-20.664-20.664 0-10.332 7.75-20.664 20.664-20.664zm255.72 69.742h-658.67v320.3c0 15.5 15.5 30.996 33.578 30.996h591.51c18.082 0 33.578-15.5 33.578-30.996v-320.3z" fill-rule="evenodd"/>
  <use y="566.003906" xlink:href="#v"/>
  <use x="9.476562" y="566.003906" xlink:href="#c"/>
  <use x="15.847656" y="566.003906" xlink:href="#a"/>
  <use x="24.605469" y="566.003906" xlink:href="#f"/>
  <use x="33.320312" y="566.003906" xlink:href="#b"/>
  <use x="39.496094" y="566.003906" xlink:href="#a"/>
  <use x="48.253906" y="566.003906" xlink:href="#m"/>
  <use x="61.996094" y="566.003906" xlink:href="#l"/>
  <use x="71.242188" y="566.003906" xlink:href="#e"/>
  <use x="84.15625" y="566.003906" xlink:href="#k"/>
  <use x="94.152344" y="566.003906" xlink:href="#c"/>
  <use x="100.519531" y="566.003906" xlink:href="#j"/>
  <use x="104.949219" y="566.003906" xlink:href="#a"/>
  <use x="113.707031" y="566.003906" xlink:href="#i"/>
  <use x="123.824219" y="566.003906" xlink:href="#u"/>
  <use x="133.125" y="566.003906" xlink:href="#h"/>
  <use x="142.320312" y="566.003906" xlink:href="#t"/>
  <use x="151.5625" y="566.003906" xlink:href="#j"/>
  <use x="155.992188" y="566.003906" xlink:href="#e"/>
  <use x="164.410156" y="566.003906" xlink:href="#f"/>
  <use x="173.125" y="566.003906" xlink:href="#g"/>
  <use x="182.320312" y="566.003906" xlink:href="#b"/>
  <use x="188.492188" y="566.003906" xlink:href="#d"/>
  <use y="578.921875" xlink:href="#i"/>
  <use x="5.617188" y="578.921875" xlink:href="#c"/>
  <use x="11.988281" y="578.921875" xlink:href="#d"/>
  <use x="20.859375" y="578.921875" xlink:href="#s"/>
  <use x="38.816406" y="578.921875" xlink:href="#b"/>
  <use x="44.988281" y="578.921875" xlink:href="#r"/>
  <use x="54.183594" y="578.921875" xlink:href="#a"/>
  <use x="67.4375" y="578.921875" xlink:href="#q"/>
  <use x="78.246094" y="578.921875" xlink:href="#d"/>
  <use x="87.121094" y="578.921875" xlink:href="#h"/>
  <use x="96.316406" y="578.921875" xlink:href="#g"/>
  <use x="110.003906" y="578.921875" xlink:href="#p"/>
  <use x="119.472656" y="578.921875" xlink:href="#c"/>
  <use x="125.839844" y="578.921875" xlink:href="#d"/>
  <use x="134.714844" y="578.921875" xlink:href="#o"/>
  <use x="139.140625" y="578.921875" xlink:href="#a"/>
  <use x="147.898438" y="578.921875" xlink:href="#n"/>
  <use x="155.554688" y="578.921875" xlink:href="#b"/>
 </g>
</svg>
