<?xml version="1.0" encoding="UTF-8"?>
<svg width="700pt" height="700pt" version="1.1" viewBox="0 0 700 700" xmlns="http://www.w3.org/2000/svg" xmlns:xlink="http://www.w3.org/1999/xlink">
 <defs>
  <symbol id="w" overflow="visible">
   <path d="m18.766-1.125c-0.96875 0.5-1.9805 0.875-3.0312 1.125-1.043 0.25781-2.1367 0.39062-3.2812 0.39062-3.3984 0-6.0898-0.94531-8.0781-2.8438-1.9922-1.9062-2.9844-4.4844-2.9844-7.7344 0-3.2578 0.99219-5.8359 2.9844-7.7344 1.9883-1.9062 4.6797-2.8594 8.0781-2.8594 1.1445 0 2.2383 0.13281 3.2812 0.39062 1.0508 0.25 2.0625 0.625 3.0312 1.125v4.2188c-0.98047-0.65625-1.9453-1.1406-2.8906-1.4531-0.94922-0.3125-1.9492-0.46875-3-0.46875-1.875 0-3.3516 0.60547-4.4219 1.8125-1.0742 1.1992-1.6094 2.8555-1.6094 4.9688 0 2.1055 0.53516 3.7617 1.6094 4.9688 1.0703 1.1992 2.5469 1.7969 4.4219 1.7969 1.0508 0 2.0508-0.14844 3-0.45312 0.94531-0.3125 1.9102-0.80078 2.8906-1.4688z"/>
  </symbol>
  <symbol id="c" overflow="visible">
   <path d="m13.734-11.141c-0.4375-0.19531-0.87109-0.34375-1.2969-0.4375-0.41797-0.10156-0.83984-0.15625-1.2656-0.15625-1.2617 0-2.2305 0.40625-2.9062 1.2188-0.67969 0.80469-1.0156 1.9531-1.0156 3.4531v7.0625h-4.8906v-15.312h4.8906v2.5156c0.625-1 1.3438-1.7266 2.1562-2.1875 0.82031-0.46875 1.8008-0.70312 2.9375-0.70312 0.16406 0 0.34375 0.011719 0.53125 0.03125 0.19531 0.011719 0.47656 0.039062 0.84375 0.078125z"/>
  </symbol>
  <symbol id="a" overflow="visible">
   <path d="m17.641-7.7031v1.4062h-11.453c0.125 1.1484 0.53906 2.0078 1.25 2.5781 0.70703 0.57422 1.7031 0.85938 2.9844 0.85938 1.0312 0 2.082-0.14844 3.1562-0.45312 1.082-0.3125 2.1914-0.77344 3.3281-1.3906v3.7656c-1.1562 0.4375-2.3125 0.76562-3.4688 0.98438-1.1562 0.22656-2.3125 0.34375-3.4688 0.34375-2.7734 0-4.9297-0.70312-6.4688-2.1094-1.5312-1.4062-2.2969-3.3789-2.2969-5.9219 0-2.5 0.75391-4.4609 2.2656-5.8906 1.5078-1.4375 3.582-2.1562 6.2188-2.1562 2.4062 0 4.332 0.73047 5.7812 2.1875 1.4453 1.4492 2.1719 3.3828 2.1719 5.7969zm-5.0312-1.625c0-0.92578-0.27344-1.6719-0.8125-2.2344-0.54297-0.57031-1.25-0.85938-2.125-0.85938-0.94922 0-1.7188 0.26562-2.3125 0.79688s-0.96484 1.2969-1.1094 2.2969z"/>
  </symbol>
  <symbol id="j" overflow="visible">
   <path d="m9.2188-6.8906c-1.0234 0-1.793 0.17188-2.3125 0.51562-0.51172 0.34375-0.76562 0.85547-0.76562 1.5312 0 0.625 0.20703 1.1172 0.625 1.4688 0.41406 0.34375 0.98828 0.51562 1.7188 0.51562 0.92578 0 1.7031-0.32812 2.3281-0.98438 0.63281-0.66406 0.95312-1.4922 0.95312-2.4844v-0.5625zm7.4688-1.8438v8.7344h-4.9219v-2.2656c-0.65625 0.92969-1.3984 1.6055-2.2188 2.0312-0.82422 0.41406-1.8242 0.625-3 0.625-1.5859 0-2.8711-0.45703-3.8594-1.375-0.99219-0.92578-1.4844-2.1289-1.4844-3.6094 0-1.7891 0.61328-3.1016 1.8438-3.9375 1.2383-0.84375 3.1797-1.2656 5.8281-1.2656h2.8906v-0.39062c0-0.76953-0.30859-1.332-0.92188-1.6875-0.61719-0.36328-1.5703-0.54688-2.8594-0.54688-1.0547 0-2.0312 0.10547-2.9375 0.3125-0.89844 0.21094-1.7305 0.52344-2.5 0.9375v-3.7344c1.0391-0.25 2.0859-0.44141 3.1406-0.57812 1.0625-0.13281 2.125-0.20312 3.1875-0.20312 2.7578 0 4.75 0.54688 5.9688 1.6406 1.2266 1.0859 1.8438 2.8555 1.8438 5.3125z"/>
  </symbol>
  <symbol id="b" overflow="visible">
   <path d="m7.7031-19.656v4.3438h5.0469v3.5h-5.0469v6.5c0 0.71094 0.14062 1.1875 0.42188 1.4375s0.83594 0.375 1.6719 0.375h2.5156v3.5h-4.1875c-1.9375 0-3.3125-0.39844-4.125-1.2031-0.80469-0.8125-1.2031-2.1797-1.2031-4.1094v-6.5h-2.4219v-3.5h2.4219v-4.3438z"/>
  </symbol>
  <symbol id="i" overflow="visible">
   <path d="m12.766-13.078v-8.2031h4.9219v21.281h-4.9219v-2.2188c-0.66797 0.90625-1.4062 1.5703-2.2188 1.9844s-1.7578 0.625-2.8281 0.625c-1.8867 0-3.4336-0.75-4.6406-2.25-1.2109-1.5-1.8125-3.4258-1.8125-5.7812 0-2.3633 0.60156-4.2969 1.8125-5.7969 1.207-1.5 2.7539-2.25 4.6406-2.25 1.0625 0 2 0.21484 2.8125 0.64062 0.82031 0.42969 1.5664 1.0859 2.2344 1.9688zm-3.2188 9.9219c1.0391 0 1.8359-0.37891 2.3906-1.1406 0.55078-0.76953 0.82812-1.8828 0.82812-3.3438 0-1.457-0.27734-2.5664-0.82812-3.3281-0.55469-0.76953-1.3516-1.1562-2.3906-1.1562-1.043 0-1.8398 0.38672-2.3906 1.1562-0.55469 0.76172-0.82812 1.8711-0.82812 3.3281 0 1.4609 0.27344 2.5742 0.82812 3.3438 0.55078 0.76172 1.3477 1.1406 2.3906 1.1406z"/>
  </symbol>
  <symbol id="h" overflow="visible">
   <path d="m10.5-3.1562c1.0508 0 1.8516-0.37891 2.4062-1.1406 0.55078-0.76953 0.82812-1.8828 0.82812-3.3438 0-1.457-0.27734-2.5664-0.82812-3.3281-0.55469-0.76953-1.3555-1.1562-2.4062-1.1562-1.0547 0-1.8594 0.38672-2.4219 1.1562-0.55469 0.77344-0.82812 1.8828-0.82812 3.3281 0 1.4492 0.27344 2.5586 0.82812 3.3281 0.5625 0.77344 1.3672 1.1562 2.4219 1.1562zm-3.25-9.9219c0.67578-0.88281 1.4219-1.5391 2.2344-1.9688 0.82031-0.42578 1.7656-0.64062 2.8281-0.64062 1.8945 0 3.4453 0.75 4.6562 2.25 1.207 1.5 1.8125 3.4336 1.8125 5.7969 0 2.3555-0.60547 4.2812-1.8125 5.7812-1.2109 1.5-2.7617 2.25-4.6562 2.25-1.0625 0-2.0078-0.21094-2.8281-0.625-0.8125-0.42578-1.5586-1.0859-2.2344-1.9844v2.2188h-4.8906v-21.281h4.8906z"/>
  </symbol>
  <symbol id="g" overflow="visible">
   <path d="m0.34375-15.312h4.8906l4.125 10.391 3.5-10.391h4.8906l-6.4375 16.766c-0.64844 1.6953-1.4023 2.8828-2.2656 3.5625-0.86719 0.6875-2 1.0312-3.4062 1.0312h-2.8438v-3.2188h1.5312c0.83203 0 1.4375-0.13672 1.8125-0.40625 0.38281-0.26172 0.67969-0.73047 0.89062-1.4062l0.14062-0.42188z"/>
  </symbol>
  <symbol id="f" overflow="visible">
   <path d="m2.5781-20.406h5.25v16.422h9.25v3.9844h-14.5z"/>
  </symbol>
  <symbol id="e" overflow="visible">
   <path d="m2.1875-5.9688v-9.3438h4.9219v1.5312c0 0.83594-0.007813 1.875-0.015625 3.125-0.011719 1.25-0.015625 2.0859-0.015625 2.5 0 1.2422 0.03125 2.1328 0.09375 2.6719 0.070313 0.54297 0.17969 0.93359 0.32812 1.1719 0.20703 0.32422 0.47266 0.57422 0.79688 0.75 0.32031 0.16797 0.69141 0.25 1.1094 0.25 1.0195 0 1.8203-0.39062 2.4062-1.1719 0.58203-0.78125 0.875-1.8672 0.875-3.2656v-7.5625h4.8906v15.312h-4.8906v-2.2188c-0.74219 0.89844-1.5234 1.5586-2.3438 1.9844-0.82422 0.41406-1.7344 0.625-2.7344 0.625-1.7617 0-3.1055-0.53906-4.0312-1.625-0.92969-1.082-1.3906-2.6602-1.3906-4.7344z"/>
  </symbol>
  <symbol id="v" overflow="visible">
   <path d="m2.3594-21.281h4.8906v11.594l5.625-5.625h5.6875l-7.4688 7.0312 8.0625 8.2812h-5.9375l-5.9688-6.3906v6.3906h-4.8906z"/>
  </symbol>
  <symbol id="u" overflow="visible">
   <path d="m2.5781-20.406h5.25v7.4375l7.5938-7.4375h6.1094l-9.8281 9.6562 10.844 10.75h-6.5938l-8.125-8.0469v8.0469h-5.25z"/>
  </symbol>
  <symbol id="t" overflow="visible">
   <path d="m2.3594-15.312h4.8906v15.312h-4.8906zm0-5.9688h4.8906v4h-4.8906z"/>
  </symbol>
  <symbol id="s" overflow="visible">
   <path d="m2.3594-21.281h4.8906v21.281h-4.8906z"/>
  </symbol>
  <symbol id="r" overflow="visible">
   <path d="m12.422-21.281v3.2188h-2.7031c-0.6875 0-1.1719 0.125-1.4531 0.375-0.27344 0.25-0.40625 0.6875-0.40625 1.3125v1.0625h4.1875v3.5h-4.1875v11.812h-4.8906v-11.812h-2.4375v-3.5h2.4375v-1.0625c0-1.6641 0.46094-2.8984 1.3906-3.7031 0.92578-0.80078 2.3672-1.2031 4.3281-1.2031z"/>
  </symbol>
  <symbol id="d" overflow="visible">
   <path d="m9.6406-12.188c-1.0859 0-1.9141 0.39062-2.4844 1.1719-0.57422 0.78125-0.85938 1.9062-0.85938 3.375s0.28516 2.5938 0.85938 3.375c0.57031 0.77344 1.3984 1.1562 2.4844 1.1562 1.0625 0 1.875-0.38281 2.4375-1.1562 0.57031-0.78125 0.85938-1.9062 0.85938-3.375s-0.28906-2.5938-0.85938-3.375c-0.5625-0.78125-1.375-1.1719-2.4375-1.1719zm0-3.5c2.6328 0 4.6914 0.71484 6.1719 2.1406 1.4766 1.418 2.2188 3.3867 2.2188 5.9062 0 2.5117-0.74219 4.4805-2.2188 5.9062-1.4805 1.418-3.5391 2.125-6.1719 2.125-2.6484 0-4.7148-0.70703-6.2031-2.125-1.4922-1.4258-2.2344-3.3945-2.2344-5.9062 0-2.5195 0.74219-4.4883 2.2344-5.9062 1.4883-1.4258 3.5547-2.1406 6.2031-2.1406z"/>
  </symbol>
  <symbol id="q" overflow="visible">
   <path d="m16.547-12.766c0.61328-0.94531 1.3477-1.6719 2.2031-2.1719 0.85156-0.5 1.7891-0.75 2.8125-0.75 1.7578 0 3.0977 0.54688 4.0156 1.6406 0.92578 1.0859 1.3906 2.6562 1.3906 4.7188v9.3281h-4.9219v-7.9844-0.35938c0.007813-0.13281 0.015625-0.32031 0.015625-0.5625 0-1.082-0.16406-1.8633-0.48438-2.3438-0.3125-0.48828-0.82422-0.73438-1.5312-0.73438-0.92969 0-1.6484 0.38672-2.1562 1.1562-0.51172 0.76172-0.77344 1.8672-0.78125 3.3125v7.5156h-4.9219v-7.9844c0-1.6953-0.14844-2.7852-0.4375-3.2656-0.29297-0.48828-0.8125-0.73438-1.5625-0.73438-0.9375 0-1.6641 0.38672-2.1719 1.1562-0.51172 0.76172-0.76562 1.8594-0.76562 3.2969v7.5312h-4.9219v-15.312h4.9219v2.2344c0.60156-0.86328 1.2891-1.5156 2.0625-1.9531 0.78125-0.4375 1.6406-0.65625 2.5781-0.65625 1.0625 0 2 0.25781 2.8125 0.76562 0.8125 0.51172 1.4258 1.2305 1.8438 2.1562z"/>
  </symbol>
  <symbol id="p" overflow="visible">
   <path d="m17.75-9.3281v9.3281h-4.9219v-7.1094c0-1.3438-0.03125-2.2656-0.09375-2.7656s-0.16797-0.86719-0.3125-1.1094c-0.1875-0.3125-0.44922-0.55469-0.78125-0.73438-0.32422-0.17578-0.69531-0.26562-1.1094-0.26562-1.0234 0-1.8242 0.39844-2.4062 1.1875-0.58594 0.78125-0.875 1.8711-0.875 3.2656v7.5312h-4.8906v-21.281h4.8906v8.2031c0.73828-0.88281 1.5195-1.5391 2.3438-1.9688 0.83203-0.42578 1.75-0.64062 2.75-0.64062 1.7695 0 3.1133 0.54688 4.0312 1.6406 0.91406 1.0859 1.375 2.6562 1.375 4.7188z"/>
  </symbol>
  <symbol id="o" overflow="visible">
   <path d="m2.5781-20.406h5.875l7.4219 14v-14h4.9844v20.406h-5.875l-7.4219-14v14h-4.9844z"/>
  </symbol>
  <symbol id="n" overflow="visible">
   <path d="m17.75-9.3281v9.3281h-4.9219v-7.1406c0-1.3203-0.03125-2.2344-0.09375-2.7344s-0.16797-0.86719-0.3125-1.1094c-0.1875-0.3125-0.44922-0.55469-0.78125-0.73438-0.32422-0.17578-0.69531-0.26562-1.1094-0.26562-1.0234 0-1.8242 0.39844-2.4062 1.1875-0.58594 0.78125-0.875 1.8711-0.875 3.2656v7.5312h-4.8906v-15.312h4.8906v2.2344c0.73828-0.88281 1.5195-1.5391 2.3438-1.9688 0.83203-0.42578 1.75-0.64062 2.75-0.64062 1.7695 0 3.1133 0.54688 4.0312 1.6406 0.91406 1.0859 1.375 2.6562 1.375 4.7188z"/>
  </symbol>
  <symbol id="m" overflow="visible">
   <path d="m2.5781-20.406h8.7344c2.5938 0 4.582 0.57812 5.9688 1.7344 1.3945 1.1484 2.0938 2.7891 2.0938 4.9219 0 2.1367-0.69922 3.7812-2.0938 4.9375-1.3867 1.1562-3.375 1.7344-5.9688 1.7344h-3.4844v7.0781h-5.25zm5.25 3.8125v5.7031h2.9219c1.0195 0 1.8047-0.25 2.3594-0.75 0.5625-0.5 0.84375-1.2031 0.84375-2.1094 0-0.91406-0.28125-1.6172-0.84375-2.1094-0.55469-0.48828-1.3398-0.73438-2.3594-0.73438z"/>
  </symbol>
  <symbol id="l" overflow="visible">
   <path d="m2.3594-15.312h4.8906v15.031c0 2.0508-0.49609 3.6172-1.4844 4.7031-0.98047 1.082-2.4062 1.625-4.2812 1.625h-2.4219v-3.2188h0.85938c0.92578 0 1.5625-0.21094 1.9062-0.625 0.35156-0.41797 0.53125-1.2461 0.53125-2.4844zm0-5.9688h4.8906v4h-4.8906z"/>
  </symbol>
  <symbol id="k" overflow="visible">
   <path d="m14.719-14.828v3.9844c-0.65625-0.45703-1.3242-0.79688-2-1.0156-0.66797-0.21875-1.3594-0.32812-2.0781-0.32812-1.3672 0-2.4336 0.40234-3.2031 1.2031-0.76172 0.79297-1.1406 1.9062-1.1406 3.3438 0 1.4297 0.37891 2.543 1.1406 3.3438 0.76953 0.79297 1.8359 1.1875 3.2031 1.1875 0.75781 0 1.4844-0.10938 2.1719-0.32812 0.6875-0.22656 1.3203-0.56641 1.9062-1.0156v4c-0.76172 0.28125-1.5391 0.48828-2.3281 0.625-0.78125 0.14453-1.5742 0.21875-2.375 0.21875-2.7617 0-4.9219-0.70703-6.4844-2.125-1.5547-1.4141-2.3281-3.3828-2.3281-5.9062 0-2.5312 0.77344-4.5039 2.3281-5.9219 1.5625-1.4141 3.7227-2.125 6.4844-2.125 0.80078 0 1.5938 0.074219 2.375 0.21875 0.78125 0.13672 1.5547 0.35156 2.3281 0.64062z"/>
  </symbol>
 </defs>
 <g>
  <path d="m586.44 384.96c2.2617-7.5781 0.32422-20.988 0.32422-20.988s16.805-14.867 8.082-24.562c-1.7148-1.4336-6.1367-3.2305-12.281 3.1992-1.9375-10.305-5.4922-14.828-5.4922-14.828s24.887-30.055-19.395-81.441c-3.8789-4.5234 0.96875-20.363-13.898-36.199-3.8789-28.117 1.6172-58.496 9.6953-71.746 3.8789-3.9297 11.312-1.293 10.02-8.082-1.293-6.7891-11.312-10.445-11.312-10.445s-10.344-23.492-23.27-31.566c0.11719-3.8633 1.6172-29.41-6.1445-31.348-7.1133 0-10.344 20.035-14.543 21.973-4.1992 1.9375-36.52-10.988-71.422 7.1133-3.2305 0.96875-14.84-12.281-18.406-8.7266-3.5664 3.5547 0 17.129 0 17.129s-11.75 8.0938-26.836 15.836c-4.6719-0.32422-16-15.836-29.41-16.48s-20.312 12.195-20.312 12.195-16.531-25.77-55.961-12.195c-4.8477-2.2617-7.4297-16.805-12.926-13.574-1.9922 3.2305-5.8203 9.7266-5.168 22.719-16.438 22.238-33.609 11.535-36.199 16.93-2.5859 11.738 10.344 11.738 10.02 14.594 0 5.8672-3.3711 10.254-3.3711 10.254s-23.453 3.332-30.238 13.34c-10.16 14.918-6.0469 36.07-10.16 41.418-15.535 16.805-22.484 37.492-22.484 37.492s-10.344 16.684-13.574 16.684c-3.2305 0-8.7266-14.422-14.543-10.543-0.61719 3.2969-3.5547 10.543 4.5234 25.75-11.312 24.348 4.5234 53.434 4.5234 53.434s-9.375 10.02-5.4922 13.898c3.8789 3.8789 16.805 1.6172 16.805 1.6172s19.066 17.129 37.812 27.469c-74.652 24.238-70.777 52.73-102.77 88.555 0.95703 3.8906-2.2891 6.1719 9.0508 5.8203 17.129-2.9062 43.953 13.25 93.078-2.9062 3.5547 9.1562-3.8789 27.469 2.9062 30.703 6.7891 3.2305 9.9023-9.5469 13.25-8.7266 24.887 23.918 63.34 16.16 65.93 16.16 2.5859 0 4.8477 10.344 10.664 7.7578 5.8203-2.5859 2.375-8.8594 5.4922-9.6953 3.1211-0.83594 60.094-16.16 64.141-16.16 4.0469 0 2.1523-3.8789 2.1523-3.8789s25.434-2.2617 29.5-2.9062c4.0664-0.64453 17.641 9.0508 46.246 2.9062 30.863 17.449 58.98 19.066 94.527 29.73 10.664-7.7578 6.7773-55.266-14.543-82.09 5.168-1.9375 5.168-1.9375 7.4297-2.5312 3.0508 4.793 7.1133 7.707 7.1133 7.707s6.2617 1.1406 9.6953-7.707c20.688-5.6016 30.379-15.887 30.379-15.887s14.867-4.6602 15.188-7.9844c0.33594-3.3398-2.5742-5.2773-8.3945-9.1836zm-37.484-135.71c4.5234 25.855 20.688 13.035 24.562 50.473 2.9062 30.648-37.492 80.414-37.492 80.414s0.50391-14.867 0-19.395c-0.50391-4.5234 36.199-23.918 9.375-107.09-15.512-41.242-55.266-59.668-46.859-61.605 39.426 17.133 45.891 31.352 50.414 57.207zm-231.85 60.234c11.121 10.891 46.977 59.684 81.699 56.055-31.652 18.387-73.98 20.875-85.102 18.84-20.875-2.9531-28.824-41.984-37.219-52.426-17.473-31.914-16.789-59.23-16.793-64.449 1.3594-11.574 14.297-30.637 33.137-38.355-22.93 52.418 13.156 69.438 24.277 80.336zm50.051-62.215c-22.469 14.895-16.121 44.934-44.672 56.566-14.801-11.633-32.777-24.656-26.965-51.812 4.7617-9.9531 23.789-30.133 62.383-32.777-4.2266 7.4023-4.2266 7.4023-4.2266 7.4023s7.3984 14.273 13.48 20.621zm7.8203 57.902s16.109 6.043 23.828 0.45312c3.8594 22.012-6.5781 36.992-17.02 36.992-10.438 0-13.676 2.043-19.516 0-5.8398-2.043-31.496-30.184-31.496-30.184s7.8906-4.793 11.297-8.5977c19.062 8.1406 32.906 1.3359 32.906 1.3359zm-29.277-7.9453s7.0352-7.4883 6.5781-15.656c5.2188 8.293 14.867 15.434 14.867 18.156-10.719-2.0469-21.445-2.5-21.445-2.5zm29.277-2.2695c4.3125-6.9844 10.215-11.574 13.391-26.098 10.438 6.3555 10.438 23.828 10.438 27.688-17.246 7.293-15.656 1.3633-23.828-1.5898zm-7.8203-66.191s44.816-9.5156 57.887 32.777c-5.5664 7.4492-13.742 17.977-18.504 26.434-1.0586-22.207-39.383-59.211-39.383-59.211zm5.7734 24.887c3.6289 5.6719 7.0391 12.707 7.0391 12.707s-2.9531 7.0352-11.121 21.617c-7.2617-4.9375-10.215-20.027-10.215-20.027s7.0391-10.035 14.297-14.297zm37.906 107.8c12.027-11.574 52.422-21.332 61.047-82.273 1.8125 16.91 34.496 44.504 18.84 73.199-14.527 22.012-44.258 23.43-57.645 32.598-13.391 9.1602-12.938 29.137-48.34 27.316-19.531-1.5898-39.918-18.84-42.891-21.559 71.707-12.266 60.574-17.5 68.988-29.281zm-26.102-6.1289c27.234-21.559 22.469-27.008 25.188-58.102 0-4.082 23.605-26.41 35.129-44.934 6.8594 9.25 18.207 0.45313 18.207 29.277 0 28.824-49.703 86.918-78.523 73.758zm47.18-100.65c-8.457-10.047-11.66-36.754-51.277-37.004-51.277-18.504-79.828 14.273-79.828 14.273s17.977-73.875 77.711-73.875c54.977 0 85.645 77.57 53.395 96.605zm-136.92-38.59c-31.719 24.848-70.312 35.422-16.918 141-89.875-60.117-83.004-73.332-60.797-112.98 12.156-62.383 19.027-34.363 51.277-56.301 32.25-21.941 10.074-34.098 70.312-28.285-8.9805 8.4609-30.328 12.199-43.875 56.57zm-10.336 151.73s9.9961 28.656 43.121 24.059c43.805 34.043 66.191 32.906 90.625 21.559 15.809-2.7227 31.695-9.9844 35.102-7.2617-11.816 9.5039-60.367 39.492-84.195 39.492s-65.816-20.652-98.34-34.719c-17.852-10.668-26.699-66.039-26.699-68.309 24.723 12.922 40.387 25.18 40.387 25.18zm143.43 34.312c13.293-21.371 47.828-11.957 72.391-51.711 13.25-26.73-10.02-52.68-13.898-59.762-10.664-11.285-7.7578-35.973-36.199-45.594 20.035-46.535-33.938-84.996-33.938-84.996s28.605-13.574 41.043-15.188c24.562-2.9062 22.301 40.398 32.969 54.617s27.469 19.77 43.629 54.176c26.18 73.809 9.5039 81.891-10.02 107.74-33.277 53.637-44.59 26.488-95.977 40.715zm76.918-267.65c7.4297 5.8672 6.1367-2.8555 17.449-2.8555 2.2617 10.344-8.082 19.711-9.0508 58.496-4.0312-3.2656-8.7266-8.4062-21.004-11.312-1.4336-7.8789-4.1992-43.141-36.52-43.141-17.449-9.9062-15.836-7.5938-29.73-9.9062 0-2.5352 22.301-13.844 26.824-14.816 4.5234-0.96875 3.457 8.9492 10.293 8.9492s7.4805-12.18 7.4805-12.18 19.711-6.4609 38.781 5.8203c2.9102 2.4102-11.957 15.078-4.5234 20.945zm27.473 259.66c4.1992-3.4609 20.383-17.523 26.18-28.855 6.7812 27.469-9.3203 25.305-26.18 28.855zm-107.43-295.16-1.043-12.926s8.6055 9.0508 12.164 9.0508c29.73-17.449 74.977-7.1133 74.977-7.1133l10.02-20.035s0.23047 18.762 0.32422 26.5c19.066 11.637 22.941 31.297 22.941 31.297l7.7578 2.3125s-1.6172 3.5547-6.4609 6.4102c-4.1328 14.875-14.543 32.043-10.199 68.891-5.3477-4.8477-8.2383-6.0664-14.363-9.6953-5.8203-33.285 17.773-59.191 6.4609-70.777-9.0508 2.8555-14.867 2.8555-14.867 2.8555l9.375-12.875s-18.426-21.332-58.867-12.605v12.008l-5.1172-9.3242s-10.664 1.5195-44.598 18.648c-6.4609-0.64453-14.734-5.6562-14.734-5.6562zm-86.176 25.652c11.945-10.578 12.691-21.676 22.73-21.676 15.469 0 15.883 11.047 31.719 21.145 9.6055 6.1211 27.008 10.473 50.754 15.859-34.895 10.574-39.648 13.215-39.648 13.215s-30.133-4.8945-46.52 0c-32.25-7.9297-59.207-4.8945-67.672 0 14.727-12.992 38.816-19.84 48.637-28.543zm-46.848-0.44141c0.32422-1.7734 21.656-8.7266 27.148 0-16.16 3.875-18.363 7.4297-18.363 7.4297s-9.1055-5.6523-8.7852-7.4297zm-33.465-0.64453s6.6406-7.5938 16.984-16.48c-2.9062-5.4922 0.32422-15.512 0.32422-15.512s7.1641 9.3359 8.7539 11.406c33.215-13.668 53.059 6.6914 53.059 6.6914l-11.445 10.238s-16.43-18.969-42.93 0c-0.32422 3.9375 0 5.8672 0 5.8672s-12.926-5.8672-35.547 14.594c-0.64453-4.3867 6.7891-8.7266-4.8477-14.594 10.332-0.003906 15.648-2.2109 15.648-2.2109zm-78.68 164.44-4.5234-1.8828 2.5859-4.5234zm3.5547 9.7578s0 7.0352 5.8203 12.977v12.977l-13.898-19.84zm-14.219 32.316-11.312 2.2617s6.6211-6.0156 6.4609-8.6289c-17.449-35.707-3.2305-54.824-3.2305-54.824l-8.082-15.203s6.1367 3.375 10.988 7.8906c5.4922-3.9766 9.6953-13.262 9.6953-13.262s0 15.188 1.9375 20.574c-4.4531 9.4922-8.082 17.238-8.082 17.238s4.1992 5.4922 8.3984 7.1133c-5.9805 4.8711-9.6953 5.4922-8.7266 6.9492 2.5859 14.055 22.625 34.418 22.625 34.418s4.5234 14.543 4.5234 17.449c0.003906 2.9062-25.195-21.977-25.195-21.977zm25.211-27.793s-24.562-62.699 3.4141-88.227c11.496-8.7266 13.098-35.297 13.391-38.461 3.2305-22.398 15.188-14.219 39.754-24.887 18.426-7.3789 21.332-22.625 41.043-13.25-15.512 15.734-18.238 25.949-21.062 32.641-15.137 21.973-36.605 17.129-50.359 30.379-8.082 9.0508-6.7891 23.594-11.312 38.781-12.926 29.625-20.035 28.441-11.453 58.496-3.6953 5.1719-3.4141 4.5273-3.4141 4.5273zm5.5781 43.535c-5.6719-13.613 1.5898-41.027 1.5898-41.027s8.1719 18.918 34.496 32.633c2.2695 39.262 22.469 71.488 22.469 71.488s-30.359-5.9023-40.852-17.473c-2.9531-4.9961-0.90625-15.656-3.8594-22.695-2.9453-7.0352-8.1641-9.3086-13.844-22.926zm98.805 141.33-2.9062 7.7539-7.4297-7.4297c2.5312 2.2695-38.762 7.7852-66.898-14.543-2.5312-2.0117-3.2305 0-9.375 6.4609-0.64453-6.4609 3.5547-16.48 3.5547-16.48s-4.8477-6.1367-7.7578-17.227c-37.812 20.242-66.254 5.7578-97.926 7.8555 23.594-19.395 27.469-65.605 96.633-80.148 0 32.316 35.23 39.047 35.23 39.047s5.8203 8.457 11.312 12.98c-10.344 4.5234-31.348 20.262-31.348 20.262s-3.2305 27.242 40.723 33.062c3.8789-5.8203 6.4609-12.82 6.4609-12.82s0.32422 11.523 5.168 12.82c4.8438 1.293 54.156-8.9258 61.402-12.5 10.051 4.7422 22.988 6.6797 22.988 6.6797zm-27.848-30.383c-5.7617 0-12.402 16.16-12.402 16.16s-27.934-4.8477-30.359-23.918c16.062-11.957 27.957-19.066 27.957-19.066s33.84 17.449 38.246 23.918c6.3555 4.0273 22.508 1.293 30.586 9.0508-22.941 10.02-49.773 8.7266-49.773 8.7266 0.003906 0 1.5078-14.871-4.2539-14.871zm59.82 2.5898c-8.0938-10.344-30.996-11.312-30.996-11.312s-36.199-21.332-46.535-32.316c4.8477-0.32422 5.3125-0.96875 15.512 2.3125-2.207 2.9609 70.117 32.594 100.55 34.855 12.875 0.96875 26.797-2.5859 89.156-40.453-54.305 66.609-98.258 55.637-127.69 46.914zm78.238 5.168c49.125-24.238 58.863-53.004 65.93-59.141 36.52-0.32422 48.156-31.023 52.355-35.547 0.80469 18.098-9.0508 24.332-15.836 35.23-11.637 42.66-30 32.766-48.203 40.621-18.211 7.8477-2.8633 26.234-54.246 18.836zm126.51 30.379c-30.844-12.281-75.027-13.574-82.023-25.855 16.273-32.316 47.945-2.8047 61.516-50.418 1.9375 1.6211 26.469 25.207 20.508 76.273zm40.254-99.219c-6.4609 10.684-24.562 13.227-32.969 16.75-1.293 3.5234-2.9062 6.1992-2.9062 6.1992s-1.6172 0-4.3789-6.1992c-5.3477 2.207-18.562 1.6758-18.562 1.6758s1.293-5.1914 7.7578-11.957c32.969-4.8477 53.648-10.02 39.105-46.859 5.168-10.02 6.1367-14.867 9.8438-19.066 1.4688 6.4297 3.4062 13.574 3.4062 13.574s4.8477-0.64453 13.574-3.9688c-0.96875 3.1758-11.637 16.25-11.637 16.25s4.1992 13.25 0 27.148c5.3438 0 6.1445 4.9453 6.1445 4.9453-0.003906-0.003906-5.1797-0.011719-9.3789 1.5078z"/>
  <use x="70" y="644" xlink:href="#w"/>
  <use x="90.550781" y="644" xlink:href="#c"/>
  <use x="104.359375" y="644" xlink:href="#a"/>
  <use x="123.347656" y="644" xlink:href="#j"/>
  <use x="142.242188" y="644" xlink:href="#b"/>
  <use x="155.628906" y="644" xlink:href="#a"/>
  <use x="174.617188" y="644" xlink:href="#i"/>
  <use x="204.410156" y="644" xlink:href="#h"/>
  <use x="224.453125" y="644" xlink:href="#g"/>
  <use x="252.453125" y="644" xlink:href="#f"/>
  <use x="270.292969" y="644" xlink:href="#e"/>
  <use x="290.226562" y="644" xlink:href="#v"/>
  <use x="308.847656" y="644" xlink:href="#a"/>
  <use x="337.585938" y="644" xlink:href="#u"/>
  <use x="359.28125" y="644" xlink:href="#a"/>
  <use x="378.273438" y="644" xlink:href="#t"/>
  <use x="387.871094" y="644" xlink:href="#s"/>
  <use x="70" y="672" xlink:href="#r"/>
  <use x="82.183594" y="672" xlink:href="#c"/>
  <use x="95.992188" y="672" xlink:href="#d"/>
  <use x="115.226562" y="672" xlink:href="#q"/>
  <use x="154.152344" y="672" xlink:href="#b"/>
  <use x="167.535156" y="672" xlink:href="#p"/>
  <use x="187.46875" y="672" xlink:href="#a"/>
  <use x="216.207031" y="672" xlink:href="#o"/>
  <use x="239.640625" y="672" xlink:href="#d"/>
  <use x="258.878906" y="672" xlink:href="#e"/>
  <use x="278.8125" y="672" xlink:href="#n"/>
  <use x="308.492188" y="672" xlink:href="#m"/>
  <use x="329.015625" y="672" xlink:href="#c"/>
  <use x="342.820312" y="672" xlink:href="#d"/>
  <use x="362.058594" y="672" xlink:href="#l"/>
  <use x="371.65625" y="672" xlink:href="#a"/>
  <use x="390.648438" y="672" xlink:href="#k"/>
  <use x="407.242188" y="672" xlink:href="#b"/>
 </g>
</svg>
