<?xml version="1.0" encoding="UTF-8"?>
<svg width="700pt" height="700pt" version="1.1" viewBox="0 0 700 700" xmlns="http://www.w3.org/2000/svg">
 <path d="m525 455h-332.5c-67.551 0-122.5-54.949-122.5-122.5 0-66.57 53.375-120.89 119.56-122.46 27.547-63.352 90.406-105.04 160.44-105.04 84.316 0 155.26 59.078 171.57 140.04 61.18-1.5039 108.43 45.918 108.43 104.96 0 57.891-47.109 105-105 105zm-332.5-210c-48.23 0-87.5 39.234-87.5 87.5s39.27 87.5 87.5 87.5h332.5c38.605 0 70-31.395 70-70s-31.395-70-70-70c-5.1445 0-10.395 0.59375-14.98 1.4336-4.7969 0.91016-9.8008-0.24609-13.719-3.1836-3.9219-2.9414-6.4414-7.3867-6.8945-12.25-7.2812-71.82-67.203-126-139.41-126-59.605 0-112.73 37.766-132.2 93.941-2.9766 8.5391-11.934 13.508-20.789 11.234-0.80469-0.17578-3.1172-0.17578-4.5156-0.17578z"/>
</svg>
