<svg width="700pt" height="700pt" viewBox="0 0 700 700" xmlns="http://www.w3.org/2000/svg"><g fill="#efefef"><path d="M211.701 397.813v45.691h-55.324c-26.773.184-26.809 34.56 0 34.5h72.566c10.605.055 17.246-8.511 17.266-18.133v-62.059c-.015-26.016-34.473-26.016-34.508 0z"/><path d="M168.641 435.823c17.891-.066 32.43-14.582 32.512-32.508-.085-17.938-14.62-32.469-32.512-32.508-17.98.04-32.512 14.57-32.484 32.508-.027 17.934 14.5 32.45 32.484 32.508zm401.98-3.36l-112.55.012v-13.984c.036-22.566-15.328-39.355-41.48-39.297h-153.45v98.207l307.42-.043c12.398.023 22.461-10 22.5-22.422 0-12.402-10.035-22.445-22.438-22.473z"/><path d="M118.311 495.643v-177.15H70.948l-.117 311.54h47.48v-89.617h454.77v89.617h47.754v-134.39zm199.74-207.45c-54.332 0-98.539-44.199-98.539-98.53 0-54.337 44.207-98.532 98.54-98.532 54.335 0 98.53 44.2 98.53 98.531 0 54.324-44.195 98.531-98.53 98.531zm0-183.33c-46.762 0-84.797 38.04-84.797 84.801 0 46.762 38.035 84.801 84.797 84.801 46.754 0 84.797-38.039 84.797-84.8 0-46.763-38.043-84.802-84.797-84.802zm-130.55 197.96c-21.992 0-39.883-17.898-39.883-39.895 0-21.997 17.891-39.89 39.883-39.89 21.992 0 39.891 17.89 39.891 39.89-.004 22-17.902 39.895-39.89 39.895zm0-66.668c-14.762 0-26.777 12.012-26.777 26.773 0 14.766 12.02 26.777 26.777 26.777 14.762 0 26.777-12.012 26.777-26.777 0-14.762-12.016-26.773-26.777-26.773z"/><path d="M223.621 360.843c-15.703 0-28.469-12.777-28.469-28.477 0-15.69 12.77-28.465 28.47-28.465 15.694 0 28.464 12.773 28.464 28.465.004 15.7-12.77 28.477-28.465 28.477zm0-44.44c-8.808 0-15.977 7.163-15.977 15.964 0 8.809 7.168 15.98 15.977 15.98 8.805 0 15.973-7.168 15.973-15.98 0-8.808-7.168-15.965-15.973-15.965zm393.44-203.229c-6.703 0-12.117 5.41-12.117 12.102v10.95l-20.293-57.567c-2.328-6.613-9.593-10.078-16.21-7.773-6.641 2.36-10.11 9.605-7.786 16.234l21.684 61.492L535.38 76.3c-4.2-6.434-12.813-8.27-19.27-4.098-6.454 4.2-8.282 12.828-4.11 19.285l37.398 57.527 43.473 24.328a4.865 4.865 0 011.875 6.614 4.901 4.901 0 01-4.246 2.464c-.79 0-1.602-.195-2.352-.609l-24.574-13.699c-7.953-4.73-25.168-12.297-41.105-9.606-13.215 2.247-25.219 9.004-33.69 19.45-4.802 5.902-3.891 14.581 2.015 19.362 5.902 4.79 14.57 3.887 19.363-2.015 4.199-5.14 10.098-8.559 16.645-9.606 7.101-1.12 14.164.57 19.988 4.793 5.777 4.2 9.625 10.434 10.762 17.5 2.328 14.61-7.66 28.414-22.277 30.75-14.566 2.352-28.453-7.668-30.777-22.3-1.211-7.493-8.293-12.552-15.773-11.415-7.508 1.176-12.617 8.25-11.426 15.766 2.61 16.29 12.285 29.688 25.355 37.703l53.84 40.762v39h72.676v-212.99c.02-6.68-5.41-12.09-12.105-12.09z"/><path d="M420.651 201.573c0-1.82 4.028-2.43 5.364-2.43h63.598c1.328 0 2.441 1.094 2.441 2.43 0 1.332-1.11 2.414-2.441 2.414h-63.594c-1.344.008-5.367-.714-5.367-2.414z"/></g></svg>