<svg width="700pt" height="700pt" viewBox="0 0 700 700" xmlns="http://www.w3.org/2000/svg"><g fill="#efefef"><path d="M579.654 376.36h-10.91a8.75 8.75 0 00-8.75 8.75v26.25h-17.5v-12.25a22.822 22.822 0 00-6.68-16.07 22.823 22.823 0 00-16.07-6.679h-99.897a148.817 148.817 0 0076.418-103.79 148.812 148.812 0 00-33.281-124.52 148.788 148.788 0 00-118.01-51.824 148.794 148.794 0 00-114.2 59.75 148.806 148.806 0 0058.605 224.836 22.754 22.754 0 00-9.38 18.297v12.25h-17.5v-.332a34.701 34.701 0 00-34.66-34.668h-51.257a19.104 19.104 0 00-13.488 5.602 19.1 19.1 0 00-5.594 13.492v15.906H140V297.61a26.254 26.254 0 00-13.125-22.734 26.258 26.258 0 00-26.25 0A26.255 26.255 0 0087.5 297.61v297.5a8.752 8.752 0 008.75 8.75h35a8.752 8.752 0 008.75-8.75v-78.75h420v70a8.752 8.752 0 008.75 8.75h35a8.752 8.752 0 008.75-8.75V409.2a32.87 32.87 0 00-9.629-23.211 32.87 32.87 0 00-23.21-9.63zm-360.5-122.5h25.84a8.75 8.75 0 000-17.5H219.19a131.27 131.27 0 0138.141-83.913 131.273 131.273 0 0183.914-38.141v25.805a8.75 8.75 0 0017.5 0v-25.805a131.27 131.27 0 0183.914 38.14 131.273 131.273 0 0138.141 83.915h-25.805a8.75 8.75 0 000 17.5H480.8a131.27 131.27 0 01-38.14 83.914 131.273 131.273 0 01-83.915 38.14v-25.804a8.75 8.75 0 00-17.5 0v25.805a131.27 131.27 0 01-83.914-38.141 131.273 131.273 0 01-38.14-83.914zm300.59 140a5.251 5.251 0 015.25 5.25v29.75h-227.5v-29.75a5.251 5.251 0 015.25-5.25zm-344.75 1.595a1.573 1.573 0 01.461-1.125c.297-.301.703-.47 1.121-.47h51.25a17.176 17.176 0 0112.133 5.036 17.175 17.175 0 015.036 12.133l-70 .332zm-8.75 33.406h113.75v8.75a8.752 8.752 0 008.75 8.75h245a8.752 8.752 0 008.75-8.75v-8.75h17.5v35h-420v-35zm-43.75 157.5h-17.5V297.61a8.75 8.75 0 0117.5 0zm17.5-87.5v-17.5h420v17.5zm455 78.75h-17.5V393.86h2.16a15.368 15.368 0 0110.845 4.496 15.367 15.367 0 014.496 10.844z"/><path d="M349.994 253.86h43.75a8.75 8.75 0 000-17.5h-35v-61.25a8.75 8.75 0 00-17.5 0v70a8.752 8.752 0 008.75 8.75zM271.244 183.86h13.88l-20.063 20.063h-.004a8.751 8.751 0 006.188 14.937h35a8.75 8.75 0 000-17.5h-13.88l20.063-20.062h.004a8.751 8.751 0 00-6.188-14.937h-35a8.75 8.75 0 000 17.5zM323.744 306.36h-28.332l33.934-28.27a8.758 8.758 0 002.633-9.706 8.745 8.745 0 00-8.234-5.774h-52.5a8.75 8.75 0 000 17.5h28.332l-33.934 28.27a8.758 8.758 0 00-2.633 9.707 8.745 8.745 0 008.234 5.774h52.5a8.75 8.75 0 000-17.5zM384.994 288.86a8.752 8.752 0 008.75 8.75h5.13l-11.313 11.313h-.004a8.751 8.751 0 006.188 14.937h26.25a8.75 8.75 0 000-17.5h-5.13l11.313-11.312h.004a8.751 8.751 0 00-6.188-14.937h-26.25a8.75 8.75 0 00-8.75 8.75z"/></g></svg>