<svg width="700pt" height="700pt" viewBox="0 0 700 700" xmlns="http://www.w3.org/2000/svg"><g fill="#efefef"><path d="M454 545.984c0 1.641 0 3.282-.11 4.922-.109 1.149-.874 2.407.055.055-.164.383-.164 1.04-.273 1.477a30.833 30.833 0 01-1.149 4.265c-.164.547-.492 1.149-.601 1.696-.328 1.476 1.203-2.407.11-.274-.548 1.094-1.04 2.133-1.641 3.172a35.47 35.47 0 01-1.97 3.008c-1.312 1.969 1.313-1.258.165-.219-.602.547-1.094 1.258-1.64 1.86a36.144 36.144 0 01-2.57 2.46c.054-.054-1.04.93-1.095.93.383-.273.711-.547 1.094-.82l-1.148.82c-.985.656-1.97 1.313-3.008 1.914-.438.219-.82.438-1.258.656-.492.22-2.953.93-1.312.657 1.695-.328-.383.11-.711.218-.547.22-1.149.383-1.75.547-1.149.328-2.352.657-3.555.875-1.914.383-.219.657.328 0-.219.22-1.531.164-1.86.164-.874.055-1.75.11-2.68.11-3.5.054-7 0-10.5 0H176.9c-.765 0-1.53 0-2.297-.055-.328 0-2.023.055-2.242-.219.219.22 2.297.438.711.055-1.203-.273-2.406-.492-3.555-.82-.71-.22-1.421-.438-2.078-.657-.328-.109-.656-.218-1.039-.382-.765-.274-.437-.164.93.437-.438.219-2.68-1.312-3.227-1.586-1.039-.601-2.023-1.203-3.007-1.914-.438-.328-1.532-1.64-.602-.437.984 1.312-.219-.22-.547-.493a31.748 31.748 0 01-3.062-3.007c-.329-.328-.602-.711-.93-1.094-1.695-1.805 1.367 2.023-.055-.055-.656-.984-1.367-1.969-1.969-3.008a34.767 34.767 0 01-1.64-3.172c-.93-1.914.273.602.273.602-.273-.055-.875-2.46-.984-2.734a33.809 33.809 0 01-.82-3.172c-.055-.219-.438-1.75-.329-1.805-.164.11.274 2.625.055.328-.164-1.75-.164-3.555-.164-5.305l-10.938 10.938H424.742c13.18 0 26.414.274 39.648 0h.547c5.742 0 11.211-5.03 10.938-10.938-.273-5.906-4.813-10.938-10.938-10.938H179.578c-13.18 0-26.414-.273-39.648 0h-.547c-5.906 0-10.938 5.032-10.938 10.938 0 12.141 3.5 23.188 11.102 32.703 7.93 9.899 19.578 15.75 32.047 17.281 4.703.602 9.461.383 14.22.383h227.608c4.54 0 9.133.055 13.672 0 21.547-.164 40.906-14.383 46.867-35.219 1.422-4.922 1.805-10.062 1.805-15.148 0-5.742-5.031-11.21-10.938-10.938-5.852.274-10.828 4.813-10.828 10.938z"/><path d="M483.2 518.044c0 .766-.055 1.532-.11 2.297-.054 2.57.602-2.406 0 .055a61.618 61.618 0 01-1.148 4.266c-.71 2.406 1.149-2.133-.054.054a32.896 32.896 0 01-1.04 1.914l-1.148 1.805c-.71.93-.547.766.438-.492-.329.383-.602.71-.93 1.094-.383.383-2.57 3.117-3.117 2.953.382-.274.71-.547 1.093-.82a22.94 22.94 0 01-1.203.82c-.601.383-1.203.766-1.86 1.094-.218.11-1.75 1.094-1.913.984.437-.164.875-.383 1.258-.547-.438.164-.93.328-1.368.492-.437.164-4.046 1.422-4.32 1.04.492-.055.93-.11 1.422-.165-.492.055-.984.11-1.531.11-.656.055-.875.055-1.531.055H138.725c-.71 0-1.422 0-2.187-.055-.274 0-.493-.055-.766-.055-1.203-.11-.984-.11.656.11-.11.164-1.969-.383-2.187-.438-.711-.164-1.422-.383-2.133-.602-.219-.054-.438-.164-.711-.218-1.094-.438-.93-.328.601.273-.437.274-3.335-1.805-3.773-2.078-.219-.11-.383-.273-.601-.383-.93-.71-.766-.547.492.438-.274.054-1.367-1.149-1.586-1.422-.492-.492-1.04-.985-1.477-1.531-.164-.164-.328-.383-.492-.547-.766-.93-.602-.711.383.547-.547 0-2.024-3.172-2.297-3.664l-.328-.657c-.492-1.094-.438-.875.219.602-.22-.055-.657-1.805-.711-2.078-.22-.711-.383-1.422-.547-2.133-.11-.492-.219-.984-.274-1.477.22 1.696.22 1.914.11.657-.055-1.368-.547-3.665.054-4.922-.054.382-.109.765-.164 1.203.11-.547.22-1.149.328-1.696.165-.82.383-1.64.657-2.46.218-.602.601-3.063.11-.547.108-.711.765-1.586 1.147-2.243.438-.71.875-1.421 1.313-2.078 1.422-2.187-1.477 1.477.328-.382.602-.602 1.149-1.204 1.75-1.75.328-.329 2.352-2.297.328-.438 1.203-1.094 2.844-1.805 4.266-2.625 2.351-1.312-2.133.547.492-.219.82-.218 1.586-.547 2.406-.71.766-.22 1.696-.493 2.516-.493-3.008.055.875.055 1.476.055h328.075c.765 0 1.53.055 2.297.11 2.515.109-2.352-.548.054 0 1.422.327 2.844.71 4.266 1.148 2.406.71-2.133-1.149.055.054.656.328 1.257.657 1.914 1.04l1.804 1.148c2.078 1.312-1.75-1.64.055.055a78.037 78.037 0 013.008 3.007c1.695 1.805-1.258-2.023.055.055.382.602.82 1.203 1.148 1.805.383.601.656 1.258 1.04 1.914 1.202 2.187-.712-2.297.054.055.437 1.421.82 2.843 1.148 4.265.602 2.461-.055-2.515 0 .055.055.765.11 1.531.11 2.297.054 5.742 4.976 11.21 10.938 10.938 5.851-.274 11.047-4.813 10.938-10.938-.22-16.352-10.117-30.188-25.102-36.312-4.813-1.969-10.008-2.57-15.203-2.57h-326.32c-13.563.109-26.032 7-33.25 18.43-9.243 14.601-6.891 33.522 4.1 46.374 7.22 8.422 18.267 12.906 29.204 12.961 4.758.055 9.57 0 14.328 0h305.649c8.586 0 16.46-.164 24.609-3.828 13.562-6.125 21.984-20.398 22.148-35.055.055-5.742-5.086-11.21-10.938-10.938-6.125.274-10.992 4.813-11.102 10.938z"/><path d="M464.88 479.104H179.521c-13.18 0-26.469-.492-39.648 0h-.547l10.938 10.938c.055-2.296.164-4.593.383-6.835.055-.602.164-1.258.219-1.86.164-1.64-.438 2.79-.055.274.219-1.258.383-2.461.656-3.664a81.873 81.873 0 013.774-13.453c.218-.547.437-1.149.656-1.696.547-1.476-.274-1.148-.11.274-.054-.711.876-1.97 1.204-2.625 1.039-2.188 2.132-4.32 3.39-6.399a114.512 114.512 0 013.446-5.469c.328-.492 1.53-2.734 2.078-2.898-.11.055-1.641 2.078-.383.492.437-.547.875-1.094 1.367-1.64a79.553 79.553 0 019.516-9.68c.82-.711 1.64-1.367 2.46-2.078.11-.055.165-.164.274-.219.93-.71.766-.601-.492.383.11-.219 1.039-.766 1.148-.875 1.914-1.422 3.938-2.734 5.961-3.992a71.988 71.988 0 015.688-3.172 72.755 72.755 0 012.953-1.422c.328-.164 1.367-.82 1.64-.766-.437.164-.875.328-1.258.547.438-.164.875-.383 1.368-.547a87.27 87.27 0 0113.344-4.047c.984-.218 1.968-.382 2.898-.601.602-.11 1.203-.219 1.86-.328.109 0 .273-.055.382-.055 1.203-.164.985-.164-.656.11.656-.438 2.242-.274 3.008-.329 1.367-.11 2.789-.218 4.156-.273 1.313-.055 2.68-.055 3.992-.055H337.35c15.367 0 30.898-.601 46.266.11 2.297.109 4.54.492 6.781.546-3.172-.109.274.055 1.149.22 1.367.218 2.68.491 3.992.82 4.539 1.039 8.969 2.46 13.289 4.156 1.422.547 0-.383-.602-.274.164-.054 1.094.492 1.313.602 1.094.492 2.187 1.039 3.281 1.586 2.133 1.093 4.21 2.297 6.29 3.554a114.75 114.75 0 015.359 3.61c.273.164 1.039.656 1.148.875-.438-.875-1.531-1.258-.492-.383 1.094.93 2.242 1.805 3.281 2.79 3.281 2.952 6.398 6.124 9.187 9.515.383.437.766.93 1.149 1.367.93 1.148.219-.274-.383-.492.656.218 1.75 2.406 2.078 2.898 1.313 1.86 2.516 3.828 3.664 5.797a71.452 71.452 0 013.008 5.742c.273.602 1.422 2.242 1.367 2.953.11-.875-.765-1.914-.273-.601.328.82.601 1.586.93 2.406 1.585 4.266 2.789 8.64 3.664 13.125.218 1.203.437 2.46.656 3.664.328 2.078 0-.602-.11-.656.22.273.165 1.476.22 1.86.218 2.405.382 4.812.437 7.218.11 5.742 4.976 11.211 10.938 10.938 5.851-.273 11.047-4.813 10.938-10.938-.438-21.547-7.875-41.891-21.164-58.844-12.414-15.805-30.297-27.398-49.711-32.648-10.008-2.734-20.29-3.336-30.57-3.336H234.594c-6.399 0-12.797-.219-19.141.492-21.22 2.242-40.906 10.938-56.602 25.54-14.711 13.671-25.211 32.538-28.711 52.39-.93 5.414-1.586 10.938-1.696 16.461-.109 5.906 5.086 10.938 10.938 10.938H424.741c13.18 0 26.414.274 39.648 0h.547c5.743 0 11.211-5.03 10.938-10.938-.273-6.07-4.812-11.102-10.992-11.102z"/><path d="M578.58 190.684V569.394c0 5.141-.164 10.281 0 15.367v.657l10.938-10.938H427.424v21.875c13.398-.11 26.742-5.688 35.711-15.75 8.695-9.735 12.742-21.656 12.742-34.617l-10.938 10.938c16.953 0 31.445-9.625 37.734-25.43 6.508-16.406-.164-34.781-13.836-45.062-6.89-5.196-15.367-7.328-23.898-7.328l10.938 10.938c-.492-26.141-11.539-51.625-30.898-69.344-18.156-16.57-41.672-25.484-66.227-25.54h-21.875l10.938 10.939V217.264c0-8.696.383-17.5 0-26.25v-.383l-10.938 10.938h204.094c9.406 0 18.812.273 28.219 0h.383c5.742 0 11.21-5.031 10.938-10.938-.273-5.907-4.813-10.938-10.938-10.938H385.479c-9.406 0-18.812-.274-28.22 0h-.382c-5.906 0-10.938 5.031-10.938 10.938V379.466c0 8.75-.219 17.5 0 26.25v.383c0 5.906 5.031 10.938 10.938 10.938h19.195c3.008 0 6.016 0 9.023.164 1.258.054 2.516.164 3.774.328.273.055.492.055.765.11 1.204.163.985.109-.656-.11.492-.164 1.695.273 2.242.328a79.82 79.82 0 018.696 1.969c2.57.71 5.14 1.586 7.656 2.515.601.22 1.531.438 2.023.82-2.078-1.53-.82-.327.055.055a85.25 85.25 0 013.883 1.914c2.351 1.204 4.648 2.57 6.836 3.993a80.948 80.948 0 013.554 2.406c.383.273 1.477.82 1.75 1.258-1.148-.93-1.422-1.094-.82-.602l.82.656c4.375 3.555 8.368 7.493 11.922 11.812.383.438.766.93 1.149 1.368 1.586 1.968-1.422-1.97.054.054.82 1.149 1.696 2.352 2.461 3.5a91.931 91.931 0 014.43 7.438 85.344 85.344 0 011.914 3.883c.219.437.93 1.53.875 1.968-.601-1.476-.71-1.695-.273-.601.164.437.383.93.547 1.367 1.148 2.953 2.078 6.016 2.898 9.078a86.944 86.944 0 011.805 9.133c.273 1.64-.274-2.844-.055-.274.11.985.219 2.024.273 3.008.165 1.805.22 3.555.22 5.36.109 5.906 4.921 10.938 10.937 10.938.766 0 4.047-.328 4.32.164-.492-.055-.93-.11-1.421-.164.492.054.984.164 1.476.273.985.219 1.914.492 2.844.766 2.46.82.383-.219.11-.055.218-.164 2.296 1.148 2.57 1.313.273.164 2.406 1.257 2.406 1.585 0-.382-1.86-1.585 0 .11.71.656 1.367 1.312 2.023 2.023 1.696 1.86.492 0 .11 0 .382 0 3.117 4.703 2.898 4.977.219-.274-.875-2.406-.055.11.328.929.547 1.859.766 2.843.11.492.219.984.273 1.477-.054-.493-.109-.93-.164-1.422.328.164.164 2.68.164 3.062 0 .875-.109 1.805-.109 2.68-.11.875-.055.492.164-1.04-.055.493-.164.985-.273 1.477-.22.985-.493 1.914-.766 2.844-.11.328-.219.711-.383 1.04-.273.765-.164.437.383-.93.383.601-2.352 4.046-2.68 4.648-.492.656-.273.383.602-.766-.328.383-.602.711-.93 1.094a35.301 35.301 0 01-2.023 2.024c-.274.218-.547.492-.82.71-.602.493-.383.329.82-.601 0 .328-2.078 1.367-2.406 1.586-.711.437-1.586.71-2.243 1.148-.765.328-.437.219.93-.383-.437.164-.93.329-1.367.493-.93.328-1.86.546-2.844.765-.383.055-.71.164-1.094.219-.82.164-.492.11 1.04-.11-.383.547-3.5.165-4.32.165-5.907 0-10.939 5.03-10.939 10.938 0 1.64 0 3.28-.11 4.922-.054.382-.054.765-.109 1.148-.109.875-.054.492.164-1.04-.164.438-.164 1.04-.273 1.477-.219 1.204-.547 2.407-.875 3.555-.219.711-.492 1.367-.711 2.078-.547 1.64.328-.547.273-.601.22.383-1.367 2.789-1.585 3.226-.602 1.04-1.204 2.024-1.915 3.008-.218.274-.382.602-.601.875-.492.656-.274.383.601-.82.055.164-1.039 1.258-1.148 1.367a27.3 27.3 0 01-2.516 2.516c-.437.382-.875.765-1.312 1.203-1.422 1.312 1.367-.82.273-.164-2.078 1.257-3.992 2.57-6.125 3.664-1.804.875.274.11.274-.11-.055.164-1.531.547-1.695.602a41.87 41.87 0 01-3.5.984c-.602.164-1.204.219-1.805.383-2.024.438 1.695-.11.328 0s-2.734.219-4.156.219c-5.742.055-11.211 4.976-10.938 10.938.273 5.906 4.812 10.938 10.938 10.938h162.094c5.906 0 10.938-5.031 10.938-10.938V206.656c0-5.14.11-10.227 0-15.367v-.656c0-5.743-5.031-11.211-10.938-10.938-5.906.328-10.883 4.867-10.883 10.992z"/><path d="M578.58 301.264V550.42c0 11.484-.492 23.023 0 34.508v.493l10.938-10.938H427.424v21.875c13.398-.11 26.742-5.688 35.711-15.75 8.695-9.735 12.742-21.656 12.742-34.617l-10.938 10.938c16.953 0 31.445-9.625 37.734-25.43 6.508-16.406-.164-34.781-13.836-45.062-6.89-5.196-15.367-7.328-23.898-7.328l10.938 10.938c-.492-26.141-11.539-51.625-30.898-69.344-18.156-16.57-41.672-25.484-66.227-25.54h-21.875l10.938 10.939V301.212l-10.938 10.938h204.094c9.406 0 18.812.273 28.219 0h.383c5.742 0 11.21-5.032 10.938-10.938-.273-5.907-4.813-10.938-10.938-10.938H385.479c-9.406 0-18.812-.274-28.22 0h-.382c-5.906 0-10.938 5.03-10.938 10.938V406.102c0 5.906 5.031 10.938 10.938 10.938h19.195c3.008 0 6.016 0 9.023.164 1.258.054 2.516.164 3.774.328.273.054.492.054.765.11 1.204.163.985.109-.656-.11.492-.164 1.695.273 2.242.328a79.82 79.82 0 018.696 1.969c2.57.71 5.14 1.586 7.656 2.515.601.219 1.531.438 2.023.82-2.078-1.53-.82-.328.055.055a85.25 85.25 0 013.883 1.914c2.351 1.203 4.648 2.57 6.836 3.993a80.948 80.948 0 013.554 2.406c.383.273 1.477.82 1.75 1.258-1.148-.93-1.422-1.094-.82-.602l.82.656c4.375 3.555 8.368 7.492 11.922 11.812.383.438.766.93 1.149 1.367 1.586 1.97-1.422-1.968.054.055.82 1.149 1.696 2.352 2.461 3.5a91.931 91.931 0 014.43 7.438 85.344 85.344 0 011.914 3.882c.219.438.93 1.532.875 1.97-.601-1.477-.71-1.696-.273-.602.164.437.383.93.547 1.367 1.148 2.953 2.078 6.016 2.898 9.078a86.945 86.945 0 011.805 9.133c.273 1.64-.274-2.844-.055-.274.11.985.219 2.024.273 3.008.165 1.805.22 3.555.22 5.36.109 5.906 4.921 10.938 10.937 10.938.766 0 4.047-.329 4.32.164-.492-.055-.93-.11-1.421-.164.492.054.984.164 1.476.273.985.219 1.914.492 2.844.766 2.46.82.383-.22.11-.055.218-.164 2.296 1.148 2.57 1.312.273.165 2.406 1.258 2.406 1.586 0-.382-1.86-1.586 0 .11.71.656 1.367 1.312 2.023 2.023 1.696 1.86.492 0 .11 0 .382 0 3.117 4.703 2.898 4.977.219-.274-.875-2.406-.055.11.328.929.547 1.859.766 2.843.11.492.219.984.273 1.477-.054-.493-.109-.93-.164-1.422.328.164.164 2.68.164 3.062 0 .875-.109 1.805-.109 2.68-.11.875-.055.492.164-1.04-.055.493-.164.985-.273 1.477-.22.985-.493 1.914-.766 2.844-.11.328-.219.711-.383 1.04-.273.765-.164.437.383-.93.383.601-2.352 4.046-2.68 4.648-.492.656-.273.383.602-.766-.328.383-.602.711-.93 1.094a35.301 35.301 0 01-2.023 2.023c-.274.22-.547.493-.82.711-.602.493-.383.329.82-.601 0 .328-2.078 1.367-2.406 1.586-.711.437-1.586.71-2.243 1.148-.765.328-.437.219.93-.383-.437.164-.93.328-1.367.493-.93.328-1.86.546-2.844.765-.383.055-.71.164-1.094.219-.82.164-.492.11 1.04-.11-.383.547-3.5.165-4.32.165-5.907 0-10.939 5.03-10.939 10.938 0 1.64 0 3.28-.11 4.922-.054.382-.054.765-.109 1.148-.109.875-.054.492.164-1.04-.164.438-.164 1.04-.273 1.477-.219 1.204-.547 2.407-.875 3.555-.219.711-.492 1.367-.711 2.078-.547 1.64.328-.547.273-.601.22.382-1.367 2.789-1.585 3.226-.602 1.04-1.204 2.024-1.915 3.008-.218.273-.382.602-.601.875-.492.656-.274.383.601-.82.055.164-1.039 1.258-1.148 1.367a27.3 27.3 0 01-2.516 2.516c-.437.382-.875.765-1.312 1.203-1.422 1.312 1.367-.82.273-.164-2.078 1.257-3.992 2.57-6.125 3.664-1.804.875.274.11.274-.11-.055.164-1.531.547-1.695.602a41.87 41.87 0 01-3.5.984c-.602.164-1.204.219-1.805.383-2.024.438 1.695-.11.328 0s-2.734.219-4.156.219c-5.742.055-11.211 4.976-10.938 10.938.273 5.906 4.812 10.938 10.938 10.938h162.094c5.906 0 10.938-5.031 10.938-10.938V336.213c0-11.484.273-23.023 0-34.508v-.492c0-5.743-5.031-11.211-10.938-10.938-5.906.328-10.883 4.867-10.883 10.992zM436.83 179.744h-79.953c-5.906 0-10.938 5.032-10.938 10.938v77.984l10.938-10.938a119.121 119.121 0 01-4.54-.273c-.491-.055-1.859.055-2.241-.219.492.055.93.11 1.422.22-.493-.056-.985-.165-1.477-.22a90.972 90.972 0 01-8.695-1.914c-2.57-.71-5.086-1.64-7.602-2.625-2.297-.875 1.695.875.273.11-.546-.274-1.093-.493-1.64-.766a69.254 69.254 0 01-4.485-2.297c-2.296-1.258-4.539-2.68-6.726-4.156-.602-.438-1.149-.82-1.75-1.258-1.586-1.148.328.328.492.383-1.312-.492-2.79-2.297-3.828-3.227-1.969-1.75-3.828-3.61-5.633-5.523a51.18 51.18 0 01-2.789-3.227c-.164-.218-.875-.875-.875-1.094.984 1.258 1.094 1.422.383.493l-.82-1.149a76.717 76.717 0 01-4.266-6.672c-.711-1.257-1.422-2.515-2.023-3.828-.547-1.039-1.75-2.789-1.805-3.937.164.437.383.82.547 1.258-.164-.438-.383-.875-.547-1.368-.274-.656-.492-1.367-.766-2.078a264.754 264.754 0 01-1.148-3.5c-.875-2.844-1.531-5.742-2.078-8.64-.055-.383-.547-1.914-.383-2.243.055.493.11.93.164 1.422l-.164-1.476-.328-3.774a93.107 93.107 0 010-9.57c.11-1.367.219-2.789.383-4.156.273-2.625-.438 2.515 0-.055.109-.71.218-1.476.382-2.187a75.722 75.722 0 012.133-8.586l1.149-3.446c.273-.71.546-1.367.765-2.023.875-2.406-1.039 2.242 0-.055 1.203-2.625 2.461-5.195 3.938-7.71a65.392 65.392 0 014.32-6.618c.164-.218.273-.383.438-.601.71-.93.546-.766-.383.492.054-.219.71-.875.875-1.094a54.059 54.059 0 013.28-3.773c1.806-1.914 3.665-3.774 5.634-5.47.71-.655 2.351-2.57 3.28-2.733-.108 0-2.132 1.585-.491.382.765-.547 1.53-1.148 2.351-1.64a84.923 84.923 0 016.727-4.102 51.696 51.696 0 013.883-1.969c.547-.273 1.094-.492 1.64-.765 2.57-1.203-1.695.601.383-.164 5.36-1.97 10.664-3.5 16.297-4.43 2.625-.438-2.57.273.055 0 .765-.055 1.476-.164 2.242-.219 1.367-.11 2.79-.219 4.156-.273 3.063-.11 6.125-.055 9.188.218.601.055 1.258.11 1.86.165.273.054.491.054.765.109 1.203.164.984.11-.657-.11.657-.382 3.61.602 4.375.766a75.417 75.417 0 018.532 2.297c1.148.383 2.297.766 3.445 1.203.219.11.437.164.656.274 1.094.437.875.382-.601-.274.601.055 1.422.656 1.968.875 2.625 1.203 5.141 2.57 7.602 4.047 1.203.766 2.406 1.531 3.61 2.352.601.382 1.148.82 1.75 1.257.382.274.765.547 1.148.875-1.258-.984-1.422-1.093-.547-.382 2.406 1.968 4.703 3.992 6.89 6.234.985 1.04 1.97 2.078 2.899 3.117.492.547.93 1.094 1.367 1.64.328.384.602.712.93 1.095.71.93.601.765-.383-.547.766.328 2.023 2.844 2.516 3.5a80.994 80.994 0 012.68 4.265c.71 1.258 1.421 2.516 2.077 3.774.657 1.258 2.024 3.172 2.133 4.594-.11-1.532-.656-1.641-.273-.602.328.93.71 1.805 1.039 2.734.547 1.586 1.094 3.227 1.531 4.868.383 1.422.766 2.843 1.04 4.32.163.82 1.421 4.484.929 5.14.055-.054-.328-2.843-.11-.656.11.985.22 2.024.274 3.008.164 1.75.219 3.555.219 5.36.11 5.742 4.976 11.21 10.938 10.937 5.851-.273 11.047-4.812 10.938-10.938-.438-27.672-13.617-53.156-35.547-69.836-21.438-16.297-50.422-21.492-76.29-14.273-24.882 6.946-46.483 25.266-56.765 49.055-11.102 25.649-10.062 55.29 3.883 79.68 15.148 26.524 43.422 43.149 73.828 44.353 5.906.218 10.938-5.196 10.938-10.938v-77.984l-10.938 10.937h79.953c5.742 0 11.21-5.03 10.938-10.937-.22-6.235-4.758-11.211-10.883-11.211z"/></g></svg>