<svg width="700pt" height="700pt" viewBox="0 0 700 700" xmlns="http://www.w3.org/2000/svg"><g fill="#efefef"><path d="M233.329 326.67h-23.332a41.564 41.564 0 0115.086-31.582c5.715-5.715 8.25-8.527 8.25-15.086 0-6.559-2.531-9.332-8.25-15.086a40.592 40.592 0 01-15.086-31.582 40.598 40.598 0 0115.086-31.582c5.715-5.715 8.25-8.527 8.25-15.086h23.332v.004a41.583 41.583 0 01-15.086 31.582c-5.719 5.75-8.25 8.527-8.25 15.082 0 6.559 2.531 9.332 8.25 15.086a40.605 40.605 0 0115.086 31.582 40.605 40.605 0 01-15.086 31.582c-5.719 5.75-8.25 8.527-8.25 15.086z"/><path d="M186.669 326.67h-23.336a41.577 41.577 0 0115.086-31.582c5.719-5.754 8.25-8.527 8.25-15.086 0-6.559-2.531-9.332-8.25-15.086a40.605 40.605 0 01-15.086-31.582 40.61 40.61 0 0115.086-31.582c5.719-5.75 8.25-8.527 8.25-15.082h23.332a41.57 41.57 0 01-15.086 31.582c-5.715 5.75-8.246 8.527-8.246 15.082 0 6.559 2.531 9.332 8.25 15.086h-.004a40.592 40.592 0 0115.086 31.582 40.592 40.592 0 01-15.086 31.582c-5.715 5.75-8.246 8.527-8.246 15.086zM209.999 595a140.148 140.148 0 01-98.949-41.051A140.147 140.147 0 0169.999 455V350c0-6.441 5.223-11.668 11.668-11.668h256.66A11.67 11.67 0 01349.995 350v105a140.148 140.148 0 01-41.051 98.949A140.147 140.147 0 01209.995 595zM93.329 361.67v93.332c0 41.68 22.238 80.195 58.336 101.04 36.094 20.84 80.57 20.84 116.66 0 36.098-20.84 58.336-59.355 58.336-101.04V361.67z"/><path d="M326.669 525v-23.332a70.09 70.09 0 0049.477-20.523 70.086 70.086 0 0020.523-49.477 34.986 34.986 0 00-10.254-24.75 34.998 34.998 0 00-24.746-10.25h-23.336v-23.336h23.336a58.42 58.42 0 0141.227 17.105 58.424 58.424 0 0117.105 41.23 93.441 93.441 0 01-93.332 93.332zm46.66 105h-256.66a46.678 46.678 0 01-33-13.668 46.677 46.677 0 01-13.668-33c0-6.441 5.223-11.664 11.668-11.664h326.66a11.667 11.667 0 0111.668 11.664 46.678 46.678 0 01-13.668 33 46.677 46.677 0 01-33 13.668zm-276.86-35a23.333 23.333 0 0020.195 11.668h256.66A23.333 23.333 0 00393.519 595z"/><path d="M606.669 431.67h-23.336V105a11.667 11.667 0 00-11.664-11.668h-431.67c-6.442 0-11.668 5.227-11.668 11.668v210h-23.332V105a35.013 35.013 0 0110.25-24.75A35.014 35.014 0 01139.999 70h431.67a35.002 35.002 0 0135 35z"/><path d="M571.669 490h-140v-23.332h140a35.091 35.091 0 0020.199-6.434 35.08 35.08 0 0012.805-16.902h-126.34V420h140a11.67 11.67 0 0111.668 11.668 58.42 58.42 0 01-17.105 41.227A58.415 58.415 0 01571.669 490zm-140-70h23.332v23.332h-23.332z"/><path d="M571.669 431.67h-23.336V128.33h-385V315h-23.332V116.67c0-6.445 5.223-11.668 11.668-11.668h408.33a11.67 11.67 0 0111.668 11.668z"/><path d="M501.669 151.668h23.332V175h-23.332zm-140 0h116.67V175h-116.67zm-70 46.662h233.33v23.332h-233.33zm0 46.67h233.33v23.332h-233.33zm0 46.67h233.33v23.332h-233.33zM81.667 408.33h256.67v23.332H81.667zm167.722 144.03l-8.75-21.617v-.004a81.992 81.992 0 0048.453-55.32l22.609 5.832a105.46 105.46 0 01-62.312 71.109zm42.28-109.03h23.332v23.332h-23.332z"/></g></svg>