<svg width="700pt" height="700pt" viewBox="0 0 700 700" xmlns="http://www.w3.org/2000/svg"><g fill="#efefef"><path d="M520.8 574H179.2V126h341.6zm-336-5.598h330.4v-436.8H184.8z"/><path d="M411.6 240.8H204.4v-89.602h207.2zM210 235.198h196V156.8H210zM495.6 240.8h-72.801v-89.602H495.6zm-67.203-5.602h61.602V156.8h-61.602zM316.4 341.6h-112v-89.602h112zM210 335.998h100.8V257.6H210zM406 341.6h-78.398v-89.602H406zm-72.801-5.602h67.199V257.6h-67.199zM495.6 341.6h-78.402v-89.602h78.398zm-72.801-5.602h67.199V257.6h-67.199zM495.6 442.4H204.4v-89.602h291.2zM210 436.798h280V358.4H210zM288.4 543.2h-84v-89.598h84zm-78.398-5.598h72.801V459.2h-72.801zM495.6 543.2h-196v-89.598h196zm-190.4-5.598H490V459.2H305.2z"/></g></svg>