<svg width="700pt" height="700pt" viewBox="0 0 700 700" xmlns="http://www.w3.org/2000/svg"><g fill="#efefef"><path d="M577.5 183.75H473.71c-18.367-51.836-68.312-87.5-123.71-87.5-55.398 0-105.34 35.664-123.71 87.5H122.5c-24.125 0-43.75 19.625-43.75 43.75v315c0 33.766 27.477 61.25 61.25 61.25h420c33.773 0 61.25-27.484 61.25-61.25v-315c0-24.125-19.625-43.75-43.75-43.75zm-455 17.5h116.66l1.863-6.258c14.246-47.836 59.062-81.242 108.97-81.242s94.727 33.406 108.97 81.242l1.864 6.258h116.66c14.473 0 26.25 11.777 26.25 26.25v280h-17.5V236.25c0-9.652-7.848-17.5-17.5-17.5h-105v8.75c0 40.371-21.797 78.086-56.883 98.402l-4.368 2.527V420h17.5v-81.594c35.438-22.41 58.145-60.594 60.953-102.16h87.797v271.25h-437.5v-271.25h87.797c2.809 41.562 25.523 79.746 60.953 102.16V420h17.5v-91.57l-4.367-2.527c-35.086-20.316-56.883-58.031-56.883-98.402v-8.75h-105c-9.652 0-17.5 7.848-17.5 17.5V507.5h-17.5v-280c0-14.473 11.777-26.25 26.25-26.25zM280 525h140v8.75c0 4.828-3.93 8.75-8.75 8.75h-122.5c-4.82 0-8.75-3.922-8.75-8.75zm280 61.25H140c-24.125 0-43.75-19.625-43.75-43.75V525H262.5v8.75c0 14.473 11.777 26.25 26.25 26.25h122.5c14.473 0 26.25-11.777 26.25-26.25V525h166.25v17.5c0 24.125-19.625 43.75-43.75 43.75z"/><path d="M341.25 183.75v52.5H385v-17.5h-26.25v-35zM148.75 253.75h17.5v17.5h-17.5zM148.75 288.75h17.5v78.75h-17.5zM183.75 306.25h17.5v17.5h-17.5zM183.75 341.25h17.5V420h-17.5zM218.75 358.75h17.5v17.5h-17.5zM218.75 393.75h17.5v78.75h-17.5zM533.75 253.75h17.5v17.5h-17.5zM533.75 288.75h17.5v78.75h-17.5zM498.75 306.25h17.5v17.5h-17.5zM498.75 341.25h17.5V420h-17.5zM463.75 358.75h17.5v17.5h-17.5zM463.75 393.75h17.5v78.75h-17.5zM402.5 437.5H420V455h-17.5zM402.5 472.5H420V490h-17.5zM280 437.5h17.5V455H280zM280 472.5h17.5V490H280zM533.75 385h17.5v17.5h-17.5zM533.75 420h17.5v17.5h-17.5zM148.75 385h17.5v17.5h-17.5zM148.75 420h17.5v17.5h-17.5zM183.75 437.5h17.5V455h-17.5zM498.75 437.5h17.5V455h-17.5z"/><path d="M315 317.18V490h17.5V304.56l-6.125-1.926c-30.152-9.469-51.195-35.55-54.582-66.387h16.957v-17.5h-16.984c4.05-36.445 33.047-65.434 69.484-69.484v16.984h17.5v-16.984c36.434 4.051 65.434 33.04 69.484 69.484H411.25v17.5h16.965c-3.387 30.836-24.438 56.918-54.582 66.387l-6.125 1.926V490h17.5V317.18c36.891-14.332 61.25-49.594 61.25-89.68 0-53.07-43.18-96.25-96.25-96.25s-96.25 43.18-96.25 96.25c-.008 40.082 24.352 75.348 61.242 89.68z"/></g></svg>