<svg width="700pt" height="700pt" viewBox="0 0 700 700" xmlns="http://www.w3.org/2000/svg"><g fill="#efefef"><path d="M429.356 613.079c-109.76 22.96-226.8-23.52-288.4-124.88-77.84-128.24-36.96-295.68 90.72-373.52 25.761-15.68 53.198-26.88 81.761-33.04 7.84-1.679 15.68 1.122 20.72 7.282 5.038 6.16 5.601 15.12 2.238 21.84-3.36 7.281-6.72 14.559-10.078 21.84-30.801 76.719-23.52 160.72 19.039 230.72 42.562 70.559 114.24 115.36 196.56 123.76 7.84.558 15.68 1.121 24.078 1.121 7.84 0 15.12 4.48 18.48 11.762 3.359 7.281 2.238 15.68-2.801 21.84-19.04 22.398-41.441 42-66.641 57.121-27.438 16.797-56.56 27.996-85.68 34.156zm-124.32-500.64c-20.719 6.16-40.32 14.559-58.8 25.762-114.8 70-151.76 220.64-81.759 335.44 33.602 55.44 87.36 94.64 150.64 110.32 63.281 15.68 128.8 5.601 184.8-28.56 18.48-11.198 35.281-24.64 49.84-40.32-3.922 0-7.28-.558-11.199-1.12-90.16-8.403-169.68-58.242-216.72-136.08-47.598-77.281-54.879-170.8-21.277-255.36 1.68-3.36 2.797-6.72 4.477-10.082z"/><path d="M497.116 389.639h-86.8c-3.923 0-7.84-2.239-9.52-5.602-1.68-3.36-1.121-7.84 1.121-11.199l73.918-93.52h-65.52c-5.602 0-10.641-4.48-10.641-10.64 0-5.603 4.48-10.642 10.641-10.642h86.801c3.922 0 7.84 2.238 9.52 5.602 1.68 3.36 1.12 7.84-1.122 11.199l-73.918 94.078h65.52c5.602 0 10.641 4.48 10.641 10.64-.562 5.602-5.043 10.083-10.64 10.083zM593.436 273.719h-43.12c-2.239 0-3.923-1.121-4.481-2.801-1.121-1.68-.559-3.922.558-5.602l36.961-47.039h-32.48c-2.8 0-5.039-2.238-5.039-5.039 0-2.8 2.239-5.039 5.04-5.039h42.561c2.239 0 3.922 1.121 4.481 2.8 1.121 1.68.559 3.923-.559 5.602l-36.96 47.04h33.038c2.801 0 5.04 2.238 5.04 5.039 0 2.8-2.239 5.039-5.04 5.039zM475.276 184.119h-43.12c-2.239 0-3.923-1.121-4.481-2.801-1.121-1.68-.559-3.922.558-5.602l36.961-47.039h-32.48c-2.8 0-5.039-2.238-5.039-5.039 0-2.8 2.239-5.039 5.04-5.039h43.12c2.239 0 3.922 1.121 4.481 2.8 1.121 1.68.559 3.923-.559 5.602l-36.96 47.04h32.48c2.8 0 5.038 2.238 5.038 5.039.56 2.242-2.238 5.039-5.039 5.039z"/></g></svg>