<?xml version="1.0" encoding="UTF-8" standalone="no"?>
<!-- Created with Inkscape (http://www.inkscape.org/) -->
<svg xmlns:dc="http://purl.org/dc/elements/1.1/" xmlns:cc="http://web.resource.org/cc/" xmlns:rdf="http://www.w3.org/1999/02/22-rdf-syntax-ns#" xmlns:svg="http://www.w3.org/2000/svg" xmlns="http://www.w3.org/2000/svg" xmlns:sodipodi="http://inkscape.sourceforge.net/DTD/sodipodi-0.dtd" xmlns:inkscape="http://www.inkscape.org/namespaces/inkscape" id="svg2" sodipodi:version="0.32" inkscape:version="0.42+devel" width="650pt" height="780pt" sodipodi:docbase="D:\Wikipedia\Na zamówienie" sodipodi:docname="KNS_Coa.svg" version="1.0">
  <metadata id="metadata7">
    <rdf:RDF>
      <cc:Work rdf:about="">
        <dc:format>image/svg+xml</dc:format>
        <dc:type rdf:resource="http://purl.org/dc/dcmitype/StillImage"/>
      </cc:Work>
    </rdf:RDF>
  </metadata>
  <defs id="defs5"/>
  <sodipodi:namedview inkscape:window-height="678" inkscape:window-width="880" inkscape:pageshadow="2" inkscape:pageopacity="0.0" borderopacity="1.0" bordercolor="#666666" pagecolor="#ffffff" id="base" inkscape:zoom="0.52615385" inkscape:cx="406.25" inkscape:cy="487.5" inkscape:window-x="4" inkscape:window-y="-3" inkscape:current-layer="svg2" showguides="true" inkscape:guide-bbox="true"/>
  <g id="g2443" transform="translate(824.7544,0.000000)">
    <path sodipodi:nodetypes="cssccc" id="path2234" d="M -820.47184,4.90625 C -820.47184,4.90625 -819.65934,557.56851 -819.65934,571.71875 C -819.65934,791.93011 -639.48821,970.625 -417.47184,970.625 C -198.39562,970.625 -20.03211,796.62452 -15.34684,580.4375 L -16.06559,4.90625 L -820.47184,4.90625 z " style="opacity:1;fill:#da251d;fill-opacity:1;fill-rule:nonzero;stroke:#000000;stroke-width:7.08661413;stroke-linecap:round;stroke-linejoin:round;stroke-miterlimit:4;stroke-dasharray:none;stroke-dashoffset:0;stroke-opacity:1"/>
    <g transform="translate(-1396.838,0.000000)" id="g2377">
      <g id="g2329" transform="translate(579.1765,0.000000)">
        <path sodipodi:nodetypes="cccccccccccccccccccccccc" id="path2283" d="M 319.21756,627.47743 C 297.53305,640.45986 280.39104,633.75817 264.9663,619.61493 L 245.31005,640.84369 C 241.02935,644.73232 238.49588,646.49775 232.11851,648.61883 C 218.50106,653.76221 214.36504,662.23194 211.50129,669.93494 L 200.49379,702.95745 C 187.91061,701.6334 189.16742,720.78385 193.59226,726.37023 C 190.0539,728.86729 187.61239,733.91022 195.0774,737.02828 C 200.32008,738.83026 202.67638,744.12896 202.41573,750.39454 C 192.60217,767.12822 179.99304,777.51386 172.97503,778.43746 C 161.82477,779.02499 164.65812,765.04098 162.75378,757.20871 C 167.11125,743.84889 167.47019,726.80642 167.2092,706.01509 C 167.90542,699.79992 186.56128,666.52372 193.41754,627.47743 C 198.1429,615.95811 209.10815,611.69839 213.77268,594.19285 L 224.78018,573.40089 C 229.73709,566.17256 232.68971,558.83411 231.07018,546.31895 C 229.60723,537.10951 231.68971,529.10614 234.30255,519.76116 C 239.61354,505.40165 232.64047,494.55186 228.79879,482.8074 C 223.01641,465.57956 217.25524,434.93648 213.16116,417.28656 L 300.697,292.88431 C 322.03151,311.16526 337.1608,328.87794 345.95007,344.6021 C 352.33882,351.61783 354.15402,359.54827 369.0134,364.86988 C 379.90667,370.05106 384.9102,374.13309 392.07675,383.04099 L 319.21756,627.47743 z " style="fill:#ffffff;fill-opacity:1;fill-rule:evenodd;stroke:#000000;stroke-width:5.31496048;stroke-linecap:butt;stroke-linejoin:miter;stroke-miterlimit:4;stroke-dasharray:none;stroke-opacity:1"/>
        <path sodipodi:nodetypes="ccccccccc" id="rect2237" d="M 353.20877,511.28074 C 391.33385,483.7904 392.85324,470.0914 485.00362,441.25229 L 538.36726,441.25229 C 554.37862,446.77045 577.50148,459.40199 579.54489,487.8844 C 575.60692,520.14821 571.68732,552.40513 583.69983,578.6875 C 572.45942,579.808 546.26066,568.80876 516.74812,589.04637 C 488.70454,602.78968 464.26246,607.00024 425.62326,605.89382 C 392.66189,601.0809 380.15265,619.38145 374.51706,598.85816 C 371.52175,550.63925 338.64164,545.89069 353.20877,511.28074 z " style="fill:#ffffff;fill-opacity:1;fill-rule:nonzero;stroke:#00ef00;stroke-width:3.54330707;stroke-linecap:round;stroke-linejoin:round;stroke-miterlimit:4;stroke-dasharray:none;stroke-dashoffset:0;stroke-opacity:1"/>
        <g id="g2310">
          <path style="fill:#ffffff;fill-opacity:1;fill-rule:evenodd;stroke:#000100;stroke-width:4.96062994;stroke-linecap:butt;stroke-linejoin:miter;stroke-miterlimit:4;stroke-dasharray:none;stroke-opacity:1" d="M 444.81113,605.75699 C 470.41783,608.86428 493.98959,599.76194 517.21172,588.56185 C 535.65889,574.17773 558.202,577.54265 580.10973,578.15426 C 583.75554,593.14296 598.06181,606.01887 609.06997,618.42709 C 609.73204,633.56411 595.86463,637.18285 586.89729,631.09719 C 579.92856,623.91749 575.65876,616.40042 578.29972,608.01951 C 585.61242,598.54821 577.9643,594.97073 566.98712,594.44439 C 530.86906,592.01726 510.90005,600.06424 488.25148,621.59462 C 475.18173,631.98061 466.68155,648.64976 444.81113,646.93482 C 444.2152,640.33766 445.5621,634.22621 449.78867,628.83468 C 457.30868,616.55252 451.50593,610.93174 444.81113,605.75699 z " id="path2254" sodipodi:nodetypes="ccccccccccc"/>
          <path style="fill:#ffffff;fill-opacity:1;fill-rule:evenodd;stroke:#000000;stroke-width:3.54330707;stroke-linecap:butt;stroke-linejoin:miter;stroke-miterlimit:4;stroke-dasharray:none;stroke-opacity:1" d="M 515.40171,723.40795 C 519.00184,709.83284 524.1833,696.25772 532.59685,682.68261 C 541.39516,673.63226 547.17063,662.31478 551.1495,649.64985 C 554.54933,643.74418 555.86441,637.1436 552.0545,628.83468 C 545.36385,613.12631 557.53906,604.96429 561.55708,593.53939 C 538.5059,593.90565 515.05296,597.05597 495.49154,614.80706 C 508.52027,634.09396 506.26995,653.14418 497.75406,680.4201 C 494.57187,694.36497 485.58547,705.40772 477.8439,717.0729 C 474.72762,733.58724 466.47932,746.11001 452.50369,754.1782 C 443.43894,761.09085 437.30244,768.84014 436.66606,778.16089 C 448.01872,787.6163 481.59853,788.7423 490.96651,773.63585 C 494.0591,765.53937 485.44271,755.22472 501.37409,743.31811 C 498.734,730.49096 502.3694,722.97384 515.40171,723.40795 z " id="path2256" sodipodi:nodetypes="ccccccccccccc"/>
          <path style="fill:#1f1a17;fill-opacity:1;fill-rule:evenodd;stroke:#000100;stroke-width:1px;stroke-linecap:butt;stroke-linejoin:miter;stroke-opacity:1" d="M 516.75922,647.83983 C 520.71109,655.61883 524.85547,672.00992 534.85936,651.00736 C 536.21133,647.83983 537.49773,644.67231 540.28941,641.50478 C 540.30141,636.21357 538.63705,632.59872 537.57439,628.38217 L 543.00443,638.78976 C 543.77486,641.05228 543.39147,643.31479 543.00443,645.57731 C 539.41537,648.92664 537.34491,653.79458 534.85936,658.24742 C 520.01095,676.09831 517.17461,659.40946 516.75922,647.83983 z " id="path2258" sodipodi:nodetypes="cccccccc"/>
          <path style="fill:#1f1a17;fill-opacity:1;fill-rule:evenodd;stroke:#000000;stroke-width:1px;stroke-linecap:butt;stroke-linejoin:miter;stroke-opacity:1" d="M 501.39614,728.54572 C 502.33694,722.60238 503.49756,716.5791 507.05453,709.68442 C 511.19732,706.44869 513.76077,697.94851 517.11389,692.08055 C 515.92326,702.64177 508.89654,709.61824 506.74018,721.31556 C 507.02383,722.1168 507.39103,722.87627 508.62631,723.20169 C 505.70467,724.34355 503.3511,726.1955 501.39614,728.54572 z " id="path2260" sodipodi:nodetypes="cccccc"/>
          <path style="fill:#000000;fill-opacity:1;fill-rule:evenodd;stroke:#000000;stroke-width:1px;stroke-linecap:butt;stroke-linejoin:miter;stroke-opacity:1" d="M 445.20974,760.9976 C 461.02126,758.06416 476.04983,761.27217 490.82021,766.92824 C 492.61712,771.36416 490.40533,775.52111 487.49817,777.26483 C 486.78775,773.65331 486.53675,771.16648 482.8394,768.58707 C 473.40057,762.74641 462.21987,761.72714 449.13089,763.96897 C 445.06252,764.70576 442.92594,765.66122 440.53447,766.8304 L 445.20974,760.9976 z " id="path2262" sodipodi:nodetypes="ccccccc"/>
          <path style="fill:#1f1a17;fill-opacity:1;fill-rule:evenodd;stroke:#000000;stroke-width:1px;stroke-linecap:butt;stroke-linejoin:miter;stroke-opacity:1" d="M 440.65539,780.50113 C 443.87416,780.15535 446.17128,777.96627 448.09096,775.02229 C 450.79643,769.94839 454.04627,765.03002 455.03735,759.46629 C 458.53414,757.09796 461.68775,755.68294 462.86427,759.7598 C 456.71563,766.01381 453.04551,775.05615 448.87366,783.53406 C 446.13424,782.75729 443.39481,781.79859 440.65539,780.50113 z " id="path2264" sodipodi:nodetypes="cccccc"/>
          <path style="fill:#ffffff;fill-opacity:1;fill-rule:evenodd;stroke:#000000;stroke-width:3.54330707;stroke-linecap:butt;stroke-linejoin:miter;stroke-miterlimit:4;stroke-dasharray:none;stroke-opacity:1" d="M 508.76088,723.64572 C 517.84489,721.35006 517.44993,729.19477 515.81915,737.21634 C 514.565,743.38536 509.15063,748.47727 506.46834,748.03836 C 499.00376,749.53331 496.5828,725.96801 508.76088,723.64572 z " id="path2266" sodipodi:nodetypes="cscc"/>
          <path style="fill:#ffffff;fill-opacity:1;fill-rule:evenodd;stroke:#000000;stroke-width:3.54330707;stroke-linecap:butt;stroke-linejoin:miter;stroke-miterlimit:4;stroke-dasharray:none;stroke-opacity:1" d="M 373.08082,718.52328 C 380.04405,720.97904 388.37897,744.25075 377.91754,744.40625 C 371.97293,740.8931 365.16483,730.63687 373.08082,718.52328 z " id="path2274" sodipodi:nodetypes="ccc"/>
          <path style="fill:#ffffff;fill-opacity:1;fill-rule:evenodd;stroke:#000000;stroke-width:5.31496048;stroke-linecap:butt;stroke-linejoin:miter;stroke-miterlimit:4;stroke-dasharray:none;stroke-opacity:1" d="M 485.93365,447.47402 C 474.49492,448.47687 462.92535,450.00313 451.04147,452.78658 C 443.06753,454.61889 435.0266,456.18324 426.17417,454.50157 C 421.53742,453.78187 419.38119,454.66001 416.03236,456.94543 C 422.33217,447.71124 426.12153,440.60237 420.17171,421.91682 C 416.16855,408.02933 403.08196,394.47704 391.01694,380.75715 C 366.59237,375.5886 344.84244,387.64358 331.8499,409.91192 C 325.88529,446.35707 316.39814,465.57831 296.69268,485.37133 C 281.8572,501.44493 263.34756,518.08182 261.61681,536.18922 C 261.30048,556.66624 268.88102,581.86383 301.83764,589.12802 L 325.84745,639.72012 C 324.53296,656.60154 328.40704,670.29 338.70985,680.02231 C 341.49898,698.07327 343.90385,716.2203 344.91888,734.71478 C 346.33152,745.83158 343.36419,754.14943 339.04505,760.43958 C 335.64584,766.67529 325.25168,777.59787 336.13737,788.06646 C 352.56495,792.79589 368.53988,786.47592 375.95624,776.22916 L 375.58206,762.34166 C 369.05489,756.27845 369.14823,749.98695 375.58206,743.47681 C 367.59259,730.96135 369.02627,724.02998 373.00958,718.6095 C 369.39472,699.64337 366.57954,680.55421 368.70262,660.70532 C 375.99923,651.61833 388.35175,643.11191 383.319,622.04796 C 374.53368,601.30634 371.2291,579.06884 369.57961,556.54327 C 369.07744,542.42756 364.5172,541.29675 355.00222,537.82654 C 351.46133,523.51454 358.25896,510.13609 376.94236,503.5268 C 402.95879,481.87072 403.915,480.33055 438.17907,471.65144 C 456.32818,466.31898 471.7963,457.70974 485.93365,447.47402 z " id="path2268" sodipodi:nodetypes="cccccccccccccccccccccccccc"/>
          <path style="fill:#000000;fill-opacity:1;fill-rule:evenodd;stroke:#000000;stroke-width:1px;stroke-linecap:butt;stroke-linejoin:miter;stroke-opacity:1" d="M 333.34131,771.20428 C 342.63619,764.97702 365.04439,765.42693 375.17237,773.55727 L 374.64948,767.15189 C 365.07199,767.5551 348.93412,762.12834 336.34791,765.71395 L 333.34131,771.20428 z " id="path2270" sodipodi:nodetypes="ccccc"/>
          <path style="fill:#000000;fill-opacity:1;fill-rule:evenodd;stroke:#000000;stroke-width:1px;stroke-linecap:butt;stroke-linejoin:miter;stroke-opacity:1" d="M 334.90997,785.97587 C 340.95365,785.8364 342.55022,780.61451 343.79907,774.99522 C 344.90302,768.78227 344.89274,762.84788 349.94301,755.64835 L 351.38095,755.90979 C 351.0601,762.73867 349.88748,769.33526 345.7599,775.12594 C 345.2999,779.64165 343.51426,783.75966 346.28279,789.24392 C 342.18409,789.23174 338.31342,788.42144 334.90997,785.97587 z " id="path2272" sodipodi:nodetypes="ccccccc"/>
          <path style="fill:none;fill-opacity:0.75;fill-rule:evenodd;stroke:#000000;stroke-width:3.54330707;stroke-linecap:butt;stroke-linejoin:miter;stroke-miterlimit:4;stroke-dasharray:none;stroke-opacity:1" d="M 368.63627,660.35195 C 368.21339,646.18868 369.35189,631.95939 361.96944,618.12872 C 357.13896,603.2406 350.9922,581.90104 364.54279,569.01365 C 368.74487,564.82476 368.15594,558.45813 368.76699,552.63695" id="path2276" sodipodi:nodetypes="cccc"/>
          <path style="fill:#1f1a17;fill-opacity:1;fill-rule:evenodd;stroke:#000000;stroke-width:0.6448819;stroke-linecap:butt;stroke-linejoin:miter;stroke-miterlimit:4;stroke-dasharray:none;stroke-opacity:1" d="M 346.54424,595.90596 C 349.61979,604.66434 350.17604,613.42272 347.32857,622.1811 C 345.78694,630.17092 345.52078,638.28829 347.45929,646.62613 C 351.57017,661.54218 347.93857,665.02884 344.97557,669.5025 C 345.01743,663.42478 345.46046,657.14647 344.19124,651.72429 C 342.89024,643.47013 342.49853,635.317 344.32196,627.40999 C 346.01787,617.77963 347.93983,607.62133 344.32196,596.95174 C 342.6006,591.11722 341.2899,585.20056 337.91658,579.69643 C 335.03215,570.51749 324.79859,577.47499 322.6221,579.82715 C 321.37293,579.81267 320.20194,579.72001 320.66126,577.99704 C 324.84258,572.61663 336.53996,569.70359 340.53102,577.7356 C 343.31406,583.40307 345.15131,589.54344 346.54424,595.90596 z " id="path2278" sodipodi:nodetypes="cccccccccccc"/>
          <path style="fill:#000000;fill-opacity:1;fill-rule:evenodd;stroke:#000000;stroke-width:1px;stroke-linecap:butt;stroke-linejoin:miter;stroke-opacity:1" d="M 357.49112,594.17863 C 360.98841,587.35453 365.44544,582.44991 369.8741,577.48854 L 370.95088,583.94922 C 364.21153,587.08036 362.04437,594.78368 358.92683,601.53663 L 357.49112,594.17863 z " id="path2280" sodipodi:nodetypes="ccccc"/>
          <path style="fill:#1f1a17;fill-opacity:1;fill-rule:evenodd;stroke:#000000;stroke-width:1px;stroke-linecap:butt;stroke-linejoin:miter;stroke-opacity:1" d="M 359.46522,604.76697 L 373.10444,589.33312 L 374.36068,596.15273 C 365.86528,598.94671 363.73602,605.83323 361.79825,612.84283 L 359.46522,604.76697 z " id="path2282" sodipodi:nodetypes="ccccc"/>
          <path style="fill:#010101;fill-opacity:1;fill-rule:evenodd;stroke:#000000;stroke-width:1px;stroke-linecap:butt;stroke-linejoin:miter;stroke-opacity:1" d="M 363.05449,615.35532 C 365.86696,613.56178 374.71372,604.23617 374.36069,600.45985 L 376.69371,607.99732 C 370.95559,608.26674 366.60336,618.32863 365.56698,621.99546 L 363.05449,615.35532 z " id="path2284" sodipodi:nodetypes="ccccc"/>
          <path style="fill:#000000;fill-opacity:1;fill-rule:evenodd;stroke:#000000;stroke-width:1px;stroke-linecap:butt;stroke-linejoin:miter;stroke-opacity:1" d="M 367.18215,625.40527 C 370.8331,620.74109 377.33511,618.92795 377.94995,611.22766 L 380.82137,620.55975 C 373.60263,620.02087 370.15484,627.65092 368.97678,633.66058 L 367.18215,625.40527 z " id="path2286" sodipodi:nodetypes="ccccc"/>
          <path style="fill:#000000;fill-opacity:1;fill-rule:evenodd;stroke:#000000;stroke-width:1px;stroke-linecap:butt;stroke-linejoin:miter;stroke-opacity:1" d="M 380.82137,621.99546 C 377.84307,627.75889 375.56985,634.10989 369.8741,637.60878 L 370.59195,647.12034 C 373.58335,640.30142 376.21435,632.76169 382.43654,632.40434 C 382.70968,628.6642 381.97841,625.25887 380.82137,621.99546 z " id="path2288" sodipodi:nodetypes="ccccc"/>
          <path style="fill:#ffffff;fill-opacity:1;fill-rule:evenodd;stroke:#000000;stroke-width:4.6062994;stroke-linecap:butt;stroke-linejoin:miter;stroke-miterlimit:4;stroke-dasharray:none;stroke-opacity:1" d="M 376.0664,600.81018 C 383.97001,594.97421 393.12188,591.63472 401.96318,587.67413 C 408.4752,585.53426 414.46713,584.43455 419.97834,584.29629 C 470.76074,584.16308 478.64848,585.81706 518.31107,562.15266 C 537.11825,548.33869 560.15169,532.05568 555.84265,503.97871 C 559.4498,522.31109 567.14191,538.89161 556.21796,556.89824 C 543.14392,574.91267 524.09807,584.96469 505.17502,595.18045 C 472.78745,606.0497 469.38014,607.20479 427.48466,605.31397 C 411.10727,604.74408 390.91749,604.76902 382.82208,617.69939 L 376.0664,600.81018 z " id="path2290" sodipodi:nodetypes="cccccccccc"/>
          <path style="fill:#010101;fill-opacity:1;fill-rule:evenodd;stroke:none;stroke-width:1px;stroke-linecap:butt;stroke-linejoin:miter;stroke-opacity:1" d="M 382.44676,596.68171 C 374.80233,603.19309 380.42388,611.76197 387.44187,608.4325 C 397.20869,603.36905 406.89831,603.98714 415.84987,604.56334 L 403.53951,605.68929 L 391.99343,609.12854 L 384.37794,614.86064 L 382.82208,616.74404 L 376.353,600.85795 L 382.44676,596.68171 z " id="path2292" sodipodi:nodetypes="ccc"/>
          <path style="fill:#000100;fill-opacity:1;fill-rule:evenodd;stroke:#000000;stroke-width:1px;stroke-linecap:butt;stroke-linejoin:miter;stroke-opacity:1" d="M 553.7062,525.98226 C 553.22441,533.47373 553.29593,540.441 560.50014,540.651 L 556.02231,555.31973 C 554.84492,546.86065 555.33854,536.0425 547.52989,536.94521 L 553.7062,525.98226 z " id="path2294" sodipodi:nodetypes="ccccc"/>
          <path style="fill:#000100;fill-opacity:1;fill-rule:evenodd;stroke:#000000;stroke-width:1px;stroke-linecap:butt;stroke-linejoin:miter;stroke-opacity:1" d="M 547.06666,537.40843 C 547.85264,547.88027 549.30005,557.18366 556.02231,555.62855 L 547.8387,565.20183 C 549.26848,552.81206 546.71651,546.30011 539.50068,546.6729 L 547.06666,537.40843 z " id="path2296" sodipodi:nodetypes="ccccc"/>
          <path style="fill:#000100;fill-opacity:1;fill-rule:evenodd;stroke:#000000;stroke-width:1px;stroke-linecap:butt;stroke-linejoin:miter;stroke-opacity:1" d="M 539.8095,546.82731 L 532.08911,553.31243 C 536.56169,551.06194 542.06919,567.30436 538.88305,573.07662 L 547.8387,564.7386 C 542.34393,568.81363 535.44772,550.20254 539.8095,546.82731 z " id="path2298" sodipodi:nodetypes="ccccc"/>
          <path style="fill:#000100;fill-opacity:1;fill-rule:evenodd;stroke:#000000;stroke-width:1px;stroke-linecap:butt;stroke-linejoin:miter;stroke-opacity:1" d="M 531.31707,553.62125 C 527.91651,558.90257 535.38761,578.24306 538.57424,573.38544 L 530.08181,578.94412 C 534.23193,572.908 530.47813,555.15597 524.21432,559.79756 L 531.31707,553.62125 z " id="path2300" sodipodi:nodetypes="ccccc"/>
          <path style="fill:#000100;fill-opacity:1;fill-rule:evenodd;stroke:#000000;stroke-width:1px;stroke-linecap:butt;stroke-linejoin:miter;stroke-opacity:1" d="M 518.19241,564.12097 C 521.71484,563.21028 527.91146,582.5141 519.58208,585.42924 L 530.85385,578.78971 C 526.62343,583.91348 521.37656,568.60166 525.14076,559.95196 L 518.19241,564.12097 z " id="path2302" sodipodi:nodetypes="ccccc"/>
          <path style="fill:#000100;fill-opacity:1;fill-rule:evenodd;stroke:#000000;stroke-width:1px;stroke-linecap:butt;stroke-linejoin:miter;stroke-opacity:1" d="M 510.16321,568.44439 C 514.21859,566.85241 518.83211,580.1034 510.31762,590.21588 L 519.73649,585.42924 C 515.5592,585.2725 513.54748,570.38274 517.8836,564.12097 L 510.16321,568.44439 z " id="path2304" sodipodi:nodetypes="ccccc"/>
          <path style="fill:#000100;fill-opacity:1;fill-rule:evenodd;stroke:#000000;stroke-width:1px;stroke-linecap:butt;stroke-linejoin:miter;stroke-opacity:1" d="M 501.05315,573.23103 C 507.34554,571.21168 506.8184,587.78555 501.36197,594.84812 L 510.62643,590.37029 C 506.6461,591.41062 506.91094,570.54677 510.0088,568.5988 L 501.05315,573.23103 z " id="path2306" sodipodi:nodetypes="ccccc"/>
          <path style="fill:#000100;fill-opacity:1;fill-rule:evenodd;stroke:#000000;stroke-width:1px;stroke-linecap:butt;stroke-linejoin:miter;stroke-opacity:1" d="M 489.62698,578.32649 C 495.55352,575.64504 494.54039,596.83952 490.24461,598.39949 L 501.36197,595.00252 C 492.91362,596.69515 496.61541,575.87308 501.05315,573.84866 L 489.62698,578.32649 z " id="path2308" sodipodi:nodetypes="ccccc"/>
        </g>
        <path sodipodi:nodetypes="cccccccccccccccccccccccccccccccccccccccccccc" id="path2340" d="M 408.86424,400.76038 C 426.61532,434.2733 453.32867,428.57628 478.18115,431.02056 C 514.03262,429.70218 530.96227,425.40868 546.44248,415.53861 C 553.90172,411.47948 561.97368,409.87124 570.36913,409.55694 L 603.79607,410.26067 C 620.95557,411.35178 630.50905,404.83687 642.50095,400.76038 C 661.14966,393.58584 683.66886,392.14408 698.44709,395.48244 C 711.19407,398.74259 724.87352,407.94034 733.63334,419.76096 C 752.325,449.98803 748.62374,477.81587 741.37431,505.26355 C 734.17635,537.12076 713.20556,569.90431 730.81844,604.48878 C 738.7804,634.18014 735.75283,637.77937 720.61442,656.91629 C 713.03402,664.00382 705.65218,670.13823 702.66944,655.15698 C 698.76833,617.04721 702.78463,576.63279 711.81786,542.91284 C 722.58754,506.32382 743.74676,460.07276 706.18806,423.63144 C 684.76725,413.58502 660.42621,419.41689 656.22358,434.18732 C 649.89006,436.68205 643.55653,431.99748 637.22301,430.31683 C 648.73689,435.2232 663.48353,436.89681 669.94622,446.85437 C 673.97865,452.1363 675.45129,466.54404 676.63161,478.52199 C 682.13597,575.42323 649.26041,553.70858 668.77703,600.66622 C 669.0208,606.14932 672.01474,611.84317 677.33534,617.50769 C 689.55737,625.376 688.44169,624.54564 687.89121,642.48993 C 689.32523,668.13479 683.74089,691.71335 690.70611,712.51057 C 677.54802,724.12672 687.19063,730.58054 689.65052,738.90025 C 683.58399,746.02575 692.38918,754.50323 695.63219,762.47505 C 698.35452,780.91699 679.36603,785.49014 661.50152,786.04983 C 647.79572,783.56582 646.26557,776.51594 647.42702,768.45671 C 658.71027,748.87271 662.04263,748.70326 656.22358,724.47389 L 656.7332,688.45634 C 658.05326,679.03657 652.36441,670.61807 648.82075,661.89312 C 638.71439,642.64228 631.42656,637.88048 619.99683,628.26522 C 592.57246,600.32313 586.77004,599.57964 571.10921,559.31388 C 569.11141,553.82726 567.39493,547.85838 571.46972,531.96162 C 568.88964,516.81208 582.39409,510.61976 569.47854,481.18644 L 564.50058,467.24815 C 561.21074,461.68828 556.79742,457.2519 548.23925,456.96037 C 536.31628,459.32807 537.65246,449.76254 533.63723,445.01327 L 482.86205,447.66818 L 465.93699,448.99564 L 442.04278,453.9736 C 438.13039,455.33038 433.56047,455.37211 428.76823,454.96919 C 424.67524,452.11297 420.58225,453.8733 416.48926,455.30105 C 421.21133,451.63322 422.89357,446.44548 424.12213,441.0309 C 423.12654,434.57169 422.13094,428.79719 421.13535,424.10584 C 419.75154,416.32402 413.47753,408.5422 408.86424,400.76038 z " style="fill:#ffffff;fill-opacity:1;fill-rule:evenodd;stroke:#000000;stroke-width:5.31496048;stroke-linecap:butt;stroke-linejoin:miter;stroke-miterlimit:4;stroke-dasharray:none;stroke-opacity:1"/>
        <path sodipodi:nodetypes="cc" id="path2344" d="M 649.5382,765.99367 C 665.28083,756.57101 680.10093,760.98612 694.92846,765.28994" style="fill:none;fill-opacity:0.75;fill-rule:evenodd;stroke:#000000;stroke-width:3.54330707;stroke-linecap:butt;stroke-linejoin:miter;stroke-miterlimit:4;stroke-dasharray:none;stroke-opacity:1"/>
        <path id="path2346" d="M 665.37201,750.15986 L 661.14966,784.99424" style="fill:none;fill-opacity:0.75;fill-rule:evenodd;stroke:#000000;stroke-width:3.18897629;stroke-linecap:round;stroke-linejoin:miter;stroke-miterlimit:4;stroke-dasharray:none;stroke-opacity:1"/>
        <path sodipodi:nodetypes="cccc" id="path2348" d="M 690.70611,712.51057 C 696.2587,716.4916 700.55133,736.93497 696.68777,739.25212 C 688.17096,742.3875 686.93176,732.90834 683.66886,726.93693 C 683.09299,717.86745 686.86159,715.13365 690.70611,712.51057 z " style="fill:#ffffff;fill-opacity:1;fill-rule:evenodd;stroke:#000000;stroke-width:3.18897629;stroke-linecap:butt;stroke-linejoin:miter;stroke-miterlimit:4;stroke-dasharray:none;stroke-opacity:1"/>
        <path id="path2354" d="M 574.4565,496.45218 L 576.49386,512.74773 C 578.26174,505.94722 583.07643,499.58499 587.11351,494.49521 C 582.89451,496.34777 578.6755,496.98078 574.4565,496.45218 z " style="fill:#000000;fill-opacity:1;fill-rule:evenodd;stroke:#000000;stroke-width:1px;stroke-linecap:butt;stroke-linejoin:miter;stroke-opacity:1" sodipodi:nodetypes="cccc"/>
        <path sodipodi:nodetypes="ccccc" id="path2356" d="M 528.65927,444.68141 C 537.07209,442.44144 541.53922,433.62532 547.57552,427.42448 C 543.25795,435.84427 536.64629,443.40379 538.94706,454.30546 L 533.9691,444.68141 L 528.65927,444.68141 z " style="fill:#000000;fill-opacity:1;fill-rule:evenodd;stroke:#000000;stroke-width:1px;stroke-linecap:butt;stroke-linejoin:miter;stroke-opacity:1"/>
        <path sodipodi:nodetypes="ccccccc" id="path2358" d="M 634.89172,495.68316 C 632.0413,519.13357 622.39157,530.10247 609.30107,547.67685 C 604.30873,553.76568 596.15444,561.45276 602.39566,569.40859 C 605.04919,574.8246 606.30899,580.24061 606.25457,585.65662 C 611.09764,582.59444 610.05023,576.58703 606.25457,569.20549 C 602.24447,562.52564 606.3809,555.64576 611.12897,549.50475 C 626.73311,531.9686 639.6055,514.28867 634.89172,495.68316 z " style="fill:#000000;fill-opacity:1;fill-rule:evenodd;stroke:#000000;stroke-width:1px;stroke-linecap:butt;stroke-linejoin:miter;stroke-opacity:1"/>
        <path id="path2240" d="M 670.5625,452.03125 C 666.89358,475.59534 660.33523,495.54226 651.78125,513 C 638.29539,542.97269 633.46915,573.62472 650.40625,606.03125 C 653.31633,609.82925 656.85319,611.75601 658.65625,618.875 L 663.6875,626.1875 C 670.47077,629.84688 677.0023,633.69678 674.21875,644.53125 C 674.99664,653.68904 675.15407,662.13261 668.71875,662.875 L 671.03125,667 C 674.00178,665.30194 678.077,665.82439 678.8125,659.65625 C 679.18016,650.73359 678.7965,641.80301 677.90625,631.6875 L 665.0625,618.40625 C 657.29124,613.76498 656.99433,606.63985 656.34375,599.625 C 656.29128,592.28958 656.38689,585.09922 662.3125,584.9375 C 661.08541,579.43897 660.38626,573.76843 662.78125,567.0625 C 667.72901,556.67328 670.7921,546.29547 673.3125,535.90625 C 676.54606,507.11696 679.30342,478.42564 670.5625,452.03125 z M 673.125,471.8125 L 673.625,488.21875 C 662.13366,486.54867 669.1061,474.9163 673.125,471.8125 z M 667.1875,489.96875 C 667.19457,489.96869 667.21716,489.96855 667.21875,489.96875 C 667.22184,489.96887 667.24727,489.96869 667.25,489.96875 C 667.25617,489.9689 667.27797,489.96895 667.28125,489.96875 C 667.30749,489.96843 667.34912,489.96792 667.375,489.96875 C 667.38143,489.96879 667.39987,489.96897 667.40625,489.96875 C 672.52868,489.79044 676.13163,495.32908 675,504.21875 C 666.4966,506.36928 661.17942,497.43105 664.46875,490.65625 C 665.36786,490.28066 666.2568,490.06565 667.09375,490 C 667.09685,490.00009 667.12227,490.00001 667.125,490 C 667.1281,490.00018 667.15352,489.99997 667.15625,490 C 667.15943,489.99649 667.18471,489.97162 667.1875,489.96875 z M 662.21875,502.84375 C 662.23687,502.83881 662.26296,502.84828 662.28125,502.84375 C 662.29179,502.84397 662.33317,502.84343 662.34375,502.84375 C 662.35427,502.84395 662.39569,502.84345 662.40625,502.84375 C 662.41675,502.84392 662.45821,502.84347 662.46875,502.84375 C 662.47923,502.84389 662.52073,502.8435 662.53125,502.84375 C 662.53636,502.84345 662.55729,502.84373 662.5625,502.84375 C 662.5836,502.84465 662.63555,502.84426 662.65625,502.84375 C 662.82892,502.82634 663.00119,502.82617 663.1875,502.84375 C 667.45958,504.19986 671.90125,508.90864 672.625,512 C 674.18707,515.6693 673.28748,521.18423 671.5625,521.4375 C 671.55932,521.43739 671.53402,521.43754 671.53125,521.4375 C 671.51862,521.43831 671.48273,521.43783 671.46875,521.4375 C 671.46261,521.43751 671.44144,521.43738 671.4375,521.4375 C 671.42431,521.43799 671.38612,521.43819 671.375,521.4375 C 669.43299,521.08603 659.37657,513.75028 658.3125,511.5625 C 658.30695,511.55174 658.28651,511.5106 658.28125,511.5 C 658.27012,511.4647 658.25673,511.40335 658.25,511.375 C 658.24975,511.35901 658.24959,511.3225 658.25,511.3125 C 658.25015,511.30852 658.24996,511.28469 658.25,511.28125 C 658.24999,511.27076 658.24978,511.23489 658.25,511.21875 C 658.24993,511.216 658.25017,511.19063 658.25,511.1875 C 658.25491,511.17653 658.27542,511.13542 658.28125,511.125 C 658.93691,507.4065 659.91693,503.47055 662.21875,502.84375 z M 657,514.65625 C 657.01717,514.65275 657.04538,514.65953 657.0625,514.65625 C 657.07315,514.65642 657.11436,514.65602 657.125,514.65625 C 657.13564,514.65641 657.17687,514.65603 657.1875,514.65625 C 657.19814,514.6564 657.23938,514.65605 657.25,514.65625 C 657.25409,514.65599 657.27739,514.6562 657.28125,514.65625 C 657.28497,514.65649 657.30883,514.65593 657.3125,514.65625 C 657.31634,514.65636 657.33969,514.65643 657.34375,514.65625 C 657.34648,514.65624 657.37193,514.65617 657.375,514.65625 C 657.40106,514.65637 657.44288,514.65562 657.46875,514.65625 C 657.47492,514.65635 657.49669,514.65657 657.5,514.65625 C 662.26811,517.76731 665.58319,522.03917 669.09375,526.15625 C 670.44271,529.5853 670.07807,532.30427 668.8125,534.6875 C 663.06658,530.76706 655.51725,527.59642 652.59375,522.5 C 652.27354,517.28909 654.81974,515.10024 657,514.65625 z M 651.3125,529.0625 C 651.31591,529.06266 651.34093,529.06244 651.34375,529.0625 C 651.35029,529.06257 651.37239,529.06256 651.375,529.0625 C 651.39668,529.06287 651.4484,529.06204 651.46875,529.0625 C 653.81435,529.01721 657.45115,532.60846 660.0625,533.3125 C 665.31759,536.6901 672.00059,539.69867 667.4375,545.59375 C 666.59698,552.34682 659.67803,544.93026 655.34375,543.53125 C 646.50701,538.2293 646.17408,534.60911 649.34375,531.65625 C 649.66959,529.93798 650.35461,529.20692 651.25,529.09375 C 651.25282,529.09381 651.27784,529.0936 651.28125,529.09375 C 651.28666,529.0881 651.3071,529.06818 651.3125,529.0625 z M 644.875,542.03125 C 644.89111,542.02755 644.9212,542.03452 644.9375,542.03125 C 644.94815,542.03139 644.9893,542.031 645,542.03125 C 645.00403,542.03095 645.02743,542.03123 645.03125,542.03125 C 645.04749,542.03148 645.08452,542.03155 645.09375,542.03125 C 647.37162,541.76385 651.30582,545.12728 654.34375,546.5 C 661.49869,548.92917 665.68402,552.10327 664.46875,556.625 C 663.34709,564.65382 656.33436,557.56899 651.40625,555.84375 C 643.37157,552.20688 641.88385,548.92707 643.25,545.8125 C 643.23767,543.36754 643.85992,542.26428 644.875,542.03125 z M 644.5625,556.78125 C 644.57002,556.77965 644.58615,556.78271 644.59375,556.78125 C 644.60933,556.77885 644.63926,556.78196 644.65625,556.78125 C 646.76368,556.6931 649.65649,559.24628 652,559.96875 C 657.70761,561.98796 662.75015,564.25071 659.1875,569.875 C 657.3103,574.77878 651.85593,569.3924 647.875,568.21875 C 641.42093,565.43161 642.36376,562.07294 642.46875,558.78125 C 642.95331,557.48889 643.63815,556.91843 644.46875,556.8125 C 644.50192,556.80827 644.53241,556.78765 644.5625,556.78125 z M 644.78125,570.84375 C 644.82366,570.83889 644.86263,570.84659 644.90625,570.84375 C 646.21746,570.75848 648.08373,571.56705 650.53125,573.3125 C 656.00007,572.47828 657.89459,574.64399 656.8125,579.3125 C 656.43109,580.90847 655.83403,581.9521 655.09375,582.53125 C 653.2011,583.97182 650.28975,582.56469 647.09375,580.3125 C 643.81312,578.5442 642.70975,576.41551 642.5625,574.125 C 642.73019,572.12873 643.46665,570.99449 644.78125,570.84375 z M 647,585.84375 C 647.80988,585.73001 649.17435,586.10693 651.3125,587.09375 C 652.06971,587.15012 652.78533,587.28273 653.28125,587.6875 C 654.00808,588.30693 654.27428,589.55617 653.5625,592.09375 C 652.82539,594.57807 652.08086,595.9272 651.34375,596.34375 C 651.29768,596.36857 651.23357,596.41989 651.1875,596.4375 C 651.13375,596.45665 651.05375,596.45925 651,596.46875 C 650.97697,596.47224 650.92928,596.49826 650.90625,596.5 C 650.89089,596.50077 650.85911,596.5 650.84375,596.5 C 650.82072,596.49943 650.77303,596.47104 650.75,596.46875 C 650.72697,596.46589 650.67928,596.47331 650.65625,596.46875 C 650.63322,596.46362 650.58553,596.44431 650.5625,596.4375 C 650.53947,596.43013 650.49178,596.41529 650.46875,596.40625 C 649.53968,596.01919 648.61657,594.27117 647.6875,591.59375 C 646.36428,588.99646 645.4761,586.76682 646.4375,586.0625 C 646.44394,586.05803 646.46215,586.03559 646.46875,586.03125 C 646.48227,586.02283 646.51708,586.00788 646.53125,586 C 646.58921,585.96955 646.68143,585.92791 646.75,585.90625 C 646.81993,585.88571 646.91901,585.85512 647,585.84375 z " style="fill:#000000;fill-opacity:1;fill-rule:evenodd;stroke:#000000;stroke-width:1.35354328;stroke-linecap:butt;stroke-linejoin:miter;stroke-miterlimit:4;stroke-dasharray:none;stroke-opacity:1"/>
        <path sodipodi:nodetypes="cccccccccc" id="path2285" d="M 285.84561,322.23765 C 286.86401,337.80761 285.60246,356.5206 278.19189,368.7308 C 272.0365,378.81552 269.87011,390.56232 272.66481,402.54586 C 274.09063,417.89336 268.47257,428.83844 259.28783,437.55434 C 252.30013,443.21522 250.12878,448.39447 247.40671,453.62879 C 248.14462,455.56202 255.30841,443.36909 261.38449,438.25323 C 274.16147,426.87557 279.05448,419.61589 276.06116,401.21211 C 274.62057,388.39873 276.52262,381.19794 281.65228,371.85877 C 288.61399,359.72093 292.67702,343.76904 291.23645,320.57557 L 285.84561,322.23765 z " style="fill:#1f1a17;fill-opacity:1;fill-rule:evenodd;stroke:#000000;stroke-width:0.99921262;stroke-linecap:butt;stroke-linejoin:miter;stroke-miterlimit:4;stroke-dasharray:none;stroke-opacity:1"/>
        <path id="path2287" d="M 308.21875,301.34375 L 295.21875,310.28125 L 290.53125,321.5625 C 299.80645,337.45862 312.51277,347.45425 321.5625,366.21875 C 328.79381,378.01172 330.38151,392.52453 322.5,405.6875 L 308.875,430.625 C 314.30844,423.83238 319.62434,417.23958 327.1875,406.1875 C 330.0384,392.43131 340.51698,381.92363 356.71875,377.625 C 368.01793,373.38434 379.21345,371.95259 380.78125,377.5 L 389.25,380.3125 L 376.09375,370 L 363.03125,363.96875 C 355.60292,361.34126 351.28629,353.5309 345.84375,347.59375 C 338.55022,334.60445 325.6156,317.01321 308.21875,301.34375 z M 312.375,311.25 C 312.38677,311.24717 312.39448,311.25259 312.40625,311.25 C 312.409,311.24975 312.43495,311.24995 312.4375,311.25 C 312.44005,311.25011 312.466,311.25016 312.46875,311.25 C 312.47154,311.24978 312.49746,311.24997 312.5,311.25 C 312.50254,311.25009 312.52846,311.25013 312.53125,311.25 C 312.53637,311.2497 312.55727,311.25001 312.5625,311.25 C 312.58372,311.25073 312.63573,311.25029 312.65625,311.25 C 313.85687,311.15534 315.11043,312.17234 316.71875,314.375 C 318.87971,316.05221 320.85591,318.28958 317.5625,320.6875 C 313.99621,322.40804 309.49489,326.93118 305.4375,330.125 C 302.831,330.40134 302.54553,328.33722 302.78125,326.71875 C 307.27524,323.73756 309.15496,321.32494 308.53125,319.3125 C 306.87333,318.70101 302.99162,322.53782 300.03125,324.53125 C 298.15125,324.38533 297.39015,323.58112 297.84375,322.0625 C 301.57711,319.66968 305.5752,314.93606 310.0625,313.0625 C 310.88673,312.07211 311.63347,311.42799 312.375,311.25 z M 323.15625,322.78125 C 323.18795,322.77728 323.2183,322.78459 323.25,322.78125 C 323.25624,322.78059 323.27483,322.78152 323.28125,322.78125 C 323.30743,322.78134 323.34882,322.78078 323.375,322.78125 C 323.38142,322.78113 323.40001,322.78172 323.40625,322.78125 C 323.49644,322.77452 323.59749,322.78293 323.6875,322.78125 C 325.31783,322.75087 326.92583,323.5632 328.4375,325.90625 C 332.0086,329.59513 331.24263,331.99102 327.96875,334.1875 C 324.93387,337.58488 321.00883,340.03529 317.6875,341.90625 C 312.56434,344.29475 312.77165,341.82604 314.03125,338.375 L 320.46875,331 L 311.25,336.1875 C 307.27781,336.1988 306.30786,334.53893 307.6875,331.53125 C 311.51496,328.20427 315.81933,325.95409 320.1875,323.84375 C 321.19256,323.33771 322.17361,322.90443 323.15625,322.78125 z M 332.375,337.09375 C 332.42195,337.08993 332.4844,337.0967 332.53125,337.09375 C 332.60498,337.08911 332.67649,337.09628 332.75,337.09375 C 335.45259,337.0006 337.98063,338.29451 340.28125,341.1875 C 343.80376,345.67711 344.83946,349.39012 340.15625,351.28125 L 327.09375,360.03125 C 323.08529,361.78566 320.59607,355.35367 321.65625,353.625 C 321.66148,353.61404 321.68215,353.5733 321.6875,353.5625 C 321.70544,353.53853 321.73003,353.49593 321.75,353.46875 C 321.7584,353.46033 321.77818,353.44099 321.78125,353.4375 L 331.5625,347.5625 C 331.64053,347.27351 331.68257,347.02809 331.6875,346.84375 C 331.68756,346.82873 331.68816,346.7956 331.6875,346.78125 C 331.68768,346.7703 331.68751,346.72953 331.6875,346.71875 C 331.68755,346.71601 331.68735,346.6906 331.6875,346.6875 C 331.68648,346.68408 331.68887,346.66027 331.6875,346.65625 C 331.68251,346.64267 331.65951,346.60438 331.65625,346.59375 C 331.65632,346.59094 331.65604,346.5658 331.65625,346.5625 C 331.65078,346.55705 331.63061,346.5366 331.625,346.53125 C 331.61688,346.52303 331.59843,346.50497 331.59375,346.5 C 331.59033,346.49687 331.56607,346.47178 331.5625,346.46875 C 331.55692,346.46306 331.53687,346.44317 331.53125,346.4375 C 331.51526,346.42929 331.47971,346.41182 331.46875,346.40625 C 331.17607,346.27791 330.5851,346.29246 329.5625,346.4375 C 326.61559,346.67573 323.40124,349.18957 320.3125,350.5625 C 315.53394,351.02619 315.60636,348.94592 316.8125,346.28125 L 327.875,338.625 C 329.43326,337.75561 330.9196,337.21205 332.375,337.09375 z M 342.125,354.28125 C 342.21156,354.27524 342.28868,354.28528 342.375,354.28125 C 344.84139,354.166 347.42502,354.68919 350.25,356.1875 C 355.10906,360.75432 352.9657,363.17467 348.40625,364.875 L 334.09375,375.90625 C 332.39921,376.76808 331.24919,376.60858 330.5625,375.96875 C 330.53944,375.94655 330.49075,375.89833 330.46875,375.875 C 329.29268,374.58712 329.65165,371.66114 331,370.28125 L 341.09375,363.03125 C 340.95963,362.76127 340.89208,362.43214 340.6875,362.21875 C 340.68291,362.21422 340.66098,362.19191 340.65625,362.1875 C 340.65138,362.18321 340.63003,362.16042 340.625,362.15625 C 340.61982,362.15221 340.59909,362.12891 340.59375,362.125 C 340.57723,362.11368 340.54933,362.10379 340.53125,362.09375 C 340.51883,362.08735 340.48193,362.06828 340.46875,362.0625 C 340.45518,362.05704 340.42063,362.03605 340.40625,362.03125 C 340.39885,362.02902 340.38261,362.0333 340.375,362.03125 C 340.02884,361.94696 339.44902,362.03782 338.46875,362.46875 L 330.90625,368.0625 C 328.99161,367.627 325.92026,369.79172 327.34375,361.78125 L 340.3125,354.53125 C 340.89978,354.4266 341.51906,354.32329 342.125,354.28125 z M 361.65625,366.1875 C 363.52712,366.12295 365.18824,366.31851 366.125,367.34375 C 369.71486,368.9984 368.95323,370.73996 366.53125,372.53125 L 361.375,372.75 C 350.45023,374.25935 342.79494,379.80203 335.375,385.625 C 330.11895,387.72744 331.14386,384.74094 332.1875,381.75 C 338.18473,374.76953 346.17801,370.08868 355.1875,366.53125 C 357.12096,366.6761 359.53593,366.26065 361.65625,366.1875 z " style="fill:#1f1a17;fill-opacity:1;fill-rule:evenodd;stroke:#000000;stroke-width:1.5;stroke-linecap:butt;stroke-linejoin:miter;stroke-miterlimit:4;stroke-dasharray:none;stroke-opacity:1"/>
        <path sodipodi:nodetypes="ccccc" id="path2307" d="M 305.58362,599.89414 C 270.48483,603.93911 242.28124,565.81825 252.95097,523.30184 L 250.2015,522.90906 C 240.29954,567.82692 264.56018,605.37851 307.54753,605.39307 L 305.58362,599.89414 z " style="fill:#000000;fill-opacity:1;fill-rule:evenodd;stroke:#000000;stroke-width:1px;stroke-linecap:butt;stroke-linejoin:miter;stroke-opacity:1"/>
        <path sodipodi:nodetypes="ccc" id="path2309" d="M 198.74719,727.94075 C 207.30055,724.91479 203.87667,706.27622 198.74719,703.19554 C 192.52785,707.15025 186.62992,717.81586 198.74719,727.94075 z " style="fill:#ffffff;fill-opacity:1;fill-rule:evenodd;stroke:#000000;stroke-width:4.6062994;stroke-linecap:butt;stroke-linejoin:miter;stroke-miterlimit:4;stroke-dasharray:none;stroke-opacity:1"/>
        <path sodipodi:nodetypes="cccccc" id="path2311" d="M 164.18246,755.755 C 177.07904,757.90257 191.35652,742.79895 191.67713,738.54583 L 199.92553,744.43755 C 193.73298,741.95915 186.61128,751.49814 180.08295,755.42114 C 174.76459,757.40306 169.56058,757.89625 163.7022,758.25809 L 164.18246,755.755 z " style="fill:#000000;fill-opacity:1;fill-rule:evenodd;stroke:#000000;stroke-width:1px;stroke-linecap:butt;stroke-linejoin:miter;stroke-opacity:1"/>
        <path sodipodi:nodetypes="cccc" id="path2313" d="M 173.10395,776.14926 C 174.81402,770.03169 171.24327,765.60089 171.27216,755.89783 C 174.09197,755.33027 174.08999,772.69065 180.63463,773.19805 L 173.10395,776.14926 z " style="fill:#000000;fill-opacity:1;fill-rule:evenodd;stroke:#000000;stroke-width:1px;stroke-linecap:butt;stroke-linejoin:miter;stroke-opacity:1"/>
        <path id="path2315" d="M 242.46875,576.375 C 244.97085,597.72839 249.50054,596.97234 233.9375,606.5 C 226.2766,613.82167 216.45946,619.66902 212.9375,629.75 C 212.00563,633.45174 210.61285,636.82465 206.6875,638.28125 L 202.4375,641.6875 L 203.84375,644.25 L 209.25,640.28125 C 213.07939,638.77465 215.81834,635.91002 216.625,630.625 C 218.13167,621.16834 225.33937,618.37601 231.09375,613.875 L 247,603.0625 C 250.46814,601.61516 251.28257,602.35218 250.96875,608.46875 C 239.10868,618.99787 230.68672,632.11429 221.71875,644.8125 C 219.59338,648.88718 216.76488,651.97595 212.375,653.03125 C 193.82502,663.47548 194.51631,686.56989 191.34375,704.4375 L 195.34375,702.15625 C 195.41982,684.59761 202.63029,667.15395 210.375,659.875 L 212.09375,664.40625 L 219.75,654.1875 L 229.125,647.9375 L 239.90625,643.6875 L 266.3125,618.125 C 253.35898,604.21339 246.35785,590.28659 242.46875,576.375 z M 254.9375,609.90625 C 258.67474,612.27215 260.18045,614.63408 260.90625,617 C 256.19193,619.02069 252.20029,618.55966 249,615.28125 C 248.80545,611.30123 252.28027,611.03449 254.9375,609.90625 z M 248,619.28125 C 248.07914,619.27558 248.17018,619.28508 248.25,619.28125 C 248.38844,619.27461 248.51581,619.28223 248.65625,619.28125 C 251.03747,619.2646 253.69805,620.07101 256.375,622.09375 C 251.73124,629.86326 246.09642,624.89633 240.75,623.53125 C 242.017,621.35646 244.70247,619.51767 248,619.28125 z M 241.3125,628.8125 C 243.83868,628.78955 246.85054,629.06328 250.125,629.46875 C 246.61588,635.41195 240.42954,634.70158 233.9375,633.1875 C 233.38788,630.17796 236.0803,628.99581 240.53125,628.84375 C 240.78162,628.8352 241.05117,628.81487 241.3125,628.8125 z M 237.09375,637.09375 C 239.18206,637.01183 241.30945,637.24864 243.03125,637.4375 C 239.36802,642.66422 232.08506,647.97551 228.25,643.6875 C 228.93528,638.61544 232.96571,637.25569 237.09375,637.09375 z " style="fill:#000000;fill-opacity:1;fill-rule:evenodd;stroke:#000000;stroke-width:1px;stroke-linecap:butt;stroke-linejoin:miter;stroke-opacity:1"/>
      </g>
      <g id="g2218" transform="translate(446.5623,5.530603)">
        <g transform="translate(130.9040,-1.377942)" id="g2258">
          <path style="fill:#f5c600;fill-opacity:1;fill-rule:nonzero;stroke:#000000;stroke-width:5.31496048;stroke-linecap:round;stroke-linejoin:round;stroke-miterlimit:4;stroke-dasharray:none;stroke-dashoffset:0;stroke-opacity:1" d="M 221.21229,104.92687 C 215.08994,104.99034 208.95964,105.23619 202.83729,105.64562 C 201.64457,105.64562 200.71229,106.28797 200.71229,107.08312 C 206.90788,111.34112 212.33096,116.46487 212.80604,123.58312 L 212.80604,155.42687 L 165.18104,155.42687 C 157.27592,154.83992 154.04431,148.55566 150.80604,143.30187 C 150.0109,143.30187 149.39979,144.2654 149.39979,145.45812 C 148.4189,160.77375 148.05561,172.94251 149.39979,187.67687 C 149.39979,188.86959 150.0109,189.83313 150.80604,189.83312 C 153.39319,183.03429 157.45135,176.97338 164.80604,175.89562 L 212.80604,175.89562 L 212.80604,270.67687 C 212.21909,278.58198 205.96608,281.81361 200.71229,285.05187 C 200.71229,285.84701 201.64456,286.48936 202.83729,286.48937 L 247.05604,286.48937 C 248.24876,286.48937 249.21229,285.84702 249.21229,285.05187 C 242.41346,282.46472 236.38379,278.40657 235.30604,271.05187 L 235.30604,175.89562 L 279.71229,175.89562 C 286.30487,177.65652 292.45728,181.45123 296.21229,189.83312 C 297.00744,189.83312 297.6498,188.86959 297.64979,187.67687 C 298.45603,172.20335 298.74772,159.97956 297.64979,145.45812 C 297.64979,144.2654 297.00744,143.30187 296.21229,143.30187 C 291.95429,149.49746 286.83054,154.95179 279.71229,155.42687 L 235.30604,155.42687 L 235.30604,123.58312 C 237.06694,116.99054 240.83039,110.83813 249.21229,107.08312 C 249.21229,106.28797 248.24875,105.64562 247.05604,105.64562 C 238.10799,105.10845 230.16034,104.83411 221.21229,104.92687 z " id="rect1326" sodipodi:nodetypes="cccccccccccccccccccccccccccccc"/>
          <path style="fill:#ffffff;fill-opacity:1;fill-rule:evenodd;stroke:#000200;stroke-width:4.6062994;stroke-linecap:butt;stroke-linejoin:miter;stroke-miterlimit:4;stroke-dasharray:none;stroke-opacity:1" d="M 170.80924,325.71908 L 171.83821,310.97049 C 161.61129,311.59901 149.05373,304.45873 141.31206,313.37142 C 145.03021,322.11526 158.79026,324.2471 170.80924,325.71908 z " id="path2209" sodipodi:nodetypes="cccc"/>
          <path sodipodi:nodetypes="cccc" id="path2211" d="M 274.73534,324.00413 L 273.70637,309.25554 C 283.93329,309.88406 296.49085,302.74378 304.23252,311.65647 C 300.51437,320.40031 286.75432,322.53215 274.73534,324.00413 z " style="fill:#ffffff;fill-opacity:1;fill-rule:evenodd;stroke:#000200;stroke-width:4.25196838;stroke-linecap:butt;stroke-linejoin:miter;stroke-miterlimit:4;stroke-dasharray:none;stroke-opacity:1"/>
          <path id="path2213" style="fill:#ffffff;fill-opacity:1;fill-rule:evenodd;stroke:#000000;stroke-width:4.25196838;stroke-linecap:butt;stroke-linejoin:miter;stroke-miterlimit:4;stroke-opacity:1" d="M 218.68943,415.58258 C 210.76052,416.35246 203.35096,413.99895 200.30642,408.03678 C 183.23974,401.55227 180.56989,393.25255 183.84288,382.3125 C 188.86347,360.51215 172.60434,348.63434 168.40831,328.80599 C 165.8542,312.41849 169.9733,297.69928 170.80924,282.15929 C 176.06843,283.64239 181.32762,282.48611 186.58681,289.0191 C 194.6292,283.79919 208.49096,282.68371 218.93016,283.53125 C 229.36936,282.68371 245.23112,283.79919 253.27351,289.0191 C 258.5327,282.48611 263.79189,283.64239 269.05108,282.15929 C 269.88702,297.69928 279.00612,312.41849 276.45201,328.80599 C 272.25598,348.63434 252.99685,360.51215 258.01744,382.3125 C 261.29043,393.25255 256.62058,401.55227 239.5539,408.03678 C 236.50936,413.99895 227.0998,416.35246 218.68943,415.58258 z " sodipodi:nodetypes="ccccccccccccc"/>
          <path style="fill:#ffffff;fill-opacity:1;fill-rule:evenodd;stroke:#000000;stroke-width:5.31496048;stroke-linecap:butt;stroke-linejoin:miter;stroke-miterlimit:4;stroke-dasharray:none;stroke-opacity:1" d="M 168.06485,284.5714 C 180.51817,291.95366 177.60416,309.41146 167.74041,311.82517 C 140.57146,314.08191 126.49133,289.74004 116.47738,266.40223 C 105.27592,244.07724 96.373418,219.77774 68.45885,214.16586 C 62.214197,210.13961 64.580676,205.66835 70.081098,203.78347 C 100.44832,207.56476 115.80705,225.3463 128.80646,245.96191 C 139.87683,262.55608 145.99853,281.20017 168.06485,284.5714 z " id="path2205" sodipodi:nodetypes="ccccccc"/>
          <path sodipodi:nodetypes="ccccccc" id="path2207" d="M 278.47173,283.66565 C 265.57458,290.24186 266.77259,309.35216 276.46308,312.38762 C 303.43378,316.36581 322.7026,294.80296 334.17894,272.14846 C 346.77604,250.58018 356.28659,220.47155 384.50129,216.64438 C 390.9891,213.02298 388.31041,207.80936 382.94084,205.57885 C 352.39474,207.42332 336.25402,230.617 321.97119,250.36513 C 309.86898,266.2225 300.70765,281.70307 278.47173,283.66565 z " style="fill:#ffffff;fill-opacity:1;fill-rule:evenodd;stroke:#000000;stroke-width:5.31496048;stroke-linecap:butt;stroke-linejoin:miter;stroke-miterlimit:4;stroke-dasharray:none;stroke-opacity:1"/>
          <path sodipodi:type="arc" style="opacity:1;fill:#1f1a17;fill-opacity:1;fill-rule:nonzero;stroke:none;stroke-width:4.25196838;stroke-linecap:round;stroke-linejoin:round;stroke-miterlimit:4;stroke-dasharray:none;stroke-dashoffset:0;stroke-opacity:1" id="path2222" sodipodi:cx="191.56017" sodipodi:cy="334.46533" sodipodi:rx="2.9154189" sodipodi:ry="4.9733615" d="M 194.47558 334.46533 A 2.9154189 4.9733615 0 1 1  188.64475,334.46533 A 2.9154189 4.9733615 0 1 1  194.47558 334.46533 z" transform="matrix(1.352941,0.000000,0.000000,1.206897,-67.26648,-68.51374)"/>
          <path transform="matrix(1.352941,0.000000,0.000000,1.206897,-8.272123,-69.19972)" d="M 194.47558 334.46533 A 2.9154189 4.9733615 0 1 1  188.64475,334.46533 A 2.9154189 4.9733615 0 1 1  194.47558 334.46533 z" sodipodi:ry="4.9733615" sodipodi:rx="2.9154189" sodipodi:cy="334.46533" sodipodi:cx="191.56017" id="path2224" style="opacity:1;fill:#1f1a17;fill-opacity:1;fill-rule:nonzero;stroke:none;stroke-width:4.25196838;stroke-linecap:round;stroke-linejoin:round;stroke-miterlimit:4;stroke-dasharray:none;stroke-dashoffset:0;stroke-opacity:1" sodipodi:type="arc"/>
          <path style="fill:#1f1a17;fill-opacity:1;fill-rule:evenodd;stroke:#000000;stroke-width:0.29055119;stroke-linecap:butt;stroke-linejoin:miter;stroke-miterlimit:4;stroke-dasharray:none;stroke-opacity:1" d="M 188.64475,300.68077 C 193.0043,298.23483 196.74283,297.65194 199.27745,300.68077 C 204.50258,307.26554 211.13378,311.82033 211.30017,326.20649 C 209.16335,328.01163 207.05664,320.09561 204.07932,319.88824 C 202.69943,321.04583 208.33864,329.76856 208.1952,332.92188 C 208.93112,337.85611 204.64395,337.05454 204.25984,334.87151 C 198.72222,321.45217 190.75217,315.84033 183.1569,321.2602 C 195.41843,323.42363 200.55816,330.68072 200.9924,337.72374 L 200.64941,361.73307 C 200.68289,367.05714 202.93883,371.16897 206.13726,374.76671 C 211.2015,379.80007 211.65127,389.53646 206.13726,390.88726 C 198.62596,389.98495 200.351,382.79471 198.59147,382.99848 C 192.75719,384.44063 192.80284,393.60574 202.02138,395.25588 C 206.26269,395.34513 210.78377,392.90696 212.59624,386.09044 C 213.10814,383.35085 213.65201,379.63645 212.69018,377.87168 C 203.12473,366.21104 203.78067,357.66184 204.42231,344.58355 C 208.10198,344.97932 211.26834,344.09178 212.65408,338.75271 C 213.99635,328.38754 218.18824,317.346 208.1952,305.48264 L 199.96343,296.56489 C 193.98973,295.36924 189.17368,295.52418 188.64475,300.68077 z " id="path2226" sodipodi:nodetypes="cccccccccccccccccccc"/>
          <path sodipodi:nodetypes="cccccccccccccccccccc" id="path2228" d="M 253.77751,298.29409 C 249.41796,295.84815 243.04867,296.58591 239.98368,298.68659 C 234.36077,303.28246 226.51512,314.60479 229.66356,326.86946 C 230.73964,327.61385 233.90709,320.75858 236.88441,320.55121 C 238.2643,321.7088 232.90083,331.33857 233.04427,334.49189 C 232.30835,339.42612 236.98803,339.01706 237.37214,336.83403 C 242.90976,323.41469 253.26121,317.03367 260.32611,320.19945 C 248.06458,322.36288 243.98559,331.21109 243.55135,338.25411 L 243.62916,362.39604 C 243.59568,367.72011 238.95306,372.4949 236.01981,377.15339 C 230.95557,380.72822 228.53273,389.25544 236.81009,389.94328 C 244.32139,389.04097 241.67348,382.79471 243.43301,382.99848 C 249.79766,383.77766 247.23274,393.60574 240.0031,395.25588 C 233.90548,395.61032 229.517,393.96771 227.70453,387.15119 C 227.19263,384.4116 229.01433,380.55932 230.90431,378.26418 C 240.46976,366.60354 240.59883,357.66184 239.95719,344.58355 C 236.27752,344.97932 231.14337,346.09123 228.69688,338.63067 C 223.11162,325.74622 220.12362,313.2356 232.76853,300.97446 C 235.27511,297.80465 238.53808,295.58031 242.45883,294.17821 C 248.43253,292.98256 254.8397,293.1375 253.77751,298.29409 z " style="fill:#1f1a17;fill-opacity:1;fill-rule:evenodd;stroke:none;stroke-width:0.29055119;stroke-linecap:butt;stroke-linejoin:miter;stroke-miterlimit:4;stroke-dasharray:none;stroke-opacity:1"/>
          <path style="fill:#1f1a17;fill-opacity:1;fill-rule:evenodd;stroke:none;stroke-width:1px;stroke-linecap:butt;stroke-linejoin:miter;stroke-opacity:1" d="M 195.4098,404.1781 C 200.35651,401.47541 214.53147,401.86254 222.27662,402.15919 C 216.85995,403.23092 206.69051,405.75273 203.27295,409.49104 L 195.4098,404.1781 z " id="path2230" sodipodi:nodetypes="cccc"/>
          <path sodipodi:nodetypes="cccc" id="path2232" d="M 248.41626,404.49687 C 243.46955,401.79418 230.74968,401.21632 223.00453,402.04426 C 228.4212,403.11599 237.13555,406.0715 240.55311,409.80981 L 248.41626,404.49687 z " style="fill:#1f1a17;fill-opacity:1;fill-rule:evenodd;stroke:none;stroke-width:1px;stroke-linecap:butt;stroke-linejoin:miter;stroke-opacity:1"/>
        </g>
        <path sodipodi:nodetypes="cc" id="path1343" d="M 350.00961,399.94194 C 352.7298,399.65294 356.57571,399.71892 359.80792,399.94194" style="fill:none;fill-opacity:0.75;fill-rule:evenodd;stroke:#747376;stroke-width:0.6448819;stroke-linecap:butt;stroke-linejoin:miter;stroke-miterlimit:4;stroke-dasharray:none;stroke-opacity:1"/>
      </g>
    </g>
    <path sodipodi:nodetypes="ccccccc" id="path2441" d="M -459.12759,513.40318 C -444.74236,493.17184 -432.21552,472.14404 -436.6273,443.85684 C -435.56026,433.47428 -443.46818,434.06112 -450.26384,433.28852 L -450.60475,430.90212 C -443.03974,431.64568 -435.03048,431.41189 -431.85451,441.81135 C -425.09155,472.69319 -439.80212,493.57506 -454.46478,513.74409 L -459.12759,513.40318 z " style="fill:#1f1a17;fill-opacity:1;fill-rule:evenodd;stroke:#000000;stroke-width:1px;stroke-linecap:butt;stroke-linejoin:miter;stroke-opacity:1"/>
  </g>
</svg>