<?xml version="1.0" encoding="UTF-8"?>
<svg width="700pt" height="700pt" version="1.1" viewBox="0 0 700 700" xmlns="http://www.w3.org/2000/svg" xmlns:xlink="http://www.w3.org/1999/xlink">
 <defs>
  <symbol id="v" overflow="visible">
   <path d="m1.8281-0.10938c-0.09375 0.054688-0.19531 0.089844-0.29688 0.10938-0.09375 0.019531-0.19922 0.03125-0.3125 0.03125-0.33594 0-0.60156-0.085938-0.79688-0.26562-0.1875-0.1875-0.28125-0.44141-0.28125-0.76562 0-0.3125 0.09375-0.5625 0.28125-0.75 0.19531-0.1875 0.46094-0.28125 0.79688-0.28125 0.11328 0 0.21875 0.015625 0.3125 0.046875 0.10156 0.023437 0.20312 0.058594 0.29688 0.10938v0.40625c-0.09375-0.0625-0.1875-0.10938-0.28125-0.14062s-0.19531-0.046875-0.29688-0.046875c-0.17969 0-0.32031 0.0625-0.42188 0.1875-0.10547 0.11719-0.15625 0.27344-0.15625 0.46875 0 0.21094 0.050781 0.375 0.15625 0.5 0.10156 0.11719 0.24219 0.17188 0.42188 0.17188 0.10156 0 0.20312-0.015625 0.29688-0.046875s0.1875-0.078125 0.28125-0.14062z"/>
  </symbol>
  <symbol id="f" overflow="visible">
   <path d="m1.3438-1.0938c-0.042969-0.019531-0.085938-0.03125-0.125-0.03125-0.042969-0.007812-0.085938-0.015625-0.125-0.015625-0.125 0-0.22656 0.042969-0.29688 0.125-0.0625 0.074219-0.09375 0.18359-0.09375 0.32812v0.6875h-0.46875v-1.5h0.46875v0.25c0.0625-0.09375 0.12891-0.16016 0.20312-0.20312 0.082031-0.050781 0.17969-0.078125 0.29688-0.078125h0.046875c0.019531 0 0.050781 0.007812 0.09375 0.015625z"/>
  </symbol>
  <symbol id="a" overflow="visible">
   <path d="m1.7188-0.75v0.14062h-1.1094c0.007813 0.10547 0.046875 0.1875 0.10938 0.25 0.070312 0.054687 0.17188 0.078125 0.29688 0.078125 0.10156 0 0.20703-0.015625 0.3125-0.046875 0.10156-0.03125 0.21094-0.070313 0.32812-0.125v0.35938c-0.11719 0.042969-0.23047 0.074219-0.34375 0.09375-0.11719 0.019531-0.23047 0.03125-0.34375 0.03125-0.27344 0-0.48047-0.066406-0.625-0.20312-0.14844-0.13281-0.21875-0.32812-0.21875-0.57812 0-0.23828 0.070312-0.42578 0.21875-0.5625 0.14453-0.14453 0.34766-0.21875 0.60938-0.21875 0.22656 0 0.41016 0.074219 0.54688 0.21875 0.14453 0.13672 0.21875 0.32422 0.21875 0.5625zm-0.48438-0.15625c0-0.09375-0.027344-0.16406-0.078125-0.21875-0.054688-0.0625-0.125-0.09375-0.21875-0.09375-0.085938 0-0.15625 0.027344-0.21875 0.078125-0.0625 0.054687-0.10156 0.13281-0.10938 0.23438z"/>
  </symbol>
  <symbol id="e" overflow="visible">
   <path d="m0.90625-0.67188c-0.10547 0-0.18359 0.015625-0.23438 0.046875-0.054687 0.03125-0.078125 0.085938-0.078125 0.15625 0 0.0625 0.019531 0.10938 0.0625 0.14062 0.039062 0.03125 0.097656 0.046875 0.17188 0.046875 0.09375 0 0.16406-0.03125 0.21875-0.09375 0.0625-0.0625 0.09375-0.14453 0.09375-0.25v-0.046875zm0.71875-0.1875v0.85938h-0.48438v-0.21875c-0.0625 0.09375-0.13672 0.16406-0.21875 0.20312-0.074219 0.03125-0.16797 0.046875-0.28125 0.046875-0.15625 0-0.28125-0.039062-0.375-0.125-0.09375-0.09375-0.14062-0.21094-0.14062-0.35938 0-0.17578 0.054688-0.30078 0.17188-0.375 0.125-0.082031 0.3125-0.125 0.5625-0.125h0.28125v-0.046875c0-0.070312-0.03125-0.125-0.09375-0.15625-0.054687-0.039062-0.14062-0.0625-0.26562-0.0625-0.10547 0-0.20312 0.011719-0.29688 0.03125-0.085937 0.023438-0.16406 0.054688-0.23438 0.09375v-0.35938c0.10156-0.03125 0.20703-0.050781 0.3125-0.0625 0.10156-0.007813 0.20312-0.015625 0.29688-0.015625 0.26953 0 0.46094 0.054688 0.57812 0.15625 0.125 0.10547 0.1875 0.27734 0.1875 0.51562z"/>
  </symbol>
  <symbol id="d" overflow="visible">
   <path d="m0.75-1.9219v0.42188h0.5v0.34375h-0.5v0.64062c0 0.0625 0.007812 0.10938 0.03125 0.14062 0.03125 0.023438 0.085938 0.03125 0.17188 0.03125h0.25v0.34375h-0.40625c-0.1875 0-0.32422-0.035156-0.40625-0.10938-0.074219-0.082031-0.10938-0.21875-0.10938-0.40625v-0.64062h-0.25v-0.34375h0.25v-0.42188z"/>
  </symbol>
  <symbol id="k" overflow="visible">
   <path d="m1.25-1.2812v-0.79688h0.48438v2.0781h-0.48438v-0.21875c-0.074219 0.09375-0.15234 0.16406-0.23438 0.20312-0.074219 0.03125-0.16406 0.046875-0.26562 0.046875-0.17969 0-0.32812-0.070312-0.45312-0.21875-0.11719-0.14453-0.17188-0.33203-0.17188-0.5625 0-0.22656 0.054688-0.41406 0.17188-0.5625 0.125-0.14453 0.27344-0.21875 0.45312-0.21875 0.10156 0 0.19141 0.023438 0.26562 0.0625 0.082031 0.042969 0.16016 0.10547 0.23438 0.1875zm-0.3125 0.96875c0.09375 0 0.16406-0.035156 0.21875-0.10938 0.0625-0.070313 0.09375-0.17969 0.09375-0.32812 0-0.13281-0.03125-0.23828-0.09375-0.3125-0.054688-0.082031-0.125-0.125-0.21875-0.125-0.10547 0-0.18359 0.042969-0.23438 0.125-0.054687 0.074219-0.078125 0.17969-0.078125 0.3125 0 0.14844 0.023438 0.25781 0.078125 0.32812 0.050781 0.074219 0.12891 0.10938 0.23438 0.10938z"/>
  </symbol>
  <symbol id="j" overflow="visible">
   <path d="m1.0312-0.3125c0.09375 0 0.16406-0.035156 0.21875-0.10938 0.0625-0.070313 0.09375-0.17969 0.09375-0.32812 0-0.13281-0.03125-0.23828-0.09375-0.3125-0.054688-0.082031-0.125-0.125-0.21875-0.125-0.10547 0-0.1875 0.042969-0.25 0.125-0.054688 0.074219-0.078125 0.17969-0.078125 0.3125 0 0.14844 0.023437 0.25781 0.078125 0.32812 0.0625 0.074219 0.14453 0.10938 0.25 0.10938zm-0.32812-0.96875c0.070313-0.082031 0.14453-0.14453 0.21875-0.1875 0.082031-0.039062 0.17578-0.0625 0.28125-0.0625 0.1875 0 0.33594 0.074219 0.45312 0.21875 0.11328 0.14844 0.17188 0.33594 0.17188 0.5625 0 0.23047-0.058594 0.41797-0.17188 0.5625-0.11719 0.14844-0.26562 0.21875-0.45312 0.21875-0.10547 0-0.19922-0.015625-0.28125-0.046875-0.074219-0.039062-0.14844-0.10938-0.21875-0.20312v0.21875h-0.46875v-2.0781h0.46875z"/>
  </symbol>
  <symbol id="i" overflow="visible">
   <path d="m0.03125-1.5h0.48438l0.39062 1.0156 0.34375-1.0156h0.48438l-0.625 1.6406c-0.0625 0.16406-0.14062 0.28125-0.23438 0.34375-0.085938 0.070313-0.19531 0.10938-0.32812 0.10938h-0.26562v-0.3125h0.14062c0.082031 0 0.14062-0.015625 0.17188-0.046875 0.039062-0.023437 0.070312-0.070313 0.09375-0.14062l0.015625-0.03125z"/>
  </symbol>
  <symbol id="c" overflow="visible">
   <path d="m1.3906-1.4531v0.375c-0.09375-0.050781-0.19531-0.085937-0.29688-0.10938-0.09375-0.019531-0.18359-0.03125-0.26562-0.03125-0.085937 0-0.15234 0.015625-0.20312 0.046875-0.042969 0.023437-0.0625 0.054687-0.0625 0.09375 0 0.042969 0.015625 0.074219 0.046875 0.09375 0.03125 0.023437 0.09375 0.039063 0.1875 0.046875l0.078125 0.015625c0.25 0.03125 0.41406 0.085937 0.5 0.15625 0.082031 0.0625 0.125 0.17188 0.125 0.32812s-0.0625 0.27734-0.1875 0.35938c-0.11719 0.074219-0.28906 0.10938-0.51562 0.10938-0.10547 0-0.21094-0.011719-0.3125-0.03125-0.10547-0.0078125-0.21094-0.03125-0.3125-0.0625v-0.35938c0.09375 0.054687 0.1875 0.089844 0.28125 0.10938 0.10156 0.023438 0.20703 0.03125 0.3125 0.03125 0.09375 0 0.16016-0.007812 0.20312-0.03125 0.050781-0.03125 0.078125-0.070312 0.078125-0.125 0-0.039062-0.015625-0.070312-0.046875-0.09375-0.03125-0.019531-0.10156-0.035156-0.20312-0.046875l-0.078125-0.015625c-0.21875-0.019531-0.37109-0.066406-0.45312-0.14062-0.085937-0.070313-0.125-0.17969-0.125-0.32812 0-0.15625 0.050781-0.26953 0.15625-0.34375 0.11328-0.082031 0.28125-0.125 0.5-0.125 0.09375 0 0.1875 0.011719 0.28125 0.03125 0.10156 0.011719 0.20703 0.027344 0.3125 0.046875z"/>
  </symbol>
  <symbol id="b" overflow="visible">
   <path d="m1.7344-0.90625v0.90625h-0.48438v-0.6875c0-0.13281-0.007812-0.22266-0.015625-0.26562 0-0.050781-0.007813-0.09375-0.015625-0.125-0.023438-0.03125-0.046875-0.050781-0.078125-0.0625-0.03125-0.019531-0.070313-0.03125-0.10938-0.03125-0.10547 0-0.1875 0.042969-0.25 0.125-0.054688 0.074219-0.078125 0.17969-0.078125 0.3125v0.73438h-0.46875v-2.0781h0.46875v0.79688c0.070313-0.082031 0.14844-0.14453 0.23438-0.1875 0.082031-0.039062 0.17188-0.0625 0.26562-0.0625 0.17578 0 0.30469 0.054688 0.39062 0.15625 0.09375 0.10547 0.14062 0.26172 0.14062 0.46875z"/>
  </symbol>
  <symbol id="h" overflow="visible">
   <path d="m1.7344-0.90625v0.90625h-0.48438v-0.70312c0-0.125-0.007812-0.20703-0.015625-0.25 0-0.050781-0.007813-0.09375-0.015625-0.125-0.023438-0.03125-0.046875-0.050781-0.078125-0.0625-0.03125-0.019531-0.070313-0.03125-0.10938-0.03125-0.10547 0-0.1875 0.042969-0.25 0.125-0.054688 0.074219-0.078125 0.17969-0.078125 0.3125v0.73438h-0.46875v-1.5h0.46875v0.21875c0.070313-0.082031 0.14844-0.14453 0.23438-0.1875 0.082031-0.039062 0.17188-0.0625 0.26562-0.0625 0.17578 0 0.30469 0.054688 0.39062 0.15625 0.09375 0.10547 0.14062 0.26172 0.14062 0.46875z"/>
  </symbol>
  <symbol id="u" overflow="visible">
   <path d="m0.23438-2.0781h0.46875v1.125l0.54688-0.54688h0.5625l-0.73438 0.6875 0.79688 0.8125h-0.57812l-0.59375-0.625v0.625h-0.46875z"/>
  </symbol>
  <symbol id="t" overflow="visible">
   <path d="m0.23438-1.5h0.46875v1.5h-0.46875zm0-0.57812h0.46875v0.39062h-0.46875z"/>
  </symbol>
  <symbol id="s" overflow="visible">
   <path d="m1.25-0.25c-0.074219 0.085938-0.15234 0.14844-0.23438 0.1875-0.074219 0.042969-0.16406 0.0625-0.26562 0.0625-0.17969 0-0.32812-0.070312-0.45312-0.21875-0.11719-0.14453-0.17188-0.32812-0.17188-0.54688s0.054688-0.39844 0.17188-0.54688c0.125-0.14453 0.27344-0.21875 0.45312-0.21875 0.10156 0 0.19141 0.023438 0.26562 0.0625 0.082031 0.042969 0.16016 0.10547 0.23438 0.1875v-0.21875h0.48438v1.3438c0 0.23828-0.078125 0.42188-0.23438 0.54688-0.15625 0.13281-0.375 0.20312-0.65625 0.20312-0.09375 0-0.1875-0.011719-0.28125-0.03125-0.085938-0.011719-0.16797-0.03125-0.25-0.0625v-0.375c0.082031 0.050781 0.16016 0.085938 0.23438 0.10938 0.082031 0.03125 0.16406 0.046875 0.25 0.046875 0.15625 0 0.26953-0.039062 0.34375-0.10938 0.070313-0.074219 0.10938-0.17969 0.10938-0.32812zm-0.3125-0.9375c-0.10547 0-0.18359 0.039062-0.23438 0.10938-0.054687 0.074219-0.078125 0.17969-0.078125 0.3125 0 0.13672 0.023438 0.24219 0.078125 0.3125 0.050781 0.074219 0.12891 0.10938 0.23438 0.10938 0.09375 0 0.16406-0.035156 0.21875-0.10938 0.0625-0.070313 0.09375-0.17578 0.09375-0.3125 0-0.13281-0.03125-0.23828-0.09375-0.3125-0.054688-0.070313-0.125-0.10938-0.21875-0.10938z"/>
  </symbol>
  <symbol id="r" overflow="visible">
   <path d="m1.2188-2.0781v0.3125h-0.26562c-0.074219 0-0.125 0.015625-0.15625 0.046875-0.023437 0.023438-0.03125 0.0625-0.03125 0.125v0.09375h0.40625v0.34375h-0.40625v1.1562h-0.46875v-1.1562h-0.25v-0.34375h0.25v-0.09375c0-0.16406 0.039063-0.28516 0.125-0.35938 0.09375-0.082031 0.23438-0.125 0.42188-0.125z"/>
  </symbol>
  <symbol id="g" overflow="visible">
   <path d="m0.9375-1.1875c-0.10547 0-0.1875 0.039062-0.25 0.10938-0.054688 0.074219-0.078125 0.18359-0.078125 0.32812 0 0.14844 0.023437 0.26172 0.078125 0.34375 0.0625 0.074219 0.14453 0.10938 0.25 0.10938 0.10156 0 0.17969-0.035156 0.23438-0.10938 0.0625-0.082031 0.09375-0.19531 0.09375-0.34375 0-0.14453-0.03125-0.25391-0.09375-0.32812-0.054687-0.070313-0.13281-0.10938-0.23438-0.10938zm0-0.34375c0.25781 0 0.46094 0.074219 0.60938 0.21875 0.14453 0.13672 0.21875 0.32422 0.21875 0.5625 0 0.25-0.074219 0.44531-0.21875 0.57812-0.14844 0.13672-0.35156 0.20312-0.60938 0.20312-0.26172 0-0.46484-0.066406-0.60938-0.20312-0.13672-0.13281-0.20312-0.32812-0.20312-0.57812 0-0.23828 0.066406-0.42578 0.20312-0.5625 0.14453-0.14453 0.34766-0.21875 0.60938-0.21875z"/>
  </symbol>
  <symbol id="q" overflow="visible">
   <path d="m1.6094-1.25c0.0625-0.09375 0.13281-0.16016 0.21875-0.20312 0.082031-0.050781 0.17578-0.078125 0.28125-0.078125 0.16406 0 0.29688 0.054688 0.39062 0.15625 0.09375 0.10547 0.14062 0.26172 0.14062 0.46875v0.90625h-0.48438v-0.78125-0.03125-0.0625c0-0.10156-0.015625-0.17578-0.046875-0.21875-0.03125-0.050781-0.085937-0.078125-0.15625-0.078125-0.085937 0-0.15234 0.039063-0.20312 0.10938-0.054688 0.074219-0.078125 0.18359-0.078125 0.32812v0.73438h-0.48438v-0.78125c0-0.16406-0.015625-0.26953-0.046875-0.3125-0.023437-0.050781-0.070313-0.078125-0.14062-0.078125-0.09375 0-0.16797 0.042969-0.21875 0.125-0.054688 0.074219-0.078125 0.17969-0.078125 0.3125v0.73438h-0.46875v-1.5h0.46875v0.21875c0.0625-0.082031 0.12891-0.14453 0.20312-0.1875 0.082031-0.039062 0.16406-0.0625 0.25-0.0625 0.10156 0 0.19141 0.027344 0.26562 0.078125 0.082031 0.054687 0.14453 0.12109 0.1875 0.20312z"/>
  </symbol>
  <symbol id="p" overflow="visible">
   <path d="m0.25-2h0.57812l0.71875 1.375v-1.375h0.48438v2h-0.5625l-0.73438-1.375v1.375h-0.48438z"/>
  </symbol>
  <symbol id="o" overflow="visible">
   <path d="m0.21875-0.57812v-0.92188h0.46875v0.15625 0.3125 0.23438 0.26562c0.007812 0.054688 0.023438 0.089844 0.046875 0.10938 0.019531 0.03125 0.046875 0.058594 0.078125 0.078125 0.03125 0.011719 0.066406 0.015625 0.10938 0.015625 0.09375 0 0.16406-0.035156 0.21875-0.10938 0.0625-0.070312 0.09375-0.17578 0.09375-0.3125v-0.75h0.48438v1.5h-0.48438v-0.21875c-0.074219 0.09375-0.15234 0.16406-0.23438 0.20312-0.074219 0.03125-0.15625 0.046875-0.25 0.046875-0.17969 0-0.3125-0.050781-0.40625-0.15625-0.085938-0.10156-0.125-0.25391-0.125-0.45312z"/>
  </symbol>
  <symbol id="n" overflow="visible">
   <path d="m0.25-2h0.85938c0.25 0 0.44141 0.058594 0.57812 0.17188 0.13281 0.11719 0.20312 0.27734 0.20312 0.48438 0 0.21094-0.070313 0.37109-0.20312 0.48438-0.13672 0.11719-0.32812 0.17188-0.57812 0.17188h-0.34375v0.6875h-0.51562zm0.51562 0.375v0.5625h0.28125c0.10156 0 0.17969-0.019531 0.23438-0.0625 0.050781-0.050781 0.078125-0.125 0.078125-0.21875s-0.027344-0.16016-0.078125-0.20312c-0.054688-0.050781-0.13281-0.078125-0.23438-0.078125z"/>
  </symbol>
  <symbol id="m" overflow="visible">
   <path d="m0.23438-1.5h0.46875v1.4688c0 0.20703-0.046875 0.36328-0.14062 0.46875-0.09375 0.10156-0.23438 0.15625-0.42188 0.15625h-0.23438v-0.3125h0.078125c0.09375 0 0.15625-0.023438 0.1875-0.0625 0.039063-0.042969 0.0625-0.125 0.0625-0.25zm0-0.57812h0.46875v0.39062h-0.46875z"/>
  </symbol>
  <symbol id="l" overflow="visible">
   <path d="m1.4375-1.4531v0.39062c-0.0625-0.039062-0.13281-0.070312-0.20312-0.09375-0.0625-0.019531-0.13281-0.03125-0.20312-0.03125-0.125 0-0.23047 0.042969-0.3125 0.125-0.074219 0.074219-0.10938 0.17969-0.10938 0.3125 0 0.14844 0.035156 0.26172 0.10938 0.34375 0.082031 0.074219 0.1875 0.10938 0.3125 0.10938 0.082031 0 0.15625-0.007813 0.21875-0.03125 0.070312-0.03125 0.13281-0.066406 0.1875-0.10938v0.39062c-0.074219 0.03125-0.15234 0.050781-0.23438 0.0625-0.074219 0.0078125-0.14844 0.015625-0.21875 0.015625-0.27344 0-0.48438-0.066406-0.64062-0.20312-0.14844-0.13281-0.21875-0.32812-0.21875-0.57812 0-0.23828 0.070312-0.42578 0.21875-0.5625 0.15625-0.14453 0.36719-0.21875 0.64062-0.21875 0.070313 0 0.14453 0.011719 0.21875 0.03125 0.082031 0.011719 0.16016 0.027344 0.23438 0.046875z"/>
  </symbol>
 </defs>
 <g>
  <path d="m453.96 476.16c0 1.6406 0 3.2812-0.10938 4.9219-0.10937 1.1484-0.875 2.4062 0.054688 0.054687-0.16406 0.38281-0.16406 1.0391-0.27344 1.4766-0.27344 1.4219-0.65625 2.8438-1.1484 4.2656-0.16406 0.54688-0.49219 1.1484-0.60156 1.6953-0.32812 1.4766 1.2031-2.4062 0.10938-0.27344-0.54688 1.0938-1.0391 2.1328-1.6406 3.1719-0.60156 1.0391-1.2578 2.0234-1.9688 3.0078-1.3125 1.9688 1.3125-1.2578 0.16406-0.21875-0.60156 0.54688-1.0938 1.2578-1.6406 1.8594-0.82031 0.875-1.6953 1.6953-2.5703 2.4609 0.054687-0.054688-1.0391 0.92969-1.0938 0.92969 0.38281-0.27344 0.71094-0.54688 1.0938-0.82031-0.38281 0.27344-0.76563 0.54688-1.1484 0.82031-0.98438 0.65625-1.9688 1.3125-3.0078 1.9141-0.4375 0.21875-0.82031 0.4375-1.2578 0.65625-0.49219 0.21875-2.9531 0.92969-1.3125 0.65625 1.6953-0.32813-0.38281 0.10937-0.71094 0.21875-0.54688 0.21875-1.1484 0.38281-1.75 0.54687-1.1484 0.32813-2.3516 0.65625-3.5547 0.875-1.9141 0.38281-0.21875 0.65625 0.32812 0-0.21875 0.21875-1.5312 0.16406-1.8594 0.16406-0.875 0.054687-1.75 0.10938-2.6797 0.10938-3.5 0.054688-7 0-10.5 0h-65.188-88.812-70.273-14.984-0.76562c-0.76562 0-1.5312 0-2.2969-0.054688-0.32812 0-2.0234 0.054688-2.2422-0.21875 0.21875 0.21875 2.2969 0.4375 0.71094 0.054688-1.2031-0.27344-2.4062-0.49219-3.5547-0.82031-0.71094-0.21875-1.4219-0.4375-2.0781-0.65625-0.32813-0.10938-0.65625-0.21875-1.0391-0.38281-0.76562-0.27344-0.4375-0.16406 0.92969 0.4375-0.4375 0.21875-2.6797-1.3125-3.2266-1.5859-1.0391-0.60156-2.0234-1.2031-3.0078-1.9141-0.4375-0.32812-1.5312-1.6406-0.60156-0.4375 0.98438 1.3125-0.21875-0.21875-0.54688-0.49219-1.0938-0.92969-2.0781-1.9141-3.0625-3.0078-0.32812-0.32812-0.60156-0.71094-0.92969-1.0938-1.6953-1.8047 1.3672 2.0234-0.054687-0.054687-0.65625-0.98438-1.3672-1.9688-1.9688-3.0078s-1.1484-2.0781-1.6406-3.1719c-0.92969-1.9141 0.27344 0.60156 0.27344 0.60156-0.27344-0.054687-0.875-2.4609-0.98438-2.7344-0.32812-1.0391-0.60156-2.1328-0.82031-3.1719-0.054688-0.21875-0.4375-1.75-0.32812-1.8047-0.16406 0.10938 0.27344 2.625 0.054687 0.32812-0.16406-1.75-0.16406-3.5547-0.16406-5.3047-3.6641 3.6641-7.2734 7.2734-10.938 10.938h32.594 77.711 93.898 81.156c13.18 0 26.414 0.27344 39.648 0h0.54688c5.7422 0 11.211-5.0312 10.938-10.938-0.27344-5.9062-4.8125-10.938-10.938-10.938h-32.594-77.711-93.898-81.156c-13.18 0-26.414-0.27344-39.648 0h-0.54688c-5.9062 0-10.938 5.0312-10.938 10.938 0 12.141 3.5 23.188 11.102 32.703 7.9297 9.8984 19.578 15.75 32.047 17.281 4.7031 0.60156 9.4609 0.38281 14.219 0.38281h65.242 91.383 70.984c4.5391 0 9.1328 0.054688 13.672 0 21.547-0.16406 40.906-14.383 46.867-35.219 1.4219-4.9219 1.8047-10.062 1.8047-15.148 0-5.7422-5.0312-11.211-10.938-10.938-5.8516 0.27344-10.828 4.8125-10.828 10.938z"/>
  <path d="m483.16 448.22c0 0.76562-0.054687 1.5312-0.10937 2.2969-0.054688 2.5703 0.60156-2.4062 0 0.054687-0.32813 1.4219-0.71094 2.8438-1.1484 4.2656-0.71094 2.4062 1.1484-2.1328-0.054688 0.054687-0.32812 0.65625-0.65625 1.2578-1.0391 1.9141-0.38281 0.60156-0.76562 1.2031-1.1484 1.8047-0.71094 0.92969-0.54687 0.76562 0.4375-0.49219-0.32812 0.38281-0.60156 0.71094-0.92969 1.0938-0.38281 0.38281-2.5703 3.1172-3.1172 2.9531 0.38281-0.27344 0.71094-0.54687 1.0938-0.82031-0.38281 0.27344-0.76563 0.54688-1.2031 0.82031-0.60156 0.38281-1.2031 0.76563-1.8594 1.0938-0.21875 0.10938-1.75 1.0938-1.9141 0.98438 0.4375-0.16406 0.875-0.38281 1.2578-0.54688-0.4375 0.16406-0.92969 0.32813-1.3672 0.49219s-4.0469 1.4219-4.3203 1.0391c0.49219-0.054687 0.92969-0.10937 1.4219-0.16406-0.49219 0.054688-0.98437 0.10938-1.5312 0.10938-0.65625 0.054687-0.875 0.054687-1.5312 0.054687h-0.054687-0.4375-1.8047-19.633-82.141-105.38-87.938-24.719-5.3047c-0.71094 0-1.4219 0-2.1875-0.054687-0.27344 0-0.49219-0.054687-0.76562-0.054687-1.2031-0.10938-0.98438-0.10938 0.65625 0.10937-0.10938 0.16406-1.9688-0.38281-2.1875-0.4375-0.71094-0.16406-1.4219-0.38281-2.1328-0.60156-0.21875-0.054688-0.4375-0.16406-0.71094-0.21875-1.0938-0.4375-0.92969-0.32812 0.60156 0.27344-0.4375 0.27344-3.3359-1.8047-3.7734-2.0781-0.21875-0.10937-0.38281-0.27344-0.60156-0.38281-0.92969-0.71094-0.76563-0.54688 0.49219 0.4375-0.27344 0.054688-1.3672-1.1484-1.5859-1.4219-0.49219-0.49219-1.0391-0.98438-1.4766-1.5312-0.16406-0.16406-0.32812-0.38281-0.49219-0.54688-0.76563-0.92969-0.60156-0.71094 0.38281 0.54688-0.54688 0-2.0234-3.1719-2.2969-3.6641l-0.32812-0.65625c-0.49219-1.0938-0.4375-0.875 0.21875 0.60156-0.21875-0.054687-0.65625-1.8047-0.71094-2.0781-0.21875-0.71094-0.38281-1.4219-0.54687-2.1328-0.10938-0.49219-0.21875-0.98438-0.27344-1.4766 0.21875 1.6953 0.21875 1.9141 0.10938 0.65625-0.054687-1.3672-0.54688-3.6641 0.054687-4.9219-0.054687 0.38281-0.10937 0.76562-0.16406 1.2031 0.10938-0.54688 0.21875-1.1484 0.32812-1.6953 0.16406-0.82031 0.38281-1.6406 0.65625-2.4609 0.21875-0.60156 0.60156-3.0625 0.10938-0.54688 0.10938-0.71094 0.76562-1.5859 1.1484-2.2422 0.4375-0.71094 0.875-1.4219 1.3125-2.0781 1.4219-2.1875-1.4766 1.4766 0.32812-0.38281 0.60156-0.60156 1.1484-1.2031 1.75-1.75 0.32813-0.32812 2.3516-2.2969 0.32813-0.4375 1.2031-1.0938 2.8438-1.8047 4.2656-2.625 2.3516-1.3125-2.1328 0.54688 0.49219-0.21875 0.82031-0.21875 1.5859-0.54688 2.4062-0.71094 0.76562-0.21875 1.6953-0.49219 2.5156-0.49219-3.0078 0.054688 0.875 0.054688 1.4766 0.054688h0.71094 15.75 77.492 104.84 91.602 28.109 7.3828 1.8047 0.32812 0.054688c0.76562 0 1.5312 0.054687 2.2969 0.10937 2.5156 0.10938-2.3516-0.54687 0.054687 0 1.4219 0.32813 2.8438 0.71094 4.2656 1.1484 2.4062 0.71094-2.1328-1.1484 0.054687 0.054688 0.65625 0.32812 1.2578 0.65625 1.9141 1.0391 0.60156 0.38281 1.2031 0.76562 1.8047 1.1484 2.0781 1.3125-1.75-1.6406 0.054687 0.054687 1.0391 0.98438 2.0234 1.9688 3.0078 3.0078 1.6953 1.8047-1.2578-2.0234 0.054687 0.054687 0.38281 0.60156 0.82031 1.2031 1.1484 1.8047 0.38281 0.60156 0.65625 1.2578 1.0391 1.9141 1.2031 2.1875-0.71094-2.2969 0.054688 0.054687 0.4375 1.4219 0.82031 2.8438 1.1484 4.2656 0.60156 2.4609-0.054688-2.5156 0 0.054687 0.054687 0.76562 0.10937 1.5312 0.10937 2.2969 0.054688 5.7422 4.9766 11.211 10.938 10.938 5.8516-0.27344 11.047-4.8125 10.938-10.938-0.21875-16.352-10.117-30.188-25.102-36.312-4.8125-1.9688-10.008-2.5703-15.203-2.5703h-18.375-35.602-47.359-53.594-54.086-49.656-39.484-23.844-4.3203c-13.562 0.10937-26.031 7-33.25 18.43-9.2422 14.602-6.8906 33.523 4.1016 46.375 7.2188 8.4219 18.266 12.906 29.203 12.961 4.7578 0.054688 9.5703 0 14.328 0h32.648 45.227 52.773 54.633 50.805 42.055 27.508c8.5859 0 16.461-0.16406 24.609-3.8281 13.562-6.125 21.984-20.398 22.148-35.055 0.054687-5.7422-5.0859-11.211-10.938-10.938-6.125 0.27344-10.992 4.8125-11.102 10.938z"/>
  <path d="m464.84 409.28h-32.594-77.711-93.898-81.156c-13.18 0-26.469-0.49219-39.648 0h-0.54688c3.6641 3.6641 7.2734 7.2734 10.938 10.938 0.054688-2.2969 0.16406-4.5938 0.38281-6.8359 0.054687-0.60156 0.16406-1.2578 0.21875-1.8594 0.16406-1.6406-0.4375 2.7891-0.054687 0.27344 0.21875-1.2578 0.38281-2.4609 0.65625-3.6641 0.875-4.5938 2.1328-9.0781 3.7734-13.453 0.21875-0.54688 0.4375-1.1484 0.65625-1.6953 0.54688-1.4766-0.27344-1.1484-0.10938 0.27344-0.054688-0.71094 0.875-1.9688 1.2031-2.625 1.0391-2.1875 2.1328-4.3203 3.3906-6.3984 1.0938-1.8594 2.2422-3.6641 3.4453-5.4688 0.32813-0.49219 1.5312-2.7344 2.0781-2.8984-0.10938 0.054687-1.6406 2.0781-0.38281 0.49219 0.4375-0.54688 0.875-1.0938 1.3672-1.6406 2.8984-3.5 6.0703-6.7266 9.5156-9.6797 0.82031-0.71094 1.6406-1.3672 2.4609-2.0781 0.10938-0.054688 0.16406-0.16406 0.27344-0.21875 0.92969-0.71094 0.76563-0.60156-0.49219 0.38281 0.10938-0.21875 1.0391-0.76562 1.1484-0.875 1.9141-1.4219 3.9375-2.7344 5.9609-3.9922 1.8594-1.1484 3.7188-2.1875 5.6875-3.1719 0.98438-0.49219 1.9688-0.98438 2.9531-1.4219 0.32812-0.16406 1.3672-0.82031 1.6406-0.76562-0.4375 0.16406-0.875 0.32812-1.2578 0.54687 0.4375-0.16406 0.875-0.38281 1.3672-0.54687 4.3203-1.6953 8.8047-3.0625 13.344-4.0469 0.98438-0.21875 1.9688-0.38281 2.8984-0.60156 0.60156-0.10938 1.2031-0.21875 1.8594-0.32812 0.10937 0 0.27344-0.054687 0.38281-0.054687 1.2031-0.16406 0.98438-0.16406-0.65625 0.10937 0.65625-0.4375 2.2422-0.27344 3.0078-0.32812 1.3672-0.10938 2.7891-0.21875 4.1562-0.27344 1.3125-0.054688 2.6797-0.054688 3.9922-0.054688h5.9609 27.125 79.133c15.367 0 30.898-0.60156 46.266 0.10938 2.2969 0.10937 4.5391 0.49219 6.7812 0.54687-3.1719-0.10937 0.27344 0.054688 1.1484 0.21875 1.3672 0.21875 2.6797 0.49219 3.9922 0.82031 4.5391 1.0391 8.9688 2.4609 13.289 4.1562 1.4219 0.54688 0-0.38281-0.60156-0.27344 0.16406-0.054688 1.0938 0.49219 1.3125 0.60156 1.0938 0.49219 2.1875 1.0391 3.2812 1.5859 2.1328 1.0938 4.2109 2.2969 6.2891 3.5547 1.8047 1.1484 3.6094 2.3516 5.3594 3.6094 0.27344 0.16406 1.0391 0.65625 1.1484 0.875-0.4375-0.875-1.5312-1.2578-0.49219-0.38281 1.0938 0.92969 2.2422 1.8047 3.2812 2.7891 3.2812 2.9531 6.3984 6.125 9.1875 9.5156 0.38281 0.4375 0.76562 0.92969 1.1484 1.3672 0.92969 1.1484 0.21875-0.27344-0.38281-0.49219 0.65625 0.21875 1.75 2.4062 2.0781 2.8984 1.3125 1.8594 2.5156 3.8281 3.6641 5.7969 1.0938 1.8594 2.0781 3.7734 3.0078 5.7422 0.27344 0.60156 1.4219 2.2422 1.3672 2.9531 0.10938-0.875-0.76562-1.9141-0.27344-0.60156 0.32813 0.82031 0.60156 1.5859 0.92969 2.4062 1.5859 4.2656 2.7891 8.6406 3.6641 13.125 0.21875 1.2031 0.4375 2.4609 0.65625 3.6641 0.32813 2.0781 0-0.60156-0.10937-0.65625 0.21875 0.27344 0.16406 1.4766 0.21875 1.8594 0.21875 2.4062 0.38281 4.8125 0.4375 7.2188 0.10937 5.7422 4.9766 11.211 10.938 10.938 5.8516-0.27344 11.047-4.8125 10.938-10.938-0.4375-21.547-7.875-41.891-21.164-58.844-12.414-15.805-30.297-27.398-49.711-32.648-10.008-2.7344-20.289-3.3359-30.57-3.3359h-27.125-81.266-31.445c-6.3984 0-12.797-0.21875-19.141 0.49219-21.219 2.2422-40.906 10.938-56.602 25.539-14.711 13.672-25.211 32.539-28.711 52.391-0.92969 5.4141-1.5859 10.938-1.6953 16.461-0.10938 5.9062 5.0859 10.938 10.938 10.938h32.594 77.711 93.898 81.156c13.18 0 26.414 0.27344 39.648 0h0.54688c5.7422 0 11.211-5.0312 10.938-10.938-0.27344-6.0703-4.8125-11.102-10.992-11.102z"/>
  <path d="m578.54 120.86v10.609 28.656 42.383 51.953 56.656 57.477 53.32 45.062 32.594c0 5.1406-0.16406 10.281 0 15.367v0.65625c3.6641-3.6641 7.2734-7.2734 10.938-10.938h-54.961-87.008-20.125v21.875c13.398-0.10938 26.742-5.6875 35.711-15.75 8.6953-9.7344 12.742-21.656 12.742-34.617l-10.938 10.938c16.953 0 31.445-9.625 37.734-25.43 6.5078-16.406-0.16406-34.781-13.836-45.062-6.8906-5.1953-15.367-7.3281-23.898-7.3281 3.6641 3.6641 7.2734 7.2734 10.938 10.938-0.49219-26.141-11.539-51.625-30.898-69.344-18.156-16.57-41.672-25.484-66.227-25.539h-21.875l10.938 10.938v-21.383-51.406-62.234-53.812c0-8.6953 0.38281-17.5 0-26.25v-0.38281c-3.6641 3.6641-7.2734 7.2734-10.938 10.938h23.242 55.508 67.102 58.242c9.4062 0 18.812 0.27344 28.219 0h0.38281c5.7422 0 11.211-5.0312 10.938-10.938s-4.8125-10.938-10.938-10.938h-23.242-55.508-67.102-58.242c-9.4062 0-18.812-0.27344-28.219 0h-0.38281c-5.9062 0-10.938 5.0312-10.938 10.938v21.383 51.406 62.234 53.812c0 8.75-0.21875 17.5 0 26.25v0.38281c0 5.9062 5.0312 10.938 10.938 10.938h19.195c3.0078 0 6.0156 0 9.0234 0.16406 1.2578 0.054688 2.5156 0.16406 3.7734 0.32812 0.27344 0.054687 0.49219 0.054687 0.76562 0.10938 1.2031 0.16406 0.98438 0.10938-0.65625-0.10938 0.49219-0.16406 1.6953 0.27344 2.2422 0.32812 2.8984 0.49219 5.8516 1.1484 8.6953 1.9688 2.5703 0.71094 5.1406 1.5859 7.6562 2.5156 0.60156 0.21875 1.5312 0.4375 2.0234 0.82031-2.0781-1.5312-0.82031-0.32813 0.054687 0.054687 1.3125 0.60156 2.625 1.2578 3.8828 1.9141 2.3516 1.2031 4.6484 2.5703 6.8359 3.9922 1.2031 0.76562 2.4062 1.5859 3.5547 2.4062 0.38281 0.27344 1.4766 0.82031 1.75 1.2578-1.1484-0.92969-1.4219-1.0938-0.82031-0.60156 0.27344 0.21875 0.54688 0.4375 0.82031 0.65625 4.375 3.5547 8.3672 7.4922 11.922 11.812 0.38281 0.4375 0.76562 0.92969 1.1484 1.3672 1.5859 1.9688-1.4219-1.9688 0.054687 0.054688 0.82031 1.1484 1.6953 2.3516 2.4609 3.5 1.5859 2.4062 3.0625 4.8672 4.4297 7.4375 0.65625 1.2578 1.3125 2.5703 1.9141 3.8828 0.21875 0.4375 0.92969 1.5312 0.875 1.9688-0.60156-1.4766-0.71094-1.6953-0.27344-0.60156 0.16406 0.4375 0.38281 0.92969 0.54688 1.3672 1.1484 2.9531 2.0781 6.0156 2.8984 9.0781 0.76562 3.0078 1.3672 6.0703 1.8047 9.1328 0.27344 1.6406-0.27344-2.8438-0.054687-0.27344 0.10938 0.98437 0.21875 2.0234 0.27344 3.0078 0.16406 1.8047 0.21875 3.5547 0.21875 5.3594 0.10938 5.9062 4.9219 10.938 10.938 10.938 0.76563 0 4.0469-0.32812 4.3203 0.16406-0.49219-0.054688-0.92969-0.10938-1.4219-0.16406 0.49219 0.054687 0.98438 0.16406 1.4766 0.27344 0.98438 0.21875 1.9141 0.49219 2.8438 0.76563 2.4609 0.82031 0.38281-0.21875 0.10938-0.054688 0.21875-0.16406 2.2969 1.1484 2.5703 1.3125s2.4062 1.2578 2.4062 1.5859c0-0.38281-1.8594-1.5859 0 0.10937 0.71094 0.65625 1.3672 1.3125 2.0234 2.0234 1.6953 1.8594 0.49219 0 0.10937 0 0.38281 0 3.1172 4.7031 2.8984 4.9766 0.21875-0.27344-0.875-2.4062-0.054688 0.10938 0.32813 0.92969 0.54688 1.8594 0.76563 2.8438 0.10937 0.49219 0.21875 0.98437 0.27344 1.4766-0.054687-0.49219-0.10938-0.92969-0.16406-1.4219 0.32813 0.16406 0.16406 2.6797 0.16406 3.0625 0 0.875-0.10938 1.8047-0.10938 2.6797-0.10938 0.875-0.054688 0.49219 0.16406-1.0391-0.054687 0.49219-0.16406 0.98438-0.27344 1.4766-0.21875 0.98438-0.49219 1.9141-0.76562 2.8438-0.10938 0.32813-0.21875 0.71094-0.38281 1.0391-0.27344 0.76562-0.16406 0.4375 0.38281-0.92969 0.38281 0.60156-2.3516 4.0469-2.6797 4.6484-0.49219 0.65625-0.27344 0.38281 0.60156-0.76562-0.32812 0.38281-0.60156 0.71094-0.92969 1.0938-0.65625 0.71094-1.3125 1.3672-2.0234 2.0234-0.27344 0.21875-0.54688 0.49219-0.82031 0.71094-0.60156 0.49219-0.38281 0.32812 0.82031-0.60156 0 0.32813-2.0781 1.3672-2.4062 1.5859-0.71094 0.4375-1.5859 0.71094-2.2422 1.1484-0.76562 0.32812-0.4375 0.21875 0.92969-0.38281-0.4375 0.16406-0.92969 0.32812-1.3672 0.49219-0.92969 0.32813-1.8594 0.54688-2.8438 0.76563-0.38281 0.054687-0.71094 0.16406-1.0938 0.21875-0.82031 0.16406-0.49219 0.10937 1.0391-0.10938-0.38281 0.54688-3.5 0.16406-4.3203 0.16406-5.9062 0-10.938 5.0312-10.938 10.938 0 1.6406 0 3.2812-0.10937 4.9219-0.054688 0.38281-0.054688 0.76562-0.10938 1.1484-0.10937 0.875-0.054687 0.49219 0.16406-1.0391-0.16406 0.4375-0.16406 1.0391-0.27344 1.4766-0.21875 1.2031-0.54688 2.4062-0.875 3.5547-0.21875 0.71094-0.49219 1.3672-0.71094 2.0781-0.54688 1.6406 0.32812-0.54688 0.27344-0.60156 0.21875 0.38281-1.3672 2.7891-1.5859 3.2266-0.60156 1.0391-1.2031 2.0234-1.9141 3.0078-0.21875 0.27344-0.38281 0.60156-0.60156 0.875-0.49219 0.65625-0.27344 0.38281 0.60156-0.82031 0.054687 0.16406-1.0391 1.2578-1.1484 1.3672-0.76562 0.875-1.6406 1.75-2.5156 2.5156-0.4375 0.38281-0.875 0.76563-1.3125 1.2031-1.4219 1.3125 1.3672-0.82031 0.27344-0.16406-2.0781 1.2578-3.9922 2.5703-6.125 3.6641-1.8047 0.875 0.27344 0.10937 0.27344-0.10938-0.054688 0.16406-1.5312 0.54688-1.6953 0.60156-1.1484 0.38281-2.3516 0.71094-3.5 0.98438-0.60156 0.16406-1.2031 0.21875-1.8047 0.38281-2.0234 0.4375 1.6953-0.10937 0.32812 0-1.3672 0.10938-2.7344 0.21875-4.1562 0.21875-5.7422 0.054688-11.211 4.9766-10.938 10.938 0.27344 5.9062 4.8125 10.938 10.938 10.938h54.961 87.008 20.125c5.9062 0 10.938-5.0312 10.938-10.938v-10.609-28.656-42.383-51.953-56.656-57.477-53.32-45.062-32.594c0-5.1406 0.10938-10.227 0-15.367v-0.65625c0-5.7422-5.0312-11.211-10.938-10.938-5.9062 0.32812-10.883 4.8672-10.883 10.992z"/>
  <path d="m578.54 231.44v28.328 68.031 81.977 70.82c0 11.484-0.49219 23.023 0 34.508v0.49219c3.6641-3.6641 7.2734-7.2734 10.938-10.938h-54.961-87.008-20.125v21.875c13.398-0.10938 26.742-5.6875 35.711-15.75 8.6953-9.7344 12.742-21.656 12.742-34.617l-10.938 10.938c16.953 0 31.445-9.625 37.734-25.43 6.5078-16.406-0.16406-34.781-13.836-45.062-6.8906-5.1953-15.367-7.3281-23.898-7.3281 3.6641 3.6641 7.2734 7.2734 10.938 10.938-0.49219-26.141-11.539-51.625-30.898-69.344-18.156-16.57-41.672-25.484-66.227-25.539h-21.875l10.938 10.938v-35.492-56.328-13.07l-10.938 10.938h23.242 55.508 67.102 58.242c9.4062 0 18.812 0.27344 28.219 0h0.38281c5.7422 0 11.211-5.0312 10.938-10.938s-4.8125-10.938-10.938-10.938h-23.242-55.508-67.102-58.242c-9.4062 0-18.812-0.27344-28.219 0h-0.38281c-5.9062 0-10.938 5.0312-10.938 10.938v35.492 56.328 13.07c0 5.9062 5.0312 10.938 10.938 10.938h19.195c3.0078 0 6.0156 0 9.0234 0.16406 1.2578 0.054688 2.5156 0.16406 3.7734 0.32812 0.27344 0.054687 0.49219 0.054687 0.76562 0.10938 1.2031 0.16406 0.98438 0.10938-0.65625-0.10938 0.49219-0.16406 1.6953 0.27344 2.2422 0.32812 2.8984 0.49219 5.8516 1.1484 8.6953 1.9688 2.5703 0.71094 5.1406 1.5859 7.6562 2.5156 0.60156 0.21875 1.5312 0.4375 2.0234 0.82031-2.0781-1.5312-0.82031-0.32813 0.054687 0.054687 1.3125 0.60156 2.625 1.2578 3.8828 1.9141 2.3516 1.2031 4.6484 2.5703 6.8359 3.9922 1.2031 0.76562 2.4062 1.5859 3.5547 2.4062 0.38281 0.27344 1.4766 0.82031 1.75 1.2578-1.1484-0.92969-1.4219-1.0938-0.82031-0.60156 0.27344 0.21875 0.54688 0.4375 0.82031 0.65625 4.375 3.5547 8.3672 7.4922 11.922 11.812 0.38281 0.4375 0.76562 0.92969 1.1484 1.3672 1.5859 1.9688-1.4219-1.9688 0.054687 0.054688 0.82031 1.1484 1.6953 2.3516 2.4609 3.5 1.5859 2.4062 3.0625 4.8672 4.4297 7.4375 0.65625 1.2578 1.3125 2.5703 1.9141 3.8828 0.21875 0.4375 0.92969 1.5312 0.875 1.9688-0.60156-1.4766-0.71094-1.6953-0.27344-0.60156 0.16406 0.4375 0.38281 0.92969 0.54688 1.3672 1.1484 2.9531 2.0781 6.0156 2.8984 9.0781 0.76562 3.0078 1.3672 6.0703 1.8047 9.1328 0.27344 1.6406-0.27344-2.8438-0.054687-0.27344 0.10938 0.98437 0.21875 2.0234 0.27344 3.0078 0.16406 1.8047 0.21875 3.5547 0.21875 5.3594 0.10938 5.9062 4.9219 10.938 10.938 10.938 0.76563 0 4.0469-0.32812 4.3203 0.16406-0.49219-0.054688-0.92969-0.10938-1.4219-0.16406 0.49219 0.054687 0.98438 0.16406 1.4766 0.27344 0.98438 0.21875 1.9141 0.49219 2.8438 0.76563 2.4609 0.82031 0.38281-0.21875 0.10938-0.054688 0.21875-0.16406 2.2969 1.1484 2.5703 1.3125s2.4062 1.2578 2.4062 1.5859c0-0.38281-1.8594-1.5859 0 0.10937 0.71094 0.65625 1.3672 1.3125 2.0234 2.0234 1.6953 1.8594 0.49219 0 0.10937 0 0.38281 0 3.1172 4.7031 2.8984 4.9766 0.21875-0.27344-0.875-2.4062-0.054688 0.10938 0.32813 0.92969 0.54688 1.8594 0.76563 2.8438 0.10937 0.49219 0.21875 0.98437 0.27344 1.4766-0.054687-0.49219-0.10938-0.92969-0.16406-1.4219 0.32813 0.16406 0.16406 2.6797 0.16406 3.0625 0 0.875-0.10938 1.8047-0.10938 2.6797-0.10938 0.875-0.054688 0.49219 0.16406-1.0391-0.054687 0.49219-0.16406 0.98438-0.27344 1.4766-0.21875 0.98438-0.49219 1.9141-0.76562 2.8438-0.10938 0.32813-0.21875 0.71094-0.38281 1.0391-0.27344 0.76562-0.16406 0.4375 0.38281-0.92969 0.38281 0.60156-2.3516 4.0469-2.6797 4.6484-0.49219 0.65625-0.27344 0.38281 0.60156-0.76562-0.32812 0.38281-0.60156 0.71094-0.92969 1.0938-0.65625 0.71094-1.3125 1.3672-2.0234 2.0234-0.27344 0.21875-0.54688 0.49219-0.82031 0.71094-0.60156 0.49219-0.38281 0.32812 0.82031-0.60156 0 0.32813-2.0781 1.3672-2.4062 1.5859-0.71094 0.4375-1.5859 0.71094-2.2422 1.1484-0.76562 0.32812-0.4375 0.21875 0.92969-0.38281-0.4375 0.16406-0.92969 0.32812-1.3672 0.49219-0.92969 0.32813-1.8594 0.54688-2.8438 0.76563-0.38281 0.054687-0.71094 0.16406-1.0938 0.21875-0.82031 0.16406-0.49219 0.10937 1.0391-0.10938-0.38281 0.54688-3.5 0.16406-4.3203 0.16406-5.9062 0-10.938 5.0312-10.938 10.938 0 1.6406 0 3.2812-0.10937 4.9219-0.054688 0.38281-0.054688 0.76562-0.10938 1.1484-0.10937 0.875-0.054687 0.49219 0.16406-1.0391-0.16406 0.4375-0.16406 1.0391-0.27344 1.4766-0.21875 1.2031-0.54688 2.4062-0.875 3.5547-0.21875 0.71094-0.49219 1.3672-0.71094 2.0781-0.54688 1.6406 0.32812-0.54688 0.27344-0.60156 0.21875 0.38281-1.3672 2.7891-1.5859 3.2266-0.60156 1.0391-1.2031 2.0234-1.9141 3.0078-0.21875 0.27344-0.38281 0.60156-0.60156 0.875-0.49219 0.65625-0.27344 0.38281 0.60156-0.82031 0.054687 0.16406-1.0391 1.2578-1.1484 1.3672-0.76562 0.875-1.6406 1.75-2.5156 2.5156-0.4375 0.38281-0.875 0.76563-1.3125 1.2031-1.4219 1.3125 1.3672-0.82031 0.27344-0.16406-2.0781 1.2578-3.9922 2.5703-6.125 3.6641-1.8047 0.875 0.27344 0.10937 0.27344-0.10938-0.054688 0.16406-1.5312 0.54688-1.6953 0.60156-1.1484 0.38281-2.3516 0.71094-3.5 0.98438-0.60156 0.16406-1.2031 0.21875-1.8047 0.38281-2.0234 0.4375 1.6953-0.10937 0.32812 0-1.3672 0.10938-2.7344 0.21875-4.1562 0.21875-5.7422 0.054688-11.211 4.9766-10.938 10.938 0.27344 5.9062 4.8125 10.938 10.938 10.938h54.961 87.008 20.125c5.9062 0 10.938-5.0312 10.938-10.938v-28.328-68.031-81.977-70.82c0-11.484 0.27344-23.023 0-34.508v-0.49219c0-5.7422-5.0312-11.211-10.938-10.938-5.9062 0.32813-10.883 4.8672-10.883 10.992z"/>
  <path d="m436.79 109.92h-70-9.9531c-5.9062 0-10.938 5.0312-10.938 10.938v68.359 9.625c3.6641-3.6641 7.2734-7.2734 10.938-10.938-1.5312-0.054688-3.0625-0.16406-4.5391-0.27344-0.49219-0.054687-1.8594 0.054688-2.2422-0.21875 0.49219 0.054688 0.92969 0.10938 1.4219 0.21875-0.49219-0.054687-0.98437-0.16406-1.4766-0.21875-2.9531-0.49219-5.8516-1.1484-8.6953-1.9141-2.5703-0.71094-5.0859-1.6406-7.6016-2.625-2.2969-0.875 1.6953 0.875 0.27344 0.10938-0.54687-0.27344-1.0938-0.49219-1.6406-0.76562-1.5312-0.71094-3.0078-1.4766-4.4844-2.2969-2.2969-1.2578-4.5391-2.6797-6.7266-4.1562-0.60156-0.4375-1.1484-0.82031-1.75-1.2578-1.5859-1.1484 0.32812 0.32813 0.49219 0.38281-1.3125-0.49219-2.7891-2.2969-3.8281-3.2266-1.9688-1.75-3.8281-3.6094-5.6328-5.5234-0.98438-1.0391-1.9141-2.1328-2.7891-3.2266-0.16406-0.21875-0.875-0.875-0.875-1.0938 0.98437 1.2578 1.0938 1.4219 0.38281 0.49219-0.27344-0.38281-0.54688-0.76562-0.82031-1.1484-1.5312-2.1328-2.9531-4.375-4.2656-6.6719-0.71094-1.2578-1.4219-2.5156-2.0234-3.8281-0.54688-1.0391-1.75-2.7891-1.8047-3.9375 0.16406 0.4375 0.38281 0.82031 0.54687 1.2578-0.16406-0.4375-0.38281-0.875-0.54687-1.3672-0.27344-0.65625-0.49219-1.3672-0.76563-2.0781-0.38281-1.1484-0.76562-2.2969-1.1484-3.5-0.875-2.8438-1.5312-5.7422-2.0781-8.6406-0.054688-0.38281-0.54688-1.9141-0.38281-2.2422 0.054687 0.49219 0.10937 0.92969 0.16406 1.4219-0.054688-0.49219-0.10938-0.98438-0.16406-1.4766-0.10938-1.2578-0.21875-2.5156-0.32813-3.7734-0.16406-3.1719-0.16406-6.3984 0-9.5703 0.10938-1.3672 0.21875-2.7891 0.38281-4.1562 0.27344-2.625-0.4375 2.5156 0-0.054687 0.10938-0.71094 0.21875-1.4766 0.38281-2.1875 0.54687-2.8984 1.2578-5.7969 2.1328-8.5859 0.38281-1.1484 0.76562-2.2969 1.1484-3.4453 0.27344-0.71094 0.54687-1.3672 0.76562-2.0234 0.875-2.4062-1.0391 2.2422 0-0.054688 1.2031-2.625 2.4609-5.1953 3.9375-7.7109 1.3125-2.2969 2.7344-4.4844 4.3203-6.6172 0.16406-0.21875 0.27344-0.38281 0.4375-0.60156 0.71094-0.92969 0.54688-0.76562-0.38281 0.49219 0.054688-0.21875 0.71094-0.875 0.875-1.0938 1.0391-1.3125 2.1328-2.5703 3.2812-3.7734 1.8047-1.9141 3.6641-3.7734 5.6328-5.4688 0.71094-0.65625 2.3516-2.5703 3.2812-2.7344-0.10938 0-2.1328 1.5859-0.49219 0.38281 0.76562-0.54688 1.5312-1.1484 2.3516-1.6406 2.1875-1.4766 4.4297-2.8438 6.7266-4.1016 1.2578-0.71094 2.5703-1.3672 3.8828-1.9688 0.54688-0.27344 1.0938-0.49219 1.6406-0.76562 2.5703-1.2031-1.6953 0.60156 0.38281-0.16406 5.3594-1.9688 10.664-3.5 16.297-4.4297 2.625-0.4375-2.5703 0.27344 0.054687 0 0.76562-0.054688 1.4766-0.16406 2.2422-0.21875 1.3672-0.10938 2.7891-0.21875 4.1562-0.27344 3.0625-0.10938 6.125-0.054688 9.1875 0.21875 0.60156 0.054688 1.2578 0.10938 1.8594 0.16406 0.27344 0.054688 0.49219 0.054688 0.76562 0.10938 1.2031 0.16406 0.98438 0.10937-0.65625-0.10938 0.65625-0.38281 3.6094 0.60156 4.375 0.76563 2.8984 0.60156 5.7422 1.3672 8.5312 2.2969 1.1484 0.38281 2.2969 0.76563 3.4453 1.2031 0.21875 0.10937 0.4375 0.16406 0.65625 0.27344 1.0938 0.4375 0.875 0.38281-0.60156-0.27344 0.60156 0.054687 1.4219 0.65625 1.9688 0.875 2.625 1.2031 5.1406 2.5703 7.6016 4.0469 1.2031 0.76563 2.4062 1.5312 3.6094 2.3516 0.60156 0.38281 1.1484 0.82031 1.75 1.2578 0.38281 0.27344 0.76562 0.54687 1.1484 0.875-1.2578-0.98438-1.4219-1.0938-0.54688-0.38281 2.4062 1.9688 4.7031 3.9922 6.8906 6.2344 0.98437 1.0391 1.9688 2.0781 2.8984 3.1172 0.49219 0.54687 0.92969 1.0938 1.3672 1.6406 0.32813 0.38281 0.60156 0.71094 0.92969 1.0938 0.71094 0.92969 0.60156 0.76563-0.38281-0.54687 0.76562 0.32812 2.0234 2.8438 2.5156 3.5 0.92969 1.3672 1.8047 2.7891 2.6797 4.2656 0.71094 1.2578 1.4219 2.5156 2.0781 3.7734s2.0234 3.1719 2.1328 4.5938c-0.10938-1.5312-0.65625-1.6406-0.27344-0.60156 0.32812 0.92969 0.71094 1.8047 1.0391 2.7344 0.54688 1.5859 1.0938 3.2266 1.5312 4.8672 0.38281 1.4219 0.76563 2.8438 1.0391 4.3203 0.16406 0.82031 1.4219 4.4844 0.92969 5.1406 0.054688-0.054688-0.32812-2.8438-0.10937-0.65625 0.10937 0.98437 0.21875 2.0234 0.27344 3.0078 0.16406 1.75 0.21875 3.5547 0.21875 5.3594 0.10938 5.7422 4.9766 11.211 10.938 10.938 5.8516-0.27344 11.047-4.8125 10.938-10.938-0.4375-27.672-13.617-53.156-35.547-69.836-21.438-16.297-50.422-21.492-76.289-14.273-24.883 6.9453-46.484 25.266-56.766 49.055-11.102 25.648-10.062 55.289 3.8828 79.68 15.148 26.523 43.422 43.148 73.828 44.352 5.9062 0.21875 10.938-5.1953 10.938-10.938v-68.359-9.625c-3.6641 3.6641-7.2734 7.2734-10.938 10.938h70 9.9531c5.7422 0 11.211-5.0312 10.938-10.938-0.21875-6.2344-4.7578-11.211-10.883-11.211z"/>
  <use x="70" y="568.203125" xlink:href="#v"/>
  <use x="72.007812" y="568.203125" xlink:href="#f"/>
  <use x="73.355469" y="568.203125" xlink:href="#a"/>
  <use x="75.210937" y="568.203125" xlink:href="#e"/>
  <use x="77.054688" y="568.203125" xlink:href="#d"/>
  <use x="78.363281" y="568.203125" xlink:href="#a"/>
  <use x="80.214844" y="568.203125" xlink:href="#k"/>
  <use x="83.125" y="568.203125" xlink:href="#j"/>
  <use x="85.082031" y="568.203125" xlink:href="#i"/>
  <use x="87.816406" y="568.203125" xlink:href="#c"/>
  <use x="89.445312" y="568.203125" xlink:href="#b"/>
  <use x="91.390625" y="568.203125" xlink:href="#e"/>
  <use x="93.238281" y="568.203125" xlink:href="#c"/>
  <use x="94.863281" y="568.203125" xlink:href="#b"/>
  <use x="96.8125" y="568.203125" xlink:href="#e"/>
  <use x="98.65625" y="568.203125" xlink:href="#h"/>
  <use x="100.601562" y="568.203125" xlink:href="#u"/>
  <use x="103.375" y="568.203125" xlink:href="#c"/>
  <use x="105" y="568.203125" xlink:href="#t"/>
  <use x="105.9375" y="568.203125" xlink:href="#h"/>
  <use x="107.882812" y="568.203125" xlink:href="#s"/>
  <use x="109.84375" y="568.203125" xlink:href="#b"/>
  <use x="70" y="570.9375" xlink:href="#r"/>
  <use x="71.191406" y="570.9375" xlink:href="#f"/>
  <use x="72.539062" y="570.9375" xlink:href="#g"/>
  <use x="74.417969" y="570.9375" xlink:href="#q"/>
  <use x="78.21875" y="570.9375" xlink:href="#d"/>
  <use x="79.523438" y="570.9375" xlink:href="#b"/>
  <use x="81.472656" y="570.9375" xlink:href="#a"/>
  <use x="84.277344" y="570.9375" xlink:href="#p"/>
  <use x="86.566406" y="570.9375" xlink:href="#g"/>
  <use x="88.445312" y="570.9375" xlink:href="#o"/>
  <use x="90.390625" y="570.9375" xlink:href="#h"/>
  <use x="93.289062" y="570.9375" xlink:href="#n"/>
  <use x="95.292969" y="570.9375" xlink:href="#f"/>
  <use x="96.644531" y="570.9375" xlink:href="#g"/>
  <use x="98.519531" y="570.9375" xlink:href="#m"/>
  <use x="99.457031" y="570.9375" xlink:href="#a"/>
  <use x="101.3125" y="570.9375" xlink:href="#l"/>
  <use x="102.933594" y="570.9375" xlink:href="#d"/>
 </g>
</svg>
