<?xml version="1.0" encoding="UTF-8"?>
<svg width="700pt" height="700pt" version="1.1" viewBox="0 0 700 700" xmlns="http://www.w3.org/2000/svg">
 <path d="m455 175c-13.926 0-27.277-5.5312-37.125-15.375-9.8438-9.8477-15.375-23.199-15.375-37.125v-87.5h-192.5c-13.926 0-27.277 5.5312-37.125 15.375-9.8438 9.8477-15.375 23.199-15.375 37.125v385c0 13.926 5.5312 27.277 15.375 37.125 9.8477 9.8438 23.199 15.375 37.125 15.375h280c13.926 0 27.277-5.5312 37.125-15.375 9.8438-9.8477 15.375-23.199 15.375-37.125v-297.5zm-157.5-52.5c13.926 0 27.277 5.5312 37.125 15.375 9.8438 9.8477 15.375 23.199 15.375 37.125s-5.5312 27.277-15.375 37.125c-9.8477 9.8438-23.199 15.375-37.125 15.375s-27.277-5.5312-37.125-15.375c-9.8438-9.8477-15.375-23.199-15.375-37.125s5.5312-27.277 15.375-37.125c9.8477-9.8438 23.199-15.375 37.125-15.375zm-70 175c0-13.926 5.5312-27.277 15.375-37.125 9.8477-9.8438 23.199-15.375 37.125-15.375h35c13.926 0 27.277 5.5312 37.125 15.375 9.8438 9.8477 15.375 23.199 15.375 37.125v35c0 4.6406-1.8438 9.0938-5.125 12.375s-7.7344 5.125-12.375 5.125h-105c-4.6406 0-9.0938-1.8438-12.375-5.125s-5.125-7.7344-5.125-12.375zm227.5 140h-210c-6.2539 0-12.031-3.3359-15.156-8.75s-3.125-12.086 0-17.5 8.9023-8.75 15.156-8.75h210c6.2539 0 12.031 3.3359 15.156 8.75s3.125 12.086 0 17.5-8.9023 8.75-15.156 8.75zm0-87.5h-35c-6.2539 0-12.031-3.3359-15.156-8.75s-3.125-12.086 0-17.5 8.9023-8.75 15.156-8.75h35c6.2539 0 12.031 3.3359 15.156 8.75s3.125 12.086 0 17.5-8.9023 8.75-15.156 8.75zm0-87.5h-35c-6.2539 0-12.031-3.3359-15.156-8.75s-3.125-12.086 0-17.5 8.9023-8.75 15.156-8.75h35c6.2539 0 12.031 3.3359 15.156 8.75s3.125 12.086 0 17.5-8.9023 8.75-15.156 8.75zm-17.5-140v-77.352l94.852 94.852h-77.352c-4.6406 0-9.0938-1.8438-12.375-5.125s-5.125-7.7344-5.125-12.375z"/>
</svg>
