<?xml version="1.0" encoding="UTF-8"?>
<svg id="Layer_1" data-name="Layer 1" xmlns="http://www.w3.org/2000/svg" viewBox="0 0 214.89 214.89">
  <defs>
    <style>
      .cls-1 {
        fill: #131214;
        isolation: isolate;
        opacity: .4;
      }

      .cls-1, .cls-2, .cls-3 {
        stroke-width: 0px;
      }

      .cls-2 {
        fill: #f70059;
        fill-rule: evenodd;
      }

      @media (prefers-color-scheme: light) {
        .cls-3 {
          fill: #424242;
        }
      }

      @media (prefers-color-scheme: dark) {
        .cls-3 {
          fill: #efefef;
        }
      }
    </style>
  </defs>
  <path class="cls-1" d="m147.33,95.43c0,9.76-6.31,20.09-18.78,30.83-6.56,5.58-13.77,10.49-21.32,14.51-7.54-4.1-14.76-9.02-21.32-14.59-12.54-10.74-18.86-21.07-18.86-30.83,0-12.05,7.95-20.58,18.86-20.58,5,0,7.95.49,11.31,2.13,1.97.9,3.69,2.13,5.17,3.61l4.84,4.92,4.76-4.92c1.48-1.56,3.28-2.79,5.25-3.77,3.28-1.48,6.07-1.97,11.23-1.97,10.82.16,18.86,8.85,18.86,20.66Z"/>
  <path class="cls-1" d="m147.33,95.43c0,9.76-6.31,20.09-18.78,30.83-6.56,5.58-13.77,10.49-21.32,14.51-7.54-4.1-14.76-9.02-21.32-14.59-12.54-10.74-18.86-21.07-18.86-30.83,0-12.05,7.95-20.58,18.86-20.58,5,0,7.95.49,11.31,2.13,1.97.9,3.69,2.13,5.17,3.61l4.84,4.92,4.76-4.92c1.48-1.56,3.28-2.79,5.25-3.77,3.28-1.48,6.07-1.97,11.23-1.97,10.82.16,18.86,8.85,18.86,20.66Z"/>
  <path class="cls-2" d="m147.33,95.43c0,9.76-6.31,20.09-18.78,30.83-6.56,5.58-13.77,10.49-21.32,14.51-7.54-4.1-14.76-9.02-21.32-14.59-12.54-10.74-18.86-21.07-18.86-30.83,0-12.05,7.95-20.58,18.86-20.58,5,0,7.95.49,11.31,2.13,1.97.9,3.69,2.13,5.17,3.61l4.84,4.92,4.76-4.92c1.48-1.56,3.28-2.79,5.25-3.77,3.28-1.48,6.07-1.97,11.23-1.97,10.82.16,18.86,8.85,18.86,20.66Z"/>
  <path class="cls-3" d="m214.89,20.58v173.73c0,11.4-9.18,20.58-20.58,20.58H20.58c-11.4,0-20.58-9.18-20.58-20.58V20.58C0,9.18,9.18,0,20.58,0h86.66c2.87,0,5.41,1.15,7.3,3.03,1.8,1.89,3.03,4.43,3.03,7.3v30.17c0,5.66-4.59,10.33-10.33,10.33s-10.33-4.59-10.33-10.33v-19.84H30.42c-5.41,0-9.84,4.43-9.84,9.84v154.14c0,5.49,4.43,9.84,9.84,9.84h154.14c5.41,0,9.84-4.35,9.84-9.84V30.5c0-.74-.16-4.26-2.95-6.97,0,0-2.3-2.21-5.17-2.71-.33-.08-.74-.08-.74-.08-.33,0-.66-.08-.98-.08h-26.89c-5.66,0-10.33-4.67-10.33-10.33S152.01,0,157.66,0h36.65c11.4-.08,20.58,9.18,20.58,20.58Z"/>
</svg>
