<svg xmlns="http://www.w3.org/2000/svg" viewBox="0 0 100 125" x="0px" y="0px">
  <style>
    @media (prefers-color-scheme: dark) {
      #droid {
        fill: #efefef;
      }
    }
    @media (prefers-color-scheme: light) {
      #droid {
        fill: #424242;
      }
    }
  </style>
  <g id="droid">
    <path d="M42.37,9.48H57.63v11H70.54a21.92,21.92,0,0,0-41.08,0H42.37Z" />
    <path
      d="M71.88,26.67c0-.46-.08-.93-.15-1.39a27,27,0,0,0-.54-2.68H55.47v-11H44.53v11H28.81a27,27,0,0,0-.54,2.68c-.07.46-.11.93-.15,1.39s-.05.93-.05,1.4H71.93C71.93,27.6,71.91,27.14,71.88,26.67ZM50,19.86a2.74,2.74,0,1,1,2.75-2.73A2.74,2.74,0,0,1,50,19.86Z" />
    <path
      d="M77.4,85.62V30.82a2.75,2.75,0,0,0-2.75-2.75,2.15,2.15,0,0,0-.56.07A2.69,2.69,0,0,0,72,30.23a3,3,0,0,0-.06.59v-.59H28.07v.59a3,3,0,0,0-.06-.59,2.69,2.69,0,0,0-2.1-2.09,2.15,2.15,0,0,0-.56-.07,2.75,2.75,0,0,0-2.75,2.75v54.8c-1.51,0-5.47,3.95-5.47,5.47a2.73,2.73,0,0,0,2.73,2.74h11a2.75,2.75,0,0,0,2.75-2.74c0-1.52-4-5.47-5.5-5.47V71.93a5.5,5.5,0,0,0,5.5,5.47H47.25v5.47c-1.51,0-5.47,2.85-5.47,8.22a2.75,2.75,0,0,0,2.75,2.74H55.47a2.75,2.75,0,0,0,2.75-2.74c0-5.45-4-8.22-5.47-8.22V77.4H66.43a5.5,5.5,0,0,0,5.5-5.47V85.62c-1.52,0-5.5,3.95-5.5,5.47a2.75,2.75,0,0,0,2.75,2.74h11a2.73,2.73,0,0,0,2.73-2.74C82.87,89.57,78.91,85.62,77.4,85.62Z" />
  </g>
</svg>
