<?xml version="1.0" encoding="UTF-8"?>
<svg width="128" height="128" version="1.0" viewBox="0 0 96 96" xmlns="http://www.w3.org/2000/svg">
	<g transform="matrix(.75 0 0 .75 11.932 7.3983)">
		<path d="m55.972.00031084c-.12207-.01-.3045.22091-.6479.74674-.53227.84134-.51505 1.3907.0516 1.9573.29189.29189.29171.39493-.0174 3.022-.1717 1.511-.36054 2.7644-.39488 2.816-.0515.0343-.27454-.10307-.49775-.30911l-.41223-.39488-.0687.41199c-.0515.3434-.10298.30927-.46355-.37753-.0789-.15062-.16804-.3094-.26258-.47159.35674.63398.67733 1.2861.93212 1.9138l.58376 1.408.18889-1.4595c.10302-.78983.3434-2.6785.5151-4.1895l.32621-2.7473.086 4.8077c.008.44097.0133.65562.0201 1.0189l-.003-.81289c0-3.8289.0514-4.653.27466-5.1166.25755-.49794.24051-.94451-.0342-1.9575-.0515-.16741-.10307-.25992-.17631-.26585zm-.0611 8.1528.0141 3.7544.16273-.33125c-.10268-.0403-.13118-.98483-.17682-3.4231zm.17682 3.4231c.047.0185.10987-.11327.19794-.30408.0804-.18754.15483-.37265.20901-.51912-.0248.0478-.0507.0966-.0717.14135zm.40695-.8232c.17502-.33721.43659-.73903.70273-1.0959-.34929.41117-.61998.75319-.61998.82522 0 .0329-.0328.13549-.0827.27063zm.70273-1.0959c.067-.0789.13237-.15627.20423-.23919.22571-.25213.43041-.48849.623-.71606-.11884.13095-.23996.26143-.36545.38959-.14191.15374-.30215.35164-.46178.56566zm.82723-.95525c.64538-.71119 1.1819-1.4432 1.4719-1.9797.0361-.0686.0609-.12683.0785-.18058-.33167.61657-.8303 1.3094-1.5503 2.1603zm1.5503-2.1603c.21396-.39776.36107-.76545.45373-1.1245.12019-.49794.12016-.49792.13733-.0687.0117.3043-.27443 1.0395-.66275 1.7812.16079-.28856.32629-.60162.45676-.87125.25755-.53227.51501-1.0129.60086-1.0644.1717-.10302.1717-1.8372 0-2.4553-.10302-.41208-.12009-.4122-.66953.22309-.96152 1.0989-1.1162 1.4252-.996 2.0949.0687.32624.27493.75532.4638.94419.21693.21693.28173.33901.2158.54076zm-.0717.58804c-.15661.28108-.30888.53907-.41902.70851-.13669.19528-.23984.36739-.30207.49146l.13054-.19945c.20772-.30611.40919-.65409.59055-1.0005zm-.72109 1.2-.19568.2983.50002-.21052c-.20007.071-.35103.1136-.36269.0903-.0148-.0148.0112-.084.0584-.17808zm.30434.0878c.0947-.0336.19653-.0716.30684-.11569.11594-.0483.21337-.0871.30157-.12123-.11295.0361-.25715.0891-.456.17279zm.60841-.23692c.44297-.14168.24125.0612-.59332.499-.71695.38135-1.2576.90567-1.6899 1.7206.46454-.80574 1.0643-1.3733 1.8444-1.7893.97522-.53333 1.1344-.69928.43889-.43034zm-2.2832 2.2196c-.60915 1.0566-.98562 2.523-1.2292 4.5979l-.003.0327c.33047-2.1732.69888-3.6249 1.2324-4.6306zm-1.2324 4.6306c-.005.03-.009.0572-.0138.0875-.11733.82126-.16811 1.5114-.15293 2.6027l.46204.43637.60087.56667.27465-.41199c.53227-.80699.5153-1.3908-.0513-2.5068-.29189-.58378-.56671-1.0647-.61822-1.0647-.0515 0-.20596.25767-.34332.54956l-.24045.56666zm-.16676 2.6902-.15619-.14739.12023.58376c.0515.30906.10312 1.5453.10312 2.7128 0 1.5483.0256 2.0063.16323 2.0617l-.12902-2.6454c-.0585-1.0862-.0921-1.9-.10137-2.5654zm.23039 5.2109.0428.87452.61797-.68689c.32623-.39491 1.1161-1.2533 1.7342-1.9057.38908-.40955.7099-.77475.98695-1.1308-.97973 1.1907-2.9046 3.1433-2.9787 2.9508-.0343-.12019-.18885-.15463-.32621-.10312-.0291.01-.0543.0104-.077.001zm3.3819-2.8489c.15589-.18946.29019-.36145.38683-.50052.0728-.10662.16175-.26421.25629-.4414-.18939.32262-.39953.62885-.64312.94192zm.64312-.94192c.31323-.53359.5731-1.1145.84811-1.8471-.26119.64183-.58274 1.3498-.84811 1.8471zm.84811-1.8471c.26011-.63919.458-1.2041.458-1.3858 0-.0775-.0348-.23833-.0883-.43336.0446.52661-.0807 1.0684-.35815 1.7898-.004.0104-.008.0191-.0116.0294zm.36972-1.8192c-.052-.61401-.33579-1.2072-.89036-2.039l-.77265-1.1504.61797.60087c.3434.32623.79002.85865.97889 1.1849.0278.0444.0534.0833.0785.12022-.117-.29152-.0689-.40722.17908-.66978.39491-.44643.51503-.1544.27465.73844l-.0249.091c.18258-.46617.42575-2.3311.47712-3.5378-.0336.21729-.10178.26127-.22913.21882-.13736-.0515-.42922.0858-.65243.32621l-.42908.41198-.70399-.92708c-.39491-.49793-.78999-.90998-.85867-.90998-.36057 0-.49795 2.0088-.18889 2.5926.10302.18887.48093.51517.85867.75555.49794.30906.73813.63521 1.0128 1.3735.11307.29209.20737.58277.27239.81994zm.91828-4.6616c.0208-.13427.0284-.33397.0284-.6225 0-.0664-.004-.12934-.007-.19417-.007.12362-.0106.25716-.0106.40016 0 .12405-.005.26845-.0113.41651zm.0219-.81667c.0226-.42558.0814-.71606.16123-.71606.10302 0 .17153 1.1334.17153 3.0393 0 2.3695-.0858 3.4166-.34332 4.6872-.0348.16456-.0576.27661-.0893.42807.17053-.48803.40038-.94278.58729-1.0805.65246-.44643.90988-1.1676.80686-2.1806-.1717-1.3564-.20596-1.425-.60087-1.0644-.3434.30906-.34332.29174-.34332-1.4424 0-.96152.0686-1.7168.15443-1.6653.18887.12019.6354-.37787.87578-.996.20604-.53227-.10308-1.9403-.56667-2.5584-.20604-.29189-.25763-.24035-.68688.63532-.46359.96153-.60082 1.8889-.29176 2.0778.0893.0446.14965.41483.16499.83603zm-.0999 7.4385c-.12711.36379-.22226.74548-.23692 1.0315 0 .0326.003.0608.007.0863.0244-.12822.11016-.54494.23013-1.1177zm-.23013 1.1177c-.004.0218-.0239.11769-.0239.11972 0 .0344.25754.0516.58377.0516.45574 0 .94547.25428 1.3614.67506l.38984-.81239c.4636-.92719.72103-2.1291.48065-2.1291-.0858 0-.56641.25741-1.0815.54931-.70398.42925-.97887.70414-1.1162 1.1162-.14366.4948-.53906.76612-.59408.42958zm1.9213.84635-.0221.046.29428.26862c-.0862-.11278-.17693-.21834-.27214-.31465zm.27214.31465c.13303.17415.2546.36558.35815.57269.41208.77266.44641 1.2879.0687.66979-.37775-.60096-1.3393-1.202-1.9231-1.202-.34831 0-.78136.28681-1.3024.86974.0152.0235.0307.0592.0488.1089.0343.12019.0173.2576-.0342.30911-.13553.13554-.25781.003-.22837-.16826-.26854.32672-.55828.72493-.8705 1.1985-.37774.56661-1.2534 1.717-1.9231 2.5755-.0831.1018-.16774.20898-.25277.31917.30842-.34251.57528-.54496.73342-.50806.42925.12019 1.3909-.54938 1.5111-1.0473.0858-.32623.39501-.5838 1.1333-.96154.54944-.27472 1.1332-.65244 1.3049-.84131.46359-.54945.65233-.12018.29176.70399-.32624.70397-.32625.7038.0687 1.4593.22321.41208.46371.75555.54956.75555.0687 0 .32621-.24025.58376-.54931.39492-.46359.44639-.66961.39488-1.3564l-.0858-.80711.68663-.0687c.56661-.0515.70397-6e-5.77265.27466.0515.18887.46375 1.0647.92734 1.9575.31827.62476.53315 1.0944.66299 1.5179-.12481-.45943-.33292-.9435-.62879-1.5352-.44642-.87567-.85852-1.9916-.96154-2.6097-.3434-1.9917.32625-4.6874 1.9918-7.9325.68255-1.335 1.1592-2.1463 1.2354-2.1761-.009-.0912-.35781.4697-.96054 1.6266-.39491.75548-.77263 1.3564-.84131 1.3564-.0859 0-.24049-.24038-.36068-.51511-.12019-.29189-.27463-.5151-.34331-.5151-.13736 0-.58397 1.1332-.79001 1.9402-.0858.36057-.0172.61825.25755.99599.36057.48076.36067.53217.10312 1.4422-.15453.5151-.3262 1.5454-.39488 2.3008l-.12022 1.3564-.97864-.89288zm5.1133-8.4713c.007.0699-.1852.52205-.61722 1.3861-.29333.60209-.49256 1.0538-.62728 1.4268.22064-.51885.46433-1.0531.7304-1.5984.42082-.86304.56829-1.2357.5141-1.2146zm-1.2445 2.8129c-.4688 1.1024-.83012 2.1321-1.0735 3.0441.0487-.0752.1045-.12676.15543-.12676.30907 0 .68689-1.013.68689-1.8029 0-.32133.0662-.65778.23114-1.1145zm-1.0735 3.0441c-.0334.0515-.0641.11252-.085.18235-.13736.42925-.44627 2.8502-.36042 2.9188.0135.0135.0521-.0377.1006-.11545l-.0148-.67431c-.007-.62153.11888-1.409.35967-2.3114zm-.34483 2.9857.002.0983.17481-.4243c-.0692.1402-.12848.24809-.17707.32596zm.17707-.32596c.0378-.0766.0767-.15705.1172-.24548.16039-.35471.3831-.74825.65721-1.1706-.30627.46382-.54755.88807-.70877 1.2566zm.77441-1.416c1.292-1.9567 3.7616-4.6329 6.4682-6.9508 2.5927-2.2321 2.6443-2.2148.24045.086-1.528 1.4719-2.8342 2.8702-3.8957 4.1593 1.2608-1.5206 2.8284-3.1643 4.3079-4.5029 3.1078-2.7816 2.6442-2.5926-.70399.292-2.803 2.4368-5.1651 4.9879-6.4169 6.9164zm2.8129-2.7055c-.0179.0216-.0353.0431-.0531.0646.0176-.0214.0354-.0432.0531-.0646zm-.0531.0646c-.0768.0937-.15451.18769-.22863.28019.0751-.093.15098-.18611.22863-.28019zm-.22863.28019c-.46776.57879-.88665 1.1349-1.2312 1.6426l-.96154 1.408.008.21253c.48435-.96213 1.2219-2.0613 2.1849-3.2632zm-2.1849 3.2632c-.21117.41946-.37557.81341-.48844 1.1781-.30491.98788-.34833 1.578-.0596 2.2611l.2656-.33804c.30906-.41208.36055-.65238.32621-1.8886zm-.54805 3.4392-.11218.14286.44644.58376c.25755.32623.56669.84125.68689 1.116l.0883.21027c-.001-.0175-.003-.0352-.003-.0556 0-.12019-.25753-.601-.58376-1.0818-.23378-.34321-.4054-.6369-.52315-.91551zm1.1094 2.0529c.006.0853.0273.13508.0629.1504zm.0629.1504.0719.17154.39387-.61244c-.2264.32547-.38455.47588-.4658.4409zm.4658-.4409c.0642-.0923.132-.19371.20725-.31465.0468-.0735.0843-.12859.12626-.1924-.037.0539-.0692.0987-.10916.1582zm.33351-.50705c.19882-.28953.354-.4987.45826-.62301-.0709.0626-.23098.27704-.45826.62301zm.45826-.62301c.10524-.093.0169.13579-.28799.66325.004-.007.008-.013.0123-.0196.48376-.76019.5277-.94414.27566-.64363zm-.28799.66325c-.0862.13319-.15855.26017-.21756.37551.0356-.0616.0684-.11931.10966-.18889.0423-.0709.0719-.12431.1079-.18662zm-.21756.37551c-.4392.75904-.4741.98636-.4741 2.3522 0 .98577-.12611 1.9453-.37727 2.8816.18175-.51875.37399-.90424.44593-.88985.27472.0515.9789-1.0989.9789-1.5969 0-.53227-.49813-2.0948-.72135-2.2493-.0471-.0353.0128-.23365.14789-.49775zm-.85137 5.2338c-.0351.10025-.07.20369-.10337.31213-.22322.68681-.61823 1.6482-.87578 2.1462-.0698.128-.12483.23348-.17354.32973.11138-.19979.21299-.38884.29377-.55282.36919-.7307.65511-1.4754.85892-2.2352zm-1.1527 2.788c-.62955 1.1292-1.6572 2.6922-2.2078 3.3799.40347-.47542.95795-1.0806 1.4027-1.5119.78982-.80699.94442-1.0473.75555-1.1675-.18539-.0998-.18927-.22861.0496-.70047zm-2.2078 3.3799c-.10026.11814-.19278.22967-.26937.32621.0557-.0651.0955-.1149.16122-.18964.0311-.0364.0728-.0924.10815-.13657zm-.26937.32621c-.22195.25941-.38154.45891-.44141.5639l.41374-.53045c.008-.01.0198-.0235.0277-.0335zm-.44141.5639-.25604.32822.38431-.27868c-.15749.0911-.19825.0732-.12827-.0495zm.12827.0495c.22853-.13213.70763-.49809 1.4319-1.088-.39329.3117-.78395.61347-1.1293.86873zm1.4319-1.088c.95586-.75757 1.9275-1.58 2.3046-1.9814.0578-.0604.10824-.11852.15519-.17581-.46115.45774-.95739.90986-1.4942 1.3604-.36474.30476-.68003.56421-.96556.7968zm2.4598-2.1572c.76598-.76032 1.4319-1.5366 2.0078-2.3496l-.22284-.56515-.2402-.56666-.58376.90998c-.39492.60095-.58377 1.116-.58377 1.5624-.0145.40725-.11718.69168-.37727 1.0091zm2.0078-2.3496 5e-4.001.0264-.0385c-.009.0125-.0181.0248-.0269.0372zm.0269-.0372.31691-.45927c.22759-.33036.47699-.76431.72436-1.2432-.30909.58846-.65498 1.1539-1.0413 1.7025zm1.0413-1.7025c.0499-.0966.0996-.19294.14915-.29302-.0489.0982-.0983.19611-.14915.29302zm.14915-.29302c.0472-.0947.093-.19028.13833-.28622-.0458.0963-.0918.19222-.13833.28622zm.13833-.28622c.022-.0463.0441-.0917.0659-.13833-.0214.0465-.0441.0921-.0659.13833zm.0659-.13833c.2053-.43959.40088-.89581.57069-1.336.21261-.58723.30487-.86244.28924-.96607-.24018.81106-.52475 1.575-.85993 2.3021zm.85993-2.3021c.2819-.95194.50281-1.9689.6723-3.0687.18887-1.1847.24038-1.3736.25755-.77266.00081.0333-.001.0792-.002.11696.0121-.17179.0186-.3134.0186-.40897l-.0171-.68663-.15468.84132c-.0859.5151-.25739.90982-.42909 1.0128-.15453.0858-.5838.42926-.96154.77266-.63529.56661-.66973.65248-.61822 1.4766.0515.92718.24031 1.0474 1.0473.70399.11272-.0493.17549-.0595.18637.0126zm.92834-3.7244c-.0357.50721-.11923 1.285-.22184 1.9777-.0787.54107-.14335.98327-.1914 1.3147l.003-.01c.19629-.91597.40594-2.523.41073-3.2828zm-.41324 3.2923-.10035.38532.051-.0335c.008-.0619.0226-.16739.0493-.35187zm-.0493.35187c-.003.021-.0168.11551-.0168.11922 0 .0515.17167-.0687.39488-.25755.35991-.33223.81803-.60531 1.1449-.69997-.004-.001-.006-.003-.0116-.004-.15453 0-.5494.20606-.90998.44644zm1.5229-.8383c.10906.0266-.0593.17429-.38934.3393-.31834.17243-.57248.36632-.80133.6401.24432-.27195.52991-.47849.88735-.65721.41208-.18887.63529-.36042.5151-.36042-.0599 0-.13322.0155-.21178.0382zm-1.1907.9794c-.34248.38122-.60365.89205-.8642 1.6436-.23665.69868-.69426 1.7036-1.1223 2.5139.37796-.66707.69014-1.3338.93337-1.9988.3899-1.0854.68948-1.7237 1.0531-2.1588zm-1.9865 4.1575c-1.7298 3.053-4.858 6.1137-9.2826 9.0588-.84133.56661-2.9706 1.8542-4.7219 2.8673-.53745.31153-1.0066.58967-1.4271.8471 1.5434-.85679 4.2803-2.491 5.9086-3.5428 1.8028-1.1676 1.8199-1.1675 2.541-.97865.92718.24039 1.4597.0173 2.4555-.99574l.7382-.75555h-.80686c-.44642 0-.80711-.0688-.80711-.15468 0-.0859.32611-.4119.7382-.7553.72114-.58378.7556-.60112 1.3222-.34357.32623.13736.82414.20619 1.0989.15468.61813-.13736 2.2322-1.3049 2.0433-1.4937-.0858-.0858-.63531-.20604-1.2191-.25755-.58378-.0687-1.013-.18906-.96154-.27491.0515-.0858.20596-.12017.34331-.0687.30907.12019 1.0989-.92715 1.0989-1.4251 0-.22321.15452-.60094.32622-.84132.17112-.24194.38782-.61598.61193-1.0403zm-15.432 12.773c-.29571.16416-.5628.30982-.75329.40645-.70397.36057-2.0949 1.6309-2.0949 1.9228 0 .001.001.002.002.003.48835-.74888 1.3048-1.3885 2.8466-2.3323zm-2.8466 2.3323c-.19764.30306-.34157.62715-.46028.99448.0255.006.0475.0631.0639.18738.15453 1.1504.18889 1.202.70399 1.0131.78982-.30906 1.2191-.84133 1.408-1.8028.30906-1.4595.22309-1.5455-.80711-.85867-.48831.31992-.89297.52355-.90847.46656zm-.46028.99448c-.0953-.0209-.23974.71108-.33979 1.5966.0289-.25532.0654-.49924.11167-.72235.0687-.32323.14249-.6093.22812-.87427zm-.33979 1.5966c-.006.0517-.0107.1043-.0159.15694.005-.0522.01-.10564.0159-.15694zm-.0159.15694c-.0596.56898-.10111 1.1811-.0956 1.6962.0172 2.318.48071 3.4167 1.2362 2.9359.0621-.0373.10314-.077.124-.12526-.2858.0984-.58244.13805-.70777.091-.48685-.19179-.74419-2.6892-.55685-4.5979zm1.2646 4.5069c.0274-.009.0549-.0186.082-.0292.19932-.0775.92176-.33076 1.7644-.62577-.4833.12725-.57949.036-.57949-.31867 0-.20604-.29193-.7726-.63533-1.2362-.61812-.84134-.63536-.84142-.75555-.42934-.18887.6868-.17158 1.8715.0345 2.2664.0986.17536.12635.28759.0895.37274zm1.8464-.65494c.17183-.0452.39008-.11647.6738-.21555.21195-.0754.36679-.13289.48216-.19014-.41185.14495-.7852.27588-1.156.40569zm1.156-.40569c.10349-.0364.18643-.0651.2905-.10187.81367-.28406 1.4536-.52492 1.9975-.76536l-.0744-1.0717-.0858-1.2364-.89288.85867c-.80699.73831-.90998.92699-.90998 1.528 0 .48595-.0197.63727-.32495.78875zm2.288-.86723.0113.16449.85867-.54955c.14503-.0937.30521-.2082.47461-.33754-.39749.26473-.82731.49392-1.3446.7226zm1.3446-.7226c.675-.44953 1.2655-1.0033 2.0664-1.8431.3372-.35124.60984-.6713.83126-.9804-.61345.81068-1.9156 2.0737-2.8977 2.8235zm2.8977-2.8235c.095-.12556.1753-.24138.23341-.34156.0308-.052.0594-.10717.0873-.16398-.0915.16705-.1983.3347-.32068.50554zm.32068-.50554c.34979-.6388.48659-1.2736.49649-2.0853 0-.174.007-.33646.0176-.48215-.0309.20802-.0612.4416-.0863.70524-.0762.808-.20725 1.4122-.42783 1.8622zm.5141-2.5675c.0415-.27887.0844-.49738.12223-.57748-.0539.0348-.0988.26244-.12223.57748zm.12223-.57748c.005-.003.01-.005.0146-.005.0747 0 .18857-.11698.25076-.28321-.088.14734-.18363.249-.23366.249-.01 0-.0206.0156-.0317.0392zm.26535-.28824c.0328-.0549.0646-.11505.0926-.18033.027-.0576.0688-.12743.11821-.20348-.0965.13323-.1654.24217-.18688.3066-.007.0267-.0146.0525-.0239.0772zm.21077-.38381c.35604-.49156 1.1328-1.3523 1.7269-1.9218-.63237.56923-1.4 1.4189-1.7269 1.9218zm1.7269-1.9218c.18491-.16645.36123-.3149.5073-.41575.3434-.24039.20603-.0173-.44644.68663-1.3221 1.4423-1.7685 2.4039-1.8028 3.9148-.0282 1.1144-.21954 1.8583-.78171 2.7642.61774-.94295.75332-1.5001.78171-2.6781.0515-1.6312.44649-2.507 1.7858-3.9493.53227-.58378.80691-.96144.60087-.85842-.13286.0687-.36984.27252-.64463.53598zm-2.5237 6.9498c-.12959.19782-.27882.41151-.45449.65268-.32623.46359-.54957.82421-.48089.82421.0162 0 .1299-.047.28094-.11293-.32872.0905-.31552.0207.23416-.74549.15933-.21754.29818-.42171.42028-.61847zm-.65444 1.364c.0101-.003.0174-.004.0282-.007.49813-.15038 1.4769-.64619 2.3846-1.1706-.26194.1418-.5377.28498-.8393.43235-.65978.32989-1.2432.60137-1.5735.74549zm2.4128-1.1778c.7267-.39339 1.3114-.77223 1.7729-1.1693-.33916.29551-1.0321.74133-1.7729 1.1693zm1.7729-1.1693c.004-.004.0105-.008.0148-.0123.0112-.01.0212-.0198.0322-.0297-.0159.0139-.0309.0281-.047.042zm.047-.042c.11555-.10156.22358-.20438.32445-.30912-.10016.10278-.2087.2055-.32445.30912zm.32445-.30912.0121-.0121zm.0121-.0121c.0305-.0319.0601-.0641.0893-.0963-.0296.0321-.0583.0643-.0893.0963zm.0893-.0963c.32578-.35386.56708-.7183.74876-1.1512-.18435.42087-.42844.79742-.74876 1.1512zm.74876-1.1512c.003-.008.007-.0154.0101-.0231-.003.008-.007.0153-.0101.0231zm.0101-.0231c.007-.0176.0146-.035.0216-.0528-.007.0175-.0141.0355-.0216.0528zm.0216-.0528c.20322-.48815.33129-1.0352.40997-1.6738.0858-.72114.25745-1.7172.41198-2.2151.0283-.10317.0523-.19637.0732-.28496-.0186.0545-.0346.10244-.0561.16474-.13735.37774-.32606 1.3565-.42908 2.1635-.0889.76313-.21347 1.35-.40997 1.8456zm.89514-4.1739c.15628-.45836.20774-.65715.0792-.71481.0127.23063-.0157.44593-.0792.71481zm.0792-.71481c-.0186-.33835-.12513-.71286-.34131-1.3524-.0515-.18887.0687-.0515.25756.32621l.37777.66954.68689-1.2707c.78982-1.4594 1.7513-2.7814 2.9017-4.0177.40198-.42371.72209-.89095 1.1331-1.6929-.5506 1.0348-1.1358 1.8432-1.3048 1.5727-.18888-.30906-1.7171 1.5452-1.7171 2.0775 0 .1717-.24038.70419-.51511 1.1678l-.5322.84132-.97864-.086c-.9787-.0858-1.013-.0857-1.5453.53245-.30906.34341-.54956.70384-.54956.80686 0 .27472.91006.53229 1.5969.44644.27318-.039.44251-.0605.53019-.0211zm5.0157-7.3379c.20252-.38062.39868-.79026.56943-1.1902-.21292.46636-.39987.8593-.56943 1.1902zm.56943-1.1902c.0866-.18974.17524-.38538.27189-.60238.63529-1.4423 1.1848-2.5927 1.2191-2.5584s-.29184.97862-.72109 2.0775c-.10005.25612-.19399.50063-.28145.73039.15799-.30016.33646-.46068.62477-.59281.73831-.30907.82418-.29193.70399.13732-.056.18668-.53638.72435-.98142 1.1635.29517-.24028.63091-.51649 1.0159-.83729 1.4616-1.223 3.9962-3.0656 5.7403-4.1706-.45628.28325-1.0518.67417-1.4993.97689-.56661.39491-1.3394.7727-1.7171.82421-.36057.0687-.87577.15441-1.1333.22309l-.48065.10312.25755-.61822c.30906-.72114.24043-.73825-.97864-.27465-1.0817.42925-1.5111.87565-1.5111 1.614 0 .39822-.2214 1.0829-.52944 1.8044zm7.592-4.6528c.13897-.0863.26802-.16472.37224-.22485.13375-.0772.24399-.14712.34231-.21253-.21659.12634-.45758.27457-.71455.43738zm.71455-.43738c.006-.003.0124-.007.0181-.0108.33916-.19784.5124-.28574.50077-.23969.0391-.0466.0599-.0791.0488-.0865-.0343-.0343.15443-.5838.41198-1.2191.27472-.63529.46368-1.1676.42934-1.2191-.15453-.15453-2.1805.73836-2.4037 1.0818-.13736.18887-.25755.68685-.25755 1.0818 0 .84133.1888.90996 1.0473.46354.74449-.37955.76301-.22312.20498.14814zm.51888-.25051c-.0503.0599-.13457.14583-.25152.25478.15626-.13899.24433-.22636.25152-.25478zm-.25152.25478c-.20582.18308-.5337.45864-1.0219.86069-.41513.33965-1.0513.91412-1.7196 1.5365.70855-.65359 1.3982-1.2692 1.8743-1.6567.34739-.27791.65445-.54223.86722-.74046zm-2.7415 2.3972c-1.3585 1.2531-2.7934 2.6585-2.9825 2.9583.23889-.32807 1.6758-1.7415 2.9825-2.9583zm-2.9825 2.9583c-.0281.0385-.0442.0662-.0367.0724.009.009.0914-.0201.2324-.0785-.12172.0466-.20406.0723-.2153.0611-.006-.007.001-.0263.0196-.0551zm.19568-.006c.67694-.25905 2.8373-1.3027 4.3132-2.0657-.48505.22536-1.1461.54714-1.8672.90772-1.0803.54015-2.025.98365-2.446 1.158zm-2.2098.0915c-.37062.3017-.65904.53065-.7734.60665.001.005.001.013.004.0153.047.047.39625-.25329.76988-.62199zm-.7734.60665c-.009-.045.0263-.1986.086-.40242-.0882.24279-.15117.42181-.15117.43512 0 .008.0269-.007.0652-.0327zm.086-.40242c.0863-.23756.19772-.53834.34004-.91225-.0678.12888-.13215.28077-.1992.47159-.0565.1632-.10232.30924-.14084.44066zm-7.6782-7.1299c.13385.49271.16976.95912.11695 1.4985.0705-.55214.0383-.99219-.11695-1.4985zm.11695 1.4985c-.0423.33135-.12068.70319-.23063 1.1557l-.16123.67582c.20962-.7361.34167-1.3189.39186-1.8315zm-.39186 1.8315c-.0206.0723-.0398.14162-.0619.21705-.021.0701-.0456.14569-.0704.22109l.0189.0365zm-.13229.43814-.59911-1.1482c-.32623-.65246-.66983-1.1333-.72134-1.0647-.20604.22321-.68664 1.8029-.68664 2.2493 0 .51511 1.0989 1.6655 1.408 1.4766.003-.002.005-.002.007-.003.23214-.53055.44458-1.0617.59182-1.5098zm-.59182 1.5098c-.21622.49416-.44693.98253-.6655 1.3999.41922-.68701.82463-1.482.6655-1.3999zm-.6655 1.3999c-.22221.36413-.4482.69961-.59534.85263-.11738.11738-.19133.19052-.23944.21303.0191.0494.0366.079.0505.079.12795 0 .43614-.47991.78423-1.1446zm-.83478 1.0657c-.0283-.0733-.0589-.20035-.0855-.35086.00086.27196.009.38665.0855.35086zm-.0855-.35086c-.00011-.0324-.001-.0478-.001-.0853 0-.24576-.0611-.56012-.16575-.90546.0553.2171.0965.42006.11419.57924.0113.15252.0309.28794.0528.41148zm-.16701-.99072c-.1057-.41516-.266-.88538-.43512-1.2236-.0991-.19822-.2776-.46853-.50001-.7724.40138.62477.74322 1.363.93513 1.996zm-.93513-1.996c-.0222-.0345-.0441-.0696-.0666-.10338-.65247-.92718-.65248-.97864-.18889-.97864.60095 0 .99593-.32636 1.5282-1.2536.66963-1.1847.66952-1.3736-.0345-1.2362-1.1847.25755-2.0089.72109-2.1291 1.2362-.18887.77266-.22307.77277-1.0644.0345-.0403-.0354-.0689-.0597-.10664-.0928.67037.66629 1.5084 1.6377 2.0619 2.3939zm-2.0619-2.3939c-.3669-.36467-.68422-.6398-.87225-.7314-.091-.0455-.10466-.0278-.0616.0355.21646.0736.49464.31092.93387.69594zm-.93387-.69594c-.34295-.11663-.5558.15776-1.1059.84031-.87567 1.116-.92722 1.4594-.37778 2.524l.20625.41198.66953-.61797c.65246-.60095.6696-.63531.65243-1.7342-.0172-.61813.0171-1.1333.0858-1.1333.41208 0 2.3008 2.4382 2.8846 3.7259.43956.9419.60517 2.2702.40746 3.2654.2417-.89809.16938-1.9101-.21857-2.9221-.41208-1.1161-1.717-2.953-2.7815-3.9146-.22051-.21092-.36788-.36549-.42229-.44543zm3.4224 7.2821c-.004.0161-.008.0325-.0126.0485-.0909.30905-.37214.74166-.78724 1.2463.40541-.46142.68723-.83721.73593-1.0232.025-.0868.0453-.17834.0639-.27164zm-.79982 1.2948c-1.1668 1.328-3.3759 3.3762-4.1404 3.733-.44642.20604-1.0474.65248-1.3393.96154-.17263.20025-.85902.68077-1.6225 1.1751.50619-.30817 1.0274-.64103 1.5023-.96908 2.2347-1.5277 4.4468-3.4988 5.6-4.9005zm-7.1023 5.8696c-1.2689.77252-2.4296 1.3711-2.4296 1.2116 0-.0687.27464-1.0303.60087-2.112.0813-.26466.15653-.51492.22863-.75882l-.43462 1.3597c-.29189.92718-.51498 1.6828-.48064 1.7171.0718.0821 1.3804-.68276 2.5154-1.4175zm-1.6001-1.6592.0976-.30559h.58402c.82416 0 1.2017-.24056 1.5966-1.0476.41208-.80699.29205-.90988-.94419-.80686-.42613.0341-.76444.0511-.76938.0513-.14802.64316-.33409 1.3287-.56465 2.1087zm.56465-2.1087c.42128-1.8305.54524-3.3402.58049-5.8548l.009-.59232-.0609-.0775-.0171 1.8889c0 1.0302-.12019 2.5067-.25755 3.2621s-.25755 1.3738-.25755 1.3738.003-.00025.003-.00026zm.5898-6.4471.31691.40343.39488.46354.36067-.37777c.70397-.78983.7726-1.0646.46354-2.3695-.13736-.65246-.32627-1.2017-.37778-1.2017-.0687 0-.34343.36044-.63532.80686-.2299.36923-.39908.55177-.49649.56616zm.0264-1.709.0118-.75027c-.14147.51049-.13586.76859-.0118.75027zm.0118-.75027c.0213-.0767.0447-.15724.0727-.24522.0767-.23766.18102-.49388.30106-.75631l-.36973.7392zm.37375-1.0015.16248-.32521c.24148-.51314.88087-1.4904 1.4985-2.2908-.54666.60708-1.2221 1.6565-1.661 2.616zm4.7074-6.7092c.0728-.0886.1441-.17179.21378-.24975-.0426-.066-.0813-.0303-.15719.1089-.0326.047-.0487.0951-.0566.14085zm.64991-6.5228c-.009.0229-.018.0475-.0267.0634-.0766.13787-.1948.0827-.40217-.22309.0207.0516.045.10695.0759.17153l.2231.4638zm-8.6682-6.9499c-.62894-1.1177-1.3713-2.1786-2.0725-2.9455-.52589-.57459-.75273-.81089-.63507-.58.0777.0591.26047.25075.54905.56289.72419.7833 1.5741 1.96 2.1585 2.9626zm-2.7076-3.5255c-.14879-.11319.0956.26873.7724 1.284.42925.6353 1.013 1.7687 1.3049 2.5242.49606 1.3022 1.0885 3.4535 1.1992 4.353-.0581-1.5563-1.2943-5.0807-2.3839-6.7569-.51276-.7803-.80284-1.228-.89262-1.4042zm3.2765 8.1612c.001.0378.003.0757.003.11117v.44643l-.37777-.34331c-.49943-.44949-1.3528-.88177-1.7956-.90772.11996.0603.26713.12018.45624.18637.44643.15453 1.0303.48078 1.2707.70399l.46354.42934v-.37778c0-.065-.008-.15171-.0199-.24849zm-2.1706-.69343c-.31571-.1588-.42598-.32187-.48819-.62049-.0687-.29189-.25757-.8756-.44644-1.3049l-.34332-.77266-.48064.94419c-.65246 1.2534-.6526 1.82.0342 2.6442l.53221.65243.25755-.48064c.0751-.15013.14499-.27637.21354-.38155-.008.013-.0163.0247-.0247.0382-.18887.30906-.34332.48054-.34332.37752 0-.36057.70391-1.0989 1.0473-1.0989.0131 0 .0279.002.0417.003zm-.72109.6806c.003-.005.006-.009.009-.0138-.003.004-.006.009-.009.0138zm.009-.0138c.30429-.45941.58442-.49348 1.1685-.25705.63012.26377 1.1586.69092 1.5139 1.2158-.24404-.4431-.59273-.75047-1.0674-1.0269-.93501-.551-1.221-.54809-1.615.0682zm2.6824.95877c.13157.23889.23299.51694.30635.85188.0794.009.0535-.19173-.13758-.57396-.0503-.0956-.10776-.18779-.16877-.27792zm.30635.85188c-.0633-.007-.19316-.14729-.36068-.43663-.1717-.29189-.36065-.5322-.42933-.5322-.10302 0-.66953 2.0089-.66953 2.3866 0 .27472 1.0473 1.3909 1.3048 1.3909.15454 0 .24045.20582.24045.63508 0 .5299-.15939 2.5113-.30005 3.9209.0519-.52216.1066-1.0948.16273-1.7402.23767-2.8521.28999-4.5357.0516-5.6244zm-.21429 7.3646c-.016.16041-.0312.31247-.0463.45599.0153-.14279.0302-.29471.0463-.45599zm-.0463.45599c-.0374.34802-.0726.65046-.10011.82573l-.0936.54553c.002.00084.006.004.008.004.0295 0 .10036-.55685.18612-1.3753zm-.19367 1.3713c-.0239-.009-.0671-.0664-.11846-.1499l.1089.20549zm-.11846-.1499-.17003-.32144c.0613.12936.11908.23863.17003.32144zm-.17003-.32144c-.0272-.0575-.0546-.11424-.0815-.17706-.009-.0201-.0256-.0503-.0357-.0714.0253.0612.0533.124.087.19141zm-.1172-.2485c-.14209-.34405-.15487-.60386-.0674-.92456.20604-.6868.0687-1.0644-.65243-1.9573-.63529-.77265-.90998-.9101-.90998-.42933 0 .14724-.20276-.0606-.46605-.46883.87027 1.4693 1.7117 2.9803 2.0959 3.78zm-2.0959-3.78c-.10096-.17045-.20144-.33718-.30232-.50504.0507.0912.10492.18569.16725.28698.0465.0783.0913.15025.13507.21806zm-.30232-.50504c-.28429-.5117-.38879-.86795-.33049-1.0865.12019-.49793-.10321-1.0474-.79001-1.9918-.5151-.70397-.58372-.73826-.78976-.46354-.0629.0892-.10739.14584-.14487.17732.24076.45031.52215.92118.86597 1.4538.35662.54512.77001 1.2134 1.1892 1.9108zm-2.0551-3.3645c-.37245-.6966-.64547-1.3429-.88533-2.0833-.80699-2.4382-.84135-2.7986-.44644-3.7086.0635-.14345.12867-.2704.19593-.38406-.42587.52641-.56153 1.1693-.41902 1.9294.13736.73831 1.0473 3.5369 1.3049 4.0177.11924.22657.16479.30046.25.22888zm-1.1358-6.1759c.0359-.0444.0731-.0883.11318-.13104.49793-.53227 1.3392-.61807 2.1291-.20599.29189.15453.51511.22298.51511.18864 0-.0813-.16563-.19428-.39388-.30182.20162.16091.0876.14625-.499-.0757-.91874-.32601-1.4406-.19028-1.8645.52591zm2.3635-.45021c-.0167-.0134-.0315-.0257-.0526-.0415-.18887-.13736-.63518-.29174-.99575-.36042-.46359-.0687-.63534-.17187-.56666-.34357.0515-.13736.0172-.18884-.0687-.13732-.004.002-.007.005-.0111.007.0338.50807.0903.55987.54327.55987.30134 0 .80156.15131 1.1514.31615zm-1.6947-.87602c-.002-.0311-.004-.0579-.006-.0926-.0172-.3434-.017-.87583.0174-1.1849.0343-.53227-.70404-1.9402-1.0131-1.9402-.13736 0-.34331.85845-.34331 1.4938 0 .42925.78975 1.305 1.0473 1.1504.0858-.0515.15443.17177.15443.498 0 .24371-.0498.44518-.16725.64388.0919-.13217.15015-.23657.15015-.28321 0-.0992.064-.22963.16072-.28521zm-.31087.56842c-.0626.0901-.14052.19245-.22964.30106.096-.10272.17095-.20173.22964-.30106zm-.22964.30106c-.0367.0392-.0755.079-.11821.11972-.12499.11765-.23888.25965-.34055.41576.0675-.0853.14311-.1747.23768-.27843.0779-.0861.15209-.17296.22108-.25705zm-.45876.53548c-.18162.22937-.27619.41611-.32118.65595.0813-.231.19057-.4554.32118-.65595zm-.32118.65595c-.15097.42895-.20696.87807-.12802 1.2289.10302.42925.10312.42928-.15443.12022-.24038-.32623-.27486-.3261-.4809-.0342-.12177.16236-.2024.20886-.39261.0335.41805.56505.80202 1.0989 1.0279 1.4432.25755.39491.49786.7038.5322.68663.0172-.0343-.0686-.48064-.20599-.99575-.13736-.5151-.24045-1.3394-.24045-1.8373 0-.27198.01-.47234.0423-.64513zm-1.156 1.3484c-.51204-.69209-1.066-1.4163-1.4839-1.9392.0954.18952.3752.55477.8808 1.2188.28793.3722.4715.59895.60314.72034zm-1.4839-1.9392c-.12161-.2417.0569-.19747.45147-.12048l.61822.10312v-.68688c0-.42925-.13746-.84144-.36067-1.1333-.37774-.48076-1.8373-1.4078-1.9746-1.2533-.22321.20604.34357 2.112.85867 2.9362 1.3049 2.0432 1.82 3.142 1.82 3.8288 0 .60096.1031.78994.68689 1.3222.54944.49793 2.0604 3.0218 2.0604 3.451 0 .0116-.0188.0105-.049.00075l.22058.15393-1.1504-2.3009c-1.0302-2.0776-3.0046-5.6661-3.6399-6.6277-.13736-.20604-.20594-.37777-.15443-.37777.0364 0 .28289.29127.61294.70424zm4.1113 8.4481-.51762-.36117c-1.013-.68681-2.2149-1.2708-3.743-1.8202-.63311-.23162-1.4428-.58217-1.9402-.82647.52535.28965 1.1175.55105 1.7855.79227 1.5281.53227 2.73 1.1332 3.743 1.82.30582.21274.56846.36227.6723.39563zm-6.2008-3.0079c-.39814-.21951-.75758-.45556-1.082-.71128.28455.23962.58814.44986.91023.62778.0467.0242.11611.0562.17179.0835zm-1.082-.71128c-1.3082-1.1017-2.2056-2.8354-2.5582-5.0212l-.043-.25554c.0211.33716.0993.75653.23189 1.3202.41522 1.7354 1.1411 2.9885 2.3693 3.9566zm-2.6012-5.2768c-.0335-.53581.0781-.86254.35212-1.2208.20604-.27472.36049-.73831.34332-1.0302-.0172-.75548-.20589-1.5453-.36042-1.5453-.24038 0-1.0476 1.3563-1.0476 1.7684 0 .20604.10309.53222.24045.72109.12019.18887.2747.92735.32621 1.6313.12932 1.6036.51231 2.8174 1.2435 3.8985-.65107-1.1184-1.1051-2.6207-1.209-4.156l-.10312-1.3393zm1.0976 4.2229c.31732.5451.68063 1.0005 1.0745 1.3212l.0727.0589c-.0834-.0984-.18241-.21057-.31314-.35086-.31785-.3348-.59441-.67491-.83402-1.0292zm1.1472 1.3801c.0973.11488.16844.20698.20121.26711l.17254.0345zm.20121.26711-.34257-.0684c-.0453-.0113-.10778-.0242-.15996-.0362.0131.006.0273.0124.0397.0189.40015.21547.55314.25156.46279.0858zm-.50253-.10463c-.54566-.26422-1.6113-.44058-1.7287-.2729-.0515.0858-.2575.15443-.46354.15443-.32623 0-.30918.0517.22309.60112.32623.3434.77254.65242.99575.7211.48076.12019 1.408-.25761 1.408-.56667 0-.19222.17339-.19256.81038.0692-.31828-.12755-.64711-.25798-.99927-.39538-.80699-.32623-1.2706-.53241-1.0302-.4809.20073.043.5203.10912.78447.17003zm-4.3178-1.4802c-.0873-.005-.45876.30786-.84509.72638-.84133.94435-.97857 1.6141-.48064 2.5413.25755.5151.27464.51499.60087.22309.51889-.4731.38194-.16643-.58226 1.2204.0168-.0232.0331-.0467.05-.0699.78982-1.116 1.4595-1.9918 1.4766-1.9746.007.007-.0111.0563-.0402.12576l.0745-.14286-.0687-1.2706c-.0343-.70398-.12003-1.322-.17154-1.3735-.003-.003-.008-.005-.0136-.005zm.17933 2.7923-1.196 2.2953c-.31502.59853-.62477 1.2457-.91551 1.9004.32588-.72393.68614-1.4586 1.087-2.2096.49866-.9142.90288-1.6965 1.0244-1.9862zm-2.1115 4.1958c-.27444.60966-.52359 1.2116-.74625 1.8076.22402-.58799.47684-1.2009.74625-1.8076zm-.74625 1.8076c-.43556 1.1433-.76108 2.1864-.89363 2.9002.23052-.95925.52844-1.9225.89363-2.9002zm-.89363 2.9002c-.31431 1.3079-.50393 2.6096-.58049 3.9327l.38859.25906c.41208.25755.42933.24038.68688-.25756.39491-.73831.32615-1.5282-.17178-2.4211-.3434-.60096-.412-.91005-.34332-1.408.005-.0329.0137-.0707.0201-.10514zm-.58049 3.9327-.0234-.0156v.49096c.006-.15885.0142-.31719.0234-.47536zm-.0234.47536c-.0106.28728-.0174.57553-.0174.86546 0 .36758.006.65714.0174.90118v-.60942zm0 1.7666v1.039l.23516-.20398c-.13963.0268-.20726-.22807-.23516-.83502zm.23516.83502c.0691-.0133.15509-.091.26258-.22535.004-.005.0143-.0131.0196-.0189-.00064.00052-.002.001-.002.002zm.2822-.24422c.65619-.53358 3.5529-2.0077 4.7365-2.4022.49788-.16122.95371-.40651 1.366-.73317-.39674.27983-.87749.5141-1.5033.75052-1.455.55831-4.2385 1.9978-4.5992 2.3849zm6.1025-3.1354c.55564-.39189.94505-.87587 1.3252-1.5838-.37277.64976-.81529 1.1797-1.3252 1.5838zm1.3252-1.5838c.14116-.24605.27281-.50853.39362-.789-.0982.21304-.20671.43409-.33753.68512-.0187.0359-.0374.0691-.0561.10388zm-5.0763-9.0311c-.21515.29667-.42402.59554-.62677.8964.076-.11045.15238-.22087.23038-.33099.14697-.20804.2758-.39197.39639-.56541zm-.62677.8964c-1.3452 1.956-2.373 3.9681-3.1693 6.2109l-.48567 1.3982.52013-1.4842c.72362-2.0527 1.7909-4.1306 3.1349-6.1249zm-3.655 7.6091-.0636.18134-.2412-.4575.22385.50906zm-.30484-.27616-.15367-.34936c-.65247-1.4594-1.2364-2.3694-1.3909-2.1291-.0725.12082-.15509.14552-.31037.0614.74826.71367 1.312 1.388 1.5981 1.9301zm-1.8549-2.4171c-.10483-.1-.21313-.20054-.32496-.30181-.1389-.127-.26537-.24587-.38632-.36118.003.01.0245.0822.0259.0865.0172.0515.22298.24028.44619.41198.0967.0763.17378.12905.23919.16449zm-.71128-.66299c-.0336-.10825-.14165-.47183-.28321-.94368-.15453-.5151-.36058-1.099-.44644-1.2706-.1717-.32624-.18902-.32617-.41223-.0171-.10396.12996-.21756.21022-.29653.21203.21218.71008.63368 1.2522 1.4384 2.0194zm-1.4384-2.0194c-.0988-.33062-.15365-.69952-.17984-1.1449.0159.62159.0577 1.0749.11595 1.1215.0167.0167.0385.024.0639.0234zm-.17984-1.1449c-.008-.29515-.01-.62486-.004-.97311 0-1.0646-.0172-1.923-.0516-1.8886-.0924.0924-.16889.65099-.21354 1.3257.0177-.26997.0482-.50268.0933-.67331.13736-.48076.17186-.25763.15469 1.116-.003.41558.003.77303.0214 1.0933zm-.26937-1.536c-.0549.83008-.0606 1.8396.0246 2.4173.0859.66963.10295 1.2704.0171 1.322-.0235.0176-.0435.0573-.0616.10413.0125.008.0142.008.0274.0161.65246.37774.70407.34353.36067-.29176-.27901-.53013-.44484-2.3979-.36822-3.5677zm-.0199 3.8434c-.28133-.17214-.33552-.19364-.0211.0594.006-.0222.0138-.0403.0211-.0594zm-.0211.0594c-.023.0833-.0372.18484-.0372.28295.0172.18887.0341.4808.0513.63533s.22334.53232.48089.82421l.46355.56666.36067-.46379.36042-.46354.46354.36067c.42925.3434.46369.42925.36067 1.2878-.10302.8585-.0859.92711.5151 1.5624.49794.54945.6353.61828.77266.41224.27472-.41208.44632-.0344.41198.90998-.0101.29301-.0321 1.2052-.0506 1.95.25659-2.1896.25618-2.2262-.17254-3.358-.54944-1.4595-1.2533-2.3868-2.541-3.3826-.79489-.61587-1.2044-.93519-1.4394-1.1243zm4.153 7.8649c-.00032.003-.00043.005-.00075.007-.13235 1.0919-.15193 1.9741-.0611 2.6208l.0267-1.2644c.0141-.54409.0223-.84284.0352-1.3637zm-.0619 2.6281-.0221 1.039c.0443.0149.0943.0317.10035.0317.0515 0 .0172-.4463-.0687-.99575-.004-.0238-.006-.0505-.01-.075zm-.0221 1.039c-.2082-.0698-.78258-.28312-1.4621-.55207-.80699-.32624-2.7817-.99588-4.3957-1.4766-1.036-.32307-2.0659-.65891-2.7596-.90771.5708.22715 1.2519.46224 2.073.71883 3.4684 1.0817 5.1681 1.6656 5.9408 2.0433l.60087.30911zm-8.6174-2.9364c-.45287-.18022-.83312-.35562-1.1492-.5312.11969.0805.24368.15463.37173.21982.1206.0663.40198.17671.77744.31138zm-1.1492-.5312c-.76303-.51333-1.328-1.303-1.328-1.9264 0-.17933.0333-.37875.0941-.59207-.0885.24035-.14563.45178-.14563.59207 0 .78707.36124 1.3606 1.3796 1.9264zm-1.2339-2.5184c.34485-.93629 1.194-2.3349 1.2624-1.8977.0687.37774.78984.44664 1.4766.13758.3434-.1717 1.4766-1.906 1.4766-2.2838 0-.12583-.72644-.0572-1.2103.0624-.11825.12237-.3039.30152-.55811.53849-1.2576 1.1446-2.1649 2.4513-2.4472 3.443zm3.0053-3.9815c.2775-.28716.1717-.25041-.29452.0936.0747-.0331.17716-.0646.29452-.0936zm-.29452.0936c-.0376.0166-.0706.0332-.0921.05-.48985.37681-.65747.41086-.68562-.17455-.032.17964-.0716.33981-.12123.46656l-.18889.498.63532-.498c.18154-.14027.32565-.24849.45248-.34206zm-.77768-.1245c.1673-.93978.0955-2.4776-.20725-3.328-.33291-.99871-.49137-1.088-.2895-.30836-.12372-.60777-.0125-.49104.2895.42859.22321.65246.27485 1.2535.22334 2.3008-.0184.39644-.0264.69211-.0161.90696zm-.49675-3.6364c.031.15252.0731.33847.13507.58302.12069.45736.19168.86765.21454 1.2588-.0146-.49033-.0964-.98235-.249-1.4819-.0408-.13655-.0734-.2549-.10061-.35992zm.34961 1.8418c.024.80767-.14108 1.6108-.49901 2.4344.0852-.17708.15533-.33773.1987-.4653.23799-.69234.33924-1.3029.30031-1.9691zm-.49901 2.4344c-.2173.45188-.54301 1.0192-.85917 1.5186.35744-.5174.64329-1.0219.85917-1.5186zm-.85917 1.5186c-.0256.037-.0491.0737-.0755.11092l-.56993.81616c.17091-.2063.40471-.54684.64538-.92708zm-.64538.92708c-.0953.11502-.17129.18947-.21832.20826l.0327.0573zm-.21832.20826-.31062-.54378c-.70397-1.2019-2.6786-2.0087-4.7561-1.9744l-.15946.005.43411.0289c.70398.0343 1.6998.20621 2.1977.34357.94435.29189 2.1635 1.2362 2.3524 1.82.0687.1717.15442.32621.2231.32621.005-.00039.0122-.003.0189-.006zm-5.2262-2.5129-.85364-.0568.40921.0717zm-.44443.0148-.42631.0141 1.2878.13733c.005.00054.01.001.0146.002zm.87603.15318.0885.0156c1.923.30906 2.6098.5665 3.3653 1.2533.29754.27109.52821.578.6904.9145-.54014-1.283-1.8319-1.9325-4.1442-2.1834zm4.1442 2.1834c.14883.35351.24038.75532.28069 1.21-.007-.43408-.10237-.84008-.28069-1.21zm.28069 1.21c.003.19639-.0111.39821-.044.6054-.0758.56115-.0434.74807.26082 1.1388-.17576-.26184-.19216-.5382-.19216-1.2246-.001-.18074-.01-.35333-.0246-.51963zm.21681 1.7442c.0334.0497.0766.10059.12249.15192-.045-.0542-.0858-.10474-.12249-.15192zm.12249.15192c.004.005.007.009.0116.0143.006.007.0139.014.0201.0209-.0111-.0119-.0213-.0236-.0317-.0352zm.0317.0352c.0278.0298.0578.0615.0903.0936-.0309-.0313-.0623-.0626-.0903-.0936zm.0903.0936c.0353.0357.0724.0717.11167.1079-.0409-.0385-.0766-.0733-.11167-.1079zm.11167.1079c.007.006.0114.0114.0184.0179.007.007.0181.0148.0259.0219-.0148-.0132-.03-.0265-.0443-.0397zm.0443.0397c.95091.85229 2.9695 1.8469 6.3442 3.1376 1.9059.72114 3.932 1.5623 4.4986 1.8542.96153.48076 1.0817.61819 1.6826 1.7858.84133 1.6655 2.5585 3.9491 4.3442 5.8034.78983.82417 1.4422 1.5283 1.4422 1.5798s-.27464.15448-.60087.20599c-.32623.0687-.84137.22312-1.1504.34331l-.54956.24045.63533.37778c.36057.20604.61811.41209.58376.44643-.002.003-.006.005-.0111.007.52945.10619 1.0919.21603 1.6094.31338l.35916-.26912c.39921-.30906.49886-.38637.72663-.18838-.42558-.44651-1.0132-1.0512-1.6711-1.7176-2.73-2.73-4.6704-5.1681-5.7006-7.177l-.68664-1.3222-1.4595-.68689c-.80699-.37774-2.5412-1.0816-3.8633-1.5624-2.8745-1.0545-5.7122-2.4284-6.5331-3.1718zm18.828 16.095-.0531.0398.66978.10312c.35748.0605.59914.0947.76159.10261-.32771-.0525-.8163-.13976-1.3783-.24548zm1.3783.24548c.19379.031.34054.0518.38859.0518.0139 0-.0654-.0928-.19794-.23869.10506.1461.0543.19882-.19065.18687zm.19065-.18687c-.0428-.0596-.10906-.1336-.19694-.22486-.11861-.12708-.20765-.22206-.28295-.28798.20527.2154.36348.3848.47989.51284zm-3.1784-.37199c-.82958-.16639-1.5683-.32257-1.8627-.40092.23987.0927.47907.16572.72336.22184.55045.12952 1.0547.21312 1.1394.17908zm-1.8628-.40099c-.17411-.0673-.34892-.14618-.52592-.23592.15306.0867.29211.15644.40796.20021.022.009.0627.021.11796.0357zm-.52592-.23592c-.86767-.49149-2.2463-1.6034-3.1804-2.5813-.91001-.94435-1.0818-1.2192-1.0818-1.7171 0-.55533-.2033-1.3402-.51083-2.0986.25329.6337.41715 1.3105.47637 1.9958.10302.96152.12024 1.013 1.3393 2.1462 1.2046 1.1243 2.1099 1.8255 2.9573 2.2551zm8.2537-30.065c.21419.0883.47966.20559.80811.35489.37774.1717 1.2534.56639 1.9402.89262.6868.30907 1.1676.60117 1.0818.65268-.10302.0687-.0859.53209.0858 1.2704.29189 1.2534.56647 1.5626 1.5795 1.7687.66963.13735.82421-.13735.56666-1.0989-.15453-.54944-.36051-.80694-1.0473-1.2362-.48076-.30906-.85842-.58381-.85842-.63532 0-.0827.40826.16073 1.2045.69971-1.1767-.8531-2.7023-1.6027-5.3608-2.6686zm5.3608 2.6686c.23797.17253.46305.34979.67934.53447-.21741-.19531-.42137-.36128-.59609-.47888-.0317-.0216-.0527-.0349-.0833-.0556zm.67934.53447c.89353.8027 2.0189 2.1173 2.3227 2.7664.23133.49349.35802.76422.38935.914.0134-.008.0226-.0158.0226-.0211 0-.0343-.17155-.42928-.36043-.89287-.24038-.53227-.85865-1.3223-1.7-2.1464-.22114-.21873-.44391-.42325-.67431-.61998zm2.7121 3.6804c-.0721.0453-.32277.12955-.61244.20197-.20654.059-.51498.21498-.83075.40745.46827-.2663.87512-.42455 1.1396-.42455.23648 0 .34202-.001.30358-.18487zm-1.4432.60942c-.41331.23504-.87394.55352-1.3328.93186-.44642.39491-.89297.70399-.996.70399-.081 0-.11522.0614-.0757.14035.0584-.0621.18037-.16063.35061-.27767.29189-.18887.90993-.65247 1.3735-1.0302.20537-.16136.44486-.32478.68035-.46832zm-2.4045 1.7762c-.0359.0381-.0533.0656-.0272.0656.0277 0 .0241.0367-.00026.0961.0371-.0649.0525-.11752.0345-.14764-.003-.005-.005-.009-.007-.0141zm-.0274.16172c-.17446.30515-.85497.89992-1.0815.89992-.22321 0-.77255 1.2704-.92708 2.0946-.0687.36057-.0516.65243.0171.65243.3434 0 1.9573-1.0646 2.1462-1.408.12019-.20604.15463-.70387.10312-1.1846-.0503-.40227-.0713-.61206.008-.79554-.0483.0477-.0965.0942-.14487.14311-.80699.80699-1.3737 1.3564-1.2706 1.2191s.42913-.58391.73819-.99599c.20928-.26741.3609-.50055.41198-.62502zm.26535.25881c.64373-.63533 1.2821-1.1634 1.8529-1.5413-.38402.22882-.78997.51937-1.1909.86018-.38674.32521-.57928.48868-.66199.6811zm1.8529-1.5413c.60269-.35911 1.1512-.5649 1.5393-.5649.17277 0 .29112.007.39588.0777-.0623-.0686-.12028-.1133-.17279-.12928-.36957-.12319-1.0065.11605-1.7624.61646zm1.9352-.48718c.10763.11857.22901.31445.36118.57873-.14008-.32797-.24318-.49928-.36118-.57873zm.36118.57873c.10636.24901.23318.58293.41047 1.0606.91001 2.4553 1.511 4.8591 1.5969 6.4388l.0735 1.1778c.0227-1.5749-.20452-2.9823-.79479-5.0411-.47046-1.6411-.91956-2.9034-1.286-3.6362zm2.0808 8.6772c-.00082.0569-.001.11345-.003.17078l.0151.0249zm-.003.17078-.48291-.79931c-.70397-1.1676-.82418-1.2534-.96154-.70399-.0687.25755-.48073.85855-.90998 1.3393-.6868.75549-.75538.92727-.66953 1.4595l.0858.58377-.498-.4809c-.29189-.27472-.5151-.42923-.5151-.32621 0 .0858-.27464-.13743-.60087-.498-.49793-.53227-.5667-.72109-.42934-.97864.10302-.18888.29204-.29196.41224-.24045.15453.0687.3605-.10297.5322-.46354.37774-.72115.25764-1.6311-.34332-2.6613l-.46379-.78976-.32621.70399c-.1717.37775-.54924 1.0472-.82397 1.4593-.29189.42925-.60103.94432-.68688 1.1675-.0712.18993-.25221.35513-.55384.51284.88901-.26142 1.4086.00081 2.494 1.1011 1.0555 1.0555 2.042 2.561 2.7548 4.1638-.40278-1.2751-.37223-2.0829.0953-2.6527l.42934-.5322.42934.32621c.41208.32623.41209.32618.70398-.0516.12489-.16392.19242-.24474.21505-.19543.0341-.2524.061-.48459.0767-.68034.018-.2614.0301-.51453.0365-.7631zm-.11318 1.4434c-.0929.68848-.24527 1.5426-.41022 2.3429.14221-.59703.2625-1.1751.31515-1.5121.0843-.52442.12222-.77159.0951-.83076zm-.41022 2.3429c-.0897.37645-.18612.75898-.28572 1.0976l-.37224 1.3315c.005-.001.009-.004.0118-.009.1493-.24591.41009-1.2746.64614-2.4198zm-.65796 2.4291c-.0713.017-.31302-.44523-.55484-1.074-.0787-.19855-.16272-.39604-.25001-.59232.0706.22332.15276.4592.25001.71255l.48064 1.2191zm-6.0537-6.9312c-.13756.0405-.2834.0925-.44216.15695-.1909.0771-.32155.14134-.4155.19567.10765-.0431.23195-.0904.3813-.14411.18548-.0689.34171-.1381.47636-.20851zm-.85766.35262c-.5824.23312-.55986.30576.0455.1484-.2381.0374-.26258-.0229-.0455-.1484zm.0455.1484c.14087-.0222.35156-.0772.62753-.17254.20828-.0753.4075-.10609.60339-.0915l-.0538-.08-.80711.24044c-.1416.042-.26387.0761-.36998.10363zm1.2309-.26409.40971.60665c.30906.48076.49797.63536.63533.498.29189-.29189.37774-.20597 1.0302.75555.39491.60095.61822 1.1332.61822 1.4937 0 .37774.15442.73843.48065 1.0647.14838.16863.23917.27982.28044.3486.0504-.00098.0802-.0128.0802-.0397 0-.36057-1.1161-2.4552-1.7858-3.3824-.64967-.87896-1.186-1.3033-1.749-1.3451zm3.4546 4.7672c-.50293.01-3.3413-1.1992-5.147-2.1598.96175.56965 2.5439 1.3307 3.7335 1.7425.49793.18887 1.0644.37769 1.2533.46354.16681.0626.224.0601.16022-.0463zm-5.147-2.1598c-.48197-.28548-.811-.52376-.85112-.64413-.0687-.18887-.51499-.65253-.99575-1.0131-1.1847-.89285-2.3008-2.0776-2.7128-2.8846-.1717-.3434-.32622-.66972-.32622-.68689 0-.0343.25754-.0513.58377-.0513.0753 0 .14989.003.22435.008-.50274-.0813-.97226-.10125-1.3232-.0427-.20873.0313-.54515.12194-.8881.22887.15956.003.10606.14767-.15946.44066-.22321.27472-.42908.49811-.42908.53245-.008.008-.0644-.004-.14739-.0287.25263.13167.50127.29236.62803.40645.30779.27848.8002 1.129.93865 1.576.053-.11878.28748-.11405.98443-.0651 1.614.0858 1.5282-.0171 1.3909 1.8373l-.12023 1.6311.51511.48065.5322.49799-.37777.39488c.42014-.46957 1.2231-.85794 2.0881-1.0586-.18718.0337-.34947.067-.43965.0971-.32623.10302-.36055.0688-.32621-.36042.0343-.27472.15439-.48089.29175-.48089.13737 0 .25767-.17174.29201-.37778l.0516-.39488.89263.51511c.49793.27472.89288.56664.89288.63532 0 .0836-.3762.18268-.82397.23542.0631-.005.12604-.009.18864-.0121.58378-.0343 1.0476-.0688 1.0476-.086s-.63526-.41212-1.4251-.89288c-.78983-.46359-1.5798-1.0302-1.7516-1.2362-.25755-.29189-.12006-.2403.48089.17178.26687.18098.64215.39717 1.0742.62703zm.38532 1.4284c-.27663.0222-.55671.0674-.831.13104.24051-.0434.52619-.0874.79655-.12601.0121-.001.0224-.004.0344-.005zm-2.9191 1.1897-.37778.39488.0397-.0272zm-.33804.36772-.0568.0616.60087-.42934c.0217-.0157.0433-.0299.0649-.045-.033.0199-.0662.0402-.0991.0621zm.60892-.41274c.27695-.16686.54705-.25855.6391-.21253.0858.0515.17178.0344.17178-.0687 0-.1331.45203-.31526.95676-.42833-.69116.0999-1.2081.3176-1.7676.70952zm1.7676-.70952c.33407-.0483.709-.0695 1.1494-.0697-.0557-.0284-.16397-.0342-.33778-.0342-.24314 0-.53502.0419-.81164.10388zm1.1494-.0697c.0819.0417.0495.13208-.0629.32621-.18887.36058-.086 2.1293.17154 2.5242.0687.1202.37772-.13737.84131-.70398.5151-.65247.72135-1.0475.72135-1.4595 0-.32946.005-.49582.24271-.48065-.61044-.142-1.2237-.20624-1.9082-.20624h-.006zm1.914.20624c.14171.033.2833.0706.42556.11218-.19157-.069-.32823-.10595-.42556-.11218zm.42556.11218c.29074.10477.70671.28261 1.3061.54025.41385.1795.69479.30159.90243.40469-.14691-.0891-.33161-.18405-.57622-.30182-.58165-.28032-1.1116-.49076-1.6323-.64312zm2.2086.94494c.37368.22656.48959.42062.62149.84458-.0932-.46774-.12244-.5968-.62149-.84458zm.62149.84458c.002.008.003.0131.004.0211.12019.49793.0858.5153-.36067.46379-.37774-.0687-.73811.10291-1.5966.7382-1.0645.78982-1.099.82424-.68688.94444.66963.18887 2.5411.17176 2.6613-.0171.0515-.10302.18899-.17178.29201-.17178.0194 0 .0358.007.05.0201-.0526-.61681-.20539-1.4484-.3247-1.8745-.0134-.0459-.0259-.0831-.0387-.12425zm.36344 1.9988c.00039.005.001.01.002.0141.0198.22601.0322.40975.0362.57245.0408-.29679.0345-.52121-.0377-.58653zm.0377.58653c-.0645.46883-.24762 1.1198-.48366 1.6258.036-.0843.071-.16091.10387-.2236.30372-.58102.39326-.86034.37979-1.4022zm-.48366 1.6258c-.0277.0593-.056.11655-.085.17128-.22321.42925-.46359 1.0303-.5151 1.3222-.10302.5151-.17171.56666-.70399.56666-.48076 0-.73807.15431-1.4764.89262l-.89287.91023 1.2533.0513c1.0817.0515 1.2362.086 1.1675.34357-.22185.73382-.44324 2.3987-.44593 3.2282.0121-.12219.0246-.24401.034-.37803.11323-1.666 1.0792-5.7372 1.6645-7.108zm-1.6985 7.4861c-.16944 1.1518-.07989.82639-5e-4.01685 0-.005.00048-.0118 5e-4-.0169zm-.87603-.03474c-.0767-.13153-.18321-.28541-.3071-.45247.61466 1.0257 1.0647 1.6466.3071.45247zm-.3071-.45247c-.20802-.39615-.36268-.76575-.36268-.93815 0-.60095-1.8543-2.4555-2.0775-2.0778-.0682.11369-.21493.0726-.4985-.15469 1.3148 1.271 2.3659 2.3982 2.9387 3.1706zm-2.9387-3.1706c-1.0737-1.0379-2.3187-2.1688-3.6223-3.2792-2.0045-1.7079-3.7801-3.3833-5.1234-4.809-.0439-.0147-.0786-.0165-.0963.001-.10302.10302 2.2322 2.2665 5.3228 4.945 1.1332.9787 2.4724 2.1634 2.9704 2.6442.22624.22043.40412.38176.54881.49774zm-8.7457-8.0882c.0838.028.20303.10614.31566.2075.32623.29189.34356.29176.60112-.22335.15453-.27472.27465-.72109.27465-.97864 0-.5151-1.0131-2.5068-1.202-2.3866-.0687.0515-.25738.56658-.42908 1.1675-.24038.91001-.25754 1.1674-.0687 1.5108.0836.16712.12762.26016.13129.29653.12157.13297.24712.26833.37702.4062zm-.37702-.4062c-.72262-.7904-1.2972-1.4919-1.6784-2.0596l-.0327.0463.60087.82421c.3434.46359.73853.94422.91023 1.0644.1436.12446.20458.17059.19995.12475zm-1.6784-2.0596.34508-.48592c.48076-.6353.48076-1.3909 0-2.4726l-.33703-.75378c-.45177.54911-.77811 1.1549-.84761 1.6982-.0687.53227.0685.82418.82396 1.9918.005.007.0108.0152.0156.0224zm.008-3.7124c.1516-.18427.31699-.36153.49221-.52844l-.51586.47537zm.49221-.52844.10211-.0941c-.0343.0312-.0685.062-.10211.0941zm.10211-.0941c.70149-.63827 1.532-1.0961 2.198-1.0961.28723 0 .56147.0514.81893.14965-.0288-.0298-.0711-.0556-.13204-.081-.807-.30906-1.803.0342-2.8504.99575zm3.0169-.94645c.0686.071.0505.16666-.0463.34809-.0858.18888-.12024.51531-.0516.72135l.10312.37777-.41223-.39513c-.22321-.20604-.46359-.37752-.5151-.37752-.18887 0-.30896 2.0258-.15443 2.4379.18887.48076 1.2878 1.2535 1.5453 1.0818.27473-.15454.42932-1.2706.24045-1.6826-.13736-.30906-.0858-.44642.30911-.77265l.43336-.35313c-.002-.003-.003-.005-.004-.008-.35843-.68102-.85843-1.1535-1.4475-1.3783zm1.4517 1.3858c.0518.0955.10074.18206.14538.25781l-.11519-.28245zm.14538.25781.0737.18109c.10263.27366.171.32551.13758.12223-.0408-.0314-.11607-.14177-.21127-.30332zm.21127.30332c.0216.0167.034.0125.034-.0191 0-.0478-.0163-.11577-.04-.19241-.0214.048-.014.1156.006.20951.00013.00079.00012.001.00025.002zm-1.5727-2.194c-.0896-.0467-.17946-.0901-.26484-.12601l-.52542-.22284-.0754.034.498.18889c.14568.0546.27404.0984.36771.12601zm-.79026-.34885.54981-.24724-.5908.22989zm.54981-.24724.33628-.13079c.19527-.0741.41884-.14856.6401-.21756-.13967-.002-.44191.1043-.91476.32069zm3.1877-.53447c.33983.0549.6943.13836 1.0385.24498-.33128-.13895-.67962-.22084-1.0385-.24498zm1.0385.24498c.38352.16085.74444.39705 1.0722.70801.72114.66963 2.0947 1.2706 2.1977.96154.0343-.12019.36071-.25735.73845-.30886.80699-.13736.84123-.27479.15443-.75555-.27472-.20604-.63529-.60092-.77265-.90998-.15453-.30906-.48083-.82426-.75555-1.1333l-.49775-.60087-.20624.96154c-.15453.6868-.32622 1.0129-.58377 1.1331-.16242.0708-.29378.10986-.39412.12048.19097.11122.36947.23166.53145.36042.18887.15453-.0343.0857-.5151-.15468-.29495-.14748-.62674-.27575-.96909-.3818zm.95274.17606c-.0744-.0433-.15226-.0839-.23039-.12425.01.0951.0873.13939.23039.12425zm-.23039-.12425c-.0115-.1132.0733-.29815.26409-.54553.24038-.30907.42909-.72118.42909-.89288 0-.18887.15469-.63536.34357-1.0131.18887-.37774.34331-.80694.34331-.97864 0-.4636-1.0131-2.4037-1.202-2.2835-.25755.15453-.70393 1.734-.65242 2.3522.0172.37774-.10287.7554-.36043 1.116-.39491.5151-.41218.82433-.10312 1.6313.053.12711.0198.18189-.18989.1733.4006.11144.78079.26165 1.1278.4409zm-1.1278-.4409c-.23482-.0653-.47577-.11828-.72009-.15619-.25046-.0391-.4848-.0658-.67808-.0802.21697.0453.48327.0976.78095.1489.28941.0526.48703.0822.61722.0875zm-1.3982-.23643c-.14595-.0304-.28668-.0604-.33502-.0742-.10444-.0261-.0492-.23177.1489-.56994-.39212.52737-.5041.79028-.25177.6557.0374-.028.20718-.0288.43789-.0116zm-.18612-.64413c.008-.0109.0145-.0201.0229-.0312.97869-1.3049 1.5451-3.039 1.7168-5.1852l.10312-1.202-.25755 1.3735c-.0301.15478-.0579.29023-.086.42808.16741-.65403.17522-.55943.12047.13859-.10302 1.3393-.70407 3.0906-1.3909 4.1208-.0905.13168-.16644.25081-.22888.3574zm1.4993-4.6168c-.0426.16646-.0883.34778-.15443.61948-.15453.66963-.34865 1.2769-.58125 1.8205.33159-.72292.51077-1.3362.73568-2.4399zm43.973 6.3198c-.25755 0-.65256.15451-.87577.32621-.15132.11715-.70322.41733-1.3949.77492.48492-.22529.79396-.35423.81113-.32848.0343.0343-.51512.37767-1.2191.78976-.36821.2091-.66048.38475-.88508.52969l.54176-.30635 1.2878-.75555.63532.42934c.3434.24038.78977.42933.97865.42933.39491 0 2.3522-.8585 2.3522-1.0302 0-.20604-1.7168-.85867-2.2319-.85867zm-3.5637 2.0921-.76335.43185.249.0141c-.0385-.0508.13827-.20326.51435-.44593zm-.51435.44593c.0163.0215.0727.0241.16525.009zm.16525.009 1.114.0626c1.0645.0687 1.7515.20599 2.2838.46355.42925.20604.61795.32623.42908.25755-.19013-.0515-.40456-.10065-.62879-.14638.0319.009.0652.0165.0966.0262 1.0302.30906 1.2018.22325.27465-.13732-.92718-.37775-2.8501-.68686-3.3824-.56667-.0751.0197-.1355.0323-.18687.0405zm3.198.63734c-.53417-.15253-1.131-.23033-1.7508-.23743.52831.0297 1.174.1198 1.7508.23743zm-1.7508-.23743c-.15662-.009-.30624-.0141-.43612-.0111-.50735.0115-.67501.0163-.56843.0591.33686-.0351.67362-.0518 1.0046-.048zm-1.0046.048c-.75247.0785-1.5019.25214-2.1801.51083l.32748-.0893-.36067.61823c-.20605.3434-.32624.66958-.25756.72109.0515.0515.46375.13738.92734.18889.77265.0687.85833.0344 1.7168-.7382.49793-.44642.87572-.85854.82421-.89288-.0515-.0515-.34337-.15466-.65243-.22334-.18047-.0451-.29295-.0744-.34508-.0953zm-2.1801.51083-.0503.0138c-.0401.0123-.10426.0412-.17832.077.0751-.0316.15159-.0614.22862-.0908zm-.22862.0908c-.20634.0868-.40601.18056-.59433.28345-1.2161.66243-2.0282 1.2705-2.8587 2.2714.56566-.65197 1.1406-1.1385 1.8285-1.5845.63402-.42268 1.2858-.80677 1.6245-.97034zm-3.453 2.5549c-.6536.75331-1.296 1.7306-2.0858 3.1216.0169-.0285.0343-.0596.0511-.0873.80114-1.3474 1.4229-2.2969 2.0348-3.0343zm-2.0858 3.1216c-.60871 1.0251-1.3042 2.5696-1.739 3.7609.38701-1.0444.9897-2.4137 1.4983-3.3331.0822-.14788.16158-.2885.24069-.42783zm-1.739 3.7609c-.18451.49792-.31723.91674-.36972 1.1821.0689-.30367.19966-.7162.36972-1.1821zm-.36972 1.1821c-.007.0347-.0157.0725-.0196.10162.007-.0341.0111-.0642.0196-.10162zm-.0196.10162c-.0211.10914-.0355.20634-.0355.27666 0 .77426.26215.9856 1.3325.67129-.0436-.0608-.0377-.30348.007-.58552.10302-.6868.0685-.70396-.65268-.32622-.29189.13736-.58356.22337-.63507.15469-.0254-.0233-.0298-.0898-.0161-.1909zm1.2971.94795c.007.01.0146.0156.0239.0156.0687 0 .70401-.22328 1.408-.498 1.2706-.49793 4.2582-1.0473 5.6661-1.0473.67164 0 2.869-.37471 4.5899-.73995-1.4266.28908-3.3528.59-4.5212.68839-2.421.18887-4.5674.60094-5.8208 1.0989-.55028.21755-.99202.37851-1.3458.4824zm11.688-2.2697c.45426-.092.86327-.1829 1.1733-.2656-.33732.0841-.74321.17431-1.1733.2656zm1.1733-.2656c.31418-.0783.58071-.15153.76133-.21354 1.001-.34868 1.8455-.85996 2.4309-1.446-.7875.72934-1.75 1.2415-2.9804 1.6004-.064.0191-.13615.0389-.21177.0591zm3.1922-1.6595c.26744-.24768.51479-.52034.74549-.82069.24038-.30906.24038-.2918 0 .17179-.148.31185-.38117.62855-.68085.93714.38499-.30435.63193-.37048 1.1273-.37048.42925 0 .92721-.12019 1.1504-.25755.36057-.27472 1.408-1.6654 1.408-1.8886 0-.15453-1.7857.0515-2.318.25755-.22321.0859-.53215.49781-.73819.99574-.14806.33758-.38595.66658-.69418.97512zm.0646.28824c-.10876.086-.22653.18782-.36646.31641-.41208.37774-1.2019.89262-1.7342 1.1502-.20655.0968-.37906.18115-.54705.26309 1.073-.45712 2.0116-1.0746 2.6477-1.7297zm-2.6477 1.7297c-.0636.0271-.12668.0546-.19115.0805l-.96154.39488 1.0302.12022c.52793.0609.87297.10803 1.0508.14437.0321-.0642-.10034-.0928-.43285-.0928-.54944 0-1.2191-.25758-1.0302-.37777.0322-.0214.25586-.13336.53472-.26937zm.92834.73995c-.011.022-.0411.0481-.0893.0787-.004.002-.0104.005-.0148.008.28416-.0149.31758-.0426.10412-.0863zm-.10412.0863c-.0797.004-.17581.007-.29428.01-.91001.0172-4.4643.48089-5.7177.73845l-.94443.18888.0606.0254.96959-.19719c.91002-.20604 1.0303-.18877 1.3222.10312.51511.5151 1.5108.42923 2.3522-.18889.49793-.36057.92742-.5151 1.3567-.5151.35008 0 .74652-.081.89514-.16424zm-6.8958.9623-.0433.009.5151.20624c.58344.23338 2.0491.92451 3.074 1.4316-.92703-.46922-2.1907-1.0811-2.7478-1.3116zm3.5459 1.6467c.56913.28807 1.0187.52536 1.0765.57798.001-4e-4.004-7e-5.005-.00075.0197-.0197-.44701-.26353-1.081-.57723zm1.0765.57798c-.008.003-.0423-.004-.0883-.0151.004.001.0377.0131.0412.0143.0501.0167.0634.0156.047.00075zm-.0883-.0151c-.21442-.0773-1.1627-.40441-2.1907-.75831-1.0302-.36058-2.3696-.77262-2.9362-.90998-1.0474-.22322-1.0816-.22323-2.7986.32621-.41015.13336-.80758.27444-1.2032.42607l1.1517-.39186c1.5968-.53228 1.7169-.54936 2.6784-.34332.56661.12019 1.9919.54946 3.1766.96154 1.0044.34436 1.8563.62552 2.122.68965zm-9.1287-.91601-.51384.1748v.0294c.17126-.0705.34271-.13865.51384-.20423zm-.51384.20423c-.63041.25963-1.268.55536-1.9545.91148l.16877.69016c.29189 1.1504.46374 1.2362 1.1849.5151.5151-.5151.60087-.72106.60087-1.3735zm-1.9545.91148-.0201-.0825-1.5795.91023c-1.4222.82731-2.1372 1.2611-2.529 1.614 1.6548-1.0592 2.9654-1.8383 4.1286-2.4417zm-4.1286 2.4417c-.67577.43253-1.4035.90723-2.2101 1.4422-1.7305 1.1537-3.2233 2.1519-4.0869 2.7345l.7387-.43361.32621.41198.30912.41223.42933-.41223c.24038-.22321.4978-.66952.54931-.99575.0858-.41208.29202-.70411.73845-.996.73831-.5151.87552-.53218.87552-.0858 0 .44642.32641.4292 1.0476-.0516.42925-.27472.6351-.5837.75529-1.116.0945-.3701.19551-.6111.52743-.90998zm-6.2969 4.1766-.0511.0299c-.14446.0867-.27961.18108-.39739.27415.11688-.0798.26293-.17892.44845-.30408zm-.44845.30408c-.14878.1016-.30477.20807-.3237.22385-.048.0576-.068.12056-.0563.18587.0405-.10496.18457-.25525.38004-.40972zm-.38004.40972c-.008.0197-.0123.0381-.0123.0543 0 .27788.53793.27165 4.3336-.0699-.41665.0268-.81233.0556-1.1572.0873-2.0432.18887-2.9533.20595-3.0735.0858-.053-.053-.0813-.1059-.0905-.15744zm4.3213-.0156c.88064-.0565 1.8804-.10117 2.8761-.12752-.92252.005-1.7896.0296-2.3162.0775-.20858.019-.36843.0328-.55988.05zm2.8761-.12752c.73171-.004 1.4967.003 2.165.0259l2.7815.10287.0355-.17732c-.71257.0277-1.5474.0325-2.5936.0229-.7331-.006-1.5568.004-2.3884.0256zm4.982-.0485c1.0422-.0406 1.8173-.13163 2.5644-.30735-.15567.034-.26087.0452-.28195.0211-.0343-.0343.086-.37774.2749-.77265.20604-.37775.36042-.73825.36042-.78976 0-.27472-1.9574.29184-2.4382.72109-.15453.13736-.3433.49787-.41198.78976zm2.5644-.30735c.0756-.0165.16495-.0393.26283-.0661-.0876.023-.17502.0455-.26283.0661zm.26283-.0661c.48048-.12633.96342-.28828 1.5156-.49649.1723-.0663.32708-.12941.46682-.19115-.6041.2479-1.4375.5381-1.9824.68764zm1.9824-.68764c.33759-.13854.60539-.26368.70097-.34105.0959-.0794.1766-.18202.24271-.30132-.17721.24207-.47247.43419-.94368.64237zm-64.245-20.547c-.0595-.003-.0988.001-.11167.0143-.13736.12019.89278 1.8374 1.3049 2.1464l.28899.23844c1.2657-.23902 3.3217-.38592 4.8449-.34156 1.0474.0172 1.9231.0342 1.9231.0342 0-.0172-.73823-.44626-1.6311-.94419-1.8028-.97869-2.1119-1.3393-.44644-.498.56661.29189 2.026.97876 3.2279 1.5282.094.0431.15947.0732.24774.11368-.45203-.23583-.68772-.46707-.90017-.85213-.44642-.77265-.54944-.82396-2.318-1.0815l-1.4251-.20625.77266.79001c.42925.42925.77265.8413.77265.90998 0 .0687-.41223.13733-.92734.13733-.49793 0-1.2534.0514-1.6826.10287-.75548.10302-.75553.10317-1.0818-.61797-.1717-.37774-.48066-.78986-.66953-.89288-.36058-.19531-1.7728-.56151-2.1892-.581zm9.6484 2.2916c.13251.0691.2811.13858.45625.21253.0285.0116.0589.0252.0878.0372-.16795-.0773-.35017-.16086-.54403-.24975zm.54403.24975c.44796.20618.81741.37948 1.1122.5229-.29597-.16484-.72205-.36122-1.1122-.5229zm-8.7102-.1421c-.20384.0385-.38936.0791-.54654.12198-.0807.0186-.0206.0393.14311.0584-.0326-.008-.0268-.0165.0287-.0239l.4809-.0687zm-.40343.18033c.11888.0309.78157.0655 1.7113.079 3.537.0343 6.3359.68692 7.8296 1.8373.64247.49306 1.5052 2.1166 1.7186 3.1296-.0708-.43538-.25882-.97322-.55107-1.5843-.46359-.99586-.72111-1.3049-1.4251-1.7513-1.7514-1.1332-4.0866-1.6312-7.5721-1.6484-.80042 0-1.422-.0282-1.7113-.0619zm11.26 5.0459c.0207.12736.0327.24709.0327.35589v.456c.01-.11207.0171-.24887.0171-.40444 0-.11812-.018-.25634-.0498-.40745zm.0327.81189c-.0132.14769-.032.24799-.0516.24799-.005 0-.0562-.0226-.0918-.0375l.14337.0717zm-.14337.21052-1.2302-.61496c-.42796-.21397-.88021-.41837-1.3416-.60942.25054.13727.55662.29042.9467.4721.77499.36556 1.4205.66662 1.625.75228zm-2.5717-1.2244c-.55451-.30379-.80783-.52229-.89062-.747-.15453-.41208-.17166-.42921-.39487-.13732-.15341.21733-.23187.27204-.70072.16575.65459.20259 1.3299.44681 1.9862.71857zm-1.9862-.71857c-.41029-.12699-.81134-.23696-1.195-.32823.15578.0531.33412.105.55635.16248.27193.0746.47774.12928.6386.16575zm-1.195-.32823c-.5423-.18498-.76058-.38976-1.1607-.93664-.32623-.42925-.87544-.9442-1.2188-1.1331-.56661-.2919-.73844-.30903-1.7686-.13733-.61812.10302-1.1676.24025-1.2191.29176-.15453.13736.61812.72122 1.5453 1.202l.84131.42934-.66953.10287c-.0709.0128-.1392.0266-.20876.04.0467-.007.0943-.0163.1401-.0229l.85842-.11997-.42934-.32621c-.24038-.18888-.41198-.49795-.41198-.70399.0343-.37774.0344-.37781.10312.0171.0639.32993.37907.58697.96884.77995.0246-.024.0665-.054.13003-.0931.32623-.20604.34332-.20604.34332 0 0 .0732-.10012.14577-.22536.16574.31917.0849.70131.15539 1.1524.21178.37551.0485.79098.12834 1.2294.23265zm-2.3818-.44443c-.0872-.0232-.17038-.0473-.24799-.0727-.0618.0603-.003.0785.18134.0785.0228 0 .045-.002.0667-.006zm-1.4772.30333c-.44353.0703-.91152.17435-1.1134.25202-.00072.00035-.001.00065-.002.001.29954-.0823.69139-.17169 1.1152-.25302zm-1.1152.25302c-.37713.1036-.60951.19459-.5649.23919.0343.0515.41213 9e-5.82421-.0858.41208-.10302 1.1162-.18889 1.5798-.18889.73832 0 .80686.0344.80686.42934 0 .32623-.13727.48066-.60087.66953-.32623.13736-.60086.32638-.60086.41223 0 .22321 1.6654.89288 2.2148.89288.25755 0 .72108-.22322 1.0473-.51511l.60112-.5151-.37778-.32646c-.41208-.3434-.51523-.70374-.22334-.70374.0858 0 .48093.12012.85867.27465.6868.27472.84127.46349.5322.66953-.39491.22322-.37774 1.1161 0 1.8029.22322.37774.44643.68689.51511.68689.30906 0 1.0131-1.1847 1.0131-1.6826 0-.30907.0515-.54956.12022-.54956.0128 0 .0497.0146.0973.0355-1.0078-.4876-2.0861-.9475-2.8617-1.203-1.1847-.37774-3.0221-.49786-4.5846-.27465-.58226.0856-.66877.0687-.39664-.0677zm7.843 1.5453c.0853.0413.169.0827.25302.12425-.10136-.0519-.19426-.0985-.25302-.12425zm.25302.12425c.25852.13245.62144.33039 1.0232.56138 1.1847.66963 1.2706.77285 1.8715 2.0091.36057.72114.78984 1.5108.96154 1.7684.16733.23779.24824.35771.24623.41852.0123-.002.0253-.003.0284-.007.0343-.0343-.12018-.29188-.32622-.58377-.22321-.30906-.53235-.97858-.68689-1.5108-.25755-.84133-.41193-1.0645-1.1331-1.5453-.46545-.32-1.1935-.71948-1.9847-1.1109zm4.1024 4.7574c-.12365.0176-.68775-.0298-1.328-.0923-.0191-.002-.0385-.003-.0576-.005.29052.1028.68822.15996 1.1565.15996.15054 0 .22723-.005.22913-.0624zm-1.3856-.0976c-.28474-.10076-.46657-.24558-.50907-.42406-.10302-.39491-1.5968-2.0946-1.7342-1.9744-.0343.0515-.0859.5493-.12022 1.1331l-.0513 1.0476-1.6313.0858c-.89285.0515-1.8371.15448-2.0946.20599-.32623.0859-.48089.0515-.48089-.0687 0-.12019-.20599-.65236-.46354-1.1846l-.46355-.97865-.37777.85842c-.56661 1.2362-.53217 2.0089.10312 2.6957l.5151.56667.34332-.42934c.18887-.24038.34332-.56674.34332-.73844 0-.44643.70394-.63508 2.4553-.63508.0911 0 .16349.00064.24498.001-1.151-.0446-2.0369.0148-2.3567.18763-.22321.12019-.34352.13747-.29201.0344.32417-.49479 3.5474-.68394 6.5701-.38305zm-3.9214.16097c.37969.0147.78935.0416 1.2161.0787-.27589-.062-.63742-.0761-1.2161-.0787zm1.2161.0787c.30784.0692.52618.19765.87426.43537.82417.56661 1.2191.6524 1.2191.27466 0-.41209.20595-.42941 1.6311-.15468.31165.056.5517.10252.75806.14814-.42945-.10844-.9886-.21469-1.8054-.35414-.90806-.15891-1.8277-.27546-2.6771-.34935zm4.4825.70349c.22512.0568.41559.11452.58503.17782-.13887-.0672-.33306-.12213-.58503-.17782zm.58503.17782c.30505.14758.39693.3582.52843.79026.1717.49793 1.1162 1.3393 1.5111 1.3393.10302 0 .20604-.15463.25755-.36067.10302-.36057.32603-.36064 1.3391.0171.53227.20604.53234.25752-.0171.90998-.37774.44642-.42935.65246-.36067 1.2878.0515.41208.20614.87567.36067 1.0302.25755.25755.32621.24045.84131-.27465.48077-.49794.54956-.66959.54956-1.4938 0-.5151.0343-.94444.0858-.94444.18887.0172 2.6442.68687 2.6957.75555.0343.0343-.20616.2404-.54956.44644s-.56649.44636-.48064.53221c.24038.24038 2.1118.65258 2.4208.54956.15453-.0515.498-.29208.75555-.53246l.42908-.39714c-.63465-.17621-1.4038-.38082-2.3693-.63306-3.9148-1.0302-5.8379-1.717-7.057-2.524-.33129-.21851-.5973-.37009-.94041-.49825zm10.367 3.6553c.2223.0617.413.11705.60414.17254l-.56968-.20448zm.60414.17254c-26.766 37.536-13.383 18.768 0 0zm.47788 6.7776v.10916c2.1901.06451 1.6975-.01961 0-.10916zm0 0v-.64639c0-.65246-.12031-.90997-.80711-1.7513-.77266-.96152-.82407-.97874-.92709-.56666-.0687.22321-.12015.82421-.13732 1.3393-.0172.73832.0685 1.0303.36042 1.3393l.19366.20247c.34657.0268.71892.05 1.1286.0722.065.003.1247.008.18889.0111zm-1.3174-.0832c-1.3882-.10728-2.3494-.27287-3.4857-.64388.0482.11038 1.799.53039 3.069.75052l.60087.0858zm-3.4857-.64388c-.00067-.002-.005-.004-.005-.005.0172-.0515.25766-.25757.54955-.44644.56662-.36057.85837-.99599 1.0644-2.2838l.10313-.7553-.66979.37778c-1.4251.80699-1.6482 1.0815-1.6311 2.043 0 .41331-.0129.76159-.0382.85163.21678.08.42444.15208.62652.21806zm-.62652-.21806c-.61979-.22861-1.3117-.51606-2.1595-.88584-2.9361-1.2878-3.1594-1.4594-3.9148-2.9704-.36057-.72115-.82409-1.7686-1.0473-2.3009-.36104-.88794-.49957-1.0977-.42959-.77441.0204-.0529.16653.23028.44669.91174.22321.53227.68673 1.5624 1.0473 2.2835.61813 1.2362.70416 1.3222 1.8202 1.906.96152.5151 4.0348 1.8544 4.2237 1.8544.005 0 .009-.009.0133-.0241zm-7.5512-6.9315c-.0258.067.15062.67448.51535 1.7015l.58377 1.6484-.13834-.10111c.0995.0838.15544.12685.15544.11821 0-.0343-.27464-.82404-.60087-1.7684-.28908-.80054-.46219-1.353-.51535-1.5986zm.96078 3.2488c-.27404-.23086-.89027-.78434-1.6006-1.4447.36051.42884.83434.88718 1.2925 1.2196zm-1.6006-1.4447c-.32849-.39074-.56335-.75712-.59609-.97814-.0515-.48076-1.0647-2.2838-1.2536-2.2838-.0687 0-.18881.27482-.27466.61822l-.1333.58377c.56783.51529 1.3182 1.1954 2.0908 1.9057.0588.055.10913.10061.16676.15418zm-2.2576-2.0599c-.21448-.19463-.49191-.446-.60489-.54956-.22533-.20731-.2411-.1868-.1333-.037l.73417.60363zm-.73819-.58653-.0385-.0317-.77265-.65243.72109.77265c.58379.61812.70406.8586.68689 1.3909-.0172.49793.1029.77261.48064 1.1675.54945.56661.85856.65246 1.0818.25755.12019-.22321.18887-.20608.5151.13732l.3071.33477c.0325-.008.0536-.016.0536-.0257 0-.0515-.27482-.36065-.61822-.68688-.78513-.74714-2.1139-2.243-2.4168-2.664zm2.9814 3.3766c-.11965.0284-.46148.0431-.89841.0513l.96908.0259zm-.89841.0513-2.8942-.077.54705.0616 1.376.0241c.35978 0 .68037-.003.9711-.009zm-2.3471-.0153-.56415-.0101 1.5453.13732c.15889.0126.28303.0248.42456.037-.18462-.0238-.36857-.0475-.57924-.0714zm1.4057.16423c1.8015.23186 2.4347.47492 3.0265 1.1135.5151.53227.60112.73833.60112 1.4766 0 .9787.29189 1.5109 1.0302 1.8886.66963.34341.80689.32608.92708-.15468l.10312-.42908.96154.58376c.53227.32623 1.0128.63531 1.0815.70399.0515.0515-1.2017.0686-2.8157.0171-.50009-.0129-.95429-.0309-1.3788-.0538 1.0793.0902 2.1746.13685 2.9928.10539l1.4593-.0516-1.0815-.58377c-.78982-.42925-1.5283-1.0818-2.7302-2.3695-1.7407-1.8697-2.009-2.0598-4.1769-2.2465zm3.5366 5.146c-1.2763-.10666-2.5302-.27521-3.2745-.46128-1.084-.28135-2.2441-.77617-3.4412-1.461l-.01.10463 1.3048.60086c1.6927.7734 3.0176 1.0871 5.4206 1.2168zm-6.7157-1.9223.0589-.63357c.0858-.6868.0343-.78989-.63532-1.5282-.39492-.42925-.78993-.78976-.87578-.78976-.0858 0-.15443.46353-.15443 1.0473v.88558c.54072.37639 1.0772.71575 1.6067 1.0186zm-1.6067-1.0186c-.77353-.53844-1.555-1.1494-2.3351-1.83-.004-.004-.008-.007-.0121-.0106.48993.48237 1.0508.97602 1.626 1.4185l.72109.58377zm-2.3471-1.8406c-.59853-.5893-1.09-1.161-1.3708-1.6024.23003.52932.55006.89213 1.3708 1.6024zm-1.3708-1.6024c-.0508-.11701-.099-.23951-.14537-.37878-.15522-.45969-.26766-1.0682-.33552-1.7382.0503.6804.13381 1.277.24975 1.6524.0375.12814.11752.28595.23114.46455zm-.48089-2.117c-.0638-.86287-.0731-1.859-.0251-2.7189-.0739.8912-.0622 1.8561.0251 2.7189zm-.0251-2.7189c.0338-.40716.0844-.79921.15468-1.1575.0505-.29676.0929-.56009.12902-.79579-.0304.14732-.0672.31375-.11192.50378-.0837.36715-.13994.87873-.17178 1.4495zm.2837-1.9533c.1026-.49679.1257-.74712.079-.71858.0146.0571-.0205.33666-.079.71858zm.079-.71858c-.00089-.003-.00076-.012-.002-.0138-.009-.009-.0313.0388-.0611.12223.0273-.0625.0487-.0996.0631-.1084zm-.0631.1084c-.0596.13639-.14845.39937-.2651.8051-.41208 1.4595-.63529 3.5542-.5151 4.8419l.0795 1.0352.0579.0636-.0516-1.8544c-.0515-1.4595.0172-2.2321.30911-3.4684.15164-.64448.30213-1.1905.38532-1.4231zm-.70072 6.6822-.62904-.69191c-.088-.10003-.21715-.26051-.37098-.45852.12061.1921.26723.39079.42254.56164l.58377.66953zm-1-1.1504c-.14607-.23263-.25323-.45542-.28145-.60589-.0858-.4636-.49781-.97876-.99574-1.2707-.0643-.0402-.23601-.2362-.45424-.51007.63852.92288 1.2941 1.8237 1.7314 2.3866zm-1.7314-2.3866c-.10075-.14562-.2026-.28899-.30131-.43436-.48624-.70726-.926-1.3335-1.2483-1.7802.15111.25639.36433.57704.68161 1.042.31045.44742.62011.8615.86797 1.1726zm-1.5496-2.2146c-.32318-.54837-.33278-.77285-.26258-1.2759.0858-.72114.0343-.87584-.63533-1.8889-.6868-1.0302-.73841-1.0643-.87577-.70374-.0858.22321-.18887.85829-.25755 1.4077-.10302.97869-.0859 1.0131.5322 1.5969.34341.32623.72113.5495.84132.49799.0825-.0309.22808.12097.41601.42355-.19875-.42272-.30894-.69875-.27843-.73266.0167-.008.2165.25416.52013.67507zm-.2417.0576c.18001.38287.43248.88571.72989 1.4565-.0744-.17506-.17346-.38989-.30433-.66098-.1576-.32889-.30077-.59459-.42556-.79554zm.72989 1.4565c.19898.46808.20604.62678.0561.62678-.30906 0-.20592.51513.29201 1.6655.22321.49793.44623.75546.7553.84132.30906.0687.75556.54942 1.4595 1.614l.996 1.4938-.84157-.32622c-.44642-.1717-.90989-.30911-.99574-.30911-.1717 0 .32618 1.4251.72109 2.0604.24038.37774.65246.53226 1.5453.58377.5151.0172.56661-.0342.5151-.41199-.0515-.36057.1202-.24029.96154.68689.56661.61812 1.4937 1.4937 2.0775 1.9573.56661.46359 1.013.87557.96154.92708-.0175.0204-.14818.0237-.34407.0156.30267.0228.49201.0256.51585.002.0343-.0343-.32616-.34341-.78975-.70399-1.2534-.96152-3.3654-3.2453-4.6704-5.0997-.63183-.87815-2.1781-3.6324-3.2154-5.6231zm8.1596 11.425c-.73182-.0551-2.1556-.23305-3.692-.46278.49156.14443 2.81.42634 3.692.46278zm-3.692-.46278c-.0416-.0122-.0714-.0235-.0848-.0335-.0858-.0687-.70388-.17184-1.3735-.22335-.13197-.0106-.28968-.0282-.45851-.049.0603.0101.12412.0221.18386.0319.57383.0968 1.1595.18815 1.7329.2739zm-1.9168-.30584c-2.7876-.46531-6.1183-1.2033-7.7572-1.6995.0513.0351.10557.0641.16298.0833 1.1254.42796 5.5665 1.3662 7.5942 1.6162zm-7.7572-1.6995c-.17898-.12222-.31585-.33302-.36922-.58653-.1717-.77265-.82425-1.3221-1.9746-1.614-.56662-.13736-1.0302-.18897-1.0302-.10312 0 .36057.87563 1.8716 1.2362 2.112.20604.15453.61809.2749.90998.2749.42614 0 4.0451 1.0476 5.2903 1.5164.16917-.0664.0597-.10336-.24221-.15996-1.3564-.27472-5.5975-1.7859-5.443-1.9404.0343-.0343.48089.10313.996.292.1632.0626.37612.13288.62677.20876zm4.0625 1.5996c-.13872.0545-.46136.12824-1.0493.25202-.0432.009-.0778.0181-.11946.0272.0467-.004.0891-.006.13657-.0101.94435-.0859 1.2879-.1717 1.0647-.25755-.009-.003-.0234-.008-.0325-.0116zm-1.1688.27918c-.73092.0586-1.3632.0719-1.46.007-.0858-.0515-.17178-.00022-.17178.11997 0 .0923-.22376.36706-.54478.67607.49363-.35617 1.0934-.567 2.1766-.80334zm-2.1766.80334c-.19103.13783-.36796.29827-.55208.48995.0727-.0605.15172-.12834.23844-.20448.11163-.0957.21655-.19202.31364-.28547zm-.55208.48995c-.51723.43089-.70556.48058-.94645.34508-.18887-.0858-.49794-.17178-.70398-.17178-.4636 0-2.4381.99601-2.3351 1.1849.0515.0687.56672.27474 1.1333.44644.84133.25755 1.1675.27469 1.5624.13733.46359-.18887.4979-.17179.65243.34331.0137.047.0203.0661.0317.10463l.037-.77416c.0343-.91001.10314-1.1333.54956-1.5969.006-.007.0127-.0122.0191-.0189zm-.60564 2.3899-.0146.30736.0332-.24624c-.006-.0196-.012-.0386-.0186-.0611zm.0186.0611c.0989.32585.10905.26089.13858-.38884.0138-.83108.30739-1.5502.79881-2.0136-.48327.41272-.74284.97858-.85037 1.7561zm.93739-2.4025c.26448-.22588.5965-.40575 1.0073-.54906l-.0548-.0644-.56666.32622c-.13939.0796-.26808.1762-.38583.28723zm1.0073-.54906.54629.6396c.54944.66963.65236.72109 1.4422.72109.56662 0 .87576-.0859.94444-.24045.10302-.29189-.34362-1.2362-.65268-1.3735-.12019-.0515.60112-.0688 1.6313-.0344 1.8372.0687 1.8372.0688 2.524.68688.75548.6868 1.0817.73842 2.0088.36067.41357-.17148.81946-.25173 1.162-.24195-.27456-.0665-.66274-.14815-1.2136-.25604-3.1421-.60096-5.4772-.78981-6.971-.58377-.55529.0787-1.025.18351-1.4218.32194zm9.6063.51787c.5556.1346.60754.2016.33174.25906-1.5978.37663-2.9661.92845-4.0129 1.6087 1.2706-.75065 3.2509-1.54 4.0816-1.54.36057 0 .41228-.0344.20624-.17178-.15583-.0992-.36614-.14908-.60665-.15594zm-3.6812 1.8677c-.43651.25789-.79025.51125-.98342.72638-.24038.25755-.30911.25748-.82422.0171-.5151-.24038-.65236-.24026-1.6997.0345-.63529.1717-1.1161.39498-1.0818.498s.53219.4121 1.116.70399c.94436.46359 1.0473.56644.97865.94418l-.003.0148c.20898-.47065.71862-1.286 1.1706-1.8177.35116-.40298.79896-.77815 1.327-1.1213zm-2.4975 2.939c-.061.13732-.0999.24933-.0999.31138.004.0175.0178.0158.0382-.002zm-.0616.30911-.0211.10539.25755-.44644c.13736-.25755.53219-.61817.85842-.82421.44642-.25756.60114-.44632.53246-.66954-.0496-.14873.11094-.36512.41122-.6069-.7481.55217-1.3398 1.2038-1.7163 1.9118-.14083.28166-.26226.47706-.32219.52994zm2.0385-2.4417c.42201-.31148.89385-.59125 1.4052-.83151-.58079.2725-1.0769.56719-1.4052.83151zm1.4052-.83151c.011-.005.0224-.0102.0335-.0153-.0111.005-.0224.0102-.0335.0153zm.0335-.0153c.6398-.29747 1.3403-.53373 2.082-.69267.2506-.057.54385-.10294.8642-.14035-.72456.0517-1.1464.1576-1.8258.3808-.39065.13428-.7698.28908-1.1205.45222zm2.9462-.83302c.55744-.0398 1.2894-.0485 2.484-.0485.75104 0 1.3126.004 1.7681.0151-1.402-.11251-3.0342-.10875-4.2521.0335zm4.2521-.0335c.78398.0629 1.4911.1622 2.0146.29402-.52178-.19312-.95739-.26786-2.0146-.29402zm2.0146.29402c.0604.0224.11912.043.18335.0687l.22334.05156c-.11655-.043-.25673-.0825-.40669-.12023zm1.4874-23.546c.10551.0588.19439.1134.25856.16046.24038.1717.51502.30905.60087.32622.0687 0 .46344.39494.87552.89287.3741.44892.68961.95993.93639 1.5086-.22284-.50323-.48774-.98071-.76461-1.3542-.57335-.76031-.69961-.94659-1.9067-1.534zm2.6718 2.8894c.0369.0835.0726.16748.10715.25201-.0342-.0848-.0698-.16886-.10715-.25201zm61.464 3.7715c-.42205.009-.70464.18189-1.0523.53924-.29189.29189-.5322.60104-.5322.68689 0 .0687.24031.25745.5322.41198.53227.27472 1.099.25768 1.7858-.0342.20498-.0854-.31776.65028-1.1114 1.6364 1.655-2.0391 1.9986-2.4326 1.781-2.0141-.0565.10588-.16729.28797-.30584.50831.23418-.31033.47749-.58982.64941-.7314l.5151-.4638-.92734-.27465c-.59344-.18029-1.006-.27184-1.3343-.26459zm1.0971 1.7344c-.16343.21656-.32243.4475-.44946.65922-.33781.56302-1.1532 1.7772-2.0539 3.0634.80437-1.1421 1.9343-2.8179 2.5033-3.7227zm-2.5033 3.7227c-.0522.0741-.1099.15683-.15896.22586.0541-.0768.10545-.14945.15896-.22586zm-.15896.22586c-.0302.0429-.0607.0853-.091.12827.0297-.0415.0599-.0845.091-.12827zm-.091.12827c-.30816.43064-.54087.74027-.61521.80636-.30988.28036-.41174.42315-.25906.42405.0255-.0398.0588-.0873.10463-.1494.25553-.35354.51398-.71858.76964-1.081zm-.87427 1.2304c-.10834.16926-.0115.14165.51661-.0807.37774-.15453.68682-.30904.70399-.32621.00019-2e-4.003-.005.003-.005-.67508.27395-1.0755.4131-1.2234.41223zm1.2234-.41223c.24982-.10138.52529-.21522.8559-.35539 1.2019-.49794 2.1976-.89276 2.2319-.85842.0343.0343-1.219.80701-2.7815 1.7342-.82102.47818-1.5466.90972-2.0644 1.2224l.91401-.53547c.94435-.53228 1.9231-.97865 2.1806-.97865.30906 0 .73824-.25773 1.3048-.79.48077-.44643.85867-.87551.85867-.94419 0-.1717-2.0605-.20609-2.4897-.0516-.15453.0687-.42928.4293-.63532.82421-.18675.37349-.35461.70872-.37501.73292zm-1.7581 1.7427-.78573.46027.04.002c.029-.0249.30337-.19546.74574-.46254zm-.74574.46254c-.002.001-.0229.0144-.0229.0148 0 0 .3823.0152.86597.0307zm.84308.0455 1.0227.0553c.77273.038 1.4656.10374 1.8061.15644-.0646-.075-.81713-.16305-2.0979-.19089-.28401-.006-.49874-.0135-.7309-.0209zm2.8288.21177c.0549.0638-.38697.11822-1.4284.11822-2.4897.0172-3.2795.29194-6.9539 2.3695l-2.9201 1.6477.9799-.10237c1.1161-.12019 1.1504-.13744.89288-.42933-.27472-.2919-.18877-.37768 1.3909-1.3049.92719-.53227 1.8028-.97864 1.9402-.97864.44642.0172 2.5753-.68686 2.4895-.82422-.13736-.24038.6697-.36049 2.3008-.34332.89285 0 1.5797-.0344 1.5282-.10312-.018-.0135-.0991-.0308-.22008-.0496zm-11.302 4.1354-.17052.0179.0762.0355zm-.0943.0533-.0588.0332.50202.17203zm.44317.20523.66551.30861c.66963.30906 1.9917 1.202 2.9704 1.9746 1.1467.93101 1.6895 1.4016 1.7194 1.501.12484.0595.18637.0752.18637.0443 0-.0343-.82403-.72121-1.8371-1.5282-1.8715-1.4766-2.5412-1.8887-3.6057-2.2664zm5.3552 3.7843c-.29156-.13906-.96862-.54618-2.3031-1.3637-1.6655-1.0302-2.9533-1.614-4.241-1.9402-.0936-.0277-.18637-.0467-.28069-.0601l1.1736.38632c.75548.24038 1.7342.66965 2.1806.96154l.82396.5151-.46354.10312c-.36057.10303-.44645.20588-.37777.42909.0858.27472.0172.30919-.60087.22334-.54944-.0858-.82425-.0172-1.202.25755-.27472.20604-.80689.41197-1.1846.48065-.39491.0687-.70399.13738-.70399.18889 0 .37774.78979 1.4766 1.1675 1.614.60095.24039 2.1292.51519 2.2322.42934.0343-.0515-.086-.30923-.29201-.60112l-.37777-.5151.82421-.36042c.75548-.3434.92712-.36066 2.0775-.17179.70397.10302 1.3052.15457 1.3567.12023.0343-.0515-.0516-.30911-.22335-.56667-.30906-.46359-.30907-.46359.0687-.25755.24428.13378.36115.17848.34583.12752zm-6.8248-3.364-.18285-.0601-.20951.0453c.13955-.008.26824-.003.39236.0148zm-.39236-.0148c-.27971.0163-.60519.0843-1.044.21227-1.2706.34341-4.6016.85842-5.649.85842-.41208 0-.66962.0689-.58377.13758.00035.00029.002.00096.003.001l.70147-.0702c2.1634-.24038 3.4857-.46339 5.1168-.82397zm-7.2743 1.2095-.32873.0329 1.202.32621c.66963.1717 1.6825.44634 2.2835.60087l.86043.23215c-.35143-.0968-.67021-.18586-1.1006-.30081-1.5058-.41069-2.8058-.80373-2.9166-.89137zm4.0172 1.1922c1.1672.32137 1.9546.55469 2.1361.64136.16915-.10809.36653-.26388.64363-.49574.5151-.41208.92708-.82412.92708-.90997.0172-.10302-.56643-.18876-1.2704-.2231-1.2706-.0515-1.288-.0517-1.7516.49775l-.46354.54956zm2.1361.64136c-.0188.012-.0397.0272-.0578.038.11287.0103.13248-.002.0578-.038zm-.0578.038c-.0608-.006-.14202-.016-.26006-.0357-.27472-.0515-2.9018-.42923-5.8379-.84131-4.4986-.65246-5.5973-.75538-7.1254-.66953-.0969.004-.19084.0112-.28598.0171h1.2302c1.1504 0 1.4766.0516 1.4766.24045 0 .13736.27489.48076.60112.77265.63529.54944.97868.61795 2.3866.42908l.80686-.12022-.37777-.39488c-.30906-.32623-.32602-.41198-.11997-.41198.70397 0 5.2367.72106 5.5114.85842.15453.10302.6353.22314 1.0302.27465.4354.0653.65094.067.96405-.11871zm-13.509-1.5295h-.24648l.003.0151c.0798-.006.16212-.0101.24321-.0151zm-.24321.0151c-.73466.0575-1.4121.16859-2.0307.32722l.55107.56767c.30906.32623.87562.7726 1.2362.97864l.66953.39488-.12022-.66953c-.0687-.36057-.15448-.87571-.20599-1.1504zm-2.0307.32722-.0156-.0161c-.68923.21866-.46889.15598.01559.0161zm29.539-12.545c-.0228.0281-.0343.0419-.0576.0707.0188-.0232.0391-.0477.0576-.0707zm-.0576.0707c-.18794.23255-.38725.47564-.59785.72688.18069-.21767.36142-.43491.54779-.66551.0206-.0254.0298-.0364.0501-.0614zm-.59785.72688c-.681.81239-1.4503 1.6848-2.1135 2.3738l-.50781.53422c.7312-.71856 1.6307-1.7147 2.6213-2.908zm-2.6213 2.908c-.33167.32594-.62942.59656-.88533.80309l.088.0362zm-.88533.80309-.87326-.35866c-1.1332-.46359-1.5625-.39486-2.2493.30911l-.498.5151.5322.30886c.30906.1717.54956.36072.54956.41223 0 .0412-.52868.31647-1.0971.59106l.54754-.23064c1.0817-.46359 2.2321-.97859 2.5755-1.1846.14419-.0811.31712-.20447.51284-.36243zm-3.6359 1.7777-1.3838.58276c.003.004.006.0108.008.0108.0982 0 .76037-.2964 1.3755-.59358zm-1.3838.58276c-.0111-.0166-.0246-.074-.039-.14663l.0131.15745zm-.039-.14663-.0385-.46052c-.0362-.51284-.12257-.93552-.27566-1.2986.11315.29158.19197.64242.2241 1.0066.022.31928.0579.58985.09.75253zm.63859-4.8012c-1.0512.011-1.7309.32286-2.0164.92381-.20132.4362-.33049.6014-.57119.5649.81103.41014 1.3091.84814 1.5956 1.4626-.0596-.1376-.12604-.26153-.20021-.36218l-.37777-.54931h.46354c.3434 0 .72111-.25768 1.4251-.996l.96154-.97864-.80686-.0516c-.16526-.0107-.32318-.0152-.47335-.0136zm-.99197 2.9513c.012.0278.0248.0544.0362.0835-.0119-.0279-.0235-.0563-.0362-.0835zm-1.5956-1.4626c-.0102-.005-.0194-.0104-.0297-.0156-.35617-.18067-.60031-.2934-.75504-.35489.0784.0406.16526.0869.27415.1489.22146.12569.38176.20205.51057.22158zm-.78472-.37048c-.63885-.33102-.29804.0124.63482.57823.42925.25755.72978.46336.95299.67155-.25703-.2614-.58344-.51164-.98745-.75756-.78053-.46832-.96032-.63526-.60036-.49222zm1.665 1.329c.11707.12723.21632.25761.30107.39136-.082-.14074-.18044-.26779-.30107-.39136zm.30107.39136c.0396.068.0767.13852.11091.21429.291.66513.2798 1.464.003 1.9643.17828-.24396.23743-.53874.23743-.95148 0-.45033-.11427-.85293-.35136-1.2271z"/>
		<path d="m57.779 33.353c-.46359 1.013-.5151 1.2019-.32623 1.6312.10302.27472.37774.66963.60095.87567l.39492.36058.36057-.58379c.18887-.32623.36057-.82416.36057-1.116 0-.53227-.42925-1.8544-.70397-2.1634-.0858-.0858-.37775.3434-.68681.99587z"/>
		<path d="m61.231 33.078c-.58379.56662-.85851.96153-.85851 1.2706 0 .54944.32623 1.511.53227 1.511.37775 0 1.2191-.99586 1.3564-1.6312.22321-.91001.20604-1.9746 0-1.9746-.10302 0-.56661.37774-1.0302.82416z"/>
		<path d="m38.326 36.838c-.12019.82416-.13736 1.8372 0 2.1806.15453.39491 1.2706 1.0302 1.4594.84133.0858-.0858.20604-.44642.27472-.78982.10302-.68681-.41208-1.7514-1.2019-2.4897l-.41208-.39491z"/>
		<path d="m41.777 38.401c-.18887.32623-.29189 2.0776-.13736 2.4725.13736.37774 1.1332 1.1676 1.4423 1.1676.24038 0 .48076-1.3049.32623-1.7342-.20604-.54944-1.5281-2.0948-1.6312-1.9059z"/>
		<path d="m45.863 39.998c.25755.82416.92719 2.0089 1.2019 2.1119.15453.0515.58378.10302.96152.10302.56661 0 .66963-.0515.66963-.3434 0-.9787-.92718-1.7685-2.524-2.1634-.39491-.10302-.42925-.0858-.30906.29189z"/>
		<path d="m52.594 1.9833c-.84134 1.2362-.89285 1.4766-.4636 2.3523.20604.42926.42926.78983.51511.78983.36057 0 1.0302-1.0817 1.0302-1.6483 0-.73831-.3434-2.1291-.5151-2.1291-.0687 0-.32623.2919-.56661.6353z"/>
		<path d="m48.696 4.8335c0 .3434.78982 1.9059 1.0646 2.1291.13736.12019.63529.27472 1.0817.34341l.82416.10302-.10302-.65247c-.0515-.36057-.27472-.82416-.48076-1.0474-.44642-.48076-2.3866-1.1847-2.3866-.87567z"/>
		<path d="m56.595 5.3829c-.10302.29189-.27472.87567-.39491 1.3393-.15453.72115-.13736.87568.15453 1.2706.18887.24038.49793.54944.70397.6868.3434.24038.39491.20604.63529-.27472.37774-.72114.3434-1.2706-.15453-2.2149-.70397-1.3564-.72114-1.3736-.94435-.80699z"/>
		<path d="m68.099 6.3101c-.13736.8585-.15453 1.2878-.0172 1.5453.24038.44642 1.1676 1.0989 1.3908.96152.27472-.1717.4636-1.1676.32624-1.6655-.1202-.46359-1.1847-2.0089-1.3908-2.0261-.0515 0-.18887.53227-.30906 1.1847z"/>
		<path d="m40.232 7.3918c-1.0302 1.3908-1.0645 2.0089-.18887 3.1936.12019.1717.75548-.37774.99587-.87568.22321-.49793.24038-.75548.0858-1.5968-.10302-.56661-.24038-1.0817-.32624-1.1504-.0687-.0858-.32623.10302-.56661.42926z"/>
		<path d="m74.675 7.7696c-1.0474.97869-1.1676 1.2191-.91001 2.1634.20604.77266.44642.84134 1.0817.32624.56661-.42926.84134-1.3564.77266-2.4725l-.0515-.85851z"/>
		<path d="m66.227 8.4564c-.48076.5151-.87567 1.0474-.87567 1.1676 0 .3434.3434 1.511.44642 1.511.37774 0 1.1676-.65246 1.3736-1.1161.25755-.63529.32623-2.4897.0858-2.4897-.0687 0-.53228.41208-1.0302.92718z"/>
		<path d="m35.647 8.3534c0 .41208.54944 1.9059.77265 2.0948.13736.10302.5151.27472.8585.3434.58378.13736.60095.12019.60095-.41208 0-.72115-.3434-1.1847-1.3049-1.717-.87567-.49793-.92718-.5151-.92718-.30906z"/>
		<path d="m77.594 9.4522c-.18887.22321-.44642.56661-.54944.78983-.18887.3434-.15453.39491.24038.54944.66963.25755 1.1332.20604 1.717-.15453.77265-.49794 1.6312-1.3221 1.511-1.4595-.0515-.0515-.66963-.10302-1.3393-.10302-1.0474 0-1.2706.0515-1.5796.37774z"/>
		<path d="m42.189 10.86c-.20604.63529-.36057 1.2534-.36057 1.3736 0 .25755.99586 1.4766 1.2019 1.4766.25755 0 .6868-.96153.6868-1.4938 0-.49793-.46359-1.614-.91001-2.1978-.24038-.30906-.27472-.25755-.61812.84134z"/>
		<path d="m71.876 10.757c-.13736.0343-.65246.25755-1.1504.49793-.92718.42925-1.2534.94435-1.2534 1.9746 0 .48076.0343.49793.56662.39491.87567-.1717 1.3736-.6353 1.8028-1.717.42925-1.0645.42925-1.2878.0343-1.1504z"/>
		<path d="m24.075 12.131c-.0687.12019-.1717.73831-.22321 1.3736l-.10302 1.1676.63529.54944c.36057.30906.70397.5151.78982.46359.0858-.0515.25755-.39491.36057-.75548.15453-.54944.13736-.75548-.0858-1.2534-.42925-.89285-1.2191-1.7857-1.3736-1.5453z"/>
		<path d="m73.49 13.092-.48076.39491.48076.30906c.25755.1717.66963.30906.92718.29189.54944-.0172 1.7514-.49793 1.7514-.70397 0-.18887-1.3564-.70398-1.8372-.70398-.20604 0-.58378.18887-.84133.41209z"/>
		<path d="m27.491 14.449c-.75548 1.1504-.82416 1.7342-.27472 2.5068.39491.53227.41208.54944.73831.24038.60095-.53227.78982-1.1847.61812-2.1463-.30906-1.6827-.3434-1.6998-1.0817-.60095z"/>
		<path d="m58.775 14.792c-.44642 1.3908-.39491 1.8544.30906 2.524.58378.56661.60095.56661.8585.24038.48076-.63529.48076-1.3393.0343-2.2321-.80699-1.5625-.87567-1.5968-1.2019-.53227z"/>
		<path d="m18.512 16.097.0515 1.4251.72114.60095.72114.60096.20604-.68681c.27472-.96152.10302-1.4938-.89284-2.5068l-.84133-.87567z"/>
		<path d="m31.99 15.685c-.44642 1.2706-.37774 1.8544.24039 2.4897.29189.29189.61812.49793.73831.46359.10302-.0343.29189-.37774.42925-.75548.22321-.63529.22321-.77265-.0515-1.3736-.1717-.37774-.48076-.89285-.6868-1.1676l-.39491-.49793z"/>
		<path d="m38.068 16.99c-.60096 1.2706-.60096 1.6483.0858 2.4725l.42925.5151.3434-.41208c.63529-.77265.63529-1.6483 0-3.0219l-.32623-.68681z"/>
		<path d="m73.164 16.475c-.75549 2.1119-.75549 2.318-.0172 3.1765l.56661.66963.37774-.60095c.46359-.78982.46359-1.2191-.0858-2.3008-.53227-1.0645-.72114-1.2706-.84133-.94435z"/>
		<path d="m21.98 17.076c.36057 1.9402.63529 2.3523 1.7857 2.5755l.54944.10302v-.77265c0-.87568-.36057-1.3221-1.6998-2.1291l-.75548-.44642z"/>
		<path d="m81.835 17.247c-1.8029.60095-2.2321.99586-2.2321 2.1291 0 .58378.24038.65246 1.1847.32623.53227-.18887 1.1504-1.013 1.5453-2.0948.18887-.48076.10302-.54944-.49793-.36057z"/>
		<path d="m41.846 18.14-.92718.87568.10302.89284c.0687.48076.15453.92718.20604.99586.15453.15453.96152-.36057 1.3221-.8585.25755-.3434.30906-.66963.27472-1.5968l-.0515-1.1847z"/>
		<path d="m29.569 17.78c-.0515.0515-.10302.66963-.10302 1.3564 0 1.1332.0343 1.2706.44642 1.5968.99586.78982 1.4423.63529 1.4423-.53227 0-.46359-.1717-.82416-.6868-1.4766-.73831-.94436-.92718-1.1161-1.0989-.94436z"/>
		<path d="m76.855 18.879c-1.0474.63529-1.3736 1.0302-1.3736 1.6827-.0172.42925-.1717.80699-.5151 1.2191-.54944.61812-.66963 1.4423-.3434 2.0776.24038.42925.44642.41208.94435-.10302.34341-.32623.42926-.58378.42926-1.2878 0-.46359.0687-.8585.15453-.8585.44642 0 1.1847-.91002 1.3736-1.6655.12019-.46359.24038-.96152.29189-1.1332.12019-.39492-.22321-.37775-.96152.0687z"/>
		<path d="m70.949 19.926c-1.0474.58378-1.3049.96152-1.3049 1.9574 0 .49793.0687.58378.39492.58378.20604 0 .61812-.15453.92718-.3434.42925-.25755.61812-.54945.89284-1.4766.20604-.61812.36057-1.1676.36057-1.2019 0-.15453-.30906-.0343-1.2706.48076z"/>
		<path d="m17.516 20.527c-.0687.53227-.0515 1.1676.0343 1.408.13737.39491 1.1332 1.2191 1.4595 1.2191.25755 0 .48076-1.2019.30906-1.6655-.18887-.49793-1.3393-1.9402-1.5281-1.9402-.0858 0-.20605.42925-.27473.97869z"/>
		<path d="m34.789 21.059c0 1.2878.0343 1.408.44643 1.7342.49793.37774 1.0817.61812 1.2191.46359.0515-.0515.13736-.42925.1717-.84133.0858-.6868.0343-.82416-.65246-1.6655-1.0989-1.3393-1.1847-1.3049-1.1847.30906z"/>
		<path d="m13.395 20.493c.24038 1.2878.63529 2.0089 1.2362 2.2493.94436.39491 1.2706.32623 1.2706-.27472 0-.89285-.42925-1.4423-1.5625-2.0604l-1.0645-.56661z"/>
		<path d="m43.648 21.076c-.94435.32623-.91001.37774.54945 1.1161.97869.49793 1.3049.48076 2.1462-.10302.60096-.42925.58379-.58379-.0859-.99587-.6868-.41208-1.4766-.41208-2.6098-.0172z"/>
		<path d="m80.015 22.158c-.97869 1.013-1.116 1.3393-.92718 2.0432.29189.99587.41208 1.0989.92718.75549.84133-.56662 1.1847-1.8544.82416-3.1421-.12019-.37775-.13736-.36058-.82416.3434z"/>
		<path d="m38.257 23.412c-.99587 1.1332-1.1332 1.8715-.49794 2.73.22322.30906.25756.30906.66964.0343.75548-.49793.99586-1.5968.66963-3.0906l-.10302-.5151z"/>
		<path d="m49.847 23.291c-.41209.42925-.4636.61812-.4636 1.5796v1.0989l.68681-.66963c.37774-.36057.73831-.80699.78982-.9787.10302-.3434-.22321-1.511-.42925-1.511-.0687 0-.32623.22321-.58378.48076z"/>
		<path d="m76.34 23.703c-.60095 1.0646-.63529 1.5625-.1717 2.3351.41208.66963.63529.65246 1.1676-.15453.30906-.44642.37774-.72114.29189-1.1847-.1717-.99587-.48076-1.8887-.61812-1.8887-.0858 0-.37774.41208-.66963.89284z"/>
		<path d="m34.514 24.03c-.13736.22321-.58378 1.8715-.58378 2.1634s1.013 1.4251 1.2706 1.4251c.29189 0 .61812-.75549.61812-1.408 0-.42925-.91002-2.3695-1.1161-2.3695-.0343 0-.12019.0858-.18887.18887z"/>
		<path d="m24.178 24.888c-.32623 1.3564-.25755 1.6827.37774 2.318.32623.32624.66963.58379.77265.58379.24038 0 .53227-.73832.53227-1.3564 0-.44642-1.1332-2.421-1.3736-2.421-.0687 0-.20604.39491-.30906.87568z"/>
		<path d="m13.876 25.42c.92718 1.116 1.3564 1.3908 2.0604 1.2534.96152-.18887 1.0645-.30906.75548-.92718-.39491-.73831-1.0817-1.0474-2.3523-1.0474h-1.0645z"/>
		<path d="m21.31 27.137c.37774 1.6998.87567 2.3008 1.9746 2.4038.58379.0515.60096.0343.54945-.54944-.0172-.32623-.15453-.77265-.30906-.97869-.22322-.36057-1.8544-1.4251-2.1806-1.4251-.0858 0-.0858.24038-.0343.54944z"/>
		<path d="m10.15 27.653c.22321.6868.78982 1.8372 1.013 2.0089.12019.10302.58378.24038 1.0302.29189.77265.12019.78982.10302.78982-.3434 0-1.0474-.72114-1.6998-2.5412-2.2493-.37774-.10302-.39491-.0858-.29189.2919z"/>
		<path d="m15.232 28.322c-.42926.0858-.84134.1717-.94436.20604-.30906.10302 1.717 1.4938 2.1806 1.4938.25755 0 .72114-.12019 1.0474-.29189.51511-.24038.56662-.32623.42926-.60095-.22321-.42925-1.1847-.99586-1.614-.97869-.18887.0172-.6868.0858-1.0989.1717z"/>
		<path d="m26.976 29.37c-.13736 1.1332.0858 1.6655.92718 2.1119.44642.22321.5151.22321.60095-.0172.27472-.73831.10302-1.3736-.65246-2.2149l-.75548-.8585z"/>
		<path d="m72.838 29.679c-.82417.89285-.92719 1.2534-.60096 2.2149.24038.66963.54945.66963 1.2019.0343.46359-.46359.49793-.60095.49793-1.8029 0-.72114-.0687-1.3049-.15453-1.3049-.0687 0-.49793.37774-.94435.8585z"/>
		<path d="m6.4581 30.005c0 .25755 1.5625 1.5625 1.9917 1.6655.20604.0515.70398-.0515 1.0989-.22321l.73831-.30906-.60095-.65246c-.60095-.61813-.63529-.6353-1.923-.6353-.72114 0-1.3049.0687-1.3049.15453z"/>
		<path d="m9.8922 33.748-.94436.42925.94436.44642c1.2706.60095 1.923.58378 2.5755-.0515l.53227-.5151-.44642-.37774c-.60095-.51511-1.4595-.49793-2.6614.0687z"/>
		<path d="m83.981 33.748c-.82416.73831-.84133.87567-.22321 1.2534.75549.46359 1.0646.42925 2.3695-.18887l1.1161-.54944-.77266-.3434c-1.0817-.48076-2.0604-.54944-2.4897-.1717z"/>
		<path d="m76.117 35.705c-.27472.15453-.807 1.1161-.807 1.4423 0 .15453 1.3908.0858 1.717-.0859.1717-.0858.54944-.48076.8585-.8585l.54944-.68681h-1.013c-.54944 0-1.1332.0858-1.3049.18887z"/>
		<path d="m21.43 36.031c-.30906.0687-.60095.15454-.63529.18888-.0343.0515.37774.39491.91001.80699 1.0645.78982 1.6655.8585 2.5412.29189.3434-.22321.37774-.30906.20604-.58378-.48076-.77266-1.614-1.0474-3.0219-.70398z"/>
		<path d="m81.096 36.753c-.25755.32623-.46359.6868-.46359.78982s.30906.29189.6868.39491c.58379.1717.78983.1717 1.2534-.0515.84133-.41208 1.8715-1.2878 1.6655-1.4251-.10302-.0687-.75548-.15453-1.4423-.20604l-1.2534-.10302z"/>
		<path d="m30.307 37.611c-1.0817 1.3049-1.1504 1.614-.63529 2.6614.25755.53227.53227.49793 1.0645-.13736.37774-.44642.44642-.6868.42925-1.5796 0-.58378-.0687-1.2019-.13736-1.3736-.10302-.29189-.20604-.22321-.72114.42925z"/>
		<path d="m86.556 37.611c-1.3221.66963-1.717 1.2878-1.5281 2.2836.10302.54944.12019.56661.63529.41208.72114-.18887 1.2706-.84133 1.4938-1.7514.10303-.39491.22322-.8585.27473-1.0302.12019-.37774-.0343-.36057-.87568.0858z"/>
		<path d="m79.706 40.152c-.6868.61812-.77265.92718-.29189 1.2019.63529.32623 1.4594.18887 2.4725-.44642.53227-.32623.97869-.63529.97869-.66963 0-.0858-1.0302-.36057-1.9059-.5151-.53227-.10302-.70397-.0343-1.2534.42925z"/>
		<path d="m76.649 40.599c-1.0302.5151-1.3736 1.0474-1.3049 1.9059.0515.60095.0858.65246.54945.61812.27472-.0172.6868-.20604.91001-.41208.53227-.5151 1.1676-2.5755.78982-2.5583-.0858.0172-.49793.20604-.94435.44642z"/>
		<path d="m13.858 41.183c-.32623 1.5281-.25755 1.7685.73831 2.5412l.51511.39491.22321-.39491c.39491-.72114.27472-1.5281-.37774-2.5068-.34341-.48076-.68681-.89284-.75549-.89284-.0858 0-.24038.39491-.3434.8585z"/>
		<path d="m33.003 41.68c-.24038.54945-.44642 1.1504-.44642 1.3221 0 .32623.77265 1.614.96152 1.614.20604 0 .73831-.78982.84133-1.2534.12019-.48076-.53227-2.6957-.77265-2.6957-.0687 0-.32623.44642-.58378 1.013z"/>
		<path d="m61.488 42.11-.66964.18887.49794.36057c.29189.20604.77265.49793 1.0817.65246.5151.27472.60095.27472 1.1504 0 .84134-.39491.89285-.58378.36057-1.0474-.5151-.44643-1.3049-.49794-2.421-.15453z"/>
		<path d="m67.103 43.157c-.42926 1.2706-.36058 1.614.44642 2.3866l.5151.48076.27472-.5151c.15453-.29189.27472-.78983.27472-1.0989 0-.54944-.78982-2.3695-1.0302-2.3695-.0687 0-.29189.49793-.48076 1.116z"/>
		<path d="m57.178 44.101c-.41208.15453-.92718.807-.92718 1.1332 0 .12019.24038.25755.5151.32623.56661.12019 1.3221-.25755 2.0432-1.013.41208-.42925.41208-.44642.0687-.44642-.18887 0-.56661-.0343-.84134-.0858-.27472-.0343-.66963 0-.8585.0858z"/>
		<path d="m6.0461 44.565c.22322.91002.73832 1.923 1.0474 2.0776.46359.25755 1.5796.36057 1.6998.1717.0515-.0859-.0172-.49793-.18887-.92718-.25755-.66963-.41208-.80699-1.3736-1.2706-.58378-.27472-1.1332-.5151-1.1847-.5151-.0687 0-.0515.20604 0 .46359z"/>
		<path d="m87.501 45.029c-1.1504.32623-1.4938.54944-1.6998 1.1504-.32623.92718-.25755 1.1847.32623 1.1847.84133 0 1.3564-.36057 1.9746-1.3908.32623-.53227.60095-1.013.60095-1.0817 0-.13737-.29189-.10302-1.2019.13736z"/>
		<path d="m61.402 45.441c-.48077.22321-.68681.5151-1.0646 1.4079-.24038.61812-.42925 1.1332-.41208 1.1676.12019.12019 2.0604-.72115 2.3523-1.013.22321-.22321.32623-.56661.32623-1.0989 0-.89284-.20604-.97869-1.2019-.46359z"/>
		<path d="m77.491 45.321c-1.1332.27472-1.5968.60095-1.8028 1.3221-.2919.97869-.27473 1.0302.54944 1.0817.41208.0343.72114.0172.6868-.0515-.0515-.0687.0687-.20605.25755-.2919.29189-.1717 1.3908-1.8544 1.3908-2.1462 0-.13736-.24039-.10302-1.0817.0858z"/>
		<path d="m21.259 46.522c-.32623 1.3736-.27472 1.6827.41208 2.318.32623.32623.66963.58378.73831.58378.20604 0 .53227-.82416.53227-1.3393 0-.4636-1.0989-2.4382-1.3564-2.4382-.0687 0-.22321.39491-.32623.87567z"/>
		<path d="m17.207 47.999c-.20604 1.5968-.15453 1.8715.53228 2.4381.77265.6353 1.013.66964 1.1504.13737.24038-.91002.10302-1.4595-.58378-2.318-.36057-.48076-.73832-.91002-.82417-.96153-.0858-.0515-.20604.25755-.27472.70398z"/>
		<path d="m93.167 48.514c-.32624.12019-1.2019.92718-1.2019 1.116 0 .24038.99586.65246 1.5796.65246.30906 0 .99586-.20604 1.511-.44642l.94436-.44642-.94436-.39491c-1.2019-.49793-1.5796-.58378-1.8887-.48076z"/>
		<path d="m29.243 49.441c-.42925 1.3049-.37774 1.717.27473 2.3523.30906.30906.61812.54944.6868.54944.18887 0 .63529-.97869.63529-1.3908 0-.39491-.99586-2.3866-1.2019-2.3866-.0687 0-.24038.39491-.39492.87567z"/>
		<path d="m6.4581 48.892c0 .0858.36057.5151.78982.94435.82416.84134 1.4079.99587 2.3695.61812.58378-.22321.56661-.42925-.13736-1.1332-.54945-.54944-.65247-.58378-1.8029-.58378-.66963 0-1.2191.0687-1.2191.15453z"/>
		<path d="m69.352 49.991c-.96152 1.013-1.0645 1.3221-.65246 2.2836.27472.66963.5151.63529 1.2534-.15453.3434-.37774.39491-.54944.3434-1.7514l-.0515-1.3221z"/>
		<path d="m73.353 49.939c-1.2362.48076-1.6483.94436-1.6483 1.8372 0 .63529.0515.73831.3434.73831.94436 0 1.5968-.6868 2.1463-2.2493.27472-.77265.27472-.75548-.84133-.32623z"/>
		<path d="m8.4842 52.292c-.54944.13736-.94435.32623-.89284.41208.18887.30906 1.8887 1.1847 2.3008 1.1847.24038 0 .6868-.15453.99586-.3434.46359-.2919.53227-.39492.39491-.66964-.18887-.3434-1.2019-.89284-1.5968-.8585-.12019.0172-.66964.13736-1.2019.27472z"/>
		<path d="m40.97 53.717c0 1.0645.0515 1.2706.41208 1.6312.42925.42925 1.2362.72114 1.4251.53227.0687-.0515.10302-.44642.10302-.87567 0-.70397-.0687-.87567-.82416-1.6312-.46359-.48076-.91001-.8585-.97869-.8585-.0687 0-.13736.54944-.13736 1.2019z"/>
		<path d="m25.242 54.112c-.44642.30906-.84133.65246-.87567.75548-.0343.0858.22321.22321.58378.29189 1.2706.20604 1.5281.13736 2.1291-.53227l.54944-.63529-.49793-.22321c-.75548-.30906-.99587-.27472-1.8887.3434z"/>
		<path d="m82.487 53.665c-.42925.10302-.37774.41208.18887 1.0817.46359.56661.54944.60095 1.8372.65246l1.3564.0687-.3434-.39491c-1.1504-1.3908-1.3393-1.5281-2.0432-1.511-.39491.0172-.84133.0515-.99586.10302z"/>
		<path d="m.87788 54.352c-.91002.12019-1.013.18887-.75549.5151.48077.58378 1.5968 1.2534 2.0776 1.2534.27472 0 .72114-.12019 1.013-.25755.42926-.24038.48077-.32623.32624-.61812-.10302-.18887-.44643-.49793-.73832-.66963-.53227-.32623-.84133-.36057-1.923-.22321z"/>
		<path d="m84.582 57.666c0 .41208.5151 1.3564.87567 1.614.46359.30906 2.0261.8585 2.1463.73831.15453-.15453-.82417-2.0261-1.2019-2.2664-.39491-.29189-1.82-.3434-1.82-.0858z"/>
		<path d="m15.558 59.417c-.32623.0858-.65246.22321-.72114.29189-.0687.0687.30906.41208.8585.75548 1.0817.72114 1.5625.73831 2.4553.10302.42925-.29189.48076-.41208.30906-.61812-.58378-.6868-1.6655-.89285-2.9017-.53227z"/>
		<path d="m22.873 60.241c-.53227.49793-.96152.97869-.96152 1.0474 0 .20604 1.9402.18887 2.4725-.0172.39491-.13736 1.2706-1.4766 1.0817-1.6483-.0343-.0343-.41208-.12019-.8585-.1717-.75548-.10302-.80699-.0858-1.7342.78982z"/>
		<path d="m13.412 62.714c-.91001.36057-1.8029.84133-1.8029.97869 0 .22321 2.1978.84133 2.5412.72114.41208-.13736 1.2362-.92718 1.2362-1.1847 0-.15453-1.2362-.80699-1.4251-.73831-.0172 0-.25755.10302-.54944.22321z"/>
	</g>
</svg>
