<svg width="700pt" height="700pt" viewBox="0 0 700 700" xmlns="http://www.w3.org/2000/svg"><path d="M339.58-1.784a351.038 351.038 0 00-14.357.558C217.034 5.2 118.205 61.26 57.564 150.6 5.829 226.82-13.492 320.53 3.814 411.3 21.12 502.073 73.65 582.538 149.95 635.15c76.297 52.612 170.174 73.102 261.157 57.006 90.984-16.097 171.696-67.476 224.532-142.935l5.661-8.34c50.622-76.962 68.583-170.95 49.966-261.468-18.616-90.519-72.3-170.225-149.344-221.737C481.965 17.59 411.305-3.104 339.58-1.785zm5.974 12.68c64.602-.07 129.654 18.826 186.397 58.91l-59.883 88.223-.006-.008c-.923-1.024-1.742-2.145-2.491-3.315-.14-.221-.285-.44-.418-.666-.733-1.232-1.385-2.523-1.883-3.908-1.246-1.806-2.322-3.99-3.405-6.241-1.083-2.253-2.172-4.572-3.445-6.653-.638-1.04-1.32-2.019-2.072-2.9-1.502-1.762-3.277-3.128-5.502-3.79-1.112-.33-2.337-.485-3.697-.424-3.515 1.614-6.555 3.877-9.236 6.574a44.082 44.082 0 00-3.765 4.343v.002c-3.522 4.616-6.363 9.97-8.906 15.337-1.695 3.58-3.256 7.166-4.8 10.545-.844 2.465-1.595 4.976-2.301 7.504-.187.667-.362 1.335-.538 2.006a134.715 134.715 0 00-1.57 6.63c-.08.382-.174.76-.25 1.143a130.94 130.94 0 00-1.356 8.103c-.046.34-.08.682-.123 1.023a125.378 125.378 0 00-.729 7.543c-.021.315-.05.627-.067.942a115.17 115.17 0 00.288 17.525c.542 5.777 1.545 11.487 3.059 17.064l.003.012-109.05 160.66c3.204 8.709 6.267 17.015 9.024 25.088 19.82 5.361 35.626 25.72 37.62 46.271 7.158 38.069 21.546 81.182 59.186 99.087 29.61 16.085 66.16 18.011 97.018 4.234 16.785-8.468 37.215-18.51 42.133-38.321 8.133-26.959-20.65-22.828-34.623-2.848-21.361 21.78-56.793 24.552-84.058 13.319-34.523-14.193-48.026-55.614-41.826-90.165 7.796-43.47 27.803-83.363 41.335-125.165 8.775-21.431 15.236-35.832 1.854-55.363-8.858-13.688-23.74-27.83-17.928-36.573 30.758-46.265 37.442-58.964 52.671-78.61 5.355-6.909 29.918-3.173 38.076.453 8.76-8.811 9.105-26.202 22.534-29.26v.002l3.34.384 3.077 1.411c24.197 22.692 32.978 58.005 30.602 90.272.08 26.827-22.55 46.411-24.671 72.585.483 26.035 13.592 49.54 21.579 73.874 17.15 46.603 36.323 98.293 20.046 147.936-19.47 62.794-96.283 94.483-156.439 73.317-42.602-13.191-70.21-54.35-77.17-96.945-4.222-23.113-5.55-52.938-30.121-64.26-.622-1.045-1.771-1.726-3.115-2.257 11.23 33.729 16.644 63.772 3.837 102.832-19.47 62.794-93.352 95.428-153.508 74.262l-14.74 21.715C3.027 519.185-36.591 311.4 66.825 159.045c64.634-95.224 171.059-148.03 278.73-148.148zM170.28 602.64l8.394-12.367c-9.034-2.25-17.814-5.586-26.047-10.06-37.64-17.904-52.027-61.017-59.184-99.086-2.666-27.47-29.964-54.771-58.616-46.078-11.358 6.896 20.292-2.85 25.23 5.443 24.573 11.322 25.9 41.145 30.122 64.259 6.96 42.595 34.567 83.754 77.17 96.945.969.341 1.953.63 2.93.945zm8.394-12.367l.015.003c38.193 9.374 40.104 7.948 70.958-5.828 16.784-8.467 37.215-18.51 42.133-38.321 8.133-26.959-7.202-15.701-34.623-2.848-26.699 11.745-26.796 11.735-59.691 19.31l-18.792 27.684zm18.792-27.684l112.34-165.509a2145.413 2145.413 0 00-6.065-16.637c-7.987-24.334-21.096-47.84-21.578-73.874 2.122-26.174 24.751-45.757 24.67-72.585 2.376-32.265-6.404-67.58-30.6-90.272l-3.079-1.41-3.34-.385c-13.427 3.057-13.772 20.447-22.533 29.258-11.676 15.118-36.861 8.822-43.02-8.355-4.985-7.223-7.244-20.492-18.121-20.009-14.059 6.458-20.533 23.286-26.707 36.801-10.673 31.17-10.664 67.885 8.424 95.961 13.382 19.531 13.526 44.265 4.75 65.697-13.531 41.802-33.538 81.693-41.335 125.162-6.198 34.552 7.305 75.973 41.826 90.165 7.643 3.15 15.932 5.154 24.368 5.992zM319.95 425.547c-.375-1.127-.73-2.243-1.12-3.378-.22-.06-.425-.174-.647-.23.34 1.093.696 2.179 1.026 3.274.277.088.482.231.742.334z" fill="#efefef"/></svg>