<?xml version="1.0" encoding="UTF-8" standalone="no"?>
<svg
   width="700pt"
   height="700pt"
   version="1.1"
   viewBox="0 0 700 700"
   id="svg95"
   sodipodi:docname="cook.svg"
   inkscape:version="1.1.2 (b8e25be833, 2022-02-05)"
   xmlns:inkscape="http://www.inkscape.org/namespaces/inkscape"
   xmlns:sodipodi="http://sodipodi.sourceforge.net/DTD/sodipodi-0.dtd"
   xmlns="http://www.w3.org/2000/svg"
   xmlns:svg="http://www.w3.org/2000/svg">
  <sodipodi:namedview
     id="namedview97"
     pagecolor="#ffffff"
     bordercolor="#666666"
     borderopacity="1.0"
     inkscape:pageshadow="2"
     inkscape:pageopacity="0.0"
     inkscape:pagecheckerboard="0"
     inkscape:document-units="pt"
     showgrid="false"
     inkscape:zoom="0.57964286"
     inkscape:cx="293.28404"
     inkscape:cy="605.54529"
     inkscape:window-width="1366"
     inkscape:window-height="683"
     inkscape:window-x="0"
     inkscape:window-y="0"
     inkscape:window-maximized="1"
     inkscape:current-layer="svg95" />
  <defs
     id="defs41">
    <symbol
       id="m"
       overflow="visible">
      <path
         d="m29.312-1.75c-1.5117 0.78125-3.0898 1.3711-4.7344 1.7656-1.6367 0.40625-3.3398 0.60938-5.1094 0.60938-5.3125 0-9.5273-1.4844-12.641-4.4531-3.1055-2.9688-4.6562-7-4.6562-12.094s1.5508-9.125 4.6562-12.094c3.1133-2.9688 7.3281-4.4531 12.641-4.4531 1.7695 0 3.4727 0.19922 5.1094 0.59375 1.6445 0.39844 3.2227 0.99219 4.7344 1.7812v6.5938c-1.5312-1.0391-3.0391-1.8008-4.5156-2.2812-1.4805-0.48828-3.0391-0.73438-4.6719-0.73438-2.9375 0-5.2461 0.94531-6.9219 2.8281-1.6797 1.875-2.5156 4.4648-2.5156 7.7656 0 3.293 0.83594 5.8828 2.5156 7.7656 1.6758 1.875 3.9844 2.8125 6.9219 2.8125 1.6328 0 3.1914-0.23828 4.6719-0.71875 1.4766-0.48828 2.9844-1.2539 4.5156-2.2969z"
         id="path2" />
    </symbol>
    <symbol
       id="h"
       overflow="visible">
      <path
         d="m21.453-17.406c-0.67969-0.3125-1.3516-0.53906-2.0156-0.6875-0.65625-0.15625-1.3203-0.23438-1.9844-0.23438-1.9688 0-3.4844 0.63281-4.5469 1.8906-1.0547 1.2617-1.5781 3.0703-1.5781 5.4219v11.016h-7.6562v-23.922h7.6562v3.9219c0.97656-1.5625 2.1016-2.7031 3.375-3.4219 1.2812-0.71875 2.8125-1.0781 4.5938-1.0781 0.25 0 0.52344 0.011719 0.82812 0.03125 0.30078 0.023438 0.73438 0.070312 1.2969 0.14062z"
         id="path5" />
    </symbol>
    <symbol
       id="c"
       overflow="visible">
      <path
         d="m27.562-12.031v2.1875h-17.891c0.1875 1.793 0.83203 3.1367 1.9375 4.0312 1.1133 0.89844 2.6719 1.3438 4.6719 1.3438 1.6016 0 3.25-0.23438 4.9375-0.70312 1.6875-0.47656 3.4219-1.2031 5.2031-2.1719v5.8906c-1.8047 0.6875-3.6094 1.2031-5.4219 1.5469-1.8125 0.35156-3.6211 0.53125-5.4219 0.53125-4.3359 0-7.7031-1.0977-10.109-3.2969-2.3984-2.207-3.5938-5.2969-3.5938-9.2656 0-3.9062 1.1758-6.9727 3.5312-9.2031 2.3633-2.2383 5.6094-3.3594 9.7344-3.3594 3.7578 0 6.7695 1.1367 9.0312 3.4062 2.2578 2.2617 3.3906 5.2812 3.3906 9.0625zm-7.8594-2.5312c0-1.457-0.42969-2.6289-1.2812-3.5156-0.84375-0.89453-1.9492-1.3438-3.3125-1.3438-1.4922 0-2.6992 0.41797-3.625 1.25-0.91797 0.83594-1.4922 2.0391-1.7188 3.6094z"
         id="path8" />
    </symbol>
    <symbol
       id="b"
       overflow="visible">
      <path
         d="m14.391-10.766c-1.5938 0-2.793 0.27344-3.5938 0.8125-0.80469 0.54297-1.2031 1.3398-1.2031 2.3906 0 0.96875 0.32031 1.7305 0.96875 2.2812 0.64453 0.54297 1.5469 0.8125 2.7031 0.8125 1.4375 0 2.6445-0.51562 3.625-1.5469 0.98828-1.0312 1.4844-2.3203 1.4844-3.875v-0.875zm11.688-2.8906v13.656h-7.7031v-3.5469c-1.0312 1.4492-2.1875 2.5078-3.4688 3.1719s-2.8398 1-4.6719 1c-2.4805 0-4.4961-0.72266-6.0469-2.1719-1.543-1.4453-2.3125-3.3203-2.3125-5.625 0-2.8125 0.96094-4.8672 2.8906-6.1719 1.9375-1.3125 4.9688-1.9688 9.0938-1.9688h4.5156v-0.60938c0-1.207-0.48047-2.0938-1.4375-2.6562-0.94922-0.5625-2.4375-0.84375-4.4688-0.84375-1.6367 0-3.1562 0.16797-4.5625 0.5-1.4062 0.32422-2.7188 0.8125-3.9375 1.4688v-5.8281c1.6445-0.40625 3.2891-0.70703 4.9375-0.90625 1.6562-0.20703 3.3047-0.3125 4.9531-0.3125 4.3203 0 7.4375 0.85547 9.3438 2.5625 1.9141 1.6992 2.875 4.4609 2.875 8.2812z"
         id="path11" />
    </symbol>
    <symbol
       id="a"
       overflow="visible">
      <path
         d="m12.031-30.719v6.7969h7.875v5.4688h-7.875v10.141c0 1.1172 0.21875 1.8711 0.65625 2.2656 0.4375 0.38672 1.3125 0.57812 2.625 0.57812h3.9375v5.4688h-6.5625c-3.0234 0-5.1641-0.62891-6.4219-1.8906-1.2617-1.2578-1.8906-3.3984-1.8906-6.4219v-10.141h-3.7969v-5.4688h3.7969v-6.7969z"
         id="path14" />
    </symbol>
    <symbol
       id="g"
       overflow="visible">
      <path
         d="m19.953-20.422v-12.812h7.6875v33.234h-7.6875v-3.4531c-1.0547 1.4062-2.2148 2.4375-3.4844 3.0938-1.2734 0.65625-2.7422 0.98438-4.4062 0.98438-2.9492 0-5.3711-1.1719-7.2656-3.5156-1.8867-2.3438-2.8281-5.3594-2.8281-9.0469s0.94141-6.7031 2.8281-9.0469c1.8945-2.3438 4.3164-3.5156 7.2656-3.5156 1.6562 0 3.1172 0.33594 4.3906 1 1.2812 0.65625 2.4453 1.6836 3.5 3.0781zm-5.0469 15.484c1.6445 0 2.8945-0.59766 3.75-1.7969 0.86328-1.1953 1.2969-2.9297 1.2969-5.2031 0-2.2812-0.43359-4.0195-1.2969-5.2188-0.85547-1.1953-2.1055-1.7969-3.75-1.7969-1.625 0-2.8711 0.60156-3.7344 1.7969-0.85547 1.1992-1.2812 2.9375-1.2812 5.2188 0 2.2734 0.42578 4.0078 1.2812 5.2031 0.86328 1.1992 2.1094 1.7969 3.7344 1.7969z"
         id="path17" />
    </symbol>
    <symbol
       id="f"
       overflow="visible">
      <path
         d="m16.406-4.9375c1.6328 0 2.8828-0.59766 3.75-1.7969 0.86328-1.1953 1.2969-2.9297 1.2969-5.2031 0-2.2812-0.43359-4.0195-1.2969-5.2188-0.86719-1.1953-2.1172-1.7969-3.75-1.7969-1.6367 0-2.8906 0.60547-3.7656 1.8125-0.875 1.1992-1.3125 2.9336-1.3125 5.2031 0 2.2617 0.4375 3.9961 1.3125 5.2031 0.875 1.1992 2.1289 1.7969 3.7656 1.7969zm-5.0781-15.484c1.0508-1.3945 2.2188-2.4219 3.5-3.0781 1.2812-0.66406 2.7539-1 4.4219-1 2.9453 0 5.3672 1.1719 7.2656 3.5156 1.8945 2.3438 2.8438 5.3594 2.8438 9.0469s-0.94922 6.7031-2.8438 9.0469c-1.8984 2.3438-4.3203 3.5156-7.2656 3.5156-1.668 0-3.1406-0.33594-4.4219-1s-2.4492-1.6914-3.5-3.0781v3.4531h-7.6562v-33.234h7.6562z"
         id="path20" />
    </symbol>
    <symbol
       id="e"
       overflow="visible">
      <path
         d="m0.53125-23.922h7.6562l6.4219 16.234 5.4688-16.234h7.6562l-10.062 26.188c-1.0117 2.6641-2.1953 4.5234-3.5469 5.5781-1.3438 1.0625-3.1211 1.5938-5.3281 1.5938h-4.4219v-5.0156h2.3906c1.3008 0 2.2422-0.21094 2.8281-0.625 0.59375-0.40625 1.0547-1.1484 1.3906-2.2188l0.20312-0.65625z"
         id="path23" />
    </symbol>
    <symbol
       id="d"
       overflow="visible">
      <path
         d="m3.4219-9.3125v-14.609h7.6875v2.3906c0 1.293-0.011719 2.918-0.03125 4.875-0.011719 1.9609-0.015625 3.2656-0.015625 3.9219 0 1.9297 0.046875 3.3125 0.14062 4.1562 0.10156 0.84375 0.28125 1.4609 0.53125 1.8438 0.3125 0.5 0.71875 0.88672 1.2188 1.1562 0.50781 0.27344 1.0938 0.40625 1.75 0.40625 1.5938 0 2.8438-0.60938 3.75-1.8281 0.91406-1.2266 1.375-2.9297 1.375-5.1094v-11.812h7.6406v23.922h-7.6406v-3.4531c-1.1562 1.3867-2.3828 2.4141-3.6719 3.0781-1.2812 0.66406-2.6992 1-4.25 1-2.7734 0-4.8828-0.84766-6.3281-2.5469-1.4375-1.6953-2.1562-4.1602-2.1562-7.3906z"
         id="path26" />
    </symbol>
    <symbol
       id="l"
       overflow="visible">
      <path
         d="m3.6719-33.234h7.6562v33.234h-7.6562z"
         id="path29" />
    </symbol>
    <symbol
       id="k"
       overflow="visible">
      <path
         d="m11.328-3.4531v12.547h-7.6562v-33.016h7.6562v3.5c1.0508-1.3945 2.2188-2.4219 3.5-3.0781 1.2812-0.66406 2.7539-1 4.4219-1 2.9453 0 5.3672 1.1719 7.2656 3.5156 1.8945 2.3438 2.8438 5.3594 2.8438 9.0469s-0.94922 6.7031-2.8438 9.0469c-1.8984 2.3438-4.3203 3.5156-7.2656 3.5156-1.668 0-3.1406-0.33594-4.4219-1s-2.4492-1.6914-3.5-3.0781zm5.0781-15.5c-1.6367 0-2.8906 0.60547-3.7656 1.8125-0.875 1.1992-1.3125 2.9336-1.3125 5.2031 0 2.2617 0.4375 3.9961 1.3125 5.2031 0.875 1.1992 2.1289 1.7969 3.7656 1.7969 1.6328 0 2.8828-0.59766 3.75-1.7969 0.86328-1.1953 1.2969-2.9297 1.2969-5.2031 0-2.2812-0.43359-4.0195-1.2969-5.2188-0.86719-1.1953-2.1172-1.7969-3.75-1.7969z"
         id="path32" />
    </symbol>
    <symbol
       id="j"
       overflow="visible">
      <path
         d="m27.734-14.562v14.562h-7.7031v-11.109c0-2.0938-0.046875-3.5312-0.14062-4.3125-0.085937-0.78125-0.24219-1.3594-0.46875-1.7344-0.30469-0.5-0.71094-0.88281-1.2188-1.1562-0.51172-0.28125-1.0938-0.42188-1.75-0.42188-1.5938 0-2.8516 0.61719-3.7656 1.8438-0.90625 1.2305-1.3594 2.9375-1.3594 5.125v11.766h-7.6562v-33.234h7.6562v12.812c1.1445-1.3945 2.3633-2.4219 3.6562-3.0781 1.3008-0.66406 2.7383-1 4.3125-1 2.7578 0 4.8516 0.85156 6.2812 2.5469 1.4375 1.6875 2.1562 4.1523 2.1562 7.3906z"
         id="path35" />
    </symbol>
    <symbol
       id="i"
       overflow="visible">
      <path
         d="m27.734-14.562v14.562h-7.7031v-11.156c0-2.0625-0.046875-3.4844-0.14062-4.2656-0.085937-0.78125-0.24219-1.3594-0.46875-1.7344-0.30469-0.5-0.71094-0.88281-1.2188-1.1562-0.51172-0.28125-1.0938-0.42188-1.75-0.42188-1.5938 0-2.8516 0.61719-3.7656 1.8438-0.90625 1.2305-1.3594 2.9375-1.3594 5.125v11.766h-7.6562v-23.922h7.6562v3.5c1.1445-1.3945 2.3633-2.4219 3.6562-3.0781 1.3008-0.66406 2.7383-1 4.3125-1 2.7578 0 4.8516 0.85156 6.2812 2.5469 1.4375 1.6875 2.1562 4.1523 2.1562 7.3906z"
         id="path38" />
    </symbol>
  </defs>
  <g
     id="g1512"
     transform="translate(0.06044177,34.942126)"
     style="fill:#efefef;fill-opacity:1">
    <path
       d="m 609,252.17 c 13.672,-16.875 21.09,-37.953 21,-59.668 0,-91.875 -54.992,-120.41 -57.34,-121.58 -2.418,-1.2109 -5.2617,-1.2305 -7.7031,-0.05859 -2.4375,1.1719 -4.1992,3.4062 -4.7656,6.0547 -10.012,46.734 -66.168,73.113 -166.91,78.41 v -0.004 c -2.3203,0.125 -4.4961,1.1641 -6.0508,2.8906 -1.5547,1.7305 -2.3555,4.0039 -2.2344,6.3242 0.25781,4.832 4.3828,8.543 9.2148,8.2852 101.31,-5.3281 161.59,-32.242 179.53,-80.026997 13.844,11.444997 38.754,40.339997 38.754,99.706997 0,75.566 -107.29,122.5 -280,122.5 -180.89,0 -245,-22.898 -245,-87.5 0,-50.617 57.094,-61.25 105,-61.25 4.832,0 8.75,-3.918 8.75,-8.75 0,-4.832 -3.918,-8.75 -8.75,-8.75 -9.7422,-0.0195 -19.48,0.46875 -29.172,1.4609 13.422,-18.32 34.875,-27.711 64.172,-27.711 2.7422,-0.008 5.3281,-1.2852 7,-3.457 0.95312,-1.2852 25.078,-31.542997 89.25,-31.542997 64.75,0 89.871,23.511997 90.062,23.687997 2.2188,2.2148 5.4531,3.0781 8.4805,2.2578 27.172,-6.4883 55.566,-5.7344 82.355,2.1875 4.5664,1.5742 9.5508,-0.85156 11.125,-5.4219 1.5742,-4.5703 -0.85156,-9.5508 -5.4219,-11.124997 -28.57,-8.793 -58.934,-10.035 -88.129,-3.6055 -10.098,-7.6133 -39.953,-25.48 -98.473,-25.48 -61.164,0 -91.203,25.559 -100.25,35.050997 -49.613,1.3125 -72.355,27.02 -82.715,48.668 v 0.0508 c -46.031,10.145 -70.785,35.441 -70.785,73.73 -0.70703,18.891 5.2461,37.43 16.816,52.379 -1.3516,7.5156 -1.4297,15.207 -0.23438,22.75 -6.6875,6.0625 -16.582,19.781 -16.582,47.371 0.01953,12.484 3.8984,24.652 11.113,34.844 -7.1016,16.66 -10.879,34.547 -11.113,52.656 -1.3789,22.289 7.0977,44.059 23.188,59.543 16.848,13.57 38.082,20.5 59.691,19.477 7.5352,10.5 29.066,32.664 73.379,26.25 8.75,3.7539 37.066,13.949 61.855,1.4336 9.1836,5.9961 30.387,15.797 70.637,15.797 27.934,1.0156 55.68,-4.918 80.754,-17.273 15.086,1.2617 81.707,4.7773 116.22,-27.379 13.09,-3.7773 74.277,-24.332 74.277,-77.848 0.11719,-20.594 -5.2969,-40.84 -15.68,-58.625 10.754,-16.332 16.227,-35.578 15.68,-55.125 -0.27734,-25.34 -7.543,-50.109 -21,-71.582 z m -12.418,13.371 v -0.004 c 10.215,17.719 15.695,37.766 15.918,58.215 0,46.016 -28.98,61.566 -30.16,62.125 -0.84375,0.42188 -1.6094,0.97656 -2.2773,1.6445 -22.539,22.539 -61.738,15.164 -62.125,15.109 v 0.004 c -3.625,-0.75781 -7.3281,0.87891 -9.2109,4.0664 -22.961,38.281 -87.035,30.887 -87.676,30.828 -3.5195,-0.61719 -7.0312,1.1328 -8.6562,4.3125 -0.0586,0.18359 -9.1953,13.16 -53.645,13.16 -47.25,0 -63.762,-14.875 -63.812,-14.938 -2.4727,-2.4727 -6.1836,-3.2383 -9.4336,-1.9414 -39.051,15.609 -79.363,-7.875 -79.746,-8.1211 -2.0781,-1.2383 -4.5742,-1.5703 -6.9062,-0.91797 -14.402,4.8125 -30.043,4.3945 -44.168,-1.1797 -14.125,-5.5781 -25.828,-15.957 -33.059,-29.312 -0.84766,-1.6836 -2.2148,-3.0508 -3.8945,-3.9023 -0.34766,-0.14844 -30.23,-15.672 -30.23,-44.688 0,-28.34 12.336,-35.727 12.66,-35.875 3.668,-1.832 5.5703,-5.9688 4.5781,-9.9492 -0.6875,-2.8516 -1.1289,-5.7578 -1.3125,-8.6875 41.484,29.645 120.29,37.012 229.07,37.012 126.37,0 218.12,-24.105 264.12,-66.965 z m -47.469,233.47 c -1.5312,0.38672 -2.9336,1.1836 -4.0508,2.3008 -31.586,31.598 -105.88,23.828 -106.6,23.738 -2.0273,-0.21094 -4.0703,0.28125 -5.7812,1.3945 -0.24609,0.16406 -25.184,16.055 -73.93,16.055 -47.25,0 -63.762,-14.875 -63.812,-14.938 -2.9492,-2.9492 -7.5742,-3.4062 -11.043,-1.0938 -21.629,14.422 -52.195,-0.40234 -52.5,-0.55078 -1.6523,-0.82031 -3.5273,-1.1016 -5.3477,-0.79688 -45.012,7.5 -60.148,-20.406 -60.734,-21.535 v 0.004 c -1.6328,-3.2656 -5.1211,-5.1719 -8.75,-4.7891 -0.30469,0 -31.746,3.1406 -51.773,-14.875 -12.238,-12.227 -18.551,-29.172 -17.289,-46.426 0.12891,-12.965 2.4023,-25.816 6.7305,-38.035 4.0703,3.5703 8.4648,6.7578 13.125,9.5195 9.1133,15.664 23.152,27.871 39.926,34.723 16.777,6.8516 35.352,7.9609 52.824,3.1562 11.207,5.8281 48.281,22.34 87.09,9.2734 8.668,5.8633 29.941,16.363 71.555,16.363 41.02,0 58.203,-10.309 65.082,-17.113 16.625,1.1445 70.305,1.8008 96.652,-34.676 13.676,1.5234 47.625,2.625 71.043,-19.871 v -0.004 c 3.7539,-2.2656 7.2695,-4.9062 10.5,-7.875 6.9922,13.801 10.582,29.07 10.473,44.539 0,44.977 -62.746,61.355 -63.387,61.512 z"
       id="path43"
       style="fill:#efefef;fill-opacity:1" />
    <path
       d="m 358.75,157.5 h -0.0625 c -38.867,0.28906 -77.34,-2.0039 -113.08,-4.5078 h 0.004 c -2.3281,-0.20703 -4.6406,0.53906 -6.4062,2.0664 -1.7656,1.5312 -2.832,3.7148 -2.957,6.0469 -0.33594,4.8164 3.293,8.9961 8.1094,9.3359 34.055,2.3984 70.551,4.5859 107.74,4.5859 h 6.6836 0.004 c 4.8398,-0.0117 8.7539,-3.9414 8.7461,-8.7812 -0.0117,-4.8398 -3.9414,-8.7539 -8.7812,-8.7461 z"
       id="path45"
       style="fill:#efefef;fill-opacity:1" />
    <path
       d="m 498.75,385 c 0.94141,-0.004 1.875,-0.15625 2.7656,-0.45312 82.793,-27.59 92.969,-83.246 93.363,-85.609 v -0.004 c 0.66406,-4.6914 -2.5234,-9.0625 -7.1992,-9.8555 -4.6719,-0.79688 -9.1289,2.2773 -10.047,6.9258 -0.35156,1.9414 -9.4336,47.879 -81.645,71.953 l -0.004,-0.004 c -4.0625,1.3672 -6.5391,5.4688 -5.8516,9.6992 0.6875,4.2266 4.332,7.3398 8.6172,7.3477 z"
       id="path47"
       style="fill:#efefef;fill-opacity:1" />
    <path
       d="m 501.31,186.31 c -40.66,40.652 -141.55,41.188 -142.56,41.188 -4.832,0 -8.75,3.918 -8.75,8.75 0,4.832 3.918,8.75 8.75,8.75 4.4375,0 109.16,-0.53516 154.94,-46.312 3.3164,-3.4336 3.2656,-8.8906 -0.10938,-12.266 -3.37498,-3.3754 -8.832,-3.4258 -12.266,-0.10938 z"
       id="path49"
       style="fill:#efefef;fill-opacity:1" />
    <path
       d="m 393.75,411.25 c 1.582,0 38.852,-0.22656 58.688,-20.062 3.3164,-3.4336 3.2656,-8.8906 -0.10938,-12.266 -3.37498,-3.3754 -8.832,-3.4258 -12.266,-0.10938 -14.68,14.684 -46.016,14.938 -46.312,14.938 -4.832,0 -8.75,3.918 -8.75,8.75 0,4.832 3.918,8.75 8.75,8.75 z"
       id="path51"
       style="fill:#efefef;fill-opacity:1" />
    <path
       d="m 262.5,402.5 c 1.582,0 38.852,-0.22656 58.688,-20.062 3.3164,-3.4336 3.2656,-8.8906 -0.10938,-12.266 -3.37498,-3.3754 -8.832,-3.4258 -12.266,-0.10938 -14.68,14.684 -46.016,14.938 -46.312,14.938 -4.832,0 -8.75,3.918 -8.75,8.75 0,4.832 3.918,8.75 8.75,8.75 z"
       id="path53"
       style="fill:#efefef;fill-opacity:1" />
    <path
       d="m 157.5,385 c 1.582,0 38.852,-0.22656 58.688,-20.062 3.3164,-3.4336 3.2656,-8.8906 -0.10938,-12.266 -3.37498,-3.3754 -8.832,-3.4258 -12.266,-0.10938 -14.68,14.684 -46.016,14.938 -46.312,14.938 -4.832,0 -8.75,3.918 -8.75,8.75 0,4.832 3.918,8.75 8.75,8.75 z"
       id="path55"
       style="fill:#efefef;fill-opacity:1" />
    <path
       d="m 411.38,281.5 c 0.82422,4.7578 5.3555,7.9492 10.113,7.1211 108.54,-18.875 145.19,-75.758 156.82,-120.16 v 0.004 c 1.2227,-4.6797 -1.5781,-9.4609 -6.2539,-10.684 -4.6797,-1.2227 -9.4609,1.5781 -10.684,6.2539 -15.023,57.34 -63.09,93.469 -142.87,107.35 -4.7578,0.82422 -7.9492,5.3555 -7.1211,10.113 z"
       id="path57"
       style="fill:#efefef;fill-opacity:1" />
    <path
       d="m 193.95,222.91 c -2.3047,-0.42578 -4.6875,0.0937 -6.6055,1.4375 -1.9219,1.3438 -3.2227,3.4023 -3.6133,5.7148 -0.38672,2.3125 0.16797,4.6836 1.543,6.582 1.3711,1.9023 3.4531,3.168 5.7695,3.5234 26.746,4.4531 53.816,6.668 80.93,6.6289 14.465,0 29.051,-0.61328 43.75,-1.8359 2.3164,-0.18359 4.4648,-1.2852 5.9688,-3.0547 1.5078,-1.7734 2.2461,-4.0703 2.0547,-6.3867 -0.14453,-2.3398 -1.2383,-4.5195 -3.0273,-6.0312 -1.7891,-1.5156 -4.1172,-2.2344 -6.4492,-1.9922 -40.141,3.4805 -80.562,1.9414 -120.32,-4.5859 z"
       id="path59"
       style="fill:#efefef;fill-opacity:1" />
  </g>
</svg>
