<?xml version="1.0" encoding="UTF-8" standalone="no"?>
<svg
   width="700pt"
   height="500pt"
   version="1.1"
   viewBox="0 0 700 500"
   id="svg143"
   sodipodi:docname="lib.svg"
   inkscape:version="1.1.2 (76b9e6a115, 2022-02-25)"
   xmlns:inkscape="http://www.inkscape.org/namespaces/inkscape"
   xmlns:sodipodi="http://sodipodi.sourceforge.net/DTD/sodipodi-0.dtd"
   xmlns="http://www.w3.org/2000/svg"
   xmlns:svg="http://www.w3.org/2000/svg">
  <sodipodi:namedview
     id="namedview145"
     pagecolor="#424242"
     bordercolor="#666666"
     borderopacity="1.0"
     inkscape:pageshadow="2"
     inkscape:pageopacity="0"
     inkscape:pagecheckerboard="true"
     inkscape:document-units="pt"
     showgrid="false"
     inkscape:zoom="0.49392857"
     inkscape:cx="466.66667"
     inkscape:cy="334.0564"
     inkscape:window-width="1366"
     inkscape:window-height="683"
     inkscape:window-x="0"
     inkscape:window-y="0"
     inkscape:window-maximized="1"
     inkscape:current-layer="svg143" />
  <defs
     id="defs65">
    <symbol
       id="u"
       overflow="visible">
      <path
         d="m 18.766,-1.125 c -0.96875,0.5 -1.9805,0.875 -3.0312,1.125 -1.043,0.25781 -2.1367,0.39062 -3.2812,0.39062 -3.3984,0 -6.0898,-0.94531 -8.0781,-2.8438 -1.9922,-1.9062 -2.9844,-4.4844 -2.9844,-7.7344 0,-3.2578 0.99219,-5.8359 2.9844,-7.7344 1.9883,-1.9062 4.6797,-2.8594 8.0781,-2.8594 1.1445,0 2.2383,0.13281 3.2812,0.39062 1.0508,0.25 2.0625,0.625 3.0312,1.125 v 4.2188 c -0.98047,-0.65625 -1.9453,-1.1406 -2.8906,-1.4531 -0.94922,-0.3125 -1.9492,-0.46875 -3,-0.46875 -1.875,0 -3.3516,0.60547 -4.4219,1.8125 -1.0742,1.1992 -1.6094,2.8555 -1.6094,4.9688 0,2.1055 0.53516,3.7617 1.6094,4.9688 1.0703,1.1992 2.5469,1.7969 4.4219,1.7969 1.0508,0 2.0508,-0.14844 3,-0.45312 0.94531,-0.3125 1.9102,-0.80078 2.8906,-1.4688 z"
         id="path2" />
    </symbol>
    <symbol
       id="d"
       overflow="visible">
      <path
         d="m 13.734,-11.141 c -0.4375,-0.19531 -0.87109,-0.34375 -1.2969,-0.4375 -0.41797,-0.10156 -0.83984,-0.15625 -1.2656,-0.15625 -1.2617,0 -2.2305,0.40625 -2.9062,1.2188 -0.67969,0.80469 -1.0156,1.9531 -1.0156,3.4531 v 7.0625 H 2.3591 v -15.312 h 4.8906 v 2.5156 c 0.625,-1 1.3438,-1.7266 2.1562,-2.1875 0.82031,-0.46875 1.8008,-0.70312 2.9375,-0.70312 0.16406,0 0.34375,0.01172 0.53125,0.03125 0.19531,0.01172 0.47656,0.03906 0.84375,0.07813 z"
         id="path5" />
    </symbol>
    <symbol
       id="b"
       overflow="visible">
      <path
         d="m 17.641,-7.7031 v 1.4062 H 6.188 c 0.125,1.1484 0.53906,2.0078 1.25,2.5781 0.70703,0.57422 1.7031,0.85938 2.9844,0.85938 1.0312,0 2.082,-0.14844 3.1562,-0.45312 1.082,-0.3125 2.1914,-0.77344 3.3281,-1.3906 v 3.7656 c -1.1562,0.4375 -2.3125,0.76562 -3.4688,0.98438 -1.1562,0.22656 -2.3125,0.34375 -3.4688,0.34375 -2.7734,0 -4.9297,-0.70312 -6.4688,-2.1094 -1.5312,-1.4062 -2.2969,-3.3789 -2.2969,-5.9219 0,-2.5 0.75391,-4.4609 2.2656,-5.8906 1.5078,-1.4375 3.582,-2.1562 6.2188,-2.1562 2.4062,0 4.332,0.73047 5.7812,2.1875 1.4453,1.4492 2.1719,3.3828 2.1719,5.7969 z m -5.0312,-1.625 c 0,-0.92578 -0.27344,-1.6719 -0.8125,-2.2344 -0.54297,-0.57031 -1.25,-0.85938 -2.125,-0.85938 -0.94922,0 -1.7188,0.26562 -2.3125,0.79688 -0.5937,0.53126 -0.96484,1.2969 -1.1094,2.2969 z"
         id="path8" />
    </symbol>
    <symbol
       id="c"
       overflow="visible">
      <path
         d="m 9.2188,-6.8906 c -1.0234,0 -1.793,0.17188 -2.3125,0.51562 -0.51172,0.34375 -0.76562,0.85547 -0.76562,1.5312 0,0.625 0.20703,1.1172 0.625,1.4688 0.41406,0.34375 0.98828,0.51562 1.7188,0.51562 0.92578,0 1.7031,-0.32812 2.3281,-0.98438 0.63281,-0.66406 0.95312,-1.4922 0.95312,-2.4844 v -0.5625 z m 7.4688,-1.8438 V 0 h -4.9219 v -2.2656 c -0.65625,0.92969 -1.3984,1.6055 -2.2188,2.0312 -0.82422,0.41406 -1.8242,0.625 -3,0.625 -1.5859,0 -2.8711,-0.45703 -3.8594,-1.375 -0.99219,-0.92578 -1.4844,-2.1289 -1.4844,-3.6094 0,-1.7891 0.61328,-3.1016 1.8438,-3.9375 1.2383,-0.84375 3.1797,-1.2656 5.8281,-1.2656 h 2.8906 v -0.39062 c 0,-0.76953 -0.30859,-1.332 -0.92188,-1.6875 -0.61719,-0.36328 -1.5703,-0.54688 -2.8594,-0.54688 -1.0547,0 -2.0312,0.10547 -2.9375,0.3125 -0.89844,0.21094 -1.7305,0.52344 -2.5,0.9375 v -3.7344 c 1.0391,-0.25 2.0859,-0.44141 3.1406,-0.57812 1.0625,-0.13281 2.125,-0.20312 3.1875,-0.20312 2.7578,0 4.75,0.54688 5.9688,1.6406 1.2266,1.0859 1.8438,2.8555 1.8438,5.3125 z"
         id="path11" />
    </symbol>
    <symbol
       id="a"
       overflow="visible">
      <path
         d="m 7.7031,-19.656 v 4.3438 H 12.75 v 3.5 H 7.7031 v 6.5 c 0,0.71094 0.14062,1.1875 0.42188,1.4375 0.28126,0.25 0.83594,0.375 1.6719,0.375 h 2.5156 v 3.5 h -4.1875 c -1.9375,0 -3.3125,-0.39844 -4.125,-1.2031 -0.80469,-0.8125 -1.2031,-2.1797 -1.2031,-4.1094 v -6.5 h -2.4219 v -3.5 h 2.4219 v -4.3438 z"
         id="path14" />
    </symbol>
    <symbol
       id="k"
       overflow="visible">
      <path
         d="m 12.766,-13.078 v -8.2031 h 4.9219 V -10e-5 H 12.766 v -2.2188 c -0.66797,0.90625 -1.4062,1.5703 -2.2188,1.9844 -0.8126,0.4141 -1.7578,0.625 -2.8281,0.625 -1.8867,0 -3.4336,-0.75 -4.6406,-2.25 -1.2109,-1.5 -1.8125,-3.4258 -1.8125,-5.7812 0,-2.3633 0.60156,-4.2969 1.8125,-5.7969 1.207,-1.5 2.7539,-2.25 4.6406,-2.25 1.0625,0 2,0.21484 2.8125,0.64062 0.82031,0.42969 1.5664,1.0859 2.2344,1.9688 z m -3.2188,9.9219 c 1.0391,0 1.8359,-0.37891 2.3906,-1.1406 0.55078,-0.76953 0.82812,-1.8828 0.82812,-3.3438 0,-1.457 -0.27734,-2.5664 -0.82812,-3.3281 -0.55469,-0.76953 -1.3516,-1.1562 -2.3906,-1.1562 -1.043,0 -1.8398,0.38672 -2.3906,1.1562 -0.55469,0.76172 -0.82812,1.8711 -0.82812,3.3281 0,1.4609 0.27344,2.5742 0.82812,3.3438 0.55078,0.76172 1.3477,1.1406 2.3906,1.1406 z"
         id="path17" />
    </symbol>
    <symbol
       id="j"
       overflow="visible">
      <path
         d="m 10.5,-3.1562 c 1.0508,0 1.8516,-0.37891 2.4062,-1.1406 0.55078,-0.76953 0.82812,-1.8828 0.82812,-3.3438 0,-1.457 -0.27734,-2.5664 -0.82812,-3.3281 -0.55469,-0.76953 -1.3555,-1.1562 -2.4062,-1.1562 -1.0547,0 -1.8594,0.38672 -2.4219,1.1562 -0.55469,0.77344 -0.82812,1.8828 -0.82812,3.3281 0,1.4492 0.27344,2.5586 0.82812,3.3281 0.5625,0.77344 1.3672,1.1562 2.4219,1.1562 z m -3.25,-9.9219 c 0.67578,-0.88281 1.4219,-1.5391 2.2344,-1.9688 0.82031,-0.42578 1.7656,-0.64062 2.8281,-0.64062 1.8945,0 3.4453,0.75 4.6562,2.25 1.207,1.5 1.8125,3.4336 1.8125,5.7969 0,2.3555 -0.60547,4.2812 -1.8125,5.7812 -1.2109,1.5 -2.7617,2.25 -4.6562,2.25 -1.0625,0 -2.0078,-0.21094 -2.8281,-0.625 C 8.6719,-0.6602 7.9258,-1.32032 7.25,-2.21882 V -2e-5 H 2.3594 v -21.281 H 7.25 Z"
         id="path20" />
    </symbol>
    <symbol
       id="i"
       overflow="visible">
      <path
         d="m 0.34375,-15.312 h 4.8906 l 4.125,10.391 3.5,-10.391 h 4.8906 l -6.4375,16.766 c -0.64844,1.6953 -1.4023,2.8828 -2.2656,3.5625 -0.86719,0.6875 -2,1.0312 -3.4062,1.0312 H 2.79685 V 2.8289 h 1.5312 c 0.83203,0 1.4375,-0.13672 1.8125,-0.40625 C 6.52336,2.16093 6.82024,1.69218 7.03117,1.01645 L 7.17179,0.59457 Z"
         id="path23" />
    </symbol>
    <symbol
       id="h"
       overflow="visible">
      <path
         d="m 2.5781,-20.406 h 14.203 v 3.9688 H 7.828 v 3.7969 h 8.4219 v 3.9844 H 7.828 V 3e-4 h -5.25 z"
         id="path26" />
    </symbol>
    <symbol
       id="g"
       overflow="visible">
      <path
         d="M 17.75,-9.3281 V 0 h -4.9219 v -7.1406 c 0,-1.3203 -0.03125,-2.2344 -0.09375,-2.7344 -0.0625,-0.5 -0.16797,-0.86719 -0.3125,-1.1094 -0.1875,-0.3125 -0.44922,-0.55469 -0.78125,-0.73438 -0.32422,-0.17578 -0.69531,-0.26562 -1.1094,-0.26562 -1.0234,0 -1.8242,0.39844 -2.4062,1.1875 -0.58594,0.78125 -0.875,1.8711 -0.875,3.2656 V -1e-4 H 2.3594 v -15.312 H 7.25 v 2.2344 c 0.73828,-0.88281 1.5195,-1.5391 2.3438,-1.9688 0.83203,-0.42578 1.75,-0.64062 2.75,-0.64062 1.7695,0 3.1133,0.54688 4.0312,1.6406 0.91406,1.0859 1.375,2.6562 1.375,4.7188 z"
         id="path29" />
    </symbol>
    <symbol
       id="t"
       overflow="visible">
      <path
         d="m 14.312,-14.828 v 3.7188 c -1.043,-0.4375 -2.0547,-0.76562 -3.0312,-0.98438 -0.98047,-0.21875 -1.9023,-0.32812 -2.7656,-0.32812 -0.92969,0 -1.6211,0.11719 -2.0781,0.34375 -0.44922,0.23047 -0.67188,0.58984 -0.67188,1.0781 0,0.38672 0.17188,0.68359 0.51562,0.89062 0.34375,0.21094 0.95703,0.36719 1.8438,0.46875 l 0.85938,0.125 c 2.5078,0.32422 4.1953,0.85156 5.0625,1.5781 0.86328,0.73047 1.2969,1.8711 1.2969,3.4219 0,1.6367 -0.60547,2.8672 -1.8125,3.6875 -1.1992,0.8125 -2.9922,1.2188 -5.375,1.2188 -1.0234,0 -2.0742,-0.078125 -3.1562,-0.23438 -1.0742,-0.15625 -2.1797,-0.39453 -3.3125,-0.71875 v -3.7188 c 0.96875,0.48047 1.9609,0.83984 2.9844,1.0781 1.0312,0.23047 2.0781,0.34375 3.1406,0.34375 0.95703,0 1.6758,-0.12891 2.1562,-0.39062 0.47656,-0.26953 0.71875,-0.66406 0.71875,-1.1875 0,-0.4375 -0.16797,-0.75781 -0.5,-0.96875 -0.33594,-0.21875 -0.99609,-0.38281 -1.9844,-0.5 L 7.34339,-6.01551 c -2.1797,-0.26953 -3.7031,-0.77344 -4.5781,-1.5156 -0.875,-0.73828 -1.3125,-1.8594 -1.3125,-3.3594 0,-1.625 0.55078,-2.8281 1.6562,-3.6094 1.1133,-0.78906 2.8203,-1.1875 5.125,-1.1875 0.89453,0 1.8359,0.07422 2.8281,0.21875 1,0.13672 2.082,0.35156 3.25,0.64062 z"
         id="path32" />
    </symbol>
    <symbol
       id="s"
       overflow="visible">
      <path
         d="M 2.3594,-15.312 H 7.25 V 0 H 2.3594 Z m 0,-5.9688 H 7.25 v 4 H 2.3594 Z"
         id="path35" />
    </symbol>
    <symbol
       id="f"
       overflow="visible">
      <path
         d="m 14.719,-14.828 v 3.9844 c -0.65625,-0.45703 -1.3242,-0.79688 -2,-1.0156 -0.66797,-0.21875 -1.3594,-0.32812 -2.0781,-0.32812 -1.3672,0 -2.4336,0.40234 -3.2031,1.2031 -0.76172,0.79297 -1.1406,1.9062 -1.1406,3.3438 0,1.4297 0.37891,2.543 1.1406,3.3438 0.76953,0.79297 1.8359,1.1875 3.2031,1.1875 0.75781,0 1.4844,-0.10938 2.1719,-0.32812 0.6875,-0.22656 1.3203,-0.56641 1.9062,-1.0156 v 4 c -0.76172,0.28125 -1.5391,0.48828 -2.3281,0.625 -0.78125,0.14453 -1.5742,0.21875 -2.375,0.21875 -2.7617,0 -4.9219,-0.70703 -6.4844,-2.125 -1.5547,-1.4141 -2.3281,-3.3828 -2.3281,-5.9062 0,-2.5312 0.77344,-4.5039 2.3281,-5.9219 1.5625,-1.4141 3.7227,-2.125 6.4844,-2.125 0.80078,0 1.5938,0.07422 2.375,0.21875 0.78125,0.13672 1.5547,0.35156 2.3281,0.64062 z"
         id="path38" />
    </symbol>
    <symbol
       id="r"
       overflow="visible">
      <path
         d="m 12.422,-21.281 v 3.2188 H 9.7189 c -0.6875,0 -1.1719,0.125 -1.4531,0.375 -0.27344,0.25 -0.40625,0.6875 -0.40625,1.3125 v 1.0625 h 4.1875 v 3.5 H 7.85955 V -2e-4 h -4.8906 v -11.812 h -2.4375 v -3.5 h 2.4375 v -1.0625 c 0,-1.6641 0.46094,-2.8984 1.3906,-3.7031 0.92578,-0.80078 2.3672,-1.2031 4.3281,-1.2031 z"
         id="path41" />
    </symbol>
    <symbol
       id="e"
       overflow="visible">
      <path
         d="m 9.6406,-12.188 c -1.0859,0 -1.9141,0.39062 -2.4844,1.1719 -0.57422,0.78125 -0.85938,1.9062 -0.85938,3.375 0,1.4688 0.28516,2.5938 0.85938,3.375 0.57031,0.77344 1.3984,1.1562 2.4844,1.1562 1.0625,0 1.875,-0.38281 2.4375,-1.1562 0.57031,-0.78125 0.85938,-1.9062 0.85938,-3.375 0,-1.4688 -0.28906,-2.5938 -0.85938,-3.375 -0.5625,-0.78125 -1.375,-1.1719 -2.4375,-1.1719 z m 0,-3.5 c 2.6328,0 4.6914,0.71484 6.1719,2.1406 1.4766,1.418 2.2188,3.3867 2.2188,5.9062 0,2.5117 -0.74219,4.4805 -2.2188,5.9062 C 14.332,-0.317 12.2734,0.39 9.6406,0.39 6.9922,0.39 4.9258,-0.31703 3.4375,-1.735 1.9453,-3.1608 1.2031,-5.1295 1.2031,-7.6412 c 0,-2.5195 0.74219,-4.4883 2.2344,-5.9062 1.4883,-1.4258 3.5547,-2.1406 6.2031,-2.1406 z"
         id="path44" />
    </symbol>
    <symbol
       id="q"
       overflow="visible">
      <path
         d="m 16.547,-12.766 c 0.61328,-0.94531 1.3477,-1.6719 2.2031,-2.1719 0.85156,-0.5 1.7891,-0.75 2.8125,-0.75 1.7578,0 3.0977,0.54688 4.0156,1.6406 0.92578,1.0859 1.3906,2.6562 1.3906,4.7188 V -4e-4 h -4.9219 v -7.9844 -0.35938 c 0.0078,-0.13281 0.01563,-0.32031 0.01563,-0.5625 0,-1.082 -0.16406,-1.8633 -0.48438,-2.3438 -0.3125,-0.48828 -0.82422,-0.73438 -1.5312,-0.73438 -0.92969,0 -1.6484,0.38672 -2.1562,1.1562 -0.51172,0.76172 -0.77344,1.8672 -0.78125,3.3125 v 7.5156 h -4.9219 v -7.9844 c 0,-1.6953 -0.14844,-2.7852 -0.4375,-3.2656 -0.29297,-0.48828 -0.8125,-0.73438 -1.5625,-0.73438 -0.9375,0 -1.6641,0.38672 -2.1719,1.1562 -0.51172,0.76172 -0.76562,1.8594 -0.76562,3.2969 v 7.5312 h -4.9219 v -15.312 h 4.9219 v 2.2344 c 0.60156,-0.86328 1.2891,-1.5156 2.0625,-1.9531 0.78125,-0.4375 1.6406,-0.65625 2.5781,-0.65625 1.0625,0 2,0.25781 2.8125,0.76562 0.8125,0.51172 1.4258,1.2305 1.8438,2.1562 z"
         id="path47" />
    </symbol>
    <symbol
       id="p"
       overflow="visible">
      <path
         d="M 17.75,-9.3281 V 0 h -4.9219 v -7.1094 c 0,-1.3438 -0.03125,-2.2656 -0.09375,-2.7656 -0.0625,-0.5 -0.16797,-0.86719 -0.3125,-1.1094 -0.1875,-0.3125 -0.44922,-0.55469 -0.78125,-0.73438 -0.32422,-0.17578 -0.69531,-0.26562 -1.1094,-0.26562 -1.0234,0 -1.8242,0.39844 -2.4062,1.1875 -0.58594,0.78125 -0.875,1.8711 -0.875,3.2656 V -1e-4 H 2.3594 v -21.281 H 7.25 v 8.2031 c 0.73828,-0.88281 1.5195,-1.5391 2.3438,-1.9688 0.83203,-0.42578 1.75,-0.64062 2.75,-0.64062 1.7695,0 3.1133,0.54688 4.0312,1.6406 0.91406,1.0859 1.375,2.6562 1.375,4.7188 z"
         id="path50" />
    </symbol>
    <symbol
       id="o"
       overflow="visible">
      <path
         d="m 2.5781,-20.406 h 5.875 l 7.4219,14 v -14 h 4.9844 V 0 h -5.875 L 7.5625,-14 V 0 H 2.5781 Z"
         id="path53" />
    </symbol>
    <symbol
       id="n"
       overflow="visible">
      <path
         d="m 2.1875,-5.9688 v -9.3438 h 4.9219 v 1.5312 c 0,0.83594 -0.00781,1.875 -0.015625,3.125 -0.011719,1.25 -0.015625,2.0859 -0.015625,2.5 0,1.2422 0.03125,2.1328 0.09375,2.6719 0.070313,0.54297 0.17969,0.93359 0.32812,1.1719 0.20703,0.32422 0.47266,0.57422 0.79688,0.75 0.32031,0.16797 0.69141,0.25 1.1094,0.25 1.0195,0 1.8203,-0.39062 2.4062,-1.1719 0.58203,-0.78125 0.875,-1.8672 0.875,-3.2656 v -7.5625 h 4.8906 V -6e-4 H 12.6875 V -2.2194 C 11.94531,-1.32096 11.1641,-0.6608 10.3437,-0.235 9.51948,0.17906 8.6093,0.39 7.6093,0.39 5.8476,0.39 4.5038,-0.14906 3.5781,-1.235 2.64841,-2.317 2.1875,-3.8952 2.1875,-5.9694 Z"
         id="path56" />
    </symbol>
    <symbol
       id="m"
       overflow="visible">
      <path
         d="m 2.5781,-20.406 h 8.7344 c 2.5938,0 4.582,0.57812 5.9688,1.7344 1.3945,1.1484 2.0938,2.7891 2.0938,4.9219 0,2.1367 -0.69922,3.7812 -2.0938,4.9375 -1.3867,1.1562 -3.375,1.7344 -5.9688,1.7344 H 7.8281 V 3e-4 h -5.25 z m 5.25,3.8125 v 5.7031 H 10.75 c 1.0195,0 1.8047,-0.25 2.3594,-0.75 0.5625,-0.5 0.84375,-1.2031 0.84375,-2.1094 0,-0.91406 -0.28125,-1.6172 -0.84375,-2.1094 -0.55469,-0.48828 -1.3398,-0.73438 -2.3594,-0.73438 z"
         id="path59" />
    </symbol>
    <symbol
       id="l"
       overflow="visible">
      <path
         d="M 2.3594,-15.312 H 7.25 v 15.031 c 0,2.0508 -0.49609,3.6172 -1.4844,4.7031 -0.98047,1.082 -2.4062,1.625 -4.2812,1.625 H -0.9375 V 2.8283 h 0.85938 c 0.92578,0 1.5625,-0.21094 1.9062,-0.625 0.35156,-0.41797 0.53125,-1.2461 0.53125,-2.4844 z m 0,-5.9688 H 7.25 v 4 H 2.3594 Z"
         id="path62" />
    </symbol>
    <symbol
       id="s-6"
       overflow="visible">
      <path
         d="m 27.578,-1.6562 c -1.418,0.74219 -2.8984,1.2969 -4.4375,1.6719 -1.543,0.375 -3.1523,0.5625 -4.8281,0.5625 -5,0 -8.9648,-1.3945 -11.891,-4.1875 -2.918,-2.7891 -4.375,-6.582 -4.375,-11.375 0,-4.7891 1.457,-8.582 4.375,-11.375 2.9258,-2.8008 6.8906,-4.2031 11.891,-4.2031 1.6758,0 3.2852,0.1875 4.8281,0.5625 1.5391,0.375 3.0195,0.93359 4.4375,1.6719 v 6.2188 c -1.4297,-0.97656 -2.8398,-1.6953 -4.2344,-2.1562 -1.3984,-0.45703 -2.8672,-0.6875 -4.4062,-0.6875 -2.7617,0 -4.9336,0.88672 -6.5156,2.6562 -1.5859,1.7734 -2.375,4.2109 -2.375,7.3125 0,3.1055 0.78906,5.543 2.375,7.3125 1.582,1.7617 3.7539,2.6406 6.5156,2.6406 1.5391,0 3.0078,-0.22266 4.4062,-0.67188 1.3945,-0.45703 2.8047,-1.1758 4.2344,-2.1562 z"
         id="path962" />
    </symbol>
    <symbol
       id="c-2"
       overflow="visible">
      <path
         d="m 20.188,-16.391 c -0.63672,-0.28906 -1.2656,-0.50391 -1.8906,-0.64062 -0.61719,-0.14453 -1.2422,-0.21875 -1.875,-0.21875 -1.8438,0 -3.2656,0.59375 -4.2656,1.7812 -1,1.18745 -1.5,2.8867 -1.5,5.0938 v 10.375 H 3.4537 v -22.516 h 7.2031 v 3.7031 c 0.92578,-1.4766 1.9883,-2.5547 3.1875,-3.2344 1.1953,-0.67578 2.6328,-1.0156 4.3125,-1.0156 0.23828,0 0.5,0.01172 0.78125,0.03125 0.28125,0.02344 0.6875,0.07031 1.2188,0.14062 z"
         id="path965" />
    </symbol>
    <symbol
       id="b-1"
       overflow="visible">
      <path
         d="m 25.938,-11.312 v 2.0469 H 9.11 c 0.17578,1.6875 0.78516,2.9531 1.8281,3.7969 1.0391,0.84375 2.5,1.2656 4.375,1.2656 1.5195,0 3.0703,-0.22266 4.6562,-0.67188 1.5938,-0.44531 3.2266,-1.1289 4.9062,-2.0469 v 5.5625 c -1.7109,0.63672 -3.418,1.1172 -5.125,1.4375 -1.6992,0.33203 -3.3984,0.5 -5.0938,0.5 -4.0742,0 -7.2422,-1.0312 -9.5,-3.0938 -2.2617,-2.0703 -3.3906,-4.9766 -3.3906,-8.7188 0,-3.6758 1.1094,-6.5664 3.3281,-8.6719 2.2188,-2.1016 5.2695,-3.1562 9.1562,-3.1562 3.5391,0 6.375,1.0703 8.5,3.2031 2.125,2.125 3.1875,4.9766 3.1875,8.5469 z m -7.4062,-2.3906 c 0,-1.375 -0.40234,-2.4766 -1.2031,-3.3125 -0.79297,-0.84375 -1.8281,-1.2656 -3.1094,-1.2656 -1.3984,0 -2.5312,0.39844 -3.4062,1.1875 -0.86719,0.78125 -1.4062,1.9141 -1.625,3.3906 z"
         id="path968" />
    </symbol>
    <symbol
       id="e-7"
       overflow="visible">
      <path
         d="m 13.547,-10.125 c -1.5,0 -2.6328,0.25781 -3.3906,0.76562 -0.75,0.5 -1.125,1.25 -1.125,2.25 0,0.90625 0.30078,1.6211 0.90625,2.1406 0.61328,0.51172 1.4609,0.76562 2.5469,0.76562 1.3516,0 2.4883,-0.48438 3.4062,-1.4531 0.92578,-0.96875 1.3906,-2.1875 1.3906,-3.6562 v -0.8125 z m 11,-2.7188 V 2e-4 h -7.2656 v -3.3438 c -0.96094,1.375 -2.043,2.375 -3.25,3 -1.2109,0.61328 -2.6797,0.92188 -4.4062,0.92188 -2.3359,0 -4.2305,-0.67578 -5.6875,-2.0312 -1.4492,-1.3633 -2.1719,-3.1289 -2.1719,-5.2969 0,-2.6445 0.90625,-4.582 2.7188,-5.8125 1.8203,-1.2383 4.6758,-1.8594 8.5625,-1.8594 h 4.2344 v -0.5625 c 0,-1.1328 -0.44922,-1.9688 -1.3438,-2.5 -0.89844,-0.53125 -2.2969,-0.79688 -4.2031,-0.79688 -1.543,0 -2.9766,0.15625 -4.2969,0.46875 -1.3242,0.3125 -2.5586,0.77734 -3.7031,1.3906 v -5.4844 c 1.5391,-0.375 3.0859,-0.66016 4.6406,-0.85938 1.5625,-0.19531 3.1172,-0.29688 4.6719,-0.29688 4.0625,0 6.9922,0.80469 8.7969,2.4062 1.8008,1.6055 2.7031,4.2109 2.7031,7.8125 z"
         id="path971" />
    </symbol>
    <symbol
       id="a-8"
       overflow="visible">
      <path
         d="m 11.312,-28.906 v 6.3906 h 7.4219 v 5.1406 H 11.312 v 9.5625 c 0,1.043 0.20703,1.75 0.625,2.125 0.41406,0.36719 1.2422,0.54688 2.4844,0.54688 h 3.6875 V 1.8e-4 H 11.937 c -2.8438,0 -4.8594,-0.59375 -6.0469,-1.7812 -1.1797,-1.1875 -1.7656,-3.1953 -1.7656,-6.0312 v -9.5625 H 0.5464 v -5.1406 h 3.5781 v -6.3906 z"
         id="path974" />
    </symbol>
    <symbol
       id="d-5"
       overflow="visible">
      <path
         d="m 18.781,-19.219 v -12.062 h 7.2344 V 0 H 18.781 v -3.25 c -1,1.3242 -2.1016,2.293 -3.2969,2.9062 -1.1875,0.61328 -2.5625,0.92188 -4.125,0.92188 -2.7734,0 -5.0547,-1.0977 -6.8438,-3.2969 -1.7812,-2.207 -2.6719,-5.0469 -2.6719,-8.5156 0,-3.4687 0.89062,-6.3047 2.6719,-8.5156 1.7891,-2.207 4.0703,-3.3125 6.8438,-3.3125 1.5508,0 2.9258,0.3125 4.125,0.9375 1.1953,0.625 2.2969,1.5938 3.2969,2.9062 z m -4.75,14.578 c 1.5391,0 2.7188,-0.5625 3.5312,-1.6875 0.8124,-1.125 1.2188,-2.7578 1.2188,-4.9062 0,-2.1445 -0.40625,-3.7812 -1.2188,-4.9062 -0.81255,-1.125 -1.9922,-1.6875 -3.5312,-1.6875 -1.5312,0 -2.7031,0.5625 -3.5156,1.6875 -0.80469,1.125 -1.2031,2.7617 -1.2031,4.9062 0,2.1484 0.39844,3.7812 1.2031,4.9062 0.8125,1.125 1.9844,1.6875 3.5156,1.6875 z"
         id="path977" />
    </symbol>
    <symbol
       id="i-7"
       overflow="visible">
      <path
         d="m 15.438,-4.6406 c 1.5391,0 2.7188,-0.5625 3.5312,-1.6875 0.8124,-1.125 1.2188,-2.7578 1.2188,-4.9062 0,-2.1445 -0.40625,-3.7812 -1.2188,-4.9062 -0.81255,-1.125 -1.9922,-1.6875 -3.5312,-1.6875 -1.543,0 -2.7266,0.57031 -3.5469,1.7031 -0.82422,1.125 -1.2344,2.7578 -1.2344,4.8906 0,2.125 0.41016,3.7578 1.2344,4.8906 0.82031,1.1367 2.0039,1.7031 3.5469,1.7031 z m -4.7812,-14.578 c 0.98828,-1.3125 2.0859,-2.2812 3.2969,-2.9062 1.207,-0.625 2.5938,-0.9375 4.1562,-0.9375 2.7812,0 5.0625,1.1055 6.8438,3.3125 1.7812,2.2109 2.6719,5.0469 2.6719,8.5156 0,3.4687 -0.89062,6.3086 -2.6719,8.5156 -1.7812,2.1992 -4.0625,3.2969 -6.8438,3.2969 -1.5625,0 -2.9492,-0.30859 -4.1562,-0.92188 -1.2109,-0.625 -2.3086,-1.5938 -3.2969,-2.9062 v 3.25 H 3.4537 v -31.281 h 7.2031 z"
         id="path980" />
    </symbol>
    <symbol
       id="h-4"
       overflow="visible">
      <path
         d="m 0.5,-22.516 h 7.2031 l 6.0469,15.281 5.1406,-15.281 h 7.2031 L 16.6249,2.125 c -0.94922,2.5078 -2.0586,4.2656 -3.3281,5.2656 -1.2617,1 -2.9336,1.5 -5.0156,1.5 H 4.125 V 4.1562 h 2.25 c 1.2188,0 2.1016,-0.19531 2.6562,-0.57812 0.5625,-0.38672 0.99219,-1.0859 1.2969,-2.0938 l 0.20312,-0.625 z"
         id="path983" />
    </symbol>
    <symbol
       id="g-1"
       overflow="visible">
      <path
         d="M 22,-5.4688 H 9.891 L 7.9848,0 H 0.2036 l 11.109,-30.016 H 20.547 L 31.656,0 h -7.7656 z m -10.172,-5.5625 h 8.2188 l -4.1094,-11.953 z"
         id="path986" />
    </symbol>
    <symbol
       id="r-8"
       overflow="visible">
      <path
         d="M 26.094,-13.703 V 0 h -7.2344 v -10.5 c 0,-1.9375 -0.04687,-3.2734 -0.14062,-4.0156 -0.08594,-0.73828 -0.23047,-1.2812 -0.4375,-1.625 -0.28125,-0.46875 -0.66797,-0.83203 -1.1562,-1.0938 -0.48047,-0.25781 -1.0273,-0.39062 -1.6406,-0.39062 -1.5,0 -2.6836,0.57812 -3.5469,1.7344 -0.85547,1.1562 -1.2812,2.7617 -1.2812,4.8125 v 11.078 h -7.2031 v -22.516 h 7.2031 v 3.2969 c 1.082,-1.3125 2.2344,-2.2812 3.4531,-2.9062 1.2187,-0.625 2.5664,-0.9375 4.0469,-0.9375 2.5938,0 4.5625,0.79688 5.9062,2.3906 1.3516,1.5938 2.0312,3.918 2.0312,6.9688 z"
         id="path989" />
    </symbol>
    <symbol
       id="f-5"
       overflow="visible">
      <path
         d="m 3.4531,-22.516 h 7.2031 v 22.109 c 0,3.0195 -0.72656,5.3203 -2.1719,6.9062 C 7.0351,8.093 4.9374,8.8898 2.1874,8.8898 H -1.3595 V 4.1554 h 1.2344 c 1.375,0 2.3125,-0.30859 2.8125,-0.92188 0.50781,-0.61719 0.76562,-1.8281 0.76562,-3.6406 z m 0,-8.7656 h 7.2031 v 5.875 H 3.4531 Z"
         id="path992" />
    </symbol>
    <symbol
       id="q-9"
       overflow="visible">
      <path
         d="m 21.047,-21.812 v 5.4688 c -1.543,-0.64453 -3.0312,-1.1289 -4.4688,-1.4531 -1.4297,-0.32031 -2.7773,-0.48438 -4.0469,-0.48438 -1.375,0 -2.3984,0.17188 -3.0625,0.51562 -0.65625,0.34375 -0.98438,0.87109 -0.98438,1.5781 0,0.58594 0.25,1.0312 0.75,1.3438 0.5,0.30469 1.3984,0.52734 2.7031,0.67188 l 1.2656,0.1875 c 3.6875,0.46875 6.1641,1.2422 7.4375,2.3125 1.2812,1.0625 1.9219,2.7422 1.9219,5.0312 0,2.4062 -0.88672,4.2148 -2.6562,5.4219 -1.7734,1.1992 -4.4141,1.7969 -7.9219,1.7969 -1.4922,0 -3.0312,-0.12109 -4.625,-0.35938 -1.5859,-0.22656 -3.2148,-0.57812 -4.8906,-1.0469 v -5.4688 c 1.4375,0.69922 2.9062,1.2266 4.4062,1.5781 1.5078,0.34375 3.0469,0.51562 4.6094,0.51562 1.4062,0 2.4609,-0.19141 3.1719,-0.57812 0.70703,-0.39453 1.0625,-0.97266 1.0625,-1.7344 0,-0.64453 -0.24609,-1.125 -0.73438,-1.4375 -0.49219,-0.3125 -1.4648,-0.55469 -2.9219,-0.73438 l -1.2656,-0.15625 c -3.2109,-0.40625 -5.4609,-1.1484 -6.75,-2.2344 -1.2812,-1.082 -1.9219,-2.7266 -1.9219,-4.9375 0,-2.3828 0.81641,-4.1562 2.4531,-5.3125 1.6328,-1.1562 4.1445,-1.7344 7.5312,-1.7344 1.3203,0 2.7109,0.10547 4.1719,0.3125 1.457,0.19922 3.0469,0.51172 4.7656,0.9375 z"
         id="path995" />
    </symbol>
    <symbol
       id="p-7"
       overflow="visible">
      <path
         d="m 3.7812,-30.016 h 7.7344 v 10.953 l 11.156,-10.953 H 31.656 L 17.203,-15.797 33.156,0 H 23.4529 L 11.5149,-11.828 V 0 H 3.7805 Z"
         id="path998" />
    </symbol>
    <symbol
       id="o-5"
       overflow="visible">
      <path
         d="m 3.4531,-22.516 h 7.2031 V 0 H 3.4531 Z m 0,-8.7656 h 7.2031 v 5.875 H 3.4531 Z"
         id="path1001" />
    </symbol>
    <symbol
       id="n-3"
       overflow="visible">
      <path
         d="m 24.328,-18.781 c 0.90625,-1.3945 1.9844,-2.457 3.2344,-3.1875 1.2578,-0.72656 2.6406,-1.0938 4.1406,-1.0938 2.582,0 4.5508,0.79688 5.9062,2.3906 1.3516,1.5938 2.0312,3.918 2.0312,6.9688 V 1e-4 H 32.406 v -11.734 c 0.0078,-0.17578 0.01953,-0.35938 0.03125,-0.54688 0.0078,-0.1875 0.01563,-0.45703 0.01563,-0.8125 0,-1.5938 -0.23438,-2.7422 -0.70312,-3.4531 -0.46875,-0.71875 -1.2305,-1.0781 -2.2812,-1.0781 -1.3672,0 -2.4219,0.5625 -3.1719,1.6875 -0.74219,1.125 -1.1211,2.75 -1.1406,4.875 V 2e-5 h -7.25 v -11.734 c 0,-2.5 -0.21484,-4.1016 -0.64062,-4.8125 -0.42969,-0.71875 -1.1875,-1.0781 -2.2812,-1.0781 -1.3867,0 -2.4531,0.57031 -3.2031,1.7031 -0.75,1.125 -1.125,2.7422 -1.125,4.8438 v 11.078 h -7.2344 v -22.516 h 7.2344 v 3.2969 c 0.88281,-1.2695 1.8984,-2.2266 3.0469,-2.875 1.1445,-0.64453 2.4062,-0.96875 3.7812,-0.96875 1.5625,0 2.9375,0.375 4.125,1.125 1.1953,0.75 2.1016,1.8047 2.7188,3.1562 z"
         id="path1004" />
    </symbol>
    <symbol
       id="m-8"
       overflow="visible">
      <path
         d="m 18.281,-31.281 v 4.7188 h -3.9844 c -1.0234,0 -1.7344,0.1875 -2.1406,0.5625 -0.39844,0.36719 -0.59375,1.0078 -0.59375,1.9219 v 1.5625 h 6.1562 v 5.1406 h -6.1562 V 3e-4 h -7.2031 v -17.375 h -3.5781 v -5.1406 h 3.5781 v -1.5625 c 0,-2.457 0.67969,-4.2695 2.0469,-5.4375 1.375,-1.1758 3.4922,-1.7656 6.3594,-1.7656 z"
         id="path1007" />
    </symbol>
    <symbol
       id="l-8"
       overflow="visible">
      <path
         d="M 26.094,-13.703 V 0 h -7.2344 v -10.453 c 0,-1.9688 -0.04687,-3.3203 -0.14062,-4.0625 -0.08594,-0.73828 -0.23047,-1.2812 -0.4375,-1.625 -0.28125,-0.46875 -0.66797,-0.83203 -1.1562,-1.0938 -0.48047,-0.25781 -1.0273,-0.39062 -1.6406,-0.39062 -1.5,0 -2.6836,0.57812 -3.5469,1.7344 -0.85547,1.1562 -1.2812,2.7617 -1.2812,4.8125 V -2e-5 h -7.2031 v -31.281 h 7.2031 v 12.062 c 1.082,-1.3125 2.2344,-2.2812 3.4531,-2.9062 1.2187,-0.625 2.5664,-0.9375 4.0469,-0.9375 2.5938,0 4.5625,0.79688 5.9062,2.3906 1.3516,1.5938 2.0312,3.918 2.0312,6.9688 z"
         id="path1010" />
    </symbol>
    <symbol
       id="k-3"
       overflow="visible">
      <path
         d="m 3.7812,-30.016 h 8.6406 l 10.922,20.594 v -20.594 h 7.3281 V 0 H 22.0313 L 11.1253,-20.594 V 0 H 3.7815 Z"
         id="path1013" />
    </symbol>
    <symbol
       id="j-1"
       overflow="visible">
      <path
         d="m 3.7812,-30.016 h 12.844 c 3.8203,0 6.7539,0.85156 8.7969,2.5469 2.0391,1.6992 3.0625,4.1172 3.0625,7.25 0,3.1484 -1.0234,5.5703 -3.0625,7.2656 -2.043,1.6992 -4.9766,2.5469 -8.7969,2.5469 H 11.5158 V -6e-4 H 3.7814 Z m 7.7344,5.6094 v 8.3906 h 4.2812 c 1.5,0 2.6562,-0.36328 3.4688,-1.0938 0.82031,-0.73828 1.2344,-1.7734 1.2344,-3.1094 0,-1.3438 -0.41406,-2.375 -1.2344,-3.0938 -0.8125,-0.72656 -1.9688,-1.0938 -3.4688,-1.0938 z"
         id="path1016" />
    </symbol>
  </defs>
  <path
     id="path67"
     style="stroke-width:1.33333;fill:#212121;fill-opacity:1"
     d="M 224.74805 75.734375 C 179.20138 75.734375 143.36328 111.57247 143.36328 157.11914 L 143.36328 509.54688 C 143.36328 555.09354 179.20138 590.93164 224.74805 590.93164 L 708.58789 590.93164 L 708.5957 590.93164 C 753.3917 590.93164 789.98137 555.09159 789.9707 509.54492 L 789.9707 225.8125 C 789.9707 180.26583 754.1326 144.42773 708.58594 144.42773 L 483.83789 144.42773 L 410.66602 83.949219 C 403.94735 78.720019 395.73508 75.734375 387.52148 75.734375 L 224.74805 75.734375 z M 576.4707 178.66797 L 642.35352 178.66797 C 648.41605 178.66797 653.33203 183.58382 653.33203 189.64648 L 653.33203 255.5293 C 653.33203 261.59443 648.41618 266.51172 642.35352 266.51172 L 576.4707 266.51172 C 570.40557 266.51172 565.48828 261.59463 565.48828 255.5293 L 565.48828 189.64648 C 565.48828 183.58395 570.40537 178.66797 576.4707 178.66797 z M 406.26953 200.62891 L 472.15234 200.62891 C 478.21748 200.62891 483.13477 205.54476 483.13477 211.60742 L 483.13477 277.49023 C 483.13477 283.55537 478.21768 288.47266 472.15234 288.47266 L 406.26953 288.47266 C 400.207 288.47266 395.29102 283.55557 395.29102 277.49023 L 395.29102 211.60742 C 395.29102 205.54489 400.20686 200.62891 406.26953 200.62891 z M 290.98047 299.45117 L 356.86328 299.45117 C 362.92841 299.45117 367.8457 304.36826 367.8457 310.43359 L 367.8457 381.80664 L 439.21875 381.80664 C 445.28388 381.80664 450.19727 386.71989 450.19727 392.78516 L 450.19727 464.1582 L 521.56641 464.1543 C 527.63154 464.1543 532.54883 469.07139 532.54883 475.13672 L 532.54883 541.01953 C 532.54883 547.08206 527.63174 551.99805 521.56641 551.99805 L 290.98047 551.99805 C 284.91794 551.99805 280.00195 547.0822 280.00195 541.01953 L 280.00195 310.43359 C 280.00195 304.36846 284.9178 299.45117 290.98047 299.45117 z M 538.03906 326.90039 L 603.92188 326.90039 C 609.98701 326.90039 614.90039 331.81748 614.90039 337.88281 L 614.90039 403.76562 C 614.90039 409.82816 609.98714 414.74609 603.92188 414.74609 L 538.03906 414.74609 C 531.97393 414.74609 527.05859 409.82829 527.05859 403.76562 L 527.05859 337.88281 C 527.05859 331.81768 531.9738 326.90039 538.03906 326.90039 z "
     transform="scale(0.75)" />
</svg>
