<?xml version="1.0" encoding="UTF-8"?>
<svg version="1.1" viewBox="0 0 512 512" xmlns="http://www.w3.org/2000/svg">
  <g fill-opacity="0.85">
    <path
      d="m123.24 426.99 33.418-0.0256h-33.418zm339.76-160.32-108.95-193.61c-18.701-33.24-48.907-57.026-85.065-66.965-21.416-5.8763-43.379-6.464-64.471-1.9673-0.0499 0-0.0996 0.02555-0.1494 0.02555-14.443 3.0659-28.488 8.5079-41.661 16.3-13.123 7.767-24.703 17.527-34.514 28.794-0.0996 0.1022-0.19921 0.22994-0.29882 0.33214-14.269 16.479-24.728 36.229-30.455 58.15-9.6868 37.072-4.7065 75.805 13.995 109.07l51.721 91.927-63.649 118.29h-19.822c-4.4574 0-8.4417 2.9382-9.8363 7.2816l-20.743 63.873c-1.0459 3.2448-0.52294 6.8217 1.4194 9.581 1.9423 2.7849 5.08 4.42 8.4168 4.42h145.28c3.3368 0 6.4745-1.6352 8.4168-4.42 1.9424-2.7849 2.4902-6.3362 1.4194-9.581l-20.743-63.873c-1.4194-4.3434-5.3788-7.2816-9.8363-7.2816h-3.0131l24.105-44.022 15.887 27.542c1.9423 3.347 5.3788 5.2121 8.9398 5.2121 1.768 0 3.5361-0.45989 5.1796-1.4308l34.888-20.669 33.369 22.611c1.7182 1.1753 3.7104 1.7629 5.7274 1.7629 1.793 0 3.5859-0.48543 5.1796-1.4308l9.9359-5.8764c4.831 3.1937 10.035 5.6208 15.439 7.2049v9.1211h-20.743c-4.4574 0-8.4418 2.9382-9.8363 7.2816l-20.743 63.873c-1.0459 3.2448-0.52294 6.8217 1.4194 9.581 1.9424 2.7849 5.08 4.42 8.4168 4.42h145.28c3.3369 0 6.4745-1.6352 8.4168-4.42 1.9424-2.7849 2.4902-6.3362 1.4194-9.581l-20.743-63.873c-1.4194-4.3434-5.3788-7.2816-9.8363-7.2816h-20.743v-31.834c7.1967-10.577 10.932-23.429 10.284-36.587l9.911-5.8763c3.4116-2.0184 5.4037-5.8252 5.1796-9.862l-2.4653-41.007 34.888-20.669c4.9555-2.9382 6.6488-9.4533 3.7851-14.538z"
      fill="#fafafa" />
    <path
      d="m189.83 490.87h-116.47l13.845-42.591h88.8zm-66.588-63.873 108.6-201.84c1.1455 1.6096 2.3657 3.1681 3.7851 4.5989 6.2504 6.4129 14.393 10.169 23.134 10.782l-102.1 186.43h-33.418zm149.06-212.29c-5.8769 6.0296-16.136 6.0296-22.013 0-2.9384-3.0148-4.5571-7.0261-4.5571-11.293 0-4.2667 1.6186-8.278 4.5571-11.293 2.9384-3.0148 6.848-4.6755 11.007-4.6755 4.1586 0 8.0682 1.6607 11.007 4.6755 2.9384 3.0148 4.557 7.0261 4.557 11.293 0 4.2667-1.6186 8.278-4.557 11.293zm156.16 276.16h-116.47l13.845-42.591h88.8zm-68.605-63.873v-7.2049c7.1219-0.66428 14.169-2.7338 20.743-6.1829v13.388zm12.974-33.137c-8.392 4.9821-18.178 6.1574-27.168 3.8068l43.977-26.06c-2.5151 9.1722-8.4168 17.271-16.809 22.253zm32.796-56.311-85.961 50.92-10.758 6.3618-19.349-13.107 114.7-67.936zm-172.55 53.04-16.784-29.075 45.77-83.597c12.277-0.12774 24.279-3.4236 35.062-9.6832 34.838-20.261 47.09-65.841 27.342-101.58-2.8388-5.1099-9.1639-6.8983-14.144-4.0112-4.9804 2.9126-6.7235 9.4022-3.9096 14.512 14.119 25.524 5.3539 58.074-19.523 72.56-3.8349 2.2228-7.9188 3.8324-12.102 4.9821l17.207-31.4c0-0.0256 0-0.0256 0.0248-0.0511 3.6357-5.8763 5.6029-12.698 5.6029-19.826 0-9.9642-3.7851-19.315-10.633-26.341-6.848-7.0261-15.987-10.91-25.674-10.91-9.7117 0-18.826 3.8835-25.674 10.91-2.0918 2.1206-3.8349 4.4967-5.329 7.0005-0.0746 0.12775-0.17432 0.22995-0.24901 0.35769l-0.37354 0.68983c-0.22411 0.4088-0.44824 0.79204-0.64745 1.2008l-54.137 100.61-40.316-71.589 206.69-122.43 98.562 175.17zm229.92-123.91-108.95-193.61c-18.701-33.24-48.907-57.026-85.065-66.965-21.416-5.8763-43.379-6.464-64.471-1.9673-0.0499 0-0.0996 0.02555-0.1494 0.02555-14.443 3.0659-28.488 8.5079-41.661 16.3-13.123 7.767-24.703 17.527-34.514 28.794-0.0996 0.1022-0.19921 0.22994-0.29882 0.33214-14.269 16.479-24.728 36.229-30.455 58.15-9.6868 37.072-4.7065 75.805 13.995 109.07l51.721 91.927-63.649 118.29h-19.822c-4.4574 0-8.4417 2.9382-9.8363 7.2816l-20.743 63.873c-1.0459 3.2448-0.52294 6.8217 1.4194 9.581 1.9423 2.7849 5.08 4.42 8.4168 4.42h145.28c3.3368 0 6.4745-1.6352 8.4168-4.42 1.9424-2.7849 2.4902-6.3362 1.4194-9.581l-20.743-63.873c-1.4194-4.3434-5.3788-7.2816-9.8363-7.2816h-3.0131l24.105-44.022 15.887 27.542c1.9423 3.347 5.3788 5.2121 8.9398 5.2121 1.768 0 3.5361-0.45989 5.1796-1.4308l34.888-20.669 33.369 22.611c1.7182 1.1753 3.7104 1.7629 5.7274 1.7629 1.793 0 3.5859-0.48543 5.1796-1.4308l9.9359-5.8764c4.831 3.1937 10.035 5.6208 15.439 7.2049v9.1211h-20.743c-4.4574 0-8.4418 2.9382-9.8363 7.2816l-20.743 63.873c-1.0459 3.2448-0.52294 6.8217 1.4194 9.581 1.9424 2.7849 5.08 4.42 8.4168 4.42h145.28c3.3369 0 6.4745-1.6352 8.4168-4.42 1.9424-2.7849 2.4902-6.3362 1.4194-9.581l-20.743-63.873c-1.4194-4.3434-5.3788-7.2816-9.8363-7.2816h-20.743v-31.834c7.1967-10.577 10.932-23.429 10.284-36.587l9.911-5.8763c3.4116-2.0184 5.4037-5.8252 5.1796-9.862l-2.4653-41.007 34.888-20.669c4.9555-2.9382 6.6488-9.4533 3.7851-14.538z"
      fill="#212121" />
    <path
      d="m138.38 69.915c6.9476 2.9382 14.319 4.4967 21.714 4.4967 9.8362 0 19.697-2.606 28.538-7.8436 15.489-9.1722 25.649-25.115 27.965-42.974 15.514-2.1717 31.451-1.2008 47.015 3.0659 27.417 7.5371 50.775 24.476 66.837 48.084l-205.79 121.9c-1.4941-3.2703-2.789-6.5662-3.9843-9.9387l61.259-36.28c4.9555-2.9382 6.6737-9.4533 3.7851-14.538l-15.564-27.67c-1.3696-2.4527-3.6357-4.2412-6.3002-4.9566-2.6645-0.74092-5.5033-0.35768-7.869 1.0731l-41.437 24.553c0.67235-5.2376 1.5688-10.45 2.9384-15.636 4.1835-15.994 11.305-30.634 20.893-43.332z"
      fill="#bdbdde" />
    <path
      d="m241.75 54.955c-1.672 0.0421-3.3569 0.50101-4.9055 1.4192l-44.898 26.674c-2.3906 1.4052-4.1338 3.7304-4.8311 6.4642-0.72215 2.7338-0.34882 5.6463 1.0457 8.0735l15.539 27.644c1.9174 3.4236 5.4036 5.3145 8.9895 5.3145 1.768 0 3.5363-0.45979 5.1798-1.4307l44.923-26.623c2.3906-1.4052 4.1333-3.7299 4.8306-6.4637 0.72214-2.7338 0.34881-5.6468-1.0457-8.074l-15.564-27.67c-1.9688-3.4955-5.5854-5.4211-9.2638-5.3284zm-3.4858 25.231 5.1793 9.2232-26.968 15.968-5.1798-9.2232z"
      fill="#212121" />
    <path
      d="m113.83 153.9 43.553-25.805 5.1796 9.2233-47.388 28.079c-0.62253-3.8068-1.0708-7.6393-1.3447-11.497z"
      fill="#708dd7" />
    <path
      d="m173.09 38.898c6.7235-3.9857 13.746-7.2305 20.943-9.7854-2.9384 7.8692-8.392 14.64-15.763 19.009-7.371 4.3689-15.813 5.8253-23.906 4.4967 5.7274-5.1354 11.978-9.7343 18.726-13.72z"
      fill="#708dd7" />
    <path d="m926.8 309.3 20.799 36.1-108.3 62.5-20.801-36.1z"
      fill="#708dd7" />
  </g>
</svg>