<svg width="700pt" height="700pt" viewBox="0 0 700 700" xmlns="http://www.w3.org/2000/svg"><g fill="#efefef"><path d="M237.94 282.652l57.094 43.172a6.559 6.559 0 009.168-1.293 6.564 6.564 0 00-1.254-9.176l-50.172-37.938 50.172-37.937a6.562 6.562 0 001.21-9.145 6.56 6.56 0 00-9.124-1.324l-57.094 43.172a6.568 6.568 0 00-2.606 5.234c0 2.055.965 3.992 2.606 5.235zM349.44 324.542a6.556 6.556 0 004.332 2.543 6.569 6.569 0 004.863-1.265l57.094-43.172a6.564 6.564 0 000-10.47l-57.094-43.171a6.574 6.574 0 00-4.875-1.297 6.558 6.558 0 00-5.617 7.43 6.553 6.553 0 002.574 4.336l50.172 37.938-50.172 37.938a6.587 6.587 0 00-2.543 4.332 6.577 6.577 0 001.265 4.859zM316.11 348.642a6.583 6.583 0 004.875-1.207 6.558 6.558 0 002.593-4.3l19.492-128.77a6.564 6.564 0 00-12.98-1.97l-19.488 128.77a6.583 6.583 0 001.207 4.876 6.56 6.56 0 004.3 2.597z"/><path d="M593.79 272.342h-35.973v-111.51a49.672 49.672 0 00-49.316-49.269H145.17c-26.934 0-48.918 22.336-48.918 49.27v260.26H80.55a6.247 6.247 0 00-6.172 6.57v32.513a48.208 48.208 0 0014.129 34.312 48.21 48.21 0 0034.324 14.105H438.6v47.188c0 17.773 14.016 32.656 31.789 32.656h123.4c17.773 0 31.84-14.883 31.84-32.656v-251.1a32.033 32.033 0 00-31.84-32.34zm-91.754 0h-31.648a31.984 31.984 0 00-31.79 32.34v77.035h-287.66v-212.19h351.09zm-50.312 63.438h160.78v178.28h-160.78zm160.78-31.098v17.973h-160.78v-17.973c0-10.535 8.128-19.215 18.664-19.215h123.4a18.892 18.892 0 0118.714 19.215zm-503.12-143.85c0-19.695 16.098-36.145 35.793-36.145h363.33a36.535 36.535 0 0125.477 10.68 36.553 36.553 0 0110.715 25.465v111.51h-29.531v-109.08c0-3.625-2.481-6.86-6.102-6.86h-364.45a7.027 7.027 0 00-6.797 6.86v225.46c0 3.625 3.172 6.114 6.797 6.114h293.98v26.25h-49.73c-1.836 0-3.586.77-4.824 2.117l-8.582 9.324h-.004a35.814 35.814 0 01-26.266 11.527h-44.711a35.83 35.83 0 01-26.27-11.523l-8.582-9.32a6.574 6.574 0 00-4.828-2.125h-155.42zm13.453 334.64a35.069 35.069 0 01-35.328-35.293v-25.957h174.43l6.632 7.211a48.99 48.99 0 0035.918 15.758h44.715-.004a48.987 48.987 0 0035.922-15.758l6.63-7.21h46.854v61.25zm470.95 79.844h-123.4c-10.535 0-18.664-8.996-18.664-19.53V527.19h160.78v28.594c0 10.535-8.18 19.531-18.715 19.531z"/><path d="M510.24 309.532h43.684a6.562 6.562 0 006.562-6.562 6.562 6.562 0 00-6.562-6.563H510.24a6.562 6.562 0 00-6.563 6.563 6.562 6.562 0 006.563 6.562zM532.09 531.202a20.008 20.008 0 00-20.007 20.004 20.01 20.01 0 0020.004 20.005 19.993 19.993 0 0014.145-5.86 19.992 19.992 0 005.859-14.144 20.011 20.011 0 00-5.863-14.137 20.037 20.037 0 00-14.137-5.868zm0 26.883a6.883 6.883 0 01-6.36-4.246 6.88 6.88 0 018.988-8.988 6.866 6.866 0 014.247 6.355 6.888 6.888 0 01-6.875 6.88zM499.64 366.412h100.12-.004a6.562 6.562 0 006.562-6.562 6.562 6.562 0 00-6.562-6.563h-100.11a6.562 6.562 0 00-6.563 6.563 6.562 6.562 0 006.563 6.562zM599.75 386.092H499.64a6.562 6.562 0 00-6.563 6.563 6.562 6.562 0 006.563 6.562h100.12-.004a6.562 6.562 0 006.562-6.562 6.562 6.562 0 00-6.562-6.563zM599.75 417.812H499.64a6.562 6.562 0 00-6.563 6.563 6.562 6.562 0 006.563 6.562h100.12-.004a6.562 6.562 0 006.562-6.562 6.562 6.562 0 00-6.562-6.563zM599.75 450.622H499.64a6.562 6.562 0 00-6.563 6.563 6.562 6.562 0 006.563 6.562h100.12-.004a6.562 6.562 0 006.562-6.562 6.562 6.562 0 00-6.562-6.563zM599.75 483.442H499.64a6.562 6.562 0 00-6.563 6.563 6.562 6.562 0 006.563 6.562h100.12-.004a6.562 6.562 0 006.562-6.562 6.562 6.562 0 00-6.562-6.563zM479.05 353.282h-14.633a6.562 6.562 0 00-6.563 6.563 6.562 6.562 0 006.563 6.562h14.633a6.562 6.562 0 006.562-6.562 6.562 6.562 0 00-6.562-6.563zM479.05 386.092h-14.633a6.562 6.562 0 00-6.563 6.563 6.562 6.562 0 006.563 6.562h14.633a6.562 6.562 0 006.562-6.562 6.562 6.562 0 00-6.562-6.563zM479.05 417.812h-14.633a6.562 6.562 0 00-6.563 6.563 6.562 6.562 0 006.563 6.562h14.633a6.562 6.562 0 006.562-6.562 6.562 6.562 0 00-6.562-6.563zM479.05 450.622h-14.633a6.562 6.562 0 00-6.563 6.563 6.562 6.562 0 006.563 6.562h14.633a6.562 6.562 0 006.562-6.562 6.562 6.562 0 00-6.562-6.563zM479.05 483.442h-14.633a6.562 6.562 0 00-6.563 6.563 6.562 6.562 0 006.563 6.562h14.633a6.562 6.562 0 006.562-6.562 6.562 6.562 0 00-6.562-6.563z"/></g></svg>