<svg width="700pt" height="700pt" viewBox="0 0 700 700" xmlns="http://www.w3.org/2000/svg"><path d="M259 98.008c-5.997-.211-11.992 3.062-15.051 8.219-10.836 17.602-13.832 34.797-9.625 48.789 4.207 13.992 13.18 22.715 19.602 29.902 6.418 7.191 10.359 12.53 11.55 17.664 1.192 5.132 1 12.48-7.699 27.105-4.492 7.601-1.66 18.602 5.946 23.09 7.605 4.488 18.613 1.652 23.102-5.95 11.46-19.266 14.832-36.875 11.375-51.762-3.457-14.887-12.48-24.77-19.25-32.352-6.77-7.582-11.176-13.164-12.426-17.312-1.246-4.148-1.59-8.976 6.125-21.508 3.21-4.976 3.504-11.69.742-16.926-2.762-5.238-8.473-8.789-14.395-8.953zm89.602 0c-5.997-.211-11.992 3.062-15.051 8.219-10.836 17.602-13.832 34.797-9.625 48.789 4.207 13.992 13.18 22.715 19.602 29.902 6.418 7.191 10.359 12.53 11.55 17.664 1.192 5.132 1 12.48-7.699 27.105-4.492 7.601-1.66 18.602 5.946 23.09 7.605 4.488 18.613 1.652 23.102-5.95 11.46-19.266 14.832-36.875 11.375-51.762-3.457-14.887-12.48-24.77-19.25-32.352-6.77-7.582-11.176-13.164-12.426-17.312-1.246-4.148-1.59-8.976 6.125-21.508 3.21-4.976 3.504-11.69.742-16.926-2.762-5.238-8.473-8.789-14.395-8.953zm-185.15 168.23c-8.2.86-15.094 8.55-15.051 16.789v247.1c0 39.527 32.609 71.875 72.273 71.875h180.25c39.668 0 72.273-32.344 72.273-71.875v-.875h34.3c24.126 0 44.103-19.941 44.103-44.07v-135.88c0-24.13-19.973-43.895-44.102-43.895h-34.301v-22.383c0-8.79-8.004-16.79-16.801-16.79h-162.4c-8.875-.124-17.04 7.919-17.04 16.79 0 8.87 8.165 16.914 17.04 16.789h145.6v230.31c0 21.348-16.883 38.297-38.676 38.297H220.67c-21.79 0-38.676-16.95-38.676-38.297v-230.31h56c8.875.125 17.039-7.918 17.039-16.79 0-8.87-8.164-16.913-17.04-16.788h-74.55zm309.75 72.746h34.3c6.211 0 10.5 4.328 10.5 10.316v135.88c0 5.992-4.288 10.492-10.5 10.492h-34.3z" fill="#efefef"/></svg>