<svg width="700pt" height="700pt" viewBox="0 0 700 700" xmlns="http://www.w3.org/2000/svg"><path d="M368.2 612.5c-144.76 0-262.5-117.74-262.5-262.5S223.44 87.5 368.2 87.5c8.192 0 16.345.387 24.536 1.574 7.14 1.051 12.949 6.371 14.559 13.406a17.526 17.526 0 0 1-7.246 18.41C347.237 156.66 315.7 216.124 315.7 280c0 106.12 86.379 192.5 192.5 192.5 22.19 0 43.262-3.57 62.684-10.535 6.894-2.484 14.805-.316 19.496 5.426a17.494 17.494 0 0 1 1.328 20.195c-48.055 78.223-131.63 124.91-223.51 124.91zm-25.48-488.57C229.25 136.602 140.7 233.17 140.7 350c0 125.44 102.06 227.5 227.5 227.5 63.91 0 123.16-26.039 165.59-71.363-8.366.875-16.905 1.363-25.585 1.363-125.44 0-227.5-102.06-227.5-227.5 0-58.766 22.609-114.38 62.02-156.07z" fill="#efefef"/></svg>