<svg width="700pt" height="700pt" viewBox="0 0 700 700" xmlns="http://www.w3.org/2000/svg"><path d="M525 525H192.5C124.949 525 70 470.051 70 402.5c0-66.57 53.375-120.89 119.56-122.46C217.107 216.688 279.966 175 350 175c84.316 0 155.26 59.078 171.57 140.04C582.75 313.536 630 360.958 630 420c0 57.891-47.109 105-105 105ZM192.5 315c-48.23 0-87.5 39.234-87.5 87.5s39.27 87.5 87.5 87.5H525c38.605 0 70-31.395 70-70 0-38.605-31.395-70-70-70-5.144 0-10.395.594-14.98 1.434-4.797.91-9.8-.246-13.719-3.184-3.922-2.941-6.441-7.387-6.894-12.25-7.282-71.82-67.203-126-139.41-126-59.606 0-112.73 37.766-132.2 93.941-2.977 8.54-11.935 13.508-20.79 11.234-.804-.176-3.117-.176-4.515-.176z" fill="#efefef"/></svg>