<svg width="700pt" height="700pt" viewBox="0 0 700 700" xmlns="http://www.w3.org/2000/svg"><g fill="#efefef"><path d="M525 472.5H192.5C124.949 472.5 70 417.551 70 350c0-66.57 53.375-120.89 119.56-122.46C217.107 164.188 279.966 122.5 350 122.5c84.316 0 155.26 59.078 171.57 140.04C582.75 261.278 630 308.458 630 367.5c0 57.891-47.109 105-105 105Zm-332.5-210c-48.23 0-87.5 39.27-87.5 87.5 0 48.266 39.27 87.5 87.5 87.5H525c38.605 0 70-31.395 70-70 0-38.605-31.395-70-70-70-5.144 0-10.395.594-14.98 1.469-4.797.84-9.8-.281-13.719-3.184-3.922-2.941-6.441-7.386-6.894-12.25-7.282-71.855-67.203-126.04-139.41-126.04-59.606 0-112.73 37.766-132.2 93.941-2.977 8.574-11.935 13.508-20.79 11.234-.804-.175-3.117-.175-4.515-.175z"/><path d="M525 297.5c-7.98 0-15.68-.875-22.891-2.555-9.45-2.203-15.262-11.656-13.02-21.07 2.172-9.379 11.586-15.19 21.035-13.02 4.586 1.086 9.625 1.645 14.875 1.645 38.605 0 70-31.395 70-70 0-38.605-31.395-70-70-70-31.184 0-58.977 20.965-67.551 50.996-2.66 9.273-12.285 14.559-21.629 12.039-9.273-2.66-14.664-12.355-12.004-21.63 12.844-45.011 54.457-76.405 101.18-76.405 57.891 0 105 47.109 105 105 0 57.89-47.109 105-105 105zM577.5 542.5h-455c-9.66 0-17.5-7.84-17.5-17.5s7.84-17.5 17.5-17.5h455c9.66 0 17.5 7.84 17.5 17.5s-7.84 17.5-17.5 17.5zM577.5 612.5h-455c-9.66 0-17.5-7.84-17.5-17.5s7.84-17.5 17.5-17.5h455c9.66 0 17.5 7.84 17.5 17.5s-7.84 17.5-17.5 17.5z"/></g></svg>