<svg width="700pt" height="700pt" viewBox="0 0 700 700" xmlns="http://www.w3.org/2000/svg"><g fill="#efefef"><path d="M525 472.5H192.5C124.949 472.5 70 417.551 70 350c0-66.57 53.375-120.89 119.56-122.46C217.107 164.188 279.966 122.5 350 122.5c84.316 0 155.26 59.078 171.57 140.04C582.75 261.278 630 308.458 630 367.5c0 57.891-47.11 105-105 105Zm-332.5-210c-48.23 0-87.5 39.27-87.5 87.5 0 48.266 39.27 87.5 87.5 87.5H525c38.605 0 70-31.395 70-70 0-38.605-31.395-70-70-70-5.145 0-10.395.594-14.98 1.469-4.797.84-9.8-.281-13.72-3.184-3.921-2.941-6.44-7.387-6.894-12.25-7.28-71.855-67.203-126.04-139.41-126.04-59.605 0-112.73 37.766-132.2 93.941-2.976 8.574-11.934 13.508-20.789 11.234-.804-.176-3.117-.176-4.515-.176zM577.5 542.5h-455c-9.66 0-17.5-7.84-17.5-17.5s7.84-17.5 17.5-17.5h455c9.66 0 17.5 7.84 17.5 17.5s-7.84 17.5-17.5 17.5zM577.5 612.5h-455c-9.66 0-17.5-7.84-17.5-17.5s7.84-17.5 17.5-17.5h455c9.66 0 17.5 7.84 17.5 17.5s-7.84 17.5-17.5 17.5z"/><path d="M525 297.5c-7.98 0-15.68-.875-22.891-2.555-9.45-2.203-15.262-11.656-13.02-21.07 2.172-9.379 11.586-15.19 21.035-13.02 4.586 1.086 9.625 1.645 14.875 1.645 33.18 0 61.074-23.238 68.215-54.285-5.074 1.191-10.36 1.785-15.715 1.785-38.605 0-70-31.395-70-70 0-5.356.629-10.605 1.785-15.68-24.465 5.672-44.695 24.324-51.8 49.176-2.661 9.273-12.286 14.559-21.63 12.039-9.273-2.66-14.664-12.355-12.004-21.629C436.659 118.894 478.272 87.5 525 87.5c5.566 0 10.711.422 15.82 1.297 6.371 1.05 11.586 5.496 13.684 11.586 2.102 6.09.7 12.809-3.676 17.535-5.457 5.879-8.328 13.508-8.328 22.082 0 19.285 15.68 35 35 35 8.54 0 16.203-2.871 22.051-8.297 4.727-4.375 11.445-5.773 17.535-3.71 6.09 2.065 10.535 7.28 11.621 13.647A96.709 96.709 0 0 1 630 192.5c0 57.89-47.109 105-105 105z"/></g></svg>