<svg width="700pt" height="700pt" viewBox="0 0 700 700" xmlns="http://www.w3.org/2000/svg"><g fill="#efefef"><path d="M262.502 595c-9.66 0-17.5-7.84-17.5-17.5s7.84-17.5 17.5-17.5 17.5-7.875 17.5-17.5-7.84-17.5-17.5-17.5h-175c-9.66 0-17.5-7.84-17.5-17.5s7.84-17.5 17.5-17.5h175c28.945 0 52.5 23.555 52.5 52.5s-23.555 52.5-52.5 52.5zM332.502 455h-245c-9.66 0-17.5-7.84-17.5-17.5s7.84-17.5 17.5-17.5h245c9.66 0 17.5-7.875 17.5-17.5s-7.84-17.5-17.5-17.5-17.5-7.84-17.5-17.5 7.84-17.5 17.5-17.5c28.945 0 52.5 23.555 52.5 52.5s-23.555 52.5-52.5 52.5z"/><path d="M525.002 455h-87.5c-9.66 0-17.5-7.84-17.5-17.5s7.84-17.5 17.5-17.5h87.5c38.605 0 70-31.395 70-70 0-38.605-31.395-70-70-70-5.144 0-10.395.594-14.98 1.469-5.11.875-10.395-.422-14.387-3.746-3.988-3.36-6.332-8.258-6.332-13.473-5.11-40.602-26.32-75.914-58.73-98.734C407.159 148.786 379.3 140 350.003 140c-59.605 0-112.73 37.766-132.2 93.94-2.977 8.575-11.934 13.509-20.789 11.235-.805-.176-3.117-.176-4.516-.176-48.23 0-87.5 39.27-87.5 87.5 0 10.254 1.715 19.914 5.11 28.664 3.5 8.996-.98 19.145-10.012 22.609-8.961 3.5-19.145-.945-22.645-9.977-4.934-12.809-7.453-26.703-7.453-41.297 0-66.57 53.375-120.89 119.56-122.46 27.547-63.352 90.406-105.04 160.44-105.04 36.645 0 71.469 11.023 100.8 31.953 36.785 25.828 61.984 64.75 70.594 108.11 61.004-2.062 108.61 45.855 108.61 104.93 0 57.891-47.11 105-105 105zM437.502 630c-28.945 0-52.5-23.555-52.5-52.5 0-22.363 26.672-63.387 38.113-79.941 6.512-9.45 22.297-9.45 28.77 0 11.445 16.555 38.117 57.578 38.117 79.941 0 28.945-23.555 52.5-52.5 52.5Zm0-90.055c-10.078 16.977-17.359 32.234-17.5 37.59 0 9.59 7.875 17.465 17.5 17.465s17.5-7.875 17.5-17.5c-.176-5.356-7.422-20.578-17.5-37.555z"/><path d="M525.002 280c-7.98 0-15.68-.875-22.891-2.555-9.45-2.203-15.262-11.656-13.02-21.07 2.172-9.379 11.586-15.19 21.035-13.02 4.586 1.086 9.625 1.645 14.875 1.645 33.18 0 61.074-23.238 68.215-54.285-5.074 1.191-10.359 1.785-15.715 1.785-38.605 0-70-31.395-70-70 0-5.356.629-10.605 1.785-15.68-24.465 5.672-44.695 24.324-51.8 49.176-2.661 9.273-12.286 14.559-21.63 12.039-9.273-2.66-14.664-12.355-12.004-21.629C436.662 101.394 478.274 70 525.002 70c5.567 0 10.711.422 15.82 1.297 6.371 1.05 11.586 5.496 13.684 11.586 2.102 6.09.7 12.809-3.676 17.535-5.457 5.879-8.328 13.508-8.328 22.082 0 19.285 15.68 35 35 35 8.54 0 16.203-2.871 22.051-8.297 4.727-4.375 11.445-5.773 17.535-3.71 6.09 2.065 10.535 7.28 11.621 13.647a96.709 96.709 0 0 1 1.293 15.86c0 57.89-47.109 105-105 105z"/></g></svg>