<svg width="700pt" height="700pt" viewBox="0 0 700 700" xmlns="http://www.w3.org/2000/svg"><g fill="#efefef"><path d="M525 455H192.5C124.949 455 70 400.051 70 332.5c0-66.57 53.375-120.89 119.56-122.46C217.107 146.688 279.966 105 350 105c84.316 0 155.26 59.078 171.57 140.04C582.75 243.778 630 290.958 630 350c0 57.891-47.109 105-105 105ZM192.5 245c-48.23 0-87.5 39.27-87.5 87.5 0 48.266 39.27 87.5 87.5 87.5H525c38.605 0 70-31.395 70-70 0-38.605-31.395-70-70-70-5.144 0-10.395.594-14.98 1.469-4.797.84-9.8-.281-13.719-3.184-3.922-2.941-6.441-7.386-6.894-12.25-7.282-71.855-67.203-126.04-139.41-126.04-59.606 0-112.73 37.766-132.2 93.941-2.977 8.574-11.935 13.508-20.79 11.234-.804-.175-3.117-.175-4.515-.175z"/><path d="M525 280c-7.98 0-15.68-.875-22.891-2.555-9.45-2.203-15.262-11.656-13.02-21.07 2.172-9.379 11.586-15.19 21.035-13.02 4.586 1.086 9.625 1.645 14.875 1.645 38.605 0 70-31.395 70-70 0-38.605-31.395-70-70-70-31.184 0-58.977 20.965-67.551 50.996-2.66 9.273-12.285 14.559-21.629 12.039-9.273-2.66-14.664-12.355-12.004-21.63C436.659 101.395 478.272 70 524.995 70c57.891 0 105 47.109 105 105 0 57.89-47.109 105-105 105zM507.5 630c-28.945 0-52.5-23.555-52.5-52.5 0-22.363 26.672-63.387 38.113-79.94 6.512-9.45 22.297-9.45 28.77 0C533.328 514.113 560 555.136 560 577.5c0 28.945-23.555 52.5-52.5 52.5Zm0-90.055c-10.078 16.977-17.359 32.234-17.5 37.59 0 9.59 7.875 17.465 17.5 17.465s17.5-7.875 17.5-17.5c-.176-5.355-7.422-20.578-17.5-37.555zM350 630c-28.945 0-52.5-23.555-52.5-52.5 0-22.363 26.637-63.387 38.078-79.94 6.578-9.45 22.297-9.45 28.805 0 11.445 16.554 38.117 57.577 38.117 79.94 0 28.945-23.555 52.5-52.5 52.5zm0-90.055c-10.078 16.977-17.359 32.234-17.5 37.59 0 9.59 7.84 17.465 17.5 17.465 9.625 0 17.5-7.875 17.5-17.5-.176-5.355-7.422-20.578-17.5-37.555zM192.5 630c-28.945 0-52.5-23.555-52.5-52.5 0-22.363 26.637-63.387 38.078-79.94 6.578-9.45 22.262-9.45 28.805 0C218.363 514.113 245 555.136 245 577.5c0 28.945-23.555 52.5-52.5 52.5zm0-90.055c-10.078 16.977-17.359 32.234-17.5 37.59 0 9.59 7.84 17.465 17.5 17.465 9.625 0 17.5-7.875 17.5-17.5-.14-5.355-7.422-20.578-17.5-37.555z"/></g></svg>