<svg width="700pt" height="700pt" viewBox="0 0 700 700" xmlns="http://www.w3.org/2000/svg"><g fill="#efefef"><path d="M525.004 455h-192.5c-9.66 0-17.5-7.84-17.5-17.5s7.84-17.5 17.5-17.5h192.5c38.605 0 70-31.395 70-70 0-38.605-31.395-70-70-70-5.145 0-10.395.594-14.98 1.469-4.797.84-9.801-.281-13.72-3.184-3.921-2.941-6.44-7.387-6.894-12.25-7.281-71.855-67.203-126.04-139.41-126.04-59.605 0-112.73 37.766-132.2 93.941-2.976 8.574-11.934 13.508-20.789 11.234-.804-.176-3.117-.176-4.515-.176-48.23 0-87.5 39.27-87.5 87.5 0 13.754 3.011 26.773 8.996 38.711 4.34 8.645.804 19.145-7.84 23.484-8.645 4.34-19.145.805-23.453-7.804-8.434-16.871-12.703-35.141-12.703-54.391 0-66.57 53.375-120.89 119.56-122.46 27.547-63.352 90.406-105.04 160.44-105.04 84.316 0 155.26 59.078 171.57 140.04 61.18-1.262 108.43 45.918 108.43 104.96 0 57.89-47.109 105-105 105z"/><path d="M192.504 630c-1.121 0-2.203-.105-3.324-.316-8.227-1.61-14.176-8.82-14.176-17.184V525h-52.5a17.45 17.45 0 0 1-14.488-7.7c-3.254-4.828-3.922-10.922-1.75-16.309l70-175c3.113-7.84 11.41-12.215 19.566-10.71a17.546 17.546 0 0 1 14.172 17.218V420h52.5a17.45 17.45 0 0 1 14.488 7.7c3.253 4.828 3.921 10.922 1.75 16.309l-70 175C206.05 625.73 199.538 630 192.504 630zm-44.172-140h44.172c9.66 0 17.5 7.84 17.5 17.5v14.105L236.676 455h-44.172c-9.66 0-17.5-7.84-17.5-17.5v-14.105zM542.504 630c-28.945 0-52.5-23.555-52.5-52.5 0-22.363 26.672-63.387 38.113-79.941 6.511-9.45 22.297-9.45 28.77 0 11.445 16.555 38.117 57.578 38.117 79.941 0 28.945-23.555 52.5-52.5 52.5Zm0-90.055c-10.078 16.977-17.36 32.234-17.5 37.59 0 9.59 7.875 17.465 17.5 17.465s17.5-7.875 17.5-17.5c-.176-5.356-7.422-20.578-17.5-37.555zM402.504 630c-28.945 0-52.5-23.555-52.5-52.5 0-22.363 26.672-63.387 38.113-79.941 6.511-9.45 22.297-9.45 28.77 0 11.445 16.555 38.117 57.578 38.117 79.941 0 28.945-23.555 52.5-52.5 52.5Zm0-90.055c-10.078 16.977-17.36 32.234-17.5 37.59 0 9.59 7.875 17.465 17.5 17.465s17.5-7.875 17.5-17.5c-.176-5.356-7.422-20.578-17.5-37.555zM525.004 280c-7.98 0-15.68-.875-22.891-2.555-9.45-2.203-15.262-11.656-13.02-21.07 2.172-9.379 11.586-15.19 21.035-13.02 4.586 1.086 9.625 1.645 14.875 1.645 33.18 0 61.074-23.238 68.215-54.285-5.074 1.191-10.36 1.785-15.715 1.785-38.605 0-70-31.395-70-70 0-5.356.629-10.605 1.785-15.68-24.465 5.672-44.695 24.324-51.801 49.176-2.66 9.273-12.285 14.559-21.63 12.039-9.272-2.66-14.663-12.355-12.003-21.629C436.663 101.394 478.276 70 525.004 70c5.566 0 10.71.422 15.82 1.297 6.371 1.05 11.586 5.496 13.684 11.586 2.102 6.09.7 12.809-3.676 17.535-5.457 5.879-8.328 13.508-8.328 22.082 0 19.285 15.68 35 35 35 8.54 0 16.203-2.871 22.051-8.297 4.727-4.375 11.445-5.773 17.535-3.71 6.09 2.065 10.535 7.28 11.621 13.647a96.709 96.709 0 0 1 1.293 15.86c0 57.89-47.109 105-105 105z"/></g></svg>