<svg width="700pt" height="700pt" viewBox="0 0 700 700" xmlns="http://www.w3.org/2000/svg"><g style="fill:#efefef;fill-opacity:1" fill="#efefef"><path d="M525 385H332.5c-9.66 0-17.5-7.84-17.5-17.5s7.84-17.5 17.5-17.5H525c38.605 0 70-31.395 70-70 0-38.605-31.395-70-70-70-5.144 0-10.395.594-14.98 1.469-4.797.84-9.8-.281-13.719-3.184-3.922-2.941-6.441-7.387-6.894-12.25-7.282-71.855-67.203-126.04-139.41-126.04-59.606 0-112.73 37.766-132.2 93.941-2.977 8.574-11.935 13.508-20.79 11.234-.804-.176-3.117-.176-4.515-.176-48.23 0-87.5 39.27-87.5 87.5 0 13.754 3.012 26.773 8.996 38.711 4.34 8.645.805 19.145-7.84 23.484-8.644 4.34-19.145.805-23.453-7.804-8.433-16.871-12.703-35.141-12.703-54.391 0-66.57 53.375-120.89 119.56-122.46 27.547-63.352 90.406-105.04 160.44-105.04 84.316 0 155.26 59.078 171.57 140.04 61.18-1.262 108.43 45.918 108.43 104.96 0 57.89-47.109 105-105 105z" style="fill:#efefef;fill-opacity:1" transform="translate(.004 70)"/><path d="M192.5 560c-1.121 0-2.203-.105-3.324-.316-8.227-1.61-14.176-8.82-14.176-17.184V455h-52.5a17.45 17.45 0 0 1-14.488-7.7c-3.254-4.828-3.922-10.922-1.75-16.309l70-175c3.113-7.84 11.41-12.215 19.566-10.71A17.546 17.546 0 0 1 210 262.498V350h52.5a17.45 17.45 0 0 1 14.488 7.7c3.254 4.828 3.922 10.922 1.75 16.309l-70 175C206.046 555.73 199.535 560 192.5 560zm-44.172-140H192.5c9.66 0 17.5 7.84 17.5 17.5v14.105L236.672 385H192.5c-9.66 0-17.5-7.84-17.5-17.5v-14.105zM542.5 560c-9.66 0-17.5-7.84-17.5-17.5v-105c0-9.66 7.84-17.5 17.5-17.5s17.5 7.84 17.5 17.5v105c0 9.66-7.84 17.5-17.5 17.5z" style="fill:#efefef;fill-opacity:1" transform="translate(.004 70)"/><path d="M587.96 533.75c-2.977 0-5.984-.734-8.75-2.344l-90.93-52.5c-8.363-4.828-11.234-15.504-6.406-23.906 4.828-8.363 15.574-11.199 23.906-6.406l90.93 52.5c8.363 4.828 11.234 15.504 6.406 23.906-3.223 5.602-9.137 8.75-15.156 8.75z" style="fill:#efefef;fill-opacity:1" transform="translate(.004 70)"/><path d="M497.04 533.75c-6.02 0-11.934-3.148-15.156-8.75-4.863-8.363-1.996-19.074 6.406-23.906l90.93-52.5c8.363-4.863 19.11-2.031 23.906 6.406 4.863 8.364 1.996 19.074-6.406 23.906l-90.93 52.5a17.294 17.294 0 0 1-8.75 2.344zM367.5 560c-9.66 0-17.5-7.84-17.5-17.5v-105c0-9.66 7.84-17.5 17.5-17.5s17.5 7.84 17.5 17.5v105c0 9.66-7.84 17.5-17.5 17.5z" style="fill:#efefef;fill-opacity:1" transform="translate(.004 70)"/><path d="M412.96 533.75c-2.977 0-5.984-.734-8.75-2.344l-90.93-52.5c-8.363-4.832-11.234-15.543-6.406-23.906s15.539-11.305 23.906-6.406l90.93 52.5c8.363 4.828 11.234 15.504 6.406 23.906-3.223 5.602-9.137 8.75-15.156 8.75z" style="fill:#efefef;fill-opacity:1" transform="translate(.004 70)"/><path d="M322.07 533.75a17.558 17.558 0 0 1-15.191-8.75c-4.828-8.363-1.96-19.074 6.406-23.906l90.93-52.5c8.328-4.863 19.074-2.031 23.906 6.406 4.864 8.364 1.996 19.074-6.406 23.906l-90.93 52.5c-2.73 1.61-5.738 2.344-8.715 2.344zM525 210c-7.98 0-15.68-.875-22.891-2.555-9.45-2.203-15.262-11.656-13.02-21.07 2.172-9.379 11.586-15.19 21.035-13.02 4.586 1.086 9.625 1.645 14.875 1.645 33.18 0 61.074-23.238 68.215-54.285-5.074 1.191-10.359 1.785-15.715 1.785-38.605 0-70-31.395-70-70 0-5.356.629-10.605 1.785-15.68-24.465 5.672-44.695 24.324-51.8 49.176-2.661 9.273-12.286 14.559-21.63 12.039-9.273-2.66-14.664-12.355-12.004-21.629C436.66 31.394 478.272 0 525 0c5.567 0 10.711.422 15.82 1.297 6.371 1.05 11.586 5.496 13.684 11.586 2.102 6.09.7 12.809-3.676 17.535-5.457 5.879-8.328 13.508-8.328 22.082 0 19.285 15.68 35 35 35 8.54 0 16.203-2.871 22.051-8.297 4.727-4.375 11.445-5.773 17.535-3.71 6.09 2.066 10.535 7.28 11.621 13.647A96.709 96.709 0 0 1 630 105c0 57.89-47.109 105-105 105z" style="fill:#efefef;fill-opacity:1" transform="translate(.004 70)"/></g></svg>