<svg width="700pt" height="700pt" viewBox="0 0 700 700" xmlns="http://www.w3.org/2000/svg"><g fill="#efefef"><path d="M525.006 455h-192.5c-9.66 0-17.5-7.84-17.5-17.5s7.84-17.5 17.5-17.5h192.5c38.605 0 70-31.395 70-70 0-38.605-31.395-70-70-70-5.144 0-10.395.594-14.98 1.469-4.797.84-9.8-.281-13.719-3.184-3.922-2.941-6.441-7.386-6.894-12.25-7.281-71.855-67.203-126.04-139.41-126.04-59.605 0-112.73 37.766-132.2 93.941-2.977 8.574-11.934 13.508-20.79 11.234-.804-.175-3.116-.175-4.515-.175-48.23 0-87.5 39.27-87.5 87.5 0 13.754 3.012 26.773 8.996 38.71 4.34 8.645.805 19.146-7.84 23.485-8.644 4.34-19.144.804-23.452-7.805-8.434-16.871-12.703-35.141-12.703-54.391 0-66.57 53.375-120.89 119.56-122.46 27.547-63.352 90.406-105.04 160.44-105.04 84.316 0 155.26 59.078 171.57 140.04 61.18-1.262 108.43 45.918 108.43 104.96 0 57.89-47.11 105-105 105z"/><path d="M192.506 630c-1.12 0-2.203-.105-3.324-.316-8.226-1.61-14.176-8.82-14.176-17.184V525h-52.5a17.45 17.45 0 0 1-14.488-7.7c-3.254-4.828-3.922-10.922-1.75-16.309l70-175c3.114-7.84 11.41-12.215 19.566-10.71a17.546 17.546 0 0 1 14.172 17.218V420h52.5a17.45 17.45 0 0 1 14.488 7.7c3.254 4.828 3.922 10.922 1.75 16.309l-70 175C206.053 625.73 199.541 630 192.506 630zm-44.172-140h44.172c9.66 0 17.5 7.84 17.5 17.5v14.105L236.678 455h-44.172c-9.66 0-17.5-7.84-17.5-17.5v-14.105zM542.506 630c-28.945 0-52.5-23.555-52.5-52.5 0-22.363 26.672-63.387 38.113-79.94 6.512-9.45 22.297-9.45 28.77 0 11.445 16.554 38.117 57.577 38.117 79.94 0 28.945-23.555 52.5-52.5 52.5Zm0-90.055c-10.078 16.977-17.359 32.234-17.5 37.59 0 9.59 7.875 17.465 17.5 17.465s17.5-7.875 17.5-17.5c-.175-5.355-7.421-20.578-17.5-37.555zM402.506 630c-28.945 0-52.5-23.555-52.5-52.5 0-22.363 26.672-63.387 38.113-79.94 6.512-9.45 22.297-9.45 28.77 0 11.445 16.554 38.117 57.577 38.117 79.94 0 28.945-23.555 52.5-52.5 52.5Zm0-90.055c-10.078 16.977-17.359 32.234-17.5 37.59 0 9.59 7.875 17.465 17.5 17.465s17.5-7.875 17.5-17.5c-.175-5.355-7.421-20.578-17.5-37.555zM525.006 280c-7.98 0-15.68-.875-22.89-2.555-9.45-2.203-15.263-11.656-13.02-21.07 2.171-9.379 11.585-15.19 21.034-13.02 4.586 1.086 9.625 1.645 14.875 1.645 38.605 0 70-31.395 70-70 0-38.605-31.395-70-70-70-31.184 0-58.977 20.965-67.55 50.996-2.66 9.273-12.286 14.559-21.63 12.039-9.273-2.66-14.664-12.355-12.004-21.63C436.665 101.395 478.278 70 525.001 70c57.891 0 105 47.109 105 105 0 57.89-47.109 105-105 105z"/></g></svg>