<svg width="700pt" height="700pt" viewBox="0 0 700 700" xmlns="http://www.w3.org/2000/svg"><g style="fill:#efefef;fill-opacity:1" fill="#efefef"><path d="M315 560c-57.891 0-105-47.109-105-105 0-30.238 12.637-58.309 35-78.262V69.998c0-38.605 31.395-70 70-70 38.605 0 70 31.395 70 70v306.74c22.363 19.949 35 48.02 35 78.262 0 57.891-47.109 105-105 105zm0-525c-19.285 0-35 15.715-35 35v315c0 5.496-2.59 10.676-6.965 13.965C255.22 412.406 245 432.809 245 455c0 38.605 31.395 70 70 70 38.605 0 70-31.395 70-70 0-22.191-10.219-42.594-28.035-56.035-4.41-3.29-6.965-8.469-6.965-13.965V70c0-19.285-15.715-35-35-35zm-52.5 350h.352z" style="fill:#efefef;fill-opacity:1" transform="translate(35 70.001)"/><path d="M367.5 210h-35c-9.66 0-17.5-7.84-17.5-17.5s7.84-17.5 17.5-17.5h35c9.66 0 17.5 7.84 17.5 17.5s-7.84 17.5-17.5 17.5zM367.5 315h-35c-9.66 0-17.5-7.84-17.5-17.5s7.84-17.5 17.5-17.5h35c9.66 0 17.5 7.84 17.5 17.5s-7.84 17.5-17.5 17.5z" style="fill:#efefef;fill-opacity:1" transform="translate(35 70.001)"/></g></svg>