<svg width="700pt" height="700pt" viewBox="0 0 700 700" xmlns="http://www.w3.org/2000/svg"><g style="fill:#efefef;fill-opacity:1" fill="#efefef"><path d="M437.5 490H175c-57.891 0-105-47.109-105-105 0-58.344 46.551-105.07 106.36-105 24.922-42.875 71.262-70 121.14-70 64.539 0 119.91 44.066 135.48 105.11a94.559 94.559 0 0 1 4.516-.105c48.266 0 87.5 39.234 87.5 87.5s-39.234 87.5-87.5 87.5zM175 315c-38.605 0-70 31.395-70 70 0 38.605 31.395 70 70 70h262.5c28.945 0 52.5-23.555 52.5-52.5S466.445 350 437.5 350c-5.144 0-9.695.594-13.547 1.75-4.969 1.434-10.289.734-14.629-2.172-4.305-2.8-7.14-7.422-7.77-12.496-6.37-52.496-51.102-92.082-104.05-92.082-40.426 0-77.77 23.801-95.129 60.621-3.113 6.649-9.906 10.29-17.395 9.977-3.328-.282-6.652-.598-9.976-.598z" style="fill:#efefef;fill-opacity:1" transform="translate(.004 87.505)"/><path d="M569.45 372.75c-6.02 0-11.863-3.113-15.156-8.715-4.863-8.328-2.031-19.039 6.371-23.94 21.492-12.493 34.336-34.966 34.336-60.095 0-38.605-31.395-70-70-70-5.144 0-10.395.594-14.98 1.469-4.797.84-9.8-.281-13.719-3.184-3.922-2.941-6.441-7.386-6.894-12.25-7.282-71.855-67.203-126.04-139.41-126.04-59.605 0-112.73 37.766-132.2 93.941-2.977 8.575-11.934 13.508-20.79 11.234-.804-.175-3.117-.175-4.515-.175-45.953 0-83.301 34.44-86.836 80.113-.734 9.347-8.152 16.73-18.164 16.277-9.379-.352-16.801-7.91-16.801-17.29 4.934-64.784 55.789-112.59 118.86-114.07 27.547-63.351 90.406-105.04 160.44-105.04 84.316 0 155.26 59.079 171.57 140.04 61.18-1.261 108.43 45.919 108.43 104.96 0 37.173-19.809 71.82-51.766 90.407a17.513 17.513 0 0 1-8.785 2.343z" style="fill:#efefef;fill-opacity:1" transform="translate(.004 87.505)"/></g></svg>